G04 #@! TF.GenerationSoftware,KiCad,Pcbnew,5.1.2-f72e74a~84~ubuntu16.04.1*
G04 #@! TF.CreationDate,2019-05-08T01:02:17+08:00*
G04 #@! TF.ProjectId,8Bit_EuroRack_7hp,38426974-5f45-4757-926f-5261636b5f37,rev?*
G04 #@! TF.SameCoordinates,Original*
G04 #@! TF.FileFunction,Profile,NP*
%FSLAX46Y46*%
G04 Gerber Fmt 4.6, Leading zero omitted, Abs format (unit mm)*
G04 Created by KiCad (PCBNEW 5.1.2-f72e74a~84~ubuntu16.04.1) date 2019-05-08 01:02:17*
%MOMM*%
%LPD*%
G04 APERTURE LIST*
%ADD10C,0.100000*%
G04 APERTURE END LIST*
D10*
X45118334Y-149074390D02*
X45118334Y-149074390D01*
X45118334Y-44002497D02*
X45118334Y-149074390D01*
X45133848Y-43845696D02*
X45118334Y-44002497D01*
X45179231Y-43696350D02*
X45133848Y-43845696D01*
X45252744Y-43558657D02*
X45179231Y-43696350D01*
X45352649Y-43436812D02*
X45252744Y-43558657D01*
X45474494Y-43336906D02*
X45352649Y-43436812D01*
X45612187Y-43263393D02*
X45474494Y-43336906D01*
X45761533Y-43218011D02*
X45612187Y-43263393D01*
X45918334Y-43202497D02*
X45761533Y-43218011D01*
X77620419Y-43202497D02*
X45918334Y-43202497D01*
X77781647Y-43218750D02*
X77620419Y-43202497D01*
X77931815Y-43265365D02*
X77781647Y-43218750D01*
X78067707Y-43339124D02*
X77931815Y-43265365D01*
X78186105Y-43436812D02*
X78067707Y-43339124D01*
X78283792Y-43555209D02*
X78186105Y-43436812D01*
X78357551Y-43691101D02*
X78283792Y-43555209D01*
X78404166Y-43841269D02*
X78357551Y-43691101D01*
X78420419Y-44002497D02*
X78404166Y-43841269D01*
X78420419Y-103859201D02*
X78420419Y-44002497D01*
X78404166Y-104020429D02*
X78420419Y-103859201D01*
X78357551Y-104170597D02*
X78404166Y-104020429D01*
X78283792Y-104306489D02*
X78357551Y-104170597D01*
X78186105Y-104424886D02*
X78283792Y-104306489D01*
X78067707Y-104522574D02*
X78186105Y-104424886D01*
X77931815Y-104596333D02*
X78067707Y-104522574D01*
X77781647Y-104642948D02*
X77931815Y-104596333D01*
X77620419Y-104659201D02*
X77781647Y-104642948D01*
X67167874Y-104659201D02*
X77620419Y-104659201D01*
X67006646Y-104675454D02*
X67167874Y-104659201D01*
X66856478Y-104722069D02*
X67006646Y-104675454D01*
X66720587Y-104795828D02*
X66856478Y-104722069D01*
X66602189Y-104893516D02*
X66720587Y-104795828D01*
X66504502Y-105011913D02*
X66602189Y-104893516D01*
X66430742Y-105147805D02*
X66504502Y-105011913D01*
X66384128Y-105297973D02*
X66430742Y-105147805D01*
X66367874Y-105459201D02*
X66384128Y-105297973D01*
X66367874Y-122024227D02*
X66367874Y-105459201D01*
X66384128Y-122185455D02*
X66367874Y-122024227D01*
X66430742Y-122335623D02*
X66384128Y-122185455D01*
X66504502Y-122471515D02*
X66430742Y-122335623D01*
X66602189Y-122589912D02*
X66504502Y-122471515D01*
X66720587Y-122687600D02*
X66602189Y-122589912D01*
X66856478Y-122761359D02*
X66720587Y-122687600D01*
X67006646Y-122807974D02*
X66856478Y-122761359D01*
X67167874Y-122824227D02*
X67006646Y-122807974D01*
X77620419Y-122824227D02*
X67167874Y-122824227D01*
X77781647Y-122840480D02*
X77620419Y-122824227D01*
X77931815Y-122887095D02*
X77781647Y-122840480D01*
X78067707Y-122960854D02*
X77931815Y-122887095D01*
X78186105Y-123058542D02*
X78067707Y-122960854D01*
X78283792Y-123176939D02*
X78186105Y-123058542D01*
X78357551Y-123312831D02*
X78283792Y-123176939D01*
X78404166Y-123462999D02*
X78357551Y-123312831D01*
X78420419Y-123624227D02*
X78404166Y-123462999D01*
X78420419Y-149074390D02*
X78420419Y-123624227D01*
X78404166Y-149235618D02*
X78420419Y-149074390D01*
X78357551Y-149385786D02*
X78404166Y-149235618D01*
X78283792Y-149521678D02*
X78357551Y-149385786D01*
X78186105Y-149640075D02*
X78283792Y-149521678D01*
X78067707Y-149737763D02*
X78186105Y-149640075D01*
X77931815Y-149811522D02*
X78067707Y-149737763D01*
X77781647Y-149858137D02*
X77931815Y-149811522D01*
X77620419Y-149874390D02*
X77781647Y-149858137D01*
X45918334Y-149874390D02*
X77620419Y-149874390D01*
X45761533Y-149858876D02*
X45918334Y-149874390D01*
X45612187Y-149813494D02*
X45761533Y-149858876D01*
X45474494Y-149739981D02*
X45612187Y-149813494D01*
X45352649Y-149640075D02*
X45474494Y-149739981D01*
X45252744Y-149518230D02*
X45352649Y-149640075D01*
X45179231Y-149380537D02*
X45252744Y-149518230D01*
X45133848Y-149231191D02*
X45179231Y-149380537D01*
X45118334Y-149074390D02*
X45133848Y-149231191D01*
M02*
