G04 #@! TF.GenerationSoftware,KiCad,Pcbnew,5.1.2-f72e74a~84~ubuntu16.04.1*
G04 #@! TF.CreationDate,2019-05-08T01:02:17+08:00*
G04 #@! TF.ProjectId,8Bit_EuroRack_7hp,38426974-5f45-4757-926f-5261636b5f37,rev?*
G04 #@! TF.SameCoordinates,Original*
G04 #@! TF.FileFunction,Legend,Top*
G04 #@! TF.FilePolarity,Positive*
%FSLAX46Y46*%
G04 Gerber Fmt 4.6, Leading zero omitted, Abs format (unit mm)*
G04 Created by KiCad (PCBNEW 5.1.2-f72e74a~84~ubuntu16.04.1) date 2019-05-08 01:02:17*
%MOMM*%
%LPD*%
G04 APERTURE LIST*
%ADD10C,0.010000*%
%ADD11C,0.150000*%
%ADD12C,0.203200*%
%ADD13C,0.200000*%
%ADD14C,0.120000*%
G04 APERTURE END LIST*
D10*
G36*
X51818137Y-33443257D02*
G01*
X51980165Y-33443312D01*
X52120473Y-33443461D01*
X52240901Y-33443749D01*
X52343288Y-33444224D01*
X52429476Y-33444931D01*
X52501303Y-33445918D01*
X52560610Y-33447231D01*
X52609237Y-33448916D01*
X52649024Y-33451021D01*
X52681810Y-33453590D01*
X52709436Y-33456672D01*
X52733742Y-33460312D01*
X52756568Y-33464556D01*
X52779753Y-33469452D01*
X52794049Y-33472600D01*
X52992392Y-33527038D01*
X53174191Y-33599602D01*
X53342059Y-33691740D01*
X53498609Y-33804899D01*
X53646454Y-33940526D01*
X53655446Y-33949763D01*
X53788752Y-34105445D01*
X53900515Y-34274211D01*
X53990077Y-34454750D01*
X54056776Y-34645751D01*
X54097055Y-34827580D01*
X54106901Y-34913672D01*
X54111797Y-35015565D01*
X54111922Y-35125283D01*
X54107455Y-35234849D01*
X54098574Y-35336290D01*
X54085460Y-35421629D01*
X54083524Y-35430800D01*
X54027179Y-35630993D01*
X53948619Y-35818906D01*
X53847938Y-35994364D01*
X53725231Y-36157191D01*
X53639150Y-36250698D01*
X53486861Y-36387101D01*
X53321488Y-36501795D01*
X53142501Y-36595104D01*
X52967114Y-36661777D01*
X52924576Y-36675191D01*
X52884967Y-36686950D01*
X52846373Y-36697161D01*
X52806881Y-36705930D01*
X52764578Y-36713364D01*
X52717550Y-36719570D01*
X52663885Y-36724653D01*
X52601669Y-36728722D01*
X52528988Y-36731882D01*
X52443929Y-36734240D01*
X52344580Y-36735903D01*
X52229026Y-36736977D01*
X52095354Y-36737569D01*
X51941651Y-36737785D01*
X51766004Y-36737733D01*
X51607150Y-36737568D01*
X51406835Y-36737211D01*
X51230569Y-36736634D01*
X51077003Y-36735814D01*
X50944785Y-36734731D01*
X50832567Y-36733362D01*
X50738996Y-36731687D01*
X50662725Y-36729685D01*
X50602402Y-36727332D01*
X50556677Y-36724609D01*
X50524201Y-36721493D01*
X50514950Y-36720185D01*
X50316602Y-36676211D01*
X50128244Y-36609952D01*
X49951354Y-36522860D01*
X49787411Y-36416387D01*
X49637896Y-36291985D01*
X49504285Y-36151104D01*
X49388060Y-35995197D01*
X49290698Y-35825716D01*
X49213679Y-35644113D01*
X49158481Y-35451839D01*
X49143081Y-35373650D01*
X49132061Y-35285348D01*
X49125721Y-35181503D01*
X49124066Y-35070763D01*
X49124147Y-35067823D01*
X49195474Y-35067823D01*
X49196127Y-35170799D01*
X49201016Y-35266387D01*
X49210233Y-35346464D01*
X49211627Y-35354600D01*
X49259365Y-35551044D01*
X49330192Y-35737383D01*
X49423468Y-35912394D01*
X49538554Y-36074853D01*
X49656703Y-36205807D01*
X49806554Y-36338781D01*
X49965836Y-36448532D01*
X50136325Y-36536010D01*
X50319798Y-36602165D01*
X50464150Y-36637784D01*
X50485853Y-36641923D01*
X50508748Y-36645532D01*
X50534605Y-36648643D01*
X50565196Y-36651286D01*
X50602291Y-36653493D01*
X50647663Y-36655293D01*
X50703082Y-36656717D01*
X50770319Y-36657798D01*
X50851146Y-36658565D01*
X50947333Y-36659049D01*
X51060653Y-36659281D01*
X51192875Y-36659293D01*
X51345773Y-36659114D01*
X51521115Y-36658776D01*
X51651600Y-36658477D01*
X52724750Y-36655918D01*
X52848203Y-36622035D01*
X53045848Y-36555641D01*
X53228971Y-36469387D01*
X53396548Y-36364227D01*
X53547556Y-36241115D01*
X53680972Y-36101005D01*
X53795772Y-35944852D01*
X53890932Y-35773610D01*
X53965430Y-35588232D01*
X53969126Y-35576972D01*
X54012885Y-35404420D01*
X54036638Y-35222186D01*
X54040464Y-35035819D01*
X54024438Y-34850869D01*
X53988638Y-34672884D01*
X53955042Y-34564232D01*
X53877346Y-34383580D01*
X53778417Y-34215010D01*
X53660098Y-34060322D01*
X53524231Y-33921315D01*
X53372656Y-33799789D01*
X53207217Y-33697544D01*
X53029753Y-33616380D01*
X52959700Y-33591489D01*
X52921828Y-33579037D01*
X52887863Y-33568159D01*
X52855876Y-33558739D01*
X52823941Y-33550663D01*
X52790132Y-33543815D01*
X52752520Y-33538081D01*
X52709181Y-33533346D01*
X52658185Y-33529495D01*
X52597608Y-33526413D01*
X52525521Y-33523986D01*
X52439998Y-33522097D01*
X52339113Y-33520633D01*
X52220937Y-33519479D01*
X52083545Y-33518519D01*
X51925010Y-33517638D01*
X51743404Y-33516723D01*
X51702400Y-33516517D01*
X51503701Y-33515584D01*
X51328549Y-33514966D01*
X51175092Y-33514741D01*
X51041479Y-33514983D01*
X50925856Y-33515767D01*
X50826373Y-33517169D01*
X50741178Y-33519265D01*
X50668418Y-33522130D01*
X50606243Y-33525840D01*
X50552798Y-33530470D01*
X50506234Y-33536096D01*
X50464698Y-33542793D01*
X50426338Y-33550636D01*
X50389303Y-33559702D01*
X50351740Y-33570066D01*
X50345584Y-33571842D01*
X50151379Y-33640637D01*
X49972025Y-33729668D01*
X49808449Y-33837928D01*
X49661582Y-33964408D01*
X49532353Y-34108098D01*
X49421691Y-34267990D01*
X49330525Y-34443074D01*
X49259786Y-34632344D01*
X49218006Y-34795800D01*
X49206507Y-34872200D01*
X49198965Y-34965583D01*
X49195474Y-35067823D01*
X49124147Y-35067823D01*
X49127099Y-34961780D01*
X49134826Y-34863203D01*
X49142798Y-34806329D01*
X49189660Y-34611835D01*
X49259594Y-34425283D01*
X49351045Y-34248772D01*
X49462459Y-34084399D01*
X49592278Y-33934265D01*
X49738950Y-33800466D01*
X49900918Y-33685102D01*
X50025940Y-33614730D01*
X50108637Y-33577703D01*
X50207486Y-33540885D01*
X50313389Y-33507254D01*
X50417249Y-33479787D01*
X50476850Y-33467118D01*
X50501325Y-33462777D01*
X50526681Y-33458993D01*
X50554758Y-33455730D01*
X50587396Y-33452947D01*
X50626435Y-33450609D01*
X50673716Y-33448676D01*
X50731081Y-33447110D01*
X50800368Y-33445875D01*
X50883420Y-33444930D01*
X50982075Y-33444240D01*
X51098176Y-33443765D01*
X51233563Y-33443467D01*
X51390075Y-33443309D01*
X51569554Y-33443252D01*
X51632550Y-33443250D01*
X51818137Y-33443257D01*
X51818137Y-33443257D01*
G37*
X51818137Y-33443257D02*
X51980165Y-33443312D01*
X52120473Y-33443461D01*
X52240901Y-33443749D01*
X52343288Y-33444224D01*
X52429476Y-33444931D01*
X52501303Y-33445918D01*
X52560610Y-33447231D01*
X52609237Y-33448916D01*
X52649024Y-33451021D01*
X52681810Y-33453590D01*
X52709436Y-33456672D01*
X52733742Y-33460312D01*
X52756568Y-33464556D01*
X52779753Y-33469452D01*
X52794049Y-33472600D01*
X52992392Y-33527038D01*
X53174191Y-33599602D01*
X53342059Y-33691740D01*
X53498609Y-33804899D01*
X53646454Y-33940526D01*
X53655446Y-33949763D01*
X53788752Y-34105445D01*
X53900515Y-34274211D01*
X53990077Y-34454750D01*
X54056776Y-34645751D01*
X54097055Y-34827580D01*
X54106901Y-34913672D01*
X54111797Y-35015565D01*
X54111922Y-35125283D01*
X54107455Y-35234849D01*
X54098574Y-35336290D01*
X54085460Y-35421629D01*
X54083524Y-35430800D01*
X54027179Y-35630993D01*
X53948619Y-35818906D01*
X53847938Y-35994364D01*
X53725231Y-36157191D01*
X53639150Y-36250698D01*
X53486861Y-36387101D01*
X53321488Y-36501795D01*
X53142501Y-36595104D01*
X52967114Y-36661777D01*
X52924576Y-36675191D01*
X52884967Y-36686950D01*
X52846373Y-36697161D01*
X52806881Y-36705930D01*
X52764578Y-36713364D01*
X52717550Y-36719570D01*
X52663885Y-36724653D01*
X52601669Y-36728722D01*
X52528988Y-36731882D01*
X52443929Y-36734240D01*
X52344580Y-36735903D01*
X52229026Y-36736977D01*
X52095354Y-36737569D01*
X51941651Y-36737785D01*
X51766004Y-36737733D01*
X51607150Y-36737568D01*
X51406835Y-36737211D01*
X51230569Y-36736634D01*
X51077003Y-36735814D01*
X50944785Y-36734731D01*
X50832567Y-36733362D01*
X50738996Y-36731687D01*
X50662725Y-36729685D01*
X50602402Y-36727332D01*
X50556677Y-36724609D01*
X50524201Y-36721493D01*
X50514950Y-36720185D01*
X50316602Y-36676211D01*
X50128244Y-36609952D01*
X49951354Y-36522860D01*
X49787411Y-36416387D01*
X49637896Y-36291985D01*
X49504285Y-36151104D01*
X49388060Y-35995197D01*
X49290698Y-35825716D01*
X49213679Y-35644113D01*
X49158481Y-35451839D01*
X49143081Y-35373650D01*
X49132061Y-35285348D01*
X49125721Y-35181503D01*
X49124066Y-35070763D01*
X49124147Y-35067823D01*
X49195474Y-35067823D01*
X49196127Y-35170799D01*
X49201016Y-35266387D01*
X49210233Y-35346464D01*
X49211627Y-35354600D01*
X49259365Y-35551044D01*
X49330192Y-35737383D01*
X49423468Y-35912394D01*
X49538554Y-36074853D01*
X49656703Y-36205807D01*
X49806554Y-36338781D01*
X49965836Y-36448532D01*
X50136325Y-36536010D01*
X50319798Y-36602165D01*
X50464150Y-36637784D01*
X50485853Y-36641923D01*
X50508748Y-36645532D01*
X50534605Y-36648643D01*
X50565196Y-36651286D01*
X50602291Y-36653493D01*
X50647663Y-36655293D01*
X50703082Y-36656717D01*
X50770319Y-36657798D01*
X50851146Y-36658565D01*
X50947333Y-36659049D01*
X51060653Y-36659281D01*
X51192875Y-36659293D01*
X51345773Y-36659114D01*
X51521115Y-36658776D01*
X51651600Y-36658477D01*
X52724750Y-36655918D01*
X52848203Y-36622035D01*
X53045848Y-36555641D01*
X53228971Y-36469387D01*
X53396548Y-36364227D01*
X53547556Y-36241115D01*
X53680972Y-36101005D01*
X53795772Y-35944852D01*
X53890932Y-35773610D01*
X53965430Y-35588232D01*
X53969126Y-35576972D01*
X54012885Y-35404420D01*
X54036638Y-35222186D01*
X54040464Y-35035819D01*
X54024438Y-34850869D01*
X53988638Y-34672884D01*
X53955042Y-34564232D01*
X53877346Y-34383580D01*
X53778417Y-34215010D01*
X53660098Y-34060322D01*
X53524231Y-33921315D01*
X53372656Y-33799789D01*
X53207217Y-33697544D01*
X53029753Y-33616380D01*
X52959700Y-33591489D01*
X52921828Y-33579037D01*
X52887863Y-33568159D01*
X52855876Y-33558739D01*
X52823941Y-33550663D01*
X52790132Y-33543815D01*
X52752520Y-33538081D01*
X52709181Y-33533346D01*
X52658185Y-33529495D01*
X52597608Y-33526413D01*
X52525521Y-33523986D01*
X52439998Y-33522097D01*
X52339113Y-33520633D01*
X52220937Y-33519479D01*
X52083545Y-33518519D01*
X51925010Y-33517638D01*
X51743404Y-33516723D01*
X51702400Y-33516517D01*
X51503701Y-33515584D01*
X51328549Y-33514966D01*
X51175092Y-33514741D01*
X51041479Y-33514983D01*
X50925856Y-33515767D01*
X50826373Y-33517169D01*
X50741178Y-33519265D01*
X50668418Y-33522130D01*
X50606243Y-33525840D01*
X50552798Y-33530470D01*
X50506234Y-33536096D01*
X50464698Y-33542793D01*
X50426338Y-33550636D01*
X50389303Y-33559702D01*
X50351740Y-33570066D01*
X50345584Y-33571842D01*
X50151379Y-33640637D01*
X49972025Y-33729668D01*
X49808449Y-33837928D01*
X49661582Y-33964408D01*
X49532353Y-34108098D01*
X49421691Y-34267990D01*
X49330525Y-34443074D01*
X49259786Y-34632344D01*
X49218006Y-34795800D01*
X49206507Y-34872200D01*
X49198965Y-34965583D01*
X49195474Y-35067823D01*
X49124147Y-35067823D01*
X49127099Y-34961780D01*
X49134826Y-34863203D01*
X49142798Y-34806329D01*
X49189660Y-34611835D01*
X49259594Y-34425283D01*
X49351045Y-34248772D01*
X49462459Y-34084399D01*
X49592278Y-33934265D01*
X49738950Y-33800466D01*
X49900918Y-33685102D01*
X50025940Y-33614730D01*
X50108637Y-33577703D01*
X50207486Y-33540885D01*
X50313389Y-33507254D01*
X50417249Y-33479787D01*
X50476850Y-33467118D01*
X50501325Y-33462777D01*
X50526681Y-33458993D01*
X50554758Y-33455730D01*
X50587396Y-33452947D01*
X50626435Y-33450609D01*
X50673716Y-33448676D01*
X50731081Y-33447110D01*
X50800368Y-33445875D01*
X50883420Y-33444930D01*
X50982075Y-33444240D01*
X51098176Y-33443765D01*
X51233563Y-33443467D01*
X51390075Y-33443309D01*
X51569554Y-33443252D01*
X51632550Y-33443250D01*
X51818137Y-33443257D01*
G36*
X52218928Y-155943114D02*
G01*
X52334650Y-155943866D01*
X52434311Y-155945252D01*
X52519778Y-155947368D01*
X52592919Y-155950315D01*
X52655602Y-155954187D01*
X52709695Y-155959085D01*
X52757066Y-155965104D01*
X52799581Y-155972344D01*
X52839109Y-155980901D01*
X52877518Y-155990873D01*
X52916675Y-156002358D01*
X52958448Y-156015454D01*
X52966982Y-156018179D01*
X53157745Y-156092137D01*
X53335251Y-156187070D01*
X53498197Y-156301542D01*
X53645281Y-156434120D01*
X53775202Y-156583366D01*
X53886659Y-156747848D01*
X53978349Y-156926129D01*
X54048972Y-157116775D01*
X54083524Y-157249200D01*
X54097158Y-157331955D01*
X54106579Y-157431813D01*
X54111609Y-157540798D01*
X54112070Y-157650934D01*
X54107783Y-157754246D01*
X54098568Y-157842758D01*
X54097055Y-157852419D01*
X54051736Y-158051802D01*
X53982955Y-158241916D01*
X53891372Y-158421450D01*
X53777647Y-158589095D01*
X53655446Y-158730236D01*
X53507132Y-158868010D01*
X53349892Y-158983160D01*
X53181276Y-159077049D01*
X52998837Y-159151042D01*
X52800527Y-159206412D01*
X52776862Y-159211628D01*
X52754165Y-159216169D01*
X52730565Y-159220088D01*
X52704193Y-159223435D01*
X52673178Y-159226263D01*
X52635650Y-159228623D01*
X52589739Y-159230566D01*
X52533575Y-159232144D01*
X52465288Y-159233408D01*
X52383007Y-159234410D01*
X52284862Y-159235200D01*
X52168984Y-159235832D01*
X52033502Y-159236356D01*
X51876545Y-159236823D01*
X51696245Y-159237285D01*
X51677000Y-159237333D01*
X51519028Y-159237661D01*
X51367648Y-159237858D01*
X51224895Y-159237927D01*
X51092803Y-159237873D01*
X50973408Y-159237700D01*
X50868743Y-159237412D01*
X50780844Y-159237015D01*
X50711745Y-159236513D01*
X50663482Y-159235910D01*
X50638089Y-159235211D01*
X50635600Y-159235027D01*
X50505433Y-159215928D01*
X50371042Y-159186958D01*
X50240107Y-159150233D01*
X50120308Y-159107869D01*
X50033019Y-159069030D01*
X49859214Y-158967793D01*
X49700002Y-158846992D01*
X49556877Y-158708632D01*
X49431338Y-158554719D01*
X49324882Y-158387257D01*
X49239006Y-158208252D01*
X49175207Y-158019709D01*
X49143539Y-157877794D01*
X49131238Y-157780322D01*
X49124788Y-157667311D01*
X49124224Y-157556334D01*
X49196240Y-157556334D01*
X49196539Y-157647969D01*
X49199544Y-157734830D01*
X49205252Y-157809657D01*
X49211952Y-157856981D01*
X49261974Y-158053908D01*
X49333213Y-158239337D01*
X49424325Y-158411887D01*
X49533968Y-158570174D01*
X49660801Y-158712818D01*
X49803481Y-158838436D01*
X49960665Y-158945645D01*
X50131012Y-159033065D01*
X50313178Y-159099311D01*
X50451450Y-159133231D01*
X50478601Y-159138602D01*
X50503394Y-159143295D01*
X50527650Y-159147352D01*
X50553190Y-159150815D01*
X50581837Y-159153725D01*
X50615410Y-159156124D01*
X50655731Y-159158052D01*
X50704621Y-159159551D01*
X50763902Y-159160664D01*
X50835395Y-159161430D01*
X50920920Y-159161892D01*
X51022300Y-159162092D01*
X51141355Y-159162070D01*
X51279906Y-159161867D01*
X51439776Y-159161527D01*
X51622784Y-159161089D01*
X51670650Y-159160973D01*
X51859718Y-159160469D01*
X52025113Y-159159904D01*
X52168560Y-159159243D01*
X52291786Y-159158449D01*
X52396517Y-159157488D01*
X52484480Y-159156323D01*
X52557400Y-159154919D01*
X52617004Y-159153240D01*
X52665018Y-159151250D01*
X52703168Y-159148915D01*
X52733182Y-159146197D01*
X52756784Y-159143062D01*
X52775701Y-159139474D01*
X52781900Y-159138015D01*
X52964240Y-159085369D01*
X53126824Y-159022031D01*
X53273833Y-158945797D01*
X53409450Y-158854464D01*
X53537856Y-158745829D01*
X53552267Y-158732207D01*
X53690115Y-158584172D01*
X53805255Y-158424925D01*
X53898113Y-158253696D01*
X53969113Y-158069713D01*
X54014172Y-157895073D01*
X54028672Y-157799861D01*
X54037638Y-157689332D01*
X54040851Y-157573001D01*
X54038096Y-157460378D01*
X54029157Y-157360977D01*
X54026702Y-157344120D01*
X53984007Y-157151748D01*
X53918507Y-156968508D01*
X53831669Y-156796131D01*
X53724962Y-156636350D01*
X53599855Y-156490895D01*
X53457814Y-156361498D01*
X53300307Y-156249890D01*
X53128804Y-156157802D01*
X52966699Y-156094032D01*
X52926062Y-156080731D01*
X52888564Y-156069063D01*
X52852315Y-156058922D01*
X52815428Y-156050200D01*
X52776015Y-156042790D01*
X52732188Y-156036585D01*
X52682057Y-156031479D01*
X52623736Y-156027364D01*
X52555336Y-156024134D01*
X52474968Y-156021681D01*
X52380745Y-156019899D01*
X52270778Y-156018680D01*
X52143179Y-156017918D01*
X51996060Y-156017505D01*
X51827532Y-156017334D01*
X51635708Y-156017300D01*
X51612286Y-156017300D01*
X51426628Y-156017330D01*
X51264517Y-156017449D01*
X51124101Y-156017695D01*
X51003525Y-156018108D01*
X50900939Y-156018726D01*
X50814488Y-156019590D01*
X50742320Y-156020738D01*
X50682583Y-156022210D01*
X50633422Y-156024045D01*
X50592986Y-156026282D01*
X50559422Y-156028961D01*
X50530877Y-156032121D01*
X50505497Y-156035801D01*
X50481431Y-156040041D01*
X50474125Y-156041441D01*
X50363196Y-156065863D01*
X50265072Y-156094589D01*
X50168973Y-156131276D01*
X50064121Y-156179579D01*
X50057750Y-156182713D01*
X49891296Y-156278737D01*
X49738780Y-156394890D01*
X49601691Y-156529157D01*
X49481521Y-156679523D01*
X49379762Y-156843974D01*
X49297906Y-157020496D01*
X49237444Y-157207075D01*
X49211627Y-157325400D01*
X49203780Y-157387788D01*
X49198652Y-157467187D01*
X49196240Y-157556334D01*
X49124224Y-157556334D01*
X49124181Y-157547935D01*
X49129410Y-157431370D01*
X49140468Y-157326792D01*
X49143981Y-157304542D01*
X49189379Y-157111955D01*
X49257693Y-156927559D01*
X49347293Y-156753255D01*
X49456547Y-156590944D01*
X49583824Y-156442526D01*
X49727492Y-156309903D01*
X49885920Y-156194974D01*
X50057477Y-156099641D01*
X50240531Y-156025803D01*
X50241900Y-156025350D01*
X50282182Y-156011976D01*
X50318166Y-156000259D01*
X50351750Y-155990085D01*
X50384833Y-155981335D01*
X50419316Y-155973893D01*
X50457097Y-155967643D01*
X50500077Y-155962468D01*
X50550153Y-155958252D01*
X50609226Y-155954876D01*
X50679195Y-155952226D01*
X50761959Y-155950184D01*
X50859418Y-155948633D01*
X50973472Y-155947457D01*
X51106019Y-155946539D01*
X51258959Y-155945762D01*
X51434191Y-155945010D01*
X51558077Y-155944492D01*
X51756720Y-155943685D01*
X51931831Y-155943122D01*
X52085278Y-155942899D01*
X52218928Y-155943114D01*
X52218928Y-155943114D01*
G37*
X52218928Y-155943114D02*
X52334650Y-155943866D01*
X52434311Y-155945252D01*
X52519778Y-155947368D01*
X52592919Y-155950315D01*
X52655602Y-155954187D01*
X52709695Y-155959085D01*
X52757066Y-155965104D01*
X52799581Y-155972344D01*
X52839109Y-155980901D01*
X52877518Y-155990873D01*
X52916675Y-156002358D01*
X52958448Y-156015454D01*
X52966982Y-156018179D01*
X53157745Y-156092137D01*
X53335251Y-156187070D01*
X53498197Y-156301542D01*
X53645281Y-156434120D01*
X53775202Y-156583366D01*
X53886659Y-156747848D01*
X53978349Y-156926129D01*
X54048972Y-157116775D01*
X54083524Y-157249200D01*
X54097158Y-157331955D01*
X54106579Y-157431813D01*
X54111609Y-157540798D01*
X54112070Y-157650934D01*
X54107783Y-157754246D01*
X54098568Y-157842758D01*
X54097055Y-157852419D01*
X54051736Y-158051802D01*
X53982955Y-158241916D01*
X53891372Y-158421450D01*
X53777647Y-158589095D01*
X53655446Y-158730236D01*
X53507132Y-158868010D01*
X53349892Y-158983160D01*
X53181276Y-159077049D01*
X52998837Y-159151042D01*
X52800527Y-159206412D01*
X52776862Y-159211628D01*
X52754165Y-159216169D01*
X52730565Y-159220088D01*
X52704193Y-159223435D01*
X52673178Y-159226263D01*
X52635650Y-159228623D01*
X52589739Y-159230566D01*
X52533575Y-159232144D01*
X52465288Y-159233408D01*
X52383007Y-159234410D01*
X52284862Y-159235200D01*
X52168984Y-159235832D01*
X52033502Y-159236356D01*
X51876545Y-159236823D01*
X51696245Y-159237285D01*
X51677000Y-159237333D01*
X51519028Y-159237661D01*
X51367648Y-159237858D01*
X51224895Y-159237927D01*
X51092803Y-159237873D01*
X50973408Y-159237700D01*
X50868743Y-159237412D01*
X50780844Y-159237015D01*
X50711745Y-159236513D01*
X50663482Y-159235910D01*
X50638089Y-159235211D01*
X50635600Y-159235027D01*
X50505433Y-159215928D01*
X50371042Y-159186958D01*
X50240107Y-159150233D01*
X50120308Y-159107869D01*
X50033019Y-159069030D01*
X49859214Y-158967793D01*
X49700002Y-158846992D01*
X49556877Y-158708632D01*
X49431338Y-158554719D01*
X49324882Y-158387257D01*
X49239006Y-158208252D01*
X49175207Y-158019709D01*
X49143539Y-157877794D01*
X49131238Y-157780322D01*
X49124788Y-157667311D01*
X49124224Y-157556334D01*
X49196240Y-157556334D01*
X49196539Y-157647969D01*
X49199544Y-157734830D01*
X49205252Y-157809657D01*
X49211952Y-157856981D01*
X49261974Y-158053908D01*
X49333213Y-158239337D01*
X49424325Y-158411887D01*
X49533968Y-158570174D01*
X49660801Y-158712818D01*
X49803481Y-158838436D01*
X49960665Y-158945645D01*
X50131012Y-159033065D01*
X50313178Y-159099311D01*
X50451450Y-159133231D01*
X50478601Y-159138602D01*
X50503394Y-159143295D01*
X50527650Y-159147352D01*
X50553190Y-159150815D01*
X50581837Y-159153725D01*
X50615410Y-159156124D01*
X50655731Y-159158052D01*
X50704621Y-159159551D01*
X50763902Y-159160664D01*
X50835395Y-159161430D01*
X50920920Y-159161892D01*
X51022300Y-159162092D01*
X51141355Y-159162070D01*
X51279906Y-159161867D01*
X51439776Y-159161527D01*
X51622784Y-159161089D01*
X51670650Y-159160973D01*
X51859718Y-159160469D01*
X52025113Y-159159904D01*
X52168560Y-159159243D01*
X52291786Y-159158449D01*
X52396517Y-159157488D01*
X52484480Y-159156323D01*
X52557400Y-159154919D01*
X52617004Y-159153240D01*
X52665018Y-159151250D01*
X52703168Y-159148915D01*
X52733182Y-159146197D01*
X52756784Y-159143062D01*
X52775701Y-159139474D01*
X52781900Y-159138015D01*
X52964240Y-159085369D01*
X53126824Y-159022031D01*
X53273833Y-158945797D01*
X53409450Y-158854464D01*
X53537856Y-158745829D01*
X53552267Y-158732207D01*
X53690115Y-158584172D01*
X53805255Y-158424925D01*
X53898113Y-158253696D01*
X53969113Y-158069713D01*
X54014172Y-157895073D01*
X54028672Y-157799861D01*
X54037638Y-157689332D01*
X54040851Y-157573001D01*
X54038096Y-157460378D01*
X54029157Y-157360977D01*
X54026702Y-157344120D01*
X53984007Y-157151748D01*
X53918507Y-156968508D01*
X53831669Y-156796131D01*
X53724962Y-156636350D01*
X53599855Y-156490895D01*
X53457814Y-156361498D01*
X53300307Y-156249890D01*
X53128804Y-156157802D01*
X52966699Y-156094032D01*
X52926062Y-156080731D01*
X52888564Y-156069063D01*
X52852315Y-156058922D01*
X52815428Y-156050200D01*
X52776015Y-156042790D01*
X52732188Y-156036585D01*
X52682057Y-156031479D01*
X52623736Y-156027364D01*
X52555336Y-156024134D01*
X52474968Y-156021681D01*
X52380745Y-156019899D01*
X52270778Y-156018680D01*
X52143179Y-156017918D01*
X51996060Y-156017505D01*
X51827532Y-156017334D01*
X51635708Y-156017300D01*
X51612286Y-156017300D01*
X51426628Y-156017330D01*
X51264517Y-156017449D01*
X51124101Y-156017695D01*
X51003525Y-156018108D01*
X50900939Y-156018726D01*
X50814488Y-156019590D01*
X50742320Y-156020738D01*
X50682583Y-156022210D01*
X50633422Y-156024045D01*
X50592986Y-156026282D01*
X50559422Y-156028961D01*
X50530877Y-156032121D01*
X50505497Y-156035801D01*
X50481431Y-156040041D01*
X50474125Y-156041441D01*
X50363196Y-156065863D01*
X50265072Y-156094589D01*
X50168973Y-156131276D01*
X50064121Y-156179579D01*
X50057750Y-156182713D01*
X49891296Y-156278737D01*
X49738780Y-156394890D01*
X49601691Y-156529157D01*
X49481521Y-156679523D01*
X49379762Y-156843974D01*
X49297906Y-157020496D01*
X49237444Y-157207075D01*
X49211627Y-157325400D01*
X49203780Y-157387788D01*
X49198652Y-157467187D01*
X49196240Y-157556334D01*
X49124224Y-157556334D01*
X49124181Y-157547935D01*
X49129410Y-157431370D01*
X49140468Y-157326792D01*
X49143981Y-157304542D01*
X49189379Y-157111955D01*
X49257693Y-156927559D01*
X49347293Y-156753255D01*
X49456547Y-156590944D01*
X49583824Y-156442526D01*
X49727492Y-156309903D01*
X49885920Y-156194974D01*
X50057477Y-156099641D01*
X50240531Y-156025803D01*
X50241900Y-156025350D01*
X50282182Y-156011976D01*
X50318166Y-156000259D01*
X50351750Y-155990085D01*
X50384833Y-155981335D01*
X50419316Y-155973893D01*
X50457097Y-155967643D01*
X50500077Y-155962468D01*
X50550153Y-155958252D01*
X50609226Y-155954876D01*
X50679195Y-155952226D01*
X50761959Y-155950184D01*
X50859418Y-155948633D01*
X50973472Y-155947457D01*
X51106019Y-155946539D01*
X51258959Y-155945762D01*
X51434191Y-155945010D01*
X51558077Y-155944492D01*
X51756720Y-155943685D01*
X51931831Y-155943122D01*
X52085278Y-155942899D01*
X52218928Y-155943114D01*
G36*
X79363000Y-160589300D02*
G01*
X44057000Y-160589300D01*
X44057000Y-32141500D01*
X44107800Y-32141500D01*
X44107800Y-160538500D01*
X79324900Y-160538500D01*
X79324900Y-32141500D01*
X44107800Y-32141500D01*
X44057000Y-32141500D01*
X44057000Y-32090700D01*
X79363000Y-32090700D01*
X79363000Y-160589300D01*
X79363000Y-160589300D01*
G37*
X79363000Y-160589300D02*
X44057000Y-160589300D01*
X44057000Y-32141500D01*
X44107800Y-32141500D01*
X44107800Y-160538500D01*
X79324900Y-160538500D01*
X79324900Y-32141500D01*
X44107800Y-32141500D01*
X44057000Y-32141500D01*
X44057000Y-32090700D01*
X79363000Y-32090700D01*
X79363000Y-160589300D01*
D11*
X50920000Y-128830000D02*
G75*
G03X50920000Y-128830000I-1300000J0D01*
G01*
X45120000Y-122830000D02*
X54120000Y-122830000D01*
X45120000Y-133330000D02*
X54120000Y-133330000D01*
X45120000Y-122830000D02*
X45120000Y-133330000D01*
X54120000Y-122830000D02*
X54120000Y-133330000D01*
X51416051Y-128830000D02*
G75*
G03X51416051Y-128830000I-1796051J0D01*
G01*
X47715000Y-126925000D02*
X51525000Y-126925000D01*
X51525000Y-130735000D02*
X47715000Y-130735000D01*
X47715000Y-126925000D02*
G75*
G03X47715000Y-130735000I1905000J-1905000D01*
G01*
X51525000Y-130735000D02*
G75*
G03X51525000Y-126925000I-1905000J1905000D01*
G01*
X51525000Y-132640000D02*
X54065000Y-132640000D01*
X51525000Y-133275000D02*
X51525000Y-132640000D01*
X47715000Y-133275000D02*
X51525000Y-133275000D01*
X47715000Y-132640000D02*
X47715000Y-133275000D01*
X45175000Y-132640000D02*
X47715000Y-132640000D01*
X50920000Y-99340000D02*
G75*
G03X50920000Y-99340000I-1300000J0D01*
G01*
X45120000Y-93340000D02*
X54120000Y-93340000D01*
X45120000Y-103840000D02*
X54120000Y-103840000D01*
X45120000Y-93340000D02*
X45120000Y-103840000D01*
X54120000Y-93340000D02*
X54120000Y-103840000D01*
X51416051Y-99340000D02*
G75*
G03X51416051Y-99340000I-1796051J0D01*
G01*
X47715000Y-97435000D02*
X51525000Y-97435000D01*
X51525000Y-101245000D02*
X47715000Y-101245000D01*
X47715000Y-97435000D02*
G75*
G03X47715000Y-101245000I1905000J-1905000D01*
G01*
X51525000Y-101245000D02*
G75*
G03X51525000Y-97435000I-1905000J1905000D01*
G01*
X51525000Y-103150000D02*
X54065000Y-103150000D01*
X51525000Y-103785000D02*
X51525000Y-103150000D01*
X47715000Y-103785000D02*
X51525000Y-103785000D01*
X47715000Y-103150000D02*
X47715000Y-103785000D01*
X45175000Y-103150000D02*
X47715000Y-103150000D01*
X50920000Y-142590000D02*
G75*
G03X50920000Y-142590000I-1300000J0D01*
G01*
X45120000Y-136590000D02*
X54120000Y-136590000D01*
X45120000Y-147090000D02*
X54120000Y-147090000D01*
X45120000Y-136590000D02*
X45120000Y-147090000D01*
X54120000Y-136590000D02*
X54120000Y-147090000D01*
X51416051Y-142590000D02*
G75*
G03X51416051Y-142590000I-1796051J0D01*
G01*
X47715000Y-140685000D02*
X51525000Y-140685000D01*
X51525000Y-144495000D02*
X47715000Y-144495000D01*
X47715000Y-140685000D02*
G75*
G03X47715000Y-144495000I1905000J-1905000D01*
G01*
X51525000Y-144495000D02*
G75*
G03X51525000Y-140685000I-1905000J1905000D01*
G01*
X51525000Y-146400000D02*
X54065000Y-146400000D01*
X51525000Y-147035000D02*
X51525000Y-146400000D01*
X47715000Y-147035000D02*
X51525000Y-147035000D01*
X47715000Y-146400000D02*
X47715000Y-147035000D01*
X45175000Y-146400000D02*
X47715000Y-146400000D01*
X63080000Y-128830000D02*
G75*
G03X63080000Y-128830000I-1300000J0D01*
G01*
X57280000Y-122830000D02*
X66280000Y-122830000D01*
X57280000Y-133330000D02*
X66280000Y-133330000D01*
X57280000Y-122830000D02*
X57280000Y-133330000D01*
X66280000Y-122830000D02*
X66280000Y-133330000D01*
X63576051Y-128830000D02*
G75*
G03X63576051Y-128830000I-1796051J0D01*
G01*
X59875000Y-126925000D02*
X63685000Y-126925000D01*
X63685000Y-130735000D02*
X59875000Y-130735000D01*
X59875000Y-126925000D02*
G75*
G03X59875000Y-130735000I1905000J-1905000D01*
G01*
X63685000Y-130735000D02*
G75*
G03X63685000Y-126925000I-1905000J1905000D01*
G01*
X63685000Y-132640000D02*
X66225000Y-132640000D01*
X63685000Y-133275000D02*
X63685000Y-132640000D01*
X59875000Y-133275000D02*
X63685000Y-133275000D01*
X59875000Y-132640000D02*
X59875000Y-133275000D01*
X57335000Y-132640000D02*
X59875000Y-132640000D01*
X75240000Y-142590000D02*
G75*
G03X75240000Y-142590000I-1300000J0D01*
G01*
X69440000Y-136590000D02*
X78440000Y-136590000D01*
X69440000Y-147090000D02*
X78440000Y-147090000D01*
X69440000Y-136590000D02*
X69440000Y-147090000D01*
X78440000Y-136590000D02*
X78440000Y-147090000D01*
X75736051Y-142590000D02*
G75*
G03X75736051Y-142590000I-1796051J0D01*
G01*
X72035000Y-140685000D02*
X75845000Y-140685000D01*
X75845000Y-144495000D02*
X72035000Y-144495000D01*
X72035000Y-140685000D02*
G75*
G03X72035000Y-144495000I1905000J-1905000D01*
G01*
X75845000Y-144495000D02*
G75*
G03X75845000Y-140685000I-1905000J1905000D01*
G01*
X75845000Y-146400000D02*
X78385000Y-146400000D01*
X75845000Y-147035000D02*
X75845000Y-146400000D01*
X72035000Y-147035000D02*
X75845000Y-147035000D01*
X72035000Y-146400000D02*
X72035000Y-147035000D01*
X69495000Y-146400000D02*
X72035000Y-146400000D01*
X75240000Y-128830000D02*
G75*
G03X75240000Y-128830000I-1300000J0D01*
G01*
X69440000Y-122830000D02*
X78440000Y-122830000D01*
X69440000Y-133330000D02*
X78440000Y-133330000D01*
X69440000Y-122830000D02*
X69440000Y-133330000D01*
X78440000Y-122830000D02*
X78440000Y-133330000D01*
X75736051Y-128830000D02*
G75*
G03X75736051Y-128830000I-1796051J0D01*
G01*
X72035000Y-126925000D02*
X75845000Y-126925000D01*
X75845000Y-130735000D02*
X72035000Y-130735000D01*
X72035000Y-126925000D02*
G75*
G03X72035000Y-130735000I1905000J-1905000D01*
G01*
X75845000Y-130735000D02*
G75*
G03X75845000Y-126925000I-1905000J1905000D01*
G01*
X75845000Y-132640000D02*
X78385000Y-132640000D01*
X75845000Y-133275000D02*
X75845000Y-132640000D01*
X72035000Y-133275000D02*
X75845000Y-133275000D01*
X72035000Y-132640000D02*
X72035000Y-133275000D01*
X69495000Y-132640000D02*
X72035000Y-132640000D01*
X63080000Y-142590000D02*
G75*
G03X63080000Y-142590000I-1300000J0D01*
G01*
X57280000Y-136590000D02*
X66280000Y-136590000D01*
X57280000Y-147090000D02*
X66280000Y-147090000D01*
X57280000Y-136590000D02*
X57280000Y-147090000D01*
X66280000Y-136590000D02*
X66280000Y-147090000D01*
X63576051Y-142590000D02*
G75*
G03X63576051Y-142590000I-1796051J0D01*
G01*
X59875000Y-140685000D02*
X63685000Y-140685000D01*
X63685000Y-144495000D02*
X59875000Y-144495000D01*
X59875000Y-140685000D02*
G75*
G03X59875000Y-144495000I1905000J-1905000D01*
G01*
X63685000Y-144495000D02*
G75*
G03X63685000Y-140685000I-1905000J1905000D01*
G01*
X63685000Y-146400000D02*
X66225000Y-146400000D01*
X63685000Y-147035000D02*
X63685000Y-146400000D01*
X59875000Y-147035000D02*
X63685000Y-147035000D01*
X59875000Y-146400000D02*
X59875000Y-147035000D01*
X57335000Y-146400000D02*
X59875000Y-146400000D01*
D12*
X51932000Y-87666000D02*
X51932000Y-89190000D01*
X51932000Y-89190000D02*
X52440000Y-89698000D01*
X52440000Y-83602000D02*
X51932000Y-84110000D01*
X51932000Y-84110000D02*
X51932000Y-85634000D01*
X57520000Y-89698000D02*
X58028000Y-89190000D01*
X58028000Y-89190000D02*
X58028000Y-87666000D01*
X57520000Y-83602000D02*
X58028000Y-84110000D01*
X58028000Y-84110000D02*
X58028000Y-85634000D01*
X52440000Y-83602000D02*
X52821000Y-83602000D01*
X57520000Y-83602000D02*
X52821000Y-83602000D01*
X57520000Y-89698000D02*
X55996000Y-89698000D01*
X52440000Y-89698000D02*
X55996000Y-89698000D01*
X57520000Y-87920000D02*
X57520000Y-87158000D01*
X57520000Y-86142000D02*
X57520000Y-85380000D01*
X57520000Y-87158000D02*
X57139000Y-86269000D01*
X65352000Y-87756000D02*
X65352000Y-89280000D01*
X65352000Y-89280000D02*
X65860000Y-89788000D01*
X65860000Y-83692000D02*
X65352000Y-84200000D01*
X65352000Y-84200000D02*
X65352000Y-85724000D01*
X70940000Y-89788000D02*
X71448000Y-89280000D01*
X71448000Y-89280000D02*
X71448000Y-87756000D01*
X70940000Y-83692000D02*
X71448000Y-84200000D01*
X71448000Y-84200000D02*
X71448000Y-85724000D01*
X65860000Y-83692000D02*
X66241000Y-83692000D01*
X70940000Y-83692000D02*
X66241000Y-83692000D01*
X70940000Y-89788000D02*
X69416000Y-89788000D01*
X65860000Y-89788000D02*
X69416000Y-89788000D01*
X70940000Y-88010000D02*
X70940000Y-87248000D01*
X70940000Y-86232000D02*
X70940000Y-85470000D01*
X70940000Y-87248000D02*
X70559000Y-86359000D01*
D13*
X56710000Y-79380000D02*
X56710000Y-73380000D01*
X66710000Y-79380000D02*
X56710000Y-79380000D01*
X66710000Y-68380000D02*
X66710000Y-79380000D01*
X56710000Y-68380000D02*
X66710000Y-68380000D01*
X56710000Y-73380000D02*
X56710000Y-68380000D01*
X63946068Y-73380000D02*
G75*
G03X63946068Y-73380000I-2236068J0D01*
G01*
X56710000Y-54500000D02*
X56710000Y-48500000D01*
X66710000Y-54500000D02*
X56710000Y-54500000D01*
X66710000Y-43500000D02*
X66710000Y-54500000D01*
X56710000Y-43500000D02*
X66710000Y-43500000D01*
X56710000Y-48500000D02*
X56710000Y-43500000D01*
X63946068Y-48500000D02*
G75*
G03X63946068Y-48500000I-2236068J0D01*
G01*
D10*
G36*
X73008125Y-64230672D02*
G01*
X73144250Y-64168843D01*
X73299170Y-64101244D01*
X73467552Y-64030045D01*
X73644064Y-63957417D01*
X73823372Y-63885528D01*
X74000144Y-63816548D01*
X74169047Y-63752647D01*
X74304930Y-63703056D01*
X74423810Y-63660550D01*
X72884300Y-63654004D01*
X72884300Y-63362100D01*
X75336288Y-63362100D01*
X75332669Y-63489605D01*
X75329050Y-63617109D01*
X75075050Y-63703880D01*
X74918584Y-63758123D01*
X74754002Y-63816622D01*
X74585566Y-63877776D01*
X74417536Y-63939983D01*
X74254172Y-64001642D01*
X74099736Y-64061152D01*
X73958488Y-64116911D01*
X73834690Y-64167317D01*
X73773300Y-64193154D01*
X73639950Y-64250132D01*
X75335400Y-64251100D01*
X75335400Y-64543200D01*
X72884300Y-64543200D01*
X72884300Y-64288369D01*
X73008125Y-64230672D01*
X73008125Y-64230672D01*
G37*
X73008125Y-64230672D02*
X73144250Y-64168843D01*
X73299170Y-64101244D01*
X73467552Y-64030045D01*
X73644064Y-63957417D01*
X73823372Y-63885528D01*
X74000144Y-63816548D01*
X74169047Y-63752647D01*
X74304930Y-63703056D01*
X74423810Y-63660550D01*
X72884300Y-63654004D01*
X72884300Y-63362100D01*
X75336288Y-63362100D01*
X75332669Y-63489605D01*
X75329050Y-63617109D01*
X75075050Y-63703880D01*
X74918584Y-63758123D01*
X74754002Y-63816622D01*
X74585566Y-63877776D01*
X74417536Y-63939983D01*
X74254172Y-64001642D01*
X74099736Y-64061152D01*
X73958488Y-64116911D01*
X73834690Y-64167317D01*
X73773300Y-64193154D01*
X73639950Y-64250132D01*
X75335400Y-64251100D01*
X75335400Y-64543200D01*
X72884300Y-64543200D01*
X72884300Y-64288369D01*
X73008125Y-64230672D01*
G36*
X72887106Y-65413966D02*
G01*
X72890650Y-65261704D01*
X73111064Y-65207505D01*
X73283222Y-65165783D01*
X73462547Y-65123444D01*
X73643184Y-65081815D01*
X73819282Y-65042221D01*
X73984987Y-65005988D01*
X74134447Y-64974442D01*
X74190527Y-64962997D01*
X74272423Y-64946735D01*
X74367540Y-64928262D01*
X74472362Y-64908224D01*
X74583372Y-64887269D01*
X74697053Y-64866043D01*
X74809890Y-64845194D01*
X74918364Y-64825368D01*
X75018961Y-64807211D01*
X75108162Y-64791372D01*
X75182451Y-64778496D01*
X75238312Y-64769231D01*
X75268725Y-64764672D01*
X75335400Y-64755828D01*
X75335400Y-64909864D01*
X75334401Y-64976663D01*
X75331573Y-65026521D01*
X75327162Y-65056406D01*
X75322778Y-65063900D01*
X75306561Y-65065724D01*
X75269761Y-65070746D01*
X75216897Y-65078289D01*
X75152491Y-65087680D01*
X75081062Y-65098243D01*
X75007129Y-65109303D01*
X74935214Y-65120184D01*
X74869836Y-65130212D01*
X74815514Y-65138710D01*
X74776770Y-65145005D01*
X74760725Y-65147859D01*
X74725800Y-65154819D01*
X74725800Y-65419133D01*
X74725861Y-65507339D01*
X74726279Y-65573445D01*
X74727400Y-65620753D01*
X74729571Y-65652563D01*
X74733141Y-65672177D01*
X74738457Y-65682894D01*
X74745865Y-65688016D01*
X74754375Y-65690512D01*
X74774477Y-65694271D01*
X74814585Y-65700851D01*
X74870137Y-65709576D01*
X74936573Y-65719765D01*
X75009331Y-65730739D01*
X75083850Y-65741821D01*
X75155569Y-65752331D01*
X75219927Y-65761590D01*
X75272363Y-65768920D01*
X75308316Y-65773642D01*
X75322750Y-65775100D01*
X75328269Y-65787286D01*
X75332373Y-65821837D01*
X75334812Y-65875746D01*
X75335400Y-65927742D01*
X75335253Y-65991970D01*
X75334285Y-66034850D01*
X75331705Y-66060436D01*
X75326720Y-66072779D01*
X75318541Y-66075933D01*
X75306825Y-66074051D01*
X75286096Y-66070089D01*
X75244492Y-66062633D01*
X75186182Y-66052414D01*
X75115338Y-66040160D01*
X75036128Y-66026600D01*
X75011550Y-66022420D01*
X74603059Y-65949784D01*
X74384157Y-65907073D01*
X74384157Y-65622700D01*
X74388035Y-65610703D01*
X74391346Y-65577519D01*
X74393853Y-65527358D01*
X74395318Y-65464432D01*
X74395600Y-65419500D01*
X74394875Y-65344275D01*
X74392828Y-65283607D01*
X74389645Y-65240657D01*
X74385515Y-65218585D01*
X74383504Y-65216300D01*
X74361862Y-65218862D01*
X74320059Y-65226073D01*
X74261398Y-65237222D01*
X74189182Y-65251597D01*
X74106713Y-65268488D01*
X74017294Y-65287183D01*
X73924228Y-65306971D01*
X73830818Y-65327142D01*
X73740365Y-65346983D01*
X73656174Y-65365783D01*
X73581546Y-65382832D01*
X73519785Y-65397417D01*
X73474193Y-65408829D01*
X73448073Y-65416355D01*
X73443100Y-65418808D01*
X73454994Y-65423562D01*
X73488475Y-65432674D01*
X73540244Y-65445428D01*
X73607000Y-65461111D01*
X73685442Y-65479006D01*
X73772270Y-65498399D01*
X73864184Y-65518575D01*
X73957882Y-65538817D01*
X74050065Y-65558412D01*
X74137431Y-65576645D01*
X74216681Y-65592799D01*
X74284514Y-65606160D01*
X74337630Y-65616014D01*
X74372728Y-65621644D01*
X74384157Y-65622700D01*
X74384157Y-65907073D01*
X74206487Y-65872406D01*
X73811820Y-65788202D01*
X73409048Y-65695089D01*
X73230006Y-65651579D01*
X72883563Y-65566227D01*
X72887106Y-65413966D01*
X72887106Y-65413966D01*
G37*
X72887106Y-65413966D02*
X72890650Y-65261704D01*
X73111064Y-65207505D01*
X73283222Y-65165783D01*
X73462547Y-65123444D01*
X73643184Y-65081815D01*
X73819282Y-65042221D01*
X73984987Y-65005988D01*
X74134447Y-64974442D01*
X74190527Y-64962997D01*
X74272423Y-64946735D01*
X74367540Y-64928262D01*
X74472362Y-64908224D01*
X74583372Y-64887269D01*
X74697053Y-64866043D01*
X74809890Y-64845194D01*
X74918364Y-64825368D01*
X75018961Y-64807211D01*
X75108162Y-64791372D01*
X75182451Y-64778496D01*
X75238312Y-64769231D01*
X75268725Y-64764672D01*
X75335400Y-64755828D01*
X75335400Y-64909864D01*
X75334401Y-64976663D01*
X75331573Y-65026521D01*
X75327162Y-65056406D01*
X75322778Y-65063900D01*
X75306561Y-65065724D01*
X75269761Y-65070746D01*
X75216897Y-65078289D01*
X75152491Y-65087680D01*
X75081062Y-65098243D01*
X75007129Y-65109303D01*
X74935214Y-65120184D01*
X74869836Y-65130212D01*
X74815514Y-65138710D01*
X74776770Y-65145005D01*
X74760725Y-65147859D01*
X74725800Y-65154819D01*
X74725800Y-65419133D01*
X74725861Y-65507339D01*
X74726279Y-65573445D01*
X74727400Y-65620753D01*
X74729571Y-65652563D01*
X74733141Y-65672177D01*
X74738457Y-65682894D01*
X74745865Y-65688016D01*
X74754375Y-65690512D01*
X74774477Y-65694271D01*
X74814585Y-65700851D01*
X74870137Y-65709576D01*
X74936573Y-65719765D01*
X75009331Y-65730739D01*
X75083850Y-65741821D01*
X75155569Y-65752331D01*
X75219927Y-65761590D01*
X75272363Y-65768920D01*
X75308316Y-65773642D01*
X75322750Y-65775100D01*
X75328269Y-65787286D01*
X75332373Y-65821837D01*
X75334812Y-65875746D01*
X75335400Y-65927742D01*
X75335253Y-65991970D01*
X75334285Y-66034850D01*
X75331705Y-66060436D01*
X75326720Y-66072779D01*
X75318541Y-66075933D01*
X75306825Y-66074051D01*
X75286096Y-66070089D01*
X75244492Y-66062633D01*
X75186182Y-66052414D01*
X75115338Y-66040160D01*
X75036128Y-66026600D01*
X75011550Y-66022420D01*
X74603059Y-65949784D01*
X74384157Y-65907073D01*
X74384157Y-65622700D01*
X74388035Y-65610703D01*
X74391346Y-65577519D01*
X74393853Y-65527358D01*
X74395318Y-65464432D01*
X74395600Y-65419500D01*
X74394875Y-65344275D01*
X74392828Y-65283607D01*
X74389645Y-65240657D01*
X74385515Y-65218585D01*
X74383504Y-65216300D01*
X74361862Y-65218862D01*
X74320059Y-65226073D01*
X74261398Y-65237222D01*
X74189182Y-65251597D01*
X74106713Y-65268488D01*
X74017294Y-65287183D01*
X73924228Y-65306971D01*
X73830818Y-65327142D01*
X73740365Y-65346983D01*
X73656174Y-65365783D01*
X73581546Y-65382832D01*
X73519785Y-65397417D01*
X73474193Y-65408829D01*
X73448073Y-65416355D01*
X73443100Y-65418808D01*
X73454994Y-65423562D01*
X73488475Y-65432674D01*
X73540244Y-65445428D01*
X73607000Y-65461111D01*
X73685442Y-65479006D01*
X73772270Y-65498399D01*
X73864184Y-65518575D01*
X73957882Y-65538817D01*
X74050065Y-65558412D01*
X74137431Y-65576645D01*
X74216681Y-65592799D01*
X74284514Y-65606160D01*
X74337630Y-65616014D01*
X74372728Y-65621644D01*
X74384157Y-65622700D01*
X74384157Y-65907073D01*
X74206487Y-65872406D01*
X73811820Y-65788202D01*
X73409048Y-65695089D01*
X73230006Y-65651579D01*
X72883563Y-65566227D01*
X72887106Y-65413966D01*
G36*
X72950975Y-67687634D02*
G01*
X72987551Y-67684271D01*
X73042992Y-67679758D01*
X73110818Y-67674598D01*
X73184547Y-67669292D01*
X73214500Y-67667224D01*
X73301451Y-67660782D01*
X73401926Y-67652458D01*
X73513197Y-67642548D01*
X73632535Y-67631347D01*
X73757212Y-67619151D01*
X73884500Y-67606254D01*
X74011670Y-67592953D01*
X74135993Y-67579542D01*
X74254742Y-67566317D01*
X74365188Y-67553574D01*
X74464602Y-67541607D01*
X74550256Y-67530712D01*
X74619423Y-67521184D01*
X74669372Y-67513319D01*
X74697377Y-67507412D01*
X74700400Y-67506373D01*
X74700775Y-67499424D01*
X74679027Y-67489782D01*
X74649600Y-67481558D01*
X74603619Y-67471085D01*
X74536346Y-67456703D01*
X74451460Y-67439136D01*
X74352644Y-67419105D01*
X74243578Y-67397333D01*
X74127943Y-67374543D01*
X74009420Y-67351458D01*
X73891691Y-67328800D01*
X73778436Y-67307291D01*
X73673337Y-67287654D01*
X73580075Y-67270611D01*
X73525650Y-67260935D01*
X73440630Y-67246003D01*
X73362290Y-67232162D01*
X73294672Y-67220133D01*
X73241815Y-67210637D01*
X73207762Y-67204394D01*
X73198625Y-67202631D01*
X73163700Y-67195482D01*
X73163700Y-66906551D01*
X73204975Y-66899366D01*
X73427440Y-66860326D01*
X73633559Y-66823515D01*
X73821712Y-66789232D01*
X73990283Y-66757777D01*
X74137654Y-66729451D01*
X74262205Y-66704552D01*
X74306700Y-66695319D01*
X74420408Y-66671323D01*
X74511431Y-66651852D01*
X74581971Y-66636356D01*
X74634231Y-66624282D01*
X74670412Y-66615080D01*
X74692718Y-66608196D01*
X74703350Y-66603080D01*
X74704510Y-66599179D01*
X74700400Y-66596683D01*
X74678192Y-66591506D01*
X74633456Y-66584284D01*
X74568958Y-66575318D01*
X74487460Y-66564908D01*
X74391728Y-66553352D01*
X74284525Y-66540952D01*
X74168615Y-66528007D01*
X74046763Y-66514817D01*
X73921733Y-66501682D01*
X73796289Y-66488901D01*
X73673195Y-66476775D01*
X73555216Y-66465604D01*
X73445115Y-66455687D01*
X73345657Y-66447325D01*
X73271650Y-66441670D01*
X73186436Y-66435433D01*
X73106595Y-66429366D01*
X73036728Y-66423837D01*
X72981439Y-66419212D01*
X72945330Y-66415859D01*
X72938275Y-66415078D01*
X72884300Y-66408544D01*
X72884300Y-66110403D01*
X73179575Y-66139098D01*
X73502263Y-66172311D01*
X73823266Y-66208965D01*
X74138445Y-66248499D01*
X74443661Y-66290351D01*
X74734776Y-66333962D01*
X75007651Y-66378770D01*
X75192914Y-66411907D01*
X75336179Y-66438540D01*
X75332614Y-66585974D01*
X75329050Y-66733407D01*
X75132200Y-66780755D01*
X75038900Y-66802598D01*
X74925748Y-66828119D01*
X74797841Y-66856235D01*
X74660277Y-66885865D01*
X74518154Y-66915927D01*
X74376569Y-66945340D01*
X74240621Y-66973023D01*
X74115407Y-66997894D01*
X74040000Y-67012457D01*
X73954071Y-67029476D01*
X73893124Y-67043073D01*
X73856978Y-67053295D01*
X73845450Y-67060190D01*
X73849500Y-67062572D01*
X73870214Y-67067037D01*
X73912194Y-67075588D01*
X73971767Y-67087496D01*
X74045259Y-67102030D01*
X74128998Y-67118460D01*
X74211450Y-67134528D01*
X74343083Y-67160560D01*
X74479722Y-67188532D01*
X74624966Y-67219221D01*
X74782414Y-67253403D01*
X74955665Y-67291854D01*
X75148319Y-67335350D01*
X75243325Y-67357010D01*
X75335400Y-67378056D01*
X75335400Y-67674454D01*
X75071875Y-67721756D01*
X74823813Y-67764627D01*
X74574533Y-67804276D01*
X74319639Y-67841298D01*
X74054735Y-67876286D01*
X73775427Y-67909836D01*
X73477318Y-67942542D01*
X73319357Y-67958813D01*
X73222251Y-67968537D01*
X73132488Y-67977368D01*
X73053413Y-67984991D01*
X72988370Y-67991087D01*
X72940703Y-67995341D01*
X72913759Y-67997436D01*
X72909782Y-67997600D01*
X72898999Y-67996115D01*
X72891778Y-67988843D01*
X72887409Y-67971562D01*
X72885182Y-67940050D01*
X72884386Y-67890085D01*
X72884300Y-67846114D01*
X72884300Y-67694628D01*
X72950975Y-67687634D01*
X72950975Y-67687634D01*
G37*
X72950975Y-67687634D02*
X72987551Y-67684271D01*
X73042992Y-67679758D01*
X73110818Y-67674598D01*
X73184547Y-67669292D01*
X73214500Y-67667224D01*
X73301451Y-67660782D01*
X73401926Y-67652458D01*
X73513197Y-67642548D01*
X73632535Y-67631347D01*
X73757212Y-67619151D01*
X73884500Y-67606254D01*
X74011670Y-67592953D01*
X74135993Y-67579542D01*
X74254742Y-67566317D01*
X74365188Y-67553574D01*
X74464602Y-67541607D01*
X74550256Y-67530712D01*
X74619423Y-67521184D01*
X74669372Y-67513319D01*
X74697377Y-67507412D01*
X74700400Y-67506373D01*
X74700775Y-67499424D01*
X74679027Y-67489782D01*
X74649600Y-67481558D01*
X74603619Y-67471085D01*
X74536346Y-67456703D01*
X74451460Y-67439136D01*
X74352644Y-67419105D01*
X74243578Y-67397333D01*
X74127943Y-67374543D01*
X74009420Y-67351458D01*
X73891691Y-67328800D01*
X73778436Y-67307291D01*
X73673337Y-67287654D01*
X73580075Y-67270611D01*
X73525650Y-67260935D01*
X73440630Y-67246003D01*
X73362290Y-67232162D01*
X73294672Y-67220133D01*
X73241815Y-67210637D01*
X73207762Y-67204394D01*
X73198625Y-67202631D01*
X73163700Y-67195482D01*
X73163700Y-66906551D01*
X73204975Y-66899366D01*
X73427440Y-66860326D01*
X73633559Y-66823515D01*
X73821712Y-66789232D01*
X73990283Y-66757777D01*
X74137654Y-66729451D01*
X74262205Y-66704552D01*
X74306700Y-66695319D01*
X74420408Y-66671323D01*
X74511431Y-66651852D01*
X74581971Y-66636356D01*
X74634231Y-66624282D01*
X74670412Y-66615080D01*
X74692718Y-66608196D01*
X74703350Y-66603080D01*
X74704510Y-66599179D01*
X74700400Y-66596683D01*
X74678192Y-66591506D01*
X74633456Y-66584284D01*
X74568958Y-66575318D01*
X74487460Y-66564908D01*
X74391728Y-66553352D01*
X74284525Y-66540952D01*
X74168615Y-66528007D01*
X74046763Y-66514817D01*
X73921733Y-66501682D01*
X73796289Y-66488901D01*
X73673195Y-66476775D01*
X73555216Y-66465604D01*
X73445115Y-66455687D01*
X73345657Y-66447325D01*
X73271650Y-66441670D01*
X73186436Y-66435433D01*
X73106595Y-66429366D01*
X73036728Y-66423837D01*
X72981439Y-66419212D01*
X72945330Y-66415859D01*
X72938275Y-66415078D01*
X72884300Y-66408544D01*
X72884300Y-66110403D01*
X73179575Y-66139098D01*
X73502263Y-66172311D01*
X73823266Y-66208965D01*
X74138445Y-66248499D01*
X74443661Y-66290351D01*
X74734776Y-66333962D01*
X75007651Y-66378770D01*
X75192914Y-66411907D01*
X75336179Y-66438540D01*
X75332614Y-66585974D01*
X75329050Y-66733407D01*
X75132200Y-66780755D01*
X75038900Y-66802598D01*
X74925748Y-66828119D01*
X74797841Y-66856235D01*
X74660277Y-66885865D01*
X74518154Y-66915927D01*
X74376569Y-66945340D01*
X74240621Y-66973023D01*
X74115407Y-66997894D01*
X74040000Y-67012457D01*
X73954071Y-67029476D01*
X73893124Y-67043073D01*
X73856978Y-67053295D01*
X73845450Y-67060190D01*
X73849500Y-67062572D01*
X73870214Y-67067037D01*
X73912194Y-67075588D01*
X73971767Y-67087496D01*
X74045259Y-67102030D01*
X74128998Y-67118460D01*
X74211450Y-67134528D01*
X74343083Y-67160560D01*
X74479722Y-67188532D01*
X74624966Y-67219221D01*
X74782414Y-67253403D01*
X74955665Y-67291854D01*
X75148319Y-67335350D01*
X75243325Y-67357010D01*
X75335400Y-67378056D01*
X75335400Y-67674454D01*
X75071875Y-67721756D01*
X74823813Y-67764627D01*
X74574533Y-67804276D01*
X74319639Y-67841298D01*
X74054735Y-67876286D01*
X73775427Y-67909836D01*
X73477318Y-67942542D01*
X73319357Y-67958813D01*
X73222251Y-67968537D01*
X73132488Y-67977368D01*
X73053413Y-67984991D01*
X72988370Y-67991087D01*
X72940703Y-67995341D01*
X72913759Y-67997436D01*
X72909782Y-67997600D01*
X72898999Y-67996115D01*
X72891778Y-67988843D01*
X72887409Y-67971562D01*
X72885182Y-67940050D01*
X72884386Y-67890085D01*
X72884300Y-67846114D01*
X72884300Y-67694628D01*
X72950975Y-67687634D01*
G36*
X75335400Y-68264300D02*
G01*
X75335400Y-68569100D01*
X72884300Y-68569100D01*
X72884300Y-68264300D01*
X75335400Y-68264300D01*
X75335400Y-68264300D01*
G37*
X75335400Y-68264300D02*
X75335400Y-68569100D01*
X72884300Y-68569100D01*
X72884300Y-68264300D01*
X75335400Y-68264300D01*
G36*
X72884699Y-69380903D02*
G01*
X72886306Y-69337102D01*
X72889729Y-69310037D01*
X72895579Y-69295377D01*
X72904466Y-69288793D01*
X72906525Y-69288105D01*
X72938391Y-69279489D01*
X72991570Y-69266108D01*
X73062595Y-69248770D01*
X73147999Y-69228285D01*
X73244314Y-69205463D01*
X73348072Y-69181113D01*
X73455808Y-69156044D01*
X73564052Y-69131066D01*
X73669339Y-69106990D01*
X73768200Y-69084624D01*
X73857169Y-69064777D01*
X73932778Y-69048260D01*
X73944750Y-69045693D01*
X74025790Y-69028692D01*
X74120438Y-69009372D01*
X74225921Y-68988255D01*
X74339469Y-68965864D01*
X74458308Y-68942723D01*
X74579666Y-68919353D01*
X74700771Y-68896278D01*
X74818851Y-68874020D01*
X74931133Y-68853103D01*
X75034846Y-68834049D01*
X75127218Y-68817381D01*
X75205475Y-68803622D01*
X75266847Y-68793295D01*
X75308560Y-68786922D01*
X75326963Y-68785000D01*
X75330228Y-68796879D01*
X75332905Y-68829235D01*
X75334721Y-68877145D01*
X75335399Y-68935688D01*
X75335400Y-68936545D01*
X75335006Y-69001482D01*
X75333422Y-69045335D01*
X75330039Y-69072409D01*
X75324250Y-69087014D01*
X75315448Y-69093457D01*
X75313175Y-69094172D01*
X75294546Y-69097718D01*
X75254707Y-69104275D01*
X75197586Y-69113230D01*
X75127111Y-69123972D01*
X75047214Y-69135891D01*
X75008128Y-69141637D01*
X74725307Y-69183018D01*
X74728728Y-69450325D01*
X74732150Y-69717631D01*
X74859645Y-69738902D01*
X74923778Y-69749080D01*
X75002856Y-69760853D01*
X75086612Y-69772729D01*
X75161270Y-69782760D01*
X75335400Y-69805346D01*
X75335400Y-69955573D01*
X75334783Y-70013954D01*
X75333105Y-70061748D01*
X75330622Y-70094011D01*
X75327602Y-70105800D01*
X75305805Y-70103475D01*
X75261970Y-70096854D01*
X75198997Y-70086469D01*
X75119786Y-70072854D01*
X75027236Y-70056540D01*
X74924246Y-70038059D01*
X74813716Y-70017945D01*
X74698546Y-69996730D01*
X74581634Y-69974945D01*
X74465880Y-69953124D01*
X74372350Y-69935268D01*
X74372350Y-69648600D01*
X74381224Y-69646875D01*
X74387509Y-69639228D01*
X74391645Y-69621956D01*
X74394076Y-69591355D01*
X74395243Y-69543720D01*
X74395589Y-69475348D01*
X74395600Y-69453867D01*
X74395204Y-69386166D01*
X74394112Y-69327845D01*
X74392469Y-69283438D01*
X74390419Y-69257479D01*
X74389209Y-69252743D01*
X74373777Y-69252309D01*
X74334868Y-69257391D01*
X74273742Y-69267752D01*
X74191662Y-69283153D01*
X74089890Y-69303356D01*
X73969686Y-69328121D01*
X73832313Y-69357211D01*
X73800505Y-69364040D01*
X73688250Y-69388029D01*
X73599770Y-69407091D01*
X73534137Y-69422204D01*
X73490422Y-69434347D01*
X73467697Y-69444499D01*
X73465034Y-69453638D01*
X73481505Y-69462744D01*
X73516180Y-69472795D01*
X73568132Y-69484770D01*
X73636432Y-69499649D01*
X73665758Y-69506107D01*
X73767625Y-69528457D01*
X73871282Y-69550722D01*
X73973446Y-69572240D01*
X74070833Y-69592348D01*
X74160160Y-69610385D01*
X74238144Y-69625687D01*
X74301501Y-69637594D01*
X74346949Y-69645444D01*
X74371204Y-69648573D01*
X74372350Y-69648600D01*
X74372350Y-69935268D01*
X74354184Y-69931799D01*
X74249445Y-69911502D01*
X74154562Y-69892765D01*
X74072436Y-69876122D01*
X74040000Y-69869370D01*
X73886975Y-69836470D01*
X73721499Y-69799640D01*
X73549847Y-69760350D01*
X73378291Y-69720073D01*
X73213105Y-69680281D01*
X73060562Y-69642447D01*
X72931925Y-69609356D01*
X72884300Y-69596821D01*
X72884300Y-69445767D01*
X72884699Y-69380903D01*
X72884699Y-69380903D01*
G37*
X72884699Y-69380903D02*
X72886306Y-69337102D01*
X72889729Y-69310037D01*
X72895579Y-69295377D01*
X72904466Y-69288793D01*
X72906525Y-69288105D01*
X72938391Y-69279489D01*
X72991570Y-69266108D01*
X73062595Y-69248770D01*
X73147999Y-69228285D01*
X73244314Y-69205463D01*
X73348072Y-69181113D01*
X73455808Y-69156044D01*
X73564052Y-69131066D01*
X73669339Y-69106990D01*
X73768200Y-69084624D01*
X73857169Y-69064777D01*
X73932778Y-69048260D01*
X73944750Y-69045693D01*
X74025790Y-69028692D01*
X74120438Y-69009372D01*
X74225921Y-68988255D01*
X74339469Y-68965864D01*
X74458308Y-68942723D01*
X74579666Y-68919353D01*
X74700771Y-68896278D01*
X74818851Y-68874020D01*
X74931133Y-68853103D01*
X75034846Y-68834049D01*
X75127218Y-68817381D01*
X75205475Y-68803622D01*
X75266847Y-68793295D01*
X75308560Y-68786922D01*
X75326963Y-68785000D01*
X75330228Y-68796879D01*
X75332905Y-68829235D01*
X75334721Y-68877145D01*
X75335399Y-68935688D01*
X75335400Y-68936545D01*
X75335006Y-69001482D01*
X75333422Y-69045335D01*
X75330039Y-69072409D01*
X75324250Y-69087014D01*
X75315448Y-69093457D01*
X75313175Y-69094172D01*
X75294546Y-69097718D01*
X75254707Y-69104275D01*
X75197586Y-69113230D01*
X75127111Y-69123972D01*
X75047214Y-69135891D01*
X75008128Y-69141637D01*
X74725307Y-69183018D01*
X74728728Y-69450325D01*
X74732150Y-69717631D01*
X74859645Y-69738902D01*
X74923778Y-69749080D01*
X75002856Y-69760853D01*
X75086612Y-69772729D01*
X75161270Y-69782760D01*
X75335400Y-69805346D01*
X75335400Y-69955573D01*
X75334783Y-70013954D01*
X75333105Y-70061748D01*
X75330622Y-70094011D01*
X75327602Y-70105800D01*
X75305805Y-70103475D01*
X75261970Y-70096854D01*
X75198997Y-70086469D01*
X75119786Y-70072854D01*
X75027236Y-70056540D01*
X74924246Y-70038059D01*
X74813716Y-70017945D01*
X74698546Y-69996730D01*
X74581634Y-69974945D01*
X74465880Y-69953124D01*
X74372350Y-69935268D01*
X74372350Y-69648600D01*
X74381224Y-69646875D01*
X74387509Y-69639228D01*
X74391645Y-69621956D01*
X74394076Y-69591355D01*
X74395243Y-69543720D01*
X74395589Y-69475348D01*
X74395600Y-69453867D01*
X74395204Y-69386166D01*
X74394112Y-69327845D01*
X74392469Y-69283438D01*
X74390419Y-69257479D01*
X74389209Y-69252743D01*
X74373777Y-69252309D01*
X74334868Y-69257391D01*
X74273742Y-69267752D01*
X74191662Y-69283153D01*
X74089890Y-69303356D01*
X73969686Y-69328121D01*
X73832313Y-69357211D01*
X73800505Y-69364040D01*
X73688250Y-69388029D01*
X73599770Y-69407091D01*
X73534137Y-69422204D01*
X73490422Y-69434347D01*
X73467697Y-69444499D01*
X73465034Y-69453638D01*
X73481505Y-69462744D01*
X73516180Y-69472795D01*
X73568132Y-69484770D01*
X73636432Y-69499649D01*
X73665758Y-69506107D01*
X73767625Y-69528457D01*
X73871282Y-69550722D01*
X73973446Y-69572240D01*
X74070833Y-69592348D01*
X74160160Y-69610385D01*
X74238144Y-69625687D01*
X74301501Y-69637594D01*
X74346949Y-69645444D01*
X74371204Y-69648573D01*
X74372350Y-69648600D01*
X74372350Y-69935268D01*
X74354184Y-69931799D01*
X74249445Y-69911502D01*
X74154562Y-69892765D01*
X74072436Y-69876122D01*
X74040000Y-69869370D01*
X73886975Y-69836470D01*
X73721499Y-69799640D01*
X73549847Y-69760350D01*
X73378291Y-69720073D01*
X73213105Y-69680281D01*
X73060562Y-69642447D01*
X72931925Y-69609356D01*
X72884300Y-69596821D01*
X72884300Y-69445767D01*
X72884699Y-69380903D01*
G36*
X73227200Y-70029600D02*
G01*
X73227200Y-70448700D01*
X75335400Y-70448700D01*
X75335400Y-70753500D01*
X73227200Y-70753500D01*
X73227200Y-71172600D01*
X72884300Y-71172600D01*
X72884300Y-70029600D01*
X73227200Y-70029600D01*
X73227200Y-70029600D01*
G37*
X73227200Y-70029600D02*
X73227200Y-70448700D01*
X75335400Y-70448700D01*
X75335400Y-70753500D01*
X73227200Y-70753500D01*
X73227200Y-71172600D01*
X72884300Y-71172600D01*
X72884300Y-70029600D01*
X73227200Y-70029600D01*
G36*
X72982724Y-72766616D02*
G01*
X73090962Y-72716378D01*
X73219092Y-72659553D01*
X73362995Y-72597828D01*
X73518547Y-72532889D01*
X73681628Y-72466425D01*
X73848116Y-72400120D01*
X74013889Y-72335661D01*
X74174826Y-72274736D01*
X74274950Y-72237807D01*
X74427350Y-72182250D01*
X72884300Y-72175704D01*
X72884300Y-71896500D01*
X75336319Y-71896500D01*
X75332684Y-72018612D01*
X75329050Y-72140724D01*
X75024250Y-72245420D01*
X74850103Y-72306243D01*
X74665643Y-72372490D01*
X74477147Y-72441814D01*
X74290890Y-72511868D01*
X74113149Y-72580302D01*
X73950200Y-72644771D01*
X73874900Y-72675332D01*
X73652650Y-72766450D01*
X75335400Y-72772982D01*
X75335400Y-73064900D01*
X72884300Y-73064900D01*
X72884299Y-72939311D01*
X72884299Y-72813721D01*
X72982724Y-72766616D01*
X72982724Y-72766616D01*
G37*
X72982724Y-72766616D02*
X73090962Y-72716378D01*
X73219092Y-72659553D01*
X73362995Y-72597828D01*
X73518547Y-72532889D01*
X73681628Y-72466425D01*
X73848116Y-72400120D01*
X74013889Y-72335661D01*
X74174826Y-72274736D01*
X74274950Y-72237807D01*
X74427350Y-72182250D01*
X72884300Y-72175704D01*
X72884300Y-71896500D01*
X75336319Y-71896500D01*
X75332684Y-72018612D01*
X75329050Y-72140724D01*
X75024250Y-72245420D01*
X74850103Y-72306243D01*
X74665643Y-72372490D01*
X74477147Y-72441814D01*
X74290890Y-72511868D01*
X74113149Y-72580302D01*
X73950200Y-72644771D01*
X73874900Y-72675332D01*
X73652650Y-72766450D01*
X75335400Y-72772982D01*
X75335400Y-73064900D01*
X72884300Y-73064900D01*
X72884299Y-72939311D01*
X72884299Y-72813721D01*
X72982724Y-72766616D01*
G36*
X75335400Y-73458600D02*
G01*
X75335400Y-73763400D01*
X72884300Y-73763400D01*
X72884300Y-73458600D01*
X75335400Y-73458600D01*
X75335400Y-73458600D01*
G37*
X75335400Y-73458600D02*
X75335400Y-73763400D01*
X72884300Y-73763400D01*
X72884300Y-73458600D01*
X75335400Y-73458600D01*
G36*
X73227200Y-74614300D02*
G01*
X73227200Y-75198500D01*
X73887600Y-75198500D01*
X73887600Y-74665100D01*
X74217800Y-74665100D01*
X74217800Y-75198500D01*
X74992500Y-75198500D01*
X74992500Y-74563500D01*
X75335400Y-74563500D01*
X75335400Y-75503300D01*
X72884300Y-75503300D01*
X72884300Y-74614300D01*
X73227200Y-74614300D01*
X73227200Y-74614300D01*
G37*
X73227200Y-74614300D02*
X73227200Y-75198500D01*
X73887600Y-75198500D01*
X73887600Y-74665100D01*
X74217800Y-74665100D01*
X74217800Y-75198500D01*
X74992500Y-75198500D01*
X74992500Y-74563500D01*
X75335400Y-74563500D01*
X75335400Y-75503300D01*
X72884300Y-75503300D01*
X72884300Y-74614300D01*
X73227200Y-74614300D01*
G36*
X73261754Y-77689827D02*
G01*
X73598510Y-77610171D01*
X73926702Y-77536997D01*
X74254379Y-77468638D01*
X74589592Y-77403427D01*
X74940388Y-77339698D01*
X75019992Y-77325791D01*
X75099600Y-77311907D01*
X75172091Y-77299133D01*
X75233214Y-77288230D01*
X75278715Y-77279957D01*
X75304342Y-77275074D01*
X75306825Y-77274545D01*
X75318748Y-77272625D01*
X75326785Y-77275891D01*
X75331702Y-77288354D01*
X75334266Y-77314026D01*
X75335243Y-77356918D01*
X75335399Y-77421039D01*
X75335400Y-77424078D01*
X75335400Y-77580039D01*
X74732150Y-77668999D01*
X74728727Y-77937014D01*
X74725304Y-78205030D01*
X74900177Y-78232088D01*
X74975155Y-78243480D01*
X75051718Y-78254758D01*
X75121118Y-78264653D01*
X75174607Y-78271897D01*
X75176650Y-78272160D01*
X75242173Y-78280126D01*
X75286815Y-78287079D01*
X75314537Y-78297295D01*
X75329298Y-78315051D01*
X75335061Y-78344626D01*
X75335786Y-78390297D01*
X75335400Y-78443592D01*
X75335033Y-78506649D01*
X75333505Y-78548530D01*
X75330172Y-78573454D01*
X75324391Y-78585640D01*
X75315520Y-78589306D01*
X75313175Y-78589389D01*
X75290258Y-78587087D01*
X75245460Y-78580557D01*
X75181847Y-78570343D01*
X75102485Y-78556988D01*
X75010441Y-78541036D01*
X74908780Y-78523032D01*
X74800569Y-78503520D01*
X74688874Y-78483043D01*
X74576761Y-78462146D01*
X74467297Y-78441372D01*
X74389039Y-78426207D01*
X74389039Y-78144900D01*
X74391254Y-78132909D01*
X74393150Y-78099769D01*
X74394589Y-78049731D01*
X74395434Y-77987045D01*
X74395600Y-77941700D01*
X74395297Y-77864549D01*
X74394169Y-77809331D01*
X74391887Y-77772585D01*
X74388118Y-77750850D01*
X74382533Y-77740664D01*
X74376209Y-77738500D01*
X74355277Y-77741018D01*
X74313756Y-77748102D01*
X74255018Y-77759050D01*
X74182436Y-77773158D01*
X74099381Y-77789724D01*
X74009225Y-77808044D01*
X73915341Y-77827415D01*
X73821100Y-77847134D01*
X73729873Y-77866498D01*
X73645034Y-77884804D01*
X73569955Y-77901349D01*
X73508006Y-77915429D01*
X73462560Y-77926343D01*
X73436989Y-77933385D01*
X73432722Y-77935225D01*
X73443167Y-77939133D01*
X73475237Y-77947550D01*
X73525700Y-77959770D01*
X73591322Y-77975081D01*
X73668871Y-77992777D01*
X73755114Y-78012147D01*
X73846817Y-78032484D01*
X73940749Y-78053078D01*
X74033676Y-78073220D01*
X74122365Y-78092203D01*
X74203584Y-78109316D01*
X74274099Y-78123851D01*
X74330678Y-78135099D01*
X74370088Y-78142352D01*
X74389039Y-78144900D01*
X74389039Y-78426207D01*
X74363548Y-78421266D01*
X74344800Y-78417579D01*
X74139026Y-78375888D01*
X73921029Y-78329682D01*
X73698497Y-78280680D01*
X73479118Y-78230602D01*
X73270581Y-78181167D01*
X73106550Y-78140675D01*
X72890650Y-78086202D01*
X72883558Y-77781650D01*
X73261754Y-77689827D01*
X73261754Y-77689827D01*
G37*
X73261754Y-77689827D02*
X73598510Y-77610171D01*
X73926702Y-77536997D01*
X74254379Y-77468638D01*
X74589592Y-77403427D01*
X74940388Y-77339698D01*
X75019992Y-77325791D01*
X75099600Y-77311907D01*
X75172091Y-77299133D01*
X75233214Y-77288230D01*
X75278715Y-77279957D01*
X75304342Y-77275074D01*
X75306825Y-77274545D01*
X75318748Y-77272625D01*
X75326785Y-77275891D01*
X75331702Y-77288354D01*
X75334266Y-77314026D01*
X75335243Y-77356918D01*
X75335399Y-77421039D01*
X75335400Y-77424078D01*
X75335400Y-77580039D01*
X74732150Y-77668999D01*
X74728727Y-77937014D01*
X74725304Y-78205030D01*
X74900177Y-78232088D01*
X74975155Y-78243480D01*
X75051718Y-78254758D01*
X75121118Y-78264653D01*
X75174607Y-78271897D01*
X75176650Y-78272160D01*
X75242173Y-78280126D01*
X75286815Y-78287079D01*
X75314537Y-78297295D01*
X75329298Y-78315051D01*
X75335061Y-78344626D01*
X75335786Y-78390297D01*
X75335400Y-78443592D01*
X75335033Y-78506649D01*
X75333505Y-78548530D01*
X75330172Y-78573454D01*
X75324391Y-78585640D01*
X75315520Y-78589306D01*
X75313175Y-78589389D01*
X75290258Y-78587087D01*
X75245460Y-78580557D01*
X75181847Y-78570343D01*
X75102485Y-78556988D01*
X75010441Y-78541036D01*
X74908780Y-78523032D01*
X74800569Y-78503520D01*
X74688874Y-78483043D01*
X74576761Y-78462146D01*
X74467297Y-78441372D01*
X74389039Y-78426207D01*
X74389039Y-78144900D01*
X74391254Y-78132909D01*
X74393150Y-78099769D01*
X74394589Y-78049731D01*
X74395434Y-77987045D01*
X74395600Y-77941700D01*
X74395297Y-77864549D01*
X74394169Y-77809331D01*
X74391887Y-77772585D01*
X74388118Y-77750850D01*
X74382533Y-77740664D01*
X74376209Y-77738500D01*
X74355277Y-77741018D01*
X74313756Y-77748102D01*
X74255018Y-77759050D01*
X74182436Y-77773158D01*
X74099381Y-77789724D01*
X74009225Y-77808044D01*
X73915341Y-77827415D01*
X73821100Y-77847134D01*
X73729873Y-77866498D01*
X73645034Y-77884804D01*
X73569955Y-77901349D01*
X73508006Y-77915429D01*
X73462560Y-77926343D01*
X73436989Y-77933385D01*
X73432722Y-77935225D01*
X73443167Y-77939133D01*
X73475237Y-77947550D01*
X73525700Y-77959770D01*
X73591322Y-77975081D01*
X73668871Y-77992777D01*
X73755114Y-78012147D01*
X73846817Y-78032484D01*
X73940749Y-78053078D01*
X74033676Y-78073220D01*
X74122365Y-78092203D01*
X74203584Y-78109316D01*
X74274099Y-78123851D01*
X74330678Y-78135099D01*
X74370088Y-78142352D01*
X74389039Y-78144900D01*
X74389039Y-78426207D01*
X74363548Y-78421266D01*
X74344800Y-78417579D01*
X74139026Y-78375888D01*
X73921029Y-78329682D01*
X73698497Y-78280680D01*
X73479118Y-78230602D01*
X73270581Y-78181167D01*
X73106550Y-78140675D01*
X72890650Y-78086202D01*
X72883558Y-77781650D01*
X73261754Y-77689827D01*
G36*
X72887089Y-80165736D02*
G01*
X72890650Y-80019038D01*
X73043050Y-79970268D01*
X73125651Y-79944433D01*
X73228239Y-79913306D01*
X73346273Y-79878201D01*
X73475213Y-79840429D01*
X73610518Y-79801303D01*
X73747649Y-79762135D01*
X73882065Y-79724239D01*
X74009225Y-79688927D01*
X74124591Y-79657510D01*
X74128900Y-79656352D01*
X74217107Y-79632582D01*
X74283198Y-79614403D01*
X74329600Y-79600867D01*
X74358741Y-79591030D01*
X74373048Y-79583943D01*
X74374951Y-79578660D01*
X74366876Y-79574236D01*
X74351250Y-79569722D01*
X74351150Y-79569696D01*
X74322528Y-79562249D01*
X74274345Y-79549771D01*
X74211636Y-79533564D01*
X74139440Y-79514930D01*
X74071750Y-79497478D01*
X73862224Y-79442277D01*
X73645571Y-79382961D01*
X73430735Y-79322046D01*
X73226658Y-79262050D01*
X73116075Y-79228459D01*
X72884300Y-79157081D01*
X72884300Y-79013516D01*
X72884299Y-78869951D01*
X72925574Y-78863213D01*
X72958330Y-78859487D01*
X73014100Y-78855057D01*
X73090515Y-78850022D01*
X73185201Y-78844479D01*
X73295788Y-78838527D01*
X73419903Y-78832265D01*
X73555174Y-78825793D01*
X73699231Y-78819207D01*
X73849700Y-78812608D01*
X74004211Y-78806094D01*
X74160391Y-78799764D01*
X74315869Y-78793716D01*
X74468274Y-78788048D01*
X74615232Y-78782861D01*
X74754372Y-78778252D01*
X74883324Y-78774320D01*
X74999714Y-78771164D01*
X75101171Y-78768882D01*
X75185324Y-78767574D01*
X75230625Y-78767291D01*
X75335400Y-78767200D01*
X75335400Y-79056473D01*
X75052825Y-79064093D01*
X74806738Y-79070696D01*
X74584335Y-79076595D01*
X74385816Y-79081786D01*
X74211380Y-79086264D01*
X74061228Y-79090023D01*
X73935559Y-79093058D01*
X73834574Y-79095365D01*
X73758473Y-79096939D01*
X73707456Y-79097774D01*
X73690750Y-79097915D01*
X73644406Y-79099376D01*
X73620783Y-79103284D01*
X73620900Y-79109256D01*
X73639659Y-79116174D01*
X73680239Y-79128413D01*
X73739793Y-79145238D01*
X73815474Y-79165917D01*
X73904435Y-79189716D01*
X74003829Y-79215901D01*
X74110808Y-79243739D01*
X74222527Y-79272498D01*
X74336137Y-79301443D01*
X74448791Y-79329841D01*
X74557643Y-79356959D01*
X74659845Y-79382063D01*
X74752551Y-79404421D01*
X74832913Y-79423298D01*
X74890900Y-79436391D01*
X74998850Y-79460095D01*
X75002445Y-79587705D01*
X75006040Y-79715314D01*
X74875445Y-79743830D01*
X74811715Y-79758334D01*
X74727771Y-79778327D01*
X74627929Y-79802714D01*
X74516506Y-79830400D01*
X74397819Y-79860289D01*
X74276185Y-79891287D01*
X74155922Y-79922299D01*
X74041346Y-79952229D01*
X73936774Y-79979983D01*
X73846524Y-80004465D01*
X73830450Y-80008907D01*
X73614550Y-80068785D01*
X73697100Y-80077340D01*
X73729854Y-80079672D01*
X73784932Y-80082356D01*
X73859259Y-80085311D01*
X73949760Y-80088460D01*
X74053363Y-80091725D01*
X74166994Y-80095026D01*
X74287579Y-80098287D01*
X74412044Y-80101427D01*
X74537315Y-80104370D01*
X74660319Y-80107036D01*
X74777983Y-80109347D01*
X74887231Y-80111225D01*
X74984991Y-80112592D01*
X75068189Y-80113369D01*
X75116325Y-80113520D01*
X75335400Y-80113400D01*
X75335426Y-80262625D01*
X75335453Y-80411850D01*
X75256051Y-80409105D01*
X75226192Y-80408184D01*
X75174110Y-80406699D01*
X75102974Y-80404737D01*
X75015951Y-80402383D01*
X74916211Y-80399723D01*
X74806923Y-80396841D01*
X74691254Y-80393823D01*
X74643250Y-80392580D01*
X74378631Y-80385024D01*
X74115239Y-80376109D01*
X73857674Y-80366031D01*
X73610538Y-80354987D01*
X73378431Y-80343173D01*
X73165953Y-80330783D01*
X73115689Y-80327570D01*
X72883529Y-80312434D01*
X72887089Y-80165736D01*
X72887089Y-80165736D01*
G37*
X72887089Y-80165736D02*
X72890650Y-80019038D01*
X73043050Y-79970268D01*
X73125651Y-79944433D01*
X73228239Y-79913306D01*
X73346273Y-79878201D01*
X73475213Y-79840429D01*
X73610518Y-79801303D01*
X73747649Y-79762135D01*
X73882065Y-79724239D01*
X74009225Y-79688927D01*
X74124591Y-79657510D01*
X74128900Y-79656352D01*
X74217107Y-79632582D01*
X74283198Y-79614403D01*
X74329600Y-79600867D01*
X74358741Y-79591030D01*
X74373048Y-79583943D01*
X74374951Y-79578660D01*
X74366876Y-79574236D01*
X74351250Y-79569722D01*
X74351150Y-79569696D01*
X74322528Y-79562249D01*
X74274345Y-79549771D01*
X74211636Y-79533564D01*
X74139440Y-79514930D01*
X74071750Y-79497478D01*
X73862224Y-79442277D01*
X73645571Y-79382961D01*
X73430735Y-79322046D01*
X73226658Y-79262050D01*
X73116075Y-79228459D01*
X72884300Y-79157081D01*
X72884300Y-79013516D01*
X72884299Y-78869951D01*
X72925574Y-78863213D01*
X72958330Y-78859487D01*
X73014100Y-78855057D01*
X73090515Y-78850022D01*
X73185201Y-78844479D01*
X73295788Y-78838527D01*
X73419903Y-78832265D01*
X73555174Y-78825793D01*
X73699231Y-78819207D01*
X73849700Y-78812608D01*
X74004211Y-78806094D01*
X74160391Y-78799764D01*
X74315869Y-78793716D01*
X74468274Y-78788048D01*
X74615232Y-78782861D01*
X74754372Y-78778252D01*
X74883324Y-78774320D01*
X74999714Y-78771164D01*
X75101171Y-78768882D01*
X75185324Y-78767574D01*
X75230625Y-78767291D01*
X75335400Y-78767200D01*
X75335400Y-79056473D01*
X75052825Y-79064093D01*
X74806738Y-79070696D01*
X74584335Y-79076595D01*
X74385816Y-79081786D01*
X74211380Y-79086264D01*
X74061228Y-79090023D01*
X73935559Y-79093058D01*
X73834574Y-79095365D01*
X73758473Y-79096939D01*
X73707456Y-79097774D01*
X73690750Y-79097915D01*
X73644406Y-79099376D01*
X73620783Y-79103284D01*
X73620900Y-79109256D01*
X73639659Y-79116174D01*
X73680239Y-79128413D01*
X73739793Y-79145238D01*
X73815474Y-79165917D01*
X73904435Y-79189716D01*
X74003829Y-79215901D01*
X74110808Y-79243739D01*
X74222527Y-79272498D01*
X74336137Y-79301443D01*
X74448791Y-79329841D01*
X74557643Y-79356959D01*
X74659845Y-79382063D01*
X74752551Y-79404421D01*
X74832913Y-79423298D01*
X74890900Y-79436391D01*
X74998850Y-79460095D01*
X75002445Y-79587705D01*
X75006040Y-79715314D01*
X74875445Y-79743830D01*
X74811715Y-79758334D01*
X74727771Y-79778327D01*
X74627929Y-79802714D01*
X74516506Y-79830400D01*
X74397819Y-79860289D01*
X74276185Y-79891287D01*
X74155922Y-79922299D01*
X74041346Y-79952229D01*
X73936774Y-79979983D01*
X73846524Y-80004465D01*
X73830450Y-80008907D01*
X73614550Y-80068785D01*
X73697100Y-80077340D01*
X73729854Y-80079672D01*
X73784932Y-80082356D01*
X73859259Y-80085311D01*
X73949760Y-80088460D01*
X74053363Y-80091725D01*
X74166994Y-80095026D01*
X74287579Y-80098287D01*
X74412044Y-80101427D01*
X74537315Y-80104370D01*
X74660319Y-80107036D01*
X74777983Y-80109347D01*
X74887231Y-80111225D01*
X74984991Y-80112592D01*
X75068189Y-80113369D01*
X75116325Y-80113520D01*
X75335400Y-80113400D01*
X75335426Y-80262625D01*
X75335453Y-80411850D01*
X75256051Y-80409105D01*
X75226192Y-80408184D01*
X75174110Y-80406699D01*
X75102974Y-80404737D01*
X75015951Y-80402383D01*
X74916211Y-80399723D01*
X74806923Y-80396841D01*
X74691254Y-80393823D01*
X74643250Y-80392580D01*
X74378631Y-80385024D01*
X74115239Y-80376109D01*
X73857674Y-80366031D01*
X73610538Y-80354987D01*
X73378431Y-80343173D01*
X73165953Y-80330783D01*
X73115689Y-80327570D01*
X72883529Y-80312434D01*
X72887089Y-80165736D01*
G36*
X72867553Y-76508278D02*
G01*
X72877147Y-76451222D01*
X72916290Y-76327094D01*
X72975552Y-76216953D01*
X73055249Y-76120559D01*
X73155697Y-76037668D01*
X73277213Y-75968038D01*
X73420113Y-75911429D01*
X73584713Y-75867596D01*
X73659000Y-75853183D01*
X73743594Y-75841618D01*
X73846625Y-75832684D01*
X73961249Y-75826573D01*
X74080619Y-75823480D01*
X74197890Y-75823601D01*
X74306217Y-75827128D01*
X74382900Y-75832634D01*
X74564801Y-75856157D01*
X74724888Y-75890110D01*
X74864778Y-75935125D01*
X74986093Y-75991838D01*
X75090452Y-76060884D01*
X75179475Y-76142896D01*
X75181954Y-76145594D01*
X75255104Y-76244187D01*
X75309187Y-76358138D01*
X75343725Y-76485499D01*
X75358241Y-76624319D01*
X75352258Y-76772650D01*
X75346536Y-76817750D01*
X75336638Y-76873645D01*
X75322932Y-76936905D01*
X75312988Y-76976500D01*
X75290568Y-77059050D01*
X74551284Y-77061075D01*
X74551284Y-76758771D01*
X74657213Y-76758747D01*
X74744780Y-76758438D01*
X74815742Y-76757806D01*
X74871860Y-76756814D01*
X74914892Y-76755424D01*
X74946598Y-76753599D01*
X74968737Y-76751301D01*
X74983068Y-76748492D01*
X74991350Y-76745135D01*
X74995343Y-76741192D01*
X74996428Y-76738462D01*
X75002283Y-76695634D01*
X75003261Y-76638124D01*
X74999613Y-76576123D01*
X74991592Y-76519827D01*
X74990955Y-76516751D01*
X74965596Y-76434643D01*
X74925925Y-76364494D01*
X74870441Y-76305477D01*
X74797645Y-76256766D01*
X74706037Y-76217536D01*
X74594118Y-76186958D01*
X74460387Y-76164207D01*
X74325750Y-76150186D01*
X74234469Y-76144815D01*
X74134131Y-76142130D01*
X74037643Y-76142359D01*
X73982850Y-76144188D01*
X73814670Y-76156696D01*
X73669891Y-76176556D01*
X73547384Y-76204527D01*
X73446020Y-76241367D01*
X73364671Y-76287835D01*
X73302209Y-76344689D01*
X73257504Y-76412687D01*
X73229428Y-76492588D01*
X73216853Y-76585149D01*
X73216717Y-76659000D01*
X73220850Y-76754250D01*
X74105727Y-76757512D01*
X74277300Y-76758116D01*
X74425233Y-76758549D01*
X74551284Y-76758771D01*
X74551284Y-77061075D01*
X74107557Y-77062291D01*
X72924546Y-77065531D01*
X72896255Y-76947991D01*
X72875457Y-76838248D01*
X72863539Y-76723133D01*
X72860804Y-76610518D01*
X72867553Y-76508278D01*
X72867553Y-76508278D01*
G37*
X72867553Y-76508278D02*
X72877147Y-76451222D01*
X72916290Y-76327094D01*
X72975552Y-76216953D01*
X73055249Y-76120559D01*
X73155697Y-76037668D01*
X73277213Y-75968038D01*
X73420113Y-75911429D01*
X73584713Y-75867596D01*
X73659000Y-75853183D01*
X73743594Y-75841618D01*
X73846625Y-75832684D01*
X73961249Y-75826573D01*
X74080619Y-75823480D01*
X74197890Y-75823601D01*
X74306217Y-75827128D01*
X74382900Y-75832634D01*
X74564801Y-75856157D01*
X74724888Y-75890110D01*
X74864778Y-75935125D01*
X74986093Y-75991838D01*
X75090452Y-76060884D01*
X75179475Y-76142896D01*
X75181954Y-76145594D01*
X75255104Y-76244187D01*
X75309187Y-76358138D01*
X75343725Y-76485499D01*
X75358241Y-76624319D01*
X75352258Y-76772650D01*
X75346536Y-76817750D01*
X75336638Y-76873645D01*
X75322932Y-76936905D01*
X75312988Y-76976500D01*
X75290568Y-77059050D01*
X74551284Y-77061075D01*
X74551284Y-76758771D01*
X74657213Y-76758747D01*
X74744780Y-76758438D01*
X74815742Y-76757806D01*
X74871860Y-76756814D01*
X74914892Y-76755424D01*
X74946598Y-76753599D01*
X74968737Y-76751301D01*
X74983068Y-76748492D01*
X74991350Y-76745135D01*
X74995343Y-76741192D01*
X74996428Y-76738462D01*
X75002283Y-76695634D01*
X75003261Y-76638124D01*
X74999613Y-76576123D01*
X74991592Y-76519827D01*
X74990955Y-76516751D01*
X74965596Y-76434643D01*
X74925925Y-76364494D01*
X74870441Y-76305477D01*
X74797645Y-76256766D01*
X74706037Y-76217536D01*
X74594118Y-76186958D01*
X74460387Y-76164207D01*
X74325750Y-76150186D01*
X74234469Y-76144815D01*
X74134131Y-76142130D01*
X74037643Y-76142359D01*
X73982850Y-76144188D01*
X73814670Y-76156696D01*
X73669891Y-76176556D01*
X73547384Y-76204527D01*
X73446020Y-76241367D01*
X73364671Y-76287835D01*
X73302209Y-76344689D01*
X73257504Y-76412687D01*
X73229428Y-76492588D01*
X73216853Y-76585149D01*
X73216717Y-76659000D01*
X73220850Y-76754250D01*
X74105727Y-76757512D01*
X74277300Y-76758116D01*
X74425233Y-76758549D01*
X74551284Y-76758771D01*
X74551284Y-77061075D01*
X74107557Y-77062291D01*
X72924546Y-77065531D01*
X72896255Y-76947991D01*
X72875457Y-76838248D01*
X72863539Y-76723133D01*
X72860804Y-76610518D01*
X72867553Y-76508278D01*
D14*
X58450000Y-107370000D02*
X59720000Y-107370000D01*
X58450000Y-108640000D02*
X58450000Y-107370000D01*
X60690000Y-119240000D02*
X61290000Y-119240000D01*
X60690000Y-118360000D02*
X61290000Y-118360000D01*
X63230000Y-119240000D02*
X63540000Y-119240000D01*
X63230000Y-118360000D02*
X63540000Y-118360000D01*
X72280000Y-118360000D02*
X66280000Y-118360000D01*
X72280000Y-119240000D02*
X72280000Y-118360000D01*
X66280000Y-119240000D02*
X72280000Y-119240000D01*
X66280000Y-118360000D02*
X66280000Y-119240000D01*
X66280000Y-117530000D02*
X63540000Y-117530000D01*
X66280000Y-120190000D02*
X66280000Y-117530000D01*
X63540000Y-120190000D02*
X66280000Y-120190000D01*
X63540000Y-117530000D02*
X63540000Y-120190000D01*
X60690000Y-116700000D02*
X61290000Y-116700000D01*
X60690000Y-115820000D02*
X61290000Y-115820000D01*
X63230000Y-116700000D02*
X63540000Y-116700000D01*
X63230000Y-115820000D02*
X63540000Y-115820000D01*
X72280000Y-115820000D02*
X66280000Y-115820000D01*
X72280000Y-116700000D02*
X72280000Y-115820000D01*
X66280000Y-116700000D02*
X72280000Y-116700000D01*
X66280000Y-115820000D02*
X66280000Y-116700000D01*
X66280000Y-114990000D02*
X63540000Y-114990000D01*
X66280000Y-117530000D02*
X66280000Y-114990000D01*
X63540000Y-117530000D02*
X66280000Y-117530000D01*
X63540000Y-114990000D02*
X63540000Y-117530000D01*
X60690000Y-114160000D02*
X61290000Y-114160000D01*
X60690000Y-113280000D02*
X61290000Y-113280000D01*
X63230000Y-114160000D02*
X63540000Y-114160000D01*
X63230000Y-113280000D02*
X63540000Y-113280000D01*
X72280000Y-113280000D02*
X66280000Y-113280000D01*
X72280000Y-114160000D02*
X72280000Y-113280000D01*
X66280000Y-114160000D02*
X72280000Y-114160000D01*
X66280000Y-113280000D02*
X66280000Y-114160000D01*
X66280000Y-112450000D02*
X63540000Y-112450000D01*
X66280000Y-114990000D02*
X66280000Y-112450000D01*
X63540000Y-114990000D02*
X66280000Y-114990000D01*
X63540000Y-112450000D02*
X63540000Y-114990000D01*
X60690000Y-111620000D02*
X61290000Y-111620000D01*
X60690000Y-110740000D02*
X61290000Y-110740000D01*
X63230000Y-111620000D02*
X63540000Y-111620000D01*
X63230000Y-110740000D02*
X63540000Y-110740000D01*
X72280000Y-110740000D02*
X66280000Y-110740000D01*
X72280000Y-111620000D02*
X72280000Y-110740000D01*
X66280000Y-111620000D02*
X72280000Y-111620000D01*
X66280000Y-110740000D02*
X66280000Y-111620000D01*
X66280000Y-109910000D02*
X63540000Y-109910000D01*
X66280000Y-112450000D02*
X66280000Y-109910000D01*
X63540000Y-112450000D02*
X66280000Y-112450000D01*
X63540000Y-109910000D02*
X63540000Y-112450000D01*
X66280000Y-109040000D02*
X72280000Y-109040000D01*
X66280000Y-108920000D02*
X72280000Y-108920000D01*
X66280000Y-108800000D02*
X72280000Y-108800000D01*
X66280000Y-108680000D02*
X72280000Y-108680000D01*
X66280000Y-108560000D02*
X72280000Y-108560000D01*
X66280000Y-108440000D02*
X72280000Y-108440000D01*
X66280000Y-108320000D02*
X72280000Y-108320000D01*
X60690000Y-109080000D02*
X61290000Y-109080000D01*
X60690000Y-108200000D02*
X61290000Y-108200000D01*
X63230000Y-109080000D02*
X63540000Y-109080000D01*
X63230000Y-108200000D02*
X63540000Y-108200000D01*
X72280000Y-108200000D02*
X66280000Y-108200000D01*
X72280000Y-109080000D02*
X72280000Y-108200000D01*
X66280000Y-109080000D02*
X72280000Y-109080000D01*
X66280000Y-108200000D02*
X66280000Y-109080000D01*
X66280000Y-107250000D02*
X63540000Y-107250000D01*
X66280000Y-109910000D02*
X66280000Y-107250000D01*
X63540000Y-109910000D02*
X66280000Y-109910000D01*
X63540000Y-107250000D02*
X63540000Y-109910000D01*
X56310000Y-108360000D02*
X56310000Y-112360000D01*
X53110000Y-108410000D02*
X53110000Y-112410000D01*
X69450000Y-140640000D02*
X69450000Y-144640000D01*
X66250000Y-140690000D02*
X66250000Y-144690000D01*
X52510000Y-121810000D02*
X54010000Y-121810000D01*
X54010000Y-121810000D02*
X54010000Y-121540000D01*
X54010000Y-121540000D02*
X56840000Y-121540000D01*
X52510000Y-114910000D02*
X54010000Y-114910000D01*
X54010000Y-114910000D02*
X54010000Y-115180000D01*
X54010000Y-115180000D02*
X55110000Y-115180000D01*
X57350000Y-140630000D02*
X57350000Y-144630000D01*
X54150000Y-140680000D02*
X54150000Y-144680000D01*
X69450000Y-127060000D02*
X69450000Y-131060000D01*
X66250000Y-127110000D02*
X66250000Y-131110000D01*
X62700000Y-93480000D02*
X62700000Y-103760000D01*
X73100000Y-93480000D02*
X62700000Y-93480000D01*
X73100000Y-103760000D02*
X73100000Y-93480000D01*
X62700000Y-103760000D02*
X73100000Y-103760000D01*
X62760000Y-95970000D02*
X62760000Y-97620000D01*
X73040000Y-95970000D02*
X62760000Y-95970000D01*
X73040000Y-101270000D02*
X73040000Y-95970000D01*
X62760000Y-101270000D02*
X73040000Y-101270000D01*
X62760000Y-99620000D02*
X62760000Y-101270000D01*
X62760000Y-97620000D02*
G75*
G02X62760000Y-99620000I0J-1000000D01*
G01*
D11*
X48000952Y-125234380D02*
X48000952Y-125948666D01*
X47953333Y-126091523D01*
X47858095Y-126186761D01*
X47715238Y-126234380D01*
X47620000Y-126234380D01*
X48905714Y-126234380D02*
X48905714Y-125710571D01*
X48858095Y-125615333D01*
X48762857Y-125567714D01*
X48572380Y-125567714D01*
X48477142Y-125615333D01*
X48905714Y-126186761D02*
X48810476Y-126234380D01*
X48572380Y-126234380D01*
X48477142Y-126186761D01*
X48429523Y-126091523D01*
X48429523Y-125996285D01*
X48477142Y-125901047D01*
X48572380Y-125853428D01*
X48810476Y-125853428D01*
X48905714Y-125805809D01*
X49810476Y-126186761D02*
X49715238Y-126234380D01*
X49524761Y-126234380D01*
X49429523Y-126186761D01*
X49381904Y-126139142D01*
X49334285Y-126043904D01*
X49334285Y-125758190D01*
X49381904Y-125662952D01*
X49429523Y-125615333D01*
X49524761Y-125567714D01*
X49715238Y-125567714D01*
X49810476Y-125615333D01*
X50239047Y-126234380D02*
X50239047Y-125234380D01*
X50334285Y-125853428D02*
X50620000Y-126234380D01*
X50620000Y-125567714D02*
X50239047Y-125948666D01*
X51000952Y-125329619D02*
X51048571Y-125282000D01*
X51143809Y-125234380D01*
X51381904Y-125234380D01*
X51477142Y-125282000D01*
X51524761Y-125329619D01*
X51572380Y-125424857D01*
X51572380Y-125520095D01*
X51524761Y-125662952D01*
X50953333Y-126234380D01*
X51572380Y-126234380D01*
X48000952Y-95744380D02*
X48000952Y-96458666D01*
X47953333Y-96601523D01*
X47858095Y-96696761D01*
X47715238Y-96744380D01*
X47620000Y-96744380D01*
X48905714Y-96744380D02*
X48905714Y-96220571D01*
X48858095Y-96125333D01*
X48762857Y-96077714D01*
X48572380Y-96077714D01*
X48477142Y-96125333D01*
X48905714Y-96696761D02*
X48810476Y-96744380D01*
X48572380Y-96744380D01*
X48477142Y-96696761D01*
X48429523Y-96601523D01*
X48429523Y-96506285D01*
X48477142Y-96411047D01*
X48572380Y-96363428D01*
X48810476Y-96363428D01*
X48905714Y-96315809D01*
X49810476Y-96696761D02*
X49715238Y-96744380D01*
X49524761Y-96744380D01*
X49429523Y-96696761D01*
X49381904Y-96649142D01*
X49334285Y-96553904D01*
X49334285Y-96268190D01*
X49381904Y-96172952D01*
X49429523Y-96125333D01*
X49524761Y-96077714D01*
X49715238Y-96077714D01*
X49810476Y-96125333D01*
X50239047Y-96744380D02*
X50239047Y-95744380D01*
X50334285Y-96363428D02*
X50620000Y-96744380D01*
X50620000Y-96077714D02*
X50239047Y-96458666D01*
X51572380Y-96744380D02*
X51000952Y-96744380D01*
X51286666Y-96744380D02*
X51286666Y-95744380D01*
X51191428Y-95887238D01*
X51096190Y-95982476D01*
X51000952Y-96030095D01*
X48000952Y-138994380D02*
X48000952Y-139708666D01*
X47953333Y-139851523D01*
X47858095Y-139946761D01*
X47715238Y-139994380D01*
X47620000Y-139994380D01*
X48905714Y-139994380D02*
X48905714Y-139470571D01*
X48858095Y-139375333D01*
X48762857Y-139327714D01*
X48572380Y-139327714D01*
X48477142Y-139375333D01*
X48905714Y-139946761D02*
X48810476Y-139994380D01*
X48572380Y-139994380D01*
X48477142Y-139946761D01*
X48429523Y-139851523D01*
X48429523Y-139756285D01*
X48477142Y-139661047D01*
X48572380Y-139613428D01*
X48810476Y-139613428D01*
X48905714Y-139565809D01*
X49810476Y-139946761D02*
X49715238Y-139994380D01*
X49524761Y-139994380D01*
X49429523Y-139946761D01*
X49381904Y-139899142D01*
X49334285Y-139803904D01*
X49334285Y-139518190D01*
X49381904Y-139422952D01*
X49429523Y-139375333D01*
X49524761Y-139327714D01*
X49715238Y-139327714D01*
X49810476Y-139375333D01*
X50239047Y-139994380D02*
X50239047Y-138994380D01*
X50334285Y-139613428D02*
X50620000Y-139994380D01*
X50620000Y-139327714D02*
X50239047Y-139708666D01*
X50953333Y-138994380D02*
X51572380Y-138994380D01*
X51239047Y-139375333D01*
X51381904Y-139375333D01*
X51477142Y-139422952D01*
X51524761Y-139470571D01*
X51572380Y-139565809D01*
X51572380Y-139803904D01*
X51524761Y-139899142D01*
X51477142Y-139946761D01*
X51381904Y-139994380D01*
X51096190Y-139994380D01*
X51000952Y-139946761D01*
X50953333Y-139899142D01*
X60160952Y-125234380D02*
X60160952Y-125948666D01*
X60113333Y-126091523D01*
X60018095Y-126186761D01*
X59875238Y-126234380D01*
X59780000Y-126234380D01*
X61065714Y-126234380D02*
X61065714Y-125710571D01*
X61018095Y-125615333D01*
X60922857Y-125567714D01*
X60732380Y-125567714D01*
X60637142Y-125615333D01*
X61065714Y-126186761D02*
X60970476Y-126234380D01*
X60732380Y-126234380D01*
X60637142Y-126186761D01*
X60589523Y-126091523D01*
X60589523Y-125996285D01*
X60637142Y-125901047D01*
X60732380Y-125853428D01*
X60970476Y-125853428D01*
X61065714Y-125805809D01*
X61970476Y-126186761D02*
X61875238Y-126234380D01*
X61684761Y-126234380D01*
X61589523Y-126186761D01*
X61541904Y-126139142D01*
X61494285Y-126043904D01*
X61494285Y-125758190D01*
X61541904Y-125662952D01*
X61589523Y-125615333D01*
X61684761Y-125567714D01*
X61875238Y-125567714D01*
X61970476Y-125615333D01*
X62399047Y-126234380D02*
X62399047Y-125234380D01*
X62494285Y-125853428D02*
X62780000Y-126234380D01*
X62780000Y-125567714D02*
X62399047Y-125948666D01*
X63637142Y-125567714D02*
X63637142Y-126234380D01*
X63399047Y-125186761D02*
X63160952Y-125901047D01*
X63780000Y-125901047D01*
X72320952Y-138994380D02*
X72320952Y-139708666D01*
X72273333Y-139851523D01*
X72178095Y-139946761D01*
X72035238Y-139994380D01*
X71940000Y-139994380D01*
X73225714Y-139994380D02*
X73225714Y-139470571D01*
X73178095Y-139375333D01*
X73082857Y-139327714D01*
X72892380Y-139327714D01*
X72797142Y-139375333D01*
X73225714Y-139946761D02*
X73130476Y-139994380D01*
X72892380Y-139994380D01*
X72797142Y-139946761D01*
X72749523Y-139851523D01*
X72749523Y-139756285D01*
X72797142Y-139661047D01*
X72892380Y-139613428D01*
X73130476Y-139613428D01*
X73225714Y-139565809D01*
X74130476Y-139946761D02*
X74035238Y-139994380D01*
X73844761Y-139994380D01*
X73749523Y-139946761D01*
X73701904Y-139899142D01*
X73654285Y-139803904D01*
X73654285Y-139518190D01*
X73701904Y-139422952D01*
X73749523Y-139375333D01*
X73844761Y-139327714D01*
X74035238Y-139327714D01*
X74130476Y-139375333D01*
X74559047Y-139994380D02*
X74559047Y-138994380D01*
X74654285Y-139613428D02*
X74940000Y-139994380D01*
X74940000Y-139327714D02*
X74559047Y-139708666D01*
X75844761Y-138994380D02*
X75368571Y-138994380D01*
X75320952Y-139470571D01*
X75368571Y-139422952D01*
X75463809Y-139375333D01*
X75701904Y-139375333D01*
X75797142Y-139422952D01*
X75844761Y-139470571D01*
X75892380Y-139565809D01*
X75892380Y-139803904D01*
X75844761Y-139899142D01*
X75797142Y-139946761D01*
X75701904Y-139994380D01*
X75463809Y-139994380D01*
X75368571Y-139946761D01*
X75320952Y-139899142D01*
X72320952Y-125234380D02*
X72320952Y-125948666D01*
X72273333Y-126091523D01*
X72178095Y-126186761D01*
X72035238Y-126234380D01*
X71940000Y-126234380D01*
X73225714Y-126234380D02*
X73225714Y-125710571D01*
X73178095Y-125615333D01*
X73082857Y-125567714D01*
X72892380Y-125567714D01*
X72797142Y-125615333D01*
X73225714Y-126186761D02*
X73130476Y-126234380D01*
X72892380Y-126234380D01*
X72797142Y-126186761D01*
X72749523Y-126091523D01*
X72749523Y-125996285D01*
X72797142Y-125901047D01*
X72892380Y-125853428D01*
X73130476Y-125853428D01*
X73225714Y-125805809D01*
X74130476Y-126186761D02*
X74035238Y-126234380D01*
X73844761Y-126234380D01*
X73749523Y-126186761D01*
X73701904Y-126139142D01*
X73654285Y-126043904D01*
X73654285Y-125758190D01*
X73701904Y-125662952D01*
X73749523Y-125615333D01*
X73844761Y-125567714D01*
X74035238Y-125567714D01*
X74130476Y-125615333D01*
X74559047Y-126234380D02*
X74559047Y-125234380D01*
X74654285Y-125853428D02*
X74940000Y-126234380D01*
X74940000Y-125567714D02*
X74559047Y-125948666D01*
X75797142Y-125234380D02*
X75606666Y-125234380D01*
X75511428Y-125282000D01*
X75463809Y-125329619D01*
X75368571Y-125472476D01*
X75320952Y-125662952D01*
X75320952Y-126043904D01*
X75368571Y-126139142D01*
X75416190Y-126186761D01*
X75511428Y-126234380D01*
X75701904Y-126234380D01*
X75797142Y-126186761D01*
X75844761Y-126139142D01*
X75892380Y-126043904D01*
X75892380Y-125805809D01*
X75844761Y-125710571D01*
X75797142Y-125662952D01*
X75701904Y-125615333D01*
X75511428Y-125615333D01*
X75416190Y-125662952D01*
X75368571Y-125710571D01*
X75320952Y-125805809D01*
X60160952Y-138994380D02*
X60160952Y-139708666D01*
X60113333Y-139851523D01*
X60018095Y-139946761D01*
X59875238Y-139994380D01*
X59780000Y-139994380D01*
X61065714Y-139994380D02*
X61065714Y-139470571D01*
X61018095Y-139375333D01*
X60922857Y-139327714D01*
X60732380Y-139327714D01*
X60637142Y-139375333D01*
X61065714Y-139946761D02*
X60970476Y-139994380D01*
X60732380Y-139994380D01*
X60637142Y-139946761D01*
X60589523Y-139851523D01*
X60589523Y-139756285D01*
X60637142Y-139661047D01*
X60732380Y-139613428D01*
X60970476Y-139613428D01*
X61065714Y-139565809D01*
X61970476Y-139946761D02*
X61875238Y-139994380D01*
X61684761Y-139994380D01*
X61589523Y-139946761D01*
X61541904Y-139899142D01*
X61494285Y-139803904D01*
X61494285Y-139518190D01*
X61541904Y-139422952D01*
X61589523Y-139375333D01*
X61684761Y-139327714D01*
X61875238Y-139327714D01*
X61970476Y-139375333D01*
X62399047Y-139994380D02*
X62399047Y-138994380D01*
X62494285Y-139613428D02*
X62780000Y-139994380D01*
X62780000Y-139327714D02*
X62399047Y-139708666D01*
X63113333Y-138994380D02*
X63780000Y-138994380D01*
X63351428Y-139994380D01*
X53519666Y-89035961D02*
X53662523Y-89083580D01*
X53900619Y-89083580D01*
X53995857Y-89035961D01*
X54043476Y-88988342D01*
X54091095Y-88893104D01*
X54091095Y-88797866D01*
X54043476Y-88702628D01*
X53995857Y-88655009D01*
X53900619Y-88607390D01*
X53710142Y-88559771D01*
X53614904Y-88512152D01*
X53567285Y-88464533D01*
X53519666Y-88369295D01*
X53519666Y-88274057D01*
X53567285Y-88178819D01*
X53614904Y-88131200D01*
X53710142Y-88083580D01*
X53948238Y-88083580D01*
X54091095Y-88131200D01*
X54424428Y-88083580D02*
X54662523Y-89083580D01*
X54853000Y-88369295D01*
X55043476Y-89083580D01*
X55281571Y-88083580D01*
X55614904Y-88178819D02*
X55662523Y-88131200D01*
X55757761Y-88083580D01*
X55995857Y-88083580D01*
X56091095Y-88131200D01*
X56138714Y-88178819D01*
X56186333Y-88274057D01*
X56186333Y-88369295D01*
X56138714Y-88512152D01*
X55567285Y-89083580D01*
X56186333Y-89083580D01*
X66939666Y-89125961D02*
X67082523Y-89173580D01*
X67320619Y-89173580D01*
X67415857Y-89125961D01*
X67463476Y-89078342D01*
X67511095Y-88983104D01*
X67511095Y-88887866D01*
X67463476Y-88792628D01*
X67415857Y-88745009D01*
X67320619Y-88697390D01*
X67130142Y-88649771D01*
X67034904Y-88602152D01*
X66987285Y-88554533D01*
X66939666Y-88459295D01*
X66939666Y-88364057D01*
X66987285Y-88268819D01*
X67034904Y-88221200D01*
X67130142Y-88173580D01*
X67368238Y-88173580D01*
X67511095Y-88221200D01*
X67844428Y-88173580D02*
X68082523Y-89173580D01*
X68273000Y-88459295D01*
X68463476Y-89173580D01*
X68701571Y-88173580D01*
X68987285Y-88173580D02*
X69606333Y-88173580D01*
X69273000Y-88554533D01*
X69415857Y-88554533D01*
X69511095Y-88602152D01*
X69558714Y-88649771D01*
X69606333Y-88745009D01*
X69606333Y-88983104D01*
X69558714Y-89078342D01*
X69511095Y-89125961D01*
X69415857Y-89173580D01*
X69130142Y-89173580D01*
X69034904Y-89125961D01*
X68987285Y-89078342D01*
X57210000Y-77832380D02*
X57210000Y-76832380D01*
X57590952Y-76832380D01*
X57686190Y-76880000D01*
X57733809Y-76927619D01*
X57781428Y-77022857D01*
X57781428Y-77165714D01*
X57733809Y-77260952D01*
X57686190Y-77308571D01*
X57590952Y-77356190D01*
X57210000Y-77356190D01*
X58400476Y-76832380D02*
X58590952Y-76832380D01*
X58686190Y-76880000D01*
X58781428Y-76975238D01*
X58829047Y-77165714D01*
X58829047Y-77499047D01*
X58781428Y-77689523D01*
X58686190Y-77784761D01*
X58590952Y-77832380D01*
X58400476Y-77832380D01*
X58305238Y-77784761D01*
X58210000Y-77689523D01*
X58162380Y-77499047D01*
X58162380Y-77165714D01*
X58210000Y-76975238D01*
X58305238Y-76880000D01*
X58400476Y-76832380D01*
X59114761Y-76832380D02*
X59686190Y-76832380D01*
X59400476Y-77832380D02*
X59400476Y-76832380D01*
X60543333Y-77832380D02*
X59971904Y-77832380D01*
X60257619Y-77832380D02*
X60257619Y-76832380D01*
X60162380Y-76975238D01*
X60067142Y-77070476D01*
X59971904Y-77118095D01*
X60971904Y-77451428D02*
X61733809Y-77451428D01*
X62210000Y-77832380D02*
X62210000Y-76832380D01*
X62543333Y-77546666D01*
X62876666Y-76832380D01*
X62876666Y-77832380D01*
X63305238Y-77546666D02*
X63781428Y-77546666D01*
X63210000Y-77832380D02*
X63543333Y-76832380D01*
X63876666Y-77832380D01*
X64210000Y-77832380D02*
X64210000Y-76832380D01*
X64686190Y-77832380D02*
X64686190Y-76832380D01*
X65257619Y-77832380D01*
X65257619Y-76832380D01*
X66257619Y-77832380D02*
X65686190Y-77832380D01*
X65971904Y-77832380D02*
X65971904Y-76832380D01*
X65876666Y-76975238D01*
X65781428Y-77070476D01*
X65686190Y-77118095D01*
X57578166Y-70084380D02*
X57578166Y-69084380D01*
X57959119Y-69084380D01*
X58054357Y-69132000D01*
X58101976Y-69179619D01*
X58149595Y-69274857D01*
X58149595Y-69417714D01*
X58101976Y-69512952D01*
X58054357Y-69560571D01*
X57959119Y-69608190D01*
X57578166Y-69608190D01*
X58768642Y-69084380D02*
X58959119Y-69084380D01*
X59054357Y-69132000D01*
X59149595Y-69227238D01*
X59197214Y-69417714D01*
X59197214Y-69751047D01*
X59149595Y-69941523D01*
X59054357Y-70036761D01*
X58959119Y-70084380D01*
X58768642Y-70084380D01*
X58673404Y-70036761D01*
X58578166Y-69941523D01*
X58530547Y-69751047D01*
X58530547Y-69417714D01*
X58578166Y-69227238D01*
X58673404Y-69132000D01*
X58768642Y-69084380D01*
X59482928Y-69084380D02*
X60054357Y-69084380D01*
X59768642Y-70084380D02*
X59768642Y-69084380D01*
X61673404Y-70084380D02*
X61101976Y-70084380D01*
X61387690Y-70084380D02*
X61387690Y-69084380D01*
X61292452Y-69227238D01*
X61197214Y-69322476D01*
X61101976Y-69370095D01*
X62292452Y-69084380D02*
X62387690Y-69084380D01*
X62482928Y-69132000D01*
X62530547Y-69179619D01*
X62578166Y-69274857D01*
X62625785Y-69465333D01*
X62625785Y-69703428D01*
X62578166Y-69893904D01*
X62530547Y-69989142D01*
X62482928Y-70036761D01*
X62387690Y-70084380D01*
X62292452Y-70084380D01*
X62197214Y-70036761D01*
X62149595Y-69989142D01*
X62101976Y-69893904D01*
X62054357Y-69703428D01*
X62054357Y-69465333D01*
X62101976Y-69274857D01*
X62149595Y-69179619D01*
X62197214Y-69132000D01*
X62292452Y-69084380D01*
X63054357Y-70084380D02*
X63054357Y-69084380D01*
X63625785Y-70084380D02*
X63197214Y-69512952D01*
X63625785Y-69084380D02*
X63054357Y-69655809D01*
X64959119Y-70084380D02*
X64863880Y-70036761D01*
X64816261Y-69941523D01*
X64816261Y-69084380D01*
X65340071Y-70084380D02*
X65340071Y-69417714D01*
X65340071Y-69084380D02*
X65292452Y-69132000D01*
X65340071Y-69179619D01*
X65387690Y-69132000D01*
X65340071Y-69084380D01*
X65340071Y-69179619D01*
X65816261Y-69417714D02*
X65816261Y-70084380D01*
X65816261Y-69512952D02*
X65863880Y-69465333D01*
X65959119Y-69417714D01*
X66101976Y-69417714D01*
X66197214Y-69465333D01*
X66244833Y-69560571D01*
X66244833Y-70084380D01*
X58043333Y-52952380D02*
X58043333Y-51952380D01*
X58424285Y-51952380D01*
X58519523Y-52000000D01*
X58567142Y-52047619D01*
X58614761Y-52142857D01*
X58614761Y-52285714D01*
X58567142Y-52380952D01*
X58519523Y-52428571D01*
X58424285Y-52476190D01*
X58043333Y-52476190D01*
X59233809Y-51952380D02*
X59424285Y-51952380D01*
X59519523Y-52000000D01*
X59614761Y-52095238D01*
X59662380Y-52285714D01*
X59662380Y-52619047D01*
X59614761Y-52809523D01*
X59519523Y-52904761D01*
X59424285Y-52952380D01*
X59233809Y-52952380D01*
X59138571Y-52904761D01*
X59043333Y-52809523D01*
X58995714Y-52619047D01*
X58995714Y-52285714D01*
X59043333Y-52095238D01*
X59138571Y-52000000D01*
X59233809Y-51952380D01*
X59948095Y-51952380D02*
X60519523Y-51952380D01*
X60233809Y-52952380D02*
X60233809Y-51952380D01*
X60805238Y-52047619D02*
X60852857Y-52000000D01*
X60948095Y-51952380D01*
X61186190Y-51952380D01*
X61281428Y-52000000D01*
X61329047Y-52047619D01*
X61376666Y-52142857D01*
X61376666Y-52238095D01*
X61329047Y-52380952D01*
X60757619Y-52952380D01*
X61376666Y-52952380D01*
X61805238Y-52571428D02*
X62567142Y-52571428D01*
X63614761Y-52857142D02*
X63567142Y-52904761D01*
X63424285Y-52952380D01*
X63329047Y-52952380D01*
X63186190Y-52904761D01*
X63090952Y-52809523D01*
X63043333Y-52714285D01*
X62995714Y-52523809D01*
X62995714Y-52380952D01*
X63043333Y-52190476D01*
X63090952Y-52095238D01*
X63186190Y-52000000D01*
X63329047Y-51952380D01*
X63424285Y-51952380D01*
X63567142Y-52000000D01*
X63614761Y-52047619D01*
X63900476Y-51952380D02*
X64233809Y-52952380D01*
X64567142Y-51952380D01*
X65424285Y-52952380D02*
X64852857Y-52952380D01*
X65138571Y-52952380D02*
X65138571Y-51952380D01*
X65043333Y-52095238D01*
X64948095Y-52190476D01*
X64852857Y-52238095D01*
X57578166Y-45204380D02*
X57578166Y-44204380D01*
X57959119Y-44204380D01*
X58054357Y-44252000D01*
X58101976Y-44299619D01*
X58149595Y-44394857D01*
X58149595Y-44537714D01*
X58101976Y-44632952D01*
X58054357Y-44680571D01*
X57959119Y-44728190D01*
X57578166Y-44728190D01*
X58768642Y-44204380D02*
X58959119Y-44204380D01*
X59054357Y-44252000D01*
X59149595Y-44347238D01*
X59197214Y-44537714D01*
X59197214Y-44871047D01*
X59149595Y-45061523D01*
X59054357Y-45156761D01*
X58959119Y-45204380D01*
X58768642Y-45204380D01*
X58673404Y-45156761D01*
X58578166Y-45061523D01*
X58530547Y-44871047D01*
X58530547Y-44537714D01*
X58578166Y-44347238D01*
X58673404Y-44252000D01*
X58768642Y-44204380D01*
X59482928Y-44204380D02*
X60054357Y-44204380D01*
X59768642Y-45204380D02*
X59768642Y-44204380D01*
X61673404Y-45204380D02*
X61101976Y-45204380D01*
X61387690Y-45204380D02*
X61387690Y-44204380D01*
X61292452Y-44347238D01*
X61197214Y-44442476D01*
X61101976Y-44490095D01*
X62292452Y-44204380D02*
X62387690Y-44204380D01*
X62482928Y-44252000D01*
X62530547Y-44299619D01*
X62578166Y-44394857D01*
X62625785Y-44585333D01*
X62625785Y-44823428D01*
X62578166Y-45013904D01*
X62530547Y-45109142D01*
X62482928Y-45156761D01*
X62387690Y-45204380D01*
X62292452Y-45204380D01*
X62197214Y-45156761D01*
X62149595Y-45109142D01*
X62101976Y-45013904D01*
X62054357Y-44823428D01*
X62054357Y-44585333D01*
X62101976Y-44394857D01*
X62149595Y-44299619D01*
X62197214Y-44252000D01*
X62292452Y-44204380D01*
X63054357Y-45204380D02*
X63054357Y-44204380D01*
X63625785Y-45204380D02*
X63197214Y-44632952D01*
X63625785Y-44204380D02*
X63054357Y-44775809D01*
X64959119Y-45204380D02*
X64863880Y-45156761D01*
X64816261Y-45061523D01*
X64816261Y-44204380D01*
X65340071Y-45204380D02*
X65340071Y-44537714D01*
X65340071Y-44204380D02*
X65292452Y-44252000D01*
X65340071Y-44299619D01*
X65387690Y-44252000D01*
X65340071Y-44204380D01*
X65340071Y-44299619D01*
X65816261Y-44537714D02*
X65816261Y-45204380D01*
X65816261Y-44632952D02*
X65863880Y-44585333D01*
X65959119Y-44537714D01*
X66101976Y-44537714D01*
X66197214Y-44585333D01*
X66244833Y-44680571D01*
X66244833Y-45204380D01*
X64971666Y-105822380D02*
X64971666Y-106536666D01*
X64924047Y-106679523D01*
X64828809Y-106774761D01*
X64685952Y-106822380D01*
X64590714Y-106822380D01*
X65352619Y-105822380D02*
X66019285Y-105822380D01*
X65590714Y-106822380D01*
X57762380Y-112992380D02*
X56762380Y-112992380D01*
X56762380Y-112754285D01*
X56810000Y-112611428D01*
X56905238Y-112516190D01*
X57000476Y-112468571D01*
X57190952Y-112420952D01*
X57333809Y-112420952D01*
X57524285Y-112468571D01*
X57619523Y-112516190D01*
X57714761Y-112611428D01*
X57762380Y-112754285D01*
X57762380Y-112992380D01*
X57381428Y-111992380D02*
X57381428Y-111230476D01*
X57762380Y-110754285D02*
X56762380Y-110754285D01*
X56762380Y-110373333D01*
X56810000Y-110278095D01*
X56857619Y-110230476D01*
X56952857Y-110182857D01*
X57095714Y-110182857D01*
X57190952Y-110230476D01*
X57238571Y-110278095D01*
X57286190Y-110373333D01*
X57286190Y-110754285D01*
X56762380Y-109563809D02*
X56762380Y-109373333D01*
X56810000Y-109278095D01*
X56905238Y-109182857D01*
X57095714Y-109135238D01*
X57429047Y-109135238D01*
X57619523Y-109182857D01*
X57714761Y-109278095D01*
X57762380Y-109373333D01*
X57762380Y-109563809D01*
X57714761Y-109659047D01*
X57619523Y-109754285D01*
X57429047Y-109801904D01*
X57095714Y-109801904D01*
X56905238Y-109754285D01*
X56810000Y-109659047D01*
X56762380Y-109563809D01*
X56762380Y-108801904D02*
X57762380Y-108563809D01*
X57048095Y-108373333D01*
X57762380Y-108182857D01*
X56762380Y-107944761D01*
X57762380Y-107040000D02*
X57762380Y-107611428D01*
X57762380Y-107325714D02*
X56762380Y-107325714D01*
X56905238Y-107420952D01*
X57000476Y-107516190D01*
X57048095Y-107611428D01*
X70902380Y-145105714D02*
X69902380Y-145105714D01*
X69902380Y-144867619D01*
X69950000Y-144724761D01*
X70045238Y-144629523D01*
X70140476Y-144581904D01*
X70330952Y-144534285D01*
X70473809Y-144534285D01*
X70664285Y-144581904D01*
X70759523Y-144629523D01*
X70854761Y-144724761D01*
X70902380Y-144867619D01*
X70902380Y-145105714D01*
X70521428Y-144105714D02*
X70521428Y-143343809D01*
X69902380Y-142677142D02*
X69902380Y-142486666D01*
X69950000Y-142391428D01*
X70045238Y-142296190D01*
X70235714Y-142248571D01*
X70569047Y-142248571D01*
X70759523Y-142296190D01*
X70854761Y-142391428D01*
X70902380Y-142486666D01*
X70902380Y-142677142D01*
X70854761Y-142772380D01*
X70759523Y-142867619D01*
X70569047Y-142915238D01*
X70235714Y-142915238D01*
X70045238Y-142867619D01*
X69950000Y-142772380D01*
X69902380Y-142677142D01*
X69902380Y-141820000D02*
X70711904Y-141820000D01*
X70807142Y-141772380D01*
X70854761Y-141724761D01*
X70902380Y-141629523D01*
X70902380Y-141439047D01*
X70854761Y-141343809D01*
X70807142Y-141296190D01*
X70711904Y-141248571D01*
X69902380Y-141248571D01*
X69902380Y-140915238D02*
X69902380Y-140343809D01*
X70902380Y-140629523D02*
X69902380Y-140629523D01*
X70902380Y-139486666D02*
X70902380Y-140058095D01*
X70902380Y-139772380D02*
X69902380Y-139772380D01*
X70045238Y-139867619D01*
X70140476Y-139962857D01*
X70188095Y-140058095D01*
X50778095Y-122312380D02*
X50778095Y-123121904D01*
X50825714Y-123217142D01*
X50873333Y-123264761D01*
X50968571Y-123312380D01*
X51159047Y-123312380D01*
X51254285Y-123264761D01*
X51301904Y-123217142D01*
X51349523Y-123121904D01*
X51349523Y-122312380D01*
X51730476Y-122312380D02*
X52349523Y-122312380D01*
X52016190Y-122693333D01*
X52159047Y-122693333D01*
X52254285Y-122740952D01*
X52301904Y-122788571D01*
X52349523Y-122883809D01*
X52349523Y-123121904D01*
X52301904Y-123217142D01*
X52254285Y-123264761D01*
X52159047Y-123312380D01*
X51873333Y-123312380D01*
X51778095Y-123264761D01*
X51730476Y-123217142D01*
X58802380Y-144667142D02*
X57802380Y-144667142D01*
X57802380Y-144429047D01*
X57850000Y-144286190D01*
X57945238Y-144190952D01*
X58040476Y-144143333D01*
X58230952Y-144095714D01*
X58373809Y-144095714D01*
X58564285Y-144143333D01*
X58659523Y-144190952D01*
X58754761Y-144286190D01*
X58802380Y-144429047D01*
X58802380Y-144667142D01*
X58421428Y-143667142D02*
X58421428Y-142905238D01*
X58802380Y-142429047D02*
X57802380Y-142429047D01*
X57802380Y-142048095D01*
X57850000Y-141952857D01*
X57897619Y-141905238D01*
X57992857Y-141857619D01*
X58135714Y-141857619D01*
X58230952Y-141905238D01*
X58278571Y-141952857D01*
X58326190Y-142048095D01*
X58326190Y-142429047D01*
X58278571Y-141095714D02*
X58326190Y-140952857D01*
X58373809Y-140905238D01*
X58469047Y-140857619D01*
X58611904Y-140857619D01*
X58707142Y-140905238D01*
X58754761Y-140952857D01*
X58802380Y-141048095D01*
X58802380Y-141429047D01*
X57802380Y-141429047D01*
X57802380Y-141095714D01*
X57850000Y-141000476D01*
X57897619Y-140952857D01*
X57992857Y-140905238D01*
X58088095Y-140905238D01*
X58183333Y-140952857D01*
X58230952Y-141000476D01*
X58278571Y-141095714D01*
X58278571Y-141429047D01*
X57802380Y-140238571D02*
X57802380Y-140143333D01*
X57850000Y-140048095D01*
X57897619Y-140000476D01*
X57992857Y-139952857D01*
X58183333Y-139905238D01*
X58421428Y-139905238D01*
X58611904Y-139952857D01*
X58707142Y-140000476D01*
X58754761Y-140048095D01*
X58802380Y-140143333D01*
X58802380Y-140238571D01*
X58754761Y-140333809D01*
X58707142Y-140381428D01*
X58611904Y-140429047D01*
X58421428Y-140476666D01*
X58183333Y-140476666D01*
X57992857Y-140429047D01*
X57897619Y-140381428D01*
X57850000Y-140333809D01*
X57802380Y-140238571D01*
X70902380Y-132025714D02*
X69902380Y-132025714D01*
X69902380Y-131787619D01*
X69950000Y-131644761D01*
X70045238Y-131549523D01*
X70140476Y-131501904D01*
X70330952Y-131454285D01*
X70473809Y-131454285D01*
X70664285Y-131501904D01*
X70759523Y-131549523D01*
X70854761Y-131644761D01*
X70902380Y-131787619D01*
X70902380Y-132025714D01*
X70521428Y-131025714D02*
X70521428Y-130263809D01*
X70854761Y-129835238D02*
X70902380Y-129692380D01*
X70902380Y-129454285D01*
X70854761Y-129359047D01*
X70807142Y-129311428D01*
X70711904Y-129263809D01*
X70616666Y-129263809D01*
X70521428Y-129311428D01*
X70473809Y-129359047D01*
X70426190Y-129454285D01*
X70378571Y-129644761D01*
X70330952Y-129740000D01*
X70283333Y-129787619D01*
X70188095Y-129835238D01*
X70092857Y-129835238D01*
X69997619Y-129787619D01*
X69950000Y-129740000D01*
X69902380Y-129644761D01*
X69902380Y-129406666D01*
X69950000Y-129263809D01*
X70426190Y-128644761D02*
X70902380Y-128644761D01*
X69902380Y-128978095D02*
X70426190Y-128644761D01*
X69902380Y-128311428D01*
X70902380Y-127978095D02*
X69902380Y-127978095D01*
X70902380Y-127406666D01*
X69902380Y-127406666D01*
X70807142Y-126359047D02*
X70854761Y-126406666D01*
X70902380Y-126549523D01*
X70902380Y-126644761D01*
X70854761Y-126787619D01*
X70759523Y-126882857D01*
X70664285Y-126930476D01*
X70473809Y-126978095D01*
X70330952Y-126978095D01*
X70140476Y-126930476D01*
X70045238Y-126882857D01*
X69950000Y-126787619D01*
X69902380Y-126644761D01*
X69902380Y-126549523D01*
X69950000Y-126406666D01*
X69997619Y-126359047D01*
X70902380Y-125406666D02*
X70902380Y-125978095D01*
X70902380Y-125692380D02*
X69902380Y-125692380D01*
X70045238Y-125787619D01*
X70140476Y-125882857D01*
X70188095Y-125978095D01*
X61212380Y-99381904D02*
X62021904Y-99381904D01*
X62117142Y-99334285D01*
X62164761Y-99286666D01*
X62212380Y-99191428D01*
X62212380Y-99000952D01*
X62164761Y-98905714D01*
X62117142Y-98858095D01*
X62021904Y-98810476D01*
X61212380Y-98810476D01*
X62212380Y-97810476D02*
X62212380Y-98381904D01*
X62212380Y-98096190D02*
X61212380Y-98096190D01*
X61355238Y-98191428D01*
X61450476Y-98286666D01*
X61498095Y-98381904D01*
M02*
