G04 #@! TF.GenerationSoftware,KiCad,Pcbnew,5.1.2-f72e74a~84~ubuntu16.04.1*
G04 #@! TF.CreationDate,2019-05-08T01:02:17+08:00*
G04 #@! TF.ProjectId,8Bit_EuroRack_7hp,38426974-5f45-4757-926f-5261636b5f37,rev?*
G04 #@! TF.SameCoordinates,Original*
G04 #@! TF.FileFunction,Soldermask,Bot*
G04 #@! TF.FilePolarity,Negative*
%FSLAX46Y46*%
G04 Gerber Fmt 4.6, Leading zero omitted, Abs format (unit mm)*
G04 Created by KiCad (PCBNEW 5.1.2-f72e74a~84~ubuntu16.04.1) date 2019-05-08 01:02:17*
%MOMM*%
%LPD*%
G04 APERTURE LIST*
%ADD10C,0.010000*%
%ADD11O,1.910000X3.410000*%
%ADD12R,1.910000X3.410000*%
%ADD13C,1.720000*%
%ADD14O,1.720000X1.720000*%
%ADD15R,1.800000X2.200000*%
%ADD16R,2.900000X1.400000*%
%ADD17C,2.279600*%
%ADD18C,2.400000*%
%ADD19O,3.200000X3.900000*%
%ADD20R,2.100000X1.700000*%
%ADD21R,1.200000X2.400000*%
%ADD22O,2.100000X2.100000*%
%ADD23R,2.100000X2.100000*%
%ADD24C,1.820000*%
%ADD25O,2.000000X2.000000*%
%ADD26R,2.000000X2.000000*%
G04 APERTURE END LIST*
D10*
G36*
X51729355Y-78639298D02*
G01*
X51725703Y-78641964D01*
X51708753Y-78656539D01*
X51711778Y-78667678D01*
X51726450Y-78679660D01*
X51753200Y-78696637D01*
X51766666Y-78693382D01*
X51770831Y-78668297D01*
X51770900Y-78661800D01*
X51767473Y-78632427D01*
X51754814Y-78625449D01*
X51729355Y-78639298D01*
X51729355Y-78639298D01*
G37*
X51729355Y-78639298D02*
X51725703Y-78641964D01*
X51708753Y-78656539D01*
X51711778Y-78667678D01*
X51726450Y-78679660D01*
X51753200Y-78696637D01*
X51766666Y-78693382D01*
X51770831Y-78668297D01*
X51770900Y-78661800D01*
X51767473Y-78632427D01*
X51754814Y-78625449D01*
X51729355Y-78639298D01*
G36*
X50589398Y-71156171D02*
G01*
X50467327Y-71156428D01*
X50366498Y-71156934D01*
X50284832Y-71157751D01*
X50220249Y-71158943D01*
X50170670Y-71160572D01*
X50134017Y-71162702D01*
X50108210Y-71165395D01*
X50091171Y-71168715D01*
X50080820Y-71172724D01*
X50076358Y-71176057D01*
X50060575Y-71192679D01*
X50056300Y-71198282D01*
X50053971Y-71210816D01*
X50047326Y-71245935D01*
X50036814Y-71301275D01*
X50022887Y-71374472D01*
X50005993Y-71463162D01*
X49986583Y-71564982D01*
X49965106Y-71677566D01*
X49942015Y-71798553D01*
X49936163Y-71829200D01*
X49908201Y-71974981D01*
X49884351Y-72097689D01*
X49864185Y-72199241D01*
X49847275Y-72281555D01*
X49833192Y-72346548D01*
X49821510Y-72396139D01*
X49811801Y-72432245D01*
X49803636Y-72456783D01*
X49796587Y-72471671D01*
X49791392Y-72477982D01*
X49774226Y-72487199D01*
X49736249Y-72504577D01*
X49680268Y-72528928D01*
X49609089Y-72559063D01*
X49525518Y-72593795D01*
X49432362Y-72631935D01*
X49332427Y-72672296D01*
X49331778Y-72672557D01*
X49209982Y-72721109D01*
X49109748Y-72760350D01*
X49029269Y-72790924D01*
X48966738Y-72813471D01*
X48920348Y-72828636D01*
X48888293Y-72837060D01*
X48868765Y-72839386D01*
X48864310Y-72838820D01*
X48835506Y-72826768D01*
X48797398Y-72804864D01*
X48774136Y-72789171D01*
X48720478Y-72751188D01*
X48654015Y-72705197D01*
X48577236Y-72652831D01*
X48492630Y-72595726D01*
X48402687Y-72535518D01*
X48309895Y-72473841D01*
X48216745Y-72412330D01*
X48125725Y-72352622D01*
X48039324Y-72296350D01*
X47960033Y-72245151D01*
X47890341Y-72200659D01*
X47832736Y-72164510D01*
X47789708Y-72138339D01*
X47763746Y-72123780D01*
X47757408Y-72121300D01*
X47741752Y-72129642D01*
X47709982Y-72154826D01*
X47661847Y-72197083D01*
X47597095Y-72256645D01*
X47515474Y-72333744D01*
X47416731Y-72428613D01*
X47300616Y-72541484D01*
X47285832Y-72555927D01*
X47197304Y-72642663D01*
X47114174Y-72724506D01*
X47038249Y-72799652D01*
X46971334Y-72866293D01*
X46915235Y-72922624D01*
X46871758Y-72966840D01*
X46842707Y-72997135D01*
X46829890Y-73011703D01*
X46829580Y-73012207D01*
X46823757Y-73041565D01*
X46826431Y-73055851D01*
X46835211Y-73070393D01*
X46857134Y-73103614D01*
X46890751Y-73153401D01*
X46934614Y-73217643D01*
X46987276Y-73294225D01*
X47047287Y-73381038D01*
X47113199Y-73475967D01*
X47183565Y-73576900D01*
X47188335Y-73583728D01*
X47275655Y-73709116D01*
X47348914Y-73815268D01*
X47408972Y-73903502D01*
X47456687Y-73975138D01*
X47492919Y-74031494D01*
X47518528Y-74073889D01*
X47534374Y-74103642D01*
X47541315Y-74122072D01*
X47541800Y-74126108D01*
X47536817Y-74145222D01*
X47522782Y-74184295D01*
X47501071Y-74240128D01*
X47473060Y-74309517D01*
X47440125Y-74389263D01*
X47403639Y-74476163D01*
X47364979Y-74567016D01*
X47325520Y-74658621D01*
X47286637Y-74747776D01*
X47249706Y-74831281D01*
X47216101Y-74905933D01*
X47187198Y-74968531D01*
X47164373Y-75015874D01*
X47149001Y-75044761D01*
X47144190Y-75051653D01*
X47127723Y-75057942D01*
X47087816Y-75068161D01*
X47026071Y-75081982D01*
X46944088Y-75099077D01*
X46843467Y-75119117D01*
X46725811Y-75141774D01*
X46592718Y-75166718D01*
X46505500Y-75182759D01*
X46362581Y-75208968D01*
X46242634Y-75231225D01*
X46143613Y-75249975D01*
X46063475Y-75265664D01*
X46000174Y-75278738D01*
X45951666Y-75289643D01*
X45915905Y-75298826D01*
X45890848Y-75306732D01*
X45874450Y-75313808D01*
X45864665Y-75320498D01*
X45862225Y-75323069D01*
X45857104Y-75330786D01*
X45852830Y-75341936D01*
X45849329Y-75358709D01*
X45846524Y-75383295D01*
X45844340Y-75417883D01*
X45842699Y-75464663D01*
X45841527Y-75525825D01*
X45840747Y-75603556D01*
X45840284Y-75700049D01*
X45840060Y-75817490D01*
X45840001Y-75958072D01*
X45840000Y-75963050D01*
X45840053Y-76104309D01*
X45840262Y-76222366D01*
X45840704Y-76319418D01*
X45841458Y-76397661D01*
X45842601Y-76459294D01*
X45844211Y-76506513D01*
X45846365Y-76541515D01*
X45849140Y-76566498D01*
X45852615Y-76583659D01*
X45856866Y-76595195D01*
X45861971Y-76603303D01*
X45862624Y-76604124D01*
X45870114Y-76611004D01*
X45882594Y-76617884D01*
X45902167Y-76625228D01*
X45930935Y-76633498D01*
X45970998Y-76643157D01*
X46024459Y-76654668D01*
X46093419Y-76668494D01*
X46179981Y-76685098D01*
X46286245Y-76704941D01*
X46414314Y-76728487D01*
X46491310Y-76742546D01*
X46647204Y-76771287D01*
X46781881Y-76796795D01*
X46894706Y-76818937D01*
X46985042Y-76837582D01*
X47052254Y-76852599D01*
X47095705Y-76863856D01*
X47114759Y-76871221D01*
X47115164Y-76871589D01*
X47123701Y-76887116D01*
X47140564Y-76923602D01*
X47164638Y-76978427D01*
X47194805Y-77048970D01*
X47229948Y-77132610D01*
X47268952Y-77226729D01*
X47310698Y-77328705D01*
X47325176Y-77364351D01*
X47378615Y-77497066D01*
X47422318Y-77607596D01*
X47456687Y-77697045D01*
X47482127Y-77766516D01*
X47499042Y-77817110D01*
X47507837Y-77849933D01*
X47508942Y-77866001D01*
X47500107Y-77881866D01*
X47478205Y-77916297D01*
X47444742Y-77967058D01*
X47401226Y-78031912D01*
X47349165Y-78108624D01*
X47290066Y-78194957D01*
X47225437Y-78288676D01*
X47173629Y-78363350D01*
X47105588Y-78461327D01*
X47041666Y-78553681D01*
X46983407Y-78638160D01*
X46932354Y-78712510D01*
X46890051Y-78774481D01*
X46858041Y-78821818D01*
X46837868Y-78852270D01*
X46831433Y-78862676D01*
X46822765Y-78890544D01*
X46832562Y-78917139D01*
X46834940Y-78920864D01*
X46847623Y-78935359D01*
X46876633Y-78965705D01*
X46920101Y-79010027D01*
X46976160Y-79066454D01*
X47042940Y-79133114D01*
X47118572Y-79208134D01*
X47201190Y-79289640D01*
X47287161Y-79374037D01*
X47394238Y-79478582D01*
X47484725Y-79566189D01*
X47559873Y-79638004D01*
X47620931Y-79695167D01*
X47669149Y-79738823D01*
X47705779Y-79770115D01*
X47732070Y-79790185D01*
X47749273Y-79800178D01*
X47754994Y-79801766D01*
X47767926Y-79799566D01*
X47789358Y-79790531D01*
X47820882Y-79773665D01*
X47864085Y-79747976D01*
X47920558Y-79712468D01*
X47991892Y-79666147D01*
X48079675Y-79608019D01*
X48185497Y-79537090D01*
X48277885Y-79474741D01*
X48384519Y-79403032D01*
X48483033Y-79337588D01*
X48571503Y-79279639D01*
X48648006Y-79230413D01*
X48710620Y-79191139D01*
X48757420Y-79163044D01*
X48786485Y-79147359D01*
X48794932Y-79144400D01*
X48814786Y-79150177D01*
X48852908Y-79166254D01*
X48905277Y-79190749D01*
X48967874Y-79221778D01*
X49036678Y-79257459D01*
X49039018Y-79258700D01*
X49108162Y-79294539D01*
X49171451Y-79325777D01*
X49224809Y-79350525D01*
X49264158Y-79366893D01*
X49285423Y-79372995D01*
X49285716Y-79373000D01*
X49294072Y-79373361D01*
X49301127Y-79372968D01*
X49307963Y-79369601D01*
X49315659Y-79361044D01*
X49325294Y-79345077D01*
X49337949Y-79319484D01*
X49354703Y-79282045D01*
X49376635Y-79230544D01*
X49404827Y-79162763D01*
X49440357Y-79076482D01*
X49484305Y-78969485D01*
X49495928Y-78941200D01*
X49608156Y-78668150D01*
X49511603Y-78606307D01*
X49338097Y-78484751D01*
X49182619Y-78353060D01*
X49042897Y-78208526D01*
X48916659Y-78048440D01*
X48801633Y-77870096D01*
X48695549Y-77670786D01*
X48655965Y-77586471D01*
X48617440Y-77500710D01*
X48587366Y-77430682D01*
X48563450Y-77369652D01*
X48543397Y-77310886D01*
X48524914Y-77247649D01*
X48505707Y-77173206D01*
X48483481Y-77080823D01*
X48482925Y-77078471D01*
X48461165Y-76984942D01*
X48444681Y-76909082D01*
X48432443Y-76843958D01*
X48423416Y-76782635D01*
X48416570Y-76718179D01*
X48410872Y-76643657D01*
X48405740Y-76559950D01*
X48400836Y-76469213D01*
X48397944Y-76395074D01*
X48397228Y-76330386D01*
X48398855Y-76268003D01*
X48402990Y-76200778D01*
X48409800Y-76121564D01*
X48417837Y-76039250D01*
X48430106Y-75922479D01*
X48441843Y-75825529D01*
X48454130Y-75742872D01*
X48468045Y-75668980D01*
X48484670Y-75598325D01*
X48505083Y-75525379D01*
X48530365Y-75444614D01*
X48539418Y-75416950D01*
X48583338Y-75291279D01*
X48627480Y-75182650D01*
X48675806Y-75082979D01*
X48732280Y-74984186D01*
X48800865Y-74878187D01*
X48810624Y-74863828D01*
X48862157Y-74790104D01*
X48906819Y-74731268D01*
X48950691Y-74680358D01*
X48999852Y-74630413D01*
X49060383Y-74574470D01*
X49073974Y-74562319D01*
X49134106Y-74509700D01*
X49184331Y-74468792D01*
X49231488Y-74434998D01*
X49282417Y-74403721D01*
X49343956Y-74370364D01*
X49408052Y-74337774D01*
X49482059Y-74301398D01*
X49543554Y-74273353D01*
X49599959Y-74250948D01*
X49658694Y-74231496D01*
X49727178Y-74212308D01*
X49812832Y-74190695D01*
X49816359Y-74189831D01*
X50037350Y-74135701D01*
X50354850Y-74135107D01*
X50457503Y-74135247D01*
X50545389Y-74136426D01*
X50623289Y-74139159D01*
X50695982Y-74143956D01*
X50768249Y-74151331D01*
X50844870Y-74161797D01*
X50930623Y-74175865D01*
X51030290Y-74194050D01*
X51148651Y-74216863D01*
X51186700Y-74224328D01*
X51285486Y-74244509D01*
X51372312Y-74263733D01*
X51444299Y-74281277D01*
X51498566Y-74296417D01*
X51532234Y-74308429D01*
X51540863Y-74313382D01*
X51535521Y-74324612D01*
X51516388Y-74351822D01*
X51486111Y-74391629D01*
X51447338Y-74440651D01*
X51402717Y-74495505D01*
X51354895Y-74552809D01*
X51336847Y-74574039D01*
X51275748Y-74645529D01*
X51189949Y-74627442D01*
X51047097Y-74598786D01*
X50920351Y-74576998D01*
X50801882Y-74561257D01*
X50683861Y-74550742D01*
X50558456Y-74544634D01*
X50417839Y-74542111D01*
X50373900Y-74541935D01*
X50273776Y-74541885D01*
X50194678Y-74542308D01*
X50132234Y-74543532D01*
X50082071Y-74545884D01*
X50039817Y-74549694D01*
X50001098Y-74555289D01*
X49961542Y-74562997D01*
X49916777Y-74573148D01*
X49897650Y-74577675D01*
X49769730Y-74613673D01*
X49665844Y-74655415D01*
X49585133Y-74703585D01*
X49526742Y-74758868D01*
X49489813Y-74821946D01*
X49473488Y-74893504D01*
X49472479Y-74916924D01*
X49477073Y-74966085D01*
X49488822Y-75014708D01*
X49492611Y-75024874D01*
X49533612Y-75097633D01*
X49596962Y-75174511D01*
X49680367Y-75253470D01*
X49781533Y-75332470D01*
X49898166Y-75409473D01*
X49976413Y-75454861D01*
X50017068Y-75475823D01*
X50073118Y-75502774D01*
X50137773Y-75532659D01*
X50204246Y-75562420D01*
X50265750Y-75589000D01*
X50315498Y-75609343D01*
X50337631Y-75617541D01*
X50342790Y-75618614D01*
X50347159Y-75619429D01*
X50350377Y-75621947D01*
X50352083Y-75628129D01*
X50351916Y-75639936D01*
X50349516Y-75659327D01*
X50344521Y-75688265D01*
X50336571Y-75728709D01*
X50325305Y-75782621D01*
X50310361Y-75851961D01*
X50291380Y-75938690D01*
X50268001Y-76044769D01*
X50239862Y-76172158D01*
X50214064Y-76288996D01*
X50188997Y-76402975D01*
X50165716Y-76509570D01*
X50144779Y-76606166D01*
X50126747Y-76690144D01*
X50112179Y-76758889D01*
X50101636Y-76809785D01*
X50095676Y-76840214D01*
X50094525Y-76847796D01*
X50095830Y-76850586D01*
X50100333Y-76847132D01*
X50108941Y-76835931D01*
X50122559Y-76815484D01*
X50142093Y-76784289D01*
X50168449Y-76740844D01*
X50202533Y-76683648D01*
X50245251Y-76611201D01*
X50297509Y-76522000D01*
X50360212Y-76414545D01*
X50434266Y-76287334D01*
X50475137Y-76217050D01*
X50531566Y-76120116D01*
X50584210Y-76029937D01*
X50631663Y-75948902D01*
X50672521Y-75879400D01*
X50705377Y-75823821D01*
X50728825Y-75784554D01*
X50741459Y-75763987D01*
X50743112Y-75761596D01*
X50761209Y-75757043D01*
X50783588Y-75761596D01*
X50814497Y-75772550D01*
X50759948Y-76013850D01*
X50742928Y-76090699D01*
X50728063Y-76160802D01*
X50716242Y-76219723D01*
X50708351Y-76263027D01*
X50705280Y-76286278D01*
X50705268Y-76286900D01*
X50707841Y-76293943D01*
X50716822Y-76292235D01*
X50733969Y-76280198D01*
X50761041Y-76256257D01*
X50799795Y-76218834D01*
X50851991Y-76166354D01*
X50919386Y-76097240D01*
X50936394Y-76079680D01*
X51167650Y-75840711D01*
X51472450Y-75855337D01*
X51571238Y-75859900D01*
X51650041Y-75862892D01*
X51714233Y-75864181D01*
X51769190Y-75863640D01*
X51820285Y-75861138D01*
X51872892Y-75856545D01*
X51932387Y-75849731D01*
X51985852Y-75842945D01*
X52067170Y-75831979D01*
X52129755Y-75822055D01*
X52180132Y-75811551D01*
X52224829Y-75798845D01*
X52270371Y-75782315D01*
X52323284Y-75760339D01*
X52330212Y-75757356D01*
X52465972Y-75698786D01*
X52518486Y-75613684D01*
X52553654Y-75545615D01*
X52569812Y-75482863D01*
X52566360Y-75421403D01*
X52542700Y-75357207D01*
X52498229Y-75286250D01*
X52462891Y-75240687D01*
X52432071Y-75201837D01*
X52415587Y-75176458D01*
X52411000Y-75158949D01*
X52415866Y-75143713D01*
X52418593Y-75139087D01*
X52439458Y-75108920D01*
X52469939Y-75069006D01*
X52506409Y-75023624D01*
X52545238Y-74977057D01*
X52582799Y-74933582D01*
X52615463Y-74897481D01*
X52639602Y-74873033D01*
X52651367Y-74864500D01*
X52670664Y-74874234D01*
X52701718Y-74901149D01*
X52741442Y-74941812D01*
X52786750Y-74992791D01*
X52834557Y-75050652D01*
X52881779Y-75111964D01*
X52913721Y-75156372D01*
X53015774Y-75324935D01*
X53094705Y-75503993D01*
X53150448Y-75693387D01*
X53166912Y-75775871D01*
X53177710Y-75841896D01*
X53185244Y-75899178D01*
X53189902Y-75954450D01*
X53192070Y-76014445D01*
X53192138Y-76085896D01*
X53190494Y-76175535D01*
X53190334Y-76182271D01*
X53187396Y-76278552D01*
X53183269Y-76356512D01*
X53177235Y-76423224D01*
X53168579Y-76485765D01*
X53156583Y-76551207D01*
X53149509Y-76585350D01*
X53113938Y-76740523D01*
X53076101Y-76879142D01*
X53033105Y-77010045D01*
X52982059Y-77142071D01*
X52923060Y-77277500D01*
X52811779Y-77501857D01*
X52689300Y-77708650D01*
X52553246Y-77900700D01*
X52401240Y-78080832D01*
X52230906Y-78251868D01*
X52039867Y-78416632D01*
X51832188Y-78573373D01*
X51834233Y-78586452D01*
X51845035Y-78619514D01*
X51863228Y-78669245D01*
X51887446Y-78732334D01*
X51916322Y-78805468D01*
X51948490Y-78885332D01*
X51982584Y-78968616D01*
X52017238Y-79052006D01*
X52051086Y-79132189D01*
X52082762Y-79205852D01*
X52110899Y-79269683D01*
X52134131Y-79320369D01*
X52151092Y-79354597D01*
X52160281Y-79368956D01*
X52167980Y-79374694D01*
X52175960Y-79377902D01*
X52187221Y-79377332D01*
X52204766Y-79371737D01*
X52231597Y-79359869D01*
X52270713Y-79340481D01*
X52325118Y-79312327D01*
X52397813Y-79274157D01*
X52433219Y-79255525D01*
X52501484Y-79220358D01*
X52563594Y-79189771D01*
X52615484Y-79165656D01*
X52653087Y-79149903D01*
X52672150Y-79144400D01*
X52688075Y-79151331D01*
X52722760Y-79171186D01*
X52773993Y-79202552D01*
X52839566Y-79244018D01*
X52917269Y-79294172D01*
X53004891Y-79351604D01*
X53100223Y-79414901D01*
X53189132Y-79474600D01*
X53314295Y-79558612D01*
X53423957Y-79631262D01*
X53517252Y-79691998D01*
X53593311Y-79740271D01*
X53651266Y-79775529D01*
X53690248Y-79797220D01*
X53709390Y-79804796D01*
X53709588Y-79804800D01*
X53721336Y-79800636D01*
X53741171Y-79787382D01*
X53770344Y-79763895D01*
X53810103Y-79729030D01*
X53861697Y-79681644D01*
X53926376Y-79620593D01*
X54005388Y-79544733D01*
X54099982Y-79452920D01*
X54191538Y-79363475D01*
X54293990Y-79263062D01*
X54379680Y-79178771D01*
X54450070Y-79109028D01*
X54506624Y-79052264D01*
X54550802Y-79006905D01*
X54584069Y-78971381D01*
X54607887Y-78944119D01*
X54623718Y-78923549D01*
X54633024Y-78908099D01*
X54637269Y-78896196D01*
X54637915Y-78886270D01*
X54637702Y-78884050D01*
X54628903Y-78863108D01*
X54605344Y-78822304D01*
X54567384Y-78762183D01*
X54515383Y-78683294D01*
X54449700Y-78586182D01*
X54370695Y-78471395D01*
X54294216Y-78361597D01*
X54225271Y-78262542D01*
X54161032Y-78169239D01*
X54102946Y-78083860D01*
X54052456Y-78008576D01*
X54011009Y-77945559D01*
X53980051Y-77896983D01*
X53961026Y-77865018D01*
X53955300Y-77852267D01*
X53959958Y-77835511D01*
X53973092Y-77798418D01*
X53993447Y-77744112D01*
X54019766Y-77675718D01*
X54050794Y-77596358D01*
X54085275Y-77509158D01*
X54121951Y-77417241D01*
X54159568Y-77323731D01*
X54196869Y-77231753D01*
X54232598Y-77144430D01*
X54265499Y-77064887D01*
X54294316Y-76996247D01*
X54317792Y-76941636D01*
X54334671Y-76904176D01*
X54343034Y-76887938D01*
X54366118Y-76863539D01*
X54385164Y-76852664D01*
X54402254Y-76848882D01*
X54441759Y-76841046D01*
X54501105Y-76829641D01*
X54577716Y-76815151D01*
X54669016Y-76798062D01*
X54772431Y-76778858D01*
X54885384Y-76758023D01*
X54996727Y-76737608D01*
X55115982Y-76715572D01*
X55227852Y-76694450D01*
X55329795Y-76674754D01*
X55419274Y-76656996D01*
X55493749Y-76641688D01*
X55550679Y-76629340D01*
X55587526Y-76620465D01*
X55601574Y-76615752D01*
X55605723Y-76599900D01*
X55609374Y-76561618D01*
X55612525Y-76503871D01*
X55615175Y-76429624D01*
X55617320Y-76341842D01*
X55618959Y-76243488D01*
X55620090Y-76137528D01*
X55620712Y-76026926D01*
X55620821Y-75914647D01*
X55620417Y-75803655D01*
X55619496Y-75696914D01*
X55618058Y-75597390D01*
X55616100Y-75508047D01*
X55613619Y-75431850D01*
X55610615Y-75371762D01*
X55607085Y-75330750D01*
X55603028Y-75311776D01*
X55602453Y-75311077D01*
X55586958Y-75306089D01*
X55548975Y-75297128D01*
X55491017Y-75284698D01*
X55415599Y-75269302D01*
X55325234Y-75251446D01*
X55222437Y-75231633D01*
X55109721Y-75210367D01*
X54989678Y-75188168D01*
X54845865Y-75161848D01*
X54724975Y-75139711D01*
X54624956Y-75121315D01*
X54543756Y-75106221D01*
X54479323Y-75093987D01*
X54429605Y-75084175D01*
X54392549Y-75076342D01*
X54366102Y-75070048D01*
X54348213Y-75064853D01*
X54336830Y-75060317D01*
X54329900Y-75055999D01*
X54325371Y-75051458D01*
X54321191Y-75046254D01*
X54319553Y-75044332D01*
X54310434Y-75028237D01*
X54292510Y-74991501D01*
X54267003Y-74936816D01*
X54235141Y-74866876D01*
X54198148Y-74784374D01*
X54157250Y-74692004D01*
X54113672Y-74592457D01*
X54107709Y-74578750D01*
X54057422Y-74462685D01*
X54016661Y-74367579D01*
X53984579Y-74291206D01*
X53960329Y-74231339D01*
X53943065Y-74185752D01*
X53931940Y-74152218D01*
X53926108Y-74128510D01*
X53924720Y-74112402D01*
X53926597Y-74102500D01*
X53936184Y-74085919D01*
X53958934Y-74050778D01*
X53993357Y-73999261D01*
X54037962Y-73933553D01*
X54091256Y-73855840D01*
X54151749Y-73768307D01*
X54217950Y-73673138D01*
X54286310Y-73575450D01*
X54370720Y-73454832D01*
X54441277Y-73353200D01*
X54499017Y-73268960D01*
X54544976Y-73200519D01*
X54576495Y-73151972D01*
X53778247Y-73151972D01*
X53717549Y-73218341D01*
X53672991Y-73266730D01*
X53615247Y-73328904D01*
X53545626Y-73403483D01*
X53465439Y-73489086D01*
X53375995Y-73584331D01*
X53278604Y-73687837D01*
X53174576Y-73798223D01*
X53065221Y-73914106D01*
X52951849Y-74034106D01*
X52835769Y-74156842D01*
X52718292Y-74280932D01*
X52600727Y-74404994D01*
X52484385Y-74527648D01*
X52370574Y-74647512D01*
X52260606Y-74763204D01*
X52155789Y-74873343D01*
X52057434Y-74976549D01*
X51966851Y-75071439D01*
X51885349Y-75156632D01*
X51814239Y-75230747D01*
X51754829Y-75292403D01*
X51708431Y-75340217D01*
X51676354Y-75372809D01*
X51659908Y-75388798D01*
X51658058Y-75390226D01*
X51629934Y-75394037D01*
X51584350Y-75395296D01*
X51528086Y-75394348D01*
X51467920Y-75391541D01*
X51410634Y-75387221D01*
X51363007Y-75381733D01*
X51331819Y-75375426D01*
X51326400Y-75373281D01*
X51280956Y-75342427D01*
X51237758Y-75301474D01*
X51207014Y-75260193D01*
X51205704Y-75257759D01*
X51203534Y-75252805D01*
X51202787Y-75247181D01*
X51204375Y-75239956D01*
X51209213Y-75230197D01*
X51218214Y-75216972D01*
X51232290Y-75199350D01*
X51252356Y-75176398D01*
X51279324Y-75147185D01*
X51314108Y-75110778D01*
X51357622Y-75066245D01*
X51410777Y-75012655D01*
X51474489Y-74949076D01*
X51549669Y-74874575D01*
X51637232Y-74788220D01*
X51738090Y-74689081D01*
X51853157Y-74576223D01*
X51983347Y-74448717D01*
X52129572Y-74305629D01*
X52292746Y-74146028D01*
X52350691Y-74089359D01*
X52494508Y-73948793D01*
X52633367Y-73813231D01*
X52766183Y-73683725D01*
X52891869Y-73561327D01*
X53009339Y-73447091D01*
X53117507Y-73342068D01*
X53215286Y-73247311D01*
X53301590Y-73163874D01*
X53375333Y-73092808D01*
X53435427Y-73035167D01*
X53480788Y-72992002D01*
X53510328Y-72964367D01*
X53522961Y-72953314D01*
X53523314Y-72953150D01*
X53536776Y-72960748D01*
X53565626Y-72981473D01*
X53605715Y-73012220D01*
X53652894Y-73049885D01*
X53656184Y-73052561D01*
X53778247Y-73151972D01*
X54576495Y-73151972D01*
X54580189Y-73146284D01*
X54605694Y-73104662D01*
X54622527Y-73074060D01*
X54631723Y-73052884D01*
X54634329Y-73040400D01*
X54632994Y-73029884D01*
X54627801Y-73017079D01*
X54617289Y-73000411D01*
X54599992Y-72978308D01*
X54574446Y-72949197D01*
X54539189Y-72911508D01*
X54492756Y-72863666D01*
X54433683Y-72804100D01*
X54360507Y-72731237D01*
X54271763Y-72643506D01*
X54187982Y-72560975D01*
X54077550Y-72452643D01*
X53983839Y-72361503D01*
X53905804Y-72286590D01*
X53842403Y-72226941D01*
X53792591Y-72181593D01*
X53755326Y-72149582D01*
X53729562Y-72129946D01*
X53714257Y-72121719D01*
X53711732Y-72121329D01*
X53694723Y-72128413D01*
X53658384Y-72148996D01*
X53604251Y-72182095D01*
X53533860Y-72226726D01*
X53448749Y-72281908D01*
X53350453Y-72346656D01*
X53240508Y-72419988D01*
X53155200Y-72477413D01*
X53051065Y-72547528D01*
X52952631Y-72613351D01*
X52862028Y-72673491D01*
X52781385Y-72726554D01*
X52712833Y-72771149D01*
X52658499Y-72805883D01*
X52620515Y-72829364D01*
X52601009Y-72840198D01*
X52599608Y-72840702D01*
X52579694Y-72838043D01*
X52539758Y-72826463D01*
X52483026Y-72807271D01*
X52412725Y-72781775D01*
X52332081Y-72751285D01*
X52244321Y-72717108D01*
X52152673Y-72680553D01*
X52060361Y-72642929D01*
X51970614Y-72605545D01*
X51886658Y-72569709D01*
X51811719Y-72536729D01*
X51749025Y-72507914D01*
X51701801Y-72484574D01*
X51673275Y-72468015D01*
X51666814Y-72462401D01*
X51658632Y-72441387D01*
X51646422Y-72395595D01*
X51630247Y-72325317D01*
X51610170Y-72230845D01*
X51586251Y-72112469D01*
X51558553Y-71970482D01*
X51529269Y-71816500D01*
X51498024Y-71652291D01*
X51470641Y-71512125D01*
X51447157Y-71396175D01*
X51427609Y-71304613D01*
X51412035Y-71237612D01*
X51400470Y-71195346D01*
X51393290Y-71178325D01*
X51387337Y-71173303D01*
X51377892Y-71169096D01*
X51362836Y-71165632D01*
X51340049Y-71162841D01*
X51307411Y-71160649D01*
X51262804Y-71158987D01*
X51204107Y-71157782D01*
X51129200Y-71156963D01*
X51035965Y-71156458D01*
X50922282Y-71156195D01*
X50786031Y-71156104D01*
X50734789Y-71156100D01*
X50589398Y-71156171D01*
X50589398Y-71156171D01*
G37*
X50589398Y-71156171D02*
X50467327Y-71156428D01*
X50366498Y-71156934D01*
X50284832Y-71157751D01*
X50220249Y-71158943D01*
X50170670Y-71160572D01*
X50134017Y-71162702D01*
X50108210Y-71165395D01*
X50091171Y-71168715D01*
X50080820Y-71172724D01*
X50076358Y-71176057D01*
X50060575Y-71192679D01*
X50056300Y-71198282D01*
X50053971Y-71210816D01*
X50047326Y-71245935D01*
X50036814Y-71301275D01*
X50022887Y-71374472D01*
X50005993Y-71463162D01*
X49986583Y-71564982D01*
X49965106Y-71677566D01*
X49942015Y-71798553D01*
X49936163Y-71829200D01*
X49908201Y-71974981D01*
X49884351Y-72097689D01*
X49864185Y-72199241D01*
X49847275Y-72281555D01*
X49833192Y-72346548D01*
X49821510Y-72396139D01*
X49811801Y-72432245D01*
X49803636Y-72456783D01*
X49796587Y-72471671D01*
X49791392Y-72477982D01*
X49774226Y-72487199D01*
X49736249Y-72504577D01*
X49680268Y-72528928D01*
X49609089Y-72559063D01*
X49525518Y-72593795D01*
X49432362Y-72631935D01*
X49332427Y-72672296D01*
X49331778Y-72672557D01*
X49209982Y-72721109D01*
X49109748Y-72760350D01*
X49029269Y-72790924D01*
X48966738Y-72813471D01*
X48920348Y-72828636D01*
X48888293Y-72837060D01*
X48868765Y-72839386D01*
X48864310Y-72838820D01*
X48835506Y-72826768D01*
X48797398Y-72804864D01*
X48774136Y-72789171D01*
X48720478Y-72751188D01*
X48654015Y-72705197D01*
X48577236Y-72652831D01*
X48492630Y-72595726D01*
X48402687Y-72535518D01*
X48309895Y-72473841D01*
X48216745Y-72412330D01*
X48125725Y-72352622D01*
X48039324Y-72296350D01*
X47960033Y-72245151D01*
X47890341Y-72200659D01*
X47832736Y-72164510D01*
X47789708Y-72138339D01*
X47763746Y-72123780D01*
X47757408Y-72121300D01*
X47741752Y-72129642D01*
X47709982Y-72154826D01*
X47661847Y-72197083D01*
X47597095Y-72256645D01*
X47515474Y-72333744D01*
X47416731Y-72428613D01*
X47300616Y-72541484D01*
X47285832Y-72555927D01*
X47197304Y-72642663D01*
X47114174Y-72724506D01*
X47038249Y-72799652D01*
X46971334Y-72866293D01*
X46915235Y-72922624D01*
X46871758Y-72966840D01*
X46842707Y-72997135D01*
X46829890Y-73011703D01*
X46829580Y-73012207D01*
X46823757Y-73041565D01*
X46826431Y-73055851D01*
X46835211Y-73070393D01*
X46857134Y-73103614D01*
X46890751Y-73153401D01*
X46934614Y-73217643D01*
X46987276Y-73294225D01*
X47047287Y-73381038D01*
X47113199Y-73475967D01*
X47183565Y-73576900D01*
X47188335Y-73583728D01*
X47275655Y-73709116D01*
X47348914Y-73815268D01*
X47408972Y-73903502D01*
X47456687Y-73975138D01*
X47492919Y-74031494D01*
X47518528Y-74073889D01*
X47534374Y-74103642D01*
X47541315Y-74122072D01*
X47541800Y-74126108D01*
X47536817Y-74145222D01*
X47522782Y-74184295D01*
X47501071Y-74240128D01*
X47473060Y-74309517D01*
X47440125Y-74389263D01*
X47403639Y-74476163D01*
X47364979Y-74567016D01*
X47325520Y-74658621D01*
X47286637Y-74747776D01*
X47249706Y-74831281D01*
X47216101Y-74905933D01*
X47187198Y-74968531D01*
X47164373Y-75015874D01*
X47149001Y-75044761D01*
X47144190Y-75051653D01*
X47127723Y-75057942D01*
X47087816Y-75068161D01*
X47026071Y-75081982D01*
X46944088Y-75099077D01*
X46843467Y-75119117D01*
X46725811Y-75141774D01*
X46592718Y-75166718D01*
X46505500Y-75182759D01*
X46362581Y-75208968D01*
X46242634Y-75231225D01*
X46143613Y-75249975D01*
X46063475Y-75265664D01*
X46000174Y-75278738D01*
X45951666Y-75289643D01*
X45915905Y-75298826D01*
X45890848Y-75306732D01*
X45874450Y-75313808D01*
X45864665Y-75320498D01*
X45862225Y-75323069D01*
X45857104Y-75330786D01*
X45852830Y-75341936D01*
X45849329Y-75358709D01*
X45846524Y-75383295D01*
X45844340Y-75417883D01*
X45842699Y-75464663D01*
X45841527Y-75525825D01*
X45840747Y-75603556D01*
X45840284Y-75700049D01*
X45840060Y-75817490D01*
X45840001Y-75958072D01*
X45840000Y-75963050D01*
X45840053Y-76104309D01*
X45840262Y-76222366D01*
X45840704Y-76319418D01*
X45841458Y-76397661D01*
X45842601Y-76459294D01*
X45844211Y-76506513D01*
X45846365Y-76541515D01*
X45849140Y-76566498D01*
X45852615Y-76583659D01*
X45856866Y-76595195D01*
X45861971Y-76603303D01*
X45862624Y-76604124D01*
X45870114Y-76611004D01*
X45882594Y-76617884D01*
X45902167Y-76625228D01*
X45930935Y-76633498D01*
X45970998Y-76643157D01*
X46024459Y-76654668D01*
X46093419Y-76668494D01*
X46179981Y-76685098D01*
X46286245Y-76704941D01*
X46414314Y-76728487D01*
X46491310Y-76742546D01*
X46647204Y-76771287D01*
X46781881Y-76796795D01*
X46894706Y-76818937D01*
X46985042Y-76837582D01*
X47052254Y-76852599D01*
X47095705Y-76863856D01*
X47114759Y-76871221D01*
X47115164Y-76871589D01*
X47123701Y-76887116D01*
X47140564Y-76923602D01*
X47164638Y-76978427D01*
X47194805Y-77048970D01*
X47229948Y-77132610D01*
X47268952Y-77226729D01*
X47310698Y-77328705D01*
X47325176Y-77364351D01*
X47378615Y-77497066D01*
X47422318Y-77607596D01*
X47456687Y-77697045D01*
X47482127Y-77766516D01*
X47499042Y-77817110D01*
X47507837Y-77849933D01*
X47508942Y-77866001D01*
X47500107Y-77881866D01*
X47478205Y-77916297D01*
X47444742Y-77967058D01*
X47401226Y-78031912D01*
X47349165Y-78108624D01*
X47290066Y-78194957D01*
X47225437Y-78288676D01*
X47173629Y-78363350D01*
X47105588Y-78461327D01*
X47041666Y-78553681D01*
X46983407Y-78638160D01*
X46932354Y-78712510D01*
X46890051Y-78774481D01*
X46858041Y-78821818D01*
X46837868Y-78852270D01*
X46831433Y-78862676D01*
X46822765Y-78890544D01*
X46832562Y-78917139D01*
X46834940Y-78920864D01*
X46847623Y-78935359D01*
X46876633Y-78965705D01*
X46920101Y-79010027D01*
X46976160Y-79066454D01*
X47042940Y-79133114D01*
X47118572Y-79208134D01*
X47201190Y-79289640D01*
X47287161Y-79374037D01*
X47394238Y-79478582D01*
X47484725Y-79566189D01*
X47559873Y-79638004D01*
X47620931Y-79695167D01*
X47669149Y-79738823D01*
X47705779Y-79770115D01*
X47732070Y-79790185D01*
X47749273Y-79800178D01*
X47754994Y-79801766D01*
X47767926Y-79799566D01*
X47789358Y-79790531D01*
X47820882Y-79773665D01*
X47864085Y-79747976D01*
X47920558Y-79712468D01*
X47991892Y-79666147D01*
X48079675Y-79608019D01*
X48185497Y-79537090D01*
X48277885Y-79474741D01*
X48384519Y-79403032D01*
X48483033Y-79337588D01*
X48571503Y-79279639D01*
X48648006Y-79230413D01*
X48710620Y-79191139D01*
X48757420Y-79163044D01*
X48786485Y-79147359D01*
X48794932Y-79144400D01*
X48814786Y-79150177D01*
X48852908Y-79166254D01*
X48905277Y-79190749D01*
X48967874Y-79221778D01*
X49036678Y-79257459D01*
X49039018Y-79258700D01*
X49108162Y-79294539D01*
X49171451Y-79325777D01*
X49224809Y-79350525D01*
X49264158Y-79366893D01*
X49285423Y-79372995D01*
X49285716Y-79373000D01*
X49294072Y-79373361D01*
X49301127Y-79372968D01*
X49307963Y-79369601D01*
X49315659Y-79361044D01*
X49325294Y-79345077D01*
X49337949Y-79319484D01*
X49354703Y-79282045D01*
X49376635Y-79230544D01*
X49404827Y-79162763D01*
X49440357Y-79076482D01*
X49484305Y-78969485D01*
X49495928Y-78941200D01*
X49608156Y-78668150D01*
X49511603Y-78606307D01*
X49338097Y-78484751D01*
X49182619Y-78353060D01*
X49042897Y-78208526D01*
X48916659Y-78048440D01*
X48801633Y-77870096D01*
X48695549Y-77670786D01*
X48655965Y-77586471D01*
X48617440Y-77500710D01*
X48587366Y-77430682D01*
X48563450Y-77369652D01*
X48543397Y-77310886D01*
X48524914Y-77247649D01*
X48505707Y-77173206D01*
X48483481Y-77080823D01*
X48482925Y-77078471D01*
X48461165Y-76984942D01*
X48444681Y-76909082D01*
X48432443Y-76843958D01*
X48423416Y-76782635D01*
X48416570Y-76718179D01*
X48410872Y-76643657D01*
X48405740Y-76559950D01*
X48400836Y-76469213D01*
X48397944Y-76395074D01*
X48397228Y-76330386D01*
X48398855Y-76268003D01*
X48402990Y-76200778D01*
X48409800Y-76121564D01*
X48417837Y-76039250D01*
X48430106Y-75922479D01*
X48441843Y-75825529D01*
X48454130Y-75742872D01*
X48468045Y-75668980D01*
X48484670Y-75598325D01*
X48505083Y-75525379D01*
X48530365Y-75444614D01*
X48539418Y-75416950D01*
X48583338Y-75291279D01*
X48627480Y-75182650D01*
X48675806Y-75082979D01*
X48732280Y-74984186D01*
X48800865Y-74878187D01*
X48810624Y-74863828D01*
X48862157Y-74790104D01*
X48906819Y-74731268D01*
X48950691Y-74680358D01*
X48999852Y-74630413D01*
X49060383Y-74574470D01*
X49073974Y-74562319D01*
X49134106Y-74509700D01*
X49184331Y-74468792D01*
X49231488Y-74434998D01*
X49282417Y-74403721D01*
X49343956Y-74370364D01*
X49408052Y-74337774D01*
X49482059Y-74301398D01*
X49543554Y-74273353D01*
X49599959Y-74250948D01*
X49658694Y-74231496D01*
X49727178Y-74212308D01*
X49812832Y-74190695D01*
X49816359Y-74189831D01*
X50037350Y-74135701D01*
X50354850Y-74135107D01*
X50457503Y-74135247D01*
X50545389Y-74136426D01*
X50623289Y-74139159D01*
X50695982Y-74143956D01*
X50768249Y-74151331D01*
X50844870Y-74161797D01*
X50930623Y-74175865D01*
X51030290Y-74194050D01*
X51148651Y-74216863D01*
X51186700Y-74224328D01*
X51285486Y-74244509D01*
X51372312Y-74263733D01*
X51444299Y-74281277D01*
X51498566Y-74296417D01*
X51532234Y-74308429D01*
X51540863Y-74313382D01*
X51535521Y-74324612D01*
X51516388Y-74351822D01*
X51486111Y-74391629D01*
X51447338Y-74440651D01*
X51402717Y-74495505D01*
X51354895Y-74552809D01*
X51336847Y-74574039D01*
X51275748Y-74645529D01*
X51189949Y-74627442D01*
X51047097Y-74598786D01*
X50920351Y-74576998D01*
X50801882Y-74561257D01*
X50683861Y-74550742D01*
X50558456Y-74544634D01*
X50417839Y-74542111D01*
X50373900Y-74541935D01*
X50273776Y-74541885D01*
X50194678Y-74542308D01*
X50132234Y-74543532D01*
X50082071Y-74545884D01*
X50039817Y-74549694D01*
X50001098Y-74555289D01*
X49961542Y-74562997D01*
X49916777Y-74573148D01*
X49897650Y-74577675D01*
X49769730Y-74613673D01*
X49665844Y-74655415D01*
X49585133Y-74703585D01*
X49526742Y-74758868D01*
X49489813Y-74821946D01*
X49473488Y-74893504D01*
X49472479Y-74916924D01*
X49477073Y-74966085D01*
X49488822Y-75014708D01*
X49492611Y-75024874D01*
X49533612Y-75097633D01*
X49596962Y-75174511D01*
X49680367Y-75253470D01*
X49781533Y-75332470D01*
X49898166Y-75409473D01*
X49976413Y-75454861D01*
X50017068Y-75475823D01*
X50073118Y-75502774D01*
X50137773Y-75532659D01*
X50204246Y-75562420D01*
X50265750Y-75589000D01*
X50315498Y-75609343D01*
X50337631Y-75617541D01*
X50342790Y-75618614D01*
X50347159Y-75619429D01*
X50350377Y-75621947D01*
X50352083Y-75628129D01*
X50351916Y-75639936D01*
X50349516Y-75659327D01*
X50344521Y-75688265D01*
X50336571Y-75728709D01*
X50325305Y-75782621D01*
X50310361Y-75851961D01*
X50291380Y-75938690D01*
X50268001Y-76044769D01*
X50239862Y-76172158D01*
X50214064Y-76288996D01*
X50188997Y-76402975D01*
X50165716Y-76509570D01*
X50144779Y-76606166D01*
X50126747Y-76690144D01*
X50112179Y-76758889D01*
X50101636Y-76809785D01*
X50095676Y-76840214D01*
X50094525Y-76847796D01*
X50095830Y-76850586D01*
X50100333Y-76847132D01*
X50108941Y-76835931D01*
X50122559Y-76815484D01*
X50142093Y-76784289D01*
X50168449Y-76740844D01*
X50202533Y-76683648D01*
X50245251Y-76611201D01*
X50297509Y-76522000D01*
X50360212Y-76414545D01*
X50434266Y-76287334D01*
X50475137Y-76217050D01*
X50531566Y-76120116D01*
X50584210Y-76029937D01*
X50631663Y-75948902D01*
X50672521Y-75879400D01*
X50705377Y-75823821D01*
X50728825Y-75784554D01*
X50741459Y-75763987D01*
X50743112Y-75761596D01*
X50761209Y-75757043D01*
X50783588Y-75761596D01*
X50814497Y-75772550D01*
X50759948Y-76013850D01*
X50742928Y-76090699D01*
X50728063Y-76160802D01*
X50716242Y-76219723D01*
X50708351Y-76263027D01*
X50705280Y-76286278D01*
X50705268Y-76286900D01*
X50707841Y-76293943D01*
X50716822Y-76292235D01*
X50733969Y-76280198D01*
X50761041Y-76256257D01*
X50799795Y-76218834D01*
X50851991Y-76166354D01*
X50919386Y-76097240D01*
X50936394Y-76079680D01*
X51167650Y-75840711D01*
X51472450Y-75855337D01*
X51571238Y-75859900D01*
X51650041Y-75862892D01*
X51714233Y-75864181D01*
X51769190Y-75863640D01*
X51820285Y-75861138D01*
X51872892Y-75856545D01*
X51932387Y-75849731D01*
X51985852Y-75842945D01*
X52067170Y-75831979D01*
X52129755Y-75822055D01*
X52180132Y-75811551D01*
X52224829Y-75798845D01*
X52270371Y-75782315D01*
X52323284Y-75760339D01*
X52330212Y-75757356D01*
X52465972Y-75698786D01*
X52518486Y-75613684D01*
X52553654Y-75545615D01*
X52569812Y-75482863D01*
X52566360Y-75421403D01*
X52542700Y-75357207D01*
X52498229Y-75286250D01*
X52462891Y-75240687D01*
X52432071Y-75201837D01*
X52415587Y-75176458D01*
X52411000Y-75158949D01*
X52415866Y-75143713D01*
X52418593Y-75139087D01*
X52439458Y-75108920D01*
X52469939Y-75069006D01*
X52506409Y-75023624D01*
X52545238Y-74977057D01*
X52582799Y-74933582D01*
X52615463Y-74897481D01*
X52639602Y-74873033D01*
X52651367Y-74864500D01*
X52670664Y-74874234D01*
X52701718Y-74901149D01*
X52741442Y-74941812D01*
X52786750Y-74992791D01*
X52834557Y-75050652D01*
X52881779Y-75111964D01*
X52913721Y-75156372D01*
X53015774Y-75324935D01*
X53094705Y-75503993D01*
X53150448Y-75693387D01*
X53166912Y-75775871D01*
X53177710Y-75841896D01*
X53185244Y-75899178D01*
X53189902Y-75954450D01*
X53192070Y-76014445D01*
X53192138Y-76085896D01*
X53190494Y-76175535D01*
X53190334Y-76182271D01*
X53187396Y-76278552D01*
X53183269Y-76356512D01*
X53177235Y-76423224D01*
X53168579Y-76485765D01*
X53156583Y-76551207D01*
X53149509Y-76585350D01*
X53113938Y-76740523D01*
X53076101Y-76879142D01*
X53033105Y-77010045D01*
X52982059Y-77142071D01*
X52923060Y-77277500D01*
X52811779Y-77501857D01*
X52689300Y-77708650D01*
X52553246Y-77900700D01*
X52401240Y-78080832D01*
X52230906Y-78251868D01*
X52039867Y-78416632D01*
X51832188Y-78573373D01*
X51834233Y-78586452D01*
X51845035Y-78619514D01*
X51863228Y-78669245D01*
X51887446Y-78732334D01*
X51916322Y-78805468D01*
X51948490Y-78885332D01*
X51982584Y-78968616D01*
X52017238Y-79052006D01*
X52051086Y-79132189D01*
X52082762Y-79205852D01*
X52110899Y-79269683D01*
X52134131Y-79320369D01*
X52151092Y-79354597D01*
X52160281Y-79368956D01*
X52167980Y-79374694D01*
X52175960Y-79377902D01*
X52187221Y-79377332D01*
X52204766Y-79371737D01*
X52231597Y-79359869D01*
X52270713Y-79340481D01*
X52325118Y-79312327D01*
X52397813Y-79274157D01*
X52433219Y-79255525D01*
X52501484Y-79220358D01*
X52563594Y-79189771D01*
X52615484Y-79165656D01*
X52653087Y-79149903D01*
X52672150Y-79144400D01*
X52688075Y-79151331D01*
X52722760Y-79171186D01*
X52773993Y-79202552D01*
X52839566Y-79244018D01*
X52917269Y-79294172D01*
X53004891Y-79351604D01*
X53100223Y-79414901D01*
X53189132Y-79474600D01*
X53314295Y-79558612D01*
X53423957Y-79631262D01*
X53517252Y-79691998D01*
X53593311Y-79740271D01*
X53651266Y-79775529D01*
X53690248Y-79797220D01*
X53709390Y-79804796D01*
X53709588Y-79804800D01*
X53721336Y-79800636D01*
X53741171Y-79787382D01*
X53770344Y-79763895D01*
X53810103Y-79729030D01*
X53861697Y-79681644D01*
X53926376Y-79620593D01*
X54005388Y-79544733D01*
X54099982Y-79452920D01*
X54191538Y-79363475D01*
X54293990Y-79263062D01*
X54379680Y-79178771D01*
X54450070Y-79109028D01*
X54506624Y-79052264D01*
X54550802Y-79006905D01*
X54584069Y-78971381D01*
X54607887Y-78944119D01*
X54623718Y-78923549D01*
X54633024Y-78908099D01*
X54637269Y-78896196D01*
X54637915Y-78886270D01*
X54637702Y-78884050D01*
X54628903Y-78863108D01*
X54605344Y-78822304D01*
X54567384Y-78762183D01*
X54515383Y-78683294D01*
X54449700Y-78586182D01*
X54370695Y-78471395D01*
X54294216Y-78361597D01*
X54225271Y-78262542D01*
X54161032Y-78169239D01*
X54102946Y-78083860D01*
X54052456Y-78008576D01*
X54011009Y-77945559D01*
X53980051Y-77896983D01*
X53961026Y-77865018D01*
X53955300Y-77852267D01*
X53959958Y-77835511D01*
X53973092Y-77798418D01*
X53993447Y-77744112D01*
X54019766Y-77675718D01*
X54050794Y-77596358D01*
X54085275Y-77509158D01*
X54121951Y-77417241D01*
X54159568Y-77323731D01*
X54196869Y-77231753D01*
X54232598Y-77144430D01*
X54265499Y-77064887D01*
X54294316Y-76996247D01*
X54317792Y-76941636D01*
X54334671Y-76904176D01*
X54343034Y-76887938D01*
X54366118Y-76863539D01*
X54385164Y-76852664D01*
X54402254Y-76848882D01*
X54441759Y-76841046D01*
X54501105Y-76829641D01*
X54577716Y-76815151D01*
X54669016Y-76798062D01*
X54772431Y-76778858D01*
X54885384Y-76758023D01*
X54996727Y-76737608D01*
X55115982Y-76715572D01*
X55227852Y-76694450D01*
X55329795Y-76674754D01*
X55419274Y-76656996D01*
X55493749Y-76641688D01*
X55550679Y-76629340D01*
X55587526Y-76620465D01*
X55601574Y-76615752D01*
X55605723Y-76599900D01*
X55609374Y-76561618D01*
X55612525Y-76503871D01*
X55615175Y-76429624D01*
X55617320Y-76341842D01*
X55618959Y-76243488D01*
X55620090Y-76137528D01*
X55620712Y-76026926D01*
X55620821Y-75914647D01*
X55620417Y-75803655D01*
X55619496Y-75696914D01*
X55618058Y-75597390D01*
X55616100Y-75508047D01*
X55613619Y-75431850D01*
X55610615Y-75371762D01*
X55607085Y-75330750D01*
X55603028Y-75311776D01*
X55602453Y-75311077D01*
X55586958Y-75306089D01*
X55548975Y-75297128D01*
X55491017Y-75284698D01*
X55415599Y-75269302D01*
X55325234Y-75251446D01*
X55222437Y-75231633D01*
X55109721Y-75210367D01*
X54989678Y-75188168D01*
X54845865Y-75161848D01*
X54724975Y-75139711D01*
X54624956Y-75121315D01*
X54543756Y-75106221D01*
X54479323Y-75093987D01*
X54429605Y-75084175D01*
X54392549Y-75076342D01*
X54366102Y-75070048D01*
X54348213Y-75064853D01*
X54336830Y-75060317D01*
X54329900Y-75055999D01*
X54325371Y-75051458D01*
X54321191Y-75046254D01*
X54319553Y-75044332D01*
X54310434Y-75028237D01*
X54292510Y-74991501D01*
X54267003Y-74936816D01*
X54235141Y-74866876D01*
X54198148Y-74784374D01*
X54157250Y-74692004D01*
X54113672Y-74592457D01*
X54107709Y-74578750D01*
X54057422Y-74462685D01*
X54016661Y-74367579D01*
X53984579Y-74291206D01*
X53960329Y-74231339D01*
X53943065Y-74185752D01*
X53931940Y-74152218D01*
X53926108Y-74128510D01*
X53924720Y-74112402D01*
X53926597Y-74102500D01*
X53936184Y-74085919D01*
X53958934Y-74050778D01*
X53993357Y-73999261D01*
X54037962Y-73933553D01*
X54091256Y-73855840D01*
X54151749Y-73768307D01*
X54217950Y-73673138D01*
X54286310Y-73575450D01*
X54370720Y-73454832D01*
X54441277Y-73353200D01*
X54499017Y-73268960D01*
X54544976Y-73200519D01*
X54576495Y-73151972D01*
X53778247Y-73151972D01*
X53717549Y-73218341D01*
X53672991Y-73266730D01*
X53615247Y-73328904D01*
X53545626Y-73403483D01*
X53465439Y-73489086D01*
X53375995Y-73584331D01*
X53278604Y-73687837D01*
X53174576Y-73798223D01*
X53065221Y-73914106D01*
X52951849Y-74034106D01*
X52835769Y-74156842D01*
X52718292Y-74280932D01*
X52600727Y-74404994D01*
X52484385Y-74527648D01*
X52370574Y-74647512D01*
X52260606Y-74763204D01*
X52155789Y-74873343D01*
X52057434Y-74976549D01*
X51966851Y-75071439D01*
X51885349Y-75156632D01*
X51814239Y-75230747D01*
X51754829Y-75292403D01*
X51708431Y-75340217D01*
X51676354Y-75372809D01*
X51659908Y-75388798D01*
X51658058Y-75390226D01*
X51629934Y-75394037D01*
X51584350Y-75395296D01*
X51528086Y-75394348D01*
X51467920Y-75391541D01*
X51410634Y-75387221D01*
X51363007Y-75381733D01*
X51331819Y-75375426D01*
X51326400Y-75373281D01*
X51280956Y-75342427D01*
X51237758Y-75301474D01*
X51207014Y-75260193D01*
X51205704Y-75257759D01*
X51203534Y-75252805D01*
X51202787Y-75247181D01*
X51204375Y-75239956D01*
X51209213Y-75230197D01*
X51218214Y-75216972D01*
X51232290Y-75199350D01*
X51252356Y-75176398D01*
X51279324Y-75147185D01*
X51314108Y-75110778D01*
X51357622Y-75066245D01*
X51410777Y-75012655D01*
X51474489Y-74949076D01*
X51549669Y-74874575D01*
X51637232Y-74788220D01*
X51738090Y-74689081D01*
X51853157Y-74576223D01*
X51983347Y-74448717D01*
X52129572Y-74305629D01*
X52292746Y-74146028D01*
X52350691Y-74089359D01*
X52494508Y-73948793D01*
X52633367Y-73813231D01*
X52766183Y-73683725D01*
X52891869Y-73561327D01*
X53009339Y-73447091D01*
X53117507Y-73342068D01*
X53215286Y-73247311D01*
X53301590Y-73163874D01*
X53375333Y-73092808D01*
X53435427Y-73035167D01*
X53480788Y-72992002D01*
X53510328Y-72964367D01*
X53522961Y-72953314D01*
X53523314Y-72953150D01*
X53536776Y-72960748D01*
X53565626Y-72981473D01*
X53605715Y-73012220D01*
X53652894Y-73049885D01*
X53656184Y-73052561D01*
X53778247Y-73151972D01*
X54576495Y-73151972D01*
X54580189Y-73146284D01*
X54605694Y-73104662D01*
X54622527Y-73074060D01*
X54631723Y-73052884D01*
X54634329Y-73040400D01*
X54632994Y-73029884D01*
X54627801Y-73017079D01*
X54617289Y-73000411D01*
X54599992Y-72978308D01*
X54574446Y-72949197D01*
X54539189Y-72911508D01*
X54492756Y-72863666D01*
X54433683Y-72804100D01*
X54360507Y-72731237D01*
X54271763Y-72643506D01*
X54187982Y-72560975D01*
X54077550Y-72452643D01*
X53983839Y-72361503D01*
X53905804Y-72286590D01*
X53842403Y-72226941D01*
X53792591Y-72181593D01*
X53755326Y-72149582D01*
X53729562Y-72129946D01*
X53714257Y-72121719D01*
X53711732Y-72121329D01*
X53694723Y-72128413D01*
X53658384Y-72148996D01*
X53604251Y-72182095D01*
X53533860Y-72226726D01*
X53448749Y-72281908D01*
X53350453Y-72346656D01*
X53240508Y-72419988D01*
X53155200Y-72477413D01*
X53051065Y-72547528D01*
X52952631Y-72613351D01*
X52862028Y-72673491D01*
X52781385Y-72726554D01*
X52712833Y-72771149D01*
X52658499Y-72805883D01*
X52620515Y-72829364D01*
X52601009Y-72840198D01*
X52599608Y-72840702D01*
X52579694Y-72838043D01*
X52539758Y-72826463D01*
X52483026Y-72807271D01*
X52412725Y-72781775D01*
X52332081Y-72751285D01*
X52244321Y-72717108D01*
X52152673Y-72680553D01*
X52060361Y-72642929D01*
X51970614Y-72605545D01*
X51886658Y-72569709D01*
X51811719Y-72536729D01*
X51749025Y-72507914D01*
X51701801Y-72484574D01*
X51673275Y-72468015D01*
X51666814Y-72462401D01*
X51658632Y-72441387D01*
X51646422Y-72395595D01*
X51630247Y-72325317D01*
X51610170Y-72230845D01*
X51586251Y-72112469D01*
X51558553Y-71970482D01*
X51529269Y-71816500D01*
X51498024Y-71652291D01*
X51470641Y-71512125D01*
X51447157Y-71396175D01*
X51427609Y-71304613D01*
X51412035Y-71237612D01*
X51400470Y-71195346D01*
X51393290Y-71178325D01*
X51387337Y-71173303D01*
X51377892Y-71169096D01*
X51362836Y-71165632D01*
X51340049Y-71162841D01*
X51307411Y-71160649D01*
X51262804Y-71158987D01*
X51204107Y-71157782D01*
X51129200Y-71156963D01*
X51035965Y-71156458D01*
X50922282Y-71156195D01*
X50786031Y-71156104D01*
X50734789Y-71156100D01*
X50589398Y-71156171D01*
G36*
X46978286Y-80099276D02*
G01*
X46905460Y-80121236D01*
X46840882Y-80152684D01*
X46787020Y-80191862D01*
X46746342Y-80237011D01*
X46721317Y-80286374D01*
X46714413Y-80338193D01*
X46728098Y-80390710D01*
X46759775Y-80436811D01*
X46786414Y-80463705D01*
X46809634Y-80477886D01*
X46839503Y-80483386D01*
X46878180Y-80484250D01*
X46941216Y-80476715D01*
X46995126Y-80456052D01*
X47034431Y-80425174D01*
X47052693Y-80391456D01*
X47063745Y-80370725D01*
X47075544Y-80366872D01*
X47086032Y-80382792D01*
X47094934Y-80421409D01*
X47101916Y-80480051D01*
X47106644Y-80556047D01*
X47108622Y-80630935D01*
X47107357Y-80698017D01*
X47099841Y-80742326D01*
X47083497Y-80765126D01*
X47055747Y-80767683D01*
X47014014Y-80751262D01*
X46955721Y-80717128D01*
X46945830Y-80710841D01*
X46892060Y-80678658D01*
X46851693Y-80660389D01*
X46818737Y-80653549D01*
X46807281Y-80653415D01*
X46752234Y-80665717D01*
X46713150Y-80696929D01*
X46690823Y-80745591D01*
X46686044Y-80810242D01*
X46693392Y-80863414D01*
X46719214Y-80927758D01*
X46765798Y-80983949D01*
X46828750Y-81027373D01*
X46863715Y-81042405D01*
X46929141Y-81059042D01*
X47006234Y-81068639D01*
X47086088Y-81070944D01*
X47159796Y-81065707D01*
X47218454Y-81052676D01*
X47219175Y-81052420D01*
X47305080Y-81009126D01*
X47380348Y-80946784D01*
X47420208Y-80898360D01*
X47465761Y-80814798D01*
X47492139Y-80721741D01*
X47499910Y-80616108D01*
X47491779Y-80510097D01*
X47473290Y-80407056D01*
X47446838Y-80323245D01*
X47410242Y-80253162D01*
X47368501Y-80199125D01*
X47332037Y-80161977D01*
X47297579Y-80137309D01*
X47254660Y-80118619D01*
X47221573Y-80107900D01*
X47138811Y-80090850D01*
X47056893Y-80088561D01*
X46978286Y-80099276D01*
X46978286Y-80099276D01*
G37*
X46978286Y-80099276D02*
X46905460Y-80121236D01*
X46840882Y-80152684D01*
X46787020Y-80191862D01*
X46746342Y-80237011D01*
X46721317Y-80286374D01*
X46714413Y-80338193D01*
X46728098Y-80390710D01*
X46759775Y-80436811D01*
X46786414Y-80463705D01*
X46809634Y-80477886D01*
X46839503Y-80483386D01*
X46878180Y-80484250D01*
X46941216Y-80476715D01*
X46995126Y-80456052D01*
X47034431Y-80425174D01*
X47052693Y-80391456D01*
X47063745Y-80370725D01*
X47075544Y-80366872D01*
X47086032Y-80382792D01*
X47094934Y-80421409D01*
X47101916Y-80480051D01*
X47106644Y-80556047D01*
X47108622Y-80630935D01*
X47107357Y-80698017D01*
X47099841Y-80742326D01*
X47083497Y-80765126D01*
X47055747Y-80767683D01*
X47014014Y-80751262D01*
X46955721Y-80717128D01*
X46945830Y-80710841D01*
X46892060Y-80678658D01*
X46851693Y-80660389D01*
X46818737Y-80653549D01*
X46807281Y-80653415D01*
X46752234Y-80665717D01*
X46713150Y-80696929D01*
X46690823Y-80745591D01*
X46686044Y-80810242D01*
X46693392Y-80863414D01*
X46719214Y-80927758D01*
X46765798Y-80983949D01*
X46828750Y-81027373D01*
X46863715Y-81042405D01*
X46929141Y-81059042D01*
X47006234Y-81068639D01*
X47086088Y-81070944D01*
X47159796Y-81065707D01*
X47218454Y-81052676D01*
X47219175Y-81052420D01*
X47305080Y-81009126D01*
X47380348Y-80946784D01*
X47420208Y-80898360D01*
X47465761Y-80814798D01*
X47492139Y-80721741D01*
X47499910Y-80616108D01*
X47491779Y-80510097D01*
X47473290Y-80407056D01*
X47446838Y-80323245D01*
X47410242Y-80253162D01*
X47368501Y-80199125D01*
X47332037Y-80161977D01*
X47297579Y-80137309D01*
X47254660Y-80118619D01*
X47221573Y-80107900D01*
X47138811Y-80090850D01*
X47056893Y-80088561D01*
X46978286Y-80099276D01*
G36*
X47891044Y-80107650D02*
G01*
X47818987Y-80124308D01*
X47792546Y-80134758D01*
X47733307Y-80170810D01*
X47688666Y-80218498D01*
X47653504Y-80283765D01*
X47644387Y-80306728D01*
X47622105Y-80394805D01*
X47623490Y-80475461D01*
X47648284Y-80547572D01*
X47696229Y-80610012D01*
X47718374Y-80629328D01*
X47771353Y-80671288D01*
X47708964Y-80737256D01*
X47652598Y-80803064D01*
X47618228Y-80859124D01*
X47605392Y-80907556D01*
X47613627Y-80950479D01*
X47642474Y-80990013D01*
X47652002Y-80998873D01*
X47721363Y-81047727D01*
X47789421Y-81071277D01*
X47856272Y-81069506D01*
X47922014Y-81042396D01*
X47986743Y-80989931D01*
X48037100Y-80930713D01*
X48081550Y-80871168D01*
X48088091Y-80933161D01*
X48099470Y-80988523D01*
X48122618Y-81026177D01*
X48162074Y-81052766D01*
X48173218Y-81057717D01*
X48221228Y-81069525D01*
X48281670Y-81073245D01*
X48342893Y-81068866D01*
X48389116Y-81057958D01*
X48419247Y-81045938D01*
X48441425Y-81032496D01*
X48456970Y-81013749D01*
X48467200Y-80985815D01*
X48473435Y-80944810D01*
X48476993Y-80886853D01*
X48479194Y-80808060D01*
X48479539Y-80791806D01*
X48480158Y-80683007D01*
X48477706Y-80576607D01*
X48472505Y-80476561D01*
X48472413Y-80475468D01*
X48126000Y-80475468D01*
X48124960Y-80520211D01*
X48122231Y-80554200D01*
X48118400Y-80570164D01*
X48118345Y-80570222D01*
X48100121Y-80572355D01*
X48069993Y-80561465D01*
X48035388Y-80541003D01*
X48008525Y-80519165D01*
X47981895Y-80487494D01*
X47976462Y-80459328D01*
X47992606Y-80428760D01*
X48015971Y-80403715D01*
X48044299Y-80378834D01*
X48065122Y-80369960D01*
X48087416Y-80373772D01*
X48092171Y-80375509D01*
X48110062Y-80383980D01*
X48120198Y-80396604D01*
X48124770Y-80419855D01*
X48125970Y-80460209D01*
X48126000Y-80475468D01*
X48472413Y-80475468D01*
X48464878Y-80386825D01*
X48455146Y-80311356D01*
X48443631Y-80254110D01*
X48433261Y-80223900D01*
X48401318Y-80182467D01*
X48349078Y-80149760D01*
X48275126Y-80125123D01*
X48183332Y-80108582D01*
X48078619Y-80099424D01*
X47979389Y-80099234D01*
X47891044Y-80107650D01*
X47891044Y-80107650D01*
G37*
X47891044Y-80107650D02*
X47818987Y-80124308D01*
X47792546Y-80134758D01*
X47733307Y-80170810D01*
X47688666Y-80218498D01*
X47653504Y-80283765D01*
X47644387Y-80306728D01*
X47622105Y-80394805D01*
X47623490Y-80475461D01*
X47648284Y-80547572D01*
X47696229Y-80610012D01*
X47718374Y-80629328D01*
X47771353Y-80671288D01*
X47708964Y-80737256D01*
X47652598Y-80803064D01*
X47618228Y-80859124D01*
X47605392Y-80907556D01*
X47613627Y-80950479D01*
X47642474Y-80990013D01*
X47652002Y-80998873D01*
X47721363Y-81047727D01*
X47789421Y-81071277D01*
X47856272Y-81069506D01*
X47922014Y-81042396D01*
X47986743Y-80989931D01*
X48037100Y-80930713D01*
X48081550Y-80871168D01*
X48088091Y-80933161D01*
X48099470Y-80988523D01*
X48122618Y-81026177D01*
X48162074Y-81052766D01*
X48173218Y-81057717D01*
X48221228Y-81069525D01*
X48281670Y-81073245D01*
X48342893Y-81068866D01*
X48389116Y-81057958D01*
X48419247Y-81045938D01*
X48441425Y-81032496D01*
X48456970Y-81013749D01*
X48467200Y-80985815D01*
X48473435Y-80944810D01*
X48476993Y-80886853D01*
X48479194Y-80808060D01*
X48479539Y-80791806D01*
X48480158Y-80683007D01*
X48477706Y-80576607D01*
X48472505Y-80476561D01*
X48472413Y-80475468D01*
X48126000Y-80475468D01*
X48124960Y-80520211D01*
X48122231Y-80554200D01*
X48118400Y-80570164D01*
X48118345Y-80570222D01*
X48100121Y-80572355D01*
X48069993Y-80561465D01*
X48035388Y-80541003D01*
X48008525Y-80519165D01*
X47981895Y-80487494D01*
X47976462Y-80459328D01*
X47992606Y-80428760D01*
X48015971Y-80403715D01*
X48044299Y-80378834D01*
X48065122Y-80369960D01*
X48087416Y-80373772D01*
X48092171Y-80375509D01*
X48110062Y-80383980D01*
X48120198Y-80396604D01*
X48124770Y-80419855D01*
X48125970Y-80460209D01*
X48126000Y-80475468D01*
X48472413Y-80475468D01*
X48464878Y-80386825D01*
X48455146Y-80311356D01*
X48443631Y-80254110D01*
X48433261Y-80223900D01*
X48401318Y-80182467D01*
X48349078Y-80149760D01*
X48275126Y-80125123D01*
X48183332Y-80108582D01*
X48078619Y-80099424D01*
X47979389Y-80099234D01*
X47891044Y-80107650D01*
G36*
X50011979Y-80121407D02*
G01*
X49961764Y-80135861D01*
X49876238Y-80174240D01*
X49810722Y-80219514D01*
X49759948Y-80276088D01*
X49726200Y-80332847D01*
X49680103Y-80440516D01*
X49650798Y-80545675D01*
X49639574Y-80642997D01*
X49640938Y-80684802D01*
X49657959Y-80791348D01*
X49689133Y-80878360D01*
X49735964Y-80948332D01*
X49799954Y-81003756D01*
X49850738Y-81032808D01*
X49890375Y-81050306D01*
X49927842Y-81061260D01*
X49971826Y-81067380D01*
X50031014Y-81070375D01*
X50043277Y-81070698D01*
X50102455Y-81070740D01*
X50157613Y-81068363D01*
X50199964Y-81064037D01*
X50212027Y-81061699D01*
X50292422Y-81031714D01*
X50370289Y-80984896D01*
X50439479Y-80926217D01*
X50493842Y-80860651D01*
X50520091Y-80812587D01*
X50550666Y-80707881D01*
X50555822Y-80625779D01*
X50163505Y-80625779D01*
X50159506Y-80692065D01*
X50145238Y-80736763D01*
X50119468Y-80762025D01*
X50080962Y-80769999D01*
X50080817Y-80770000D01*
X50055676Y-80765633D01*
X50039918Y-80747924D01*
X50030317Y-80723479D01*
X50022442Y-80678741D01*
X50021050Y-80620033D01*
X50025499Y-80557622D01*
X50035149Y-80501778D01*
X50046224Y-80468646D01*
X50067679Y-80439033D01*
X50090737Y-80432020D01*
X50113491Y-80445049D01*
X50134031Y-80475564D01*
X50150449Y-80521008D01*
X50160838Y-80578823D01*
X50163505Y-80625779D01*
X50555822Y-80625779D01*
X50557640Y-80596847D01*
X50541145Y-80482209D01*
X50501314Y-80366691D01*
X50498124Y-80359657D01*
X50452862Y-80282668D01*
X50394149Y-80214760D01*
X50327611Y-80161455D01*
X50264139Y-80129997D01*
X50186018Y-80113339D01*
X50098164Y-80110550D01*
X50011979Y-80121407D01*
X50011979Y-80121407D01*
G37*
X50011979Y-80121407D02*
X49961764Y-80135861D01*
X49876238Y-80174240D01*
X49810722Y-80219514D01*
X49759948Y-80276088D01*
X49726200Y-80332847D01*
X49680103Y-80440516D01*
X49650798Y-80545675D01*
X49639574Y-80642997D01*
X49640938Y-80684802D01*
X49657959Y-80791348D01*
X49689133Y-80878360D01*
X49735964Y-80948332D01*
X49799954Y-81003756D01*
X49850738Y-81032808D01*
X49890375Y-81050306D01*
X49927842Y-81061260D01*
X49971826Y-81067380D01*
X50031014Y-81070375D01*
X50043277Y-81070698D01*
X50102455Y-81070740D01*
X50157613Y-81068363D01*
X50199964Y-81064037D01*
X50212027Y-81061699D01*
X50292422Y-81031714D01*
X50370289Y-80984896D01*
X50439479Y-80926217D01*
X50493842Y-80860651D01*
X50520091Y-80812587D01*
X50550666Y-80707881D01*
X50555822Y-80625779D01*
X50163505Y-80625779D01*
X50159506Y-80692065D01*
X50145238Y-80736763D01*
X50119468Y-80762025D01*
X50080962Y-80769999D01*
X50080817Y-80770000D01*
X50055676Y-80765633D01*
X50039918Y-80747924D01*
X50030317Y-80723479D01*
X50022442Y-80678741D01*
X50021050Y-80620033D01*
X50025499Y-80557622D01*
X50035149Y-80501778D01*
X50046224Y-80468646D01*
X50067679Y-80439033D01*
X50090737Y-80432020D01*
X50113491Y-80445049D01*
X50134031Y-80475564D01*
X50150449Y-80521008D01*
X50160838Y-80578823D01*
X50163505Y-80625779D01*
X50555822Y-80625779D01*
X50557640Y-80596847D01*
X50541145Y-80482209D01*
X50501314Y-80366691D01*
X50498124Y-80359657D01*
X50452862Y-80282668D01*
X50394149Y-80214760D01*
X50327611Y-80161455D01*
X50264139Y-80129997D01*
X50186018Y-80113339D01*
X50098164Y-80110550D01*
X50011979Y-80121407D01*
G36*
X52160508Y-80107561D02*
G01*
X52110796Y-80121913D01*
X52108593Y-80122980D01*
X52075758Y-80144071D01*
X52049558Y-80172990D01*
X52029322Y-80212448D01*
X52014381Y-80265155D01*
X52004064Y-80333820D01*
X51997701Y-80421152D01*
X51994621Y-80529863D01*
X51994131Y-80585850D01*
X51994889Y-80693586D01*
X51998745Y-80779790D01*
X52006537Y-80848225D01*
X52019100Y-80902659D01*
X52037269Y-80946856D01*
X52061881Y-80984583D01*
X52089455Y-81015343D01*
X52139085Y-81064972D01*
X52229353Y-81059872D01*
X52277551Y-81056299D01*
X52308332Y-81050249D01*
X52329670Y-81038629D01*
X52349539Y-81018345D01*
X52355828Y-81010810D01*
X52376632Y-80981368D01*
X52404703Y-80935965D01*
X52435986Y-80881379D01*
X52459920Y-80836950D01*
X52527805Y-80707051D01*
X52527178Y-80824250D01*
X52529351Y-80898967D01*
X52537953Y-80954045D01*
X52554722Y-80994808D01*
X52581396Y-81026579D01*
X52597500Y-81039662D01*
X52653390Y-81065964D01*
X52716168Y-81069403D01*
X52781296Y-81049805D01*
X52786900Y-81047017D01*
X52829976Y-81018663D01*
X52861325Y-80980442D01*
X52875800Y-80954150D01*
X52886872Y-80930944D01*
X52895002Y-80909211D01*
X52900627Y-80884645D01*
X52904185Y-80852941D01*
X52906114Y-80809794D01*
X52906850Y-80750899D01*
X52906834Y-80687450D01*
X52545600Y-80687450D01*
X52539250Y-80693800D01*
X52532900Y-80687450D01*
X52539250Y-80681100D01*
X52545600Y-80687450D01*
X52906834Y-80687450D01*
X52906830Y-80671952D01*
X52906761Y-80649350D01*
X52905342Y-80537528D01*
X52901557Y-80447699D01*
X52894902Y-80376521D01*
X52884871Y-80320655D01*
X52870957Y-80276760D01*
X52852656Y-80241495D01*
X52842912Y-80227628D01*
X52794515Y-80181965D01*
X52733646Y-80150602D01*
X52667366Y-80135413D01*
X52602739Y-80138271D01*
X52560722Y-80152797D01*
X52523681Y-80182096D01*
X52482909Y-80231711D01*
X52441119Y-80297388D01*
X52401021Y-80374873D01*
X52365778Y-80458701D01*
X52354037Y-80487783D01*
X52347790Y-80498526D01*
X52347940Y-80491484D01*
X52352240Y-80465271D01*
X52358626Y-80421578D01*
X52365984Y-80368122D01*
X52369084Y-80344721D01*
X52376075Y-80274328D01*
X52374704Y-80222755D01*
X52363514Y-80184377D01*
X52341047Y-80153570D01*
X52313502Y-80130245D01*
X52272123Y-80112091D01*
X52217704Y-80104409D01*
X52160508Y-80107561D01*
X52160508Y-80107561D01*
G37*
X52160508Y-80107561D02*
X52110796Y-80121913D01*
X52108593Y-80122980D01*
X52075758Y-80144071D01*
X52049558Y-80172990D01*
X52029322Y-80212448D01*
X52014381Y-80265155D01*
X52004064Y-80333820D01*
X51997701Y-80421152D01*
X51994621Y-80529863D01*
X51994131Y-80585850D01*
X51994889Y-80693586D01*
X51998745Y-80779790D01*
X52006537Y-80848225D01*
X52019100Y-80902659D01*
X52037269Y-80946856D01*
X52061881Y-80984583D01*
X52089455Y-81015343D01*
X52139085Y-81064972D01*
X52229353Y-81059872D01*
X52277551Y-81056299D01*
X52308332Y-81050249D01*
X52329670Y-81038629D01*
X52349539Y-81018345D01*
X52355828Y-81010810D01*
X52376632Y-80981368D01*
X52404703Y-80935965D01*
X52435986Y-80881379D01*
X52459920Y-80836950D01*
X52527805Y-80707051D01*
X52527178Y-80824250D01*
X52529351Y-80898967D01*
X52537953Y-80954045D01*
X52554722Y-80994808D01*
X52581396Y-81026579D01*
X52597500Y-81039662D01*
X52653390Y-81065964D01*
X52716168Y-81069403D01*
X52781296Y-81049805D01*
X52786900Y-81047017D01*
X52829976Y-81018663D01*
X52861325Y-80980442D01*
X52875800Y-80954150D01*
X52886872Y-80930944D01*
X52895002Y-80909211D01*
X52900627Y-80884645D01*
X52904185Y-80852941D01*
X52906114Y-80809794D01*
X52906850Y-80750899D01*
X52906834Y-80687450D01*
X52545600Y-80687450D01*
X52539250Y-80693800D01*
X52532900Y-80687450D01*
X52539250Y-80681100D01*
X52545600Y-80687450D01*
X52906834Y-80687450D01*
X52906830Y-80671952D01*
X52906761Y-80649350D01*
X52905342Y-80537528D01*
X52901557Y-80447699D01*
X52894902Y-80376521D01*
X52884871Y-80320655D01*
X52870957Y-80276760D01*
X52852656Y-80241495D01*
X52842912Y-80227628D01*
X52794515Y-80181965D01*
X52733646Y-80150602D01*
X52667366Y-80135413D01*
X52602739Y-80138271D01*
X52560722Y-80152797D01*
X52523681Y-80182096D01*
X52482909Y-80231711D01*
X52441119Y-80297388D01*
X52401021Y-80374873D01*
X52365778Y-80458701D01*
X52354037Y-80487783D01*
X52347790Y-80498526D01*
X52347940Y-80491484D01*
X52352240Y-80465271D01*
X52358626Y-80421578D01*
X52365984Y-80368122D01*
X52369084Y-80344721D01*
X52376075Y-80274328D01*
X52374704Y-80222755D01*
X52363514Y-80184377D01*
X52341047Y-80153570D01*
X52313502Y-80130245D01*
X52272123Y-80112091D01*
X52217704Y-80104409D01*
X52160508Y-80107561D01*
G36*
X54203948Y-80099411D02*
G01*
X54136178Y-80102976D01*
X54085962Y-80108418D01*
X54045458Y-80117212D01*
X54006821Y-80130834D01*
X53983726Y-80140827D01*
X53902549Y-80188557D01*
X53840228Y-80247780D01*
X53796716Y-80315190D01*
X53771964Y-80387481D01*
X53765923Y-80461346D01*
X53778546Y-80533481D01*
X53809785Y-80600577D01*
X53859592Y-80659331D01*
X53927918Y-80706434D01*
X53992337Y-80732448D01*
X54047224Y-80747685D01*
X54102666Y-80760789D01*
X54141479Y-80768066D01*
X54202950Y-80777054D01*
X54198580Y-80863261D01*
X54199742Y-80936600D01*
X54212587Y-80990169D01*
X54238327Y-81027340D01*
X54263949Y-81045039D01*
X54315954Y-81062245D01*
X54380170Y-81070000D01*
X54445008Y-81067727D01*
X54494564Y-81056538D01*
X54532079Y-81037786D01*
X54561652Y-81014875D01*
X54566108Y-81009699D01*
X54588073Y-80967471D01*
X54605122Y-80904936D01*
X54617405Y-80820979D01*
X54625074Y-80714483D01*
X54628279Y-80584331D01*
X54628400Y-80549694D01*
X54627326Y-80439616D01*
X54626584Y-80421375D01*
X54247140Y-80421375D01*
X54246785Y-80465463D01*
X54244764Y-80504947D01*
X54241115Y-80532596D01*
X54236649Y-80541400D01*
X54222023Y-80533229D01*
X54196694Y-80512401D01*
X54180455Y-80497267D01*
X54142452Y-80454374D01*
X54125942Y-80418605D01*
X54129576Y-80385979D01*
X54137623Y-80370956D01*
X54161302Y-80349425D01*
X54194256Y-80334450D01*
X54225440Y-80330133D01*
X54237803Y-80333767D01*
X54242689Y-80348298D01*
X54245789Y-80379910D01*
X54247140Y-80421375D01*
X54626584Y-80421375D01*
X54623753Y-80351876D01*
X54617156Y-80283485D01*
X54607008Y-80231457D01*
X54592783Y-80192807D01*
X54573957Y-80164546D01*
X54557942Y-80149490D01*
X54517769Y-80129296D01*
X54456675Y-80113665D01*
X54378825Y-80103187D01*
X54288386Y-80098451D01*
X54203948Y-80099411D01*
X54203948Y-80099411D01*
G37*
X54203948Y-80099411D02*
X54136178Y-80102976D01*
X54085962Y-80108418D01*
X54045458Y-80117212D01*
X54006821Y-80130834D01*
X53983726Y-80140827D01*
X53902549Y-80188557D01*
X53840228Y-80247780D01*
X53796716Y-80315190D01*
X53771964Y-80387481D01*
X53765923Y-80461346D01*
X53778546Y-80533481D01*
X53809785Y-80600577D01*
X53859592Y-80659331D01*
X53927918Y-80706434D01*
X53992337Y-80732448D01*
X54047224Y-80747685D01*
X54102666Y-80760789D01*
X54141479Y-80768066D01*
X54202950Y-80777054D01*
X54198580Y-80863261D01*
X54199742Y-80936600D01*
X54212587Y-80990169D01*
X54238327Y-81027340D01*
X54263949Y-81045039D01*
X54315954Y-81062245D01*
X54380170Y-81070000D01*
X54445008Y-81067727D01*
X54494564Y-81056538D01*
X54532079Y-81037786D01*
X54561652Y-81014875D01*
X54566108Y-81009699D01*
X54588073Y-80967471D01*
X54605122Y-80904936D01*
X54617405Y-80820979D01*
X54625074Y-80714483D01*
X54628279Y-80584331D01*
X54628400Y-80549694D01*
X54627326Y-80439616D01*
X54626584Y-80421375D01*
X54247140Y-80421375D01*
X54246785Y-80465463D01*
X54244764Y-80504947D01*
X54241115Y-80532596D01*
X54236649Y-80541400D01*
X54222023Y-80533229D01*
X54196694Y-80512401D01*
X54180455Y-80497267D01*
X54142452Y-80454374D01*
X54125942Y-80418605D01*
X54129576Y-80385979D01*
X54137623Y-80370956D01*
X54161302Y-80349425D01*
X54194256Y-80334450D01*
X54225440Y-80330133D01*
X54237803Y-80333767D01*
X54242689Y-80348298D01*
X54245789Y-80379910D01*
X54247140Y-80421375D01*
X54626584Y-80421375D01*
X54623753Y-80351876D01*
X54617156Y-80283485D01*
X54607008Y-80231457D01*
X54592783Y-80192807D01*
X54573957Y-80164546D01*
X54557942Y-80149490D01*
X54517769Y-80129296D01*
X54456675Y-80113665D01*
X54378825Y-80103187D01*
X54288386Y-80098451D01*
X54203948Y-80099411D01*
G36*
X55134507Y-80114357D02*
G01*
X55039390Y-80138363D01*
X54949392Y-80181972D01*
X54877764Y-80236376D01*
X54832804Y-80290856D01*
X54792019Y-80365513D01*
X54757662Y-80455199D01*
X54731986Y-80554764D01*
X54727218Y-80580417D01*
X54720586Y-80626342D01*
X54719283Y-80664599D01*
X54723925Y-80704936D01*
X54735129Y-80757099D01*
X54739541Y-80775213D01*
X54767248Y-80864145D01*
X54803155Y-80932438D01*
X54851022Y-80984461D01*
X54914614Y-81024587D01*
X54976005Y-81049894D01*
X55044454Y-81066072D01*
X55126164Y-81073487D01*
X55210466Y-81071896D01*
X55286692Y-81061053D01*
X55301500Y-81057352D01*
X55405303Y-81017257D01*
X55492295Y-80959239D01*
X55561115Y-80884402D01*
X55601660Y-80814284D01*
X55631627Y-80719922D01*
X55638667Y-80645278D01*
X55250106Y-80645278D01*
X55247159Y-80692851D01*
X55245992Y-80698132D01*
X55227199Y-80737360D01*
X55197833Y-80762385D01*
X55164188Y-80770574D01*
X55132557Y-80759290D01*
X55122702Y-80749746D01*
X55112983Y-80724081D01*
X55107609Y-80680744D01*
X55106437Y-80627062D01*
X55109324Y-80570363D01*
X55116126Y-80517975D01*
X55126700Y-80477226D01*
X55128096Y-80473747D01*
X55148965Y-80439193D01*
X55171443Y-80429930D01*
X55195152Y-80445930D01*
X55216658Y-80480732D01*
X55233377Y-80528265D01*
X55245019Y-80586765D01*
X55250106Y-80645278D01*
X55638667Y-80645278D01*
X55641314Y-80617217D01*
X55631785Y-80511593D01*
X55604106Y-80408474D01*
X55559340Y-80313283D01*
X55498554Y-80231444D01*
X55484387Y-80216981D01*
X55409682Y-80161266D01*
X55323741Y-80125678D01*
X55230653Y-80110085D01*
X55134507Y-80114357D01*
X55134507Y-80114357D01*
G37*
X55134507Y-80114357D02*
X55039390Y-80138363D01*
X54949392Y-80181972D01*
X54877764Y-80236376D01*
X54832804Y-80290856D01*
X54792019Y-80365513D01*
X54757662Y-80455199D01*
X54731986Y-80554764D01*
X54727218Y-80580417D01*
X54720586Y-80626342D01*
X54719283Y-80664599D01*
X54723925Y-80704936D01*
X54735129Y-80757099D01*
X54739541Y-80775213D01*
X54767248Y-80864145D01*
X54803155Y-80932438D01*
X54851022Y-80984461D01*
X54914614Y-81024587D01*
X54976005Y-81049894D01*
X55044454Y-81066072D01*
X55126164Y-81073487D01*
X55210466Y-81071896D01*
X55286692Y-81061053D01*
X55301500Y-81057352D01*
X55405303Y-81017257D01*
X55492295Y-80959239D01*
X55561115Y-80884402D01*
X55601660Y-80814284D01*
X55631627Y-80719922D01*
X55638667Y-80645278D01*
X55250106Y-80645278D01*
X55247159Y-80692851D01*
X55245992Y-80698132D01*
X55227199Y-80737360D01*
X55197833Y-80762385D01*
X55164188Y-80770574D01*
X55132557Y-80759290D01*
X55122702Y-80749746D01*
X55112983Y-80724081D01*
X55107609Y-80680744D01*
X55106437Y-80627062D01*
X55109324Y-80570363D01*
X55116126Y-80517975D01*
X55126700Y-80477226D01*
X55128096Y-80473747D01*
X55148965Y-80439193D01*
X55171443Y-80429930D01*
X55195152Y-80445930D01*
X55216658Y-80480732D01*
X55233377Y-80528265D01*
X55245019Y-80586765D01*
X55250106Y-80645278D01*
X55638667Y-80645278D01*
X55641314Y-80617217D01*
X55631785Y-80511593D01*
X55604106Y-80408474D01*
X55559340Y-80313283D01*
X55498554Y-80231444D01*
X55484387Y-80216981D01*
X55409682Y-80161266D01*
X55323741Y-80125678D01*
X55230653Y-80110085D01*
X55134507Y-80114357D01*
G36*
X46057165Y-80103653D02*
G01*
X46007899Y-80107962D01*
X45974252Y-80116428D01*
X45955609Y-80127443D01*
X45935531Y-80156112D01*
X45928900Y-80182253D01*
X45938713Y-80229858D01*
X45968915Y-80265879D01*
X46020652Y-80291199D01*
X46089612Y-80305985D01*
X46132526Y-80314996D01*
X46156867Y-80331521D01*
X46167685Y-80361685D01*
X46170027Y-80403516D01*
X46162541Y-80434492D01*
X46140103Y-80445023D01*
X46113050Y-80438935D01*
X46069004Y-80429512D01*
X46015177Y-80428707D01*
X45963330Y-80435888D01*
X45927685Y-80448888D01*
X45901215Y-80470422D01*
X45891489Y-80499287D01*
X45890800Y-80515912D01*
X45896021Y-80554704D01*
X45908660Y-80586610D01*
X45909411Y-80587718D01*
X45945435Y-80620240D01*
X45997718Y-80643943D01*
X46057664Y-80655235D01*
X46072033Y-80655700D01*
X46107222Y-80656886D01*
X46124910Y-80664276D01*
X46132989Y-80683613D01*
X46136375Y-80702521D01*
X46138105Y-80743566D01*
X46124760Y-80768412D01*
X46092988Y-80780312D01*
X46053768Y-80782700D01*
X45999525Y-80790488D01*
X45959162Y-80811775D01*
X45936421Y-80843440D01*
X45934894Y-80881764D01*
X45962725Y-80943600D01*
X46011886Y-80996555D01*
X46079262Y-81038628D01*
X46161731Y-81067821D01*
X46246279Y-81081429D01*
X46287342Y-81083680D01*
X46318298Y-81083496D01*
X46328950Y-81081955D01*
X46349000Y-81076674D01*
X46382328Y-81070099D01*
X46390033Y-81068772D01*
X46445716Y-81047732D01*
X46496876Y-81007326D01*
X46537316Y-80953530D01*
X46556928Y-80907835D01*
X46571818Y-80838027D01*
X46581523Y-80750328D01*
X46585722Y-80651777D01*
X46584097Y-80549412D01*
X46577284Y-80458850D01*
X46566446Y-80366557D01*
X46555827Y-80295903D01*
X46544484Y-80243152D01*
X46531474Y-80204568D01*
X46515854Y-80176417D01*
X46501767Y-80159812D01*
X46485043Y-80145048D01*
X46466087Y-80134683D01*
X46439476Y-80127357D01*
X46399787Y-80121711D01*
X46341597Y-80116386D01*
X46322398Y-80114857D01*
X46212041Y-80107182D01*
X46124421Y-80103420D01*
X46057165Y-80103653D01*
X46057165Y-80103653D01*
G37*
X46057165Y-80103653D02*
X46007899Y-80107962D01*
X45974252Y-80116428D01*
X45955609Y-80127443D01*
X45935531Y-80156112D01*
X45928900Y-80182253D01*
X45938713Y-80229858D01*
X45968915Y-80265879D01*
X46020652Y-80291199D01*
X46089612Y-80305985D01*
X46132526Y-80314996D01*
X46156867Y-80331521D01*
X46167685Y-80361685D01*
X46170027Y-80403516D01*
X46162541Y-80434492D01*
X46140103Y-80445023D01*
X46113050Y-80438935D01*
X46069004Y-80429512D01*
X46015177Y-80428707D01*
X45963330Y-80435888D01*
X45927685Y-80448888D01*
X45901215Y-80470422D01*
X45891489Y-80499287D01*
X45890800Y-80515912D01*
X45896021Y-80554704D01*
X45908660Y-80586610D01*
X45909411Y-80587718D01*
X45945435Y-80620240D01*
X45997718Y-80643943D01*
X46057664Y-80655235D01*
X46072033Y-80655700D01*
X46107222Y-80656886D01*
X46124910Y-80664276D01*
X46132989Y-80683613D01*
X46136375Y-80702521D01*
X46138105Y-80743566D01*
X46124760Y-80768412D01*
X46092988Y-80780312D01*
X46053768Y-80782700D01*
X45999525Y-80790488D01*
X45959162Y-80811775D01*
X45936421Y-80843440D01*
X45934894Y-80881764D01*
X45962725Y-80943600D01*
X46011886Y-80996555D01*
X46079262Y-81038628D01*
X46161731Y-81067821D01*
X46246279Y-81081429D01*
X46287342Y-81083680D01*
X46318298Y-81083496D01*
X46328950Y-81081955D01*
X46349000Y-81076674D01*
X46382328Y-81070099D01*
X46390033Y-81068772D01*
X46445716Y-81047732D01*
X46496876Y-81007326D01*
X46537316Y-80953530D01*
X46556928Y-80907835D01*
X46571818Y-80838027D01*
X46581523Y-80750328D01*
X46585722Y-80651777D01*
X46584097Y-80549412D01*
X46577284Y-80458850D01*
X46566446Y-80366557D01*
X46555827Y-80295903D01*
X46544484Y-80243152D01*
X46531474Y-80204568D01*
X46515854Y-80176417D01*
X46501767Y-80159812D01*
X46485043Y-80145048D01*
X46466087Y-80134683D01*
X46439476Y-80127357D01*
X46399787Y-80121711D01*
X46341597Y-80116386D01*
X46322398Y-80114857D01*
X46212041Y-80107182D01*
X46124421Y-80103420D01*
X46057165Y-80103653D01*
G36*
X48737340Y-80112447D02*
G01*
X48704136Y-80130341D01*
X48666989Y-80162102D01*
X48654745Y-80174127D01*
X48592689Y-80236183D01*
X48599288Y-80417366D01*
X48604572Y-80516899D01*
X48613431Y-80599434D01*
X48627482Y-80673299D01*
X48648340Y-80746818D01*
X48677622Y-80828320D01*
X48680518Y-80835798D01*
X48724479Y-80926058D01*
X48778607Y-80993910D01*
X48845380Y-81041152D01*
X48927278Y-81069586D01*
X49017807Y-81080667D01*
X49072288Y-81082179D01*
X49121527Y-81081949D01*
X49156421Y-81080055D01*
X49161050Y-81079456D01*
X49222289Y-81065508D01*
X49288360Y-81043485D01*
X49347265Y-81017679D01*
X49370600Y-81004496D01*
X49427665Y-80960639D01*
X49470108Y-80908083D01*
X49499303Y-80852391D01*
X49518273Y-80790610D01*
X49529961Y-80710926D01*
X49534611Y-80619697D01*
X49532465Y-80523280D01*
X49523766Y-80428032D01*
X49508757Y-80340310D01*
X49487681Y-80266472D01*
X49475847Y-80238573D01*
X49440393Y-80192451D01*
X49387670Y-80156439D01*
X49325095Y-80134672D01*
X49281274Y-80130115D01*
X49226121Y-80137994D01*
X49176273Y-80159019D01*
X49138637Y-80189266D01*
X49120916Y-80221135D01*
X49120149Y-80245464D01*
X49123841Y-80289618D01*
X49131398Y-80348533D01*
X49142226Y-80417142D01*
X49147224Y-80445527D01*
X49161189Y-80526218D01*
X49169801Y-80585836D01*
X49173414Y-80628056D01*
X49172382Y-80656557D01*
X49168895Y-80670818D01*
X49143928Y-80708031D01*
X49108853Y-80725479D01*
X49069779Y-80722947D01*
X49032812Y-80700222D01*
X49013840Y-80676244D01*
X49000881Y-80648257D01*
X48993318Y-80612283D01*
X48990034Y-80561453D01*
X48989648Y-80527188D01*
X48987226Y-80459335D01*
X48980657Y-80386384D01*
X48970907Y-80314386D01*
X48958940Y-80249392D01*
X48945722Y-80197456D01*
X48932217Y-80164628D01*
X48931713Y-80163841D01*
X48891396Y-80124321D01*
X48836885Y-80103681D01*
X48775328Y-80103294D01*
X48737340Y-80112447D01*
X48737340Y-80112447D01*
G37*
X48737340Y-80112447D02*
X48704136Y-80130341D01*
X48666989Y-80162102D01*
X48654745Y-80174127D01*
X48592689Y-80236183D01*
X48599288Y-80417366D01*
X48604572Y-80516899D01*
X48613431Y-80599434D01*
X48627482Y-80673299D01*
X48648340Y-80746818D01*
X48677622Y-80828320D01*
X48680518Y-80835798D01*
X48724479Y-80926058D01*
X48778607Y-80993910D01*
X48845380Y-81041152D01*
X48927278Y-81069586D01*
X49017807Y-81080667D01*
X49072288Y-81082179D01*
X49121527Y-81081949D01*
X49156421Y-81080055D01*
X49161050Y-81079456D01*
X49222289Y-81065508D01*
X49288360Y-81043485D01*
X49347265Y-81017679D01*
X49370600Y-81004496D01*
X49427665Y-80960639D01*
X49470108Y-80908083D01*
X49499303Y-80852391D01*
X49518273Y-80790610D01*
X49529961Y-80710926D01*
X49534611Y-80619697D01*
X49532465Y-80523280D01*
X49523766Y-80428032D01*
X49508757Y-80340310D01*
X49487681Y-80266472D01*
X49475847Y-80238573D01*
X49440393Y-80192451D01*
X49387670Y-80156439D01*
X49325095Y-80134672D01*
X49281274Y-80130115D01*
X49226121Y-80137994D01*
X49176273Y-80159019D01*
X49138637Y-80189266D01*
X49120916Y-80221135D01*
X49120149Y-80245464D01*
X49123841Y-80289618D01*
X49131398Y-80348533D01*
X49142226Y-80417142D01*
X49147224Y-80445527D01*
X49161189Y-80526218D01*
X49169801Y-80585836D01*
X49173414Y-80628056D01*
X49172382Y-80656557D01*
X49168895Y-80670818D01*
X49143928Y-80708031D01*
X49108853Y-80725479D01*
X49069779Y-80722947D01*
X49032812Y-80700222D01*
X49013840Y-80676244D01*
X49000881Y-80648257D01*
X48993318Y-80612283D01*
X48990034Y-80561453D01*
X48989648Y-80527188D01*
X48987226Y-80459335D01*
X48980657Y-80386384D01*
X48970907Y-80314386D01*
X48958940Y-80249392D01*
X48945722Y-80197456D01*
X48932217Y-80164628D01*
X48931713Y-80163841D01*
X48891396Y-80124321D01*
X48836885Y-80103681D01*
X48775328Y-80103294D01*
X48737340Y-80112447D01*
G36*
X50973321Y-80088346D02*
G01*
X50888840Y-80104756D01*
X50813550Y-80136459D01*
X50751650Y-80183117D01*
X50714501Y-80231142D01*
X50700677Y-80257912D01*
X50699288Y-80278165D01*
X50710424Y-80304617D01*
X50715079Y-80313506D01*
X50742442Y-80349438D01*
X50778699Y-80379353D01*
X50783142Y-80381939D01*
X50816410Y-80397210D01*
X50844922Y-80399445D01*
X50879197Y-80391310D01*
X50917427Y-80374713D01*
X50938589Y-80350018D01*
X50943551Y-80338046D01*
X50963517Y-80309318D01*
X50991471Y-80299148D01*
X51019748Y-80306088D01*
X51040685Y-80328692D01*
X51047000Y-80357576D01*
X51041331Y-80380622D01*
X51022439Y-80405056D01*
X50987497Y-80433350D01*
X50933680Y-80467975D01*
X50894600Y-80490847D01*
X50808184Y-80543934D01*
X50743615Y-80592898D01*
X50698391Y-80640844D01*
X50670007Y-80690874D01*
X50655962Y-80746090D01*
X50653320Y-80789884D01*
X50663426Y-80863322D01*
X50694744Y-80924193D01*
X50748849Y-80975379D01*
X50758233Y-80981871D01*
X50864110Y-81038843D01*
X50974559Y-81072099D01*
X51086983Y-81081109D01*
X51184723Y-81068737D01*
X51276794Y-81042594D01*
X51345893Y-81010337D01*
X51394019Y-80970479D01*
X51423176Y-80921532D01*
X51432875Y-80884313D01*
X51435158Y-80831258D01*
X51421519Y-80796550D01*
X51391149Y-80779761D01*
X51343238Y-80780466D01*
X51276975Y-80798240D01*
X51272292Y-80799878D01*
X51204506Y-80818912D01*
X51152051Y-80823192D01*
X51116773Y-80812866D01*
X51100521Y-80788085D01*
X51100167Y-80785971D01*
X51101895Y-80769896D01*
X51114924Y-80754299D01*
X51143426Y-80735646D01*
X51186208Y-80713097D01*
X51281648Y-80656445D01*
X51353521Y-80594093D01*
X51403279Y-80524725D01*
X51410819Y-80509650D01*
X51435539Y-80430956D01*
X51435264Y-80355562D01*
X51410304Y-80284575D01*
X51360972Y-80219105D01*
X51319128Y-80182415D01*
X51239894Y-80134265D01*
X51153048Y-80102762D01*
X51062790Y-80087569D01*
X50973321Y-80088346D01*
X50973321Y-80088346D01*
G37*
X50973321Y-80088346D02*
X50888840Y-80104756D01*
X50813550Y-80136459D01*
X50751650Y-80183117D01*
X50714501Y-80231142D01*
X50700677Y-80257912D01*
X50699288Y-80278165D01*
X50710424Y-80304617D01*
X50715079Y-80313506D01*
X50742442Y-80349438D01*
X50778699Y-80379353D01*
X50783142Y-80381939D01*
X50816410Y-80397210D01*
X50844922Y-80399445D01*
X50879197Y-80391310D01*
X50917427Y-80374713D01*
X50938589Y-80350018D01*
X50943551Y-80338046D01*
X50963517Y-80309318D01*
X50991471Y-80299148D01*
X51019748Y-80306088D01*
X51040685Y-80328692D01*
X51047000Y-80357576D01*
X51041331Y-80380622D01*
X51022439Y-80405056D01*
X50987497Y-80433350D01*
X50933680Y-80467975D01*
X50894600Y-80490847D01*
X50808184Y-80543934D01*
X50743615Y-80592898D01*
X50698391Y-80640844D01*
X50670007Y-80690874D01*
X50655962Y-80746090D01*
X50653320Y-80789884D01*
X50663426Y-80863322D01*
X50694744Y-80924193D01*
X50748849Y-80975379D01*
X50758233Y-80981871D01*
X50864110Y-81038843D01*
X50974559Y-81072099D01*
X51086983Y-81081109D01*
X51184723Y-81068737D01*
X51276794Y-81042594D01*
X51345893Y-81010337D01*
X51394019Y-80970479D01*
X51423176Y-80921532D01*
X51432875Y-80884313D01*
X51435158Y-80831258D01*
X51421519Y-80796550D01*
X51391149Y-80779761D01*
X51343238Y-80780466D01*
X51276975Y-80798240D01*
X51272292Y-80799878D01*
X51204506Y-80818912D01*
X51152051Y-80823192D01*
X51116773Y-80812866D01*
X51100521Y-80788085D01*
X51100167Y-80785971D01*
X51101895Y-80769896D01*
X51114924Y-80754299D01*
X51143426Y-80735646D01*
X51186208Y-80713097D01*
X51281648Y-80656445D01*
X51353521Y-80594093D01*
X51403279Y-80524725D01*
X51410819Y-80509650D01*
X51435539Y-80430956D01*
X51435264Y-80355562D01*
X51410304Y-80284575D01*
X51360972Y-80219105D01*
X51319128Y-80182415D01*
X51239894Y-80134265D01*
X51153048Y-80102762D01*
X51062790Y-80087569D01*
X50973321Y-80088346D01*
G36*
X53162460Y-80103578D02*
G01*
X53136300Y-80106472D01*
X53136150Y-80106515D01*
X53094657Y-80129517D01*
X53073176Y-80165463D01*
X53074027Y-80209671D01*
X53078527Y-80222756D01*
X53102896Y-80259762D01*
X53142605Y-80285201D01*
X53201661Y-80301324D01*
X53224361Y-80304763D01*
X53269442Y-80313666D01*
X53294637Y-80329269D01*
X53305439Y-80357263D01*
X53307406Y-80390816D01*
X53301381Y-80428437D01*
X53284316Y-80445628D01*
X53258321Y-80440431D01*
X53255649Y-80438819D01*
X53233550Y-80432482D01*
X53195841Y-80428283D01*
X53166438Y-80427294D01*
X53101850Y-80434369D01*
X53057046Y-80455624D01*
X53032865Y-80490492D01*
X53028604Y-80520096D01*
X53033710Y-80555437D01*
X53044704Y-80581067D01*
X53086208Y-80617942D01*
X53142109Y-80644348D01*
X53202058Y-80655550D01*
X53207762Y-80655652D01*
X53243842Y-80656807D01*
X53262353Y-80663713D01*
X53271123Y-80681647D01*
X53275193Y-80701112D01*
X53277315Y-80742815D01*
X53262851Y-80768400D01*
X53229084Y-80780619D01*
X53194571Y-80782700D01*
X53136497Y-80789408D01*
X53099032Y-80810087D01*
X53081046Y-80845571D01*
X53079000Y-80867946D01*
X53090990Y-80920042D01*
X53124298Y-80968087D01*
X53174932Y-81010167D01*
X53238901Y-81044365D01*
X53312212Y-81068768D01*
X53390873Y-81081459D01*
X53470893Y-81080524D01*
X53509520Y-81074484D01*
X53574407Y-81053584D01*
X53626659Y-81019654D01*
X53666993Y-80970935D01*
X53696127Y-80905672D01*
X53714779Y-80822105D01*
X53723666Y-80718478D01*
X53723504Y-80593032D01*
X53721952Y-80554100D01*
X53713941Y-80431219D01*
X53702284Y-80331859D01*
X53686526Y-80254341D01*
X53666213Y-80196988D01*
X53640891Y-80158122D01*
X53610104Y-80136063D01*
X53608554Y-80135427D01*
X53581911Y-80129290D01*
X53535775Y-80123086D01*
X53475733Y-80117155D01*
X53407370Y-80111840D01*
X53336275Y-80107483D01*
X53268034Y-80104426D01*
X53208233Y-80103010D01*
X53162460Y-80103578D01*
X53162460Y-80103578D01*
G37*
X53162460Y-80103578D02*
X53136300Y-80106472D01*
X53136150Y-80106515D01*
X53094657Y-80129517D01*
X53073176Y-80165463D01*
X53074027Y-80209671D01*
X53078527Y-80222756D01*
X53102896Y-80259762D01*
X53142605Y-80285201D01*
X53201661Y-80301324D01*
X53224361Y-80304763D01*
X53269442Y-80313666D01*
X53294637Y-80329269D01*
X53305439Y-80357263D01*
X53307406Y-80390816D01*
X53301381Y-80428437D01*
X53284316Y-80445628D01*
X53258321Y-80440431D01*
X53255649Y-80438819D01*
X53233550Y-80432482D01*
X53195841Y-80428283D01*
X53166438Y-80427294D01*
X53101850Y-80434369D01*
X53057046Y-80455624D01*
X53032865Y-80490492D01*
X53028604Y-80520096D01*
X53033710Y-80555437D01*
X53044704Y-80581067D01*
X53086208Y-80617942D01*
X53142109Y-80644348D01*
X53202058Y-80655550D01*
X53207762Y-80655652D01*
X53243842Y-80656807D01*
X53262353Y-80663713D01*
X53271123Y-80681647D01*
X53275193Y-80701112D01*
X53277315Y-80742815D01*
X53262851Y-80768400D01*
X53229084Y-80780619D01*
X53194571Y-80782700D01*
X53136497Y-80789408D01*
X53099032Y-80810087D01*
X53081046Y-80845571D01*
X53079000Y-80867946D01*
X53090990Y-80920042D01*
X53124298Y-80968087D01*
X53174932Y-81010167D01*
X53238901Y-81044365D01*
X53312212Y-81068768D01*
X53390873Y-81081459D01*
X53470893Y-81080524D01*
X53509520Y-81074484D01*
X53574407Y-81053584D01*
X53626659Y-81019654D01*
X53666993Y-80970935D01*
X53696127Y-80905672D01*
X53714779Y-80822105D01*
X53723666Y-80718478D01*
X53723504Y-80593032D01*
X53721952Y-80554100D01*
X53713941Y-80431219D01*
X53702284Y-80331859D01*
X53686526Y-80254341D01*
X53666213Y-80196988D01*
X53640891Y-80158122D01*
X53610104Y-80136063D01*
X53608554Y-80135427D01*
X53581911Y-80129290D01*
X53535775Y-80123086D01*
X53475733Y-80117155D01*
X53407370Y-80111840D01*
X53336275Y-80107483D01*
X53268034Y-80104426D01*
X53208233Y-80103010D01*
X53162460Y-80103578D01*
G36*
X49735332Y-81590198D02*
G01*
X49671229Y-81613467D01*
X49621984Y-81654215D01*
X49590911Y-81701061D01*
X49576588Y-81742186D01*
X49564114Y-81804215D01*
X49553677Y-81882706D01*
X49545464Y-81973218D01*
X49539663Y-82071310D01*
X49536461Y-82172538D01*
X49536045Y-82272463D01*
X49538604Y-82366642D01*
X49544324Y-82450634D01*
X49553392Y-82519996D01*
X49555816Y-82532660D01*
X49580404Y-82622239D01*
X49613642Y-82697943D01*
X49653355Y-82755467D01*
X49681103Y-82780709D01*
X49704739Y-82794694D01*
X49732090Y-82803088D01*
X49770229Y-82807202D01*
X49826227Y-82808347D01*
X49830270Y-82808350D01*
X49883833Y-82807936D01*
X49919075Y-82805365D01*
X49943072Y-82798644D01*
X49962902Y-82785780D01*
X49985643Y-82764779D01*
X49985922Y-82764508D01*
X50027075Y-82716343D01*
X50074044Y-82646755D01*
X50125100Y-82558575D01*
X50178515Y-82454635D01*
X50191231Y-82428211D01*
X50214934Y-82380347D01*
X50230633Y-82353056D01*
X50237656Y-82347380D01*
X50236915Y-82357500D01*
X50233061Y-82389132D01*
X50230021Y-82438311D01*
X50228196Y-82497185D01*
X50227850Y-82535300D01*
X50228772Y-82600815D01*
X50232163Y-82647619D01*
X50238968Y-82682351D01*
X50250128Y-82711654D01*
X50253986Y-82719450D01*
X50293095Y-82769365D01*
X50348199Y-82804702D01*
X50413236Y-82823480D01*
X50482144Y-82823715D01*
X50532650Y-82810558D01*
X50584905Y-82786826D01*
X50620851Y-82760514D01*
X50649196Y-82724632D01*
X50658254Y-82709691D01*
X50677627Y-82671442D01*
X50692553Y-82629348D01*
X50703416Y-82579946D01*
X50710604Y-82519770D01*
X50714501Y-82445357D01*
X50715495Y-82353242D01*
X50713971Y-82239962D01*
X50713403Y-82214692D01*
X50709268Y-82088800D01*
X50702742Y-81985370D01*
X50692855Y-81901501D01*
X50678639Y-81834295D01*
X50659125Y-81780851D01*
X50633343Y-81738271D01*
X50600326Y-81703656D01*
X50559105Y-81674105D01*
X50526659Y-81655825D01*
X50450482Y-81627049D01*
X50374459Y-81618649D01*
X50303866Y-81630594D01*
X50251083Y-81657430D01*
X50217107Y-81687869D01*
X50179459Y-81730295D01*
X50151132Y-81768555D01*
X50127919Y-81807110D01*
X50101099Y-81857154D01*
X50073322Y-81913009D01*
X50047236Y-81969000D01*
X50025490Y-82019449D01*
X50010733Y-82058681D01*
X50005600Y-82080421D01*
X50001368Y-82089757D01*
X49998881Y-82088313D01*
X49997932Y-82073630D01*
X50001081Y-82040044D01*
X50007679Y-81993604D01*
X50011581Y-81970233D01*
X50026036Y-81866649D01*
X50030402Y-81780829D01*
X50024689Y-81714658D01*
X50009919Y-81671681D01*
X49968776Y-81626314D01*
X49909602Y-81596347D01*
X49835615Y-81583264D01*
X49817373Y-81582800D01*
X49735332Y-81590198D01*
X49735332Y-81590198D01*
G37*
X49735332Y-81590198D02*
X49671229Y-81613467D01*
X49621984Y-81654215D01*
X49590911Y-81701061D01*
X49576588Y-81742186D01*
X49564114Y-81804215D01*
X49553677Y-81882706D01*
X49545464Y-81973218D01*
X49539663Y-82071310D01*
X49536461Y-82172538D01*
X49536045Y-82272463D01*
X49538604Y-82366642D01*
X49544324Y-82450634D01*
X49553392Y-82519996D01*
X49555816Y-82532660D01*
X49580404Y-82622239D01*
X49613642Y-82697943D01*
X49653355Y-82755467D01*
X49681103Y-82780709D01*
X49704739Y-82794694D01*
X49732090Y-82803088D01*
X49770229Y-82807202D01*
X49826227Y-82808347D01*
X49830270Y-82808350D01*
X49883833Y-82807936D01*
X49919075Y-82805365D01*
X49943072Y-82798644D01*
X49962902Y-82785780D01*
X49985643Y-82764779D01*
X49985922Y-82764508D01*
X50027075Y-82716343D01*
X50074044Y-82646755D01*
X50125100Y-82558575D01*
X50178515Y-82454635D01*
X50191231Y-82428211D01*
X50214934Y-82380347D01*
X50230633Y-82353056D01*
X50237656Y-82347380D01*
X50236915Y-82357500D01*
X50233061Y-82389132D01*
X50230021Y-82438311D01*
X50228196Y-82497185D01*
X50227850Y-82535300D01*
X50228772Y-82600815D01*
X50232163Y-82647619D01*
X50238968Y-82682351D01*
X50250128Y-82711654D01*
X50253986Y-82719450D01*
X50293095Y-82769365D01*
X50348199Y-82804702D01*
X50413236Y-82823480D01*
X50482144Y-82823715D01*
X50532650Y-82810558D01*
X50584905Y-82786826D01*
X50620851Y-82760514D01*
X50649196Y-82724632D01*
X50658254Y-82709691D01*
X50677627Y-82671442D01*
X50692553Y-82629348D01*
X50703416Y-82579946D01*
X50710604Y-82519770D01*
X50714501Y-82445357D01*
X50715495Y-82353242D01*
X50713971Y-82239962D01*
X50713403Y-82214692D01*
X50709268Y-82088800D01*
X50702742Y-81985370D01*
X50692855Y-81901501D01*
X50678639Y-81834295D01*
X50659125Y-81780851D01*
X50633343Y-81738271D01*
X50600326Y-81703656D01*
X50559105Y-81674105D01*
X50526659Y-81655825D01*
X50450482Y-81627049D01*
X50374459Y-81618649D01*
X50303866Y-81630594D01*
X50251083Y-81657430D01*
X50217107Y-81687869D01*
X50179459Y-81730295D01*
X50151132Y-81768555D01*
X50127919Y-81807110D01*
X50101099Y-81857154D01*
X50073322Y-81913009D01*
X50047236Y-81969000D01*
X50025490Y-82019449D01*
X50010733Y-82058681D01*
X50005600Y-82080421D01*
X50001368Y-82089757D01*
X49998881Y-82088313D01*
X49997932Y-82073630D01*
X50001081Y-82040044D01*
X50007679Y-81993604D01*
X50011581Y-81970233D01*
X50026036Y-81866649D01*
X50030402Y-81780829D01*
X50024689Y-81714658D01*
X50009919Y-81671681D01*
X49968776Y-81626314D01*
X49909602Y-81596347D01*
X49835615Y-81583264D01*
X49817373Y-81582800D01*
X49735332Y-81590198D01*
G36*
X52615048Y-81562759D02*
G01*
X52517711Y-81580267D01*
X52428121Y-81611890D01*
X52349358Y-81655664D01*
X52284503Y-81709626D01*
X52236638Y-81771814D01*
X52208842Y-81840264D01*
X52202979Y-81888896D01*
X52214293Y-81942905D01*
X52246102Y-81996427D01*
X52294255Y-82042830D01*
X52303306Y-82049222D01*
X52358622Y-82072352D01*
X52423129Y-82077576D01*
X52490166Y-82066701D01*
X52553075Y-82041533D01*
X52605195Y-82003879D01*
X52638615Y-81958263D01*
X52654240Y-81928677D01*
X52665743Y-81919106D01*
X52678161Y-81925873D01*
X52680229Y-81927886D01*
X52687487Y-81941223D01*
X52693329Y-81967108D01*
X52698075Y-82008565D01*
X52702048Y-82068621D01*
X52705569Y-82150304D01*
X52706406Y-82174143D01*
X52709024Y-82255583D01*
X52710356Y-82315458D01*
X52710135Y-82357586D01*
X52708092Y-82385782D01*
X52703958Y-82403861D01*
X52697466Y-82415639D01*
X52688792Y-82424535D01*
X52670363Y-82436208D01*
X52648330Y-82438453D01*
X52618893Y-82429961D01*
X52578255Y-82409419D01*
X52522615Y-82375516D01*
X52494800Y-82357591D01*
X52447835Y-82328514D01*
X52405077Y-82304654D01*
X52373609Y-82289875D01*
X52366331Y-82287503D01*
X52314387Y-82286140D01*
X52259063Y-82302408D01*
X52210788Y-82332620D01*
X52195804Y-82347765D01*
X52178342Y-82370551D01*
X52168679Y-82392084D01*
X52165172Y-82420239D01*
X52166178Y-82462890D01*
X52167373Y-82484051D01*
X52181855Y-82578306D01*
X52213957Y-82655063D01*
X52265260Y-82716413D01*
X52337342Y-82764447D01*
X52398881Y-82790517D01*
X52453395Y-82804664D01*
X52523038Y-82815295D01*
X52600589Y-82822079D01*
X52678829Y-82824686D01*
X52750538Y-82822783D01*
X52808498Y-82816042D01*
X52831350Y-82810335D01*
X52938977Y-82761841D01*
X53031678Y-82693766D01*
X53107595Y-82608311D01*
X53164870Y-82507678D01*
X53201644Y-82394066D01*
X53207175Y-82365332D01*
X53215517Y-82259341D01*
X53208180Y-82134574D01*
X53185233Y-81992185D01*
X53184834Y-81990234D01*
X53150255Y-81869569D01*
X53099963Y-81768845D01*
X53033841Y-81687955D01*
X52951774Y-81626793D01*
X52853646Y-81585253D01*
X52739340Y-81563228D01*
X52717050Y-81561328D01*
X52615048Y-81562759D01*
X52615048Y-81562759D01*
G37*
X52615048Y-81562759D02*
X52517711Y-81580267D01*
X52428121Y-81611890D01*
X52349358Y-81655664D01*
X52284503Y-81709626D01*
X52236638Y-81771814D01*
X52208842Y-81840264D01*
X52202979Y-81888896D01*
X52214293Y-81942905D01*
X52246102Y-81996427D01*
X52294255Y-82042830D01*
X52303306Y-82049222D01*
X52358622Y-82072352D01*
X52423129Y-82077576D01*
X52490166Y-82066701D01*
X52553075Y-82041533D01*
X52605195Y-82003879D01*
X52638615Y-81958263D01*
X52654240Y-81928677D01*
X52665743Y-81919106D01*
X52678161Y-81925873D01*
X52680229Y-81927886D01*
X52687487Y-81941223D01*
X52693329Y-81967108D01*
X52698075Y-82008565D01*
X52702048Y-82068621D01*
X52705569Y-82150304D01*
X52706406Y-82174143D01*
X52709024Y-82255583D01*
X52710356Y-82315458D01*
X52710135Y-82357586D01*
X52708092Y-82385782D01*
X52703958Y-82403861D01*
X52697466Y-82415639D01*
X52688792Y-82424535D01*
X52670363Y-82436208D01*
X52648330Y-82438453D01*
X52618893Y-82429961D01*
X52578255Y-82409419D01*
X52522615Y-82375516D01*
X52494800Y-82357591D01*
X52447835Y-82328514D01*
X52405077Y-82304654D01*
X52373609Y-82289875D01*
X52366331Y-82287503D01*
X52314387Y-82286140D01*
X52259063Y-82302408D01*
X52210788Y-82332620D01*
X52195804Y-82347765D01*
X52178342Y-82370551D01*
X52168679Y-82392084D01*
X52165172Y-82420239D01*
X52166178Y-82462890D01*
X52167373Y-82484051D01*
X52181855Y-82578306D01*
X52213957Y-82655063D01*
X52265260Y-82716413D01*
X52337342Y-82764447D01*
X52398881Y-82790517D01*
X52453395Y-82804664D01*
X52523038Y-82815295D01*
X52600589Y-82822079D01*
X52678829Y-82824686D01*
X52750538Y-82822783D01*
X52808498Y-82816042D01*
X52831350Y-82810335D01*
X52938977Y-82761841D01*
X53031678Y-82693766D01*
X53107595Y-82608311D01*
X53164870Y-82507678D01*
X53201644Y-82394066D01*
X53207175Y-82365332D01*
X53215517Y-82259341D01*
X53208180Y-82134574D01*
X53185233Y-81992185D01*
X53184834Y-81990234D01*
X53150255Y-81869569D01*
X53099963Y-81768845D01*
X53033841Y-81687955D01*
X52951774Y-81626793D01*
X52853646Y-81585253D01*
X52739340Y-81563228D01*
X52717050Y-81561328D01*
X52615048Y-81562759D01*
G36*
X55030767Y-81571552D02*
G01*
X54955122Y-81589322D01*
X54942315Y-81594012D01*
X54846478Y-81643167D01*
X54767053Y-81707404D01*
X54724643Y-81757966D01*
X54693048Y-81821801D01*
X54684026Y-81886502D01*
X54695451Y-81947916D01*
X54725200Y-82001891D01*
X54771151Y-82044275D01*
X54831178Y-82070914D01*
X54888351Y-82078100D01*
X54957141Y-82069194D01*
X55022134Y-82044861D01*
X55076481Y-82008672D01*
X55113331Y-81964201D01*
X55115763Y-81959491D01*
X55132528Y-81930622D01*
X55146359Y-81920205D01*
X55157754Y-81929503D01*
X55167214Y-81959776D01*
X55175240Y-82012288D01*
X55182330Y-82088299D01*
X55185716Y-82136047D01*
X55190927Y-82238495D01*
X55191199Y-82317826D01*
X55186107Y-82375916D01*
X55175225Y-82414644D01*
X55158130Y-82435886D01*
X55134397Y-82441521D01*
X55117350Y-82438356D01*
X55095640Y-82428419D01*
X55059075Y-82408158D01*
X55014035Y-82381184D01*
X54992809Y-82367885D01*
X54944055Y-82338078D01*
X54898890Y-82312517D01*
X54864643Y-82295277D01*
X54855635Y-82291620D01*
X54807760Y-82286173D01*
X54753346Y-82296501D01*
X54703033Y-82319670D01*
X54676925Y-82340906D01*
X54661513Y-82360692D01*
X54652587Y-82383978D01*
X54648480Y-82418071D01*
X54647521Y-82469682D01*
X54655639Y-82560773D01*
X54681081Y-82635855D01*
X54725693Y-82697475D01*
X54791325Y-82748179D01*
X54879822Y-82790512D01*
X54880561Y-82790798D01*
X54944015Y-82808261D01*
X55023519Y-82819758D01*
X55110770Y-82825052D01*
X55197469Y-82823905D01*
X55275312Y-82816080D01*
X55329386Y-82803650D01*
X55427885Y-82758152D01*
X55514806Y-82691999D01*
X55587514Y-82608309D01*
X55643376Y-82510201D01*
X55679760Y-82400793D01*
X55683144Y-82384781D01*
X55691845Y-82307383D01*
X55691919Y-82213659D01*
X55683727Y-82111042D01*
X55667626Y-82006964D01*
X55664032Y-81989200D01*
X55628967Y-81870219D01*
X55577867Y-81768998D01*
X55511556Y-81686643D01*
X55430858Y-81624264D01*
X55370708Y-81594806D01*
X55298149Y-81574876D01*
X55211296Y-81564346D01*
X55119164Y-81563232D01*
X55030767Y-81571552D01*
X55030767Y-81571552D01*
G37*
X55030767Y-81571552D02*
X54955122Y-81589322D01*
X54942315Y-81594012D01*
X54846478Y-81643167D01*
X54767053Y-81707404D01*
X54724643Y-81757966D01*
X54693048Y-81821801D01*
X54684026Y-81886502D01*
X54695451Y-81947916D01*
X54725200Y-82001891D01*
X54771151Y-82044275D01*
X54831178Y-82070914D01*
X54888351Y-82078100D01*
X54957141Y-82069194D01*
X55022134Y-82044861D01*
X55076481Y-82008672D01*
X55113331Y-81964201D01*
X55115763Y-81959491D01*
X55132528Y-81930622D01*
X55146359Y-81920205D01*
X55157754Y-81929503D01*
X55167214Y-81959776D01*
X55175240Y-82012288D01*
X55182330Y-82088299D01*
X55185716Y-82136047D01*
X55190927Y-82238495D01*
X55191199Y-82317826D01*
X55186107Y-82375916D01*
X55175225Y-82414644D01*
X55158130Y-82435886D01*
X55134397Y-82441521D01*
X55117350Y-82438356D01*
X55095640Y-82428419D01*
X55059075Y-82408158D01*
X55014035Y-82381184D01*
X54992809Y-82367885D01*
X54944055Y-82338078D01*
X54898890Y-82312517D01*
X54864643Y-82295277D01*
X54855635Y-82291620D01*
X54807760Y-82286173D01*
X54753346Y-82296501D01*
X54703033Y-82319670D01*
X54676925Y-82340906D01*
X54661513Y-82360692D01*
X54652587Y-82383978D01*
X54648480Y-82418071D01*
X54647521Y-82469682D01*
X54655639Y-82560773D01*
X54681081Y-82635855D01*
X54725693Y-82697475D01*
X54791325Y-82748179D01*
X54879822Y-82790512D01*
X54880561Y-82790798D01*
X54944015Y-82808261D01*
X55023519Y-82819758D01*
X55110770Y-82825052D01*
X55197469Y-82823905D01*
X55275312Y-82816080D01*
X55329386Y-82803650D01*
X55427885Y-82758152D01*
X55514806Y-82691999D01*
X55587514Y-82608309D01*
X55643376Y-82510201D01*
X55679760Y-82400793D01*
X55683144Y-82384781D01*
X55691845Y-82307383D01*
X55691919Y-82213659D01*
X55683727Y-82111042D01*
X55667626Y-82006964D01*
X55664032Y-81989200D01*
X55628967Y-81870219D01*
X55577867Y-81768998D01*
X55511556Y-81686643D01*
X55430858Y-81624264D01*
X55370708Y-81594806D01*
X55298149Y-81574876D01*
X55211296Y-81564346D01*
X55119164Y-81563232D01*
X55030767Y-81571552D01*
G36*
X46264334Y-81560936D02*
G01*
X46181185Y-81569606D01*
X46111188Y-81586087D01*
X46109182Y-81586773D01*
X46048027Y-81614257D01*
X45991202Y-81651146D01*
X45942641Y-81693523D01*
X45906279Y-81737473D01*
X45886051Y-81779077D01*
X45884632Y-81810296D01*
X45904766Y-81854159D01*
X45939421Y-81898541D01*
X45980594Y-81934614D01*
X46012667Y-81951501D01*
X46061982Y-81960006D01*
X46111176Y-81955747D01*
X46154007Y-81940884D01*
X46184230Y-81917580D01*
X46195600Y-81888171D01*
X46206634Y-81857430D01*
X46236741Y-81839713D01*
X46260733Y-81836800D01*
X46301292Y-81846884D01*
X46326743Y-81873224D01*
X46334454Y-81909950D01*
X46321791Y-81951193D01*
X46316080Y-81960189D01*
X46297950Y-81976711D01*
X46262411Y-82001901D01*
X46214451Y-82032444D01*
X46159058Y-82065026D01*
X46154155Y-82067790D01*
X46058803Y-82126289D01*
X45977253Y-82186313D01*
X45912094Y-82245511D01*
X45865914Y-82301532D01*
X45841345Y-82351875D01*
X45829352Y-82420060D01*
X45828241Y-82491603D01*
X45837595Y-82556864D01*
X45851952Y-82597333D01*
X45900028Y-82664060D01*
X45972116Y-82723030D01*
X46067998Y-82774095D01*
X46174713Y-82813253D01*
X46284113Y-82835016D01*
X46403958Y-82837182D01*
X46525800Y-82820204D01*
X46601768Y-82798918D01*
X46672638Y-82770196D01*
X46732723Y-82736965D01*
X46776335Y-82702151D01*
X46791026Y-82683735D01*
X46820198Y-82621996D01*
X46831852Y-82562831D01*
X46826287Y-82510708D01*
X46803803Y-82470098D01*
X46775326Y-82449565D01*
X46755374Y-82443145D01*
X46732360Y-82443297D01*
X46699952Y-82451069D01*
X46651814Y-82467511D01*
X46639291Y-82472098D01*
X46556236Y-82498342D01*
X46491368Y-82508782D01*
X46443063Y-82503508D01*
X46411789Y-82484788D01*
X46395583Y-82460554D01*
X46393577Y-82441693D01*
X46406939Y-82429145D01*
X46438369Y-82408000D01*
X46483271Y-82381135D01*
X46537053Y-82351430D01*
X46541009Y-82349330D01*
X46622741Y-82303091D01*
X46684997Y-82259896D01*
X46732559Y-82215257D01*
X46770209Y-82164686D01*
X46802721Y-82103710D01*
X46828413Y-82025444D01*
X46836128Y-81944338D01*
X46825614Y-81868234D01*
X46811536Y-81830450D01*
X46765065Y-81760399D01*
X46698212Y-81695889D01*
X46615896Y-81640258D01*
X46523040Y-81596844D01*
X46426712Y-81569398D01*
X46349790Y-81560669D01*
X46264334Y-81560936D01*
X46264334Y-81560936D01*
G37*
X46264334Y-81560936D02*
X46181185Y-81569606D01*
X46111188Y-81586087D01*
X46109182Y-81586773D01*
X46048027Y-81614257D01*
X45991202Y-81651146D01*
X45942641Y-81693523D01*
X45906279Y-81737473D01*
X45886051Y-81779077D01*
X45884632Y-81810296D01*
X45904766Y-81854159D01*
X45939421Y-81898541D01*
X45980594Y-81934614D01*
X46012667Y-81951501D01*
X46061982Y-81960006D01*
X46111176Y-81955747D01*
X46154007Y-81940884D01*
X46184230Y-81917580D01*
X46195600Y-81888171D01*
X46206634Y-81857430D01*
X46236741Y-81839713D01*
X46260733Y-81836800D01*
X46301292Y-81846884D01*
X46326743Y-81873224D01*
X46334454Y-81909950D01*
X46321791Y-81951193D01*
X46316080Y-81960189D01*
X46297950Y-81976711D01*
X46262411Y-82001901D01*
X46214451Y-82032444D01*
X46159058Y-82065026D01*
X46154155Y-82067790D01*
X46058803Y-82126289D01*
X45977253Y-82186313D01*
X45912094Y-82245511D01*
X45865914Y-82301532D01*
X45841345Y-82351875D01*
X45829352Y-82420060D01*
X45828241Y-82491603D01*
X45837595Y-82556864D01*
X45851952Y-82597333D01*
X45900028Y-82664060D01*
X45972116Y-82723030D01*
X46067998Y-82774095D01*
X46174713Y-82813253D01*
X46284113Y-82835016D01*
X46403958Y-82837182D01*
X46525800Y-82820204D01*
X46601768Y-82798918D01*
X46672638Y-82770196D01*
X46732723Y-82736965D01*
X46776335Y-82702151D01*
X46791026Y-82683735D01*
X46820198Y-82621996D01*
X46831852Y-82562831D01*
X46826287Y-82510708D01*
X46803803Y-82470098D01*
X46775326Y-82449565D01*
X46755374Y-82443145D01*
X46732360Y-82443297D01*
X46699952Y-82451069D01*
X46651814Y-82467511D01*
X46639291Y-82472098D01*
X46556236Y-82498342D01*
X46491368Y-82508782D01*
X46443063Y-82503508D01*
X46411789Y-82484788D01*
X46395583Y-82460554D01*
X46393577Y-82441693D01*
X46406939Y-82429145D01*
X46438369Y-82408000D01*
X46483271Y-82381135D01*
X46537053Y-82351430D01*
X46541009Y-82349330D01*
X46622741Y-82303091D01*
X46684997Y-82259896D01*
X46732559Y-82215257D01*
X46770209Y-82164686D01*
X46802721Y-82103710D01*
X46828413Y-82025444D01*
X46836128Y-81944338D01*
X46825614Y-81868234D01*
X46811536Y-81830450D01*
X46765065Y-81760399D01*
X46698212Y-81695889D01*
X46615896Y-81640258D01*
X46523040Y-81596844D01*
X46426712Y-81569398D01*
X46349790Y-81560669D01*
X46264334Y-81560936D01*
G36*
X47465600Y-81586497D02*
G01*
X47383359Y-81589895D01*
X47319972Y-81594292D01*
X47268897Y-81600570D01*
X47223589Y-81609608D01*
X47177503Y-81622287D01*
X47160800Y-81627486D01*
X47089979Y-81651002D01*
X47039135Y-81670918D01*
X47003605Y-81689788D01*
X46978723Y-81710165D01*
X46959824Y-81734603D01*
X46957086Y-81738991D01*
X46940399Y-81782287D01*
X46932676Y-81835941D01*
X46934586Y-81888669D01*
X46945923Y-81927610D01*
X46966440Y-81950644D01*
X47002800Y-81969657D01*
X47058018Y-81985750D01*
X47135108Y-82000025D01*
X47150464Y-82002330D01*
X47201721Y-82010510D01*
X47243735Y-82018493D01*
X47269845Y-82024963D01*
X47274294Y-82026801D01*
X47278246Y-82041065D01*
X47277395Y-82076719D01*
X47271653Y-82134790D01*
X47260937Y-82216300D01*
X47255097Y-82256652D01*
X47243044Y-82340738D01*
X47234949Y-82405076D01*
X47230497Y-82454957D01*
X47229372Y-82495671D01*
X47231259Y-82532508D01*
X47235844Y-82570758D01*
X47236225Y-82573400D01*
X47255498Y-82661416D01*
X47284748Y-82734527D01*
X47322155Y-82788701D01*
X47341327Y-82805949D01*
X47382961Y-82824780D01*
X47441005Y-82834677D01*
X47507839Y-82834927D01*
X47566114Y-82826971D01*
X47641713Y-82801461D01*
X47698969Y-82759590D01*
X47738712Y-82700283D01*
X47761774Y-82622464D01*
X47767993Y-82565657D01*
X47768751Y-82524563D01*
X47767792Y-82466713D01*
X47765411Y-82397350D01*
X47761908Y-82321717D01*
X47757578Y-82245058D01*
X47752718Y-82172615D01*
X47747627Y-82109633D01*
X47742601Y-82061354D01*
X47737938Y-82033021D01*
X47737770Y-82032402D01*
X47735860Y-82018104D01*
X47743360Y-82009192D01*
X47765294Y-82003445D01*
X47806687Y-81998638D01*
X47816111Y-81997746D01*
X47894413Y-81983567D01*
X47963600Y-81957906D01*
X48017623Y-81923432D01*
X48041012Y-81898575D01*
X48057970Y-81864241D01*
X48069932Y-81820525D01*
X48071607Y-81809091D01*
X48067567Y-81754491D01*
X48041412Y-81708731D01*
X47992180Y-81670632D01*
X47938148Y-81645854D01*
X47852381Y-81617973D01*
X47764319Y-81599007D01*
X47667946Y-81588200D01*
X47557250Y-81584797D01*
X47465600Y-81586497D01*
X47465600Y-81586497D01*
G37*
X47465600Y-81586497D02*
X47383359Y-81589895D01*
X47319972Y-81594292D01*
X47268897Y-81600570D01*
X47223589Y-81609608D01*
X47177503Y-81622287D01*
X47160800Y-81627486D01*
X47089979Y-81651002D01*
X47039135Y-81670918D01*
X47003605Y-81689788D01*
X46978723Y-81710165D01*
X46959824Y-81734603D01*
X46957086Y-81738991D01*
X46940399Y-81782287D01*
X46932676Y-81835941D01*
X46934586Y-81888669D01*
X46945923Y-81927610D01*
X46966440Y-81950644D01*
X47002800Y-81969657D01*
X47058018Y-81985750D01*
X47135108Y-82000025D01*
X47150464Y-82002330D01*
X47201721Y-82010510D01*
X47243735Y-82018493D01*
X47269845Y-82024963D01*
X47274294Y-82026801D01*
X47278246Y-82041065D01*
X47277395Y-82076719D01*
X47271653Y-82134790D01*
X47260937Y-82216300D01*
X47255097Y-82256652D01*
X47243044Y-82340738D01*
X47234949Y-82405076D01*
X47230497Y-82454957D01*
X47229372Y-82495671D01*
X47231259Y-82532508D01*
X47235844Y-82570758D01*
X47236225Y-82573400D01*
X47255498Y-82661416D01*
X47284748Y-82734527D01*
X47322155Y-82788701D01*
X47341327Y-82805949D01*
X47382961Y-82824780D01*
X47441005Y-82834677D01*
X47507839Y-82834927D01*
X47566114Y-82826971D01*
X47641713Y-82801461D01*
X47698969Y-82759590D01*
X47738712Y-82700283D01*
X47761774Y-82622464D01*
X47767993Y-82565657D01*
X47768751Y-82524563D01*
X47767792Y-82466713D01*
X47765411Y-82397350D01*
X47761908Y-82321717D01*
X47757578Y-82245058D01*
X47752718Y-82172615D01*
X47747627Y-82109633D01*
X47742601Y-82061354D01*
X47737938Y-82033021D01*
X47737770Y-82032402D01*
X47735860Y-82018104D01*
X47743360Y-82009192D01*
X47765294Y-82003445D01*
X47806687Y-81998638D01*
X47816111Y-81997746D01*
X47894413Y-81983567D01*
X47963600Y-81957906D01*
X48017623Y-81923432D01*
X48041012Y-81898575D01*
X48057970Y-81864241D01*
X48069932Y-81820525D01*
X48071607Y-81809091D01*
X48067567Y-81754491D01*
X48041412Y-81708731D01*
X47992180Y-81670632D01*
X47938148Y-81645854D01*
X47852381Y-81617973D01*
X47764319Y-81599007D01*
X47667946Y-81588200D01*
X47557250Y-81584797D01*
X47465600Y-81586497D01*
G36*
X48399021Y-81583205D02*
G01*
X48339522Y-81602533D01*
X48287214Y-81636618D01*
X48237356Y-81682098D01*
X48199439Y-81729985D01*
X48192922Y-81741312D01*
X48183377Y-81774365D01*
X48177067Y-81827289D01*
X48173971Y-81894767D01*
X48174068Y-81971479D01*
X48177338Y-82052105D01*
X48183761Y-82131328D01*
X48193317Y-82203828D01*
X48194722Y-82212104D01*
X48213728Y-82301412D01*
X48239675Y-82396216D01*
X48269776Y-82487640D01*
X48301243Y-82566805D01*
X48315525Y-82596887D01*
X48367857Y-82675803D01*
X48437446Y-82746281D01*
X48509688Y-82796461D01*
X48538898Y-82811808D01*
X48565015Y-82822339D01*
X48593948Y-82829071D01*
X48631607Y-82833020D01*
X48683903Y-82835202D01*
X48741950Y-82836386D01*
X48847523Y-82835740D01*
X48929680Y-82829752D01*
X48981434Y-82820576D01*
X49095794Y-82781123D01*
X49192361Y-82724893D01*
X49270136Y-82652845D01*
X49328121Y-82565936D01*
X49365315Y-82465123D01*
X49369021Y-82448949D01*
X49379830Y-82370784D01*
X49384073Y-82275388D01*
X49382225Y-82169938D01*
X49374758Y-82061610D01*
X49362147Y-81957579D01*
X49344866Y-81865019D01*
X49326079Y-81798497D01*
X49289063Y-81727802D01*
X49236132Y-81672945D01*
X49171705Y-81635205D01*
X49100201Y-81615862D01*
X49026039Y-81616195D01*
X48953637Y-81637484D01*
X48895700Y-81673897D01*
X48868221Y-81699100D01*
X48854682Y-81722542D01*
X48850265Y-81755128D01*
X48849970Y-81777399D01*
X48852500Y-81815413D01*
X48859347Y-81870934D01*
X48869479Y-81936638D01*
X48881866Y-82005201D01*
X48882463Y-82008250D01*
X48895105Y-82077967D01*
X48905670Y-82146329D01*
X48913067Y-82205558D01*
X48916201Y-82247877D01*
X48916211Y-82248427D01*
X48915607Y-82292630D01*
X48909968Y-82320405D01*
X48896481Y-82340624D01*
X48883010Y-82353202D01*
X48837425Y-82378097D01*
X48789153Y-82379794D01*
X48751054Y-82363079D01*
X48722890Y-82337764D01*
X48703571Y-82304978D01*
X48691719Y-82260022D01*
X48685956Y-82198197D01*
X48684800Y-82137142D01*
X48682499Y-82068036D01*
X48676169Y-81990113D01*
X48666674Y-81909154D01*
X48654879Y-81830939D01*
X48641644Y-81761247D01*
X48627835Y-81705858D01*
X48615420Y-81672607D01*
X48578785Y-81627630D01*
X48526301Y-81596669D01*
X48464276Y-81581327D01*
X48399021Y-81583205D01*
X48399021Y-81583205D01*
G37*
X48399021Y-81583205D02*
X48339522Y-81602533D01*
X48287214Y-81636618D01*
X48237356Y-81682098D01*
X48199439Y-81729985D01*
X48192922Y-81741312D01*
X48183377Y-81774365D01*
X48177067Y-81827289D01*
X48173971Y-81894767D01*
X48174068Y-81971479D01*
X48177338Y-82052105D01*
X48183761Y-82131328D01*
X48193317Y-82203828D01*
X48194722Y-82212104D01*
X48213728Y-82301412D01*
X48239675Y-82396216D01*
X48269776Y-82487640D01*
X48301243Y-82566805D01*
X48315525Y-82596887D01*
X48367857Y-82675803D01*
X48437446Y-82746281D01*
X48509688Y-82796461D01*
X48538898Y-82811808D01*
X48565015Y-82822339D01*
X48593948Y-82829071D01*
X48631607Y-82833020D01*
X48683903Y-82835202D01*
X48741950Y-82836386D01*
X48847523Y-82835740D01*
X48929680Y-82829752D01*
X48981434Y-82820576D01*
X49095794Y-82781123D01*
X49192361Y-82724893D01*
X49270136Y-82652845D01*
X49328121Y-82565936D01*
X49365315Y-82465123D01*
X49369021Y-82448949D01*
X49379830Y-82370784D01*
X49384073Y-82275388D01*
X49382225Y-82169938D01*
X49374758Y-82061610D01*
X49362147Y-81957579D01*
X49344866Y-81865019D01*
X49326079Y-81798497D01*
X49289063Y-81727802D01*
X49236132Y-81672945D01*
X49171705Y-81635205D01*
X49100201Y-81615862D01*
X49026039Y-81616195D01*
X48953637Y-81637484D01*
X48895700Y-81673897D01*
X48868221Y-81699100D01*
X48854682Y-81722542D01*
X48850265Y-81755128D01*
X48849970Y-81777399D01*
X48852500Y-81815413D01*
X48859347Y-81870934D01*
X48869479Y-81936638D01*
X48881866Y-82005201D01*
X48882463Y-82008250D01*
X48895105Y-82077967D01*
X48905670Y-82146329D01*
X48913067Y-82205558D01*
X48916201Y-82247877D01*
X48916211Y-82248427D01*
X48915607Y-82292630D01*
X48909968Y-82320405D01*
X48896481Y-82340624D01*
X48883010Y-82353202D01*
X48837425Y-82378097D01*
X48789153Y-82379794D01*
X48751054Y-82363079D01*
X48722890Y-82337764D01*
X48703571Y-82304978D01*
X48691719Y-82260022D01*
X48685956Y-82198197D01*
X48684800Y-82137142D01*
X48682499Y-82068036D01*
X48676169Y-81990113D01*
X48666674Y-81909154D01*
X48654879Y-81830939D01*
X48641644Y-81761247D01*
X48627835Y-81705858D01*
X48615420Y-81672607D01*
X48578785Y-81627630D01*
X48526301Y-81596669D01*
X48464276Y-81581327D01*
X48399021Y-81583205D01*
G36*
X51365712Y-81596839D02*
G01*
X51248408Y-81633331D01*
X51131513Y-81694542D01*
X51114649Y-81705467D01*
X51059231Y-81749507D01*
X51012411Y-81803965D01*
X50971467Y-81873072D01*
X50933674Y-81961057D01*
X50913726Y-82017582D01*
X50879738Y-82135483D01*
X50862118Y-82240233D01*
X50860823Y-82338069D01*
X50875812Y-82435230D01*
X50907043Y-82537951D01*
X50910165Y-82546391D01*
X50955718Y-82633425D01*
X51020744Y-82705764D01*
X51103406Y-82762536D01*
X51201869Y-82802866D01*
X51314296Y-82825884D01*
X51438852Y-82830717D01*
X51499886Y-82826577D01*
X51626694Y-82802574D01*
X51739408Y-82758407D01*
X51836600Y-82695891D01*
X51916837Y-82616840D01*
X51978690Y-82523068D01*
X52020729Y-82416391D01*
X52041522Y-82298622D01*
X52041044Y-82266343D01*
X51535716Y-82266343D01*
X51532169Y-82326001D01*
X51522906Y-82374377D01*
X51512569Y-82398031D01*
X51478619Y-82431925D01*
X51439898Y-82444787D01*
X51402022Y-82435686D01*
X51382344Y-82419636D01*
X51371258Y-82403823D01*
X51364108Y-82382262D01*
X51360088Y-82349556D01*
X51358390Y-82300312D01*
X51358150Y-82257711D01*
X51361772Y-82167407D01*
X51371988Y-82095619D01*
X51387829Y-82043355D01*
X51408323Y-82011625D01*
X51432499Y-82001437D01*
X51459387Y-82013802D01*
X51488016Y-82049727D01*
X51512169Y-82097614D01*
X51525706Y-82144357D01*
X51533559Y-82203198D01*
X51535716Y-82266343D01*
X52041044Y-82266343D01*
X52039640Y-82171577D01*
X52036505Y-82145853D01*
X52008694Y-82015845D01*
X51964036Y-81899418D01*
X51903918Y-81798736D01*
X51829726Y-81715964D01*
X51742844Y-81653263D01*
X51710428Y-81636795D01*
X51597687Y-81598460D01*
X51482460Y-81585179D01*
X51365712Y-81596839D01*
X51365712Y-81596839D01*
G37*
X51365712Y-81596839D02*
X51248408Y-81633331D01*
X51131513Y-81694542D01*
X51114649Y-81705467D01*
X51059231Y-81749507D01*
X51012411Y-81803965D01*
X50971467Y-81873072D01*
X50933674Y-81961057D01*
X50913726Y-82017582D01*
X50879738Y-82135483D01*
X50862118Y-82240233D01*
X50860823Y-82338069D01*
X50875812Y-82435230D01*
X50907043Y-82537951D01*
X50910165Y-82546391D01*
X50955718Y-82633425D01*
X51020744Y-82705764D01*
X51103406Y-82762536D01*
X51201869Y-82802866D01*
X51314296Y-82825884D01*
X51438852Y-82830717D01*
X51499886Y-82826577D01*
X51626694Y-82802574D01*
X51739408Y-82758407D01*
X51836600Y-82695891D01*
X51916837Y-82616840D01*
X51978690Y-82523068D01*
X52020729Y-82416391D01*
X52041522Y-82298622D01*
X52041044Y-82266343D01*
X51535716Y-82266343D01*
X51532169Y-82326001D01*
X51522906Y-82374377D01*
X51512569Y-82398031D01*
X51478619Y-82431925D01*
X51439898Y-82444787D01*
X51402022Y-82435686D01*
X51382344Y-82419636D01*
X51371258Y-82403823D01*
X51364108Y-82382262D01*
X51360088Y-82349556D01*
X51358390Y-82300312D01*
X51358150Y-82257711D01*
X51361772Y-82167407D01*
X51371988Y-82095619D01*
X51387829Y-82043355D01*
X51408323Y-82011625D01*
X51432499Y-82001437D01*
X51459387Y-82013802D01*
X51488016Y-82049727D01*
X51512169Y-82097614D01*
X51525706Y-82144357D01*
X51533559Y-82203198D01*
X51535716Y-82266343D01*
X52041044Y-82266343D01*
X52039640Y-82171577D01*
X52036505Y-82145853D01*
X52008694Y-82015845D01*
X51964036Y-81899418D01*
X51903918Y-81798736D01*
X51829726Y-81715964D01*
X51742844Y-81653263D01*
X51710428Y-81636795D01*
X51597687Y-81598460D01*
X51482460Y-81585179D01*
X51365712Y-81596839D01*
G36*
X53902066Y-81587408D02*
G01*
X53823628Y-81601946D01*
X53726142Y-81635214D01*
X53635669Y-81681059D01*
X53557013Y-81736203D01*
X53494980Y-81797370D01*
X53459678Y-81850131D01*
X53416733Y-81945502D01*
X53381483Y-82046078D01*
X53355462Y-82145703D01*
X53340206Y-82238218D01*
X53337249Y-82317470D01*
X53338700Y-82335278D01*
X53351618Y-82411164D01*
X53372295Y-82489048D01*
X53398211Y-82561593D01*
X53426840Y-82621462D01*
X53447911Y-82652835D01*
X53523975Y-82725175D01*
X53616612Y-82779170D01*
X53724327Y-82814330D01*
X53845627Y-82830163D01*
X53976229Y-82826457D01*
X54102555Y-82802946D01*
X54214272Y-82759943D01*
X54310392Y-82699399D01*
X54389924Y-82623263D01*
X54451878Y-82533484D01*
X54495265Y-82432011D01*
X54519096Y-82320796D01*
X54521428Y-82236227D01*
X54016253Y-82236227D01*
X54015773Y-82308474D01*
X54003714Y-82368474D01*
X54000940Y-82375660D01*
X53974579Y-82417135D01*
X53940692Y-82441019D01*
X53904678Y-82445828D01*
X53871939Y-82430081D01*
X53858881Y-82414646D01*
X53842412Y-82372828D01*
X53833337Y-82313841D01*
X53831455Y-82244758D01*
X53836566Y-82172649D01*
X53848470Y-82104585D01*
X53866966Y-82047636D01*
X53869428Y-82042285D01*
X53893247Y-82012674D01*
X53922169Y-82005040D01*
X53950216Y-82020152D01*
X53958630Y-82030822D01*
X53986641Y-82088921D01*
X54006195Y-82160216D01*
X54016253Y-82236227D01*
X54521428Y-82236227D01*
X54522379Y-82201786D01*
X54504127Y-82076931D01*
X54463347Y-81948181D01*
X54444398Y-81904347D01*
X54384615Y-81802595D01*
X54308927Y-81718630D01*
X54220082Y-81653791D01*
X54120826Y-81609416D01*
X54013905Y-81586842D01*
X53902066Y-81587408D01*
X53902066Y-81587408D01*
G37*
X53902066Y-81587408D02*
X53823628Y-81601946D01*
X53726142Y-81635214D01*
X53635669Y-81681059D01*
X53557013Y-81736203D01*
X53494980Y-81797370D01*
X53459678Y-81850131D01*
X53416733Y-81945502D01*
X53381483Y-82046078D01*
X53355462Y-82145703D01*
X53340206Y-82238218D01*
X53337249Y-82317470D01*
X53338700Y-82335278D01*
X53351618Y-82411164D01*
X53372295Y-82489048D01*
X53398211Y-82561593D01*
X53426840Y-82621462D01*
X53447911Y-82652835D01*
X53523975Y-82725175D01*
X53616612Y-82779170D01*
X53724327Y-82814330D01*
X53845627Y-82830163D01*
X53976229Y-82826457D01*
X54102555Y-82802946D01*
X54214272Y-82759943D01*
X54310392Y-82699399D01*
X54389924Y-82623263D01*
X54451878Y-82533484D01*
X54495265Y-82432011D01*
X54519096Y-82320796D01*
X54521428Y-82236227D01*
X54016253Y-82236227D01*
X54015773Y-82308474D01*
X54003714Y-82368474D01*
X54000940Y-82375660D01*
X53974579Y-82417135D01*
X53940692Y-82441019D01*
X53904678Y-82445828D01*
X53871939Y-82430081D01*
X53858881Y-82414646D01*
X53842412Y-82372828D01*
X53833337Y-82313841D01*
X53831455Y-82244758D01*
X53836566Y-82172649D01*
X53848470Y-82104585D01*
X53866966Y-82047636D01*
X53869428Y-82042285D01*
X53893247Y-82012674D01*
X53922169Y-82005040D01*
X53950216Y-82020152D01*
X53958630Y-82030822D01*
X53986641Y-82088921D01*
X54006195Y-82160216D01*
X54016253Y-82236227D01*
X54521428Y-82236227D01*
X54522379Y-82201786D01*
X54504127Y-82076931D01*
X54463347Y-81948181D01*
X54444398Y-81904347D01*
X54384615Y-81802595D01*
X54308927Y-81718630D01*
X54220082Y-81653791D01*
X54120826Y-81609416D01*
X54013905Y-81586842D01*
X53902066Y-81587408D01*
D11*
X50230000Y-110700000D03*
D12*
X47690000Y-110700000D03*
D13*
X74310000Y-102360000D03*
D14*
X74310000Y-99820000D03*
D13*
X54140000Y-58130000D03*
D14*
X54140000Y-55590000D03*
D15*
X56510000Y-93580000D03*
X60510000Y-93580000D03*
X77040000Y-142060000D03*
X73040000Y-142060000D03*
X56540000Y-96270000D03*
X60540000Y-96270000D03*
X52090000Y-99320000D03*
X48090000Y-99320000D03*
D16*
X49620000Y-135310000D03*
X49620000Y-132210000D03*
X49620000Y-123910000D03*
X49620000Y-105820000D03*
X49620000Y-102720000D03*
X49620000Y-94420000D03*
X49620000Y-149070000D03*
X49620000Y-145970000D03*
X49620000Y-137670000D03*
X61780000Y-135310000D03*
X61780000Y-132210000D03*
X61780000Y-123910000D03*
X73940000Y-149070000D03*
X73940000Y-145970000D03*
X73940000Y-137670000D03*
X73940000Y-135310000D03*
X73940000Y-132210000D03*
X73940000Y-123910000D03*
X61780000Y-149070000D03*
X61780000Y-145970000D03*
X61780000Y-137670000D03*
D17*
X58231200Y-88910600D03*
X51728800Y-88910600D03*
X58231200Y-84389400D03*
X51728800Y-84389400D03*
X71651200Y-89000600D03*
X65148800Y-89000600D03*
X71651200Y-84479400D03*
X65148800Y-84479400D03*
D18*
X59210000Y-80880000D03*
X61710000Y-80880000D03*
X64210000Y-80880000D03*
D19*
X56910000Y-73380000D03*
X66510000Y-73380000D03*
D18*
X59210000Y-56000000D03*
X61710000Y-56000000D03*
X64210000Y-56000000D03*
D19*
X56910000Y-48500000D03*
X66510000Y-48500000D03*
D20*
X75230000Y-84770000D03*
X75230000Y-88770000D03*
X74630000Y-68610000D03*
X74630000Y-72610000D03*
X67740000Y-140310000D03*
X67740000Y-144310000D03*
X54790000Y-107930000D03*
X54790000Y-111930000D03*
X71590000Y-77000000D03*
X71590000Y-81000000D03*
X71660000Y-68630000D03*
X71660000Y-72630000D03*
X75350000Y-96810000D03*
X75350000Y-92810000D03*
X70690000Y-144040000D03*
X70690000Y-140040000D03*
X75100000Y-76950000D03*
X75100000Y-80950000D03*
X61650000Y-84700000D03*
X61650000Y-88700000D03*
X48100000Y-84820000D03*
X48100000Y-88820000D03*
X60430000Y-101340000D03*
X60430000Y-105340000D03*
X56610000Y-105350000D03*
X56610000Y-101350000D03*
X55880000Y-140260000D03*
X55880000Y-144260000D03*
X67660000Y-126780000D03*
X67660000Y-130780000D03*
D21*
X69370000Y-147720000D03*
X70970000Y-147720000D03*
D22*
X62260000Y-118800000D03*
X59720000Y-118800000D03*
X62260000Y-116260000D03*
X59720000Y-116260000D03*
X62260000Y-113720000D03*
X59720000Y-113720000D03*
X62260000Y-111180000D03*
X59720000Y-111180000D03*
X62260000Y-108640000D03*
D23*
X59720000Y-108640000D03*
D24*
X74710000Y-52980000D03*
X74710000Y-50440000D03*
X74710000Y-47900000D03*
X74710000Y-45360000D03*
X54110000Y-45380000D03*
X54110000Y-47920000D03*
X54110000Y-50460000D03*
X54110000Y-53000000D03*
D21*
X69480000Y-133950000D03*
X71080000Y-133950000D03*
D25*
X64090000Y-94810000D03*
X71710000Y-102430000D03*
X66630000Y-94810000D03*
X69170000Y-102430000D03*
X69170000Y-94810000D03*
X66630000Y-102430000D03*
X71710000Y-94810000D03*
D26*
X64090000Y-102430000D03*
M02*
