M48
; DRILL file {KiCad 5.1.2-f72e74a~84~ubuntu16.04.1} date Wed May  8 01:02:21 2019
; FORMAT={-:-/ absolute / metric / decimal}
; #@! TF.CreationDate,2019-05-08T01:02:21+08:00
; #@! TF.GenerationSoftware,Kicad,Pcbnew,5.1.2-f72e74a~84~ubuntu16.04.1
; #@! TF.FileFunction,Plated,1,2,PTH
FMAT,2
METRIC
T1C0.400
T2C0.500
T3C0.800
T4C1.000
T5C1.016
T6C1.600
%
G90
G05
T1
X46.3Y-83.92
X47.72Y-113.87
X49.8Y-90.64
X50.54Y-114.01
X52.41Y-109.41
X53.62Y-83.84
X53.68Y-103.51
X55.13Y-138.83
X55.26Y-113.3
X56.57Y-103.35
X60.36Y-103.28
X61.23Y-90.03
X61.95Y-62.81
X62.38Y-106.15
X64.27Y-105.28
X65.51Y-104.85
X67.1Y-138.94
X67.65Y-147.73
X68.2Y-125.53
X69.46Y-74.81
X73.03Y-57.71
X73.23Y-60.12
X74.89Y-90.23
X76.715Y-91.505
X76.72Y-90.44
T3
X64.09Y-94.81
X64.09Y-102.43
X66.63Y-94.81
X66.63Y-102.43
X69.17Y-94.81
X69.17Y-102.43
X71.71Y-94.81
X71.71Y-102.43
T4
X74.31Y-99.82
X74.31Y-102.36
X59.21Y-56.0
X61.71Y-56.0
X64.21Y-56.0
X59.72Y-108.64
X59.72Y-111.18
X59.72Y-113.72
X59.72Y-116.26
X59.72Y-118.8
X62.26Y-108.64
X62.26Y-111.18
X62.26Y-113.72
X62.26Y-116.26
X62.26Y-118.8
X54.14Y-55.59
X54.14Y-58.13
X54.11Y-45.38
X54.11Y-47.92
X54.11Y-50.46
X54.11Y-53.0
X59.21Y-80.88
X61.71Y-80.88
X64.21Y-80.88
X74.71Y-45.36
X74.71Y-47.9
X74.71Y-50.44
X74.71Y-52.98
T5
X65.149Y-84.479
X65.149Y-89.001
X71.651Y-84.479
X71.651Y-89.001
X51.729Y-84.389
X51.729Y-88.911
X58.231Y-84.389
X58.231Y-88.911
T2
G00X61.28Y-137.67
M15
G01X62.28Y-137.67
M16
G05
G00X61.28Y-145.97
M15
G01X62.28Y-145.97
M16
G05
G00X61.28Y-149.07
M15
G01X62.28Y-149.07
M16
G05
G00X73.44Y-137.67
M15
G01X74.44Y-137.67
M16
G05
G00X73.44Y-145.97
M15
G01X74.44Y-145.97
M16
G05
G00X73.44Y-149.07
M15
G01X74.44Y-149.07
M16
G05
G00X61.28Y-123.91
M15
G01X62.28Y-123.91
M16
G05
G00X61.28Y-132.21
M15
G01X62.28Y-132.21
M16
G05
G00X61.28Y-135.31
M15
G01X62.28Y-135.31
M16
G05
G00X49.12Y-94.42
M15
G01X50.12Y-94.42
M16
G05
G00X49.12Y-102.72
M15
G01X50.12Y-102.72
M16
G05
G00X49.12Y-105.82
M15
G01X50.12Y-105.82
M16
G05
G00X49.12Y-137.67
M15
G01X50.12Y-137.67
M16
G05
G00X49.12Y-145.97
M15
G01X50.12Y-145.97
M16
G05
G00X49.12Y-149.07
M15
G01X50.12Y-149.07
M16
G05
G00X49.12Y-123.91
M15
G01X50.12Y-123.91
M16
G05
G00X49.12Y-132.21
M15
G01X50.12Y-132.21
M16
G05
G00X49.12Y-135.31
M15
G01X50.12Y-135.31
M16
G05
G00X73.44Y-123.91
M15
G01X74.44Y-123.91
M16
G05
G00X73.44Y-132.21
M15
G01X74.44Y-132.21
M16
G05
G00X73.44Y-135.31
M15
G01X74.44Y-135.31
M16
G05
T6
G00X56.91Y-48.2
M15
G01X56.91Y-48.8
M16
G05
G00X66.51Y-48.2
M15
G01X66.51Y-48.8
M16
G05
G00X56.91Y-73.08
M15
G01X56.91Y-73.68
M16
G05
G00X66.51Y-73.08
M15
G01X66.51Y-73.68
M16
G05
T0
M30
