G04 #@! TF.GenerationSoftware,KiCad,Pcbnew,5.1.2-f72e74a~84~ubuntu16.04.1*
G04 #@! TF.CreationDate,2019-05-08T01:02:17+08:00*
G04 #@! TF.ProjectId,8Bit_EuroRack_7hp,38426974-5f45-4757-926f-5261636b5f37,rev?*
G04 #@! TF.SameCoordinates,Original*
G04 #@! TF.FileFunction,Legend,Bot*
G04 #@! TF.FilePolarity,Positive*
%FSLAX46Y46*%
G04 Gerber Fmt 4.6, Leading zero omitted, Abs format (unit mm)*
G04 Created by KiCad (PCBNEW 5.1.2-f72e74a~84~ubuntu16.04.1) date 2019-05-08 01:02:17*
%MOMM*%
%LPD*%
G04 APERTURE LIST*
%ADD10C,0.010000*%
%ADD11C,0.120000*%
%ADD12C,0.150000*%
G04 APERTURE END LIST*
D10*
G36*
X76103700Y-61531700D02*
G01*
X76103700Y-60998300D01*
X76294200Y-60998300D01*
X76294200Y-60185500D01*
X76103700Y-60185500D01*
X76103700Y-59918800D01*
X74630500Y-59918800D01*
X74630500Y-60185500D01*
X74440000Y-60185500D01*
X74440000Y-60998300D01*
X74630500Y-60998300D01*
X74630500Y-61531700D01*
X74440000Y-61531700D01*
X74440000Y-62344500D01*
X74630500Y-62344500D01*
X74630500Y-62611200D01*
X75544900Y-62611200D01*
X75544900Y-62065100D01*
X75189300Y-62065100D01*
X75189300Y-61544400D01*
X75544900Y-61544400D01*
X75544900Y-60985600D01*
X75189300Y-60985600D01*
X75189300Y-60464900D01*
X75544900Y-60464900D01*
X75544900Y-60985600D01*
X75544900Y-61544400D01*
X75544900Y-62065100D01*
X75544900Y-62611200D01*
X76103700Y-62611200D01*
X76103700Y-62344500D01*
X76294200Y-62344500D01*
X76294200Y-61531700D01*
X76103700Y-61531700D01*
X76103700Y-61531700D01*
G37*
X76103700Y-61531700D02*
X76103700Y-60998300D01*
X76294200Y-60998300D01*
X76294200Y-60185500D01*
X76103700Y-60185500D01*
X76103700Y-59918800D01*
X74630500Y-59918800D01*
X74630500Y-60185500D01*
X74440000Y-60185500D01*
X74440000Y-60998300D01*
X74630500Y-60998300D01*
X74630500Y-61531700D01*
X74440000Y-61531700D01*
X74440000Y-62344500D01*
X74630500Y-62344500D01*
X74630500Y-62611200D01*
X75544900Y-62611200D01*
X75544900Y-62065100D01*
X75189300Y-62065100D01*
X75189300Y-61544400D01*
X75544900Y-61544400D01*
X75544900Y-60985600D01*
X75189300Y-60985600D01*
X75189300Y-60464900D01*
X75544900Y-60464900D01*
X75544900Y-60985600D01*
X75544900Y-61544400D01*
X75544900Y-62065100D01*
X75544900Y-62611200D01*
X76103700Y-62611200D01*
X76103700Y-62344500D01*
X76294200Y-62344500D01*
X76294200Y-61531700D01*
X76103700Y-61531700D01*
G36*
X72420700Y-59918800D02*
G01*
X72420700Y-60185500D01*
X72242900Y-60185500D01*
X72242900Y-60998300D01*
X72420700Y-60998300D01*
X72420700Y-61531700D01*
X72242900Y-61531700D01*
X72242900Y-62344500D01*
X72420700Y-62344500D01*
X72420700Y-62611200D01*
X73335100Y-62611200D01*
X73335100Y-62065100D01*
X72979500Y-62065100D01*
X72979500Y-61544400D01*
X73335100Y-61544400D01*
X73335100Y-60985600D01*
X72979500Y-60985600D01*
X72979500Y-60464900D01*
X73335100Y-60464900D01*
X73335100Y-60985600D01*
X73335100Y-61544400D01*
X73335100Y-62065100D01*
X73335100Y-62611200D01*
X74084400Y-62611200D01*
X74084400Y-59918800D01*
X72420700Y-59918800D01*
X72420700Y-59918800D01*
G37*
X72420700Y-59918800D02*
X72420700Y-60185500D01*
X72242900Y-60185500D01*
X72242900Y-60998300D01*
X72420700Y-60998300D01*
X72420700Y-61531700D01*
X72242900Y-61531700D01*
X72242900Y-62344500D01*
X72420700Y-62344500D01*
X72420700Y-62611200D01*
X73335100Y-62611200D01*
X73335100Y-62065100D01*
X72979500Y-62065100D01*
X72979500Y-61544400D01*
X73335100Y-61544400D01*
X73335100Y-60985600D01*
X72979500Y-60985600D01*
X72979500Y-60464900D01*
X73335100Y-60464900D01*
X73335100Y-60985600D01*
X73335100Y-61544400D01*
X73335100Y-62065100D01*
X73335100Y-62611200D01*
X74084400Y-62611200D01*
X74084400Y-59918800D01*
X72420700Y-59918800D01*
G36*
X72954100Y-63728800D02*
G01*
X72954100Y-63462100D01*
X71468200Y-63462100D01*
X71468200Y-63728800D01*
X71290400Y-63728800D01*
X71290400Y-64554300D01*
X71468200Y-64554300D01*
X71468200Y-65075000D01*
X71290400Y-65075000D01*
X71290400Y-65887800D01*
X71468200Y-65887800D01*
X71468200Y-66154500D01*
X72395300Y-66154500D01*
X72395300Y-65608400D01*
X72039700Y-65608400D01*
X72039700Y-65087700D01*
X72395300Y-65087700D01*
X72395300Y-64541600D01*
X72039700Y-64541600D01*
X72039700Y-64008200D01*
X72395300Y-64008200D01*
X72395300Y-64541600D01*
X72395300Y-65087700D01*
X72395300Y-65608400D01*
X72395300Y-66154500D01*
X72954100Y-66154500D01*
X72954100Y-65887800D01*
X73144600Y-65887800D01*
X73144600Y-65075000D01*
X72954100Y-65075000D01*
X72954100Y-64555413D01*
X73046175Y-64551682D01*
X73138250Y-64547950D01*
X73144952Y-63728800D01*
X72954100Y-63728800D01*
X72954100Y-63728800D01*
G37*
X72954100Y-63728800D02*
X72954100Y-63462100D01*
X71468200Y-63462100D01*
X71468200Y-63728800D01*
X71290400Y-63728800D01*
X71290400Y-64554300D01*
X71468200Y-64554300D01*
X71468200Y-65075000D01*
X71290400Y-65075000D01*
X71290400Y-65887800D01*
X71468200Y-65887800D01*
X71468200Y-66154500D01*
X72395300Y-66154500D01*
X72395300Y-65608400D01*
X72039700Y-65608400D01*
X72039700Y-65087700D01*
X72395300Y-65087700D01*
X72395300Y-64541600D01*
X72039700Y-64541600D01*
X72039700Y-64008200D01*
X72395300Y-64008200D01*
X72395300Y-64541600D01*
X72395300Y-65087700D01*
X72395300Y-65608400D01*
X72395300Y-66154500D01*
X72954100Y-66154500D01*
X72954100Y-65887800D01*
X73144600Y-65887800D01*
X73144600Y-65075000D01*
X72954100Y-65075000D01*
X72954100Y-64555413D01*
X73046175Y-64551682D01*
X73138250Y-64547950D01*
X73144952Y-63728800D01*
X72954100Y-63728800D01*
G36*
X71138000Y-59918800D02*
G01*
X71138000Y-62611200D01*
X71887300Y-62611200D01*
X71887300Y-59918800D01*
X71138000Y-59918800D01*
X71138000Y-59918800D01*
G37*
X71138000Y-59918800D02*
X71138000Y-62611200D01*
X71887300Y-62611200D01*
X71887300Y-59918800D01*
X71138000Y-59918800D01*
G36*
X69271100Y-63462100D02*
G01*
X69271100Y-63727688D01*
X69086950Y-63735150D01*
X69086950Y-64547950D01*
X69179025Y-64551682D01*
X69271100Y-64555413D01*
X69271100Y-65075000D01*
X69080600Y-65075000D01*
X69080600Y-65472934D01*
X69080861Y-65571042D01*
X69081600Y-65660898D01*
X69082751Y-65739377D01*
X69084250Y-65803355D01*
X69086032Y-65849709D01*
X69088031Y-65875312D01*
X69089067Y-65879334D01*
X69105185Y-65883593D01*
X69139321Y-65886634D01*
X69184101Y-65887800D01*
X69271100Y-65887800D01*
X69271100Y-66154500D01*
X70185500Y-66154500D01*
X70185500Y-65608400D01*
X69829900Y-65608400D01*
X69829900Y-65087700D01*
X70185500Y-65087700D01*
X70185500Y-64541600D01*
X69829900Y-64541600D01*
X69829900Y-64008200D01*
X70185500Y-64008200D01*
X70185500Y-64541600D01*
X70185500Y-65087700D01*
X70185500Y-65608400D01*
X70185500Y-66154500D01*
X70934800Y-66154500D01*
X70934800Y-63462100D01*
X69271100Y-63462100D01*
X69271100Y-63462100D01*
G37*
X69271100Y-63462100D02*
X69271100Y-63727688D01*
X69086950Y-63735150D01*
X69086950Y-64547950D01*
X69179025Y-64551682D01*
X69271100Y-64555413D01*
X69271100Y-65075000D01*
X69080600Y-65075000D01*
X69080600Y-65472934D01*
X69080861Y-65571042D01*
X69081600Y-65660898D01*
X69082751Y-65739377D01*
X69084250Y-65803355D01*
X69086032Y-65849709D01*
X69088031Y-65875312D01*
X69089067Y-65879334D01*
X69105185Y-65883593D01*
X69139321Y-65886634D01*
X69184101Y-65887800D01*
X69271100Y-65887800D01*
X69271100Y-66154500D01*
X70185500Y-66154500D01*
X70185500Y-65608400D01*
X69829900Y-65608400D01*
X69829900Y-65087700D01*
X70185500Y-65087700D01*
X70185500Y-64541600D01*
X69829900Y-64541600D01*
X69829900Y-64008200D01*
X70185500Y-64008200D01*
X70185500Y-64541600D01*
X70185500Y-65087700D01*
X70185500Y-65608400D01*
X70185500Y-66154500D01*
X70934800Y-66154500D01*
X70934800Y-63462100D01*
X69271100Y-63462100D01*
G36*
X68928200Y-59918800D02*
G01*
X68928200Y-60464900D01*
X69487000Y-60464900D01*
X69487000Y-62611200D01*
X70223600Y-62611200D01*
X70223600Y-60464900D01*
X70782400Y-60464900D01*
X70782400Y-59918800D01*
X68928200Y-59918800D01*
X68928200Y-59918800D01*
G37*
X68928200Y-59918800D02*
X68928200Y-60464900D01*
X69487000Y-60464900D01*
X69487000Y-62611200D01*
X70223600Y-62611200D01*
X70223600Y-60464900D01*
X70782400Y-60464900D01*
X70782400Y-59918800D01*
X68928200Y-59918800D01*
G36*
X68686900Y-66916500D02*
G01*
X68686900Y-67094300D01*
X68559900Y-67094300D01*
X68559900Y-68542100D01*
X68686900Y-68542100D01*
X68686900Y-68732600D01*
X69309200Y-68732600D01*
X69309200Y-68364300D01*
X69067900Y-68364300D01*
X69067900Y-67284800D01*
X69309200Y-67284800D01*
X69309200Y-68364300D01*
X69309200Y-68732600D01*
X69804500Y-68732600D01*
X69804500Y-68417186D01*
X69804698Y-68335431D01*
X69805262Y-68232884D01*
X69806150Y-68114151D01*
X69807319Y-67983837D01*
X69808727Y-67846549D01*
X69810331Y-67706890D01*
X69812087Y-67569467D01*
X69812922Y-67509136D01*
X69821344Y-66916500D01*
X68686900Y-66916500D01*
X68686900Y-66916500D01*
G37*
X68686900Y-66916500D02*
X68686900Y-67094300D01*
X68559900Y-67094300D01*
X68559900Y-68542100D01*
X68686900Y-68542100D01*
X68686900Y-68732600D01*
X69309200Y-68732600D01*
X69309200Y-68364300D01*
X69067900Y-68364300D01*
X69067900Y-67284800D01*
X69309200Y-67284800D01*
X69309200Y-68364300D01*
X69309200Y-68732600D01*
X69804500Y-68732600D01*
X69804500Y-68417186D01*
X69804698Y-68335431D01*
X69805262Y-68232884D01*
X69806150Y-68114151D01*
X69807319Y-67983837D01*
X69808727Y-67846549D01*
X69810331Y-67706890D01*
X69812087Y-67569467D01*
X69812922Y-67509136D01*
X69821344Y-66916500D01*
X68686900Y-66916500D01*
G36*
X68140800Y-64008200D02*
G01*
X68140800Y-66154500D01*
X68737700Y-66154500D01*
X68737700Y-64008200D01*
X68140800Y-64008200D01*
X68140800Y-64008200D01*
G37*
X68140800Y-64008200D02*
X68140800Y-66154500D01*
X68737700Y-66154500D01*
X68737700Y-64008200D01*
X68140800Y-64008200D01*
G36*
X67807025Y-66916500D02*
G01*
X67825767Y-68364300D01*
X67566834Y-68364300D01*
X67585576Y-66916500D01*
X67074000Y-66916500D01*
X67074000Y-68542100D01*
X67201000Y-68542100D01*
X67201000Y-68732600D01*
X68190488Y-68732600D01*
X68197950Y-68548450D01*
X68258275Y-68544580D01*
X68318600Y-68540709D01*
X68318600Y-66916500D01*
X67807025Y-66916500D01*
X67807025Y-66916500D01*
G37*
X67807025Y-66916500D02*
X67825767Y-68364300D01*
X67566834Y-68364300D01*
X67585576Y-66916500D01*
X67074000Y-66916500D01*
X67074000Y-68542100D01*
X67201000Y-68542100D01*
X67201000Y-68732600D01*
X68190488Y-68732600D01*
X68197950Y-68548450D01*
X68258275Y-68544580D01*
X68318600Y-68540709D01*
X68318600Y-66916500D01*
X67807025Y-66916500D01*
G36*
X67683600Y-69431100D02*
G01*
X67683600Y-70866200D01*
X67442300Y-70866200D01*
X67442300Y-69431100D01*
X66947000Y-69431100D01*
X66947000Y-71056700D01*
X67061300Y-71056700D01*
X67061300Y-71234500D01*
X68178900Y-71234500D01*
X68178900Y-69431100D01*
X67683600Y-69431100D01*
X67683600Y-69431100D01*
G37*
X67683600Y-69431100D02*
X67683600Y-70866200D01*
X67442300Y-70866200D01*
X67442300Y-69431100D01*
X66947000Y-69431100D01*
X66947000Y-71056700D01*
X67061300Y-71056700D01*
X67061300Y-71234500D01*
X68178900Y-71234500D01*
X68178900Y-69431100D01*
X67683600Y-69431100D01*
G36*
X67855050Y-64014550D02*
G01*
X66375500Y-64007996D01*
X66375500Y-64452700D01*
X66820000Y-64452700D01*
X66820000Y-66154500D01*
X67416900Y-66154500D01*
X67416900Y-64452700D01*
X67862000Y-64452700D01*
X67855050Y-64014550D01*
X67855050Y-64014550D01*
G37*
X67855050Y-64014550D02*
X66375500Y-64007996D01*
X66375500Y-64452700D01*
X66820000Y-64452700D01*
X66820000Y-66154500D01*
X67416900Y-66154500D01*
X67416900Y-64452700D01*
X67862000Y-64452700D01*
X67855050Y-64014550D01*
G36*
X65804000Y-59918800D02*
G01*
X65804000Y-60185500D01*
X65626200Y-60185500D01*
X65626200Y-62611200D01*
X66375500Y-62611200D01*
X66375500Y-60464900D01*
X66731100Y-60464900D01*
X66731100Y-62611200D01*
X67480400Y-62611200D01*
X67480400Y-60464900D01*
X67823300Y-60464900D01*
X67823300Y-62611200D01*
X68572600Y-62611200D01*
X68572600Y-59918800D01*
X65804000Y-59918800D01*
X65804000Y-59918800D01*
G37*
X65804000Y-59918800D02*
X65804000Y-60185500D01*
X65626200Y-60185500D01*
X65626200Y-62611200D01*
X66375500Y-62611200D01*
X66375500Y-60464900D01*
X66731100Y-60464900D01*
X66731100Y-62611200D01*
X67480400Y-62611200D01*
X67480400Y-60464900D01*
X67823300Y-60464900D01*
X67823300Y-62611200D01*
X68572600Y-62611200D01*
X68572600Y-59918800D01*
X65804000Y-59918800D01*
G36*
X66083400Y-68364300D02*
G01*
X66083400Y-68008700D01*
X66705700Y-68008700D01*
X66705700Y-67832292D01*
X66826350Y-67824550D01*
X66833090Y-67094300D01*
X66705700Y-67094300D01*
X66705700Y-66916500D01*
X65588100Y-66916500D01*
X65588100Y-67284800D01*
X66324700Y-67284800D01*
X66324700Y-67640400D01*
X65703658Y-67640400D01*
X65708750Y-67824550D01*
X65588100Y-67832292D01*
X65588100Y-68540709D01*
X65648425Y-68544580D01*
X65708750Y-68548450D01*
X65712485Y-68640659D01*
X65716219Y-68732867D01*
X66271285Y-68729559D01*
X66826350Y-68726250D01*
X66833398Y-68364300D01*
X66083400Y-68364300D01*
X66083400Y-68364300D01*
G37*
X66083400Y-68364300D02*
X66083400Y-68008700D01*
X66705700Y-68008700D01*
X66705700Y-67832292D01*
X66826350Y-67824550D01*
X66833090Y-67094300D01*
X66705700Y-67094300D01*
X66705700Y-66916500D01*
X65588100Y-66916500D01*
X65588100Y-67284800D01*
X66324700Y-67284800D01*
X66324700Y-67640400D01*
X65703658Y-67640400D01*
X65708750Y-67824550D01*
X65588100Y-67832292D01*
X65588100Y-68540709D01*
X65648425Y-68544580D01*
X65708750Y-68548450D01*
X65712485Y-68640659D01*
X65716219Y-68732867D01*
X66271285Y-68729559D01*
X66826350Y-68726250D01*
X66833398Y-68364300D01*
X66083400Y-68364300D01*
G36*
X66566000Y-69608900D02*
G01*
X66566000Y-69431100D01*
X65448400Y-69431100D01*
X65448400Y-69786700D01*
X66197700Y-69786700D01*
X66197700Y-70155000D01*
X65829400Y-70155000D01*
X65829400Y-70510600D01*
X66197700Y-70510600D01*
X66197700Y-70865817D01*
X65826225Y-70869184D01*
X65454750Y-70872550D01*
X65451227Y-71053525D01*
X65447703Y-71234500D01*
X66566000Y-71234500D01*
X66566000Y-71056700D01*
X66693000Y-71056700D01*
X66693000Y-69608900D01*
X66566000Y-69608900D01*
X66566000Y-69608900D01*
G37*
X66566000Y-69608900D02*
X66566000Y-69431100D01*
X65448400Y-69431100D01*
X65448400Y-69786700D01*
X66197700Y-69786700D01*
X66197700Y-70155000D01*
X65829400Y-70155000D01*
X65829400Y-70510600D01*
X66197700Y-70510600D01*
X66197700Y-70865817D01*
X65826225Y-70869184D01*
X65454750Y-70872550D01*
X65451227Y-71053525D01*
X65447703Y-71234500D01*
X66566000Y-71234500D01*
X66566000Y-71056700D01*
X66693000Y-71056700D01*
X66693000Y-69608900D01*
X66566000Y-69608900D01*
G36*
X64521300Y-59918800D02*
G01*
X64521300Y-62611200D01*
X65270600Y-62611200D01*
X65270600Y-59918800D01*
X64521300Y-59918800D01*
X64521300Y-59918800D01*
G37*
X64521300Y-59918800D02*
X64521300Y-62611200D01*
X65270600Y-62611200D01*
X65270600Y-59918800D01*
X64521300Y-59918800D01*
G36*
X64968975Y-68367284D02*
G01*
X64597500Y-68363917D01*
X64597500Y-66916500D01*
X64089500Y-66916500D01*
X64092498Y-67307025D01*
X64093425Y-67426397D01*
X64094504Y-67563135D01*
X64095671Y-67709208D01*
X64096861Y-67856583D01*
X64098009Y-67997229D01*
X64099019Y-68119137D01*
X64102541Y-68540723D01*
X64162696Y-68544587D01*
X64222850Y-68548450D01*
X64226585Y-68640659D01*
X64230319Y-68732867D01*
X64785385Y-68729559D01*
X65340450Y-68726250D01*
X65340450Y-68370650D01*
X64968975Y-68367284D01*
X64968975Y-68367284D01*
G37*
X64968975Y-68367284D02*
X64597500Y-68363917D01*
X64597500Y-66916500D01*
X64089500Y-66916500D01*
X64092498Y-67307025D01*
X64093425Y-67426397D01*
X64094504Y-67563135D01*
X64095671Y-67709208D01*
X64096861Y-67856583D01*
X64098009Y-67997229D01*
X64099019Y-68119137D01*
X64102541Y-68540723D01*
X64162696Y-68544587D01*
X64222850Y-68548450D01*
X64226585Y-68640659D01*
X64230319Y-68732867D01*
X64785385Y-68729559D01*
X65340450Y-68726250D01*
X65340450Y-68370650D01*
X64968975Y-68367284D01*
G36*
X64089500Y-69431100D02*
G01*
X64089500Y-69608900D01*
X63961995Y-69608900D01*
X63965423Y-69878775D01*
X63968850Y-70148650D01*
X64089500Y-70156392D01*
X64089500Y-70510600D01*
X63962500Y-70510600D01*
X63962500Y-71234500D01*
X64457800Y-71234500D01*
X64457800Y-70510600D01*
X64547357Y-70510600D01*
X64547357Y-70153353D01*
X64504981Y-70152691D01*
X64478583Y-70150547D01*
X64474737Y-70149597D01*
X64467635Y-70140760D01*
X64462688Y-70118464D01*
X64459604Y-70079497D01*
X64458087Y-70020647D01*
X64457800Y-69964899D01*
X64457800Y-69786700D01*
X64712498Y-69786700D01*
X64705450Y-70148650D01*
X64598562Y-70152373D01*
X64547357Y-70153353D01*
X64547357Y-70510600D01*
X64711800Y-70510600D01*
X64711800Y-71234500D01*
X65207100Y-71234500D01*
X65207100Y-69431100D01*
X64089500Y-69431100D01*
X64089500Y-69431100D01*
G37*
X64089500Y-69431100D02*
X64089500Y-69608900D01*
X63961995Y-69608900D01*
X63965423Y-69878775D01*
X63968850Y-70148650D01*
X64089500Y-70156392D01*
X64089500Y-70510600D01*
X63962500Y-70510600D01*
X63962500Y-71234500D01*
X64457800Y-71234500D01*
X64457800Y-70510600D01*
X64547357Y-70510600D01*
X64547357Y-70153353D01*
X64504981Y-70152691D01*
X64478583Y-70150547D01*
X64474737Y-70149597D01*
X64467635Y-70140760D01*
X64462688Y-70118464D01*
X64459604Y-70079497D01*
X64458087Y-70020647D01*
X64457800Y-69964899D01*
X64457800Y-69786700D01*
X64712498Y-69786700D01*
X64705450Y-70148650D01*
X64598562Y-70152373D01*
X64547357Y-70153353D01*
X64547357Y-70510600D01*
X64711800Y-70510600D01*
X64711800Y-71234500D01*
X65207100Y-71234500D01*
X65207100Y-69431100D01*
X64089500Y-69431100D01*
G36*
X64813400Y-63728800D02*
G01*
X64813400Y-63462100D01*
X63149700Y-63462100D01*
X63149700Y-64008200D01*
X64254600Y-64008200D01*
X64254600Y-64541600D01*
X63695800Y-64541600D01*
X63695800Y-65087700D01*
X64254600Y-65087700D01*
X64254600Y-65608400D01*
X63149700Y-65608400D01*
X63149700Y-66154500D01*
X64813400Y-66154500D01*
X64813400Y-65887800D01*
X65003900Y-65887800D01*
X65003900Y-63728800D01*
X64813400Y-63728800D01*
X64813400Y-63728800D01*
G37*
X64813400Y-63728800D02*
X64813400Y-63462100D01*
X63149700Y-63462100D01*
X63149700Y-64008200D01*
X64254600Y-64008200D01*
X64254600Y-64541600D01*
X63695800Y-64541600D01*
X63695800Y-65087700D01*
X64254600Y-65087700D01*
X64254600Y-65608400D01*
X63149700Y-65608400D01*
X63149700Y-66154500D01*
X64813400Y-66154500D01*
X64813400Y-65887800D01*
X65003900Y-65887800D01*
X65003900Y-63728800D01*
X64813400Y-63728800D01*
G36*
X63733900Y-67094300D02*
G01*
X63733900Y-66916500D01*
X62730600Y-66916500D01*
X62730600Y-67094300D01*
X62603600Y-67094300D01*
X62606629Y-67395925D01*
X62607423Y-67479657D01*
X62608333Y-67583599D01*
X62609317Y-67702566D01*
X62610336Y-67831368D01*
X62611348Y-67964819D01*
X62612311Y-68097730D01*
X62613122Y-68215349D01*
X62616586Y-68733148D01*
X63105250Y-68726250D01*
X63111996Y-68008700D01*
X63352505Y-68008700D01*
X63352900Y-68050714D01*
X63352900Y-67640400D01*
X63111600Y-67640400D01*
X63111600Y-67284800D01*
X63352900Y-67284800D01*
X63352900Y-67640400D01*
X63352900Y-68050714D01*
X63355878Y-68367475D01*
X63359250Y-68726250D01*
X63603725Y-68729700D01*
X63848200Y-68733149D01*
X63848200Y-68373002D01*
X63848471Y-68267844D01*
X63849235Y-68144013D01*
X63850424Y-68008229D01*
X63851969Y-67867213D01*
X63853802Y-67727684D01*
X63855853Y-67596364D01*
X63856610Y-67553577D01*
X63865019Y-67094300D01*
X63733900Y-67094300D01*
X63733900Y-67094300D01*
G37*
X63733900Y-67094300D02*
X63733900Y-66916500D01*
X62730600Y-66916500D01*
X62730600Y-67094300D01*
X62603600Y-67094300D01*
X62606629Y-67395925D01*
X62607423Y-67479657D01*
X62608333Y-67583599D01*
X62609317Y-67702566D01*
X62610336Y-67831368D01*
X62611348Y-67964819D01*
X62612311Y-68097730D01*
X62613122Y-68215349D01*
X62616586Y-68733148D01*
X63105250Y-68726250D01*
X63111996Y-68008700D01*
X63352505Y-68008700D01*
X63352900Y-68050714D01*
X63352900Y-67640400D01*
X63111600Y-67640400D01*
X63111600Y-67284800D01*
X63352900Y-67284800D01*
X63352900Y-67640400D01*
X63352900Y-68050714D01*
X63355878Y-68367475D01*
X63359250Y-68726250D01*
X63603725Y-68729700D01*
X63848200Y-68733149D01*
X63848200Y-68373002D01*
X63848471Y-68267844D01*
X63849235Y-68144013D01*
X63850424Y-68008229D01*
X63851969Y-67867213D01*
X63853802Y-67727684D01*
X63855853Y-67596364D01*
X63856610Y-67553577D01*
X63865019Y-67094300D01*
X63733900Y-67094300D01*
G36*
X63714850Y-70872550D02*
G01*
X63343375Y-70869184D01*
X62971900Y-70865817D01*
X62971900Y-70510600D01*
X63594200Y-70510600D01*
X63594200Y-70334192D01*
X63714850Y-70326450D01*
X63721596Y-69608900D01*
X63594200Y-69608900D01*
X63594200Y-69431100D01*
X62476600Y-69431100D01*
X62476600Y-69786700D01*
X63226598Y-69786700D01*
X63219550Y-70148650D01*
X62603600Y-70155452D01*
X62603600Y-70332800D01*
X62476600Y-70332800D01*
X62476600Y-71056700D01*
X62603600Y-71056700D01*
X62603600Y-71234500D01*
X63721898Y-71234500D01*
X63714850Y-70872550D01*
X63714850Y-70872550D01*
G37*
X63714850Y-70872550D02*
X63343375Y-70869184D01*
X62971900Y-70865817D01*
X62971900Y-70510600D01*
X63594200Y-70510600D01*
X63594200Y-70334192D01*
X63714850Y-70326450D01*
X63721596Y-69608900D01*
X63594200Y-69608900D01*
X63594200Y-69431100D01*
X62476600Y-69431100D01*
X62476600Y-69786700D01*
X63226598Y-69786700D01*
X63219550Y-70148650D01*
X62603600Y-70155452D01*
X62603600Y-70332800D01*
X62476600Y-70332800D01*
X62476600Y-71056700D01*
X62603600Y-71056700D01*
X62603600Y-71234500D01*
X63721898Y-71234500D01*
X63714850Y-70872550D01*
G36*
X63987900Y-61531700D02*
G01*
X63987900Y-60998300D01*
X64165700Y-60998300D01*
X64165700Y-59918800D01*
X63416400Y-59918800D01*
X63416400Y-60985600D01*
X63073500Y-60985600D01*
X63073500Y-59918800D01*
X62324200Y-59918800D01*
X62324200Y-60998300D01*
X62502000Y-60998300D01*
X62502000Y-61531700D01*
X62324200Y-61531700D01*
X62324200Y-62611200D01*
X63073500Y-62611200D01*
X63073500Y-61544400D01*
X63416400Y-61544400D01*
X63416400Y-62611200D01*
X64165700Y-62611200D01*
X64165700Y-61531700D01*
X63987900Y-61531700D01*
X63987900Y-61531700D01*
G37*
X63987900Y-61531700D02*
X63987900Y-60998300D01*
X64165700Y-60998300D01*
X64165700Y-59918800D01*
X63416400Y-59918800D01*
X63416400Y-60985600D01*
X63073500Y-60985600D01*
X63073500Y-59918800D01*
X62324200Y-59918800D01*
X62324200Y-60998300D01*
X62502000Y-60998300D01*
X62502000Y-61531700D01*
X62324200Y-61531700D01*
X62324200Y-62611200D01*
X63073500Y-62611200D01*
X63073500Y-61544400D01*
X63416400Y-61544400D01*
X63416400Y-62611200D01*
X64165700Y-62611200D01*
X64165700Y-61531700D01*
X63987900Y-61531700D01*
G36*
X61727300Y-69431100D02*
G01*
X61727300Y-71234500D01*
X62222600Y-71234500D01*
X62222600Y-69431100D01*
X61727300Y-69431100D01*
X61727300Y-69431100D01*
G37*
X61727300Y-69431100D02*
X61727300Y-71234500D01*
X62222600Y-71234500D01*
X62222600Y-69431100D01*
X61727300Y-69431100D01*
G36*
X62197200Y-64008200D02*
G01*
X62197200Y-65710000D01*
X61917800Y-65710000D01*
X61917800Y-64008200D01*
X61320900Y-64008200D01*
X61320900Y-65938600D01*
X61473300Y-65938600D01*
X61473300Y-66154500D01*
X62654400Y-66154500D01*
X62654400Y-65938600D01*
X62794100Y-65938600D01*
X62794100Y-64008200D01*
X62197200Y-64008200D01*
X62197200Y-64008200D01*
G37*
X62197200Y-64008200D02*
X62197200Y-65710000D01*
X61917800Y-65710000D01*
X61917800Y-64008200D01*
X61320900Y-64008200D01*
X61320900Y-65938600D01*
X61473300Y-65938600D01*
X61473300Y-66154500D01*
X62654400Y-66154500D01*
X62654400Y-65938600D01*
X62794100Y-65938600D01*
X62794100Y-64008200D01*
X62197200Y-64008200D01*
G36*
X62248000Y-67094300D02*
G01*
X62248000Y-66916500D01*
X61117700Y-66916500D01*
X61117700Y-67284800D01*
X61867000Y-67284800D01*
X61867000Y-68364300D01*
X61613000Y-68364300D01*
X61613000Y-68008700D01*
X61740000Y-68008700D01*
X61740140Y-67872175D01*
X61740937Y-67810184D01*
X61742971Y-67752600D01*
X61745899Y-67707318D01*
X61748152Y-67688025D01*
X61756024Y-67640400D01*
X61117700Y-67640400D01*
X61117700Y-68178034D01*
X61117894Y-68292507D01*
X61118448Y-68399050D01*
X61119321Y-68494993D01*
X61120470Y-68577668D01*
X61121856Y-68644406D01*
X61123436Y-68692540D01*
X61125170Y-68719401D01*
X61126167Y-68724134D01*
X61140258Y-68725914D01*
X61177111Y-68727567D01*
X61234089Y-68729053D01*
X61308554Y-68730332D01*
X61397869Y-68731363D01*
X61499397Y-68732107D01*
X61610498Y-68732524D01*
X61684411Y-68732600D01*
X62234188Y-68732600D01*
X62241650Y-68548450D01*
X62301975Y-68544580D01*
X62362300Y-68540709D01*
X62362300Y-68276782D01*
X62362556Y-68198270D01*
X62363282Y-68099828D01*
X62364413Y-67986917D01*
X62365887Y-67865000D01*
X62367640Y-67739541D01*
X62369608Y-67616003D01*
X62370710Y-67553577D01*
X62379119Y-67094300D01*
X62248000Y-67094300D01*
X62248000Y-67094300D01*
G37*
X62248000Y-67094300D02*
X62248000Y-66916500D01*
X61117700Y-66916500D01*
X61117700Y-67284800D01*
X61867000Y-67284800D01*
X61867000Y-68364300D01*
X61613000Y-68364300D01*
X61613000Y-68008700D01*
X61740000Y-68008700D01*
X61740140Y-67872175D01*
X61740937Y-67810184D01*
X61742971Y-67752600D01*
X61745899Y-67707318D01*
X61748152Y-67688025D01*
X61756024Y-67640400D01*
X61117700Y-67640400D01*
X61117700Y-68178034D01*
X61117894Y-68292507D01*
X61118448Y-68399050D01*
X61119321Y-68494993D01*
X61120470Y-68577668D01*
X61121856Y-68644406D01*
X61123436Y-68692540D01*
X61125170Y-68719401D01*
X61126167Y-68724134D01*
X61140258Y-68725914D01*
X61177111Y-68727567D01*
X61234089Y-68729053D01*
X61308554Y-68730332D01*
X61397869Y-68731363D01*
X61499397Y-68732107D01*
X61610498Y-68732524D01*
X61684411Y-68732600D01*
X62234188Y-68732600D01*
X62241650Y-68548450D01*
X62301975Y-68544580D01*
X62362300Y-68540709D01*
X62362300Y-68276782D01*
X62362556Y-68198270D01*
X62363282Y-68099828D01*
X62364413Y-67986917D01*
X62365887Y-67865000D01*
X62367640Y-67739541D01*
X62369608Y-67616003D01*
X62370710Y-67553577D01*
X62379119Y-67094300D01*
X62248000Y-67094300D01*
G36*
X61359000Y-69608900D02*
G01*
X61359000Y-69431100D01*
X60368400Y-69431100D01*
X60368400Y-69608900D01*
X60241400Y-69608900D01*
X60241400Y-71056700D01*
X60368400Y-71056700D01*
X60368400Y-71234500D01*
X60990700Y-71234500D01*
X60990700Y-70866200D01*
X60736700Y-70866200D01*
X60736700Y-69786700D01*
X60990700Y-69786700D01*
X60990700Y-70866200D01*
X60990700Y-71234500D01*
X61359000Y-71234500D01*
X61359000Y-71056700D01*
X61486000Y-71056700D01*
X61486000Y-69608900D01*
X61359000Y-69608900D01*
X61359000Y-69608900D01*
G37*
X61359000Y-69608900D02*
X61359000Y-69431100D01*
X60368400Y-69431100D01*
X60368400Y-69608900D01*
X60241400Y-69608900D01*
X60241400Y-71056700D01*
X60368400Y-71056700D01*
X60368400Y-71234500D01*
X60990700Y-71234500D01*
X60990700Y-70866200D01*
X60736700Y-70866200D01*
X60736700Y-69786700D01*
X60990700Y-69786700D01*
X60990700Y-70866200D01*
X60990700Y-71234500D01*
X61359000Y-71234500D01*
X61359000Y-71056700D01*
X61486000Y-71056700D01*
X61486000Y-69608900D01*
X61359000Y-69608900D01*
G36*
X60114400Y-59918800D02*
G01*
X60114400Y-60464900D01*
X60673200Y-60464900D01*
X60673200Y-62611200D01*
X61409800Y-62611200D01*
X61409800Y-60464900D01*
X61968600Y-60464900D01*
X61968600Y-59918800D01*
X60114400Y-59918800D01*
X60114400Y-59918800D01*
G37*
X60114400Y-59918800D02*
X60114400Y-60464900D01*
X60673200Y-60464900D01*
X60673200Y-62611200D01*
X61409800Y-62611200D01*
X61409800Y-60464900D01*
X61968600Y-60464900D01*
X61968600Y-59918800D01*
X60114400Y-59918800D01*
G36*
X59746100Y-66916500D02*
G01*
X59746100Y-67094300D01*
X59631800Y-67094300D01*
X59631800Y-67653100D01*
X59687363Y-67653100D01*
X59722345Y-67654598D01*
X59740022Y-67662450D01*
X59748456Y-67681695D01*
X59750863Y-67692788D01*
X59754168Y-67721929D01*
X59756799Y-67769140D01*
X59758430Y-67827094D01*
X59758800Y-67870588D01*
X59758800Y-68008700D01*
X59631800Y-68008700D01*
X59631800Y-68732600D01*
X60127100Y-68732600D01*
X60127100Y-68008700D01*
X60368400Y-68008700D01*
X60368400Y-67640400D01*
X60139800Y-67640400D01*
X60139800Y-67284800D01*
X60368400Y-67284800D01*
X60368400Y-67640400D01*
X60368400Y-68008700D01*
X60381100Y-68008700D01*
X60381100Y-68732600D01*
X60876400Y-68732600D01*
X60876400Y-66916500D01*
X59746100Y-66916500D01*
X59746100Y-66916500D01*
G37*
X59746100Y-66916500D02*
X59746100Y-67094300D01*
X59631800Y-67094300D01*
X59631800Y-67653100D01*
X59687363Y-67653100D01*
X59722345Y-67654598D01*
X59740022Y-67662450D01*
X59748456Y-67681695D01*
X59750863Y-67692788D01*
X59754168Y-67721929D01*
X59756799Y-67769140D01*
X59758430Y-67827094D01*
X59758800Y-67870588D01*
X59758800Y-68008700D01*
X59631800Y-68008700D01*
X59631800Y-68732600D01*
X60127100Y-68732600D01*
X60127100Y-68008700D01*
X60368400Y-68008700D01*
X60368400Y-67640400D01*
X60139800Y-67640400D01*
X60139800Y-67284800D01*
X60368400Y-67284800D01*
X60368400Y-67640400D01*
X60368400Y-68008700D01*
X60381100Y-68008700D01*
X60381100Y-68732600D01*
X60876400Y-68732600D01*
X60876400Y-66916500D01*
X59746100Y-66916500D01*
G36*
X59708000Y-64008200D02*
G01*
X59708000Y-64224100D01*
X59568300Y-64224100D01*
X59568300Y-64871800D01*
X59708000Y-64871800D01*
X59708000Y-65290900D01*
X59568300Y-65290900D01*
X59568300Y-66154500D01*
X60165200Y-66154500D01*
X60165200Y-65303600D01*
X60444600Y-65303600D01*
X60444600Y-64859100D01*
X60165200Y-64859100D01*
X60165200Y-64452700D01*
X60444600Y-64452700D01*
X60444600Y-64859100D01*
X60444600Y-65303600D01*
X60444600Y-66154500D01*
X61041500Y-66154500D01*
X61041500Y-64008200D01*
X59708000Y-64008200D01*
X59708000Y-64008200D01*
G37*
X59708000Y-64008200D02*
X59708000Y-64224100D01*
X59568300Y-64224100D01*
X59568300Y-64871800D01*
X59708000Y-64871800D01*
X59708000Y-65290900D01*
X59568300Y-65290900D01*
X59568300Y-66154500D01*
X60165200Y-66154500D01*
X60165200Y-65303600D01*
X60444600Y-65303600D01*
X60444600Y-64859100D01*
X60165200Y-64859100D01*
X60165200Y-64452700D01*
X60444600Y-64452700D01*
X60444600Y-64859100D01*
X60444600Y-65303600D01*
X60444600Y-66154500D01*
X61041500Y-66154500D01*
X61041500Y-64008200D01*
X59708000Y-64008200D01*
G36*
X58882500Y-69431100D02*
G01*
X58882500Y-69608900D01*
X58755500Y-69608900D01*
X58755500Y-71234500D01*
X59250800Y-71234500D01*
X59250800Y-69786700D01*
X59504800Y-69786700D01*
X59504800Y-71234500D01*
X60000100Y-71234500D01*
X60000100Y-69431100D01*
X58882500Y-69431100D01*
X58882500Y-69431100D01*
G37*
X58882500Y-69431100D02*
X58882500Y-69608900D01*
X58755500Y-69608900D01*
X58755500Y-71234500D01*
X59250800Y-71234500D01*
X59250800Y-69786700D01*
X59504800Y-69786700D01*
X59504800Y-71234500D01*
X60000100Y-71234500D01*
X60000100Y-69431100D01*
X58882500Y-69431100D01*
G36*
X59581000Y-60185500D02*
G01*
X59581000Y-59918800D01*
X58095100Y-59918800D01*
X58095100Y-60185500D01*
X57917300Y-60185500D01*
X57917300Y-62611200D01*
X58653900Y-62611200D01*
X58653900Y-61544400D01*
X59009500Y-61544400D01*
X59009500Y-60985600D01*
X58653900Y-60985600D01*
X58653900Y-60464900D01*
X59009500Y-60464900D01*
X59009500Y-60985600D01*
X59009500Y-61544400D01*
X59009500Y-62611200D01*
X59758800Y-62611200D01*
X59758800Y-60185500D01*
X59581000Y-60185500D01*
X59581000Y-60185500D01*
G37*
X59581000Y-60185500D02*
X59581000Y-59918800D01*
X58095100Y-59918800D01*
X58095100Y-60185500D01*
X57917300Y-60185500D01*
X57917300Y-62611200D01*
X58653900Y-62611200D01*
X58653900Y-61544400D01*
X59009500Y-61544400D01*
X59009500Y-60985600D01*
X58653900Y-60985600D01*
X58653900Y-60464900D01*
X59009500Y-60464900D01*
X59009500Y-60985600D01*
X59009500Y-61544400D01*
X59009500Y-62611200D01*
X59758800Y-62611200D01*
X59758800Y-60185500D01*
X59581000Y-60185500D01*
G36*
X59136500Y-64224100D02*
G01*
X59136500Y-64008200D01*
X57955400Y-64008200D01*
X57955400Y-64224100D01*
X57815700Y-64224100D01*
X57815700Y-65938600D01*
X57955400Y-65938600D01*
X57955400Y-66154500D01*
X58692000Y-66154500D01*
X58692000Y-65710000D01*
X58412600Y-65710000D01*
X58412600Y-64452700D01*
X58692000Y-64452700D01*
X58692000Y-65710000D01*
X58692000Y-66154500D01*
X59136500Y-66154500D01*
X59136500Y-65938600D01*
X59288900Y-65938600D01*
X59288900Y-64224100D01*
X59136500Y-64224100D01*
X59136500Y-64224100D01*
G37*
X59136500Y-64224100D02*
X59136500Y-64008200D01*
X57955400Y-64008200D01*
X57955400Y-64224100D01*
X57815700Y-64224100D01*
X57815700Y-65938600D01*
X57955400Y-65938600D01*
X57955400Y-66154500D01*
X58692000Y-66154500D01*
X58692000Y-65710000D01*
X58412600Y-65710000D01*
X58412600Y-64452700D01*
X58692000Y-64452700D01*
X58692000Y-65710000D01*
X58692000Y-66154500D01*
X59136500Y-66154500D01*
X59136500Y-65938600D01*
X59288900Y-65938600D01*
X59288900Y-64224100D01*
X59136500Y-64224100D01*
G36*
X57523600Y-66916500D02*
G01*
X57523600Y-67094300D01*
X57396211Y-67094300D01*
X57399581Y-67459425D01*
X57402950Y-67824550D01*
X57523600Y-67832292D01*
X57523600Y-68008700D01*
X58145900Y-68008700D01*
X58145900Y-68363917D01*
X57774425Y-68367284D01*
X57402950Y-68370650D01*
X57399433Y-68542816D01*
X57398760Y-68606565D01*
X57399374Y-68660987D01*
X57401129Y-68701147D01*
X57403882Y-68722112D01*
X57404725Y-68723791D01*
X57418812Y-68725547D01*
X57455805Y-68727186D01*
X57513214Y-68728674D01*
X57588544Y-68729974D01*
X57679304Y-68731052D01*
X57783000Y-68731873D01*
X57897140Y-68732400D01*
X58019231Y-68732600D01*
X58641200Y-68732600D01*
X58641200Y-67832292D01*
X58520550Y-67824550D01*
X58523097Y-67732475D01*
X58525643Y-67640400D01*
X57904600Y-67640400D01*
X57904600Y-67284800D01*
X58653900Y-67284800D01*
X58653900Y-66916500D01*
X57523600Y-66916500D01*
X57523600Y-66916500D01*
G37*
X57523600Y-66916500D02*
X57523600Y-67094300D01*
X57396211Y-67094300D01*
X57399581Y-67459425D01*
X57402950Y-67824550D01*
X57523600Y-67832292D01*
X57523600Y-68008700D01*
X58145900Y-68008700D01*
X58145900Y-68363917D01*
X57774425Y-68367284D01*
X57402950Y-68370650D01*
X57399433Y-68542816D01*
X57398760Y-68606565D01*
X57399374Y-68660987D01*
X57401129Y-68701147D01*
X57403882Y-68722112D01*
X57404725Y-68723791D01*
X57418812Y-68725547D01*
X57455805Y-68727186D01*
X57513214Y-68728674D01*
X57588544Y-68729974D01*
X57679304Y-68731052D01*
X57783000Y-68731873D01*
X57897140Y-68732400D01*
X58019231Y-68732600D01*
X58641200Y-68732600D01*
X58641200Y-67832292D01*
X58520550Y-67824550D01*
X58523097Y-67732475D01*
X58525643Y-67640400D01*
X57904600Y-67640400D01*
X57904600Y-67284800D01*
X58653900Y-67284800D01*
X58653900Y-66916500D01*
X57523600Y-66916500D01*
G36*
X57637900Y-69608900D02*
G01*
X57637900Y-69431100D01*
X56647300Y-69431100D01*
X56647300Y-69608900D01*
X56520300Y-69608900D01*
X56520300Y-71056700D01*
X56647300Y-71056700D01*
X56647300Y-71234500D01*
X57269600Y-71234500D01*
X57269600Y-70866200D01*
X57015600Y-70866200D01*
X57015600Y-69786700D01*
X57269600Y-69786700D01*
X57269600Y-70866200D01*
X57269600Y-71234500D01*
X57637900Y-71234500D01*
X57637900Y-71056700D01*
X57764900Y-71056700D01*
X57764900Y-69608900D01*
X57637900Y-69608900D01*
X57637900Y-69608900D01*
G37*
X57637900Y-69608900D02*
X57637900Y-69431100D01*
X56647300Y-69431100D01*
X56647300Y-69608900D01*
X56520300Y-69608900D01*
X56520300Y-71056700D01*
X56647300Y-71056700D01*
X56647300Y-71234500D01*
X57269600Y-71234500D01*
X57269600Y-70866200D01*
X57015600Y-70866200D01*
X57015600Y-69786700D01*
X57269600Y-69786700D01*
X57269600Y-70866200D01*
X57269600Y-71234500D01*
X57637900Y-71234500D01*
X57637900Y-71056700D01*
X57764900Y-71056700D01*
X57764900Y-69608900D01*
X57637900Y-69608900D01*
G36*
X55961500Y-70967800D02*
G01*
X55961500Y-71234500D01*
X56113900Y-71234500D01*
X56113900Y-70967800D01*
X55961500Y-70967800D01*
X55961500Y-70967800D01*
G37*
X55961500Y-70967800D02*
X55961500Y-71234500D01*
X56113900Y-71234500D01*
X56113900Y-70967800D01*
X55961500Y-70967800D01*
G36*
X57041000Y-67094300D02*
G01*
X57041000Y-66916500D01*
X56025000Y-66916500D01*
X56025000Y-67094300D01*
X55910700Y-67094300D01*
X55910700Y-68542100D01*
X56037700Y-68542100D01*
X56037700Y-68732600D01*
X56406000Y-68732600D01*
X56406000Y-68364300D01*
X56406028Y-68138875D01*
X56406418Y-68057285D01*
X56407492Y-67957916D01*
X56409132Y-67848377D01*
X56411220Y-67736277D01*
X56413637Y-67629225D01*
X56414412Y-67599125D01*
X56422768Y-67284800D01*
X56643233Y-67284800D01*
X56651589Y-67599125D01*
X56654083Y-67703167D01*
X56656282Y-67814547D01*
X56658069Y-67925658D01*
X56659326Y-68028890D01*
X56659935Y-68116634D01*
X56659973Y-68138875D01*
X56660000Y-68364300D01*
X56406000Y-68364300D01*
X56406000Y-68732600D01*
X57028300Y-68732600D01*
X57028300Y-68542100D01*
X57155300Y-68542100D01*
X57155300Y-67094300D01*
X57041000Y-67094300D01*
X57041000Y-67094300D01*
G37*
X57041000Y-67094300D02*
X57041000Y-66916500D01*
X56025000Y-66916500D01*
X56025000Y-67094300D01*
X55910700Y-67094300D01*
X55910700Y-68542100D01*
X56037700Y-68542100D01*
X56037700Y-68732600D01*
X56406000Y-68732600D01*
X56406000Y-68364300D01*
X56406028Y-68138875D01*
X56406418Y-68057285D01*
X56407492Y-67957916D01*
X56409132Y-67848377D01*
X56411220Y-67736277D01*
X56413637Y-67629225D01*
X56414412Y-67599125D01*
X56422768Y-67284800D01*
X56643233Y-67284800D01*
X56651589Y-67599125D01*
X56654083Y-67703167D01*
X56656282Y-67814547D01*
X56658069Y-67925658D01*
X56659326Y-68028890D01*
X56659935Y-68116634D01*
X56659973Y-68138875D01*
X56660000Y-68364300D01*
X56406000Y-68364300D01*
X56406000Y-68732600D01*
X57028300Y-68732600D01*
X57028300Y-68542100D01*
X57155300Y-68542100D01*
X57155300Y-67094300D01*
X57041000Y-67094300D01*
G36*
X55898000Y-59918800D02*
G01*
X55898000Y-60185500D01*
X55707500Y-60185500D01*
X55707500Y-61277700D01*
X55898000Y-61277700D01*
X55898000Y-61544400D01*
X56812400Y-61544400D01*
X56812400Y-60985600D01*
X56456800Y-60985600D01*
X56456800Y-60464900D01*
X56812400Y-60464900D01*
X56812400Y-60985600D01*
X56812400Y-61544400D01*
X56812400Y-62611200D01*
X57561700Y-62611200D01*
X57561700Y-59918800D01*
X55898000Y-59918800D01*
X55898000Y-59918800D01*
G37*
X55898000Y-59918800D02*
X55898000Y-60185500D01*
X55707500Y-60185500D01*
X55707500Y-61277700D01*
X55898000Y-61277700D01*
X55898000Y-61544400D01*
X56812400Y-61544400D01*
X56812400Y-60985600D01*
X56456800Y-60985600D01*
X56456800Y-60464900D01*
X56812400Y-60464900D01*
X56812400Y-60985600D01*
X56812400Y-61544400D01*
X56812400Y-62611200D01*
X57561700Y-62611200D01*
X57561700Y-59918800D01*
X55898000Y-59918800D01*
G36*
X55872600Y-63462100D02*
G01*
X55872600Y-63728800D01*
X55682100Y-63728800D01*
X55682100Y-64554300D01*
X55872600Y-64554300D01*
X55872600Y-65075000D01*
X55682100Y-65075000D01*
X55682100Y-66154500D01*
X56431400Y-66154500D01*
X56431400Y-65087700D01*
X56787000Y-65087700D01*
X56787000Y-64541600D01*
X56431400Y-64541600D01*
X56431400Y-64008200D01*
X56787000Y-64008200D01*
X56787000Y-64541600D01*
X56787000Y-65087700D01*
X56787000Y-66154500D01*
X57536300Y-66154500D01*
X57536300Y-63462100D01*
X55872600Y-63462100D01*
X55872600Y-63462100D01*
G37*
X55872600Y-63462100D02*
X55872600Y-63728800D01*
X55682100Y-63728800D01*
X55682100Y-64554300D01*
X55872600Y-64554300D01*
X55872600Y-65075000D01*
X55682100Y-65075000D01*
X55682100Y-66154500D01*
X56431400Y-66154500D01*
X56431400Y-65087700D01*
X56787000Y-65087700D01*
X56787000Y-64541600D01*
X56431400Y-64541600D01*
X56431400Y-64008200D01*
X56787000Y-64008200D01*
X56787000Y-64541600D01*
X56787000Y-65087700D01*
X56787000Y-66154500D01*
X57536300Y-66154500D01*
X57536300Y-63462100D01*
X55872600Y-63462100D01*
G36*
X55428100Y-69431100D02*
G01*
X55428100Y-69608900D01*
X55301100Y-69608900D01*
X55301100Y-71234500D01*
X55796400Y-71234500D01*
X55796400Y-69786700D01*
X55923400Y-69786700D01*
X55923400Y-69431100D01*
X55428100Y-69431100D01*
X55428100Y-69431100D01*
G37*
X55428100Y-69431100D02*
X55428100Y-69608900D01*
X55301100Y-69608900D01*
X55301100Y-71234500D01*
X55796400Y-71234500D01*
X55796400Y-69786700D01*
X55923400Y-69786700D01*
X55923400Y-69431100D01*
X55428100Y-69431100D01*
G36*
X55288400Y-66916500D02*
G01*
X55288400Y-67094300D01*
X55161400Y-67094300D01*
X55164429Y-67395925D01*
X55165223Y-67479657D01*
X55166133Y-67583599D01*
X55167117Y-67702566D01*
X55168136Y-67831368D01*
X55169148Y-67964819D01*
X55170111Y-68097730D01*
X55170922Y-68215349D01*
X55174386Y-68733148D01*
X55663050Y-68726250D01*
X55669610Y-67284800D01*
X55796400Y-67284800D01*
X55796400Y-66916500D01*
X55288400Y-66916500D01*
X55288400Y-66916500D01*
G37*
X55288400Y-66916500D02*
X55288400Y-67094300D01*
X55161400Y-67094300D01*
X55164429Y-67395925D01*
X55165223Y-67479657D01*
X55166133Y-67583599D01*
X55167117Y-67702566D01*
X55168136Y-67831368D01*
X55169148Y-67964819D01*
X55170111Y-68097730D01*
X55170922Y-68215349D01*
X55174386Y-68733148D01*
X55663050Y-68726250D01*
X55669610Y-67284800D01*
X55796400Y-67284800D01*
X55796400Y-66916500D01*
X55288400Y-66916500D01*
G36*
X55186800Y-64224100D02*
G01*
X55186800Y-64008200D01*
X54005700Y-64008200D01*
X54005700Y-64224100D01*
X53853300Y-64224100D01*
X53853300Y-66154500D01*
X54450200Y-66154500D01*
X54450200Y-65303600D01*
X54729600Y-65303600D01*
X54729600Y-64859100D01*
X54450200Y-64859100D01*
X54450200Y-64452700D01*
X54729600Y-64452700D01*
X54729600Y-64859100D01*
X54729600Y-65303600D01*
X54729600Y-66154500D01*
X55326500Y-66154500D01*
X55326500Y-64224100D01*
X55186800Y-64224100D01*
X55186800Y-64224100D01*
G37*
X55186800Y-64224100D02*
X55186800Y-64008200D01*
X54005700Y-64008200D01*
X54005700Y-64224100D01*
X53853300Y-64224100D01*
X53853300Y-66154500D01*
X54450200Y-66154500D01*
X54450200Y-65303600D01*
X54729600Y-65303600D01*
X54729600Y-64859100D01*
X54450200Y-64859100D01*
X54450200Y-64452700D01*
X54729600Y-64452700D01*
X54729600Y-64859100D01*
X54729600Y-65303600D01*
X54729600Y-66154500D01*
X55326500Y-66154500D01*
X55326500Y-64224100D01*
X55186800Y-64224100D01*
G36*
X54805800Y-67094300D02*
G01*
X54805800Y-66916500D01*
X53802500Y-66916500D01*
X53802500Y-67094300D01*
X53675500Y-67094300D01*
X53675500Y-68542100D01*
X53802500Y-68542100D01*
X53802500Y-68732600D01*
X54920100Y-68732600D01*
X54920100Y-68364300D01*
X54170800Y-68364300D01*
X54170800Y-68008700D01*
X54424800Y-68008700D01*
X54424800Y-67640400D01*
X54183500Y-67640400D01*
X54183500Y-67284800D01*
X54424800Y-67284800D01*
X54424800Y-67640400D01*
X54424800Y-68008700D01*
X54793100Y-68008700D01*
X54793100Y-67830900D01*
X54916373Y-67830900D01*
X54924587Y-67733734D01*
X54927104Y-67690850D01*
X54929310Y-67628227D01*
X54931077Y-67551527D01*
X54932279Y-67466410D01*
X54932791Y-67378539D01*
X54932800Y-67365434D01*
X54932800Y-67094300D01*
X54805800Y-67094300D01*
X54805800Y-67094300D01*
G37*
X54805800Y-67094300D02*
X54805800Y-66916500D01*
X53802500Y-66916500D01*
X53802500Y-67094300D01*
X53675500Y-67094300D01*
X53675500Y-68542100D01*
X53802500Y-68542100D01*
X53802500Y-68732600D01*
X54920100Y-68732600D01*
X54920100Y-68364300D01*
X54170800Y-68364300D01*
X54170800Y-68008700D01*
X54424800Y-68008700D01*
X54424800Y-67640400D01*
X54183500Y-67640400D01*
X54183500Y-67284800D01*
X54424800Y-67284800D01*
X54424800Y-67640400D01*
X54424800Y-68008700D01*
X54793100Y-68008700D01*
X54793100Y-67830900D01*
X54916373Y-67830900D01*
X54924587Y-67733734D01*
X54927104Y-67690850D01*
X54929310Y-67628227D01*
X54931077Y-67551527D01*
X54932279Y-67466410D01*
X54932791Y-67378539D01*
X54932800Y-67365434D01*
X54932800Y-67094300D01*
X54805800Y-67094300D01*
G36*
X55174100Y-60185500D02*
G01*
X55174100Y-59918800D01*
X53510400Y-59918800D01*
X53510400Y-60464900D01*
X54602600Y-60464900D01*
X54602600Y-60985600D01*
X54056500Y-60985600D01*
X54056500Y-61544400D01*
X54602600Y-61544400D01*
X54602600Y-62065100D01*
X53510400Y-62065100D01*
X53510400Y-62611200D01*
X55174100Y-62611200D01*
X55174100Y-62344500D01*
X55351900Y-62344500D01*
X55351900Y-60185500D01*
X55174100Y-60185500D01*
X55174100Y-60185500D01*
G37*
X55174100Y-60185500D02*
X55174100Y-59918800D01*
X53510400Y-59918800D01*
X53510400Y-60464900D01*
X54602600Y-60464900D01*
X54602600Y-60985600D01*
X54056500Y-60985600D01*
X54056500Y-61544400D01*
X54602600Y-61544400D01*
X54602600Y-62065100D01*
X53510400Y-62065100D01*
X53510400Y-62611200D01*
X55174100Y-62611200D01*
X55174100Y-62344500D01*
X55351900Y-62344500D01*
X55351900Y-60185500D01*
X55174100Y-60185500D01*
G36*
X53434200Y-64224100D02*
G01*
X53434200Y-64008200D01*
X52100700Y-64008200D01*
X52100700Y-64452700D01*
X52977000Y-64452700D01*
X52977000Y-65710000D01*
X52100700Y-65710000D01*
X52100700Y-66154500D01*
X53434200Y-66154500D01*
X53434200Y-65938600D01*
X53573900Y-65938600D01*
X53573900Y-64224100D01*
X53434200Y-64224100D01*
X53434200Y-64224100D01*
G37*
X53434200Y-64224100D02*
X53434200Y-64008200D01*
X52100700Y-64008200D01*
X52100700Y-64452700D01*
X52977000Y-64452700D01*
X52977000Y-65710000D01*
X52100700Y-65710000D01*
X52100700Y-66154500D01*
X53434200Y-66154500D01*
X53434200Y-65938600D01*
X53573900Y-65938600D01*
X53573900Y-64224100D01*
X53434200Y-64224100D01*
G36*
X51884800Y-61519000D02*
G01*
X51884800Y-62611200D01*
X52507100Y-62611200D01*
X52507100Y-61519000D01*
X51884800Y-61519000D01*
X51884800Y-61519000D01*
G37*
X51884800Y-61519000D02*
X51884800Y-62611200D01*
X52507100Y-62611200D01*
X52507100Y-61519000D01*
X51884800Y-61519000D01*
G36*
X51224400Y-64008200D02*
G01*
X51224400Y-64859100D01*
X50945000Y-64859100D01*
X50945000Y-64008200D01*
X50348100Y-64008200D01*
X50348100Y-64871800D01*
X50487800Y-64871800D01*
X50487800Y-65290900D01*
X50348100Y-65290900D01*
X50348100Y-66154500D01*
X50945000Y-66154500D01*
X50945000Y-65303600D01*
X51224400Y-65303600D01*
X51224400Y-66154500D01*
X51821300Y-66154500D01*
X51821300Y-64008200D01*
X51224400Y-64008200D01*
X51224400Y-64008200D01*
G37*
X51224400Y-64008200D02*
X51224400Y-64859100D01*
X50945000Y-64859100D01*
X50945000Y-64008200D01*
X50348100Y-64008200D01*
X50348100Y-64871800D01*
X50487800Y-64871800D01*
X50487800Y-65290900D01*
X50348100Y-65290900D01*
X50348100Y-66154500D01*
X50945000Y-66154500D01*
X50945000Y-65303600D01*
X51224400Y-65303600D01*
X51224400Y-66154500D01*
X51821300Y-66154500D01*
X51821300Y-64008200D01*
X51224400Y-64008200D01*
G36*
X51072000Y-60185500D02*
G01*
X51072000Y-59918800D01*
X49395600Y-59918800D01*
X49395600Y-60464900D01*
X50500500Y-60464900D01*
X50500500Y-62065100D01*
X49395600Y-62065100D01*
X49395600Y-62611200D01*
X51072000Y-62611200D01*
X51072000Y-62344500D01*
X51249800Y-62344500D01*
X51249800Y-60185500D01*
X51072000Y-60185500D01*
X51072000Y-60185500D01*
G37*
X51072000Y-60185500D02*
X51072000Y-59918800D01*
X49395600Y-59918800D01*
X49395600Y-60464900D01*
X50500500Y-60464900D01*
X50500500Y-62065100D01*
X49395600Y-62065100D01*
X49395600Y-62611200D01*
X51072000Y-62611200D01*
X51072000Y-62344500D01*
X51249800Y-62344500D01*
X51249800Y-60185500D01*
X51072000Y-60185500D01*
G36*
X48862200Y-60185500D02*
G01*
X48862200Y-59918800D01*
X47198500Y-59918800D01*
X47198500Y-60464900D01*
X48303400Y-60464900D01*
X48303400Y-62065100D01*
X47198500Y-62065100D01*
X47198500Y-62611200D01*
X48862200Y-62611200D01*
X48862200Y-62344500D01*
X49040000Y-62344500D01*
X49040000Y-60185500D01*
X48862200Y-60185500D01*
X48862200Y-60185500D01*
G37*
X48862200Y-60185500D02*
X48862200Y-59918800D01*
X47198500Y-59918800D01*
X47198500Y-60464900D01*
X48303400Y-60464900D01*
X48303400Y-62065100D01*
X47198500Y-62065100D01*
X47198500Y-62611200D01*
X48862200Y-62611200D01*
X48862200Y-62344500D01*
X49040000Y-62344500D01*
X49040000Y-60185500D01*
X48862200Y-60185500D01*
D11*
X51500000Y-112478000D02*
X51500000Y-107906000D01*
X46420000Y-112478000D02*
X46420000Y-107906000D01*
X46420000Y-112478000D02*
X51500000Y-112478000D01*
X51500000Y-107906000D02*
X46420000Y-107906000D01*
X59510000Y-94600000D02*
X57510000Y-94600000D01*
X57510000Y-92560000D02*
X59510000Y-92560000D01*
X74040000Y-141040000D02*
X76040000Y-141040000D01*
X76040000Y-143080000D02*
X74040000Y-143080000D01*
X59540000Y-97290000D02*
X57540000Y-97290000D01*
X57540000Y-95250000D02*
X59540000Y-95250000D01*
X49090000Y-98300000D02*
X51090000Y-98300000D01*
X51090000Y-100340000D02*
X49090000Y-100340000D01*
X76300000Y-87770000D02*
X76300000Y-85770000D01*
X74160000Y-85770000D02*
X74160000Y-87770000D01*
X75700000Y-71610000D02*
X75700000Y-69610000D01*
X73560000Y-69610000D02*
X73560000Y-71610000D01*
X68810000Y-143310000D02*
X68810000Y-141310000D01*
X66670000Y-141310000D02*
X66670000Y-143310000D01*
X55860000Y-110930000D02*
X55860000Y-108930000D01*
X53720000Y-108930000D02*
X53720000Y-110930000D01*
X72660000Y-80000000D02*
X72660000Y-78000000D01*
X70520000Y-78000000D02*
X70520000Y-80000000D01*
X72730000Y-71630000D02*
X72730000Y-69630000D01*
X70590000Y-69630000D02*
X70590000Y-71630000D01*
X74280000Y-93810000D02*
X74280000Y-95810000D01*
X76420000Y-95810000D02*
X76420000Y-93810000D01*
X69620000Y-141040000D02*
X69620000Y-143040000D01*
X71760000Y-143040000D02*
X71760000Y-141040000D01*
X76170000Y-79950000D02*
X76170000Y-77950000D01*
X74030000Y-77950000D02*
X74030000Y-79950000D01*
X62720000Y-87700000D02*
X62720000Y-85700000D01*
X60580000Y-85700000D02*
X60580000Y-87700000D01*
X49170000Y-87820000D02*
X49170000Y-85820000D01*
X47030000Y-85820000D02*
X47030000Y-87820000D01*
X61500000Y-104340000D02*
X61500000Y-102340000D01*
X59360000Y-102340000D02*
X59360000Y-104340000D01*
X55540000Y-102350000D02*
X55540000Y-104350000D01*
X57680000Y-104350000D02*
X57680000Y-102350000D01*
X56950000Y-143260000D02*
X56950000Y-141260000D01*
X54810000Y-141260000D02*
X54810000Y-143260000D01*
X68730000Y-129780000D02*
X68730000Y-127780000D01*
X66590000Y-127780000D02*
X66590000Y-129780000D01*
D12*
X49293333Y-112692380D02*
X49293333Y-113406666D01*
X49340952Y-113549523D01*
X49436190Y-113644761D01*
X49579047Y-113692380D01*
X49674285Y-113692380D01*
X48388571Y-113025714D02*
X48388571Y-113692380D01*
X48626666Y-112644761D02*
X48864761Y-113359047D01*
X48245714Y-113359047D01*
X48070952Y-108739428D02*
X47309047Y-108739428D01*
X50610952Y-108739428D02*
X49849047Y-108739428D01*
X50230000Y-109120380D02*
X50230000Y-108358476D01*
X58676666Y-93937142D02*
X58724285Y-93984761D01*
X58867142Y-94032380D01*
X58962380Y-94032380D01*
X59105238Y-93984761D01*
X59200476Y-93889523D01*
X59248095Y-93794285D01*
X59295714Y-93603809D01*
X59295714Y-93460952D01*
X59248095Y-93270476D01*
X59200476Y-93175238D01*
X59105238Y-93080000D01*
X58962380Y-93032380D01*
X58867142Y-93032380D01*
X58724285Y-93080000D01*
X58676666Y-93127619D01*
X57819523Y-93365714D02*
X57819523Y-94032380D01*
X58057619Y-92984761D02*
X58295714Y-93699047D01*
X57676666Y-93699047D01*
X75206666Y-142417142D02*
X75254285Y-142464761D01*
X75397142Y-142512380D01*
X75492380Y-142512380D01*
X75635238Y-142464761D01*
X75730476Y-142369523D01*
X75778095Y-142274285D01*
X75825714Y-142083809D01*
X75825714Y-141940952D01*
X75778095Y-141750476D01*
X75730476Y-141655238D01*
X75635238Y-141560000D01*
X75492380Y-141512380D01*
X75397142Y-141512380D01*
X75254285Y-141560000D01*
X75206666Y-141607619D01*
X74873333Y-141512380D02*
X74254285Y-141512380D01*
X74587619Y-141893333D01*
X74444761Y-141893333D01*
X74349523Y-141940952D01*
X74301904Y-141988571D01*
X74254285Y-142083809D01*
X74254285Y-142321904D01*
X74301904Y-142417142D01*
X74349523Y-142464761D01*
X74444761Y-142512380D01*
X74730476Y-142512380D01*
X74825714Y-142464761D01*
X74873333Y-142417142D01*
X58706666Y-96627142D02*
X58754285Y-96674761D01*
X58897142Y-96722380D01*
X58992380Y-96722380D01*
X59135238Y-96674761D01*
X59230476Y-96579523D01*
X59278095Y-96484285D01*
X59325714Y-96293809D01*
X59325714Y-96150952D01*
X59278095Y-95960476D01*
X59230476Y-95865238D01*
X59135238Y-95770000D01*
X58992380Y-95722380D01*
X58897142Y-95722380D01*
X58754285Y-95770000D01*
X58706666Y-95817619D01*
X58325714Y-95817619D02*
X58278095Y-95770000D01*
X58182857Y-95722380D01*
X57944761Y-95722380D01*
X57849523Y-95770000D01*
X57801904Y-95817619D01*
X57754285Y-95912857D01*
X57754285Y-96008095D01*
X57801904Y-96150952D01*
X58373333Y-96722380D01*
X57754285Y-96722380D01*
X50256666Y-99677142D02*
X50304285Y-99724761D01*
X50447142Y-99772380D01*
X50542380Y-99772380D01*
X50685238Y-99724761D01*
X50780476Y-99629523D01*
X50828095Y-99534285D01*
X50875714Y-99343809D01*
X50875714Y-99200952D01*
X50828095Y-99010476D01*
X50780476Y-98915238D01*
X50685238Y-98820000D01*
X50542380Y-98772380D01*
X50447142Y-98772380D01*
X50304285Y-98820000D01*
X50256666Y-98867619D01*
X49304285Y-99772380D02*
X49875714Y-99772380D01*
X49590000Y-99772380D02*
X49590000Y-98772380D01*
X49685238Y-98915238D01*
X49780476Y-99010476D01*
X49875714Y-99058095D01*
X75682380Y-86603333D02*
X75206190Y-86270000D01*
X75682380Y-86031904D02*
X74682380Y-86031904D01*
X74682380Y-86412857D01*
X74730000Y-86508095D01*
X74777619Y-86555714D01*
X74872857Y-86603333D01*
X75015714Y-86603333D01*
X75110952Y-86555714D01*
X75158571Y-86508095D01*
X75206190Y-86412857D01*
X75206190Y-86031904D01*
X75015714Y-87460476D02*
X75682380Y-87460476D01*
X74634761Y-87222380D02*
X75349047Y-86984285D01*
X75349047Y-87603333D01*
X75082380Y-70443333D02*
X74606190Y-70110000D01*
X75082380Y-69871904D02*
X74082380Y-69871904D01*
X74082380Y-70252857D01*
X74130000Y-70348095D01*
X74177619Y-70395714D01*
X74272857Y-70443333D01*
X74415714Y-70443333D01*
X74510952Y-70395714D01*
X74558571Y-70348095D01*
X74606190Y-70252857D01*
X74606190Y-69871904D01*
X74082380Y-71300476D02*
X74082380Y-71110000D01*
X74130000Y-71014761D01*
X74177619Y-70967142D01*
X74320476Y-70871904D01*
X74510952Y-70824285D01*
X74891904Y-70824285D01*
X74987142Y-70871904D01*
X75034761Y-70919523D01*
X75082380Y-71014761D01*
X75082380Y-71205238D01*
X75034761Y-71300476D01*
X74987142Y-71348095D01*
X74891904Y-71395714D01*
X74653809Y-71395714D01*
X74558571Y-71348095D01*
X74510952Y-71300476D01*
X74463333Y-71205238D01*
X74463333Y-71014761D01*
X74510952Y-70919523D01*
X74558571Y-70871904D01*
X74653809Y-70824285D01*
X68192380Y-141667142D02*
X67716190Y-141333809D01*
X68192380Y-141095714D02*
X67192380Y-141095714D01*
X67192380Y-141476666D01*
X67240000Y-141571904D01*
X67287619Y-141619523D01*
X67382857Y-141667142D01*
X67525714Y-141667142D01*
X67620952Y-141619523D01*
X67668571Y-141571904D01*
X67716190Y-141476666D01*
X67716190Y-141095714D01*
X68192380Y-142619523D02*
X68192380Y-142048095D01*
X68192380Y-142333809D02*
X67192380Y-142333809D01*
X67335238Y-142238571D01*
X67430476Y-142143333D01*
X67478095Y-142048095D01*
X67192380Y-142952857D02*
X67192380Y-143571904D01*
X67573333Y-143238571D01*
X67573333Y-143381428D01*
X67620952Y-143476666D01*
X67668571Y-143524285D01*
X67763809Y-143571904D01*
X68001904Y-143571904D01*
X68097142Y-143524285D01*
X68144761Y-143476666D01*
X68192380Y-143381428D01*
X68192380Y-143095714D01*
X68144761Y-143000476D01*
X68097142Y-142952857D01*
X55242380Y-109287142D02*
X54766190Y-108953809D01*
X55242380Y-108715714D02*
X54242380Y-108715714D01*
X54242380Y-109096666D01*
X54290000Y-109191904D01*
X54337619Y-109239523D01*
X54432857Y-109287142D01*
X54575714Y-109287142D01*
X54670952Y-109239523D01*
X54718571Y-109191904D01*
X54766190Y-109096666D01*
X54766190Y-108715714D01*
X55242380Y-110239523D02*
X55242380Y-109668095D01*
X55242380Y-109953809D02*
X54242380Y-109953809D01*
X54385238Y-109858571D01*
X54480476Y-109763333D01*
X54528095Y-109668095D01*
X54337619Y-110620476D02*
X54290000Y-110668095D01*
X54242380Y-110763333D01*
X54242380Y-111001428D01*
X54290000Y-111096666D01*
X54337619Y-111144285D01*
X54432857Y-111191904D01*
X54528095Y-111191904D01*
X54670952Y-111144285D01*
X55242380Y-110572857D01*
X55242380Y-111191904D01*
X72042380Y-78357142D02*
X71566190Y-78023809D01*
X72042380Y-77785714D02*
X71042380Y-77785714D01*
X71042380Y-78166666D01*
X71090000Y-78261904D01*
X71137619Y-78309523D01*
X71232857Y-78357142D01*
X71375714Y-78357142D01*
X71470952Y-78309523D01*
X71518571Y-78261904D01*
X71566190Y-78166666D01*
X71566190Y-77785714D01*
X72042380Y-79309523D02*
X72042380Y-78738095D01*
X72042380Y-79023809D02*
X71042380Y-79023809D01*
X71185238Y-78928571D01*
X71280476Y-78833333D01*
X71328095Y-78738095D01*
X72042380Y-80261904D02*
X72042380Y-79690476D01*
X72042380Y-79976190D02*
X71042380Y-79976190D01*
X71185238Y-79880952D01*
X71280476Y-79785714D01*
X71328095Y-79690476D01*
X72112380Y-69987142D02*
X71636190Y-69653809D01*
X72112380Y-69415714D02*
X71112380Y-69415714D01*
X71112380Y-69796666D01*
X71160000Y-69891904D01*
X71207619Y-69939523D01*
X71302857Y-69987142D01*
X71445714Y-69987142D01*
X71540952Y-69939523D01*
X71588571Y-69891904D01*
X71636190Y-69796666D01*
X71636190Y-69415714D01*
X72112380Y-70939523D02*
X72112380Y-70368095D01*
X72112380Y-70653809D02*
X71112380Y-70653809D01*
X71255238Y-70558571D01*
X71350476Y-70463333D01*
X71398095Y-70368095D01*
X71112380Y-71558571D02*
X71112380Y-71653809D01*
X71160000Y-71749047D01*
X71207619Y-71796666D01*
X71302857Y-71844285D01*
X71493333Y-71891904D01*
X71731428Y-71891904D01*
X71921904Y-71844285D01*
X72017142Y-71796666D01*
X72064761Y-71749047D01*
X72112380Y-71653809D01*
X72112380Y-71558571D01*
X72064761Y-71463333D01*
X72017142Y-71415714D01*
X71921904Y-71368095D01*
X71731428Y-71320476D01*
X71493333Y-71320476D01*
X71302857Y-71368095D01*
X71207619Y-71415714D01*
X71160000Y-71463333D01*
X71112380Y-71558571D01*
X75802380Y-94643333D02*
X75326190Y-94310000D01*
X75802380Y-94071904D02*
X74802380Y-94071904D01*
X74802380Y-94452857D01*
X74850000Y-94548095D01*
X74897619Y-94595714D01*
X74992857Y-94643333D01*
X75135714Y-94643333D01*
X75230952Y-94595714D01*
X75278571Y-94548095D01*
X75326190Y-94452857D01*
X75326190Y-94071904D01*
X75802380Y-95119523D02*
X75802380Y-95310000D01*
X75754761Y-95405238D01*
X75707142Y-95452857D01*
X75564285Y-95548095D01*
X75373809Y-95595714D01*
X74992857Y-95595714D01*
X74897619Y-95548095D01*
X74850000Y-95500476D01*
X74802380Y-95405238D01*
X74802380Y-95214761D01*
X74850000Y-95119523D01*
X74897619Y-95071904D01*
X74992857Y-95024285D01*
X75230952Y-95024285D01*
X75326190Y-95071904D01*
X75373809Y-95119523D01*
X75421428Y-95214761D01*
X75421428Y-95405238D01*
X75373809Y-95500476D01*
X75326190Y-95548095D01*
X75230952Y-95595714D01*
X71142380Y-141873333D02*
X70666190Y-141540000D01*
X71142380Y-141301904D02*
X70142380Y-141301904D01*
X70142380Y-141682857D01*
X70190000Y-141778095D01*
X70237619Y-141825714D01*
X70332857Y-141873333D01*
X70475714Y-141873333D01*
X70570952Y-141825714D01*
X70618571Y-141778095D01*
X70666190Y-141682857D01*
X70666190Y-141301904D01*
X70570952Y-142444761D02*
X70523333Y-142349523D01*
X70475714Y-142301904D01*
X70380476Y-142254285D01*
X70332857Y-142254285D01*
X70237619Y-142301904D01*
X70190000Y-142349523D01*
X70142380Y-142444761D01*
X70142380Y-142635238D01*
X70190000Y-142730476D01*
X70237619Y-142778095D01*
X70332857Y-142825714D01*
X70380476Y-142825714D01*
X70475714Y-142778095D01*
X70523333Y-142730476D01*
X70570952Y-142635238D01*
X70570952Y-142444761D01*
X70618571Y-142349523D01*
X70666190Y-142301904D01*
X70761428Y-142254285D01*
X70951904Y-142254285D01*
X71047142Y-142301904D01*
X71094761Y-142349523D01*
X71142380Y-142444761D01*
X71142380Y-142635238D01*
X71094761Y-142730476D01*
X71047142Y-142778095D01*
X70951904Y-142825714D01*
X70761428Y-142825714D01*
X70666190Y-142778095D01*
X70618571Y-142730476D01*
X70570952Y-142635238D01*
X75552380Y-78783333D02*
X75076190Y-78450000D01*
X75552380Y-78211904D02*
X74552380Y-78211904D01*
X74552380Y-78592857D01*
X74600000Y-78688095D01*
X74647619Y-78735714D01*
X74742857Y-78783333D01*
X74885714Y-78783333D01*
X74980952Y-78735714D01*
X75028571Y-78688095D01*
X75076190Y-78592857D01*
X75076190Y-78211904D01*
X74552380Y-79116666D02*
X74552380Y-79783333D01*
X75552380Y-79354761D01*
X62102380Y-86533333D02*
X61626190Y-86200000D01*
X62102380Y-85961904D02*
X61102380Y-85961904D01*
X61102380Y-86342857D01*
X61150000Y-86438095D01*
X61197619Y-86485714D01*
X61292857Y-86533333D01*
X61435714Y-86533333D01*
X61530952Y-86485714D01*
X61578571Y-86438095D01*
X61626190Y-86342857D01*
X61626190Y-85961904D01*
X61102380Y-87438095D02*
X61102380Y-86961904D01*
X61578571Y-86914285D01*
X61530952Y-86961904D01*
X61483333Y-87057142D01*
X61483333Y-87295238D01*
X61530952Y-87390476D01*
X61578571Y-87438095D01*
X61673809Y-87485714D01*
X61911904Y-87485714D01*
X62007142Y-87438095D01*
X62054761Y-87390476D01*
X62102380Y-87295238D01*
X62102380Y-87057142D01*
X62054761Y-86961904D01*
X62007142Y-86914285D01*
X48552380Y-86653333D02*
X48076190Y-86320000D01*
X48552380Y-86081904D02*
X47552380Y-86081904D01*
X47552380Y-86462857D01*
X47600000Y-86558095D01*
X47647619Y-86605714D01*
X47742857Y-86653333D01*
X47885714Y-86653333D01*
X47980952Y-86605714D01*
X48028571Y-86558095D01*
X48076190Y-86462857D01*
X48076190Y-86081904D01*
X47552380Y-86986666D02*
X47552380Y-87605714D01*
X47933333Y-87272380D01*
X47933333Y-87415238D01*
X47980952Y-87510476D01*
X48028571Y-87558095D01*
X48123809Y-87605714D01*
X48361904Y-87605714D01*
X48457142Y-87558095D01*
X48504761Y-87510476D01*
X48552380Y-87415238D01*
X48552380Y-87129523D01*
X48504761Y-87034285D01*
X48457142Y-86986666D01*
X60882380Y-103173333D02*
X60406190Y-102840000D01*
X60882380Y-102601904D02*
X59882380Y-102601904D01*
X59882380Y-102982857D01*
X59930000Y-103078095D01*
X59977619Y-103125714D01*
X60072857Y-103173333D01*
X60215714Y-103173333D01*
X60310952Y-103125714D01*
X60358571Y-103078095D01*
X60406190Y-102982857D01*
X60406190Y-102601904D01*
X59977619Y-103554285D02*
X59930000Y-103601904D01*
X59882380Y-103697142D01*
X59882380Y-103935238D01*
X59930000Y-104030476D01*
X59977619Y-104078095D01*
X60072857Y-104125714D01*
X60168095Y-104125714D01*
X60310952Y-104078095D01*
X60882380Y-103506666D01*
X60882380Y-104125714D01*
X57062380Y-103183333D02*
X56586190Y-102850000D01*
X57062380Y-102611904D02*
X56062380Y-102611904D01*
X56062380Y-102992857D01*
X56110000Y-103088095D01*
X56157619Y-103135714D01*
X56252857Y-103183333D01*
X56395714Y-103183333D01*
X56490952Y-103135714D01*
X56538571Y-103088095D01*
X56586190Y-102992857D01*
X56586190Y-102611904D01*
X57062380Y-104135714D02*
X57062380Y-103564285D01*
X57062380Y-103850000D02*
X56062380Y-103850000D01*
X56205238Y-103754761D01*
X56300476Y-103659523D01*
X56348095Y-103564285D01*
X56332380Y-141617142D02*
X55856190Y-141283809D01*
X56332380Y-141045714D02*
X55332380Y-141045714D01*
X55332380Y-141426666D01*
X55380000Y-141521904D01*
X55427619Y-141569523D01*
X55522857Y-141617142D01*
X55665714Y-141617142D01*
X55760952Y-141569523D01*
X55808571Y-141521904D01*
X55856190Y-141426666D01*
X55856190Y-141045714D01*
X56332380Y-142569523D02*
X56332380Y-141998095D01*
X56332380Y-142283809D02*
X55332380Y-142283809D01*
X55475238Y-142188571D01*
X55570476Y-142093333D01*
X55618095Y-141998095D01*
X55665714Y-143426666D02*
X56332380Y-143426666D01*
X55284761Y-143188571D02*
X55999047Y-142950476D01*
X55999047Y-143569523D01*
X68112380Y-128137142D02*
X67636190Y-127803809D01*
X68112380Y-127565714D02*
X67112380Y-127565714D01*
X67112380Y-127946666D01*
X67160000Y-128041904D01*
X67207619Y-128089523D01*
X67302857Y-128137142D01*
X67445714Y-128137142D01*
X67540952Y-128089523D01*
X67588571Y-128041904D01*
X67636190Y-127946666D01*
X67636190Y-127565714D01*
X68112380Y-129089523D02*
X68112380Y-128518095D01*
X68112380Y-128803809D02*
X67112380Y-128803809D01*
X67255238Y-128708571D01*
X67350476Y-128613333D01*
X67398095Y-128518095D01*
X67112380Y-129994285D02*
X67112380Y-129518095D01*
X67588571Y-129470476D01*
X67540952Y-129518095D01*
X67493333Y-129613333D01*
X67493333Y-129851428D01*
X67540952Y-129946666D01*
X67588571Y-129994285D01*
X67683809Y-130041904D01*
X67921904Y-130041904D01*
X68017142Y-129994285D01*
X68064761Y-129946666D01*
X68112380Y-129851428D01*
X68112380Y-129613333D01*
X68064761Y-129518095D01*
X68017142Y-129470476D01*
M02*
