G04 #@! TF.GenerationSoftware,KiCad,Pcbnew,5.1.2-f72e74a~84~ubuntu16.04.1*
G04 #@! TF.CreationDate,2019-05-08T01:02:17+08:00*
G04 #@! TF.ProjectId,8Bit_EuroRack_7hp,38426974-5f45-4757-926f-5261636b5f37,rev?*
G04 #@! TF.SameCoordinates,Original*
G04 #@! TF.FileFunction,Soldermask,Top*
G04 #@! TF.FilePolarity,Negative*
%FSLAX46Y46*%
G04 Gerber Fmt 4.6, Leading zero omitted, Abs format (unit mm)*
G04 Created by KiCad (PCBNEW 5.1.2-f72e74a~84~ubuntu16.04.1) date 2019-05-08 01:02:17*
%MOMM*%
%LPD*%
G04 APERTURE LIST*
%ADD10C,0.010000*%
%ADD11C,1.720000*%
%ADD12O,1.720000X1.720000*%
%ADD13R,2.900000X1.400000*%
%ADD14C,2.279600*%
%ADD15C,2.400000*%
%ADD16O,3.200000X3.900000*%
%ADD17R,2.000000X2.580000*%
%ADD18R,1.920000X1.220000*%
%ADD19O,2.100000X2.100000*%
%ADD20R,2.100000X2.100000*%
%ADD21R,2.500000X1.900000*%
%ADD22R,2.700000X2.200000*%
%ADD23C,1.820000*%
%ADD24R,2.600000X1.600000*%
%ADD25R,6.800000X6.200000*%
%ADD26O,2.000000X2.000000*%
%ADD27R,2.000000X2.000000*%
G04 APERTURE END LIST*
D10*
G36*
X49584724Y-53389525D02*
G01*
X49588199Y-53608600D01*
X50019400Y-53608600D01*
X50019400Y-54040400D01*
X49587600Y-54040400D01*
X49587600Y-53608600D01*
X49142500Y-53608600D01*
X49149450Y-53170450D01*
X49581250Y-53170450D01*
X49584724Y-53389525D01*
X49584724Y-53389525D01*
G37*
X49584724Y-53389525D02*
X49588199Y-53608600D01*
X50019400Y-53608600D01*
X50019400Y-54040400D01*
X49587600Y-54040400D01*
X49587600Y-53608600D01*
X49142500Y-53608600D01*
X49149450Y-53170450D01*
X49581250Y-53170450D01*
X49584724Y-53389525D01*
G36*
X50019400Y-52300500D02*
G01*
X48711300Y-52300500D01*
X48711300Y-54916700D01*
X48492225Y-54916705D01*
X48273150Y-54916711D01*
X48276964Y-54262655D01*
X48280779Y-53608600D01*
X47835000Y-53608600D01*
X47835000Y-54040400D01*
X46958700Y-54040400D01*
X46958700Y-53608600D01*
X47834400Y-53608600D01*
X47841350Y-53170450D01*
X48279500Y-53163500D01*
X48279500Y-52300728D01*
X46965050Y-52294150D01*
X46965050Y-51862350D01*
X48492225Y-51859123D01*
X50019400Y-51855897D01*
X50019400Y-52300500D01*
X50019400Y-52300500D01*
G37*
X50019400Y-52300500D02*
X48711300Y-52300500D01*
X48711300Y-54916700D01*
X48492225Y-54916705D01*
X48273150Y-54916711D01*
X48276964Y-54262655D01*
X48280779Y-53608600D01*
X47835000Y-53608600D01*
X47835000Y-54040400D01*
X46958700Y-54040400D01*
X46958700Y-53608600D01*
X47834400Y-53608600D01*
X47841350Y-53170450D01*
X48279500Y-53163500D01*
X48279500Y-52300728D01*
X46965050Y-52294150D01*
X46965050Y-51862350D01*
X48492225Y-51859123D01*
X50019400Y-51855897D01*
X50019400Y-52300500D01*
G36*
X50032100Y-55793000D02*
G01*
X48711300Y-55793000D01*
X48711300Y-56656600D01*
X49587600Y-56656600D01*
X49587600Y-57101100D01*
X48711300Y-57101100D01*
X48711300Y-57964700D01*
X50032100Y-57964700D01*
X50032100Y-58409200D01*
X46958700Y-58409200D01*
X46958700Y-57964700D01*
X47390500Y-57964700D01*
X47390500Y-56656600D01*
X47847700Y-56656600D01*
X47847700Y-57964700D01*
X48266800Y-57964700D01*
X48266800Y-55793000D01*
X46958700Y-55793000D01*
X46958700Y-55348500D01*
X50032100Y-55348500D01*
X50032100Y-55793000D01*
X50032100Y-55793000D01*
G37*
X50032100Y-55793000D02*
X48711300Y-55793000D01*
X48711300Y-56656600D01*
X49587600Y-56656600D01*
X49587600Y-57101100D01*
X48711300Y-57101100D01*
X48711300Y-57964700D01*
X50032100Y-57964700D01*
X50032100Y-58409200D01*
X46958700Y-58409200D01*
X46958700Y-57964700D01*
X47390500Y-57964700D01*
X47390500Y-56656600D01*
X47847700Y-56656600D01*
X47847700Y-57964700D01*
X48266800Y-57964700D01*
X48266800Y-55793000D01*
X46958700Y-55793000D01*
X46958700Y-55348500D01*
X50032100Y-55348500D01*
X50032100Y-55793000D01*
G36*
X47847700Y-59272800D02*
G01*
X48266800Y-59272800D01*
X48266800Y-58841000D01*
X48711300Y-58841000D01*
X48711300Y-59272800D01*
X49143100Y-59272800D01*
X49143100Y-58841000D01*
X49587600Y-58841000D01*
X49587600Y-59272800D01*
X50032100Y-59272800D01*
X50032100Y-60161800D01*
X49574900Y-60161800D01*
X49574900Y-59730000D01*
X49155800Y-59730000D01*
X49155800Y-60580900D01*
X49587600Y-60580900D01*
X49587600Y-61469900D01*
X49143100Y-61469900D01*
X49143100Y-61038100D01*
X48711300Y-61038100D01*
X48711300Y-61901700D01*
X48266800Y-61901700D01*
X48266800Y-61038100D01*
X47847700Y-61038100D01*
X47847700Y-61469900D01*
X47390500Y-61469900D01*
X47390500Y-60580900D01*
X47835000Y-60580900D01*
X47835000Y-59730000D01*
X48279500Y-59730000D01*
X48279500Y-60149100D01*
X48698600Y-60149100D01*
X48698600Y-59730000D01*
X48279500Y-59730000D01*
X47835000Y-59730000D01*
X47403200Y-59730000D01*
X47403200Y-60161800D01*
X46958700Y-60161800D01*
X46958700Y-59272800D01*
X47390500Y-59272800D01*
X47390500Y-58841000D01*
X47847700Y-58841000D01*
X47847700Y-59272800D01*
X47847700Y-59272800D01*
G37*
X47847700Y-59272800D02*
X48266800Y-59272800D01*
X48266800Y-58841000D01*
X48711300Y-58841000D01*
X48711300Y-59272800D01*
X49143100Y-59272800D01*
X49143100Y-58841000D01*
X49587600Y-58841000D01*
X49587600Y-59272800D01*
X50032100Y-59272800D01*
X50032100Y-60161800D01*
X49574900Y-60161800D01*
X49574900Y-59730000D01*
X49155800Y-59730000D01*
X49155800Y-60580900D01*
X49587600Y-60580900D01*
X49587600Y-61469900D01*
X49143100Y-61469900D01*
X49143100Y-61038100D01*
X48711300Y-61038100D01*
X48711300Y-61901700D01*
X48266800Y-61901700D01*
X48266800Y-61038100D01*
X47847700Y-61038100D01*
X47847700Y-61469900D01*
X47390500Y-61469900D01*
X47390500Y-60580900D01*
X47835000Y-60580900D01*
X47835000Y-59730000D01*
X48279500Y-59730000D01*
X48279500Y-60149100D01*
X48698600Y-60149100D01*
X48698600Y-59730000D01*
X48279500Y-59730000D01*
X47835000Y-59730000D01*
X47403200Y-59730000D01*
X47403200Y-60161800D01*
X46958700Y-60161800D01*
X46958700Y-59272800D01*
X47390500Y-59272800D01*
X47390500Y-58841000D01*
X47847700Y-58841000D01*
X47847700Y-59272800D01*
G36*
X50032100Y-63222500D02*
G01*
X49587600Y-63222500D01*
X49587600Y-63641600D01*
X50032100Y-63641600D01*
X50032100Y-64530600D01*
X49587600Y-64530600D01*
X49587600Y-65394200D01*
X49143100Y-65394200D01*
X49143100Y-64962400D01*
X47847700Y-64962400D01*
X47847700Y-65394200D01*
X47390500Y-65394200D01*
X47390500Y-64530600D01*
X46958700Y-64530600D01*
X46958700Y-63641600D01*
X47390500Y-63641600D01*
X47390500Y-63222500D01*
X46958700Y-63222500D01*
X46958700Y-62778000D01*
X47847700Y-62778000D01*
X47847700Y-64517900D01*
X48266800Y-64517900D01*
X48266800Y-64086100D01*
X48711300Y-64086100D01*
X48711300Y-64517900D01*
X49143100Y-64517900D01*
X49143100Y-64086100D01*
X48711300Y-64086100D01*
X48266800Y-64086100D01*
X48266800Y-62778000D01*
X48711300Y-62778000D01*
X48711300Y-63209800D01*
X49143100Y-63209800D01*
X49143100Y-62778000D01*
X48711300Y-62778000D01*
X48266800Y-62778000D01*
X47847700Y-62778000D01*
X46958700Y-62778000D01*
X46958700Y-62765300D01*
X47390500Y-62765300D01*
X47390500Y-62333500D01*
X50032100Y-62333500D01*
X50032100Y-63222500D01*
X50032100Y-63222500D01*
G37*
X50032100Y-63222500D02*
X49587600Y-63222500D01*
X49587600Y-63641600D01*
X50032100Y-63641600D01*
X50032100Y-64530600D01*
X49587600Y-64530600D01*
X49587600Y-65394200D01*
X49143100Y-65394200D01*
X49143100Y-64962400D01*
X47847700Y-64962400D01*
X47847700Y-65394200D01*
X47390500Y-65394200D01*
X47390500Y-64530600D01*
X46958700Y-64530600D01*
X46958700Y-63641600D01*
X47390500Y-63641600D01*
X47390500Y-63222500D01*
X46958700Y-63222500D01*
X46958700Y-62778000D01*
X47847700Y-62778000D01*
X47847700Y-64517900D01*
X48266800Y-64517900D01*
X48266800Y-64086100D01*
X48711300Y-64086100D01*
X48711300Y-64517900D01*
X49143100Y-64517900D01*
X49143100Y-64086100D01*
X48711300Y-64086100D01*
X48266800Y-64086100D01*
X48266800Y-62778000D01*
X48711300Y-62778000D01*
X48711300Y-63209800D01*
X49143100Y-63209800D01*
X49143100Y-62778000D01*
X48711300Y-62778000D01*
X48266800Y-62778000D01*
X47847700Y-62778000D01*
X46958700Y-62778000D01*
X46958700Y-62765300D01*
X47390500Y-62765300D01*
X47390500Y-62333500D01*
X50032100Y-62333500D01*
X50032100Y-63222500D01*
G36*
X49587600Y-66270500D02*
G01*
X49155800Y-66270500D01*
X49155800Y-66715000D01*
X48711300Y-66715000D01*
X48711300Y-67134100D01*
X50032100Y-67134100D01*
X50032100Y-67578600D01*
X48711300Y-67578600D01*
X48711300Y-68886700D01*
X47835000Y-68886700D01*
X47835000Y-68442200D01*
X48266800Y-68442200D01*
X48266800Y-67578600D01*
X46958700Y-67578600D01*
X46958700Y-67134100D01*
X48266800Y-67134100D01*
X48266800Y-66702300D01*
X48698600Y-66702300D01*
X48698600Y-66270500D01*
X47390500Y-66270500D01*
X47390500Y-65826000D01*
X49587600Y-65826000D01*
X49587600Y-66270500D01*
X49587600Y-66270500D01*
G37*
X49587600Y-66270500D02*
X49155800Y-66270500D01*
X49155800Y-66715000D01*
X48711300Y-66715000D01*
X48711300Y-67134100D01*
X50032100Y-67134100D01*
X50032100Y-67578600D01*
X48711300Y-67578600D01*
X48711300Y-68886700D01*
X47835000Y-68886700D01*
X47835000Y-68442200D01*
X48266800Y-68442200D01*
X48266800Y-67578600D01*
X46958700Y-67578600D01*
X46958700Y-67134100D01*
X48266800Y-67134100D01*
X48266800Y-66702300D01*
X48698600Y-66702300D01*
X48698600Y-66270500D01*
X47390500Y-66270500D01*
X47390500Y-65826000D01*
X49587600Y-65826000D01*
X49587600Y-66270500D01*
G36*
X50032100Y-72379200D02*
G01*
X49574900Y-72379200D01*
X49574900Y-71071100D01*
X49155800Y-71071100D01*
X49155800Y-71947400D01*
X48711300Y-71947400D01*
X48711300Y-72379200D01*
X48266800Y-72379200D01*
X48266800Y-71947400D01*
X47390500Y-71947400D01*
X47390500Y-71071100D01*
X48279500Y-71071100D01*
X48279500Y-71934700D01*
X48698600Y-71934700D01*
X48698600Y-71071100D01*
X48279500Y-71071100D01*
X47390500Y-71071100D01*
X46958700Y-71071100D01*
X46958700Y-70639300D01*
X47403200Y-70639300D01*
X47403200Y-71058400D01*
X48266800Y-71058400D01*
X48266800Y-70626600D01*
X48698600Y-70626600D01*
X48698600Y-69763000D01*
X49155800Y-69763000D01*
X49155800Y-70626600D01*
X49574900Y-70626600D01*
X49574900Y-69763000D01*
X49155800Y-69763000D01*
X48698600Y-69763000D01*
X47847700Y-69763000D01*
X47847700Y-70639300D01*
X47403200Y-70639300D01*
X46958700Y-70639300D01*
X46958700Y-70626600D01*
X47390500Y-70626600D01*
X47390500Y-69763000D01*
X46958700Y-69763000D01*
X46958700Y-69318500D01*
X50032100Y-69318500D01*
X50032100Y-72379200D01*
X50032100Y-72379200D01*
G37*
X50032100Y-72379200D02*
X49574900Y-72379200D01*
X49574900Y-71071100D01*
X49155800Y-71071100D01*
X49155800Y-71947400D01*
X48711300Y-71947400D01*
X48711300Y-72379200D01*
X48266800Y-72379200D01*
X48266800Y-71947400D01*
X47390500Y-71947400D01*
X47390500Y-71071100D01*
X48279500Y-71071100D01*
X48279500Y-71934700D01*
X48698600Y-71934700D01*
X48698600Y-71071100D01*
X48279500Y-71071100D01*
X47390500Y-71071100D01*
X46958700Y-71071100D01*
X46958700Y-70639300D01*
X47403200Y-70639300D01*
X47403200Y-71058400D01*
X48266800Y-71058400D01*
X48266800Y-70626600D01*
X48698600Y-70626600D01*
X48698600Y-69763000D01*
X49155800Y-69763000D01*
X49155800Y-70626600D01*
X49574900Y-70626600D01*
X49574900Y-69763000D01*
X49155800Y-69763000D01*
X48698600Y-69763000D01*
X47847700Y-69763000D01*
X47847700Y-70639300D01*
X47403200Y-70639300D01*
X46958700Y-70639300D01*
X46958700Y-70626600D01*
X47390500Y-70626600D01*
X47390500Y-69763000D01*
X46958700Y-69763000D01*
X46958700Y-69318500D01*
X50032100Y-69318500D01*
X50032100Y-72379200D01*
G36*
X48711300Y-73242800D02*
G01*
X50032100Y-73242800D01*
X50032100Y-74131800D01*
X49587600Y-74131800D01*
X49587600Y-74563600D01*
X49155800Y-74563600D01*
X49155800Y-75427200D01*
X49574900Y-75427200D01*
X49574900Y-74995400D01*
X50032100Y-74995400D01*
X50032100Y-75871700D01*
X48698600Y-75871700D01*
X48698600Y-75008100D01*
X48279500Y-75008100D01*
X48279500Y-75439900D01*
X47847700Y-75439900D01*
X47847700Y-75871700D01*
X46958700Y-75871700D01*
X46958700Y-75427200D01*
X47835000Y-75427200D01*
X47835000Y-75008100D01*
X46958700Y-75008100D01*
X46958700Y-74550900D01*
X47390500Y-74550900D01*
X47390500Y-74131800D01*
X47847700Y-74131800D01*
X47847700Y-74550900D01*
X48698600Y-74550900D01*
X48698600Y-73700000D01*
X49155800Y-73700000D01*
X49155800Y-74119100D01*
X49574900Y-74119100D01*
X49574900Y-73700000D01*
X49155800Y-73700000D01*
X48698600Y-73700000D01*
X48279500Y-73700000D01*
X48279500Y-74131800D01*
X47847700Y-74131800D01*
X47390500Y-74131800D01*
X46958700Y-74131800D01*
X46958700Y-73700000D01*
X47403200Y-73700000D01*
X47403200Y-74119100D01*
X47835000Y-74119100D01*
X47835000Y-73700000D01*
X47403200Y-73700000D01*
X46958700Y-73700000D01*
X46958700Y-73242800D01*
X48266800Y-73242800D01*
X48266800Y-72811000D01*
X48711300Y-72811000D01*
X48711300Y-73242800D01*
X48711300Y-73242800D01*
G37*
X48711300Y-73242800D02*
X50032100Y-73242800D01*
X50032100Y-74131800D01*
X49587600Y-74131800D01*
X49587600Y-74563600D01*
X49155800Y-74563600D01*
X49155800Y-75427200D01*
X49574900Y-75427200D01*
X49574900Y-74995400D01*
X50032100Y-74995400D01*
X50032100Y-75871700D01*
X48698600Y-75871700D01*
X48698600Y-75008100D01*
X48279500Y-75008100D01*
X48279500Y-75439900D01*
X47847700Y-75439900D01*
X47847700Y-75871700D01*
X46958700Y-75871700D01*
X46958700Y-75427200D01*
X47835000Y-75427200D01*
X47835000Y-75008100D01*
X46958700Y-75008100D01*
X46958700Y-74550900D01*
X47390500Y-74550900D01*
X47390500Y-74131800D01*
X47847700Y-74131800D01*
X47847700Y-74550900D01*
X48698600Y-74550900D01*
X48698600Y-73700000D01*
X49155800Y-73700000D01*
X49155800Y-74119100D01*
X49574900Y-74119100D01*
X49574900Y-73700000D01*
X49155800Y-73700000D01*
X48698600Y-73700000D01*
X48279500Y-73700000D01*
X48279500Y-74131800D01*
X47847700Y-74131800D01*
X47390500Y-74131800D01*
X46958700Y-74131800D01*
X46958700Y-73700000D01*
X47403200Y-73700000D01*
X47403200Y-74119100D01*
X47835000Y-74119100D01*
X47835000Y-73700000D01*
X47403200Y-73700000D01*
X46958700Y-73700000D01*
X46958700Y-73242800D01*
X48266800Y-73242800D01*
X48266800Y-72811000D01*
X48711300Y-72811000D01*
X48711300Y-73242800D01*
G36*
X48711300Y-76735300D02*
G01*
X50032100Y-76735300D01*
X50032100Y-78500600D01*
X48711300Y-78500600D01*
X48711300Y-79364200D01*
X48266800Y-79364200D01*
X48266800Y-78500600D01*
X46958700Y-78500600D01*
X46958700Y-77192500D01*
X47403200Y-77192500D01*
X47403200Y-78043400D01*
X48266800Y-78043400D01*
X48266800Y-77192500D01*
X48711300Y-77192500D01*
X48711300Y-78043400D01*
X49574900Y-78043400D01*
X49574900Y-77192500D01*
X48711300Y-77192500D01*
X48266800Y-77192500D01*
X47403200Y-77192500D01*
X46958700Y-77192500D01*
X46958700Y-76735300D01*
X48266800Y-76735300D01*
X48266800Y-76303500D01*
X48711300Y-76303500D01*
X48711300Y-76735300D01*
X48711300Y-76735300D01*
G37*
X48711300Y-76735300D02*
X50032100Y-76735300D01*
X50032100Y-78500600D01*
X48711300Y-78500600D01*
X48711300Y-79364200D01*
X48266800Y-79364200D01*
X48266800Y-78500600D01*
X46958700Y-78500600D01*
X46958700Y-77192500D01*
X47403200Y-77192500D01*
X47403200Y-78043400D01*
X48266800Y-78043400D01*
X48266800Y-77192500D01*
X48711300Y-77192500D01*
X48711300Y-78043400D01*
X49574900Y-78043400D01*
X49574900Y-77192500D01*
X48711300Y-77192500D01*
X48266800Y-77192500D01*
X47403200Y-77192500D01*
X46958700Y-77192500D01*
X46958700Y-76735300D01*
X48266800Y-76735300D01*
X48266800Y-76303500D01*
X48711300Y-76303500D01*
X48711300Y-76735300D01*
G36*
X48279500Y-80227800D02*
G01*
X48711300Y-80227800D01*
X48711300Y-80685000D01*
X48279500Y-80685000D01*
X48279500Y-82412200D01*
X49143100Y-82412200D01*
X49143100Y-81980400D01*
X49574900Y-81980400D01*
X49574900Y-81548600D01*
X49143100Y-81548600D01*
X49143100Y-81104100D01*
X49587600Y-81104100D01*
X49587600Y-81535900D01*
X50032100Y-81535900D01*
X50032100Y-81993100D01*
X49587600Y-81993100D01*
X49587600Y-82856700D01*
X47835000Y-82856700D01*
X47835000Y-81993100D01*
X47403200Y-81993100D01*
X47403200Y-82424900D01*
X46958700Y-82424900D01*
X46958700Y-81980400D01*
X47390500Y-81980400D01*
X47390500Y-81104100D01*
X47835000Y-81104100D01*
X47835000Y-80672300D01*
X48266800Y-80672300D01*
X48266800Y-80240500D01*
X47835000Y-80240500D01*
X47835000Y-79796000D01*
X48279500Y-79796000D01*
X48279500Y-80227800D01*
X48279500Y-80227800D01*
G37*
X48279500Y-80227800D02*
X48711300Y-80227800D01*
X48711300Y-80685000D01*
X48279500Y-80685000D01*
X48279500Y-82412200D01*
X49143100Y-82412200D01*
X49143100Y-81980400D01*
X49574900Y-81980400D01*
X49574900Y-81548600D01*
X49143100Y-81548600D01*
X49143100Y-81104100D01*
X49587600Y-81104100D01*
X49587600Y-81535900D01*
X50032100Y-81535900D01*
X50032100Y-81993100D01*
X49587600Y-81993100D01*
X49587600Y-82856700D01*
X47835000Y-82856700D01*
X47835000Y-81993100D01*
X47403200Y-81993100D01*
X47403200Y-82424900D01*
X46958700Y-82424900D01*
X46958700Y-81980400D01*
X47390500Y-81980400D01*
X47390500Y-81104100D01*
X47835000Y-81104100D01*
X47835000Y-80672300D01*
X48266800Y-80672300D01*
X48266800Y-80240500D01*
X47835000Y-80240500D01*
X47835000Y-79796000D01*
X48279500Y-79796000D01*
X48279500Y-80227800D01*
G36*
X73461440Y-65415354D02*
G01*
X73492456Y-65406267D01*
X73541871Y-65393556D01*
X73606438Y-65377930D01*
X73682911Y-65360099D01*
X73768040Y-65340772D01*
X73858579Y-65320659D01*
X73951281Y-65300470D01*
X74042898Y-65280913D01*
X74130183Y-65262699D01*
X74209888Y-65246538D01*
X74278766Y-65233137D01*
X74333570Y-65223208D01*
X74371052Y-65217460D01*
X74384822Y-65216300D01*
X74388461Y-65228291D01*
X74391575Y-65261430D01*
X74393939Y-65311466D01*
X74395327Y-65374150D01*
X74395600Y-65419500D01*
X74395359Y-65488110D01*
X74394695Y-65546825D01*
X74393692Y-65591394D01*
X74392436Y-65617567D01*
X74391527Y-65622700D01*
X74371803Y-65620102D01*
X74331361Y-65612791D01*
X74273571Y-65601494D01*
X74201803Y-65586938D01*
X74119428Y-65569850D01*
X74029815Y-65550957D01*
X73936335Y-65530985D01*
X73842358Y-65510662D01*
X73751255Y-65490713D01*
X73666395Y-65471866D01*
X73591149Y-65454848D01*
X73528887Y-65440385D01*
X73482980Y-65429204D01*
X73456796Y-65422032D01*
X73452071Y-65420106D01*
X73461440Y-65415354D01*
X73461440Y-65415354D01*
G37*
X73461440Y-65415354D02*
X73492456Y-65406267D01*
X73541871Y-65393556D01*
X73606438Y-65377930D01*
X73682911Y-65360099D01*
X73768040Y-65340772D01*
X73858579Y-65320659D01*
X73951281Y-65300470D01*
X74042898Y-65280913D01*
X74130183Y-65262699D01*
X74209888Y-65246538D01*
X74278766Y-65233137D01*
X74333570Y-65223208D01*
X74371052Y-65217460D01*
X74384822Y-65216300D01*
X74388461Y-65228291D01*
X74391575Y-65261430D01*
X74393939Y-65311466D01*
X74395327Y-65374150D01*
X74395600Y-65419500D01*
X74395359Y-65488110D01*
X74394695Y-65546825D01*
X74393692Y-65591394D01*
X74392436Y-65617567D01*
X74391527Y-65622700D01*
X74371803Y-65620102D01*
X74331361Y-65612791D01*
X74273571Y-65601494D01*
X74201803Y-65586938D01*
X74119428Y-65569850D01*
X74029815Y-65550957D01*
X73936335Y-65530985D01*
X73842358Y-65510662D01*
X73751255Y-65490713D01*
X73666395Y-65471866D01*
X73591149Y-65454848D01*
X73528887Y-65440385D01*
X73482980Y-65429204D01*
X73456796Y-65422032D01*
X73452071Y-65420106D01*
X73461440Y-65415354D01*
G36*
X73468454Y-69438937D02*
G01*
X73505795Y-69428884D01*
X73560945Y-69415585D01*
X73630542Y-69399729D01*
X73711228Y-69382006D01*
X73799641Y-69363106D01*
X73892423Y-69343719D01*
X73986212Y-69324533D01*
X74077649Y-69306239D01*
X74163375Y-69289527D01*
X74240028Y-69275086D01*
X74304249Y-69263605D01*
X74352678Y-69255775D01*
X74381955Y-69252285D01*
X74389209Y-69252743D01*
X74391418Y-69267013D01*
X74393296Y-69302149D01*
X74394699Y-69353616D01*
X74395484Y-69416880D01*
X74395600Y-69453867D01*
X74395152Y-69531069D01*
X74393628Y-69586008D01*
X74390756Y-69621807D01*
X74386266Y-69641592D01*
X74379886Y-69648485D01*
X74378700Y-69648600D01*
X74354442Y-69646026D01*
X74310758Y-69638778D01*
X74250899Y-69627572D01*
X74178118Y-69613123D01*
X74095669Y-69596145D01*
X74006805Y-69577354D01*
X73914779Y-69557463D01*
X73822843Y-69537187D01*
X73734251Y-69517242D01*
X73652256Y-69498341D01*
X73580111Y-69481201D01*
X73521069Y-69466534D01*
X73478382Y-69455057D01*
X73455305Y-69447484D01*
X73452280Y-69445054D01*
X73468454Y-69438937D01*
X73468454Y-69438937D01*
G37*
X73468454Y-69438937D02*
X73505795Y-69428884D01*
X73560945Y-69415585D01*
X73630542Y-69399729D01*
X73711228Y-69382006D01*
X73799641Y-69363106D01*
X73892423Y-69343719D01*
X73986212Y-69324533D01*
X74077649Y-69306239D01*
X74163375Y-69289527D01*
X74240028Y-69275086D01*
X74304249Y-69263605D01*
X74352678Y-69255775D01*
X74381955Y-69252285D01*
X74389209Y-69252743D01*
X74391418Y-69267013D01*
X74393296Y-69302149D01*
X74394699Y-69353616D01*
X74395484Y-69416880D01*
X74395600Y-69453867D01*
X74395152Y-69531069D01*
X74393628Y-69586008D01*
X74390756Y-69621807D01*
X74386266Y-69641592D01*
X74379886Y-69648485D01*
X74378700Y-69648600D01*
X74354442Y-69646026D01*
X74310758Y-69638778D01*
X74250899Y-69627572D01*
X74178118Y-69613123D01*
X74095669Y-69596145D01*
X74006805Y-69577354D01*
X73914779Y-69557463D01*
X73822843Y-69537187D01*
X73734251Y-69517242D01*
X73652256Y-69498341D01*
X73580111Y-69481201D01*
X73521069Y-69466534D01*
X73478382Y-69455057D01*
X73455305Y-69447484D01*
X73452280Y-69445054D01*
X73468454Y-69438937D01*
G36*
X73544700Y-77907249D02*
G01*
X73596326Y-77895312D01*
X73663248Y-77880504D01*
X73741815Y-77863570D01*
X73828379Y-77845256D01*
X73919289Y-77826307D01*
X74010898Y-77807468D01*
X74099554Y-77789485D01*
X74181609Y-77773104D01*
X74253414Y-77759069D01*
X74311319Y-77748127D01*
X74351674Y-77741022D01*
X74370805Y-77738500D01*
X74380207Y-77739842D01*
X74386877Y-77746338D01*
X74391281Y-77761695D01*
X74393888Y-77789622D01*
X74395162Y-77833824D01*
X74395573Y-77898010D01*
X74395600Y-77935350D01*
X74395499Y-78009875D01*
X74394835Y-78062724D01*
X74393068Y-78097623D01*
X74389657Y-78118296D01*
X74384059Y-78128467D01*
X74375734Y-78131861D01*
X74367000Y-78132200D01*
X74344404Y-78129571D01*
X74300402Y-78122142D01*
X74238388Y-78110602D01*
X74161755Y-78095637D01*
X74073898Y-78077936D01*
X73978210Y-78058187D01*
X73878084Y-78037078D01*
X73776916Y-78015297D01*
X73678099Y-77993532D01*
X73633600Y-77983541D01*
X73424050Y-77936175D01*
X73544700Y-77907249D01*
X73544700Y-77907249D01*
G37*
X73544700Y-77907249D02*
X73596326Y-77895312D01*
X73663248Y-77880504D01*
X73741815Y-77863570D01*
X73828379Y-77845256D01*
X73919289Y-77826307D01*
X74010898Y-77807468D01*
X74099554Y-77789485D01*
X74181609Y-77773104D01*
X74253414Y-77759069D01*
X74311319Y-77748127D01*
X74351674Y-77741022D01*
X74370805Y-77738500D01*
X74380207Y-77739842D01*
X74386877Y-77746338D01*
X74391281Y-77761695D01*
X74393888Y-77789622D01*
X74395162Y-77833824D01*
X74395573Y-77898010D01*
X74395600Y-77935350D01*
X74395499Y-78009875D01*
X74394835Y-78062724D01*
X74393068Y-78097623D01*
X74389657Y-78118296D01*
X74384059Y-78128467D01*
X74375734Y-78131861D01*
X74367000Y-78132200D01*
X74344404Y-78129571D01*
X74300402Y-78122142D01*
X74238388Y-78110602D01*
X74161755Y-78095637D01*
X74073898Y-78077936D01*
X73978210Y-78058187D01*
X73878084Y-78037078D01*
X73776916Y-78015297D01*
X73678099Y-77993532D01*
X73633600Y-77983541D01*
X73424050Y-77936175D01*
X73544700Y-77907249D01*
G36*
X73217063Y-76617725D02*
G01*
X73228079Y-76513603D01*
X73252225Y-76427206D01*
X73291596Y-76356192D01*
X73348289Y-76298217D01*
X73424400Y-76250940D01*
X73522025Y-76212015D01*
X73600094Y-76189549D01*
X73670610Y-76175310D01*
X73760196Y-76163009D01*
X73862567Y-76153090D01*
X73971439Y-76145997D01*
X74080525Y-76142173D01*
X74183541Y-76142063D01*
X74243200Y-76144136D01*
X74407822Y-76156867D01*
X74549248Y-76176955D01*
X74668748Y-76204942D01*
X74767593Y-76241369D01*
X74847055Y-76286777D01*
X74908404Y-76341708D01*
X74952912Y-76406703D01*
X74973580Y-76455089D01*
X74983829Y-76495941D01*
X74992338Y-76549755D01*
X74998393Y-76608377D01*
X75001281Y-76663651D01*
X75000287Y-76707423D01*
X74997272Y-76725675D01*
X74994832Y-76729975D01*
X74989095Y-76733683D01*
X74978307Y-76736844D01*
X74960712Y-76739500D01*
X74934556Y-76741695D01*
X74898084Y-76743473D01*
X74849542Y-76744878D01*
X74787175Y-76745952D01*
X74709228Y-76746739D01*
X74613947Y-76747283D01*
X74499576Y-76747628D01*
X74364362Y-76747816D01*
X74206550Y-76747891D01*
X74100904Y-76747900D01*
X73211170Y-76747900D01*
X73217063Y-76617725D01*
X73217063Y-76617725D01*
G37*
X73217063Y-76617725D02*
X73228079Y-76513603D01*
X73252225Y-76427206D01*
X73291596Y-76356192D01*
X73348289Y-76298217D01*
X73424400Y-76250940D01*
X73522025Y-76212015D01*
X73600094Y-76189549D01*
X73670610Y-76175310D01*
X73760196Y-76163009D01*
X73862567Y-76153090D01*
X73971439Y-76145997D01*
X74080525Y-76142173D01*
X74183541Y-76142063D01*
X74243200Y-76144136D01*
X74407822Y-76156867D01*
X74549248Y-76176955D01*
X74668748Y-76204942D01*
X74767593Y-76241369D01*
X74847055Y-76286777D01*
X74908404Y-76341708D01*
X74952912Y-76406703D01*
X74973580Y-76455089D01*
X74983829Y-76495941D01*
X74992338Y-76549755D01*
X74998393Y-76608377D01*
X75001281Y-76663651D01*
X75000287Y-76707423D01*
X74997272Y-76725675D01*
X74994832Y-76729975D01*
X74989095Y-76733683D01*
X74978307Y-76736844D01*
X74960712Y-76739500D01*
X74934556Y-76741695D01*
X74898084Y-76743473D01*
X74849542Y-76744878D01*
X74787175Y-76745952D01*
X74709228Y-76746739D01*
X74613947Y-76747283D01*
X74499576Y-76747628D01*
X74364362Y-76747816D01*
X74206550Y-76747891D01*
X74100904Y-76747900D01*
X73211170Y-76747900D01*
X73217063Y-76617725D01*
G36*
X75957700Y-62612800D02*
G01*
X75957700Y-81256400D01*
X75336235Y-81256400D01*
X75336235Y-78592784D01*
X75332642Y-78442508D01*
X75329050Y-78292233D01*
X75043300Y-78250379D01*
X74960391Y-78238076D01*
X74885503Y-78226661D01*
X74822438Y-78216738D01*
X74774995Y-78208911D01*
X74746977Y-78203783D01*
X74741416Y-78202412D01*
X74735807Y-78194538D01*
X74731780Y-78174031D01*
X74729208Y-78138244D01*
X74727968Y-78084530D01*
X74727935Y-78010241D01*
X74728716Y-77932572D01*
X74732150Y-77668846D01*
X75033768Y-77624298D01*
X75335387Y-77579750D01*
X75335393Y-77423166D01*
X75335400Y-77266582D01*
X75300475Y-77273430D01*
X75278337Y-77277505D01*
X75235160Y-77285228D01*
X75174931Y-77295894D01*
X75101634Y-77308798D01*
X75019256Y-77323236D01*
X74967100Y-77332347D01*
X74602412Y-77398156D01*
X74254251Y-77465649D01*
X73913745Y-77536675D01*
X73572022Y-77613084D01*
X73223643Y-77695888D01*
X72923414Y-77769176D01*
X72923414Y-77065531D01*
X74106624Y-77062291D01*
X75289834Y-77059050D01*
X75306655Y-77001900D01*
X75337651Y-76869808D01*
X75354858Y-76734759D01*
X75357806Y-76603998D01*
X75346024Y-76484767D01*
X75341694Y-76462150D01*
X75302752Y-76334140D01*
X75242682Y-76220167D01*
X75161585Y-76120327D01*
X75059565Y-76034714D01*
X74936723Y-75963424D01*
X74793162Y-75906552D01*
X74719412Y-75885053D01*
X74612377Y-75860366D01*
X74502514Y-75842292D01*
X74384884Y-75830402D01*
X74254550Y-75824265D01*
X74106575Y-75823453D01*
X74027300Y-75824841D01*
X73878777Y-75830390D01*
X73750673Y-75839955D01*
X73638218Y-75854298D01*
X73536638Y-75874180D01*
X73441164Y-75900364D01*
X73347850Y-75933288D01*
X73216328Y-75995905D01*
X73103954Y-76073608D01*
X73011562Y-76165483D01*
X72939984Y-76270618D01*
X72890054Y-76388099D01*
X72884300Y-76410121D01*
X72884300Y-75503300D01*
X75335400Y-75503300D01*
X75335400Y-74563500D01*
X74992500Y-74563500D01*
X74992500Y-75198500D01*
X74217800Y-75198500D01*
X74217800Y-74665100D01*
X73874900Y-74665100D01*
X73874900Y-75198500D01*
X73227200Y-75198500D01*
X73227200Y-74601600D01*
X72884300Y-74601600D01*
X72884300Y-73763400D01*
X75335400Y-73763400D01*
X75335400Y-73445900D01*
X72884300Y-73445900D01*
X72884300Y-73064900D01*
X75335400Y-73064900D01*
X75335400Y-72772982D01*
X73652650Y-72766450D01*
X73881003Y-72672799D01*
X74043127Y-72607594D01*
X74223125Y-72537476D01*
X74414548Y-72464854D01*
X74610949Y-72392139D01*
X74805881Y-72321744D01*
X74992897Y-72256078D01*
X75024250Y-72245280D01*
X75329050Y-72140637D01*
X75332669Y-72012219D01*
X75336288Y-71883800D01*
X72884300Y-71883800D01*
X72884300Y-71172600D01*
X73227200Y-71172600D01*
X73227200Y-70753500D01*
X75335400Y-70753500D01*
X75335400Y-70448700D01*
X75325875Y-70448700D01*
X75325875Y-70105789D01*
X75329578Y-70093919D01*
X75332609Y-70061597D01*
X75334654Y-70013768D01*
X75335400Y-69955738D01*
X75335400Y-69805676D01*
X75047385Y-69763971D01*
X74964086Y-69751740D01*
X74888760Y-69740358D01*
X74825204Y-69730426D01*
X74777213Y-69722543D01*
X74748583Y-69717309D01*
X74742585Y-69715824D01*
X74736701Y-69708261D01*
X74732281Y-69688857D01*
X74729153Y-69654857D01*
X74727144Y-69603508D01*
X74726084Y-69532055D01*
X74725800Y-69446160D01*
X74725800Y-69182938D01*
X75002025Y-69142276D01*
X75084462Y-69130054D01*
X75159744Y-69118731D01*
X75223768Y-69108937D01*
X75272435Y-69101301D01*
X75301643Y-69096453D01*
X75306825Y-69095465D01*
X75318884Y-69091750D01*
X75326964Y-69083824D01*
X75331859Y-69067278D01*
X75334366Y-69037703D01*
X75335280Y-68990689D01*
X75335400Y-68937159D01*
X75334803Y-68870246D01*
X75332744Y-68825186D01*
X75328825Y-68798455D01*
X75322643Y-68786527D01*
X75318105Y-68785000D01*
X75299303Y-68787244D01*
X75258545Y-68793619D01*
X75198843Y-68803592D01*
X75123209Y-68816631D01*
X75034653Y-68832203D01*
X74936189Y-68849773D01*
X74830828Y-68868811D01*
X74721581Y-68888781D01*
X74611460Y-68909152D01*
X74522600Y-68925786D01*
X74342830Y-68960711D01*
X74145216Y-69001025D01*
X73936378Y-69045290D01*
X73722936Y-69092069D01*
X73511510Y-69139921D01*
X73308721Y-69187411D01*
X73220850Y-69208571D01*
X72890650Y-69288850D01*
X72887088Y-69442732D01*
X72884300Y-69563210D01*
X72884300Y-68569100D01*
X75335400Y-68569100D01*
X75335400Y-68264300D01*
X72909782Y-68264300D01*
X72909782Y-67997600D01*
X72934067Y-67996233D01*
X72980352Y-67992359D01*
X73045398Y-67986317D01*
X73125965Y-67978447D01*
X73218814Y-67969090D01*
X73320704Y-67958585D01*
X73428396Y-67947273D01*
X73538651Y-67935493D01*
X73648229Y-67923586D01*
X73753890Y-67911891D01*
X73852394Y-67900748D01*
X73940503Y-67890498D01*
X74008250Y-67882316D01*
X74109789Y-67869282D01*
X74221778Y-67854081D01*
X74341318Y-67837173D01*
X74465507Y-67819020D01*
X74591445Y-67800082D01*
X74716232Y-67780822D01*
X74836967Y-67761699D01*
X74950750Y-67743176D01*
X75054680Y-67725712D01*
X75145858Y-67709769D01*
X75221381Y-67695809D01*
X75278351Y-67684291D01*
X75313867Y-67675678D01*
X75319525Y-67673867D01*
X75327059Y-67662569D01*
X75332033Y-67633313D01*
X75334716Y-67583516D01*
X75335400Y-67522605D01*
X75334975Y-67459093D01*
X75333274Y-67416570D01*
X75329650Y-67390629D01*
X75323462Y-67376868D01*
X75314063Y-67370881D01*
X75313175Y-67370613D01*
X75268289Y-67358784D01*
X75201506Y-67342691D01*
X75115849Y-67322973D01*
X75014343Y-67300273D01*
X74900011Y-67275231D01*
X74775878Y-67248490D01*
X74644967Y-67220690D01*
X74510303Y-67192473D01*
X74374910Y-67164480D01*
X74241811Y-67137353D01*
X74114031Y-67111733D01*
X73994594Y-67088262D01*
X73886523Y-67067580D01*
X73868550Y-67064211D01*
X73854828Y-67060689D01*
X73851828Y-67056550D01*
X73861829Y-67051170D01*
X73887109Y-67043921D01*
X73929948Y-67034178D01*
X73992625Y-67021314D01*
X74077420Y-67004704D01*
X74103500Y-66999669D01*
X74244141Y-66972056D01*
X74395119Y-66941492D01*
X74550939Y-66909151D01*
X74706105Y-66876203D01*
X74855124Y-66843822D01*
X74992500Y-66813180D01*
X75112739Y-66785450D01*
X75157600Y-66774762D01*
X75329050Y-66733420D01*
X75332619Y-66585443D01*
X75336189Y-66437465D01*
X75318939Y-66434054D01*
X75318939Y-66072933D01*
X75327030Y-66068829D01*
X75331910Y-66055420D01*
X75334390Y-66028570D01*
X75335283Y-65984144D01*
X75335400Y-65926315D01*
X75335400Y-65776251D01*
X75294125Y-65769066D01*
X75268152Y-65764938D01*
X75222088Y-65758008D01*
X75160989Y-65749022D01*
X75089915Y-65738726D01*
X75030600Y-65730234D01*
X74955244Y-65719408D01*
X74885906Y-65709267D01*
X74827643Y-65700566D01*
X74785515Y-65694057D01*
X74767075Y-65690981D01*
X74725800Y-65683374D01*
X74725800Y-65154819D01*
X74760725Y-65147859D01*
X74784936Y-65143644D01*
X74828089Y-65136722D01*
X74885665Y-65127769D01*
X74953143Y-65117459D01*
X75026004Y-65106468D01*
X75099727Y-65095471D01*
X75169792Y-65085143D01*
X75231679Y-65076160D01*
X75280869Y-65069196D01*
X75312841Y-65064927D01*
X75322778Y-65063900D01*
X75328218Y-65051707D01*
X75332288Y-65017103D01*
X75334749Y-64963052D01*
X75335400Y-64906925D01*
X75335400Y-64749950D01*
X75088545Y-64792138D01*
X74557203Y-64888017D01*
X74038828Y-64992091D01*
X73521653Y-65106775D01*
X73299883Y-65159188D01*
X73203293Y-65182351D01*
X73114616Y-65203478D01*
X73036870Y-65221863D01*
X72973069Y-65236797D01*
X72926231Y-65247572D01*
X72899372Y-65253481D01*
X72894180Y-65254400D01*
X72890408Y-65266291D01*
X72887300Y-65298730D01*
X72885163Y-65346870D01*
X72884304Y-65405860D01*
X72884300Y-65410518D01*
X72884300Y-64543200D01*
X75335400Y-64543200D01*
X75335400Y-64251281D01*
X74491396Y-64248016D01*
X73647393Y-64244750D01*
X73827821Y-64169964D01*
X73930809Y-64128123D01*
X74053249Y-64079794D01*
X74190557Y-64026701D01*
X74338149Y-63970567D01*
X74491441Y-63913116D01*
X74645848Y-63856071D01*
X74796787Y-63801156D01*
X74939674Y-63750093D01*
X75014725Y-63723733D01*
X75335400Y-63611924D01*
X75335400Y-63362100D01*
X72884300Y-63362100D01*
X72884300Y-63654002D01*
X74414650Y-63660550D01*
X74243200Y-63722776D01*
X74064975Y-63788815D01*
X73880308Y-63859744D01*
X73694246Y-63933499D01*
X73511835Y-64008018D01*
X73338122Y-64081235D01*
X73178153Y-64151086D01*
X73036976Y-64215508D01*
X73027174Y-64220116D01*
X72884299Y-64287439D01*
X72884299Y-64415320D01*
X72884300Y-64543200D01*
X72884300Y-65410518D01*
X72884300Y-65566636D01*
X73255775Y-65657998D01*
X73672703Y-65756356D01*
X74103582Y-65850058D01*
X74538871Y-65937179D01*
X74969030Y-66015795D01*
X75306825Y-66071866D01*
X75318939Y-66072933D01*
X75318939Y-66434054D01*
X75269119Y-66424200D01*
X75052620Y-66383660D01*
X74814618Y-66343277D01*
X74559009Y-66303585D01*
X74289686Y-66265121D01*
X74010544Y-66228422D01*
X73725479Y-66194024D01*
X73438384Y-66162465D01*
X73189100Y-66137650D01*
X73114929Y-66130525D01*
X73046141Y-66123706D01*
X72988252Y-66117755D01*
X72946781Y-66113235D01*
X72931925Y-66111423D01*
X72884300Y-66105000D01*
X72884300Y-66256637D01*
X72884299Y-66408273D01*
X72950974Y-66415019D01*
X72981544Y-66417829D01*
X73033280Y-66422266D01*
X73102025Y-66427988D01*
X73183621Y-66434651D01*
X73273911Y-66441914D01*
X73360550Y-66448788D01*
X73497138Y-66460318D01*
X73653590Y-66474851D01*
X73824623Y-66491832D01*
X74004951Y-66510705D01*
X74189289Y-66530917D01*
X74372352Y-66551910D01*
X74548856Y-66573130D01*
X74576575Y-66576564D01*
X74629019Y-66583913D01*
X74670454Y-66591287D01*
X74695483Y-66597635D01*
X74700400Y-66600669D01*
X74688289Y-66606610D01*
X74653521Y-66616544D01*
X74598445Y-66629996D01*
X74525406Y-66646491D01*
X74436752Y-66665554D01*
X74334831Y-66686710D01*
X74221989Y-66709484D01*
X74100575Y-66733401D01*
X73972935Y-66757985D01*
X73841416Y-66782762D01*
X73708366Y-66807256D01*
X73576132Y-66830993D01*
X73474850Y-66848713D01*
X73395880Y-66862440D01*
X73324026Y-66875083D01*
X73263588Y-66885875D01*
X73218866Y-66894045D01*
X73194157Y-66898826D01*
X73192275Y-66899242D01*
X73179962Y-66903308D01*
X73171814Y-66911708D01*
X73166971Y-66928989D01*
X73164577Y-66959694D01*
X73163774Y-67008368D01*
X73163700Y-67050683D01*
X73163700Y-67195482D01*
X73198625Y-67202564D01*
X73220764Y-67206700D01*
X73263946Y-67214462D01*
X73324181Y-67225147D01*
X73397485Y-67238049D01*
X73479871Y-67252462D01*
X73532000Y-67261541D01*
X73616549Y-67276586D01*
X73715425Y-67294751D01*
X73824872Y-67315297D01*
X73941131Y-67337486D01*
X74060447Y-67360578D01*
X74179060Y-67383835D01*
X74293216Y-67406517D01*
X74399155Y-67427887D01*
X74493121Y-67447204D01*
X74571356Y-67463730D01*
X74630104Y-67476727D01*
X74649600Y-67481328D01*
X74687150Y-67491228D01*
X74702505Y-67497943D01*
X74698379Y-67503268D01*
X74687700Y-67506537D01*
X74653387Y-67513289D01*
X74596669Y-67521951D01*
X74520444Y-67532218D01*
X74427608Y-67543782D01*
X74321060Y-67556338D01*
X74203698Y-67569580D01*
X74078418Y-67583201D01*
X73948119Y-67596896D01*
X73815699Y-67610358D01*
X73684055Y-67623281D01*
X73556084Y-67635358D01*
X73434685Y-67646285D01*
X73322755Y-67655754D01*
X73223192Y-67663459D01*
X73163700Y-67667557D01*
X73072362Y-67673006D01*
X73003196Y-67677326D01*
X72953159Y-67682454D01*
X72919210Y-67690326D01*
X72898305Y-67702880D01*
X72887402Y-67722052D01*
X72883459Y-67749780D01*
X72883434Y-67788001D01*
X72884283Y-67838652D01*
X72884300Y-67845442D01*
X72884547Y-67909710D01*
X72885761Y-67952792D01*
X72888647Y-67978903D01*
X72893911Y-67992255D01*
X72902257Y-67997062D01*
X72909782Y-67997600D01*
X72909782Y-68264300D01*
X72884300Y-68264300D01*
X72884300Y-68569100D01*
X72884300Y-69563210D01*
X72883527Y-69596614D01*
X72931538Y-69609252D01*
X73172503Y-69670640D01*
X73433833Y-69733429D01*
X73710617Y-69796520D01*
X73997943Y-69858813D01*
X74290899Y-69919207D01*
X74497200Y-69959863D01*
X74560958Y-69971971D01*
X74637478Y-69986162D01*
X74723223Y-70001813D01*
X74814655Y-70018299D01*
X74908236Y-70034999D01*
X75000429Y-70051289D01*
X75087695Y-70066546D01*
X75166498Y-70080148D01*
X75233298Y-70091471D01*
X75284559Y-70099893D01*
X75316743Y-70104790D01*
X75325875Y-70105789D01*
X75325875Y-70448700D01*
X73227200Y-70448700D01*
X73227200Y-70029600D01*
X72884300Y-70029600D01*
X72884300Y-71172600D01*
X72884300Y-71883800D01*
X72884300Y-72175702D01*
X74414650Y-72182250D01*
X74179700Y-72269588D01*
X73905583Y-72373745D01*
X73640702Y-72478874D01*
X73389285Y-72583233D01*
X73155559Y-72685079D01*
X73008125Y-72752366D01*
X72884300Y-72810069D01*
X72884300Y-73064900D01*
X72884300Y-73445900D01*
X72884300Y-73763400D01*
X72884300Y-74601600D01*
X72884300Y-75503300D01*
X72884300Y-76410121D01*
X72873031Y-76453251D01*
X72860871Y-76546300D01*
X72858799Y-76655508D01*
X72866367Y-76773924D01*
X72883123Y-76894596D01*
X72908619Y-77010575D01*
X72909294Y-77013095D01*
X72923414Y-77065531D01*
X72923414Y-77769176D01*
X72883536Y-77778911D01*
X72890650Y-78086201D01*
X73081150Y-78134202D01*
X73239799Y-78173285D01*
X73411549Y-78213983D01*
X73593260Y-78255650D01*
X73781791Y-78297640D01*
X73974003Y-78339310D01*
X74166756Y-78380012D01*
X74356909Y-78419102D01*
X74541324Y-78455935D01*
X74716859Y-78489865D01*
X74880375Y-78520247D01*
X75028733Y-78546436D01*
X75158791Y-78567787D01*
X75267411Y-78583653D01*
X75269477Y-78583928D01*
X75336235Y-78592784D01*
X75336235Y-81256400D01*
X75177165Y-81256400D01*
X75177165Y-80405500D01*
X75335400Y-80405500D01*
X75335400Y-80117993D01*
X74595625Y-80101521D01*
X74456663Y-80098334D01*
X74321997Y-80095069D01*
X74194365Y-80091804D01*
X74076504Y-80088616D01*
X73971153Y-80085584D01*
X73881048Y-80082786D01*
X73808928Y-80080300D01*
X73757531Y-80078204D01*
X73735200Y-80077000D01*
X73614550Y-80068950D01*
X73830450Y-80008989D01*
X73916914Y-79985376D01*
X74018678Y-79958243D01*
X74131413Y-79928691D01*
X74250788Y-79897817D01*
X74372474Y-79866720D01*
X74492143Y-79836499D01*
X74605465Y-79808253D01*
X74708111Y-79783079D01*
X74795751Y-79762076D01*
X74864056Y-79746343D01*
X74875025Y-79743924D01*
X75005200Y-79715502D01*
X75005200Y-79457326D01*
X74900425Y-79435260D01*
X74845105Y-79423048D01*
X74773411Y-79406349D01*
X74688127Y-79385880D01*
X74592037Y-79362358D01*
X74487928Y-79336500D01*
X74378584Y-79309020D01*
X74266790Y-79280637D01*
X74155332Y-79252066D01*
X74046994Y-79224024D01*
X73944561Y-79197227D01*
X73850818Y-79172392D01*
X73768551Y-79150235D01*
X73700544Y-79131472D01*
X73649583Y-79116820D01*
X73618453Y-79106996D01*
X73609834Y-79103268D01*
X73618404Y-79100388D01*
X73646471Y-79098315D01*
X73688134Y-79097467D01*
X73691808Y-79097465D01*
X73724579Y-79097140D01*
X73779274Y-79096187D01*
X73852427Y-79094684D01*
X73940569Y-79092708D01*
X74040236Y-79090338D01*
X74147960Y-79087650D01*
X74260274Y-79084723D01*
X74262250Y-79084671D01*
X74386635Y-79081362D01*
X74516938Y-79077906D01*
X74647625Y-79074449D01*
X74773164Y-79071136D01*
X74888023Y-79068114D01*
X74986668Y-79065529D01*
X75040125Y-79064135D01*
X75335400Y-79056458D01*
X75335400Y-78763223D01*
X74938525Y-78771887D01*
X74803314Y-78775190D01*
X74652008Y-78779498D01*
X74489145Y-78784639D01*
X74319265Y-78790443D01*
X74146906Y-78796737D01*
X73976608Y-78803349D01*
X73812909Y-78810108D01*
X73660350Y-78816842D01*
X73523469Y-78823380D01*
X73406805Y-78829549D01*
X73392300Y-78830376D01*
X73306680Y-78835316D01*
X73215558Y-78840584D01*
X73128192Y-78845643D01*
X73053839Y-78849958D01*
X73033525Y-78851140D01*
X72884300Y-78859828D01*
X72884300Y-79156644D01*
X73052575Y-79209296D01*
X73197691Y-79253605D01*
X73362670Y-79302033D01*
X73542578Y-79353191D01*
X73732483Y-79405686D01*
X73927452Y-79458127D01*
X74033650Y-79486075D01*
X74120359Y-79508787D01*
X74199525Y-79529666D01*
X74267644Y-79547777D01*
X74321213Y-79562185D01*
X74356732Y-79571955D01*
X74370200Y-79575945D01*
X74366465Y-79581657D01*
X74342125Y-79592000D01*
X74301229Y-79605489D01*
X74249550Y-79620182D01*
X74109640Y-79658012D01*
X73954849Y-79700771D01*
X73791699Y-79746599D01*
X73626712Y-79793636D01*
X73466409Y-79840021D01*
X73317313Y-79883894D01*
X73185946Y-79923395D01*
X73179575Y-79925340D01*
X72884300Y-80015541D01*
X72884300Y-80312410D01*
X73109725Y-80327256D01*
X73226340Y-80334437D01*
X73361075Y-80341878D01*
X73510597Y-80349452D01*
X73671567Y-80357033D01*
X73840652Y-80364495D01*
X74014515Y-80371712D01*
X74189821Y-80378558D01*
X74363233Y-80384907D01*
X74531418Y-80390632D01*
X74691038Y-80395608D01*
X74838759Y-80399709D01*
X74971244Y-80402809D01*
X75085158Y-80404781D01*
X75177165Y-80405500D01*
X75177165Y-81256400D01*
X72147700Y-81256400D01*
X72147700Y-62612800D01*
X75957700Y-62612800D01*
X75957700Y-62612800D01*
G37*
X75957700Y-62612800D02*
X75957700Y-81256400D01*
X75336235Y-81256400D01*
X75336235Y-78592784D01*
X75332642Y-78442508D01*
X75329050Y-78292233D01*
X75043300Y-78250379D01*
X74960391Y-78238076D01*
X74885503Y-78226661D01*
X74822438Y-78216738D01*
X74774995Y-78208911D01*
X74746977Y-78203783D01*
X74741416Y-78202412D01*
X74735807Y-78194538D01*
X74731780Y-78174031D01*
X74729208Y-78138244D01*
X74727968Y-78084530D01*
X74727935Y-78010241D01*
X74728716Y-77932572D01*
X74732150Y-77668846D01*
X75033768Y-77624298D01*
X75335387Y-77579750D01*
X75335393Y-77423166D01*
X75335400Y-77266582D01*
X75300475Y-77273430D01*
X75278337Y-77277505D01*
X75235160Y-77285228D01*
X75174931Y-77295894D01*
X75101634Y-77308798D01*
X75019256Y-77323236D01*
X74967100Y-77332347D01*
X74602412Y-77398156D01*
X74254251Y-77465649D01*
X73913745Y-77536675D01*
X73572022Y-77613084D01*
X73223643Y-77695888D01*
X72923414Y-77769176D01*
X72923414Y-77065531D01*
X74106624Y-77062291D01*
X75289834Y-77059050D01*
X75306655Y-77001900D01*
X75337651Y-76869808D01*
X75354858Y-76734759D01*
X75357806Y-76603998D01*
X75346024Y-76484767D01*
X75341694Y-76462150D01*
X75302752Y-76334140D01*
X75242682Y-76220167D01*
X75161585Y-76120327D01*
X75059565Y-76034714D01*
X74936723Y-75963424D01*
X74793162Y-75906552D01*
X74719412Y-75885053D01*
X74612377Y-75860366D01*
X74502514Y-75842292D01*
X74384884Y-75830402D01*
X74254550Y-75824265D01*
X74106575Y-75823453D01*
X74027300Y-75824841D01*
X73878777Y-75830390D01*
X73750673Y-75839955D01*
X73638218Y-75854298D01*
X73536638Y-75874180D01*
X73441164Y-75900364D01*
X73347850Y-75933288D01*
X73216328Y-75995905D01*
X73103954Y-76073608D01*
X73011562Y-76165483D01*
X72939984Y-76270618D01*
X72890054Y-76388099D01*
X72884300Y-76410121D01*
X72884300Y-75503300D01*
X75335400Y-75503300D01*
X75335400Y-74563500D01*
X74992500Y-74563500D01*
X74992500Y-75198500D01*
X74217800Y-75198500D01*
X74217800Y-74665100D01*
X73874900Y-74665100D01*
X73874900Y-75198500D01*
X73227200Y-75198500D01*
X73227200Y-74601600D01*
X72884300Y-74601600D01*
X72884300Y-73763400D01*
X75335400Y-73763400D01*
X75335400Y-73445900D01*
X72884300Y-73445900D01*
X72884300Y-73064900D01*
X75335400Y-73064900D01*
X75335400Y-72772982D01*
X73652650Y-72766450D01*
X73881003Y-72672799D01*
X74043127Y-72607594D01*
X74223125Y-72537476D01*
X74414548Y-72464854D01*
X74610949Y-72392139D01*
X74805881Y-72321744D01*
X74992897Y-72256078D01*
X75024250Y-72245280D01*
X75329050Y-72140637D01*
X75332669Y-72012219D01*
X75336288Y-71883800D01*
X72884300Y-71883800D01*
X72884300Y-71172600D01*
X73227200Y-71172600D01*
X73227200Y-70753500D01*
X75335400Y-70753500D01*
X75335400Y-70448700D01*
X75325875Y-70448700D01*
X75325875Y-70105789D01*
X75329578Y-70093919D01*
X75332609Y-70061597D01*
X75334654Y-70013768D01*
X75335400Y-69955738D01*
X75335400Y-69805676D01*
X75047385Y-69763971D01*
X74964086Y-69751740D01*
X74888760Y-69740358D01*
X74825204Y-69730426D01*
X74777213Y-69722543D01*
X74748583Y-69717309D01*
X74742585Y-69715824D01*
X74736701Y-69708261D01*
X74732281Y-69688857D01*
X74729153Y-69654857D01*
X74727144Y-69603508D01*
X74726084Y-69532055D01*
X74725800Y-69446160D01*
X74725800Y-69182938D01*
X75002025Y-69142276D01*
X75084462Y-69130054D01*
X75159744Y-69118731D01*
X75223768Y-69108937D01*
X75272435Y-69101301D01*
X75301643Y-69096453D01*
X75306825Y-69095465D01*
X75318884Y-69091750D01*
X75326964Y-69083824D01*
X75331859Y-69067278D01*
X75334366Y-69037703D01*
X75335280Y-68990689D01*
X75335400Y-68937159D01*
X75334803Y-68870246D01*
X75332744Y-68825186D01*
X75328825Y-68798455D01*
X75322643Y-68786527D01*
X75318105Y-68785000D01*
X75299303Y-68787244D01*
X75258545Y-68793619D01*
X75198843Y-68803592D01*
X75123209Y-68816631D01*
X75034653Y-68832203D01*
X74936189Y-68849773D01*
X74830828Y-68868811D01*
X74721581Y-68888781D01*
X74611460Y-68909152D01*
X74522600Y-68925786D01*
X74342830Y-68960711D01*
X74145216Y-69001025D01*
X73936378Y-69045290D01*
X73722936Y-69092069D01*
X73511510Y-69139921D01*
X73308721Y-69187411D01*
X73220850Y-69208571D01*
X72890650Y-69288850D01*
X72887088Y-69442732D01*
X72884300Y-69563210D01*
X72884300Y-68569100D01*
X75335400Y-68569100D01*
X75335400Y-68264300D01*
X72909782Y-68264300D01*
X72909782Y-67997600D01*
X72934067Y-67996233D01*
X72980352Y-67992359D01*
X73045398Y-67986317D01*
X73125965Y-67978447D01*
X73218814Y-67969090D01*
X73320704Y-67958585D01*
X73428396Y-67947273D01*
X73538651Y-67935493D01*
X73648229Y-67923586D01*
X73753890Y-67911891D01*
X73852394Y-67900748D01*
X73940503Y-67890498D01*
X74008250Y-67882316D01*
X74109789Y-67869282D01*
X74221778Y-67854081D01*
X74341318Y-67837173D01*
X74465507Y-67819020D01*
X74591445Y-67800082D01*
X74716232Y-67780822D01*
X74836967Y-67761699D01*
X74950750Y-67743176D01*
X75054680Y-67725712D01*
X75145858Y-67709769D01*
X75221381Y-67695809D01*
X75278351Y-67684291D01*
X75313867Y-67675678D01*
X75319525Y-67673867D01*
X75327059Y-67662569D01*
X75332033Y-67633313D01*
X75334716Y-67583516D01*
X75335400Y-67522605D01*
X75334975Y-67459093D01*
X75333274Y-67416570D01*
X75329650Y-67390629D01*
X75323462Y-67376868D01*
X75314063Y-67370881D01*
X75313175Y-67370613D01*
X75268289Y-67358784D01*
X75201506Y-67342691D01*
X75115849Y-67322973D01*
X75014343Y-67300273D01*
X74900011Y-67275231D01*
X74775878Y-67248490D01*
X74644967Y-67220690D01*
X74510303Y-67192473D01*
X74374910Y-67164480D01*
X74241811Y-67137353D01*
X74114031Y-67111733D01*
X73994594Y-67088262D01*
X73886523Y-67067580D01*
X73868550Y-67064211D01*
X73854828Y-67060689D01*
X73851828Y-67056550D01*
X73861829Y-67051170D01*
X73887109Y-67043921D01*
X73929948Y-67034178D01*
X73992625Y-67021314D01*
X74077420Y-67004704D01*
X74103500Y-66999669D01*
X74244141Y-66972056D01*
X74395119Y-66941492D01*
X74550939Y-66909151D01*
X74706105Y-66876203D01*
X74855124Y-66843822D01*
X74992500Y-66813180D01*
X75112739Y-66785450D01*
X75157600Y-66774762D01*
X75329050Y-66733420D01*
X75332619Y-66585443D01*
X75336189Y-66437465D01*
X75318939Y-66434054D01*
X75318939Y-66072933D01*
X75327030Y-66068829D01*
X75331910Y-66055420D01*
X75334390Y-66028570D01*
X75335283Y-65984144D01*
X75335400Y-65926315D01*
X75335400Y-65776251D01*
X75294125Y-65769066D01*
X75268152Y-65764938D01*
X75222088Y-65758008D01*
X75160989Y-65749022D01*
X75089915Y-65738726D01*
X75030600Y-65730234D01*
X74955244Y-65719408D01*
X74885906Y-65709267D01*
X74827643Y-65700566D01*
X74785515Y-65694057D01*
X74767075Y-65690981D01*
X74725800Y-65683374D01*
X74725800Y-65154819D01*
X74760725Y-65147859D01*
X74784936Y-65143644D01*
X74828089Y-65136722D01*
X74885665Y-65127769D01*
X74953143Y-65117459D01*
X75026004Y-65106468D01*
X75099727Y-65095471D01*
X75169792Y-65085143D01*
X75231679Y-65076160D01*
X75280869Y-65069196D01*
X75312841Y-65064927D01*
X75322778Y-65063900D01*
X75328218Y-65051707D01*
X75332288Y-65017103D01*
X75334749Y-64963052D01*
X75335400Y-64906925D01*
X75335400Y-64749950D01*
X75088545Y-64792138D01*
X74557203Y-64888017D01*
X74038828Y-64992091D01*
X73521653Y-65106775D01*
X73299883Y-65159188D01*
X73203293Y-65182351D01*
X73114616Y-65203478D01*
X73036870Y-65221863D01*
X72973069Y-65236797D01*
X72926231Y-65247572D01*
X72899372Y-65253481D01*
X72894180Y-65254400D01*
X72890408Y-65266291D01*
X72887300Y-65298730D01*
X72885163Y-65346870D01*
X72884304Y-65405860D01*
X72884300Y-65410518D01*
X72884300Y-64543200D01*
X75335400Y-64543200D01*
X75335400Y-64251281D01*
X74491396Y-64248016D01*
X73647393Y-64244750D01*
X73827821Y-64169964D01*
X73930809Y-64128123D01*
X74053249Y-64079794D01*
X74190557Y-64026701D01*
X74338149Y-63970567D01*
X74491441Y-63913116D01*
X74645848Y-63856071D01*
X74796787Y-63801156D01*
X74939674Y-63750093D01*
X75014725Y-63723733D01*
X75335400Y-63611924D01*
X75335400Y-63362100D01*
X72884300Y-63362100D01*
X72884300Y-63654002D01*
X74414650Y-63660550D01*
X74243200Y-63722776D01*
X74064975Y-63788815D01*
X73880308Y-63859744D01*
X73694246Y-63933499D01*
X73511835Y-64008018D01*
X73338122Y-64081235D01*
X73178153Y-64151086D01*
X73036976Y-64215508D01*
X73027174Y-64220116D01*
X72884299Y-64287439D01*
X72884299Y-64415320D01*
X72884300Y-64543200D01*
X72884300Y-65410518D01*
X72884300Y-65566636D01*
X73255775Y-65657998D01*
X73672703Y-65756356D01*
X74103582Y-65850058D01*
X74538871Y-65937179D01*
X74969030Y-66015795D01*
X75306825Y-66071866D01*
X75318939Y-66072933D01*
X75318939Y-66434054D01*
X75269119Y-66424200D01*
X75052620Y-66383660D01*
X74814618Y-66343277D01*
X74559009Y-66303585D01*
X74289686Y-66265121D01*
X74010544Y-66228422D01*
X73725479Y-66194024D01*
X73438384Y-66162465D01*
X73189100Y-66137650D01*
X73114929Y-66130525D01*
X73046141Y-66123706D01*
X72988252Y-66117755D01*
X72946781Y-66113235D01*
X72931925Y-66111423D01*
X72884300Y-66105000D01*
X72884300Y-66256637D01*
X72884299Y-66408273D01*
X72950974Y-66415019D01*
X72981544Y-66417829D01*
X73033280Y-66422266D01*
X73102025Y-66427988D01*
X73183621Y-66434651D01*
X73273911Y-66441914D01*
X73360550Y-66448788D01*
X73497138Y-66460318D01*
X73653590Y-66474851D01*
X73824623Y-66491832D01*
X74004951Y-66510705D01*
X74189289Y-66530917D01*
X74372352Y-66551910D01*
X74548856Y-66573130D01*
X74576575Y-66576564D01*
X74629019Y-66583913D01*
X74670454Y-66591287D01*
X74695483Y-66597635D01*
X74700400Y-66600669D01*
X74688289Y-66606610D01*
X74653521Y-66616544D01*
X74598445Y-66629996D01*
X74525406Y-66646491D01*
X74436752Y-66665554D01*
X74334831Y-66686710D01*
X74221989Y-66709484D01*
X74100575Y-66733401D01*
X73972935Y-66757985D01*
X73841416Y-66782762D01*
X73708366Y-66807256D01*
X73576132Y-66830993D01*
X73474850Y-66848713D01*
X73395880Y-66862440D01*
X73324026Y-66875083D01*
X73263588Y-66885875D01*
X73218866Y-66894045D01*
X73194157Y-66898826D01*
X73192275Y-66899242D01*
X73179962Y-66903308D01*
X73171814Y-66911708D01*
X73166971Y-66928989D01*
X73164577Y-66959694D01*
X73163774Y-67008368D01*
X73163700Y-67050683D01*
X73163700Y-67195482D01*
X73198625Y-67202564D01*
X73220764Y-67206700D01*
X73263946Y-67214462D01*
X73324181Y-67225147D01*
X73397485Y-67238049D01*
X73479871Y-67252462D01*
X73532000Y-67261541D01*
X73616549Y-67276586D01*
X73715425Y-67294751D01*
X73824872Y-67315297D01*
X73941131Y-67337486D01*
X74060447Y-67360578D01*
X74179060Y-67383835D01*
X74293216Y-67406517D01*
X74399155Y-67427887D01*
X74493121Y-67447204D01*
X74571356Y-67463730D01*
X74630104Y-67476727D01*
X74649600Y-67481328D01*
X74687150Y-67491228D01*
X74702505Y-67497943D01*
X74698379Y-67503268D01*
X74687700Y-67506537D01*
X74653387Y-67513289D01*
X74596669Y-67521951D01*
X74520444Y-67532218D01*
X74427608Y-67543782D01*
X74321060Y-67556338D01*
X74203698Y-67569580D01*
X74078418Y-67583201D01*
X73948119Y-67596896D01*
X73815699Y-67610358D01*
X73684055Y-67623281D01*
X73556084Y-67635358D01*
X73434685Y-67646285D01*
X73322755Y-67655754D01*
X73223192Y-67663459D01*
X73163700Y-67667557D01*
X73072362Y-67673006D01*
X73003196Y-67677326D01*
X72953159Y-67682454D01*
X72919210Y-67690326D01*
X72898305Y-67702880D01*
X72887402Y-67722052D01*
X72883459Y-67749780D01*
X72883434Y-67788001D01*
X72884283Y-67838652D01*
X72884300Y-67845442D01*
X72884547Y-67909710D01*
X72885761Y-67952792D01*
X72888647Y-67978903D01*
X72893911Y-67992255D01*
X72902257Y-67997062D01*
X72909782Y-67997600D01*
X72909782Y-68264300D01*
X72884300Y-68264300D01*
X72884300Y-68569100D01*
X72884300Y-69563210D01*
X72883527Y-69596614D01*
X72931538Y-69609252D01*
X73172503Y-69670640D01*
X73433833Y-69733429D01*
X73710617Y-69796520D01*
X73997943Y-69858813D01*
X74290899Y-69919207D01*
X74497200Y-69959863D01*
X74560958Y-69971971D01*
X74637478Y-69986162D01*
X74723223Y-70001813D01*
X74814655Y-70018299D01*
X74908236Y-70034999D01*
X75000429Y-70051289D01*
X75087695Y-70066546D01*
X75166498Y-70080148D01*
X75233298Y-70091471D01*
X75284559Y-70099893D01*
X75316743Y-70104790D01*
X75325875Y-70105789D01*
X75325875Y-70448700D01*
X73227200Y-70448700D01*
X73227200Y-70029600D01*
X72884300Y-70029600D01*
X72884300Y-71172600D01*
X72884300Y-71883800D01*
X72884300Y-72175702D01*
X74414650Y-72182250D01*
X74179700Y-72269588D01*
X73905583Y-72373745D01*
X73640702Y-72478874D01*
X73389285Y-72583233D01*
X73155559Y-72685079D01*
X73008125Y-72752366D01*
X72884300Y-72810069D01*
X72884300Y-73064900D01*
X72884300Y-73445900D01*
X72884300Y-73763400D01*
X72884300Y-74601600D01*
X72884300Y-75503300D01*
X72884300Y-76410121D01*
X72873031Y-76453251D01*
X72860871Y-76546300D01*
X72858799Y-76655508D01*
X72866367Y-76773924D01*
X72883123Y-76894596D01*
X72908619Y-77010575D01*
X72909294Y-77013095D01*
X72923414Y-77065531D01*
X72923414Y-77769176D01*
X72883536Y-77778911D01*
X72890650Y-78086201D01*
X73081150Y-78134202D01*
X73239799Y-78173285D01*
X73411549Y-78213983D01*
X73593260Y-78255650D01*
X73781791Y-78297640D01*
X73974003Y-78339310D01*
X74166756Y-78380012D01*
X74356909Y-78419102D01*
X74541324Y-78455935D01*
X74716859Y-78489865D01*
X74880375Y-78520247D01*
X75028733Y-78546436D01*
X75158791Y-78567787D01*
X75267411Y-78583653D01*
X75269477Y-78583928D01*
X75336235Y-78592784D01*
X75336235Y-81256400D01*
X75177165Y-81256400D01*
X75177165Y-80405500D01*
X75335400Y-80405500D01*
X75335400Y-80117993D01*
X74595625Y-80101521D01*
X74456663Y-80098334D01*
X74321997Y-80095069D01*
X74194365Y-80091804D01*
X74076504Y-80088616D01*
X73971153Y-80085584D01*
X73881048Y-80082786D01*
X73808928Y-80080300D01*
X73757531Y-80078204D01*
X73735200Y-80077000D01*
X73614550Y-80068950D01*
X73830450Y-80008989D01*
X73916914Y-79985376D01*
X74018678Y-79958243D01*
X74131413Y-79928691D01*
X74250788Y-79897817D01*
X74372474Y-79866720D01*
X74492143Y-79836499D01*
X74605465Y-79808253D01*
X74708111Y-79783079D01*
X74795751Y-79762076D01*
X74864056Y-79746343D01*
X74875025Y-79743924D01*
X75005200Y-79715502D01*
X75005200Y-79457326D01*
X74900425Y-79435260D01*
X74845105Y-79423048D01*
X74773411Y-79406349D01*
X74688127Y-79385880D01*
X74592037Y-79362358D01*
X74487928Y-79336500D01*
X74378584Y-79309020D01*
X74266790Y-79280637D01*
X74155332Y-79252066D01*
X74046994Y-79224024D01*
X73944561Y-79197227D01*
X73850818Y-79172392D01*
X73768551Y-79150235D01*
X73700544Y-79131472D01*
X73649583Y-79116820D01*
X73618453Y-79106996D01*
X73609834Y-79103268D01*
X73618404Y-79100388D01*
X73646471Y-79098315D01*
X73688134Y-79097467D01*
X73691808Y-79097465D01*
X73724579Y-79097140D01*
X73779274Y-79096187D01*
X73852427Y-79094684D01*
X73940569Y-79092708D01*
X74040236Y-79090338D01*
X74147960Y-79087650D01*
X74260274Y-79084723D01*
X74262250Y-79084671D01*
X74386635Y-79081362D01*
X74516938Y-79077906D01*
X74647625Y-79074449D01*
X74773164Y-79071136D01*
X74888023Y-79068114D01*
X74986668Y-79065529D01*
X75040125Y-79064135D01*
X75335400Y-79056458D01*
X75335400Y-78763223D01*
X74938525Y-78771887D01*
X74803314Y-78775190D01*
X74652008Y-78779498D01*
X74489145Y-78784639D01*
X74319265Y-78790443D01*
X74146906Y-78796737D01*
X73976608Y-78803349D01*
X73812909Y-78810108D01*
X73660350Y-78816842D01*
X73523469Y-78823380D01*
X73406805Y-78829549D01*
X73392300Y-78830376D01*
X73306680Y-78835316D01*
X73215558Y-78840584D01*
X73128192Y-78845643D01*
X73053839Y-78849958D01*
X73033525Y-78851140D01*
X72884300Y-78859828D01*
X72884300Y-79156644D01*
X73052575Y-79209296D01*
X73197691Y-79253605D01*
X73362670Y-79302033D01*
X73542578Y-79353191D01*
X73732483Y-79405686D01*
X73927452Y-79458127D01*
X74033650Y-79486075D01*
X74120359Y-79508787D01*
X74199525Y-79529666D01*
X74267644Y-79547777D01*
X74321213Y-79562185D01*
X74356732Y-79571955D01*
X74370200Y-79575945D01*
X74366465Y-79581657D01*
X74342125Y-79592000D01*
X74301229Y-79605489D01*
X74249550Y-79620182D01*
X74109640Y-79658012D01*
X73954849Y-79700771D01*
X73791699Y-79746599D01*
X73626712Y-79793636D01*
X73466409Y-79840021D01*
X73317313Y-79883894D01*
X73185946Y-79923395D01*
X73179575Y-79925340D01*
X72884300Y-80015541D01*
X72884300Y-80312410D01*
X73109725Y-80327256D01*
X73226340Y-80334437D01*
X73361075Y-80341878D01*
X73510597Y-80349452D01*
X73671567Y-80357033D01*
X73840652Y-80364495D01*
X74014515Y-80371712D01*
X74189821Y-80378558D01*
X74363233Y-80384907D01*
X74531418Y-80390632D01*
X74691038Y-80395608D01*
X74838759Y-80399709D01*
X74971244Y-80402809D01*
X75085158Y-80404781D01*
X75177165Y-80405500D01*
X75177165Y-81256400D01*
X72147700Y-81256400D01*
X72147700Y-62612800D01*
X75957700Y-62612800D01*
D11*
X74310000Y-102360000D03*
D12*
X74310000Y-99820000D03*
D11*
X54140000Y-58130000D03*
D12*
X54140000Y-55590000D03*
D13*
X49620000Y-135310000D03*
X49620000Y-132210000D03*
X49620000Y-123910000D03*
X49620000Y-105820000D03*
X49620000Y-102720000D03*
X49620000Y-94420000D03*
X49620000Y-149070000D03*
X49620000Y-145970000D03*
X49620000Y-137670000D03*
X61780000Y-135310000D03*
X61780000Y-132210000D03*
X61780000Y-123910000D03*
X73940000Y-149070000D03*
X73940000Y-145970000D03*
X73940000Y-137670000D03*
X73940000Y-135310000D03*
X73940000Y-132210000D03*
X73940000Y-123910000D03*
X61780000Y-149070000D03*
X61780000Y-145970000D03*
X61780000Y-137670000D03*
D14*
X58231200Y-88910600D03*
X51728800Y-88910600D03*
X58231200Y-84389400D03*
X51728800Y-84389400D03*
X71651200Y-89000600D03*
X65148800Y-89000600D03*
X71651200Y-84479400D03*
X65148800Y-84479400D03*
D15*
X59210000Y-80880000D03*
X61710000Y-80880000D03*
X64210000Y-80880000D03*
D16*
X56910000Y-73380000D03*
X66510000Y-73380000D03*
D15*
X59210000Y-56000000D03*
X61710000Y-56000000D03*
X64210000Y-56000000D03*
D16*
X56910000Y-48500000D03*
X66510000Y-48500000D03*
D17*
X58530000Y-102336000D03*
X58530000Y-95224000D03*
D18*
X64454000Y-63350000D03*
X64454000Y-60150000D03*
X58866000Y-63350000D03*
X58866000Y-60150000D03*
D19*
X62260000Y-118800000D03*
X59720000Y-118800000D03*
X62260000Y-116260000D03*
X59720000Y-116260000D03*
X62260000Y-113720000D03*
X59720000Y-113720000D03*
X62260000Y-111180000D03*
X59720000Y-111180000D03*
X62260000Y-108640000D03*
D20*
X59720000Y-108640000D03*
D21*
X54710000Y-108336000D03*
D22*
X54710000Y-111638000D03*
D21*
X67850000Y-140616000D03*
D22*
X67850000Y-143918000D03*
D23*
X74710000Y-52980000D03*
X74710000Y-50440000D03*
X74710000Y-47900000D03*
X74710000Y-45360000D03*
X54110000Y-45380000D03*
X54110000Y-47920000D03*
X54110000Y-50460000D03*
X54110000Y-53000000D03*
D24*
X55740000Y-120640000D03*
X55740000Y-118360000D03*
X55740000Y-116080000D03*
D25*
X49440000Y-118360000D03*
D21*
X55750000Y-140606000D03*
D22*
X55750000Y-143908000D03*
D21*
X67850000Y-127036000D03*
D22*
X67850000Y-130338000D03*
D26*
X64090000Y-94810000D03*
X71710000Y-102430000D03*
X66630000Y-94810000D03*
X69170000Y-102430000D03*
X69170000Y-94810000D03*
X66630000Y-102430000D03*
X71710000Y-94810000D03*
D27*
X64090000Y-102430000D03*
M02*
