<?xml version="1.0" encoding="UTF-8" standalone="no"?>
<!-- Created with Inkscape (http://www.inkscape.org/) -->

<svg
   xmlns:dc="http://purl.org/dc/elements/1.1/"
   xmlns:cc="http://creativecommons.org/ns#"
   xmlns:rdf="http://www.w3.org/1999/02/22-rdf-syntax-ns#"
   xmlns:svg="http://www.w3.org/2000/svg"
   xmlns="http://www.w3.org/2000/svg"
   xmlns:sodipodi="http://sodipodi.sourceforge.net/DTD/sodipodi-0.dtd"
   xmlns:inkscape="http://www.inkscape.org/namespaces/inkscape"
   width="210mm"
   height="297mm"
   viewBox="0 0 210 297"
   version="1.1"
   id="svg82544"
   inkscape:version="0.92.4 (unknown)"
   sodipodi:docname="7hp_modle_01.svg">
  <defs
     id="defs82538" />
  <sodipodi:namedview
     id="base"
     pagecolor="#ffffff"
     bordercolor="#666666"
     borderopacity="1.0"
     inkscape:pageopacity="0.0"
     inkscape:pageshadow="2"
     inkscape:zoom="0.9899495"
     inkscape:cx="90.119778"
     inkscape:cy="273.77305"
     inkscape:document-units="mm"
     inkscape:current-layer="layer1"
     showgrid="false"
     inkscape:window-width="1855"
     inkscape:window-height="1056"
     inkscape:window-x="65"
     inkscape:window-y="24"
     inkscape:window-maximized="1" />
  <metadata
     id="metadata82541">
    <rdf:RDF>
      <cc:Work
         rdf:about="">
        <dc:format>image/svg+xml</dc:format>
        <dc:type
           rdf:resource="http://purl.org/dc/dcmitype/StillImage" />
        <dc:title />
      </cc:Work>
    </rdf:RDF>
  </metadata>
  <g
     inkscape:label="Layer 1"
     inkscape:groupmode="layer"
     id="layer1">
    <g
       id="g864"
       transform="translate(-146.08572,-227.34679)">
      <circle
         r="3.1629322"
         cy="460.3866"
         cx="154.67685"
         id="circle61024-0-2"
         style="display:inline;opacity:1;fill:none;fill-opacity:1;stroke:#000000;stroke-width:0.07413577;stroke-linecap:round;stroke-linejoin:round;stroke-miterlimit:10;stroke-dasharray:none;stroke-opacity:1;paint-order:normal" />
      <circle
         style="display:inline;opacity:1;fill:none;fill-opacity:1;stroke:#000000;stroke-width:0.07413577;stroke-linecap:round;stroke-linejoin:round;stroke-miterlimit:10;stroke-dasharray:none;stroke-opacity:1;paint-order:normal"
         id="circle9070"
         cx="154.67685"
         cy="489.85306"
         r="3.1629322" />
      <circle
         r="3.1629322"
         cy="503.61966"
         cx="154.67685"
         id="circle9074"
         style="display:inline;opacity:1;fill:none;fill-opacity:1;stroke:#000000;stroke-width:0.07413577;stroke-linecap:round;stroke-linejoin:round;stroke-miterlimit:10;stroke-dasharray:none;stroke-opacity:1;paint-order:normal" />
      <circle
         r="3.1629322"
         cy="489.85306"
         cx="166.79207"
         id="circle9080"
         style="display:inline;opacity:1;fill:none;fill-opacity:1;stroke:#000000;stroke-width:0.07413577;stroke-linecap:round;stroke-linejoin:round;stroke-miterlimit:10;stroke-dasharray:none;stroke-opacity:1;paint-order:normal" />
      <circle
         style="display:inline;opacity:1;fill:none;fill-opacity:1;stroke:#000000;stroke-width:0.07413577;stroke-linecap:round;stroke-linejoin:round;stroke-miterlimit:10;stroke-dasharray:none;stroke-opacity:1;paint-order:normal"
         id="circle9082"
         cx="166.79207"
         cy="503.61966"
         r="3.1629322" />
      <circle
         style="display:inline;opacity:1;fill:none;fill-opacity:1;stroke:#000000;stroke-width:0.07413577;stroke-linecap:round;stroke-linejoin:round;stroke-miterlimit:10;stroke-dasharray:none;stroke-opacity:1;paint-order:normal"
         id="circle9088"
         cx="179.01132"
         cy="489.85306"
         r="3.1629322" />
      <circle
         r="3.1629322"
         cy="503.61966"
         cx="179.01132"
         id="circle9090"
         style="display:inline;opacity:1;fill:none;fill-opacity:1;stroke:#000000;stroke-width:0.07413577;stroke-linecap:round;stroke-linejoin:round;stroke-miterlimit:10;stroke-dasharray:none;stroke-opacity:1;paint-order:normal" />
      <circle
         style="display:inline;opacity:1;fill:none;fill-opacity:1;stroke:#000000;stroke-width:0.04849621;stroke-linecap:round;stroke-linejoin:round;stroke-miterlimit:10;stroke-dasharray:none;stroke-opacity:1;paint-order:normal"
         id="circle9094"
         cx="160.03227"
         cy="447.72888"
         r="2.0690448" />
      <circle
         r="2.0690448"
         cy="447.72888"
         cx="173.39241"
         id="circle9098"
         style="display:inline;opacity:1;fill:none;fill-opacity:1;stroke:#000000;stroke-width:0.04849621;stroke-linecap:round;stroke-linejoin:round;stroke-miterlimit:10;stroke-dasharray:none;stroke-opacity:1;paint-order:normal" />
      <circle
         r="1.63149"
         cy="459.98318"
         cx="163.54018"
         id="circle20933"
         style="display:inline;opacity:1;fill:none;fill-opacity:1;stroke:#000000;stroke-width:0.03824039;stroke-linecap:round;stroke-linejoin:round;stroke-miterlimit:10;stroke-dasharray:none;stroke-opacity:1;paint-order:normal" />
      <path
         sodipodi:nodetypes="ccccc"
         inkscape:connector-curvature="0"
         id="path32017-3"
         style="fill:none;stroke:#ff0000;stroke-width:0.1;stroke-linecap:round;stroke-linejoin:round;stroke-miterlimit:10;stroke-dasharray:none;stroke-opacity:1"
         d="m 149.12266,521.61136 h 35.30776 V 393.11135 h -35.30776 v 128.50001" />
      <path
         id="rect80934-5"
         d="m 155.83252,394.49764 h 1.7 l 0.16545,0.008 0.16056,0.0244 0.15489,0.0396 0.1484,0.0541 0.14112,0.0678 0.13304,0.0806 0.23865,0.19675 0.19674,0.23864 0.0807,0.13305 0.0678,0.14112 0.0541,0.1484 0.0396,0.15488 0.0244,0.16057 0.008,0.16545 -0.008,0.16545 -0.0244,0.16056 -0.0396,0.15489 -0.0541,0.1484 -0.0678,0.14112 -0.0807,0.13304 -0.19674,0.23865 -0.23865,0.19674 -0.13304,0.0807 -0.14112,0.0678 -0.1484,0.0541 -0.15489,0.0396 -0.16056,0.0244 -0.16545,0.008 h -1.7 l -0.16545,-0.008 -0.16057,-0.0244 -0.15488,-0.0396 -0.1484,-0.0541 -0.14113,-0.0678 -0.13304,-0.0807 -0.23865,-0.19674 -0.19674,-0.23865 -0.0807,-0.13304 -0.0678,-0.14112 -0.0541,-0.1484 -0.0396,-0.15488 -0.0244,-0.16057 -0.008,-0.16545 0.008,-0.16545 0.0244,-0.16057 0.0396,-0.15488 0.0541,-0.1484 0.0678,-0.14112 0.0807,-0.13304 0.19674,-0.23865 0.23865,-0.19674 0.13304,-0.0807 0.14113,-0.0678 0.1484,-0.0541 0.15488,-0.0396 0.16057,-0.0244 0.16545,-0.008 v 0"
         style="opacity:1;fill:none;fill-opacity:1;stroke:#ff0000;stroke-width:0.07255765;stroke-linecap:round;stroke-linejoin:miter;stroke-miterlimit:10;stroke-dasharray:none;stroke-opacity:1;paint-order:normal"
         inkscape:connector-curvature="0" />
      <path
         id="rect80938-5"
         d="m 155.83252,516.99763 h 1.7 l 0.16545,0.008 0.16056,0.0244 0.15489,0.0396 0.1484,0.0541 0.14112,0.0678 0.13304,0.0807 0.23865,0.19674 0.19674,0.23865 0.0807,0.13304 0.0678,0.14112 0.0541,0.1484 0.0396,0.15488 0.0244,0.16057 0.008,0.16545 -0.008,0.16545 -0.0244,0.16057 -0.0396,0.15488 -0.0541,0.1484 -0.0678,0.14112 -0.0807,0.13304 -0.19674,0.23865 -0.23865,0.19674 -0.13304,0.0807 -0.14112,0.0678 -0.1484,0.0541 -0.15489,0.0396 -0.16056,0.0244 -0.16545,0.008 h -1.7 l -0.16545,-0.008 -0.16057,-0.0244 -0.15488,-0.0396 -0.1484,-0.0541 -0.14113,-0.0678 -0.13304,-0.0807 -0.23865,-0.19674 -0.19674,-0.23865 -0.0806,-0.13304 -0.0678,-0.14112 -0.0541,-0.1484 -0.0396,-0.15488 -0.0244,-0.16057 -0.008,-0.16545 0.008,-0.16545 0.0244,-0.16057 0.0396,-0.15488 0.0541,-0.1484 0.0678,-0.14112 0.0806,-0.13304 0.19674,-0.23865 0.23865,-0.19674 0.13304,-0.0807 0.14113,-0.0678 0.1484,-0.0541 0.15488,-0.0396 0.16057,-0.0244 0.16545,-0.008 v 0"
         style="opacity:1;fill:none;fill-opacity:1;stroke:#ff0000;stroke-width:0.07255765;stroke-linecap:round;stroke-linejoin:miter;stroke-miterlimit:10;stroke-dasharray:none;stroke-opacity:1;paint-order:normal"
         inkscape:connector-curvature="0" />
      <path
         sodipodi:nodetypes="ccccccccccccccccccccccccccccccccccccccccccccccccccccccccccccccccccccccccccccccccccccccccccccccccccccccccccccccccccccccccccccccccccccccccccccccccccccccccccccccccccccccccccccccccccccccccccccccccccccccccccccccccccccccccccccccccccccccccccccccccccccccccccccc"
         inkscape:connector-curvature="0"
         id="path13510"
         d="m 167.60408,405.25132 -0.0326,0.16123 -0.0326,0.16123 -0.032,0.16123 -0.0326,0.16124 -0.0315,0.16071 -0.0124,0.061 -0.0543,-0.0114 -0.34364,-0.0439 -0.34727,-0.009 -0.34571,0.0253 -0.23409,0.0408 -0.0125,-0.0579 -0.0326,-0.16175 -0.0326,-0.16226 -0.0326,-0.16175 -0.0326,-0.16226 -0.032,-0.16227 -0.0326,-0.16226 -0.0641,-0.0641 -0.18033,0.0412 -0.17801,0.0483 -0.17553,0.0552 -0.17282,0.0621 -0.16995,0.0688 -0.16688,0.0754 -0.16362,0.082 -0.16017,0.0884 -0.15653,0.0947 -0.1527,0.10086 -0.14868,0.10694 -0.14447,0.1129 -0.14007,0.11877 -0.13548,0.12451 -0.1307,0.13015 -0.12572,0.13567 0.0243,0.0858 0.12454,0.11007 0.12505,0.10956 0.12454,0.11007 0.12454,0.11007 0.12558,0.10955 0.12454,0.10956 0.0403,0.0357 -0.0858,0.0992 -0.20309,0.28112 -0.17466,0.30024 -0.14367,0.31574 -0.0522,0.15245 -0.0532,-0.0181 -0.15813,-0.0532 -0.15761,-0.0532 -0.15761,-0.0532 -0.15761,-0.0532 -0.15762,-0.0532 -0.15761,-0.0532 -0.0853,0.0227 -0.028,0.0872 -0.0263,0.0877 -0.0245,0.0882 -0.0227,0.0886 -0.021,0.089 -0.0192,0.0894 -0.0174,0.0897 -0.0156,0.09 -0.0138,0.0903 -0.012,0.0906 -0.0102,0.0908 -0.008,0.091 -0.007,0.0912 -0.005,0.0914 -0.003,0.0915 -0.001,0.0916 0.001,0.0926 0.003,0.0925 0.005,0.0923 0.007,0.0922 0.009,0.092 0.0106,0.0918 0.0124,0.0915 0.0142,0.0912 0.0161,0.0909 0.0179,0.0906 0.0197,0.0902 0.0215,0.0899 0.0233,0.0894 0.0251,0.089 0.0269,0.0885 0.0287,0.088 0.0786,0.0207 0.15606,-0.0532 0.15658,-0.0527 0.15658,-0.0527 0.15606,-0.0527 0.15658,-0.0527 0.15606,-0.0532 0.0631,-0.0212 0.11524,0.29248 0.15762,0.30851 0.13022,0.20826 0.20877,0.2775 0.0532,0.0579 -0.0563,0.0491 -0.1235,0.10852 -0.12351,0.10852 -0.12351,0.10852 -0.1235,0.10852 -0.12299,0.10852 -0.12351,0.10852 -0.0207,0.0754 0.12578,0.13607 0.13077,0.13052 0.13557,0.12487 0.14019,0.11911 0.14461,0.11323 0.14884,0.10725 0.15288,0.10115 0.15673,0.0949 0.16038,0.0886 0.16385,0.0822 0.16712,0.0757 0.1702,0.069 0.1731,0.0623 0.1758,0.0554 0.17831,0.0484 0.18063,0.0413 0.0568,-0.0579 0.0326,-0.16123 0.032,-0.16175 0.0326,-0.16123 0.0326,-0.16123 0.032,-0.16123 0.032,-0.16071 0.015,-0.0734 0.0522,0.0108 0.34468,0.0439 0.34623,0.009 0.34675,-0.0248 0.23305,-0.0403 0.0139,0.0693 0.032,0.16174 0.0326,0.16279 0.0326,0.16174 0.0326,0.16175 0.0326,0.16226 0.032,0.16175 0.0543,0.0553 0.1807,-0.041 0.17839,-0.0481 0.17589,-0.0551 0.17321,-0.0619 0.17033,-0.0687 0.16725,-0.0754 0.16399,-0.0819 0.16054,-0.0883 0.1569,-0.0947 0.15306,-0.10087 0.14903,-0.10697 0.14481,-0.11296 0.14041,-0.11884 0.1358,-0.12462 0.131,-0.13028 0.12603,-0.13583 -0.0202,-0.077 -0.12558,-0.10903 -0.12505,-0.11008 -0.12453,-0.11006 -0.12506,-0.11008 -0.12557,-0.10955 -0.12454,-0.11007 -0.046,-0.0408 0.0925,-0.10646 0.20309,-0.28112 0.17415,-0.29972 0.14366,-0.31626 0.0486,-0.14159 0.0568,0.0191 0.15813,0.0532 0.15761,0.0537 0.15762,0.0527 0.1576,0.0538 0.15813,0.0532 0.15762,0.0532 0.0801,-0.0207 0.0286,-0.0881 0.0268,-0.0885 0.025,-0.089 0.0232,-0.0894 0.0214,-0.0899 0.0196,-0.0902 0.0177,-0.0906 0.0159,-0.0909 0.0141,-0.0912 0.0122,-0.0915 0.0104,-0.0918 0.009,-0.092 0.007,-0.0922 0.005,-0.0923 0.003,-0.0925 0.001,-0.0926 -0.001,-0.0917 -0.003,-0.0916 -0.005,-0.0915 -0.007,-0.0913 -0.009,-0.0911 -0.0104,-0.0909 -0.0122,-0.0906 -0.014,-0.0904 -0.0158,-0.0901 -0.0175,-0.0898 -0.0193,-0.0894 -0.0211,-0.089 -0.0229,-0.0886 -0.0247,-0.0882 -0.0264,-0.0878 -0.0282,-0.0873 -0.0827,-0.0222 -0.15658,0.0532 -0.15658,0.0527 -0.15606,0.0527 -0.15658,0.0532 -0.15606,0.0527 -0.15658,0.0527 -0.0584,0.0196 -0.11834,-0.30231 -0.15865,-0.30902 -0.13022,-0.20826 -0.20825,-0.27698 -0.047,-0.0512 0.0486,-0.0429 0.1235,-0.10852 0.1235,-0.10904 0.12351,-0.108 0.12351,-0.10852 0.12299,-0.10852 0.1235,-0.10852 0.0424,-0.0656 -0.12704,-0.13925 -0.13226,-0.13354 -0.13724,-0.12771 -0.14205,-0.12177 -0.14664,-0.11571 -0.15103,-0.10953 -0.15522,-0.10324 -0.15923,-0.0968 -0.163,-0.0903 -0.1666,-0.0837 -0.16998,-0.0769 -0.17318,-0.07 -0.17615,-0.063 -0.17894,-0.0559 -0.18154,-0.0487 -0.1133,-0.0162 -0.0361,0.0108 -0.0268,0.0219 -0.0386,0.0733 -0.0405,0.10559 v 0"
         style="color:#000000;clip-rule:nonzero;display:inline;overflow:visible;visibility:visible;opacity:1;isolation:auto;mix-blend-mode:normal;color-interpolation:sRGB;color-interpolation-filters:linearRGB;solid-color:#000000;solid-opacity:1;fill:none;fill-opacity:1;fill-rule:nonzero;stroke:#ff0000;stroke-width:0.09999999;stroke-linecap:butt;stroke-linejoin:miter;stroke-miterlimit:4;stroke-dasharray:none;stroke-dashoffset:0;stroke-opacity:1;color-rendering:auto;image-rendering:auto;shape-rendering:auto;text-rendering:auto;enable-background:accumulate" />
      <path
         style="color:#000000;clip-rule:nonzero;display:inline;overflow:visible;visibility:visible;opacity:1;isolation:auto;mix-blend-mode:normal;color-interpolation:sRGB;color-interpolation-filters:linearRGB;solid-color:#000000;solid-opacity:1;fill:none;fill-opacity:1;fill-rule:nonzero;stroke:#ff0000;stroke-width:0.09999999;stroke-linecap:butt;stroke-linejoin:miter;stroke-miterlimit:4;stroke-dasharray:none;stroke-dashoffset:0;stroke-opacity:1;color-rendering:auto;image-rendering:auto;shape-rendering:auto;text-rendering:auto;enable-background:accumulate"
         d="m 167.60408,430.13869 -0.0326,0.16123 -0.0326,0.16123 -0.032,0.16123 -0.0326,0.16123 -0.0315,0.16072 -0.0124,0.061 -0.0543,-0.0114 -0.34364,-0.0439 -0.34727,-0.009 -0.34571,0.0253 -0.23409,0.0408 -0.0125,-0.0579 -0.0326,-0.16175 -0.0326,-0.16226 -0.0326,-0.16175 -0.0326,-0.16226 -0.032,-0.16227 -0.0326,-0.16226 -0.0641,-0.0641 -0.18033,0.0412 -0.17801,0.0483 -0.17553,0.0552 -0.17282,0.0621 -0.16995,0.0688 -0.16688,0.0754 -0.16362,0.082 -0.16017,0.0884 -0.15653,0.0947 -0.1527,0.10086 -0.14868,0.10694 -0.14447,0.1129 -0.14007,0.11877 -0.13548,0.12451 -0.1307,0.13015 -0.12572,0.13567 0.0243,0.0858 0.12454,0.11007 0.12505,0.10956 0.12454,0.11007 0.12454,0.11007 0.12558,0.10955 0.12454,0.10956 0.0403,0.0357 -0.0858,0.0992 -0.20309,0.28112 -0.17466,0.30024 -0.14367,0.31574 -0.0522,0.15244 -0.0532,-0.0181 -0.15813,-0.0532 -0.15761,-0.0532 -0.15761,-0.0532 -0.15761,-0.0532 -0.15762,-0.0532 -0.15761,-0.0532 -0.0853,0.0227 -0.028,0.0872 -0.0263,0.0877 -0.0245,0.0882 -0.0227,0.0886 -0.021,0.089 -0.0192,0.0894 -0.0174,0.0897 -0.0156,0.09 -0.0138,0.0903 -0.012,0.0906 -0.0102,0.0908 -0.008,0.091 -0.007,0.0912 -0.005,0.0914 -0.003,0.0915 -0.001,0.0916 0.001,0.0926 0.003,0.0925 0.005,0.0923 0.007,0.0922 0.009,0.092 0.0106,0.0918 0.0124,0.0915 0.0142,0.0912 0.0161,0.0909 0.0179,0.0906 0.0197,0.0902 0.0215,0.0899 0.0233,0.0894 0.0251,0.089 0.0269,0.0885 0.0287,0.088 0.0786,0.0207 0.15606,-0.0532 0.15658,-0.0527 0.15658,-0.0527 0.15606,-0.0527 0.15658,-0.0527 0.15606,-0.0532 0.0631,-0.0212 0.11524,0.29249 0.15762,0.30851 0.13022,0.20826 0.20877,0.2775 0.0532,0.0579 -0.0563,0.0491 -0.1235,0.10852 -0.12351,0.10852 -0.12351,0.10852 -0.1235,0.10852 -0.12299,0.10852 -0.12351,0.10852 -0.0207,0.0754 0.12578,0.13607 0.13077,0.13052 0.13557,0.12486 0.14019,0.11911 0.14461,0.11324 0.14884,0.10724 0.15288,0.10116 0.15673,0.0949 0.16038,0.0886 0.16385,0.0822 0.16712,0.0757 0.1702,0.069 0.1731,0.0623 0.1758,0.0554 0.17831,0.0484 0.18063,0.0413 0.0568,-0.0579 0.0326,-0.16123 0.032,-0.16175 0.0326,-0.16123 0.0326,-0.16124 0.032,-0.16122 0.032,-0.16072 0.015,-0.0734 0.0522,0.0108 0.34468,0.0439 0.34623,0.009 0.34675,-0.0248 0.23305,-0.0403 0.0139,0.0692 0.032,0.16175 0.0326,0.16279 0.0326,0.16174 0.0326,0.16175 0.0326,0.16226 0.032,0.16175 0.0543,0.0553 0.1807,-0.041 0.17839,-0.0481 0.17589,-0.0551 0.17321,-0.0619 0.17033,-0.0687 0.16725,-0.0754 0.16399,-0.0819 0.16054,-0.0883 0.1569,-0.0947 0.15306,-0.10087 0.14903,-0.10697 0.14481,-0.11296 0.14041,-0.11884 0.1358,-0.12462 0.131,-0.13028 0.12603,-0.13582 -0.0202,-0.077 -0.12558,-0.10904 -0.12505,-0.11007 -0.12454,-0.11007 -0.12506,-0.11007 -0.12557,-0.10955 -0.12454,-0.11008 -0.046,-0.0408 0.0925,-0.10645 0.20309,-0.28112 0.17415,-0.29972 0.14366,-0.31627 0.0486,-0.14159 0.0568,0.0191 0.15813,0.0532 0.15761,0.0537 0.15762,0.0527 0.1576,0.0538 0.15813,0.0532 0.15762,0.0532 0.0801,-0.0207 0.0286,-0.0881 0.0268,-0.0885 0.025,-0.089 0.0232,-0.0894 0.0214,-0.0899 0.0196,-0.0902 0.0177,-0.0906 0.0159,-0.0909 0.0141,-0.0912 0.0122,-0.0915 0.0104,-0.0918 0.009,-0.092 0.007,-0.0922 0.005,-0.0923 0.003,-0.0925 0.001,-0.0926 -0.001,-0.0917 -0.003,-0.0916 -0.005,-0.0915 -0.007,-0.0913 -0.009,-0.0911 -0.0104,-0.0909 -0.0122,-0.0906 -0.014,-0.0904 -0.0158,-0.0901 -0.0175,-0.0898 -0.0193,-0.0894 -0.0211,-0.089 -0.0229,-0.0886 -0.0247,-0.0882 -0.0264,-0.0877 -0.0282,-0.0873 -0.0827,-0.0222 -0.15658,0.0532 -0.15658,0.0527 -0.15606,0.0527 -0.15658,0.0532 -0.15606,0.0527 -0.15658,0.0527 -0.0584,0.0196 -0.11834,-0.30231 -0.15865,-0.30902 -0.13022,-0.20826 -0.20825,-0.27698 -0.047,-0.0512 0.0486,-0.0429 0.1235,-0.10852 0.1235,-0.10904 0.12351,-0.108 0.12351,-0.10852 0.12299,-0.10852 0.1235,-0.10852 0.0424,-0.0656 -0.12704,-0.13925 -0.13226,-0.13354 -0.13724,-0.12771 -0.14205,-0.12177 -0.14664,-0.11571 -0.15103,-0.10953 -0.15522,-0.10324 -0.15922,-0.0968 -0.16301,-0.0903 -0.1666,-0.0837 -0.16998,-0.0769 -0.17317,-0.07 -0.17616,-0.063 -0.17894,-0.0559 -0.18154,-0.0487 -0.12614,-0.0299 -0.0495,0.0304 -0.0377,0.0481 -0.0264,0.0652 -0.0154,0.0816 v 0"
         id="path9115"
         inkscape:connector-curvature="0"
         sodipodi:nodetypes="cccccccccccccccccccccccccccccccccccccccccccccccccccccccccccccccccccccccccccccccccccccccccccccccccccccccccccccccccccccccccccccccccccccccccccccccccccccccccccccccccccccccccccccccccccccccccccccccccccccccccccccccccccccccccccccccccccccccccccccccccccccccccccccc" />
    </g>
  </g>
</svg>
