  0
SECTION
  2
HEADER
  9
$ACADVER
  1
AC1014
  9
$HANDSEED
  5
FFFF
  9
$MEASUREMENT
 70
     1
  0
ENDSEC
  0
SECTION
  2
TABLES
  0
TABLE
  2
VPORT
  5
8
330
0
100
AcDbSymbolTable
 70
     4
  0
VPORT
  5
2E
330
8
100
AcDbSymbolTableRecord
100
AcDbViewportTableRecord
  2
*ACTIVE
 70
     0
 10
0.0
 20
0.0
 11
1.0
 21
1.0
 12
210.0
 22
148.5
 13
0.0
 23
0.0
 14
10.0
 24
10.0
 15
10.0
 25
10.0
 16
0.0
 26
0.0
 36
1.0
 17
0.0
 27
0.0
 37
0.0
 40
341.0
 41
1.24
 42
50.0
 43
0.0
 44
0.0
 50
0.0
 51
0.0
 71
     0
 72
   100
 73
     1
 74
     3
 75
     0
 76
     0
 77
     0
 78
     0
  0
ENDTAB
  0
TABLE
  2
LTYPE
  5
5
330
0
100
AcDbSymbolTable
 70
     1
  0
LTYPE
  5
14
330
5
100
AcDbSymbolTableRecord
100
AcDbLinetypeTableRecord
  2
BYBLOCK
 70
     0
  3

 72
    65
 73
     0
 40
0.0
  0
LTYPE
  5
15
330
5
100
AcDbSymbolTableRecord
100
AcDbLinetypeTableRecord
  2
BYLAYER
 70
     0
  3

 72
    65
 73
     0
 40
0.0
  0
LTYPE
  5
16
330
5
100
AcDbSymbolTableRecord
100
AcDbLinetypeTableRecord
  2
CONTINUOUS
 70
     0
  3
Solid line
 72
    65
 73
     0
 40
0.0
  0
ENDTAB
  0
TABLE
  2
LAYER
  5
2
100
AcDbSymbolTable
 70
2
  0
LAYER
  5
50
100
AcDbSymbolTableRecord
100
AcDbLayerTableRecord
  2
0
 70
0
  6
CONTINUOUS
  0
LAYER
  5
51
100
AcDbSymbolTableRecord
100
AcDbLayerTableRecord
  2
Layer_1
 70
0
  6
CONTINUOUS
  0
ENDTAB
  0
TABLE
  2
STYLE
  5
3
330
0
100
AcDbSymbolTable
 70
     1
  0
STYLE
  5
11
330
3
100
AcDbSymbolTableRecord
100
AcDbTextStyleTableRecord
  2
STANDARD
 70
     0
 40
0.0
 41
1.0
 50
0.0
 71
     0
 42
2.5
  3
txt
  4

  0
ENDTAB
  0
TABLE
  2
VIEW
  5
6
330
0
100
AcDbSymbolTable
 70
     0
  0
ENDTAB
  0
TABLE
  2
UCS
  5
7
330
0
100
AcDbSymbolTable
 70
     0
  0
ENDTAB
  0
TABLE
  2
APPID
  5
9
330
0
100
AcDbSymbolTable
 70
     2
  0
APPID
  5
12
330
9
100
AcDbSymbolTableRecord
100
AcDbRegAppTableRecord
  2
ACAD
 70
     0
  0
ENDTAB
  0
TABLE
  2
DIMSTYLE
  5
A
330
0
100
AcDbSymbolTable
 70
     1
  0
DIMSTYLE
105
27
330
A
100
AcDbSymbolTableRecord
100
AcDbDimStyleTableRecord
  2
ISO-25
 70
     0
  3

  4

  5

  6

  7

 40
1.0
 41
2.5
 42
0.625
 43
3.75
 44
1.25
 45
0.0
 46
0.0
 47
0.0
 48
0.0
140
2.5
141
2.5
142
0.0
143
0.03937007874016
144
1.0
145
0.0
146
1.0
147
0.625
 71
     0
 72
     0
 73
     0
 74
     0
 75
     0
 76
     0
 77
     1
 78
     8
170
     0
171
     3
172
     1
173
     0
174
     0
175
     0
176
     0
177
     0
178
     0
270
     2
271
     2
272
     2
273
     2
274
     3
340
11
275
     0
280
     0
281
     0
282
     0
283
     0
284
     8
285
     0
286
     0
287
     3
288
     0
  0
ENDTAB
  0
TABLE
  2
BLOCK_RECORD
  5
1
330
0
100
AcDbSymbolTable
 70
     1
  0
BLOCK_RECORD
  5
1F
330
1
100
AcDbSymbolTableRecord
100
AcDbBlockTableRecord
  2
*MODEL_SPACE
  0
BLOCK_RECORD
  5
1B
330
1
100
AcDbSymbolTableRecord
100
AcDbBlockTableRecord
  2
*PAPER_SPACE
  0
ENDTAB
  0
ENDSEC
  0
SECTION
  2
BLOCKS
  0
BLOCK
  5
20
330
1F
100
AcDbEntity
  8
0
100
AcDbBlockBegin
  2
*MODEL_SPACE
 70
     0
 10
0.0
 20
0.0
 30
0.0
  3
*MODEL_SPACE
  1

  0
ENDBLK
  5
21
330
1F
100
AcDbEntity
  8
0
100
AcDbBlockEnd
  0
BLOCK
  5
1C
330
1B
100
AcDbEntity
 67
     1
  8
0
100
AcDbBlockBegin
  2
*PAPER_SPACE
  1

  0
ENDBLK
  5
1D
330
1B
100
AcDbEntity
 67
     1
  8
0
100
AcDbBlockEnd
  0
ENDSEC
  0
SECTION
  2
ENTITIES
  0
SPLINE
  5
100
100
AcDbEntity
  8
Layer_1
 62
7
100
AcDbSpline
 70
8
 71
3
 72
8
 73
4
 74
0
 40
0
 40
0
 40
0
 40
0
 40
1
 40
1
 40
1
 40
1
 10
12.537666
 20
68.224203
 30
0.0
 10
12.537666
 20
67.018862
 30
0.0
 10
11.894625
 20
65.905081
 30
0.0
 10
10.850769
 20
65.302411
 30
0.0
  0
SPLINE
  5
101
100
AcDbEntity
  8
Layer_1
 62
7
100
AcDbSpline
 70
8
 71
3
 72
8
 73
4
 74
0
 40
0
 40
0
 40
0
 40
0
 40
1
 40
1
 40
1
 40
1
 10
10.850769
 20
65.302411
 30
0.0
 10
9.806914
 20
64.699741
 30
0.0
 10
8.520830
 20
64.699741
 30
0.0
 10
7.476975
 20
65.302411
 30
0.0
  0
SPLINE
  5
102
100
AcDbEntity
  8
Layer_1
 62
7
100
AcDbSpline
 70
8
 71
3
 72
8
 73
4
 74
0
 40
0
 40
0
 40
0
 40
0
 40
1
 40
1
 40
1
 40
1
 10
7.476975
 20
65.302411
 30
0.0
 10
6.433119
 20
65.905081
 30
0.0
 10
5.790078
 20
67.018862
 30
0.0
 10
5.790078
 20
68.224203
 30
0.0
  0
SPLINE
  5
103
100
AcDbEntity
  8
Layer_1
 62
7
100
AcDbSpline
 70
8
 71
3
 72
8
 73
4
 74
0
 40
0
 40
0
 40
0
 40
0
 40
1
 40
1
 40
1
 40
1
 10
5.790078
 20
68.224203
 30
0.0
 10
5.790078
 20
69.429543
 30
0.0
 10
6.433119
 20
70.543324
 30
0.0
 10
7.476975
 20
71.145994
 30
0.0
  0
SPLINE
  5
104
100
AcDbEntity
  8
Layer_1
 62
7
100
AcDbSpline
 70
8
 71
3
 72
8
 73
4
 74
0
 40
0
 40
0
 40
0
 40
0
 40
1
 40
1
 40
1
 40
1
 10
7.476975
 20
71.145994
 30
0.0
 10
8.520830
 20
71.748665
 30
0.0
 10
9.806914
 20
71.748665
 30
0.0
 10
10.850769
 20
71.145994
 30
0.0
  0
SPLINE
  5
105
100
AcDbEntity
  8
Layer_1
 62
7
100
AcDbSpline
 70
8
 71
3
 72
8
 73
4
 74
0
 40
0
 40
0
 40
0
 40
0
 40
1
 40
1
 40
1
 40
1
 10
10.850769
 20
71.145994
 30
0.0
 10
11.894625
 20
70.543324
 30
0.0
 10
12.537666
 20
69.429543
 30
0.0
 10
12.537666
 20
68.224203
 30
0.0
  0
SPLINE
  5
106
100
AcDbEntity
  8
Layer_1
 62
7
100
AcDbSpline
 70
8
 71
3
 72
8
 73
4
 74
0
 40
0
 40
0
 40
0
 40
0
 40
1
 40
1
 40
1
 40
1
 10
12.537666
 20
36.793312
 30
0.0
 10
12.537666
 20
35.587971
 30
0.0
 10
11.894625
 20
34.474191
 30
0.0
 10
10.850769
 20
33.871520
 30
0.0
  0
SPLINE
  5
107
100
AcDbEntity
  8
Layer_1
 62
7
100
AcDbSpline
 70
8
 71
3
 72
8
 73
4
 74
0
 40
0
 40
0
 40
0
 40
0
 40
1
 40
1
 40
1
 40
1
 10
10.850769
 20
33.871520
 30
0.0
 10
9.806914
 20
33.268850
 30
0.0
 10
8.520830
 20
33.268850
 30
0.0
 10
7.476975
 20
33.871520
 30
0.0
  0
SPLINE
  5
108
100
AcDbEntity
  8
Layer_1
 62
7
100
AcDbSpline
 70
8
 71
3
 72
8
 73
4
 74
0
 40
0
 40
0
 40
0
 40
0
 40
1
 40
1
 40
1
 40
1
 10
7.476975
 20
33.871520
 30
0.0
 10
6.433119
 20
34.474191
 30
0.0
 10
5.790078
 20
35.587971
 30
0.0
 10
5.790078
 20
36.793312
 30
0.0
  0
SPLINE
  5
109
100
AcDbEntity
  8
Layer_1
 62
7
100
AcDbSpline
 70
8
 71
3
 72
8
 73
4
 74
0
 40
0
 40
0
 40
0
 40
0
 40
1
 40
1
 40
1
 40
1
 10
5.790078
 20
36.793312
 30
0.0
 10
5.790078
 20
37.998653
 30
0.0
 10
6.433119
 20
39.112433
 30
0.0
 10
7.476975
 20
39.715104
 30
0.0
  0
SPLINE
  5
10a
100
AcDbEntity
  8
Layer_1
 62
7
100
AcDbSpline
 70
8
 71
3
 72
8
 73
4
 74
0
 40
0
 40
0
 40
0
 40
0
 40
1
 40
1
 40
1
 40
1
 10
7.476975
 20
39.715104
 30
0.0
 10
8.520830
 20
40.317774
 30
0.0
 10
9.806914
 20
40.317774
 30
0.0
 10
10.850769
 20
39.715104
 30
0.0
  0
SPLINE
  5
10b
100
AcDbEntity
  8
Layer_1
 62
7
100
AcDbSpline
 70
8
 71
3
 72
8
 73
4
 74
0
 40
0
 40
0
 40
0
 40
0
 40
1
 40
1
 40
1
 40
1
 10
10.850769
 20
39.715104
 30
0.0
 10
11.894625
 20
39.112433
 30
0.0
 10
12.537666
 20
37.998653
 30
0.0
 10
12.537666
 20
36.793312
 30
0.0
  0
LWPOLYLINE
  5
10c
100
AcDbEntity
  8
Layer_1
 62
7
100
AcDbPolyline
 90
1
 70
1
 10
12.537666
 20
68.224203
 30
0.0
  0
SPLINE
  5
10d
100
AcDbEntity
  8
Layer_1
 62
7
100
AcDbSpline
 70
8
 71
3
 72
8
 73
4
 74
0
 40
0
 40
0
 40
0
 40
0
 40
1
 40
1
 40
1
 40
1
 10
12.537666
 20
22.108939
 30
0.0
 10
12.537666
 20
20.903598
 30
0.0
 10
11.894625
 20
19.789817
 30
0.0
 10
10.850769
 20
19.187147
 30
0.0
  0
SPLINE
  5
10e
100
AcDbEntity
  8
Layer_1
 62
7
100
AcDbSpline
 70
8
 71
3
 72
8
 73
4
 74
0
 40
0
 40
0
 40
0
 40
0
 40
1
 40
1
 40
1
 40
1
 10
10.850769
 20
19.187147
 30
0.0
 10
9.806914
 20
18.584477
 30
0.0
 10
8.520830
 20
18.584477
 30
0.0
 10
7.476975
 20
19.187147
 30
0.0
  0
SPLINE
  5
10f
100
AcDbEntity
  8
Layer_1
 62
7
100
AcDbSpline
 70
8
 71
3
 72
8
 73
4
 74
0
 40
0
 40
0
 40
0
 40
0
 40
1
 40
1
 40
1
 40
1
 10
7.476975
 20
19.187147
 30
0.0
 10
6.433119
 20
19.789817
 30
0.0
 10
5.790078
 20
20.903598
 30
0.0
 10
5.790078
 20
22.108939
 30
0.0
  0
SPLINE
  5
110
100
AcDbEntity
  8
Layer_1
 62
7
100
AcDbSpline
 70
8
 71
3
 72
8
 73
4
 74
0
 40
0
 40
0
 40
0
 40
0
 40
1
 40
1
 40
1
 40
1
 10
5.790078
 20
22.108939
 30
0.0
 10
5.790078
 20
23.314279
 30
0.0
 10
6.433119
 20
24.428060
 30
0.0
 10
7.476975
 20
25.030730
 30
0.0
  0
SPLINE
  5
111
100
AcDbEntity
  8
Layer_1
 62
7
100
AcDbSpline
 70
8
 71
3
 72
8
 73
4
 74
0
 40
0
 40
0
 40
0
 40
0
 40
1
 40
1
 40
1
 40
1
 10
7.476975
 20
25.030730
 30
0.0
 10
8.520830
 20
25.633401
 30
0.0
 10
9.806914
 20
25.633401
 30
0.0
 10
10.850769
 20
25.030730
 30
0.0
  0
SPLINE
  5
112
100
AcDbEntity
  8
Layer_1
 62
7
100
AcDbSpline
 70
8
 71
3
 72
8
 73
4
 74
0
 40
0
 40
0
 40
0
 40
0
 40
1
 40
1
 40
1
 40
1
 10
10.850769
 20
25.030730
 30
0.0
 10
11.894625
 20
24.428060
 30
0.0
 10
12.537666
 20
23.314279
 30
0.0
 10
12.537666
 20
22.108939
 30
0.0
  0
LWPOLYLINE
  5
113
100
AcDbEntity
  8
Layer_1
 62
7
100
AcDbPolyline
 90
1
 70
1
 10
12.537666
 20
36.793312
 30
0.0
  0
SPLINE
  5
114
100
AcDbEntity
  8
Layer_1
 62
7
100
AcDbSpline
 70
8
 71
3
 72
8
 73
4
 74
0
 40
0
 40
0
 40
0
 40
0
 40
1
 40
1
 40
1
 40
1
 10
25.460568
 20
36.793312
 30
0.0
 10
25.460568
 20
35.587971
 30
0.0
 10
24.817526
 20
34.474191
 30
0.0
 10
23.773671
 20
33.871520
 30
0.0
  0
SPLINE
  5
115
100
AcDbEntity
  8
Layer_1
 62
7
100
AcDbSpline
 70
8
 71
3
 72
8
 73
4
 74
0
 40
0
 40
0
 40
0
 40
0
 40
1
 40
1
 40
1
 40
1
 10
23.773671
 20
33.871520
 30
0.0
 10
22.729815
 20
33.268850
 30
0.0
 10
21.443732
 20
33.268850
 30
0.0
 10
20.399876
 20
33.871520
 30
0.0
  0
SPLINE
  5
116
100
AcDbEntity
  8
Layer_1
 62
7
100
AcDbSpline
 70
8
 71
3
 72
8
 73
4
 74
0
 40
0
 40
0
 40
0
 40
0
 40
1
 40
1
 40
1
 40
1
 10
20.399876
 20
33.871520
 30
0.0
 10
19.356021
 20
34.474191
 30
0.0
 10
18.712979
 20
35.587971
 30
0.0
 10
18.712979
 20
36.793312
 30
0.0
  0
SPLINE
  5
117
100
AcDbEntity
  8
Layer_1
 62
7
100
AcDbSpline
 70
8
 71
3
 72
8
 73
4
 74
0
 40
0
 40
0
 40
0
 40
0
 40
1
 40
1
 40
1
 40
1
 10
18.712979
 20
36.793312
 30
0.0
 10
18.712979
 20
37.998653
 30
0.0
 10
19.356021
 20
39.112433
 30
0.0
 10
20.399876
 20
39.715104
 30
0.0
  0
SPLINE
  5
118
100
AcDbEntity
  8
Layer_1
 62
7
100
AcDbSpline
 70
8
 71
3
 72
8
 73
4
 74
0
 40
0
 40
0
 40
0
 40
0
 40
1
 40
1
 40
1
 40
1
 10
20.399876
 20
39.715104
 30
0.0
 10
21.443732
 20
40.317774
 30
0.0
 10
22.729815
 20
40.317774
 30
0.0
 10
23.773671
 20
39.715104
 30
0.0
  0
SPLINE
  5
119
100
AcDbEntity
  8
Layer_1
 62
7
100
AcDbSpline
 70
8
 71
3
 72
8
 73
4
 74
0
 40
0
 40
0
 40
0
 40
0
 40
1
 40
1
 40
1
 40
1
 10
23.773671
 20
39.715104
 30
0.0
 10
24.817526
 20
39.112433
 30
0.0
 10
25.460568
 20
37.998653
 30
0.0
 10
25.460568
 20
36.793312
 30
0.0
  0
LWPOLYLINE
  5
11a
100
AcDbEntity
  8
Layer_1
 62
7
100
AcDbPolyline
 90
1
 70
1
 10
12.537666
 20
22.108939
 30
0.0
  0
SPLINE
  5
11b
100
AcDbEntity
  8
Layer_1
 62
7
100
AcDbSpline
 70
8
 71
3
 72
8
 73
4
 74
0
 40
0
 40
0
 40
0
 40
0
 40
1
 40
1
 40
1
 40
1
 10
25.460568
 20
22.108939
 30
0.0
 10
25.460568
 20
20.903598
 30
0.0
 10
24.817526
 20
19.789817
 30
0.0
 10
23.773671
 20
19.187147
 30
0.0
  0
SPLINE
  5
11c
100
AcDbEntity
  8
Layer_1
 62
7
100
AcDbSpline
 70
8
 71
3
 72
8
 73
4
 74
0
 40
0
 40
0
 40
0
 40
0
 40
1
 40
1
 40
1
 40
1
 10
23.773671
 20
19.187147
 30
0.0
 10
22.729815
 20
18.584477
 30
0.0
 10
21.443732
 20
18.584477
 30
0.0
 10
20.399876
 20
19.187147
 30
0.0
  0
SPLINE
  5
11d
100
AcDbEntity
  8
Layer_1
 62
7
100
AcDbSpline
 70
8
 71
3
 72
8
 73
4
 74
0
 40
0
 40
0
 40
0
 40
0
 40
1
 40
1
 40
1
 40
1
 10
20.399876
 20
19.187147
 30
0.0
 10
19.356021
 20
19.789817
 30
0.0
 10
18.712979
 20
20.903598
 30
0.0
 10
18.712979
 20
22.108939
 30
0.0
  0
SPLINE
  5
11e
100
AcDbEntity
  8
Layer_1
 62
7
100
AcDbSpline
 70
8
 71
3
 72
8
 73
4
 74
0
 40
0
 40
0
 40
0
 40
0
 40
1
 40
1
 40
1
 40
1
 10
18.712979
 20
22.108939
 30
0.0
 10
18.712979
 20
23.314279
 30
0.0
 10
19.356021
 20
24.428060
 30
0.0
 10
20.399876
 20
25.030730
 30
0.0
  0
SPLINE
  5
11f
100
AcDbEntity
  8
Layer_1
 62
7
100
AcDbSpline
 70
8
 71
3
 72
8
 73
4
 74
0
 40
0
 40
0
 40
0
 40
0
 40
1
 40
1
 40
1
 40
1
 10
20.399876
 20
25.030730
 30
0.0
 10
21.443732
 20
25.633401
 30
0.0
 10
22.729815
 20
25.633401
 30
0.0
 10
23.773671
 20
25.030730
 30
0.0
  0
SPLINE
  5
120
100
AcDbEntity
  8
Layer_1
 62
7
100
AcDbSpline
 70
8
 71
3
 72
8
 73
4
 74
0
 40
0
 40
0
 40
0
 40
0
 40
1
 40
1
 40
1
 40
1
 10
23.773671
 20
25.030730
 30
0.0
 10
24.817526
 20
24.428060
 30
0.0
 10
25.460568
 20
23.314279
 30
0.0
 10
25.460568
 20
22.108939
 30
0.0
  0
LWPOLYLINE
  5
121
100
AcDbEntity
  8
Layer_1
 62
7
100
AcDbPolyline
 90
1
 70
1
 10
25.460568
 20
36.793312
 30
0.0
  0
SPLINE
  5
122
100
AcDbEntity
  8
Layer_1
 62
7
100
AcDbSpline
 70
8
 71
3
 72
8
 73
4
 74
0
 40
0
 40
0
 40
0
 40
0
 40
1
 40
1
 40
1
 40
1
 10
38.494434
 20
36.793312
 30
0.0
 10
38.494434
 20
35.587971
 30
0.0
 10
37.851393
 20
34.474191
 30
0.0
 10
36.807537
 20
33.871520
 30
0.0
  0
SPLINE
  5
123
100
AcDbEntity
  8
Layer_1
 62
7
100
AcDbSpline
 70
8
 71
3
 72
8
 73
4
 74
0
 40
0
 40
0
 40
0
 40
0
 40
1
 40
1
 40
1
 40
1
 10
36.807537
 20
33.871520
 30
0.0
 10
35.763682
 20
33.268850
 30
0.0
 10
34.477598
 20
33.268850
 30
0.0
 10
33.433743
 20
33.871520
 30
0.0
  0
SPLINE
  5
124
100
AcDbEntity
  8
Layer_1
 62
7
100
AcDbSpline
 70
8
 71
3
 72
8
 73
4
 74
0
 40
0
 40
0
 40
0
 40
0
 40
1
 40
1
 40
1
 40
1
 10
33.433743
 20
33.871520
 30
0.0
 10
32.389887
 20
34.474191
 30
0.0
 10
31.746846
 20
35.587971
 30
0.0
 10
31.746846
 20
36.793312
 30
0.0
  0
SPLINE
  5
125
100
AcDbEntity
  8
Layer_1
 62
7
100
AcDbSpline
 70
8
 71
3
 72
8
 73
4
 74
0
 40
0
 40
0
 40
0
 40
0
 40
1
 40
1
 40
1
 40
1
 10
31.746846
 20
36.793312
 30
0.0
 10
31.746846
 20
38.656607
 30
0.0
 10
33.257345
 20
40.167106
 30
0.0
 10
35.120640
 20
40.167106
 30
0.0
  0
SPLINE
  5
126
100
AcDbEntity
  8
Layer_1
 62
7
100
AcDbSpline
 70
8
 71
3
 72
8
 73
4
 74
0
 40
0
 40
0
 40
0
 40
0
 40
1
 40
1
 40
1
 40
1
 10
35.120640
 20
40.167106
 30
0.0
 10
36.983935
 20
40.167106
 30
0.0
 10
38.494434
 20
38.656607
 30
0.0
 10
38.494434
 20
36.793312
 30
0.0
  0
LWPOLYLINE
  5
127
100
AcDbEntity
  8
Layer_1
 62
7
100
AcDbPolyline
 90
1
 70
1
 10
25.460568
 20
22.108939
 30
0.0
  0
SPLINE
  5
128
100
AcDbEntity
  8
Layer_1
 62
7
100
AcDbSpline
 70
8
 71
3
 72
8
 73
4
 74
0
 40
0
 40
0
 40
0
 40
0
 40
1
 40
1
 40
1
 40
1
 10
38.494434
 20
22.108939
 30
0.0
 10
38.494434
 20
20.903598
 30
0.0
 10
37.851393
 20
19.789817
 30
0.0
 10
36.807537
 20
19.187147
 30
0.0
  0
SPLINE
  5
129
100
AcDbEntity
  8
Layer_1
 62
7
100
AcDbSpline
 70
8
 71
3
 72
8
 73
4
 74
0
 40
0
 40
0
 40
0
 40
0
 40
1
 40
1
 40
1
 40
1
 10
36.807537
 20
19.187147
 30
0.0
 10
35.763682
 20
18.584477
 30
0.0
 10
34.477598
 20
18.584477
 30
0.0
 10
33.433743
 20
19.187147
 30
0.0
  0
SPLINE
  5
12a
100
AcDbEntity
  8
Layer_1
 62
7
100
AcDbSpline
 70
8
 71
3
 72
8
 73
4
 74
0
 40
0
 40
0
 40
0
 40
0
 40
1
 40
1
 40
1
 40
1
 10
33.433743
 20
19.187147
 30
0.0
 10
32.389887
 20
19.789817
 30
0.0
 10
31.746846
 20
20.903598
 30
0.0
 10
31.746846
 20
22.108939
 30
0.0
  0
SPLINE
  5
12b
100
AcDbEntity
  8
Layer_1
 62
7
100
AcDbSpline
 70
8
 71
3
 72
8
 73
4
 74
0
 40
0
 40
0
 40
0
 40
0
 40
1
 40
1
 40
1
 40
1
 10
31.746846
 20
22.108939
 30
0.0
 10
31.746846
 20
23.972234
 30
0.0
 10
33.257345
 20
25.482733
 30
0.0
 10
35.120640
 20
25.482733
 30
0.0
  0
SPLINE
  5
12c
100
AcDbEntity
  8
Layer_1
 62
7
100
AcDbSpline
 70
8
 71
3
 72
8
 73
4
 74
0
 40
0
 40
0
 40
0
 40
0
 40
1
 40
1
 40
1
 40
1
 10
35.120640
 20
25.482733
 30
0.0
 10
36.983935
 20
25.482733
 30
0.0
 10
38.494434
 20
23.972234
 30
0.0
 10
38.494434
 20
22.108939
 30
0.0
  0
LWPOLYLINE
  5
12d
100
AcDbEntity
  8
Layer_1
 62
7
100
AcDbPolyline
 90
1
 70
1
 10
38.494434
 20
36.793312
 30
0.0
  0
SPLINE
  5
12e
100
AcDbEntity
  8
Layer_1
 62
7
100
AcDbSpline
 70
8
 71
3
 72
8
 73
4
 74
0
 40
0
 40
0
 40
0
 40
0
 40
1
 40
1
 40
1
 40
1
 10
17.083301
 20
81.725771
 30
0.0
 10
17.083301
 20
80.937292
 30
0.0
 10
16.662653
 20
80.208708
 30
0.0
 10
15.979811
 20
79.814469
 30
0.0
  0
SPLINE
  5
12f
100
AcDbEntity
  8
Layer_1
 62
7
100
AcDbSpline
 70
8
 71
3
 72
8
 73
4
 74
0
 40
0
 40
0
 40
0
 40
0
 40
1
 40
1
 40
1
 40
1
 10
15.979811
 20
79.814469
 30
0.0
 10
15.296968
 20
79.420230
 30
0.0
 10
14.455672
 20
79.420230
 30
0.0
 10
13.772829
 20
79.814469
 30
0.0
  0
SPLINE
  5
130
100
AcDbEntity
  8
Layer_1
 62
7
100
AcDbSpline
 70
8
 71
3
 72
8
 73
4
 74
0
 40
0
 40
0
 40
0
 40
0
 40
1
 40
1
 40
1
 40
1
 10
13.772829
 20
79.814469
 30
0.0
 10
13.089987
 20
80.208708
 30
0.0
 10
12.669339
 20
80.937292
 30
0.0
 10
12.669339
 20
81.725771
 30
0.0
  0
SPLINE
  5
131
100
AcDbEntity
  8
Layer_1
 62
7
100
AcDbSpline
 70
8
 71
3
 72
8
 73
4
 74
0
 40
0
 40
0
 40
0
 40
0
 40
1
 40
1
 40
1
 40
1
 10
12.669339
 20
81.725771
 30
0.0
 10
12.669339
 20
82.514249
 30
0.0
 10
13.089987
 20
83.242833
 30
0.0
 10
13.772829
 20
83.637072
 30
0.0
  0
SPLINE
  5
132
100
AcDbEntity
  8
Layer_1
 62
7
100
AcDbSpline
 70
8
 71
3
 72
8
 73
4
 74
0
 40
0
 40
0
 40
0
 40
0
 40
1
 40
1
 40
1
 40
1
 10
13.772829
 20
83.637072
 30
0.0
 10
14.455672
 20
84.031312
 30
0.0
 10
15.296968
 20
84.031312
 30
0.0
 10
15.979811
 20
83.637072
 30
0.0
  0
SPLINE
  5
133
100
AcDbEntity
  8
Layer_1
 62
7
100
AcDbSpline
 70
8
 71
3
 72
8
 73
4
 74
0
 40
0
 40
0
 40
0
 40
0
 40
1
 40
1
 40
1
 40
1
 10
15.979811
 20
83.637072
 30
0.0
 10
16.662653
 20
83.242833
 30
0.0
 10
17.083301
 20
82.514249
 30
0.0
 10
17.083301
 20
81.725771
 30
0.0
  0
LWPOLYLINE
  5
134
100
AcDbEntity
  8
Layer_1
 62
7
100
AcDbPolyline
 90
1
 70
1
 10
38.494434
 20
22.108939
 30
0.0
  0
SPLINE
  5
135
100
AcDbEntity
  8
Layer_1
 62
7
100
AcDbSpline
 70
8
 71
3
 72
8
 73
4
 74
0
 40
0
 40
0
 40
0
 40
0
 40
1
 40
1
 40
1
 40
1
 10
31.334117
 20
81.725771
 30
0.0
 10
31.334117
 20
80.937292
 30
0.0
 10
30.913469
 20
80.208708
 30
0.0
 10
30.230627
 20
79.814469
 30
0.0
  0
SPLINE
  5
136
100
AcDbEntity
  8
Layer_1
 62
7
100
AcDbSpline
 70
8
 71
3
 72
8
 73
4
 74
0
 40
0
 40
0
 40
0
 40
0
 40
1
 40
1
 40
1
 40
1
 10
30.230627
 20
79.814469
 30
0.0
 10
29.547784
 20
79.420230
 30
0.0
 10
28.706488
 20
79.420230
 30
0.0
 10
28.023645
 20
79.814469
 30
0.0
  0
SPLINE
  5
137
100
AcDbEntity
  8
Layer_1
 62
7
100
AcDbSpline
 70
8
 71
3
 72
8
 73
4
 74
0
 40
0
 40
0
 40
0
 40
0
 40
1
 40
1
 40
1
 40
1
 10
28.023645
 20
79.814469
 30
0.0
 10
27.340803
 20
80.208708
 30
0.0
 10
26.920155
 20
80.937292
 30
0.0
 10
26.920155
 20
81.725771
 30
0.0
  0
SPLINE
  5
138
100
AcDbEntity
  8
Layer_1
 62
7
100
AcDbSpline
 70
8
 71
3
 72
8
 73
4
 74
0
 40
0
 40
0
 40
0
 40
0
 40
1
 40
1
 40
1
 40
1
 10
26.920155
 20
81.725771
 30
0.0
 10
26.920155
 20
82.514249
 30
0.0
 10
27.340803
 20
83.242833
 30
0.0
 10
28.023645
 20
83.637072
 30
0.0
  0
SPLINE
  5
139
100
AcDbEntity
  8
Layer_1
 62
7
100
AcDbSpline
 70
8
 71
3
 72
8
 73
4
 74
0
 40
0
 40
0
 40
0
 40
0
 40
1
 40
1
 40
1
 40
1
 10
28.023645
 20
83.637072
 30
0.0
 10
28.706488
 20
84.031312
 30
0.0
 10
29.547784
 20
84.031312
 30
0.0
 10
30.230627
 20
83.637072
 30
0.0
  0
SPLINE
  5
13a
100
AcDbEntity
  8
Layer_1
 62
7
100
AcDbSpline
 70
8
 71
3
 72
8
 73
4
 74
0
 40
0
 40
0
 40
0
 40
0
 40
1
 40
1
 40
1
 40
1
 10
30.230627
 20
83.637072
 30
0.0
 10
30.913469
 20
83.242833
 30
0.0
 10
31.334117
 20
82.514249
 30
0.0
 10
31.334117
 20
81.725771
 30
0.0
  0
LWPOLYLINE
  5
13b
100
AcDbEntity
  8
Layer_1
 62
7
100
AcDbPolyline
 90
1
 70
1
 10
17.083301
 20
81.725771
 30
0.0
  0
SPLINE
  5
13c
100
AcDbEntity
  8
Layer_1
 62
7
100
AcDbSpline
 70
8
 71
3
 72
8
 73
4
 74
0
 40
0
 40
0
 40
0
 40
0
 40
1
 40
1
 40
1
 40
1
 10
20.358347
 20
68.654517
 30
0.0
 10
20.358347
 20
68.032784
 30
0.0
 10
20.026656
 20
67.458278
 30
0.0
 10
19.488219
 20
67.147411
 30
0.0
  0
SPLINE
  5
13d
100
AcDbEntity
  8
Layer_1
 62
7
100
AcDbSpline
 70
8
 71
3
 72
8
 73
4
 74
0
 40
0
 40
0
 40
0
 40
0
 40
1
 40
1
 40
1
 40
1
 10
19.488219
 20
67.147411
 30
0.0
 10
18.949782
 20
66.836545
 30
0.0
 10
18.286400
 20
66.836545
 30
0.0
 10
17.747963
 20
67.147411
 30
0.0
  0
SPLINE
  5
13e
100
AcDbEntity
  8
Layer_1
 62
7
100
AcDbSpline
 70
8
 71
3
 72
8
 73
4
 74
0
 40
0
 40
0
 40
0
 40
0
 40
1
 40
1
 40
1
 40
1
 10
17.747963
 20
67.147411
 30
0.0
 10
17.209526
 20
67.458278
 30
0.0
 10
16.877835
 20
68.032784
 30
0.0
 10
16.877835
 20
68.654517
 30
0.0
  0
SPLINE
  5
13f
100
AcDbEntity
  8
Layer_1
 62
7
100
AcDbSpline
 70
8
 71
3
 72
8
 73
4
 74
0
 40
0
 40
0
 40
0
 40
0
 40
1
 40
1
 40
1
 40
1
 10
16.877835
 20
68.654517
 30
0.0
 10
16.877835
 20
69.276251
 30
0.0
 10
17.209526
 20
69.850756
 30
0.0
 10
17.747963
 20
70.161623
 30
0.0
  0
SPLINE
  5
140
100
AcDbEntity
  8
Layer_1
 62
7
100
AcDbSpline
 70
8
 71
3
 72
8
 73
4
 74
0
 40
0
 40
0
 40
0
 40
0
 40
1
 40
1
 40
1
 40
1
 10
17.747963
 20
70.161623
 30
0.0
 10
18.286400
 20
70.472490
 30
0.0
 10
18.949782
 20
70.472490
 30
0.0
 10
19.488219
 20
70.161623
 30
0.0
  0
SPLINE
  5
141
100
AcDbEntity
  8
Layer_1
 62
7
100
AcDbSpline
 70
8
 71
3
 72
8
 73
4
 74
0
 40
0
 40
0
 40
0
 40
0
 40
1
 40
1
 40
1
 40
1
 10
19.488219
 20
70.161623
 30
0.0
 10
20.026656
 20
69.850756
 30
0.0
 10
20.358347
 20
69.276251
 30
0.0
 10
20.358347
 20
68.654517
 30
0.0
  0
LWPOLYLINE
  5
142
100
AcDbEntity
  8
Layer_1
 62
7
100
AcDbPolyline
 90
1
 70
1
 10
31.334117
 20
81.725771
 30
0.0
  0
LWPOLYLINE
  5
143
100
AcDbEntity
  8
Layer_1
 62
7
100
AcDbPolyline
 90
1
 70
1
 10
20.358347
 20
68.654517
 30
0.0
  0
LWPOLYLINE
  5
144
100
AcDbEntity
  8
Layer_1
 62
1
100
AcDbPolyline
 90
4
 70
1
 10
3.239403
 20
2.917792
 30
0.0
 10
40.901013
 20
2.917792
 30
0.0
 10
40.901013
 20
139.984469
 30
0.0
 10
3.239403
 20
139.984469
 30
0.0
  0
LWPOLYLINE
  5
145
100
AcDbEntity
  8
Layer_1
 62
1
100
AcDbPolyline
 90
59
 70
1
 10
10.396587
 20
138.505760
 30
0.0
 10
12.209920
 20
138.505760
 30
0.0
 10
12.386400
 20
138.497227
 30
0.0
 10
12.557664
 20
138.471200
 30
0.0
 10
12.722880
 20
138.428960
 30
0.0
 10
12.881173
 20
138.371253
 30
0.0
 10
13.031701
 20
138.298933
 30
0.0
 10
13.173611
 20
138.212960
 30
0.0
 10
13.428171
 20
138.003093
 30
0.0
 10
13.638027
 20
137.748544
 30
0.0
 10
13.724107
 20
137.606624
 30
0.0
 10
13.796427
 20
137.456096
 30
0.0
 10
13.854133
 20
137.297803
 30
0.0
 10
13.896373
 20
137.132597
 30
0.0
 10
13.922400
 20
136.961323
 30
0.0
 10
13.930933
 20
136.784843
 30
0.0
 10
13.922400
 20
136.608363
 30
0.0
 10
13.896373
 20
136.437099
 30
0.0
 10
13.854133
 20
136.271883
 30
0.0
 10
13.796427
 20
136.113589
 30
0.0
 10
13.724107
 20
135.963061
 30
0.0
 10
13.638027
 20
135.821152
 30
0.0
 10
13.428171
 20
135.566592
 30
0.0
 10
13.173611
 20
135.356736
 30
0.0
 10
13.031701
 20
135.270656
 30
0.0
 10
12.881173
 20
135.198336
 30
0.0
 10
12.722880
 20
135.140629
 30
0.0
 10
12.557664
 20
135.098389
 30
0.0
 10
12.386400
 20
135.072363
 30
0.0
 10
12.209920
 20
135.063829
 30
0.0
 10
10.396587
 20
135.063829
 30
0.0
 10
10.220107
 20
135.072363
 30
0.0
 10
10.048832
 20
135.098389
 30
0.0
 10
9.883627
 20
135.140629
 30
0.0
 10
9.725333
 20
135.198336
 30
0.0
 10
9.574795
 20
135.270656
 30
0.0
 10
9.432885
 20
135.356736
 30
0.0
 10
9.178325
 20
135.566592
 30
0.0
 10
8.968469
 20
135.821152
 30
0.0
 10
8.882389
 20
135.963061
 30
0.0
 10
8.810069
 20
136.113589
 30
0.0
 10
8.752363
 20
136.271883
 30
0.0
 10
8.710123
 20
136.437088
 30
0.0
 10
8.684096
 20
136.608363
 30
0.0
 10
8.675563
 20
136.784843
 30
0.0
 10
8.684096
 20
136.961323
 30
0.0
 10
8.710123
 20
137.132597
 30
0.0
 10
8.752363
 20
137.297803
 30
0.0
 10
8.810069
 20
137.456096
 30
0.0
 10
8.882389
 20
137.606624
 30
0.0
 10
8.968469
 20
137.748533
 30
0.0
 10
9.178325
 20
138.003093
 30
0.0
 10
9.432885
 20
138.212949
 30
0.0
 10
9.574795
 20
138.299029
 30
0.0
 10
9.725333
 20
138.371349
 30
0.0
 10
9.883627
 20
138.429056
 30
0.0
 10
10.048832
 20
138.471296
 30
0.0
 10
10.220107
 20
138.497323
 30
0.0
 10
10.396587
 20
138.505856
 30
0.0
  0
LWPOLYLINE
  5
146
100
AcDbEntity
  8
Layer_1
 62
1
100
AcDbPolyline
 90
59
 70
1
 10
10.396587
 20
7.839104
 30
0.0
 10
12.209920
 20
7.839104
 30
0.0
 10
12.386400
 20
7.830571
 30
0.0
 10
12.557664
 20
7.804544
 30
0.0
 10
12.722880
 20
7.762304
 30
0.0
 10
12.881173
 20
7.704597
 30
0.0
 10
13.031701
 20
7.632277
 30
0.0
 10
13.173611
 20
7.546197
 30
0.0
 10
13.428171
 20
7.336341
 30
0.0
 10
13.638027
 20
7.081781
 30
0.0
 10
13.724107
 20
6.939872
 30
0.0
 10
13.796427
 20
6.789344
 30
0.0
 10
13.854133
 20
6.631051
 30
0.0
 10
13.896373
 20
6.465845
 30
0.0
 10
13.922400
 20
6.294571
 30
0.0
 10
13.930933
 20
6.118091
 30
0.0
 10
13.922400
 20
5.941611
 30
0.0
 10
13.896373
 20
5.770336
 30
0.0
 10
13.854133
 20
5.605131
 30
0.0
 10
13.796427
 20
5.446837
 30
0.0
 10
13.724107
 20
5.296309
 30
0.0
 10
13.638027
 20
5.154400
 30
0.0
 10
13.428171
 20
4.899840
 30
0.0
 10
13.173611
 20
4.689984
 30
0.0
 10
13.031701
 20
4.603904
 30
0.0
 10
12.881173
 20
4.531584
 30
0.0
 10
12.722880
 20
4.473877
 30
0.0
 10
12.557664
 20
4.431637
 30
0.0
 10
12.386400
 20
4.405611
 30
0.0
 10
12.209920
 20
4.397077
 30
0.0
 10
10.396587
 20
4.397077
 30
0.0
 10
10.220107
 20
4.405611
 30
0.0
 10
10.048832
 20
4.431637
 30
0.0
 10
9.883627
 20
4.473877
 30
0.0
 10
9.725333
 20
4.531584
 30
0.0
 10
9.574795
 20
4.603904
 30
0.0
 10
9.432885
 20
4.689984
 30
0.0
 10
9.178325
 20
4.899840
 30
0.0
 10
8.968469
 20
5.154400
 30
0.0
 10
8.882496
 20
5.296309
 30
0.0
 10
8.810176
 20
5.446837
 30
0.0
 10
8.752469
 20
5.605131
 30
0.0
 10
8.710229
 20
5.770336
 30
0.0
 10
8.684203
 20
5.941611
 30
0.0
 10
8.675669
 20
6.118091
 30
0.0
 10
8.684203
 20
6.294571
 30
0.0
 10
8.710229
 20
6.465845
 30
0.0
 10
8.752469
 20
6.631051
 30
0.0
 10
8.810176
 20
6.789344
 30
0.0
 10
8.882496
 20
6.939872
 30
0.0
 10
8.968469
 20
7.081781
 30
0.0
 10
9.178325
 20
7.336341
 30
0.0
 10
9.432885
 20
7.546197
 30
0.0
 10
9.574795
 20
7.632277
 30
0.0
 10
9.725333
 20
7.704597
 30
0.0
 10
9.883627
 20
7.762304
 30
0.0
 10
10.048832
 20
7.804544
 30
0.0
 10
10.220107
 20
7.830571
 30
0.0
 10
10.396587
 20
7.839104
 30
0.0
  0
LWPOLYLINE
  5
147
100
AcDbEntity
  8
Layer_1
 62
1
100
AcDbPolyline
 90
258
 70
0
 10
22.952917
 20
127.035168
 30
0.0
 10
22.918144
 20
126.863189
 30
0.0
 10
22.883371
 20
126.691211
 30
0.0
 10
22.849237
 20
126.519232
 30
0.0
 10
22.814464
 20
126.347243
 30
0.0
 10
22.780864
 20
126.175819
 30
0.0
 10
22.767637
 20
126.110752
 30
0.0
 10
22.709717
 20
126.122912
 30
0.0
 10
22.343168
 20
126.169739
 30
0.0
 10
21.972747
 20
126.179339
 30
0.0
 10
21.603989
 20
126.152352
 30
0.0
 10
21.354293
 20
126.108832
 30
0.0
 10
21.340960
 20
126.170592
 30
0.0
 10
21.306187
 20
126.343125
 30
0.0
 10
21.271413
 20
126.516203
 30
0.0
 10
21.236640
 20
126.688736
 30
0.0
 10
21.201867
 20
126.861813
 30
0.0
 10
21.167733
 20
127.034901
 30
0.0
 10
21.132960
 20
127.207979
 30
0.0
 10
21.064587
 20
127.276352
 30
0.0
 10
20.872235
 20
127.232405
 30
0.0
 10
20.682357
 20
127.180885
 30
0.0
 10
20.495125
 20
127.122005
 30
0.0
 10
20.310784
 20
127.055765
 30
0.0
 10
20.129504
 20
126.982379
 30
0.0
 10
19.951499
 20
126.901952
 30
0.0
 10
19.776971
 20
126.814485
 30
0.0
 10
19.606123
 20
126.720192
 30
0.0
 10
19.439157
 20
126.619179
 30
0.0
 10
19.276277
 20
126.511595
 30
0.0
 10
19.117685
 20
126.397525
 30
0.0
 10
18.963584
 20
126.277099
 30
0.0
 10
18.814176
 20
126.150411
 30
0.0
 10
18.669664
 20
126.017600
 30
0.0
 10
18.530251
 20
125.878773
 30
0.0
 10
18.396149
 20
125.734059
 30
0.0
 10
18.422069
 20
125.642539
 30
0.0
 10
18.554912
 20
125.525131
 30
0.0
 10
18.688299
 20
125.408267
 30
0.0
 10
18.821141
 20
125.290859
 30
0.0
 10
18.953984
 20
125.173451
 30
0.0
 10
19.087936
 20
125.056597
 30
0.0
 10
19.220779
 20
124.939733
 30
0.0
 10
19.263765
 20
124.901653
 30
0.0
 10
19.172245
 20
124.795840
 30
0.0
 10
18.955616
 20
124.495979
 30
0.0
 10
18.769312
 20
124.175723
 30
0.0
 10
18.616064
 20
123.838933
 30
0.0
 10
18.560384
 20
123.676320
 30
0.0
 10
18.503637
 20
123.695627
 30
0.0
 10
18.334965
 20
123.752373
 30
0.0
 10
18.166848
 20
123.809120
 30
0.0
 10
17.998731
 20
123.865867
 30
0.0
 10
17.830613
 20
123.922613
 30
0.0
 10
17.662485
 20
123.979360
 30
0.0
 10
17.494368
 20
124.036107
 30
0.0
 10
17.403381
 20
124.011893
 30
0.0
 10
17.373515
 20
123.918880
 30
0.0
 10
17.345461
 20
123.825333
 30
0.0
 10
17.319328
 20
123.731253
 30
0.0
 10
17.295115
 20
123.636747
 30
0.0
 10
17.272715
 20
123.541813
 30
0.0
 10
17.252235
 20
123.446453
 30
0.0
 10
17.233675
 20
123.350773
 30
0.0
 10
17.217035
 20
123.254773
 30
0.0
 10
17.202315
 20
123.158453
 30
0.0
 10
17.189515
 20
123.061813
 30
0.0
 10
17.178635
 20
122.964960
 30
0.0
 10
17.170101
 20
122.867893
 30
0.0
 10
17.162635
 20
122.770613
 30
0.0
 10
17.157301
 20
122.673120
 30
0.0
 10
17.154101
 20
122.575520
 30
0.0
 10
17.153035
 20
122.477813
 30
0.0
 10
17.154101
 20
122.379040
 30
0.0
 10
17.157301
 20
122.280373
 30
0.0
 10
17.162635
 20
122.181920
 30
0.0
 10
17.170101
 20
122.083573
 30
0.0
 10
17.179701
 20
121.985440
 30
0.0
 10
17.191008
 20
121.887520
 30
0.0
 10
17.204235
 20
121.789920
 30
0.0
 10
17.219381
 20
121.692640
 30
0.0
 10
17.236555
 20
121.595680
 30
0.0
 10
17.255648
 20
121.499040
 30
0.0
 10
17.276661
 20
121.402827
 30
0.0
 10
17.299595
 20
121.306933
 30
0.0
 10
17.324448
 20
121.211573
 30
0.0
 10
17.351221
 20
121.116640
 30
0.0
 10
17.379915
 20
121.022240
 30
0.0
 10
17.410528
 20
120.928373
 30
0.0
 10
17.494368
 20
120.906293
 30
0.0
 10
17.660832
 20
120.963040
 30
0.0
 10
17.827851
 20
121.019253
 30
0.0
 10
17.994869
 20
121.075467
 30
0.0
 10
18.161333
 20
121.131680
 30
0.0
 10
18.328352
 20
121.187893
 30
0.0
 10
18.494816
 20
121.244640
 30
0.0
 10
18.562123
 20
121.267253
 30
0.0
 10
18.685045
 20
120.955275
 30
0.0
 10
18.853173
 20
120.626197
 30
0.0
 10
18.992075
 20
120.404053
 30
0.0
 10
19.214763
 20
120.108053
 30
0.0
 10
19.271509
 20
120.046293
 30
0.0
 10
19.211456
 20
119.993920
 30
0.0
 10
19.079723
 20
119.878165
 30
0.0
 10
18.947979
 20
119.762411
 30
0.0
 10
18.816235
 20
119.646656
 30
0.0
 10
18.684501
 20
119.530901
 30
0.0
 10
18.553312
 20
119.415147
 30
0.0
 10
18.421568
 20
119.299392
 30
0.0
 10
18.399488
 20
119.218965
 30
0.0
 10
18.533653
 20
119.073824
 30
0.0
 10
18.673141
 20
118.934603
 30
0.0
 10
18.817749
 20
118.801408
 30
0.0
 10
18.967285
 20
118.674357
 30
0.0
 10
19.121536
 20
118.553579
 30
0.0
 10
19.280299
 20
118.439179
 30
0.0
 10
19.443371
 20
118.331285
 30
0.0
 10
19.610549
 20
118.230059
 30
0.0
 10
19.781621
 20
118.135552
 30
0.0
 10
19.956395
 20
118.047872
 30
0.0
 10
20.134656
 20
117.967125
 30
0.0
 10
20.316203
 20
117.893525
 30
0.0
 10
20.500843
 20
117.827072
 30
0.0
 10
20.688363
 20
117.767979
 30
0.0
 10
20.878560
 20
117.716352
 30
0.0
 10
21.071232
 20
117.672299
 30
0.0
 10
21.131819
 20
117.734059
 30
0.0
 10
21.166592
 20
117.906037
 30
0.0
 10
21.200725
 20
118.078571
 30
0.0
 10
21.235499
 20
118.250549
 30
0.0
 10
21.270272
 20
118.422528
 30
0.0
 10
21.304405
 20
118.594507
 30
0.0
 10
21.338539
 20
118.765931
 30
0.0
 10
21.354539
 20
118.844224
 30
0.0
 10
21.410219
 20
118.832704
 30
0.0
 10
21.777877
 20
118.785877
 30
0.0
 10
22.147189
 20
118.776277
 30
0.0
 10
22.517056
 20
118.802731
 30
0.0
 10
22.765643
 20
118.845717
 30
0.0
 10
22.780469
 20
118.771797
 30
0.0
 10
22.814603
 20
118.599275
 30
0.0
 10
22.849376
 20
118.425632
 30
0.0
 10
22.884149
 20
118.253109
 30
0.0
 10
22.918923
 20
118.080576
 30
0.0
 10
22.953696
 20
117.907499
 30
0.0
 10
22.987829
 20
117.734965
 30
0.0
 10
23.045749
 20
117.675979
 30
0.0
 10
23.238496
 20
117.719712
 30
0.0
 10
23.428779
 20
117.771019
 30
0.0
 10
23.616395
 20
117.829792
 30
0.0
 10
23.801152
 20
117.895819
 30
0.0
 10
23.982837
 20
117.969099
 30
0.0
 10
24.161237
 20
118.049525
 30
0.0
 10
24.336160
 20
118.136885
 30
0.0
 10
24.507403
 20
118.231072
 30
0.0
 10
24.674763
 20
118.332085
 30
0.0
 10
24.838027
 20
118.439680
 30
0.0
 10
24.996992
 20
118.553781
 30
0.0
 10
25.151456
 20
118.674272
 30
0.0
 10
25.301227
 20
118.801035
 30
0.0
 10
25.446080
 20
118.933963
 30
0.0
 10
25.585813
 20
119.072928
 30
0.0
 10
25.720245
 20
119.217813
 30
0.0
 10
25.698699
 20
119.299947
 30
0.0
 10
25.564747
 20
119.416245
 30
0.0
 10
25.431360
 20
119.533664
 30
0.0
 10
25.298528
 20
119.651061
 30
0.0
 10
25.165131
 20
119.768480
 30
0.0
 10
25.031189
 20
119.885333
 30
0.0
 10
24.898347
 20
120.002741
 30
0.0
 10
24.849280
 20
120.046261
 30
0.0
 10
24.947947
 20
120.159819
 30
0.0
 10
25.164576
 20
120.459680
 30
0.0
 10
25.350336
 20
120.779381
 30
0.0
 10
25.503573
 20
121.116725
 30
0.0
 10
25.555413
 20
121.267755
 30
0.0
 10
25.616000
 20
121.247381
 30
0.0
 10
25.784672
 20
121.190635
 30
0.0
 10
25.952789
 20
121.133355
 30
0.0
 10
26.120917
 20
121.077141
 30
0.0
 10
26.289024
 20
121.019755
 30
0.0
 10
26.457696
 20
120.963008
 30
0.0
 10
26.625824
 20
120.906261
 30
0.0
 10
26.711264
 20
120.928341
 30
0.0
 10
26.741771
 20
121.022315
 30
0.0
 10
26.770357
 20
121.116715
 30
0.0
 10
26.797024
 20
121.211648
 30
0.0
 10
26.821771
 20
121.307008
 30
0.0
 10
26.844597
 20
121.402901
 30
0.0
 10
26.865504
 20
121.499115
 30
0.0
 10
26.884384
 20
121.595755
 30
0.0
 10
26.901344
 20
121.692715
 30
0.0
 10
26.916384
 20
121.789995
 30
0.0
 10
26.929397
 20
121.887595
 30
0.0
 10
26.940491
 20
121.985515
 30
0.0
 10
26.950091
 20
122.083648
 30
0.0
 10
26.957557
 20
122.181995
 30
0.0
 10
26.962891
 20
122.280448
 30
0.0
 10
26.966091
 20
122.379115
 30
0.0
 10
26.967157
 20
122.477888
 30
0.0
 10
26.966091
 20
122.575701
 30
0.0
 10
26.962891
 20
122.673408
 30
0.0
 10
26.957557
 20
122.771008
 30
0.0
 10
26.950091
 20
122.868395
 30
0.0
 10
26.940491
 20
122.965568
 30
0.0
 10
26.929397
 20
123.062528
 30
0.0
 10
26.916384
 20
123.159168
 30
0.0
 10
26.901451
 20
123.255595
 30
0.0
 10
26.884597
 20
123.351701
 30
0.0
 10
26.865931
 20
123.447488
 30
0.0
 10
26.845344
 20
123.542848
 30
0.0
 10
26.822837
 20
123.637781
 30
0.0
 10
26.798411
 20
123.732288
 30
0.0
 10
26.772064
 20
123.826368
 30
0.0
 10
26.743904
 20
123.920021
 30
0.0
 10
26.713824
 20
124.013141
 30
0.0
 10
26.625611
 20
124.036821
 30
0.0
 10
26.458592
 20
123.980075
 30
0.0
 10
26.291573
 20
123.923861
 30
0.0
 10
26.125109
 20
123.867648
 30
0.0
 10
25.958091
 20
123.810901
 30
0.0
 10
25.791627
 20
123.754688
 30
0.0
 10
25.624608
 20
123.698475
 30
0.0
 10
25.562315
 20
123.677568
 30
0.0
 10
25.436085
 20
124.000032
 30
0.0
 10
25.266859
 20
124.329653
 30
0.0
 10
25.127957
 20
124.551797
 30
0.0
 10
24.905824
 20
124.847243
 30
0.0
 10
24.855691
 20
124.901856
 30
0.0
 10
24.907531
 20
124.947616
 30
0.0
 10
25.039264
 20
125.063371
 30
0.0
 10
25.170997
 20
125.179680
 30
0.0
 10
25.302741
 20
125.294880
 30
0.0
 10
25.434485
 20
125.410635
 30
0.0
 10
25.565675
 20
125.526389
 30
0.0
 10
25.697408
 20
125.642144
 30
0.0
 10
25.742635
 20
125.712117
 30
0.0
 10
25.607125
 20
125.860651
 30
0.0
 10
25.466048
 20
126.003093
 30
0.0
 10
25.319659
 20
126.139317
 30
0.0
 10
25.168139
 20
126.269205
 30
0.0
 10
25.011723
 20
126.392629
 30
0.0
 10
24.850624
 20
126.509461
 30
0.0
 10
24.685056
 20
126.619584
 30
0.0
 10
24.515211
 20
126.722837
 30
0.0
 10
24.341344
 20
126.819157
 30
0.0
 10
24.163637
 20
126.908437
 30
0.0
 10
23.982325
 20
126.990464
 30
0.0
 10
23.797600
 20
127.065131
 30
0.0
 10
23.609707
 20
127.132331
 30
0.0
 10
23.418837
 20
127.191957
 30
0.0
 10
23.225195
 20
127.243904
 30
0.0
 10
23.104341
 20
127.261184
 30
0.0
 10
23.065835
 20
127.249664
 30
0.0
 10
23.037248
 20
127.226304
 30
0.0
 10
22.996075
 20
127.148117
 30
0.0
 10
22.952875
 20
127.035488
 30
0.0
 10
22.952875
 20
127.035488
 30
0.0
  0
LWPOLYLINE
  5
148
100
AcDbEntity
  8
Layer_1
 62
1
100
AcDbPolyline
 90
258
 70
0
 10
22.952917
 20
100.488640
 30
0.0
 10
22.918144
 20
100.316661
 30
0.0
 10
22.883371
 20
100.144683
 30
0.0
 10
22.849237
 20
99.972704
 30
0.0
 10
22.814464
 20
99.800725
 30
0.0
 10
22.780864
 20
99.629291
 30
0.0
 10
22.767637
 20
99.564224
 30
0.0
 10
22.709717
 20
99.576384
 30
0.0
 10
22.343168
 20
99.623211
 30
0.0
 10
21.972747
 20
99.632811
 30
0.0
 10
21.603989
 20
99.605824
 30
0.0
 10
21.354293
 20
99.562304
 30
0.0
 10
21.340960
 20
99.624064
 30
0.0
 10
21.306187
 20
99.796597
 30
0.0
 10
21.271413
 20
99.969675
 30
0.0
 10
21.236640
 20
100.142208
 30
0.0
 10
21.201867
 20
100.315285
 30
0.0
 10
21.167733
 20
100.488373
 30
0.0
 10
21.132960
 20
100.661451
 30
0.0
 10
21.064587
 20
100.729824
 30
0.0
 10
20.872235
 20
100.685877
 30
0.0
 10
20.682357
 20
100.634357
 30
0.0
 10
20.495125
 20
100.575477
 30
0.0
 10
20.310784
 20
100.509237
 30
0.0
 10
20.129504
 20
100.435851
 30
0.0
 10
19.951499
 20
100.355424
 30
0.0
 10
19.776971
 20
100.267957
 30
0.0
 10
19.606123
 20
100.173664
 30
0.0
 10
19.439157
 20
100.072651
 30
0.0
 10
19.276277
 20
99.965067
 30
0.0
 10
19.117685
 20
99.850997
 30
0.0
 10
18.963584
 20
99.730571
 30
0.0
 10
18.814176
 20
99.603883
 30
0.0
 10
18.669664
 20
99.471072
 30
0.0
 10
18.530251
 20
99.332245
 30
0.0
 10
18.396149
 20
99.187531
 30
0.0
 10
18.422069
 20
99.096011
 30
0.0
 10
18.554912
 20
98.978603
 30
0.0
 10
18.688299
 20
98.861739
 30
0.0
 10
18.821141
 20
98.744331
 30
0.0
 10
18.953984
 20
98.626923
 30
0.0
 10
19.087936
 20
98.510069
 30
0.0
 10
19.220779
 20
98.393205
 30
0.0
 10
19.263765
 20
98.355125
 30
0.0
 10
19.172245
 20
98.249312
 30
0.0
 10
18.955616
 20
97.949451
 30
0.0
 10
18.769312
 20
97.629195
 30
0.0
 10
18.616064
 20
97.292405
 30
0.0
 10
18.560384
 20
97.129803
 30
0.0
 10
18.503637
 20
97.149109
 30
0.0
 10
18.334965
 20
97.205856
 30
0.0
 10
18.166848
 20
97.262603
 30
0.0
 10
17.998731
 20
97.319349
 30
0.0
 10
17.830613
 20
97.376096
 30
0.0
 10
17.662485
 20
97.432843
 30
0.0
 10
17.494368
 20
97.489589
 30
0.0
 10
17.403381
 20
97.465376
 30
0.0
 10
17.373515
 20
97.372363
 30
0.0
 10
17.345461
 20
97.278816
 30
0.0
 10
17.319328
 20
97.184736
 30
0.0
 10
17.295115
 20
97.090229
 30
0.0
 10
17.272715
 20
96.995296
 30
0.0
 10
17.252235
 20
96.899936
 30
0.0
 10
17.233675
 20
96.804256
 30
0.0
 10
17.217035
 20
96.708256
 30
0.0
 10
17.202315
 20
96.611936
 30
0.0
 10
17.189515
 20
96.515296
 30
0.0
 10
17.178635
 20
96.418443
 30
0.0
 10
17.170101
 20
96.321376
 30
0.0
 10
17.162635
 20
96.224096
 30
0.0
 10
17.157301
 20
96.126603
 30
0.0
 10
17.154101
 20
96.029003
 30
0.0
 10
17.153035
 20
95.931296
 30
0.0
 10
17.154101
 20
95.832523
 30
0.0
 10
17.157301
 20
95.733856
 30
0.0
 10
17.162635
 20
95.635403
 30
0.0
 10
17.170101
 20
95.537056
 30
0.0
 10
17.179701
 20
95.438923
 30
0.0
 10
17.191008
 20
95.341003
 30
0.0
 10
17.204235
 20
95.243403
 30
0.0
 10
17.219381
 20
95.146123
 30
0.0
 10
17.236555
 20
95.049163
 30
0.0
 10
17.255648
 20
94.952523
 30
0.0
 10
17.276661
 20
94.856309
 30
0.0
 10
17.299595
 20
94.760416
 30
0.0
 10
17.324448
 20
94.665056
 30
0.0
 10
17.351221
 20
94.570123
 30
0.0
 10
17.379915
 20
94.475723
 30
0.0
 10
17.410528
 20
94.381856
 30
0.0
 10
17.494368
 20
94.359776
 30
0.0
 10
17.660832
 20
94.416523
 30
0.0
 10
17.827851
 20
94.472736
 30
0.0
 10
17.994869
 20
94.528949
 30
0.0
 10
18.161333
 20
94.585163
 30
0.0
 10
18.328352
 20
94.641376
 30
0.0
 10
18.494816
 20
94.698123
 30
0.0
 10
18.562123
 20
94.720736
 30
0.0
 10
18.685045
 20
94.408747
 30
0.0
 10
18.853173
 20
94.079669
 30
0.0
 10
18.992075
 20
93.857525
 30
0.0
 10
19.214763
 20
93.561525
 30
0.0
 10
19.271509
 20
93.499765
 30
0.0
 10
19.211456
 20
93.447392
 30
0.0
 10
19.079723
 20
93.331637
 30
0.0
 10
18.947979
 20
93.215883
 30
0.0
 10
18.816235
 20
93.100128
 30
0.0
 10
18.684501
 20
92.984373
 30
0.0
 10
18.553312
 20
92.868619
 30
0.0
 10
18.421568
 20
92.752864
 30
0.0
 10
18.399488
 20
92.672437
 30
0.0
 10
18.533653
 20
92.527296
 30
0.0
 10
18.673141
 20
92.388075
 30
0.0
 10
18.817749
 20
92.254891
 30
0.0
 10
18.967285
 20
92.127840
 30
0.0
 10
19.121536
 20
92.007051
 30
0.0
 10
19.280299
 20
91.892661
 30
0.0
 10
19.443371
 20
91.784757
 30
0.0
 10
19.610549
 20
91.683531
 30
0.0
 10
19.781621
 20
91.589024
 30
0.0
 10
19.956395
 20
91.501344
 30
0.0
 10
20.134656
 20
91.420597
 30
0.0
 10
20.316203
 20
91.346997
 30
0.0
 10
20.500843
 20
91.280544
 30
0.0
 10
20.688363
 20
91.221451
 30
0.0
 10
20.878560
 20
91.169824
 30
0.0
 10
21.071232
 20
91.125771
 30
0.0
 10
21.131819
 20
91.187531
 30
0.0
 10
21.166592
 20
91.359509
 30
0.0
 10
21.200725
 20
91.532043
 30
0.0
 10
21.235499
 20
91.704021
 30
0.0
 10
21.270272
 20
91.876011
 30
0.0
 10
21.304405
 20
92.047979
 30
0.0
 10
21.338539
 20
92.219413
 30
0.0
 10
21.354539
 20
92.297707
 30
0.0
 10
21.410219
 20
92.286187
 30
0.0
 10
21.777877
 20
92.239360
 30
0.0
 10
22.147189
 20
92.229760
 30
0.0
 10
22.517056
 20
92.256213
 30
0.0
 10
22.765643
 20
92.299200
 30
0.0
 10
22.780469
 20
92.225387
 30
0.0
 10
22.814603
 20
92.052853
 30
0.0
 10
22.849376
 20
91.879211
 30
0.0
 10
22.884149
 20
91.706688
 30
0.0
 10
22.918923
 20
91.534155
 30
0.0
 10
22.953696
 20
91.361077
 30
0.0
 10
22.987829
 20
91.188544
 30
0.0
 10
23.045749
 20
91.129557
 30
0.0
 10
23.238496
 20
91.173291
 30
0.0
 10
23.428779
 20
91.224597
 30
0.0
 10
23.616395
 20
91.283371
 30
0.0
 10
23.801152
 20
91.349397
 30
0.0
 10
23.982837
 20
91.422677
 30
0.0
 10
24.161237
 20
91.503104
 30
0.0
 10
24.336160
 20
91.590464
 30
0.0
 10
24.507403
 20
91.684651
 30
0.0
 10
24.674763
 20
91.785664
 30
0.0
 10
24.838027
 20
91.893259
 30
0.0
 10
24.996992
 20
92.007360
 30
0.0
 10
25.151456
 20
92.127851
 30
0.0
 10
25.301227
 20
92.254613
 30
0.0
 10
25.446080
 20
92.387541
 30
0.0
 10
25.585813
 20
92.526507
 30
0.0
 10
25.720245
 20
92.671381
 30
0.0
 10
25.698699
 20
92.753515
 30
0.0
 10
25.564747
 20
92.869824
 30
0.0
 10
25.431360
 20
92.987232
 30
0.0
 10
25.298517
 20
93.104640
 30
0.0
 10
25.165120
 20
93.222048
 30
0.0
 10
25.031179
 20
93.338901
 30
0.0
 10
24.898336
 20
93.456320
 30
0.0
 10
24.849269
 20
93.499840
 30
0.0
 10
24.947936
 20
93.613387
 30
0.0
 10
25.164565
 20
93.913248
 30
0.0
 10
25.350325
 20
94.232949
 30
0.0
 10
25.503563
 20
94.570304
 30
0.0
 10
25.555403
 20
94.721333
 30
0.0
 10
25.615989
 20
94.700960
 30
0.0
 10
25.784661
 20
94.644213
 30
0.0
 10
25.952779
 20
94.586933
 30
0.0
 10
26.120907
 20
94.530720
 30
0.0
 10
26.289013
 20
94.473333
 30
0.0
 10
26.457685
 20
94.416587
 30
0.0
 10
26.625813
 20
94.359840
 30
0.0
 10
26.711253
 20
94.381920
 30
0.0
 10
26.741760
 20
94.475893
 30
0.0
 10
26.770347
 20
94.570293
 30
0.0
 10
26.797013
 20
94.665227
 30
0.0
 10
26.821760
 20
94.760587
 30
0.0
 10
26.844587
 20
94.856480
 30
0.0
 10
26.865493
 20
94.952693
 30
0.0
 10
26.884373
 20
95.049333
 30
0.0
 10
26.901333
 20
95.146293
 30
0.0
 10
26.916373
 20
95.243573
 30
0.0
 10
26.929387
 20
95.341173
 30
0.0
 10
26.940480
 20
95.439093
 30
0.0
 10
26.950080
 20
95.537227
 30
0.0
 10
26.957547
 20
95.635573
 30
0.0
 10
26.962880
 20
95.734027
 30
0.0
 10
26.966080
 20
95.832693
 30
0.0
 10
26.967147
 20
95.931467
 30
0.0
 10
26.966080
 20
96.029280
 30
0.0
 10
26.962880
 20
96.126987
 30
0.0
 10
26.957547
 20
96.224587
 30
0.0
 10
26.950080
 20
96.321973
 30
0.0
 10
26.940480
 20
96.419147
 30
0.0
 10
26.929387
 20
96.516107
 30
0.0
 10
26.916373
 20
96.612747
 30
0.0
 10
26.901440
 20
96.709173
 30
0.0
 10
26.884587
 20
96.805280
 30
0.0
 10
26.865920
 20
96.901067
 30
0.0
 10
26.845333
 20
96.996427
 30
0.0
 10
26.822827
 20
97.091360
 30
0.0
 10
26.798400
 20
97.185867
 30
0.0
 10
26.772053
 20
97.279947
 30
0.0
 10
26.743893
 20
97.373493
 30
0.0
 10
26.713813
 20
97.466613
 30
0.0
 10
26.625600
 20
97.490293
 30
0.0
 10
26.458581
 20
97.433547
 30
0.0
 10
26.291563
 20
97.377333
 30
0.0
 10
26.125099
 20
97.321120
 30
0.0
 10
25.958080
 20
97.264373
 30
0.0
 10
25.791616
 20
97.208160
 30
0.0
 10
25.624597
 20
97.151947
 30
0.0
 10
25.562304
 20
97.131040
 30
0.0
 10
25.436075
 20
97.453504
 30
0.0
 10
25.266848
 20
97.783125
 30
0.0
 10
25.127947
 20
98.005269
 30
0.0
 10
24.905813
 20
98.300715
 30
0.0
 10
24.855680
 20
98.355328
 30
0.0
 10
24.907520
 20
98.401088
 30
0.0
 10
25.039253
 20
98.516843
 30
0.0
 10
25.170987
 20
98.633152
 30
0.0
 10
25.302731
 20
98.748352
 30
0.0
 10
25.434475
 20
98.864107
 30
0.0
 10
25.565664
 20
98.979861
 30
0.0
 10
25.697397
 20
99.095616
 30
0.0
 10
25.742624
 20
99.165589
 30
0.0
 10
25.607115
 20
99.314123
 30
0.0
 10
25.466037
 20
99.456565
 30
0.0
 10
25.319648
 20
99.592789
 30
0.0
 10
25.168128
 20
99.722677
 30
0.0
 10
25.011712
 20
99.846101
 30
0.0
 10
24.850613
 20
99.962933
 30
0.0
 10
24.685045
 20
100.073056
 30
0.0
 10
24.515211
 20
100.176309
 30
0.0
 10
24.341333
 20
100.272629
 30
0.0
 10
24.163627
 20
100.361909
 30
0.0
 10
23.982315
 20
100.443936
 30
0.0
 10
23.797600
 20
100.518603
 30
0.0
 10
23.609696
 20
100.585803
 30
0.0
 10
23.418827
 20
100.645429
 30
0.0
 10
23.225184
 20
100.697376
 30
0.0
 10
23.090635
 20
100.729269
 30
0.0
 10
23.037835
 20
100.696843
 30
0.0
 10
22.997621
 20
100.645536
 30
0.0
 10
22.969461
 20
100.575989
 30
0.0
 10
22.953035
 20
100.488949
 30
0.0
 10
22.953035
 20
100.488949
 30
0.0
  0
ENDSEC
  0
SECTION
  2
OBJECTS
  0
DICTIONARY
  5
C
330
0
100
AcDbDictionary
  3
ACAD_GROUP
350
D
  3
ACAD_MLINESTYLE
350
17
  0
DICTIONARY
  5
D
330
C
100
AcDbDictionary
  0
DICTIONARY
  5
1A
330
C
100
AcDbDictionary
  0
DICTIONARY
  5
17
330
C
100
AcDbDictionary
  3
STANDARD
350
18
  0
DICTIONARY
  5
19
330
C
100
AcDbDictionary
  0
ENDSEC
  0
EOF
