  0
SECTION
  2
HEADER
  9
$ACADVER
  1
AC1014
  9
$HANDSEED
  5
FFFF
  9
$MEASUREMENT
 70
     1
  0
ENDSEC
  0
SECTION
  2
TABLES
  0
TABLE
  2
VPORT
  5
8
330
0
100
AcDbSymbolTable
 70
     4
  0
VPORT
  5
2E
330
8
100
AcDbSymbolTableRecord
100
AcDbViewportTableRecord
  2
*ACTIVE
 70
     0
 10
0.0
 20
0.0
 11
1.0
 21
1.0
 12
210.0
 22
148.5
 13
0.0
 23
0.0
 14
10.0
 24
10.0
 15
10.0
 25
10.0
 16
0.0
 26
0.0
 36
1.0
 17
0.0
 27
0.0
 37
0.0
 40
341.0
 41
1.24
 42
50.0
 43
0.0
 44
0.0
 50
0.0
 51
0.0
 71
     0
 72
   100
 73
     1
 74
     3
 75
     0
 76
     0
 77
     0
 78
     0
  0
ENDTAB
  0
TABLE
  2
LTYPE
  5
5
330
0
100
AcDbSymbolTable
 70
     1
  0
LTYPE
  5
14
330
5
100
AcDbSymbolTableRecord
100
AcDbLinetypeTableRecord
  2
BYBLOCK
 70
     0
  3

 72
    65
 73
     0
 40
0.0
  0
LTYPE
  5
15
330
5
100
AcDbSymbolTableRecord
100
AcDbLinetypeTableRecord
  2
BYLAYER
 70
     0
  3

 72
    65
 73
     0
 40
0.0
  0
LTYPE
  5
16
330
5
100
AcDbSymbolTableRecord
100
AcDbLinetypeTableRecord
  2
CONTINUOUS
 70
     0
  3
Solid line
 72
    65
 73
     0
 40
0.0
  0
ENDTAB
  0
TABLE
  2
LAYER
  5
2
100
AcDbSymbolTable
 70
2
  0
LAYER
  5
50
100
AcDbSymbolTableRecord
100
AcDbLayerTableRecord
  2
0
 70
0
  6
CONTINUOUS
  0
LAYER
  5
51
100
AcDbSymbolTableRecord
100
AcDbLayerTableRecord
  2
Layer_1
 70
0
  6
CONTINUOUS
  0
ENDTAB
  0
TABLE
  2
STYLE
  5
3
330
0
100
AcDbSymbolTable
 70
     1
  0
STYLE
  5
11
330
3
100
AcDbSymbolTableRecord
100
AcDbTextStyleTableRecord
  2
STANDARD
 70
     0
 40
0.0
 41
1.0
 50
0.0
 71
     0
 42
2.5
  3
txt
  4

  0
ENDTAB
  0
TABLE
  2
VIEW
  5
6
330
0
100
AcDbSymbolTable
 70
     0
  0
ENDTAB
  0
TABLE
  2
UCS
  5
7
330
0
100
AcDbSymbolTable
 70
     0
  0
ENDTAB
  0
TABLE
  2
APPID
  5
9
330
0
100
AcDbSymbolTable
 70
     2
  0
APPID
  5
12
330
9
100
AcDbSymbolTableRecord
100
AcDbRegAppTableRecord
  2
ACAD
 70
     0
  0
ENDTAB
  0
TABLE
  2
DIMSTYLE
  5
A
330
0
100
AcDbSymbolTable
 70
     1
  0
DIMSTYLE
105
27
330
A
100
AcDbSymbolTableRecord
100
AcDbDimStyleTableRecord
  2
ISO-25
 70
     0
  3

  4

  5

  6

  7

 40
1.0
 41
2.5
 42
0.625
 43
3.75
 44
1.25
 45
0.0
 46
0.0
 47
0.0
 48
0.0
140
2.5
141
2.5
142
0.0
143
0.03937007874016
144
1.0
145
0.0
146
1.0
147
0.625
 71
     0
 72
     0
 73
     0
 74
     0
 75
     0
 76
     0
 77
     1
 78
     8
170
     0
171
     3
172
     1
173
     0
174
     0
175
     0
176
     0
177
     0
178
     0
270
     2
271
     2
272
     2
273
     2
274
     3
340
11
275
     0
280
     0
281
     0
282
     0
283
     0
284
     8
285
     0
286
     0
287
     3
288
     0
  0
ENDTAB
  0
TABLE
  2
BLOCK_RECORD
  5
1
330
0
100
AcDbSymbolTable
 70
     1
  0
BLOCK_RECORD
  5
1F
330
1
100
AcDbSymbolTableRecord
100
AcDbBlockTableRecord
  2
*MODEL_SPACE
  0
BLOCK_RECORD
  5
1B
330
1
100
AcDbSymbolTableRecord
100
AcDbBlockTableRecord
  2
*PAPER_SPACE
  0
ENDTAB
  0
ENDSEC
  0
SECTION
  2
BLOCKS
  0
BLOCK
  5
20
330
1F
100
AcDbEntity
  8
0
100
AcDbBlockBegin
  2
*MODEL_SPACE
 70
     0
 10
0.0
 20
0.0
 30
0.0
  3
*MODEL_SPACE
  1

  0
ENDBLK
  5
21
330
1F
100
AcDbEntity
  8
0
100
AcDbBlockEnd
  0
BLOCK
  5
1C
330
1B
100
AcDbEntity
 67
     1
  8
0
100
AcDbBlockBegin
  2
*PAPER_SPACE
  1

  0
ENDBLK
  5
1D
330
1B
100
AcDbEntity
 67
     1
  8
0
100
AcDbBlockEnd
  0
ENDSEC
  0
SECTION
  2
ENTITIES
  0
LINE
  5
100
100
AcDbEntity
  8
0
 62
7
100
AcDbLine
 10
10.302503
 20
173.500975
 30
0.0
 11
9.303233
 21
173.812188
 31
0.0
  0
LINE
  5
101
100
AcDbEntity
  8
0
 62
7
100
AcDbLine
 10
9.303233
 20
173.812188
 30
0.0
 11
8.399400
 21
174.302490
 31
0.0
  0
LINE
  5
102
100
AcDbEntity
  8
0
 62
7
100
AcDbLine
 10
8.399400
 20
174.302490
 30
0.0
 11
7.611387
 21
174.952508
 31
0.0
  0
LINE
  5
103
100
AcDbEntity
  8
0
 62
7
100
AcDbLine
 10
7.611387
 20
174.952508
 30
0.0
 11
6.961779
 21
175.740225
 31
0.0
  0
LINE
  5
104
100
AcDbEntity
  8
0
 62
7
100
AcDbLine
 10
6.961779
 20
175.740225
 30
0.0
 11
6.470820
 21
176.643664
 31
0.0
  0
LINE
  5
105
100
AcDbEntity
  8
0
 62
7
100
AcDbLine
 10
6.470820
 20
176.643664
 30
0.0
 11
6.160132
 21
177.643500
 31
0.0
  0
LINE
  5
106
100
AcDbEntity
  8
0
 62
7
100
AcDbLine
 10
6.160132
 20
177.643500
 30
0.0
 11
6.052575
 21
178.714912
 31
0.0
  0
LINE
  5
107
100
AcDbEntity
  8
0
 62
7
100
AcDbLine
 10
6.052575
 20
178.714912
 30
0.0
 11
6.160132
 21
179.787726
 31
0.0
  0
LINE
  5
108
100
AcDbEntity
  8
0
 62
7
100
AcDbLine
 10
6.160132
 20
179.787726
 30
0.0
 11
6.470820
 21
180.787547
 31
0.0
  0
LINE
  5
109
100
AcDbEntity
  8
0
 62
7
100
AcDbLine
 10
6.470820
 20
180.787547
 30
0.0
 11
6.961779
 21
181.690959
 31
0.0
  0
LINE
  5
10a
100
AcDbEntity
  8
0
 62
7
100
AcDbLine
 10
6.961779
 20
181.690959
 30
0.0
 11
7.611387
 21
182.478697
 31
0.0
  0
LINE
  5
10b
100
AcDbEntity
  8
0
 62
7
100
AcDbLine
 10
7.611387
 20
182.478697
 30
0.0
 11
8.399400
 21
183.128720
 31
0.0
  0
LINE
  5
10c
100
AcDbEntity
  8
0
 62
7
100
AcDbLine
 10
8.399400
 20
183.128720
 30
0.0
 11
9.303233
 21
183.620369
 31
0.0
  0
LINE
  5
10d
100
AcDbEntity
  8
0
 62
7
100
AcDbLine
 10
9.303233
 20
183.620369
 30
0.0
 11
10.302503
 21
183.928855
 31
0.0
  0
LINE
  5
10e
100
AcDbEntity
  8
0
 62
7
100
AcDbLine
 10
10.302503
 20
183.928855
 30
0.0
 11
11.374350
 21
184.037649
 31
0.0
  0
LINE
  5
10f
100
AcDbEntity
  8
0
 62
7
100
AcDbLine
 10
11.374350
 20
184.037649
 30
0.0
 11
12.447574
 21
183.928855
 31
0.0
  0
LINE
  5
110
100
AcDbEntity
  8
0
 62
7
100
AcDbLine
 10
12.447574
 20
183.928855
 30
0.0
 11
13.446844
 21
183.620369
 31
0.0
  0
LINE
  5
111
100
AcDbEntity
  8
0
 62
7
100
AcDbLine
 10
13.446844
 20
183.620369
 30
0.0
 11
14.350539
 21
183.128720
 31
0.0
  0
LINE
  5
112
100
AcDbEntity
  8
0
 62
7
100
AcDbLine
 10
14.350539
 20
183.128720
 30
0.0
 11
15.138690
 21
182.478697
 31
0.0
  0
LINE
  5
113
100
AcDbEntity
  8
0
 62
7
100
AcDbLine
 10
15.138690
 20
182.478697
 30
0.0
 11
15.788299
 21
181.690959
 31
0.0
  0
LINE
  5
114
100
AcDbEntity
  8
0
 62
7
100
AcDbLine
 10
15.788299
 20
181.690959
 30
0.0
 11
16.279120
 21
180.787547
 31
0.0
  0
LINE
  5
115
100
AcDbEntity
  8
0
 62
7
100
AcDbLine
 10
16.279120
 20
180.787547
 30
0.0
 11
16.588429
 21
179.787726
 31
0.0
  0
LINE
  5
116
100
AcDbEntity
  8
0
 62
7
100
AcDbLine
 10
16.588429
 20
179.787726
 30
0.0
 11
16.697365
 21
178.714912
 31
0.0
  0
LINE
  5
117
100
AcDbEntity
  8
0
 62
7
100
AcDbLine
 10
16.697365
 20
178.714912
 30
0.0
 11
16.588429
 21
177.643500
 31
0.0
  0
LINE
  5
118
100
AcDbEntity
  8
0
 62
7
100
AcDbLine
 10
16.588429
 20
177.643500
 30
0.0
 11
16.279120
 21
176.643664
 31
0.0
  0
LINE
  5
119
100
AcDbEntity
  8
0
 62
7
100
AcDbLine
 10
16.279120
 20
176.643664
 30
0.0
 11
15.788299
 21
175.740225
 31
0.0
  0
LINE
  5
11a
100
AcDbEntity
  8
0
 62
7
100
AcDbLine
 10
15.788299
 20
175.740225
 30
0.0
 11
15.138690
 21
174.952508
 31
0.0
  0
LINE
  5
11b
100
AcDbEntity
  8
0
 62
7
100
AcDbLine
 10
15.138690
 20
174.952508
 30
0.0
 11
14.350539
 21
174.302490
 31
0.0
  0
LINE
  5
11c
100
AcDbEntity
  8
0
 62
7
100
AcDbLine
 10
14.350539
 20
174.302490
 30
0.0
 11
13.446844
 21
173.812188
 31
0.0
  0
LINE
  5
11d
100
AcDbEntity
  8
0
 62
7
100
AcDbLine
 10
13.446844
 20
173.812188
 30
0.0
 11
12.447574
 21
173.500975
 31
0.0
  0
LINE
  5
11e
100
AcDbEntity
  8
0
 62
7
100
AcDbLine
 10
12.447574
 20
173.500975
 30
0.0
 11
11.374350
 21
173.393556
 31
0.0
  0
LINE
  5
11f
100
AcDbEntity
  8
0
 62
7
100
AcDbLine
 10
11.374350
 20
173.393556
 30
0.0
 11
10.302503
 21
173.500975
 31
0.0
  0
LINE
  5
120
100
AcDbEntity
  8
0
 62
7
100
AcDbLine
 10
9.273282
 20
32.558221
 30
0.0
 11
9.676718
 21
32.558221
 31
0.0
  0
LINE
  5
121
100
AcDbEntity
  8
0
 62
7
100
AcDbLine
 10
9.676718
 20
32.558221
 30
0.0
 11
10.080154
 21
32.558221
 31
0.0
  0
LINE
  5
122
100
AcDbEntity
  8
0
 62
7
100
AcDbLine
 10
10.080154
 20
32.558221
 30
0.0
 11
10.483590
 21
32.558221
 31
0.0
  0
LINE
  5
123
100
AcDbEntity
  8
0
 62
7
100
AcDbLine
 10
10.483590
 20
32.558221
 30
0.0
 11
10.887026
 21
32.558221
 31
0.0
  0
LINE
  5
124
100
AcDbEntity
  8
0
 62
7
100
AcDbLine
 10
10.887026
 20
32.558221
 30
0.0
 11
11.290461
 21
32.558221
 31
0.0
  0
LINE
  5
125
100
AcDbEntity
  8
0
 62
7
100
AcDbLine
 10
11.290461
 20
32.558221
 30
0.0
 11
11.693898
 21
32.558221
 31
0.0
  0
LINE
  5
126
100
AcDbEntity
  8
0
 62
7
100
AcDbLine
 10
11.693898
 20
32.558221
 30
0.0
 11
12.097333
 21
32.558221
 31
0.0
  0
LINE
  5
127
100
AcDbEntity
  8
0
 62
7
100
AcDbLine
 10
12.097333
 20
32.558221
 30
0.0
 11
12.500769
 21
32.558221
 31
0.0
  0
LINE
  5
128
100
AcDbEntity
  8
0
 62
7
100
AcDbLine
 10
12.500769
 20
32.558221
 30
0.0
 11
13.037816
 21
32.504403
 31
0.0
  0
LINE
  5
129
100
AcDbEntity
  8
0
 62
7
100
AcDbLine
 10
13.037816
 20
32.504403
 30
0.0
 11
13.537419
 21
32.349965
 31
0.0
  0
LINE
  5
12a
100
AcDbEntity
  8
0
 62
7
100
AcDbLine
 10
13.537419
 20
32.349965
 30
0.0
 11
13.989048
 21
32.105437
 31
0.0
  0
LINE
  5
12b
100
AcDbEntity
  8
0
 62
7
100
AcDbLine
 10
13.989048
 20
32.105437
 30
0.0
 11
14.382173
 21
31.781349
 31
0.0
  0
LINE
  5
12c
100
AcDbEntity
  8
0
 62
7
100
AcDbLine
 10
14.382173
 20
31.781349
 30
0.0
 11
14.706267
 21
31.388205
 31
0.0
  0
LINE
  5
12d
100
AcDbEntity
  8
0
 62
7
100
AcDbLine
 10
14.706267
 20
31.388205
 30
0.0
 11
14.950798
 21
30.936588
 31
0.0
  0
LINE
  5
12e
100
AcDbEntity
  8
0
 62
7
100
AcDbLine
 10
14.950798
 20
30.936588
 30
0.0
 11
15.105239
 21
30.436975
 31
0.0
  0
LINE
  5
12f
100
AcDbEntity
  8
0
 62
7
100
AcDbLine
 10
15.105239
 20
30.436975
 30
0.0
 11
15.159060
 21
29.899924
 31
0.0
  0
LINE
  5
130
100
AcDbEntity
  8
0
 62
7
100
AcDbLine
 10
15.159060
 20
29.899924
 30
0.0
 11
15.159060
 21
28.373886
 31
0.0
  0
LINE
  5
131
100
AcDbEntity
  8
0
 62
7
100
AcDbLine
 10
15.159060
 20
28.373886
 30
0.0
 11
15.159060
 21
26.847823
 31
0.0
  0
LINE
  5
132
100
AcDbEntity
  8
0
 62
7
100
AcDbLine
 10
15.159060
 20
26.847823
 30
0.0
 11
15.159060
 21
25.321812
 31
0.0
  0
LINE
  5
133
100
AcDbEntity
  8
0
 62
7
100
AcDbLine
 10
15.159060
 20
25.321812
 30
0.0
 11
15.159060
 21
23.795748
 31
0.0
  0
LINE
  5
134
100
AcDbEntity
  8
0
 62
7
100
AcDbLine
 10
15.159060
 20
23.795748
 30
0.0
 11
15.159060
 21
22.269684
 31
0.0
  0
LINE
  5
135
100
AcDbEntity
  8
0
 62
7
100
AcDbLine
 10
15.159060
 20
22.269684
 30
0.0
 11
15.159060
 21
20.743673
 31
0.0
  0
LINE
  5
136
100
AcDbEntity
  8
0
 62
7
100
AcDbLine
 10
15.159060
 20
20.743673
 30
0.0
 11
15.159060
 21
19.217636
 31
0.0
  0
LINE
  5
137
100
AcDbEntity
  8
0
 62
7
100
AcDbLine
 10
15.159060
 20
19.217636
 30
0.0
 11
15.159060
 21
17.691572
 31
0.0
  0
LINE
  5
138
100
AcDbEntity
  8
0
 62
7
100
AcDbLine
 10
15.159060
 20
17.691572
 30
0.0
 11
15.105239
 21
17.154521
 31
0.0
  0
LINE
  5
139
100
AcDbEntity
  8
0
 62
7
100
AcDbLine
 10
15.105239
 20
17.154521
 30
0.0
 11
14.950798
 21
16.654908
 31
0.0
  0
LINE
  5
13a
100
AcDbEntity
  8
0
 62
7
100
AcDbLine
 10
14.950798
 20
16.654908
 30
0.0
 11
14.706267
 21
16.203265
 31
0.0
  0
LINE
  5
13b
100
AcDbEntity
  8
0
 62
7
100
AcDbLine
 10
14.706267
 20
16.203265
 30
0.0
 11
14.382173
 21
15.810147
 31
0.0
  0
LINE
  5
13c
100
AcDbEntity
  8
0
 62
7
100
AcDbLine
 10
14.382173
 20
15.810147
 30
0.0
 11
13.989048
 21
15.486059
 31
0.0
  0
LINE
  5
13d
100
AcDbEntity
  8
0
 62
7
100
AcDbLine
 10
13.989048
 20
15.486059
 30
0.0
 11
13.537419
 21
15.241531
 31
0.0
  0
LINE
  5
13e
100
AcDbEntity
  8
0
 62
7
100
AcDbLine
 10
13.537419
 20
15.241531
 30
0.0
 11
13.037816
 21
15.087093
 31
0.0
  0
LINE
  5
13f
100
AcDbEntity
  8
0
 62
7
100
AcDbLine
 10
13.037816
 20
15.087093
 30
0.0
 11
12.500769
 21
15.033251
 31
0.0
  0
LINE
  5
140
100
AcDbEntity
  8
0
 62
7
100
AcDbLine
 10
12.500769
 20
15.033251
 30
0.0
 11
12.097333
 21
15.033251
 31
0.0
  0
LINE
  5
141
100
AcDbEntity
  8
0
 62
7
100
AcDbLine
 10
12.097333
 20
15.033251
 30
0.0
 11
11.693898
 21
15.033251
 31
0.0
  0
LINE
  5
142
100
AcDbEntity
  8
0
 62
7
100
AcDbLine
 10
11.693898
 20
15.033251
 30
0.0
 11
11.290461
 21
15.033251
 31
0.0
  0
LINE
  5
143
100
AcDbEntity
  8
0
 62
7
100
AcDbLine
 10
11.290461
 20
15.033251
 30
0.0
 11
10.887025
 21
15.033251
 31
0.0
  0
LINE
  5
144
100
AcDbEntity
  8
0
 62
7
100
AcDbLine
 10
10.887025
 20
15.033251
 30
0.0
 11
10.483590
 21
15.033251
 31
0.0
  0
LINE
  5
145
100
AcDbEntity
  8
0
 62
7
100
AcDbLine
 10
10.483590
 20
15.033251
 30
0.0
 11
10.080154
 21
15.033251
 31
0.0
  0
LINE
  5
146
100
AcDbEntity
  8
0
 62
7
100
AcDbLine
 10
10.080154
 20
15.033251
 30
0.0
 11
9.676718
 21
15.033251
 31
0.0
  0
LINE
  5
147
100
AcDbEntity
  8
0
 62
7
100
AcDbLine
 10
9.676718
 20
15.033251
 30
0.0
 11
9.273282
 21
15.033251
 31
0.0
  0
LINE
  5
148
100
AcDbEntity
  8
0
 62
7
100
AcDbLine
 10
9.273282
 20
15.033251
 30
0.0
 11
8.736235
 21
15.087093
 31
0.0
  0
LINE
  5
149
100
AcDbEntity
  8
0
 62
7
100
AcDbLine
 10
8.736235
 20
15.087093
 30
0.0
 11
8.236632
 21
15.241531
 31
0.0
  0
LINE
  5
14a
100
AcDbEntity
  8
0
 62
7
100
AcDbLine
 10
8.236632
 20
15.241531
 30
0.0
 11
7.785002
 21
15.486059
 31
0.0
  0
LINE
  5
14b
100
AcDbEntity
  8
0
 62
7
100
AcDbLine
 10
7.785002
 20
15.486059
 30
0.0
 11
7.391877
 21
15.810147
 31
0.0
  0
LINE
  5
14c
100
AcDbEntity
  8
0
 62
7
100
AcDbLine
 10
7.391877
 20
15.810147
 30
0.0
 11
7.067783
 21
16.203265
 31
0.0
  0
LINE
  5
14d
100
AcDbEntity
  8
0
 62
7
100
AcDbLine
 10
7.067783
 20
16.203265
 30
0.0
 11
6.823253
 21
16.654908
 31
0.0
  0
LINE
  5
14e
100
AcDbEntity
  8
0
 62
7
100
AcDbLine
 10
6.823253
 20
16.654908
 30
0.0
 11
6.668812
 21
17.154521
 31
0.0
  0
LINE
  5
14f
100
AcDbEntity
  8
0
 62
7
100
AcDbLine
 10
6.668812
 20
17.154521
 30
0.0
 11
6.614992
 21
17.691572
 31
0.0
  0
LINE
  5
150
100
AcDbEntity
  8
0
 62
7
100
AcDbLine
 10
6.614992
 20
17.691572
 30
0.0
 11
6.614992
 21
19.217636
 31
0.0
  0
LINE
  5
151
100
AcDbEntity
  8
0
 62
7
100
AcDbLine
 10
6.614992
 20
19.217636
 30
0.0
 11
6.614992
 21
20.743673
 31
0.0
  0
LINE
  5
152
100
AcDbEntity
  8
0
 62
7
100
AcDbLine
 10
6.614992
 20
20.743673
 30
0.0
 11
6.614992
 21
22.269684
 31
0.0
  0
LINE
  5
153
100
AcDbEntity
  8
0
 62
7
100
AcDbLine
 10
6.614992
 20
22.269684
 30
0.0
 11
6.614992
 21
23.795748
 31
0.0
  0
LINE
  5
154
100
AcDbEntity
  8
0
 62
7
100
AcDbLine
 10
6.614992
 20
23.795748
 30
0.0
 11
6.614992
 21
25.321812
 31
0.0
  0
LINE
  5
155
100
AcDbEntity
  8
0
 62
7
100
AcDbLine
 10
6.614992
 20
25.321812
 30
0.0
 11
6.614992
 21
26.847823
 31
0.0
  0
LINE
  5
156
100
AcDbEntity
  8
0
 62
7
100
AcDbLine
 10
6.614992
 20
26.847823
 30
0.0
 11
6.614992
 21
28.373886
 31
0.0
  0
LINE
  5
157
100
AcDbEntity
  8
0
 62
7
100
AcDbLine
 10
6.614992
 20
28.373886
 30
0.0
 11
6.614992
 21
29.899924
 31
0.0
  0
LINE
  5
158
100
AcDbEntity
  8
0
 62
7
100
AcDbLine
 10
6.614992
 20
29.899924
 30
0.0
 11
6.668812
 21
30.436975
 31
0.0
  0
LINE
  5
159
100
AcDbEntity
  8
0
 62
7
100
AcDbLine
 10
6.668812
 20
30.436975
 30
0.0
 11
6.823253
 21
30.936588
 31
0.0
  0
LINE
  5
15a
100
AcDbEntity
  8
0
 62
7
100
AcDbLine
 10
6.823253
 20
30.936588
 30
0.0
 11
7.067783
 21
31.388205
 31
0.0
  0
LINE
  5
15b
100
AcDbEntity
  8
0
 62
7
100
AcDbLine
 10
7.067783
 20
31.388205
 30
0.0
 11
7.391877
 21
31.781349
 31
0.0
  0
LINE
  5
15c
100
AcDbEntity
  8
0
 62
7
100
AcDbLine
 10
7.391877
 20
31.781349
 30
0.0
 11
7.785002
 21
32.105437
 31
0.0
  0
LINE
  5
15d
100
AcDbEntity
  8
0
 62
7
100
AcDbLine
 10
7.785002
 20
32.105437
 30
0.0
 11
8.236632
 21
32.349965
 31
0.0
  0
LINE
  5
15e
100
AcDbEntity
  8
0
 62
7
100
AcDbLine
 10
8.236632
 20
32.349965
 30
0.0
 11
8.736235
 21
32.504403
 31
0.0
  0
LINE
  5
15f
100
AcDbEntity
  8
0
 62
7
100
AcDbLine
 10
8.736235
 20
32.504403
 30
0.0
 11
9.273282
 21
32.558221
 31
0.0
  0
LINE
  5
160
100
AcDbEntity
  8
0
 62
7
100
AcDbLine
 10
9.273282
 20
32.558221
 30
0.0
 11
9.273282
 21
32.558221
 31
0.0
  0
LINE
  5
161
100
AcDbEntity
  8
0
 62
7
100
AcDbLine
 10
10.262277
 20
40.390288
 30
0.0
 11
9.666822
 21
40.575737
 31
0.0
  0
LINE
  5
162
100
AcDbEntity
  8
0
 62
7
100
AcDbLine
 10
9.666822
 20
40.575737
 30
0.0
 11
9.128236
 21
40.867903
 31
0.0
  0
LINE
  5
163
100
AcDbEntity
  8
0
 62
7
100
AcDbLine
 10
9.128236
 20
40.867903
 30
0.0
 11
8.658666
 21
41.255242
 31
0.0
  0
LINE
  5
164
100
AcDbEntity
  8
0
 62
7
100
AcDbLine
 10
8.658666
 20
41.255242
 30
0.0
 11
8.271570
 21
41.724637
 31
0.0
  0
LINE
  5
165
100
AcDbEntity
  8
0
 62
7
100
AcDbLine
 10
8.271570
 20
41.724637
 30
0.0
 11
7.979012
 21
42.262987
 31
0.0
  0
LINE
  5
166
100
AcDbEntity
  8
0
 62
7
100
AcDbLine
 10
7.979012
 20
42.262987
 30
0.0
 11
7.793876
 21
42.858779
 31
0.0
  0
LINE
  5
167
100
AcDbEntity
  8
0
 62
7
100
AcDbLine
 10
7.793876
 20
42.858779
 30
0.0
 11
7.729784
 21
43.497224
 31
0.0
  0
LINE
  5
168
100
AcDbEntity
  8
0
 62
7
100
AcDbLine
 10
7.729784
 20
43.497224
 30
0.0
 11
7.793876
 21
44.136504
 31
0.0
  0
LINE
  5
169
100
AcDbEntity
  8
0
 62
7
100
AcDbLine
 10
7.793876
 20
44.136504
 30
0.0
 11
7.979012
 21
44.732288
 31
0.0
  0
LINE
  5
16a
100
AcDbEntity
  8
0
 62
7
100
AcDbLine
 10
7.979012
 20
44.732288
 30
0.0
 11
8.271570
 21
45.270622
 31
0.0
  0
LINE
  5
16b
100
AcDbEntity
  8
0
 62
7
100
AcDbLine
 10
8.271570
 20
45.270622
 30
0.0
 11
8.658666
 21
45.740030
 31
0.0
  0
LINE
  5
16c
100
AcDbEntity
  8
0
 62
7
100
AcDbLine
 10
8.658666
 20
45.740030
 30
0.0
 11
9.128236
 21
46.127372
 31
0.0
  0
LINE
  5
16d
100
AcDbEntity
  8
0
 62
7
100
AcDbLine
 10
9.128236
 20
46.127372
 30
0.0
 11
9.666822
 21
46.420343
 31
0.0
  0
LINE
  5
16e
100
AcDbEntity
  8
0
 62
7
100
AcDbLine
 10
9.666822
 20
46.420343
 30
0.0
 11
10.262277
 21
46.604165
 31
0.0
  0
LINE
  5
16f
100
AcDbEntity
  8
0
 62
7
100
AcDbLine
 10
10.262277
 20
46.604165
 30
0.0
 11
10.900981
 21
46.668996
 31
0.0
  0
LINE
  5
170
100
AcDbEntity
  8
0
 62
7
100
AcDbLine
 10
10.900981
 20
46.668996
 30
0.0
 11
11.540506
 21
46.604165
 31
0.0
  0
LINE
  5
171
100
AcDbEntity
  8
0
 62
7
100
AcDbLine
 10
11.540506
 20
46.604165
 30
0.0
 11
12.135962
 21
46.420343
 31
0.0
  0
LINE
  5
172
100
AcDbEntity
  8
0
 62
7
100
AcDbLine
 10
12.135962
 20
46.420343
 30
0.0
 11
12.674465
 21
46.127372
 31
0.0
  0
LINE
  5
173
100
AcDbEntity
  8
0
 62
7
100
AcDbLine
 10
12.674465
 20
46.127372
 30
0.0
 11
13.144117
 21
45.740030
 31
0.0
  0
LINE
  5
174
100
AcDbEntity
  8
0
 62
7
100
AcDbLine
 10
13.144117
 20
45.740030
 30
0.0
 11
13.531213
 21
45.270622
 31
0.0
  0
LINE
  5
175
100
AcDbEntity
  8
0
 62
7
100
AcDbLine
 10
13.531213
 20
45.270622
 30
0.0
 11
13.823689
 21
44.732288
 31
0.0
  0
LINE
  5
176
100
AcDbEntity
  8
0
 62
7
100
AcDbLine
 10
13.823689
 20
44.732288
 30
0.0
 11
14.008004
 21
44.136504
 31
0.0
  0
LINE
  5
177
100
AcDbEntity
  8
0
 62
7
100
AcDbLine
 10
14.008004
 20
44.136504
 30
0.0
 11
14.072918
 21
43.497224
 31
0.0
  0
LINE
  5
178
100
AcDbEntity
  8
0
 62
7
100
AcDbLine
 10
14.072918
 20
43.497224
 30
0.0
 11
14.008004
 21
42.858779
 31
0.0
  0
LINE
  5
179
100
AcDbEntity
  8
0
 62
7
100
AcDbLine
 10
14.008004
 20
42.858779
 30
0.0
 11
13.823689
 21
42.262987
 31
0.0
  0
LINE
  5
17a
100
AcDbEntity
  8
0
 62
7
100
AcDbLine
 10
13.823689
 20
42.262987
 30
0.0
 11
13.531213
 21
41.724637
 31
0.0
  0
LINE
  5
17b
100
AcDbEntity
  8
0
 62
7
100
AcDbLine
 10
13.531213
 20
41.724637
 30
0.0
 11
13.144117
 21
41.255242
 31
0.0
  0
LINE
  5
17c
100
AcDbEntity
  8
0
 62
7
100
AcDbLine
 10
13.144117
 20
41.255242
 30
0.0
 11
12.674465
 21
40.867903
 31
0.0
  0
LINE
  5
17d
100
AcDbEntity
  8
0
 62
7
100
AcDbLine
 10
12.674465
 20
40.867903
 30
0.0
 11
12.135962
 21
40.575737
 31
0.0
  0
LINE
  5
17e
100
AcDbEntity
  8
0
 62
7
100
AcDbLine
 10
12.135962
 20
40.575737
 30
0.0
 11
11.540506
 21
40.390288
 31
0.0
  0
LINE
  5
17f
100
AcDbEntity
  8
0
 62
7
100
AcDbLine
 10
11.540506
 20
40.390288
 30
0.0
 11
10.900981
 21
40.326277
 31
0.0
  0
LINE
  5
180
100
AcDbEntity
  8
0
 62
7
100
AcDbLine
 10
10.900981
 20
40.326277
 30
0.0
 11
10.262277
 21
40.390288
 31
0.0
  0
LINE
  5
181
100
AcDbEntity
  8
0
 62
7
100
AcDbLine
 10
10.262277
 20
53.918889
 30
0.0
 11
9.666822
 21
54.104338
 31
0.0
  0
LINE
  5
182
100
AcDbEntity
  8
0
 62
7
100
AcDbLine
 10
9.666822
 20
54.104338
 30
0.0
 11
9.128236
 21
54.396504
 31
0.0
  0
LINE
  5
183
100
AcDbEntity
  8
0
 62
7
100
AcDbLine
 10
9.128236
 20
54.396504
 30
0.0
 11
8.658666
 21
54.783843
 31
0.0
  0
LINE
  5
184
100
AcDbEntity
  8
0
 62
7
100
AcDbLine
 10
8.658666
 20
54.783843
 30
0.0
 11
8.271570
 21
55.253238
 31
0.0
  0
LINE
  5
185
100
AcDbEntity
  8
0
 62
7
100
AcDbLine
 10
8.271570
 20
55.253238
 30
0.0
 11
7.979012
 21
55.791588
 31
0.0
  0
LINE
  5
186
100
AcDbEntity
  8
0
 62
7
100
AcDbLine
 10
7.979012
 20
55.791588
 30
0.0
 11
7.793876
 21
56.387380
 31
0.0
  0
LINE
  5
187
100
AcDbEntity
  8
0
 62
7
100
AcDbLine
 10
7.793876
 20
56.387380
 30
0.0
 11
7.729784
 21
57.025824
 31
0.0
  0
LINE
  5
188
100
AcDbEntity
  8
0
 62
7
100
AcDbLine
 10
7.729784
 20
57.025824
 30
0.0
 11
7.793876
 21
57.665105
 31
0.0
  0
LINE
  5
189
100
AcDbEntity
  8
0
 62
7
100
AcDbLine
 10
7.793876
 20
57.665105
 30
0.0
 11
7.979012
 21
58.260889
 31
0.0
  0
LINE
  5
18a
100
AcDbEntity
  8
0
 62
7
100
AcDbLine
 10
7.979012
 20
58.260889
 30
0.0
 11
8.271570
 21
58.799223
 31
0.0
  0
LINE
  5
18b
100
AcDbEntity
  8
0
 62
7
100
AcDbLine
 10
8.271570
 20
58.799223
 30
0.0
 11
8.658666
 21
59.268631
 31
0.0
  0
LINE
  5
18c
100
AcDbEntity
  8
0
 62
7
100
AcDbLine
 10
8.658666
 20
59.268631
 30
0.0
 11
9.128236
 21
59.655973
 31
0.0
  0
LINE
  5
18d
100
AcDbEntity
  8
0
 62
7
100
AcDbLine
 10
9.128236
 20
59.655973
 30
0.0
 11
9.666822
 21
59.948944
 31
0.0
  0
LINE
  5
18e
100
AcDbEntity
  8
0
 62
7
100
AcDbLine
 10
9.666822
 20
59.948944
 30
0.0
 11
10.262277
 21
60.132766
 31
0.0
  0
LINE
  5
18f
100
AcDbEntity
  8
0
 62
7
100
AcDbLine
 10
10.262277
 20
60.132766
 30
0.0
 11
10.900981
 21
60.197597
 31
0.0
  0
LINE
  5
190
100
AcDbEntity
  8
0
 62
7
100
AcDbLine
 10
10.900981
 20
60.197597
 30
0.0
 11
11.540506
 21
60.132766
 31
0.0
  0
LINE
  5
191
100
AcDbEntity
  8
0
 62
7
100
AcDbLine
 10
11.540506
 20
60.132766
 30
0.0
 11
12.135962
 21
59.948944
 31
0.0
  0
LINE
  5
192
100
AcDbEntity
  8
0
 62
7
100
AcDbLine
 10
12.135962
 20
59.948944
 30
0.0
 11
12.674465
 21
59.655973
 31
0.0
  0
LINE
  5
193
100
AcDbEntity
  8
0
 62
7
100
AcDbLine
 10
12.674465
 20
59.655973
 30
0.0
 11
13.144117
 21
59.268631
 31
0.0
  0
LINE
  5
194
100
AcDbEntity
  8
0
 62
7
100
AcDbLine
 10
13.144117
 20
59.268631
 30
0.0
 11
13.531213
 21
58.799223
 31
0.0
  0
LINE
  5
195
100
AcDbEntity
  8
0
 62
7
100
AcDbLine
 10
13.531213
 20
58.799223
 30
0.0
 11
13.823689
 21
58.260889
 31
0.0
  0
LINE
  5
196
100
AcDbEntity
  8
0
 62
7
100
AcDbLine
 10
13.823689
 20
58.260889
 30
0.0
 11
14.008004
 21
57.665105
 31
0.0
  0
LINE
  5
197
100
AcDbEntity
  8
0
 62
7
100
AcDbLine
 10
14.008004
 20
57.665105
 30
0.0
 11
14.072918
 21
57.025824
 31
0.0
  0
LINE
  5
198
100
AcDbEntity
  8
0
 62
7
100
AcDbLine
 10
14.072918
 20
57.025824
 30
0.0
 11
14.008004
 21
56.387380
 31
0.0
  0
LINE
  5
199
100
AcDbEntity
  8
0
 62
7
100
AcDbLine
 10
14.008004
 20
56.387380
 30
0.0
 11
13.823689
 21
55.791588
 31
0.0
  0
LINE
  5
19a
100
AcDbEntity
  8
0
 62
7
100
AcDbLine
 10
13.823689
 20
55.791588
 30
0.0
 11
13.531213
 21
55.253238
 31
0.0
  0
LINE
  5
19b
100
AcDbEntity
  8
0
 62
7
100
AcDbLine
 10
13.531213
 20
55.253238
 30
0.0
 11
13.144117
 21
54.783843
 31
0.0
  0
LINE
  5
19c
100
AcDbEntity
  8
0
 62
7
100
AcDbLine
 10
13.144117
 20
54.783843
 30
0.0
 11
12.674465
 21
54.396504
 31
0.0
  0
LINE
  5
19d
100
AcDbEntity
  8
0
 62
7
100
AcDbLine
 10
12.674465
 20
54.396504
 30
0.0
 11
12.135962
 21
54.104338
 31
0.0
  0
LINE
  5
19e
100
AcDbEntity
  8
0
 62
7
100
AcDbLine
 10
12.135962
 20
54.104338
 30
0.0
 11
11.540506
 21
53.918889
 31
0.0
  0
LINE
  5
19f
100
AcDbEntity
  8
0
 62
7
100
AcDbLine
 10
11.540506
 20
53.918889
 30
0.0
 11
10.900981
 21
53.854878
 31
0.0
  0
LINE
  5
1a0
100
AcDbEntity
  8
0
 62
7
100
AcDbLine
 10
10.900981
 20
53.854878
 30
0.0
 11
10.262277
 21
53.918889
 31
0.0
  0
LINE
  5
1a1
100
AcDbEntity
  8
Layer_1
 62
7
100
AcDbLine
 10
0.144258
 20
0.144273
 30
0.0
 11
22.288637
 21
0.144273
 31
0.0
  0
LINE
  5
1a2
100
AcDbEntity
  8
Layer_1
 62
7
100
AcDbLine
 10
22.288637
 20
0.144273
 30
0.0
 11
22.288637
 21
198.258273
 31
0.0
  0
LINE
  5
1a3
100
AcDbEntity
  8
Layer_1
 62
7
100
AcDbLine
 10
22.288637
 20
198.258273
 30
0.0
 11
0.144258
 21
198.258273
 31
0.0
  0
LINE
  5
1a4
100
AcDbEntity
  8
Layer_1
 62
7
100
AcDbLine
 10
0.144258
 20
198.258273
 30
0.0
 11
0.144258
 21
0.144273
 31
0.0
  0
LINE
  5
1a5
100
AcDbEntity
  8
Layer_1
 62
7
100
AcDbLine
 10
0.180016
 20
0.180021
 30
0.0
 11
0.180016
 21
0.180021
 31
0.0
  0
LINE
  5
1a6
100
AcDbEntity
  8
Layer_1
 62
7
100
AcDbLine
 10
0.180016
 20
0.180021
 30
0.0
 11
0.180016
 21
0.180021
 31
0.0
  0
LINE
  5
1a7
100
AcDbEntity
  8
Layer_1
 62
7
100
AcDbLine
 10
0.180016
 20
0.180021
 30
0.0
 11
0.180016
 21
0.180021
 31
0.0
  0
LINE
  5
1a8
100
AcDbEntity
  8
Layer_1
 62
7
100
AcDbLine
 10
0.180016
 20
0.180021
 30
0.0
 11
0.180016
 21
0.180021
 31
0.0
  0
LINE
  5
1a9
100
AcDbEntity
  8
Layer_1
 62
7
100
AcDbLine
 10
0.180016
 20
0.180021
 30
0.0
 11
0.180016
 21
0.180021
 31
0.0
  0
LINE
  5
1aa
100
AcDbEntity
  8
Layer_1
 62
7
100
AcDbLine
 10
0.180016
 20
0.180021
 30
0.0
 11
0.180016
 21
0.180021
 31
0.0
  0
LINE
  5
1ab
100
AcDbEntity
  8
Layer_1
 62
7
100
AcDbLine
 10
0.180016
 20
0.180021
 30
0.0
 11
0.180016
 21
0.180021
 31
0.0
  0
LINE
  5
1ac
100
AcDbEntity
  8
Layer_1
 62
7
100
AcDbLine
 10
1.471968
 20
2.764213
 30
0.0
 11
1.471968
 21
2.764213
 31
0.0
  0
LINE
  5
1ad
100
AcDbEntity
  8
Layer_1
 62
7
100
AcDbLine
 10
1.471968
 20
2.764213
 30
0.0
 11
1.471968
 21
2.764213
 31
0.0
  0
LINE
  5
1ae
100
AcDbEntity
  8
Layer_1
 62
7
100
AcDbLine
 10
1.471968
 20
2.764213
 30
0.0
 11
1.471968
 21
2.764213
 31
0.0
  0
LINE
  5
1af
100
AcDbEntity
  8
Layer_1
 62
7
100
AcDbLine
 10
1.471968
 20
2.764213
 30
0.0
 11
1.471968
 21
2.764213
 31
0.0
  0
LINE
  5
1b0
100
AcDbEntity
  8
Layer_1
 62
7
100
AcDbLine
 10
1.471968
 20
2.764213
 30
0.0
 11
1.471968
 21
2.764213
 31
0.0
  0
LINE
  5
1b1
100
AcDbEntity
  8
Layer_1
 62
7
100
AcDbLine
 10
1.471968
 20
2.764213
 30
0.0
 11
1.471968
 21
2.764213
 31
0.0
  0
LINE
  5
1b2
100
AcDbEntity
  8
Layer_1
 62
7
100
AcDbLine
 10
1.471968
 20
2.764213
 30
0.0
 11
1.471968
 21
2.764213
 31
0.0
  0
ENDSEC
  0
SECTION
  2
OBJECTS
  0
DICTIONARY
  5
C
330
0
100
AcDbDictionary
  3
ACAD_GROUP
350
D
  3
ACAD_MLINESTYLE
350
17
  0
DICTIONARY
  5
D
330
C
100
AcDbDictionary
  0
DICTIONARY
  5
1A
330
C
100
AcDbDictionary
  0
DICTIONARY
  5
17
330
C
100
AcDbDictionary
  3
STANDARD
350
18
  0
DICTIONARY
  5
19
330
C
100
AcDbDictionary
  0
ENDSEC
  0
EOF
