  0
SECTION
  2
HEADER
  9
$ACADVER
  1
AC1014
  9
$HANDSEED
  5
FFFF
  9
$MEASUREMENT
 70
     1
  0
ENDSEC
  0
SECTION
  2
TABLES
  0
TABLE
  2
VPORT
  5
8
330
0
100
AcDbSymbolTable
 70
     4
  0
VPORT
  5
2E
330
8
100
AcDbSymbolTableRecord
100
AcDbViewportTableRecord
  2
*ACTIVE
 70
     0
 10
0.0
 20
0.0
 11
1.0
 21
1.0
 12
210.0
 22
148.5
 13
0.0
 23
0.0
 14
10.0
 24
10.0
 15
10.0
 25
10.0
 16
0.0
 26
0.0
 36
1.0
 17
0.0
 27
0.0
 37
0.0
 40
341.0
 41
1.24
 42
50.0
 43
0.0
 44
0.0
 50
0.0
 51
0.0
 71
     0
 72
   100
 73
     1
 74
     3
 75
     0
 76
     0
 77
     0
 78
     0
  0
ENDTAB
  0
TABLE
  2
LTYPE
  5
5
330
0
100
AcDbSymbolTable
 70
     1
  0
LTYPE
  5
14
330
5
100
AcDbSymbolTableRecord
100
AcDbLinetypeTableRecord
  2
BYBLOCK
 70
     0
  3

 72
    65
 73
     0
 40
0.0
  0
LTYPE
  5
15
330
5
100
AcDbSymbolTableRecord
100
AcDbLinetypeTableRecord
  2
BYLAYER
 70
     0
  3

 72
    65
 73
     0
 40
0.0
  0
LTYPE
  5
16
330
5
100
AcDbSymbolTableRecord
100
AcDbLinetypeTableRecord
  2
CONTINUOUS
 70
     0
  3
Solid line
 72
    65
 73
     0
 40
0.0
  0
ENDTAB
  0
TABLE
  2
LAYER
  5
2
100
AcDbSymbolTable
 70
2
  0
LAYER
  5
50
100
AcDbSymbolTableRecord
100
AcDbLayerTableRecord
  2
0
 70
0
  6
CONTINUOUS
  0
LAYER
  5
51
100
AcDbSymbolTableRecord
100
AcDbLayerTableRecord
  2
Layer_1
 70
0
  6
CONTINUOUS
  0
ENDTAB
  0
TABLE
  2
STYLE
  5
3
330
0
100
AcDbSymbolTable
 70
     1
  0
STYLE
  5
11
330
3
100
AcDbSymbolTableRecord
100
AcDbTextStyleTableRecord
  2
STANDARD
 70
     0
 40
0.0
 41
1.0
 50
0.0
 71
     0
 42
2.5
  3
txt
  4

  0
ENDTAB
  0
TABLE
  2
VIEW
  5
6
330
0
100
AcDbSymbolTable
 70
     0
  0
ENDTAB
  0
TABLE
  2
UCS
  5
7
330
0
100
AcDbSymbolTable
 70
     0
  0
ENDTAB
  0
TABLE
  2
APPID
  5
9
330
0
100
AcDbSymbolTable
 70
     2
  0
APPID
  5
12
330
9
100
AcDbSymbolTableRecord
100
AcDbRegAppTableRecord
  2
ACAD
 70
     0
  0
ENDTAB
  0
TABLE
  2
DIMSTYLE
  5
A
330
0
100
AcDbSymbolTable
 70
     1
  0
DIMSTYLE
105
27
330
A
100
AcDbSymbolTableRecord
100
AcDbDimStyleTableRecord
  2
ISO-25
 70
     0
  3

  4

  5

  6

  7

 40
1.0
 41
2.5
 42
0.625
 43
3.75
 44
1.25
 45
0.0
 46
0.0
 47
0.0
 48
0.0
140
2.5
141
2.5
142
0.0
143
0.03937007874016
144
1.0
145
0.0
146
1.0
147
0.625
 71
     0
 72
     0
 73
     0
 74
     0
 75
     0
 76
     0
 77
     1
 78
     8
170
     0
171
     3
172
     1
173
     0
174
     0
175
     0
176
     0
177
     0
178
     0
270
     2
271
     2
272
     2
273
     2
274
     3
340
11
275
     0
280
     0
281
     0
282
     0
283
     0
284
     8
285
     0
286
     0
287
     3
288
     0
  0
ENDTAB
  0
TABLE
  2
BLOCK_RECORD
  5
1
330
0
100
AcDbSymbolTable
 70
     1
  0
BLOCK_RECORD
  5
1F
330
1
100
AcDbSymbolTableRecord
100
AcDbBlockTableRecord
  2
*MODEL_SPACE
  0
BLOCK_RECORD
  5
1B
330
1
100
AcDbSymbolTableRecord
100
AcDbBlockTableRecord
  2
*PAPER_SPACE
  0
ENDTAB
  0
ENDSEC
  0
SECTION
  2
BLOCKS
  0
BLOCK
  5
20
330
1F
100
AcDbEntity
  8
0
100
AcDbBlockBegin
  2
*MODEL_SPACE
 70
     0
 10
0.0
 20
0.0
 30
0.0
  3
*MODEL_SPACE
  1

  0
ENDBLK
  5
21
330
1F
100
AcDbEntity
  8
0
100
AcDbBlockEnd
  0
BLOCK
  5
1C
330
1B
100
AcDbEntity
 67
     1
  8
0
100
AcDbBlockBegin
  2
*PAPER_SPACE
  1

  0
ENDBLK
  5
1D
330
1B
100
AcDbEntity
 67
     1
  8
0
100
AcDbBlockEnd
  0
ENDSEC
  0
SECTION
  2
ENTITIES
  0
LINE
  5
100
100
AcDbEntity
  8
0
 62
7
100
AcDbLine
 10
17.261981
 20
190.707959
 30
0.0
 11
15.997293
 21
191.101836
 31
0.0
  0
LINE
  5
101
100
AcDbEntity
  8
0
 62
7
100
AcDbLine
 10
15.997293
 20
191.101836
 30
0.0
 11
14.853391
 21
191.722366
 31
0.0
  0
LINE
  5
102
100
AcDbEntity
  8
0
 62
7
100
AcDbLine
 10
14.853391
 20
191.722366
 30
0.0
 11
13.856073
 21
192.545037
 31
0.0
  0
LINE
  5
103
100
AcDbEntity
  8
0
 62
7
100
AcDbLine
 10
13.856073
 20
192.545037
 30
0.0
 11
13.033921
 21
193.541982
 31
0.0
  0
LINE
  5
104
100
AcDbEntity
  8
0
 62
7
100
AcDbLine
 10
13.033921
 20
193.541982
 30
0.0
 11
12.412557
 21
194.685382
 31
0.0
  0
LINE
  5
105
100
AcDbEntity
  8
0
 62
7
100
AcDbLine
 10
12.412557
 20
194.685382
 30
0.0
 11
12.019347
 21
195.950791
 31
0.0
  0
LINE
  5
106
100
AcDbEntity
  8
0
 62
7
100
AcDbLine
 10
12.019347
 20
195.950791
 30
0.0
 11
11.883222
 21
197.306778
 31
0.0
  0
LINE
  5
107
100
AcDbEntity
  8
0
 62
7
100
AcDbLine
 10
11.883222
 20
197.306778
 30
0.0
 11
12.019347
 21
198.664546
 31
0.0
  0
LINE
  5
108
100
AcDbEntity
  8
0
 62
7
100
AcDbLine
 10
12.019347
 20
198.664546
 30
0.0
 11
12.412557
 21
199.929931
 31
0.0
  0
LINE
  5
109
100
AcDbEntity
  8
0
 62
7
100
AcDbLine
 10
12.412557
 20
199.929931
 30
0.0
 11
13.033921
 21
201.073302
 31
0.0
  0
LINE
  5
10a
100
AcDbEntity
  8
0
 62
7
100
AcDbLine
 10
13.033921
 20
201.073302
 30
0.0
 11
13.856073
 21
202.070273
 31
0.0
  0
LINE
  5
10b
100
AcDbEntity
  8
0
 62
7
100
AcDbLine
 10
13.856073
 20
202.070273
 30
0.0
 11
14.853391
 21
202.892950
 31
0.0
  0
LINE
  5
10c
100
AcDbEntity
  8
0
 62
7
100
AcDbLine
 10
14.853391
 20
202.892950
 30
0.0
 11
15.997293
 21
203.515184
 31
0.0
  0
LINE
  5
10d
100
AcDbEntity
  8
0
 62
7
100
AcDbLine
 10
15.997293
 20
203.515184
 30
0.0
 11
17.261981
 21
203.905608
 31
0.0
  0
LINE
  5
10e
100
AcDbEntity
  8
0
 62
7
100
AcDbLine
 10
17.261981
 20
203.905608
 30
0.0
 11
18.618523
 21
204.043300
 31
0.0
  0
LINE
  5
10f
100
AcDbEntity
  8
0
 62
7
100
AcDbLine
 10
18.618523
 20
204.043300
 30
0.0
 11
19.976808
 21
203.905608
 31
0.0
  0
LINE
  5
110
100
AcDbEntity
  8
0
 62
7
100
AcDbLine
 10
19.976808
 20
203.905608
 30
0.0
 11
21.241496
 21
203.515184
 31
0.0
  0
LINE
  5
111
100
AcDbEntity
  8
0
 62
7
100
AcDbLine
 10
21.241496
 20
203.515184
 30
0.0
 11
22.385223
 21
202.892950
 31
0.0
  0
LINE
  5
112
100
AcDbEntity
  8
0
 62
7
100
AcDbLine
 10
22.385223
 20
202.892950
 30
0.0
 11
23.382716
 21
202.070273
 31
0.0
  0
LINE
  5
113
100
AcDbEntity
  8
0
 62
7
100
AcDbLine
 10
23.382716
 20
202.070273
 30
0.0
 11
24.204870
 21
201.073302
 31
0.0
  0
LINE
  5
114
100
AcDbEntity
  8
0
 62
7
100
AcDbLine
 10
24.204870
 20
201.073302
 30
0.0
 11
24.826058
 21
199.929931
 31
0.0
  0
LINE
  5
115
100
AcDbEntity
  8
0
 62
7
100
AcDbLine
 10
24.826058
 20
199.929931
 30
0.0
 11
25.217523
 21
198.664546
 31
0.0
  0
LINE
  5
116
100
AcDbEntity
  8
0
 62
7
100
AcDbLine
 10
25.217523
 20
198.664546
 30
0.0
 11
25.355394
 21
197.306778
 31
0.0
  0
LINE
  5
117
100
AcDbEntity
  8
0
 62
7
100
AcDbLine
 10
25.355394
 20
197.306778
 30
0.0
 11
25.217523
 21
195.950791
 31
0.0
  0
LINE
  5
118
100
AcDbEntity
  8
0
 62
7
100
AcDbLine
 10
25.217523
 20
195.950791
 30
0.0
 11
24.826058
 21
194.685382
 31
0.0
  0
LINE
  5
119
100
AcDbEntity
  8
0
 62
7
100
AcDbLine
 10
24.826058
 20
194.685382
 30
0.0
 11
24.204870
 21
193.541982
 31
0.0
  0
LINE
  5
11a
100
AcDbEntity
  8
0
 62
7
100
AcDbLine
 10
24.204870
 20
193.541982
 30
0.0
 11
23.382716
 21
192.545037
 31
0.0
  0
LINE
  5
11b
100
AcDbEntity
  8
0
 62
7
100
AcDbLine
 10
23.382716
 20
192.545037
 30
0.0
 11
22.385223
 21
191.722366
 31
0.0
  0
LINE
  5
11c
100
AcDbEntity
  8
0
 62
7
100
AcDbLine
 10
22.385223
 20
191.722366
 30
0.0
 11
21.241496
 21
191.101836
 31
0.0
  0
LINE
  5
11d
100
AcDbEntity
  8
0
 62
7
100
AcDbLine
 10
21.241496
 20
191.101836
 30
0.0
 11
19.976808
 21
190.707959
 31
0.0
  0
LINE
  5
11e
100
AcDbEntity
  8
0
 62
7
100
AcDbLine
 10
19.976808
 20
190.707959
 30
0.0
 11
18.618523
 21
190.572010
 31
0.0
  0
LINE
  5
11f
100
AcDbEntity
  8
0
 62
7
100
AcDbLine
 10
18.618523
 20
190.572010
 30
0.0
 11
17.261981
 21
190.707959
 31
0.0
  0
LINE
  5
120
100
AcDbEntity
  8
0
 62
7
100
AcDbLine
 10
14.440292
 20
45.719821
 30
0.0
 11
13.688087
 21
45.954088
 31
0.0
  0
LINE
  5
121
100
AcDbEntity
  8
0
 62
7
100
AcDbLine
 10
13.688087
 20
45.954088
 30
0.0
 11
13.007726
 21
46.323158
 31
0.0
  0
LINE
  5
122
100
AcDbEntity
  8
0
 62
7
100
AcDbLine
 10
13.007726
 20
46.323158
 30
0.0
 11
12.414547
 21
46.812464
 31
0.0
  0
LINE
  5
123
100
AcDbEntity
  8
0
 62
7
100
AcDbLine
 10
12.414547
 20
46.812464
 30
0.0
 11
11.925552
 21
47.405418
 31
0.0
  0
LINE
  5
124
100
AcDbEntity
  8
0
 62
7
100
AcDbLine
 10
11.925552
 20
47.405418
 30
0.0
 11
11.555980
 21
48.085489
 31
0.0
  0
LINE
  5
125
100
AcDbEntity
  8
0
 62
7
100
AcDbLine
 10
11.555980
 20
48.085489
 30
0.0
 11
11.322111
 21
48.838114
 31
0.0
  0
LINE
  5
126
100
AcDbEntity
  8
0
 62
7
100
AcDbLine
 10
11.322111
 20
48.838114
 30
0.0
 11
11.241147
 21
49.644620
 31
0.0
  0
LINE
  5
127
100
AcDbEntity
  8
0
 62
7
100
AcDbLine
 10
11.241147
 20
49.644620
 30
0.0
 11
11.322111
 21
50.452182
 31
0.0
  0
LINE
  5
128
100
AcDbEntity
  8
0
 62
7
100
AcDbLine
 10
11.322111
 20
50.452182
 30
0.0
 11
11.555980
 21
51.204787
 31
0.0
  0
LINE
  5
129
100
AcDbEntity
  8
0
 62
7
100
AcDbLine
 10
11.555980
 20
51.204787
 30
0.0
 11
11.925552
 21
51.884838
 31
0.0
  0
LINE
  5
12a
100
AcDbEntity
  8
0
 62
7
100
AcDbLine
 10
11.925552
 20
51.884838
 30
0.0
 11
12.414547
 21
52.477810
 31
0.0
  0
LINE
  5
12b
100
AcDbEntity
  8
0
 62
7
100
AcDbLine
 10
12.414547
 20
52.477810
 30
0.0
 11
13.007726
 21
52.967115
 31
0.0
  0
LINE
  5
12c
100
AcDbEntity
  8
0
 62
7
100
AcDbLine
 10
13.007726
 20
52.967115
 30
0.0
 11
13.688087
 21
53.337205
 31
0.0
  0
LINE
  5
12d
100
AcDbEntity
  8
0
 62
7
100
AcDbLine
 10
13.688087
 20
53.337205
 30
0.0
 11
14.440292
 21
53.569420
 31
0.0
  0
LINE
  5
12e
100
AcDbEntity
  8
0
 62
7
100
AcDbLine
 10
14.440292
 20
53.569420
 30
0.0
 11
15.247128
 21
53.651315
 31
0.0
  0
LINE
  5
12f
100
AcDbEntity
  8
0
 62
7
100
AcDbLine
 10
15.247128
 20
53.651315
 30
0.0
 11
16.055000
 21
53.569420
 31
0.0
  0
LINE
  5
130
100
AcDbEntity
  8
0
 62
7
100
AcDbLine
 10
16.055000
 20
53.569420
 30
0.0
 11
16.807202
 21
53.337205
 31
0.0
  0
LINE
  5
131
100
AcDbEntity
  8
0
 62
7
100
AcDbLine
 10
16.807202
 20
53.337205
 30
0.0
 11
17.487461
 21
52.967115
 31
0.0
  0
LINE
  5
132
100
AcDbEntity
  8
0
 62
7
100
AcDbLine
 10
17.487461
 20
52.967115
 30
0.0
 11
18.080744
 21
52.477810
 31
0.0
  0
LINE
  5
133
100
AcDbEntity
  8
0
 62
7
100
AcDbLine
 10
18.080744
 20
52.477810
 30
0.0
 11
18.569740
 21
51.884838
 31
0.0
  0
LINE
  5
134
100
AcDbEntity
  8
0
 62
7
100
AcDbLine
 10
18.569740
 20
51.884838
 30
0.0
 11
18.939206
 21
51.204787
 31
0.0
  0
LINE
  5
135
100
AcDbEntity
  8
0
 62
7
100
AcDbLine
 10
18.939206
 20
51.204787
 30
0.0
 11
19.172040
 21
50.452182
 31
0.0
  0
LINE
  5
136
100
AcDbEntity
  8
0
 62
7
100
AcDbLine
 10
19.172040
 20
50.452182
 30
0.0
 11
19.254042
 21
49.644620
 31
0.0
  0
LINE
  5
137
100
AcDbEntity
  8
0
 62
7
100
AcDbLine
 10
19.254042
 20
49.644620
 30
0.0
 11
19.172040
 21
48.838114
 31
0.0
  0
LINE
  5
138
100
AcDbEntity
  8
0
 62
7
100
AcDbLine
 10
19.172040
 20
48.838114
 30
0.0
 11
18.939206
 21
48.085489
 31
0.0
  0
LINE
  5
139
100
AcDbEntity
  8
0
 62
7
100
AcDbLine
 10
18.939206
 20
48.085489
 30
0.0
 11
18.569740
 21
47.405418
 31
0.0
  0
LINE
  5
13a
100
AcDbEntity
  8
0
 62
7
100
AcDbLine
 10
18.569740
 20
47.405418
 30
0.0
 11
18.080744
 21
46.812464
 31
0.0
  0
LINE
  5
13b
100
AcDbEntity
  8
0
 62
7
100
AcDbLine
 10
18.080744
 20
46.812464
 30
0.0
 11
17.487461
 21
46.323158
 31
0.0
  0
LINE
  5
13c
100
AcDbEntity
  8
0
 62
7
100
AcDbLine
 10
17.487461
 20
46.323158
 30
0.0
 11
16.807202
 21
45.954088
 31
0.0
  0
LINE
  5
13d
100
AcDbEntity
  8
0
 62
7
100
AcDbLine
 10
16.807202
 20
45.954088
 30
0.0
 11
16.055000
 21
45.719821
 31
0.0
  0
LINE
  5
13e
100
AcDbEntity
  8
0
 62
7
100
AcDbLine
 10
16.055000
 20
45.719821
 30
0.0
 11
15.247128
 21
45.638961
 31
0.0
  0
LINE
  5
13f
100
AcDbEntity
  8
0
 62
7
100
AcDbLine
 10
15.247128
 20
45.638961
 30
0.0
 11
14.440292
 21
45.719821
 31
0.0
  0
LINE
  5
140
100
AcDbEntity
  8
0
 62
7
100
AcDbLine
 10
14.440292
 20
45.719821
 30
0.0
 11
14.440292
 21
45.719821
 31
0.0
  0
LINE
  5
141
100
AcDbEntity
  8
0
 62
7
100
AcDbLine
 10
14.440292
 20
63.506261
 30
0.0
 11
13.688087
 21
63.740528
 31
0.0
  0
LINE
  5
142
100
AcDbEntity
  8
0
 62
7
100
AcDbLine
 10
13.688087
 20
63.740528
 30
0.0
 11
13.007726
 21
64.109599
 31
0.0
  0
LINE
  5
143
100
AcDbEntity
  8
0
 62
7
100
AcDbLine
 10
13.007726
 20
64.109599
 30
0.0
 11
12.414547
 21
64.598904
 31
0.0
  0
LINE
  5
144
100
AcDbEntity
  8
0
 62
7
100
AcDbLine
 10
12.414547
 20
64.598904
 30
0.0
 11
11.925552
 21
65.191856
 31
0.0
  0
LINE
  5
145
100
AcDbEntity
  8
0
 62
7
100
AcDbLine
 10
11.925552
 20
65.191856
 30
0.0
 11
11.555980
 21
65.871930
 31
0.0
  0
LINE
  5
146
100
AcDbEntity
  8
0
 62
7
100
AcDbLine
 10
11.555980
 20
65.871930
 30
0.0
 11
11.322111
 21
66.624551
 31
0.0
  0
LINE
  5
147
100
AcDbEntity
  8
0
 62
7
100
AcDbLine
 10
11.322111
 20
66.624551
 30
0.0
 11
11.241147
 21
67.431061
 31
0.0
  0
LINE
  5
148
100
AcDbEntity
  8
0
 62
7
100
AcDbLine
 10
11.241147
 20
67.431061
 30
0.0
 11
11.322111
 21
68.238623
 31
0.0
  0
LINE
  5
149
100
AcDbEntity
  8
0
 62
7
100
AcDbLine
 10
11.322111
 20
68.238623
 30
0.0
 11
11.555980
 21
68.991227
 31
0.0
  0
LINE
  5
14a
100
AcDbEntity
  8
0
 62
7
100
AcDbLine
 10
11.555980
 20
68.991227
 30
0.0
 11
11.925552
 21
69.671279
 31
0.0
  0
LINE
  5
14b
100
AcDbEntity
  8
0
 62
7
100
AcDbLine
 10
11.925552
 20
69.671279
 30
0.0
 11
12.414547
 21
70.264250
 31
0.0
  0
LINE
  5
14c
100
AcDbEntity
  8
0
 62
7
100
AcDbLine
 10
12.414547
 20
70.264250
 30
0.0
 11
13.007726
 21
70.753556
 31
0.0
  0
LINE
  5
14d
100
AcDbEntity
  8
0
 62
7
100
AcDbLine
 10
13.007726
 20
70.753556
 30
0.0
 11
13.688087
 21
71.123645
 31
0.0
  0
LINE
  5
14e
100
AcDbEntity
  8
0
 62
7
100
AcDbLine
 10
13.688087
 20
71.123645
 30
0.0
 11
14.440292
 21
71.355857
 31
0.0
  0
LINE
  5
14f
100
AcDbEntity
  8
0
 62
7
100
AcDbLine
 10
14.440292
 20
71.355857
 30
0.0
 11
15.247128
 21
71.437755
 31
0.0
  0
LINE
  5
150
100
AcDbEntity
  8
0
 62
7
100
AcDbLine
 10
15.247128
 20
71.437755
 30
0.0
 11
16.055000
 21
71.355857
 31
0.0
  0
LINE
  5
151
100
AcDbEntity
  8
0
 62
7
100
AcDbLine
 10
16.055000
 20
71.355857
 30
0.0
 11
16.807202
 21
71.123645
 31
0.0
  0
LINE
  5
152
100
AcDbEntity
  8
0
 62
7
100
AcDbLine
 10
16.807202
 20
71.123645
 30
0.0
 11
17.487461
 21
70.753556
 31
0.0
  0
LINE
  5
153
100
AcDbEntity
  8
0
 62
7
100
AcDbLine
 10
17.487461
 20
70.753556
 30
0.0
 11
18.080744
 21
70.264250
 31
0.0
  0
LINE
  5
154
100
AcDbEntity
  8
0
 62
7
100
AcDbLine
 10
18.080744
 20
70.264250
 30
0.0
 11
18.569740
 21
69.671279
 31
0.0
  0
LINE
  5
155
100
AcDbEntity
  8
0
 62
7
100
AcDbLine
 10
18.569740
 20
69.671279
 30
0.0
 11
18.939206
 21
68.991227
 31
0.0
  0
LINE
  5
156
100
AcDbEntity
  8
0
 62
7
100
AcDbLine
 10
18.939206
 20
68.991227
 30
0.0
 11
19.172040
 21
68.238623
 31
0.0
  0
LINE
  5
157
100
AcDbEntity
  8
0
 62
7
100
AcDbLine
 10
19.172040
 20
68.238623
 30
0.0
 11
19.254042
 21
67.431061
 31
0.0
  0
LINE
  5
158
100
AcDbEntity
  8
0
 62
7
100
AcDbLine
 10
19.254042
 20
67.431061
 30
0.0
 11
19.172040
 21
66.624551
 31
0.0
  0
LINE
  5
159
100
AcDbEntity
  8
0
 62
7
100
AcDbLine
 10
19.172040
 20
66.624551
 30
0.0
 11
18.939206
 21
65.871930
 31
0.0
  0
LINE
  5
15a
100
AcDbEntity
  8
0
 62
7
100
AcDbLine
 10
18.939206
 20
65.871930
 30
0.0
 11
18.569740
 21
65.191856
 31
0.0
  0
LINE
  5
15b
100
AcDbEntity
  8
0
 62
7
100
AcDbLine
 10
18.569740
 20
65.191856
 30
0.0
 11
18.080744
 21
64.598904
 31
0.0
  0
LINE
  5
15c
100
AcDbEntity
  8
0
 62
7
100
AcDbLine
 10
18.080744
 20
64.598904
 30
0.0
 11
17.487461
 21
64.109599
 31
0.0
  0
LINE
  5
15d
100
AcDbEntity
  8
0
 62
7
100
AcDbLine
 10
17.487461
 20
64.109599
 30
0.0
 11
16.807202
 21
63.740528
 31
0.0
  0
LINE
  5
15e
100
AcDbEntity
  8
0
 62
7
100
AcDbLine
 10
16.807202
 20
63.740528
 30
0.0
 11
16.055000
 21
63.506261
 31
0.0
  0
LINE
  5
15f
100
AcDbEntity
  8
0
 62
7
100
AcDbLine
 10
16.055000
 20
63.506261
 30
0.0
 11
15.247128
 21
63.425402
 31
0.0
  0
LINE
  5
160
100
AcDbEntity
  8
0
 62
7
100
AcDbLine
 10
15.247128
 20
63.425402
 30
0.0
 11
14.440292
 21
63.506261
 31
0.0
  0
LINE
  5
161
100
AcDbEntity
  8
0
 62
7
100
AcDbLine
 10
14.440292
 20
63.506261
 30
0.0
 11
14.440292
 21
63.506261
 31
0.0
  0
LINE
  5
162
100
AcDbEntity
  8
0
 62
7
100
AcDbLine
 10
13.006624
 20
37.150871
 30
0.0
 11
13.566869
 21
37.150871
 31
0.0
  0
LINE
  5
163
100
AcDbEntity
  8
0
 62
7
100
AcDbLine
 10
13.566869
 20
37.150871
 30
0.0
 11
14.127114
 21
37.150871
 31
0.0
  0
LINE
  5
164
100
AcDbEntity
  8
0
 62
7
100
AcDbLine
 10
14.127114
 20
37.150871
 30
0.0
 11
14.687360
 21
37.150871
 31
0.0
  0
LINE
  5
165
100
AcDbEntity
  8
0
 62
7
100
AcDbLine
 10
14.687360
 20
37.150871
 30
0.0
 11
15.247605
 21
37.150871
 31
0.0
  0
LINE
  5
166
100
AcDbEntity
  8
0
 62
7
100
AcDbLine
 10
15.247605
 20
37.150871
 30
0.0
 11
15.807849
 21
37.150871
 31
0.0
  0
LINE
  5
167
100
AcDbEntity
  8
0
 62
7
100
AcDbLine
 10
15.807849
 20
37.150871
 30
0.0
 11
16.368095
 21
37.150871
 31
0.0
  0
LINE
  5
168
100
AcDbEntity
  8
0
 62
7
100
AcDbLine
 10
16.368095
 20
37.150871
 30
0.0
 11
16.928340
 21
37.150871
 31
0.0
  0
LINE
  5
169
100
AcDbEntity
  8
0
 62
7
100
AcDbLine
 10
16.928340
 20
37.150871
 30
0.0
 11
17.488585
 21
37.150871
 31
0.0
  0
LINE
  5
16a
100
AcDbEntity
  8
0
 62
7
100
AcDbLine
 10
17.488585
 20
37.150871
 30
0.0
 11
18.234374
 21
37.076133
 31
0.0
  0
LINE
  5
16b
100
AcDbEntity
  8
0
 62
7
100
AcDbLine
 10
18.234374
 20
37.076133
 30
0.0
 11
18.928165
 21
36.861661
 31
0.0
  0
LINE
  5
16c
100
AcDbEntity
  8
0
 62
7
100
AcDbLine
 10
18.928165
 20
36.861661
 30
0.0
 11
19.555335
 21
36.522086
 31
0.0
  0
LINE
  5
16d
100
AcDbEntity
  8
0
 62
7
100
AcDbLine
 10
19.555335
 20
36.522086
 30
0.0
 11
20.101261
 21
36.072023
 31
0.0
  0
LINE
  5
16e
100
AcDbEntity
  8
0
 62
7
100
AcDbLine
 10
20.101261
 20
36.072023
 30
0.0
 11
20.551325
 21
35.526095
 31
0.0
  0
LINE
  5
16f
100
AcDbEntity
  8
0
 62
7
100
AcDbLine
 10
20.551325
 20
35.526095
 30
0.0
 11
20.890902
 21
34.898924
 31
0.0
  0
LINE
  5
170
100
AcDbEntity
  8
0
 62
7
100
AcDbLine
 10
20.890902
 20
34.898924
 30
0.0
 11
21.105371
 21
34.205132
 31
0.0
  0
LINE
  5
171
100
AcDbEntity
  8
0
 62
7
100
AcDbLine
 10
21.105371
 20
34.205132
 30
0.0
 11
21.180112
 21
33.459331
 31
0.0
  0
LINE
  5
172
100
AcDbEntity
  8
0
 62
7
100
AcDbLine
 10
21.180112
 20
33.459331
 30
0.0
 11
21.180112
 21
31.340153
 31
0.0
  0
LINE
  5
173
100
AcDbEntity
  8
0
 62
7
100
AcDbLine
 10
21.180112
 20
31.340153
 30
0.0
 11
21.180112
 21
29.220946
 31
0.0
  0
LINE
  5
174
100
AcDbEntity
  8
0
 62
7
100
AcDbLine
 10
21.180112
 20
29.220946
 30
0.0
 11
21.180112
 21
27.101768
 31
0.0
  0
LINE
  5
175
100
AcDbEntity
  8
0
 62
7
100
AcDbLine
 10
21.180112
 20
27.101768
 30
0.0
 11
21.180112
 21
24.982561
 31
0.0
  0
LINE
  5
176
100
AcDbEntity
  8
0
 62
7
100
AcDbLine
 10
21.180112
 20
24.982561
 30
0.0
 11
21.180112
 21
22.863354
 31
0.0
  0
LINE
  5
177
100
AcDbEntity
  8
0
 62
7
100
AcDbLine
 10
21.180112
 20
22.863354
 30
0.0
 11
21.180112
 21
20.744176
 31
0.0
  0
LINE
  5
178
100
AcDbEntity
  8
0
 62
7
100
AcDbLine
 10
21.180112
 20
20.744176
 30
0.0
 11
21.180112
 21
18.624997
 31
0.0
  0
LINE
  5
179
100
AcDbEntity
  8
0
 62
7
100
AcDbLine
 10
21.180112
 20
18.624997
 30
0.0
 11
21.180112
 21
16.505791
 31
0.0
  0
LINE
  5
17a
100
AcDbEntity
  8
0
 62
7
100
AcDbLine
 10
21.180112
 20
16.505791
 30
0.0
 11
21.105371
 21
15.759990
 31
0.0
  0
LINE
  5
17b
100
AcDbEntity
  8
0
 62
7
100
AcDbLine
 10
21.105371
 20
15.759990
 30
0.0
 11
20.890902
 21
15.066175
 31
0.0
  0
LINE
  5
17c
100
AcDbEntity
  8
0
 62
7
100
AcDbLine
 10
20.890902
 20
15.066175
 30
0.0
 11
20.551325
 21
14.438993
 31
0.0
  0
LINE
  5
17d
100
AcDbEntity
  8
0
 62
7
100
AcDbLine
 10
20.551325
 20
14.438993
 30
0.0
 11
20.101261
 21
13.893062
 31
0.0
  0
LINE
  5
17e
100
AcDbEntity
  8
0
 62
7
100
AcDbLine
 10
20.101261
 20
13.893062
 30
0.0
 11
19.555335
 21
13.443030
 31
0.0
  0
LINE
  5
17f
100
AcDbEntity
  8
0
 62
7
100
AcDbLine
 10
19.555335
 20
13.443030
 30
0.0
 11
18.928165
 21
13.103461
 31
0.0
  0
LINE
  5
180
100
AcDbEntity
  8
0
 62
7
100
AcDbLine
 10
18.928165
 20
13.103461
 30
0.0
 11
18.234374
 21
12.889000
 31
0.0
  0
LINE
  5
181
100
AcDbEntity
  8
0
 62
7
100
AcDbLine
 10
18.234374
 20
12.889000
 30
0.0
 11
17.488585
 21
12.814239
 31
0.0
  0
LINE
  5
182
100
AcDbEntity
  8
0
 62
7
100
AcDbLine
 10
17.488585
 20
12.814239
 30
0.0
 11
16.928340
 21
12.814239
 31
0.0
  0
LINE
  5
183
100
AcDbEntity
  8
0
 62
7
100
AcDbLine
 10
16.928340
 20
12.814239
 30
0.0
 11
16.368095
 21
12.814239
 31
0.0
  0
LINE
  5
184
100
AcDbEntity
  8
0
 62
7
100
AcDbLine
 10
16.368095
 20
12.814239
 30
0.0
 11
15.807849
 21
12.814239
 31
0.0
  0
LINE
  5
185
100
AcDbEntity
  8
0
 62
7
100
AcDbLine
 10
15.807849
 20
12.814239
 30
0.0
 11
15.247604
 21
12.814239
 31
0.0
  0
LINE
  5
186
100
AcDbEntity
  8
0
 62
7
100
AcDbLine
 10
15.247604
 20
12.814239
 30
0.0
 11
14.687360
 21
12.814239
 31
0.0
  0
LINE
  5
187
100
AcDbEntity
  8
0
 62
7
100
AcDbLine
 10
14.687360
 20
12.814239
 30
0.0
 11
14.127114
 21
12.814239
 31
0.0
  0
LINE
  5
188
100
AcDbEntity
  8
0
 62
7
100
AcDbLine
 10
14.127114
 20
12.814239
 30
0.0
 11
13.566869
 21
12.814239
 31
0.0
  0
LINE
  5
189
100
AcDbEntity
  8
0
 62
7
100
AcDbLine
 10
13.566869
 20
12.814239
 30
0.0
 11
13.006624
 21
12.814239
 31
0.0
  0
LINE
  5
18a
100
AcDbEntity
  8
0
 62
7
100
AcDbLine
 10
13.006624
 20
12.814239
 30
0.0
 11
12.260835
 21
12.889000
 31
0.0
  0
LINE
  5
18b
100
AcDbEntity
  8
0
 62
7
100
AcDbLine
 10
12.260835
 20
12.889000
 30
0.0
 11
11.567044
 21
13.103461
 31
0.0
  0
LINE
  5
18c
100
AcDbEntity
  8
0
 62
7
100
AcDbLine
 10
11.567044
 20
13.103461
 30
0.0
 11
10.939874
 21
13.443030
 31
0.0
  0
LINE
  5
18d
100
AcDbEntity
  8
0
 62
7
100
AcDbLine
 10
10.939874
 20
13.443030
 30
0.0
 11
10.393946
 21
13.893062
 31
0.0
  0
LINE
  5
18e
100
AcDbEntity
  8
0
 62
7
100
AcDbLine
 10
10.393946
 20
13.893062
 30
0.0
 11
9.943883
 21
14.438993
 31
0.0
  0
LINE
  5
18f
100
AcDbEntity
  8
0
 62
7
100
AcDbLine
 10
9.943883
 20
14.438993
 30
0.0
 11
9.604307
 21
15.066175
 31
0.0
  0
LINE
  5
190
100
AcDbEntity
  8
0
 62
7
100
AcDbLine
 10
9.604307
 20
15.066175
 30
0.0
 11
9.389838
 21
15.759990
 31
0.0
  0
LINE
  5
191
100
AcDbEntity
  8
0
 62
7
100
AcDbLine
 10
9.389838
 20
15.759990
 30
0.0
 11
9.315098
 21
16.505791
 31
0.0
  0
LINE
  5
192
100
AcDbEntity
  8
0
 62
7
100
AcDbLine
 10
9.315098
 20
16.505791
 30
0.0
 11
9.315098
 21
18.624997
 31
0.0
  0
LINE
  5
193
100
AcDbEntity
  8
0
 62
7
100
AcDbLine
 10
9.315098
 20
18.624997
 30
0.0
 11
9.315098
 21
20.744176
 31
0.0
  0
LINE
  5
194
100
AcDbEntity
  8
0
 62
7
100
AcDbLine
 10
9.315098
 20
20.744176
 30
0.0
 11
9.315098
 21
22.863354
 31
0.0
  0
LINE
  5
195
100
AcDbEntity
  8
0
 62
7
100
AcDbLine
 10
9.315098
 20
22.863354
 30
0.0
 11
9.315098
 21
24.982561
 31
0.0
  0
LINE
  5
196
100
AcDbEntity
  8
0
 62
7
100
AcDbLine
 10
9.315098
 20
24.982561
 30
0.0
 11
9.315098
 21
27.101768
 31
0.0
  0
LINE
  5
197
100
AcDbEntity
  8
0
 62
7
100
AcDbLine
 10
9.315098
 20
27.101768
 30
0.0
 11
9.315098
 21
29.220946
 31
0.0
  0
LINE
  5
198
100
AcDbEntity
  8
0
 62
7
100
AcDbLine
 10
9.315098
 20
29.220946
 30
0.0
 11
9.315098
 21
31.340153
 31
0.0
  0
LINE
  5
199
100
AcDbEntity
  8
0
 62
7
100
AcDbLine
 10
9.315098
 20
31.340153
 30
0.0
 11
9.315098
 21
33.459331
 31
0.0
  0
LINE
  5
19a
100
AcDbEntity
  8
0
 62
7
100
AcDbLine
 10
9.315098
 20
33.459331
 30
0.0
 11
9.389838
 21
34.205132
 31
0.0
  0
LINE
  5
19b
100
AcDbEntity
  8
0
 62
7
100
AcDbLine
 10
9.389838
 20
34.205132
 30
0.0
 11
9.604307
 21
34.898924
 31
0.0
  0
LINE
  5
19c
100
AcDbEntity
  8
0
 62
7
100
AcDbLine
 10
9.604307
 20
34.898924
 30
0.0
 11
9.943883
 21
35.526095
 31
0.0
  0
LINE
  5
19d
100
AcDbEntity
  8
0
 62
7
100
AcDbLine
 10
9.943883
 20
35.526095
 30
0.0
 11
10.393946
 21
36.072023
 31
0.0
  0
LINE
  5
19e
100
AcDbEntity
  8
0
 62
7
100
AcDbLine
 10
10.393946
 20
36.072023
 30
0.0
 11
10.939874
 21
36.522086
 31
0.0
  0
LINE
  5
19f
100
AcDbEntity
  8
0
 62
7
100
AcDbLine
 10
10.939874
 20
36.522086
 30
0.0
 11
11.567044
 21
36.861661
 31
0.0
  0
LINE
  5
1a0
100
AcDbEntity
  8
0
 62
7
100
AcDbLine
 10
11.567044
 20
36.861661
 30
0.0
 11
12.260835
 21
37.076133
 31
0.0
  0
LINE
  5
1a1
100
AcDbEntity
  8
0
 62
7
100
AcDbLine
 10
12.260835
 20
37.076133
 30
0.0
 11
13.006624
 21
37.150871
 31
0.0
  0
LINE
  5
1a2
100
AcDbEntity
  8
0
 62
7
100
AcDbLine
 10
13.006624
 20
37.150871
 30
0.0
 11
13.006624
 21
37.150871
 31
0.0
  0
LINE
  5
1a3
100
AcDbEntity
  8
Layer_1
 62
7
100
AcDbLine
 10
0.180016
 20
0.180021
 30
0.0
 11
37.039955
 21
0.180021
 31
0.0
  0
LINE
  5
1a4
100
AcDbEntity
  8
Layer_1
 62
7
100
AcDbLine
 10
37.039955
 20
0.180021
 30
0.0
 11
37.039955
 21
223.706623
 31
0.0
  0
LINE
  5
1a5
100
AcDbEntity
  8
Layer_1
 62
7
100
AcDbLine
 10
37.039955
 20
223.706623
 30
0.0
 11
0.180016
 21
223.706623
 31
0.0
  0
LINE
  5
1a6
100
AcDbEntity
  8
Layer_1
 62
7
100
AcDbLine
 10
0.180016
 20
223.706623
 30
0.0
 11
0.180016
 21
0.180021
 31
0.0
  0
LINE
  5
1a7
100
AcDbEntity
  8
Layer_1
 62
7
100
AcDbLine
 10
0.180016
 20
0.180021
 30
0.0
 11
0.180016
 21
0.180021
 31
0.0
  0
LINE
  5
1a8
100
AcDbEntity
  8
Layer_1
 62
7
100
AcDbLine
 10
0.180016
 20
0.180021
 30
0.0
 11
0.180016
 21
0.180021
 31
0.0
  0
LINE
  5
1a9
100
AcDbEntity
  8
Layer_1
 62
7
100
AcDbLine
 10
0.180016
 20
0.180021
 30
0.0
 11
0.180016
 21
0.180021
 31
0.0
  0
LINE
  5
1aa
100
AcDbEntity
  8
Layer_1
 62
7
100
AcDbLine
 10
0.180016
 20
0.180021
 30
0.0
 11
0.180016
 21
0.180021
 31
0.0
  0
LINE
  5
1ab
100
AcDbEntity
  8
Layer_1
 62
7
100
AcDbLine
 10
0.180016
 20
0.180021
 30
0.0
 11
0.180016
 21
0.180021
 31
0.0
  0
LINE
  5
1ac
100
AcDbEntity
  8
Layer_1
 62
7
100
AcDbLine
 10
0.180016
 20
0.180021
 30
0.0
 11
0.180016
 21
0.180021
 31
0.0
  0
LINE
  5
1ad
100
AcDbEntity
  8
Layer_1
 62
7
100
AcDbLine
 10
0.180016
 20
0.180021
 30
0.0
 11
0.180016
 21
0.180021
 31
0.0
  0
LINE
  5
1ae
100
AcDbEntity
  8
Layer_1
 62
7
100
AcDbLine
 10
1.471968
 20
2.764213
 30
0.0
 11
35.748006
 21
2.764213
 31
0.0
  0
LINE
  5
1af
100
AcDbEntity
  8
Layer_1
 62
7
100
AcDbLine
 10
35.748006
 20
2.764213
 30
0.0
 11
35.748006
 21
221.271330
 31
0.0
  0
LINE
  5
1b0
100
AcDbEntity
  8
Layer_1
 62
7
100
AcDbLine
 10
35.748006
 20
221.271330
 30
0.0
 11
1.471968
 21
221.271330
 31
0.0
  0
LINE
  5
1b1
100
AcDbEntity
  8
Layer_1
 62
7
100
AcDbLine
 10
1.471968
 20
221.271330
 30
0.0
 11
1.471968
 21
2.764213
 31
0.0
  0
LINE
  5
1b2
100
AcDbEntity
  8
Layer_1
 62
7
100
AcDbLine
 10
1.471968
 20
2.764213
 30
0.0
 11
1.471968
 21
2.764213
 31
0.0
  0
LINE
  5
1b3
100
AcDbEntity
  8
Layer_1
 62
7
100
AcDbLine
 10
1.471968
 20
2.764213
 30
0.0
 11
1.471968
 21
2.764213
 31
0.0
  0
LINE
  5
1b4
100
AcDbEntity
  8
Layer_1
 62
7
100
AcDbLine
 10
1.471968
 20
2.764213
 30
0.0
 11
1.471968
 21
2.764213
 31
0.0
  0
LINE
  5
1b5
100
AcDbEntity
  8
Layer_1
 62
7
100
AcDbLine
 10
1.471968
 20
2.764213
 30
0.0
 11
1.471968
 21
2.764213
 31
0.0
  0
LINE
  5
1b6
100
AcDbEntity
  8
Layer_1
 62
7
100
AcDbLine
 10
1.471968
 20
2.764213
 30
0.0
 11
1.471968
 21
2.764213
 31
0.0
  0
LINE
  5
1b7
100
AcDbEntity
  8
Layer_1
 62
7
100
AcDbLine
 10
1.471968
 20
2.764213
 30
0.0
 11
1.471968
 21
2.764213
 31
0.0
  0
LINE
  5
1b8
100
AcDbEntity
  8
Layer_1
 62
7
100
AcDbLine
 10
1.471968
 20
2.764213
 30
0.0
 11
1.471968
 21
2.764213
 31
0.0
  0
ENDSEC
  0
SECTION
  2
OBJECTS
  0
DICTIONARY
  5
C
330
0
100
AcDbDictionary
  3
ACAD_GROUP
350
D
  3
ACAD_MLINESTYLE
350
17
  0
DICTIONARY
  5
D
330
C
100
AcDbDictionary
  0
DICTIONARY
  5
1A
330
C
100
AcDbDictionary
  0
DICTIONARY
  5
17
330
C
100
AcDbDictionary
  3
STANDARD
350
18
  0
DICTIONARY
  5
19
330
C
100
AcDbDictionary
  0
ENDSEC
  0
EOF
