  0
SECTION
  2
BLOCKS
  0
ENDSEC
  0
SECTION
  2
ENTITIES
  0
LINE
  8
0
 10
-6
 20
-75
 11
-1
 21
-75
  0
LINE
  8
0
 10
-1
 20
-75
 11
-1
 21
-78
  0
LINE
  8
0
 10
-1
 20
-78
 11
0.999985
 21
-78
  0
LINE
  8
0
 10
0.999985
 20
-78
 11
0.999985
 21
-75
  0
LINE
  8
0
 10
0.999985
 20
-75
 11
5.99998
 21
-75
  0
LINE
  8
0
 10
5.99998
 20
-75
 11
5.99998
 21
-78
  0
LINE
  8
0
 10
5.99998
 20
-78
 11
14
 21
-78
  0
LINE
  8
0
 10
14
 20
-78
 11
14
 21
-65
  0
LINE
  8
0
 10
14
 20
-65
 11
11
 21
-65
  0
LINE
  8
0
 10
11
 20
-65
 11
11
 21
-60
  0
LINE
  8
0
 10
11
 20
-60
 11
14
 21
-60
  0
LINE
  8
0
 10
14
 20
-60
 11
14
 21
-23.3333
  0
LINE
  8
0
 10
14
 20
-23.3333
 11
11
 21
-23.3333
  0
LINE
  8
0
 10
11
 20
-23.3333
 11
11
 21
-18.3333
  0
LINE
  8
0
 10
11
 20
-18.3333
 11
14
 21
-18.3333
  0
LINE
  8
0
 10
14
 20
-18.3333
 11
14
 21
18.3333
  0
LINE
  8
0
 10
14
 20
18.3333
 11
11
 21
18.3333
  0
LINE
  8
0
 10
11
 20
18.3333
 11
11
 21
23.3333
  0
LINE
  8
0
 10
11
 20
23.3333
 11
14
 21
23.3333
  0
LINE
  8
0
 10
14
 20
23.3333
 11
14
 21
60
  0
LINE
  8
0
 10
14
 20
60
 11
11
 21
60
  0
LINE
  8
0
 10
11
 20
60
 11
11
 21
65
  0
LINE
  8
0
 10
11
 20
65
 11
14
 21
65
  0
LINE
  8
0
 10
14
 20
65
 11
14
 21
78
  0
LINE
  8
0
 10
14
 20
78
 11
6
 21
78
  0
LINE
  8
0
 10
6
 20
78
 11
6
 21
75
  0
LINE
  8
0
 10
6
 20
75
 11
1
 21
75
  0
LINE
  8
0
 10
1
 20
75
 11
1
 21
78
  0
LINE
  8
0
 10
1
 20
78
 11
-0.999985
 21
78
  0
LINE
  8
0
 10
-0.999985
 20
78
 11
-0.999985
 21
75
  0
LINE
  8
0
 10
-0.999985
 20
75
 11
-5.99998
 21
75
  0
LINE
  8
0
 10
-5.99998
 20
75
 11
-5.99998
 21
78
  0
LINE
  8
0
 10
-5.99998
 20
78
 11
-14
 21
78
  0
LINE
  8
0
 10
-14
 20
78
 11
-14
 21
65
  0
LINE
  8
0
 10
-14
 20
65
 11
-11
 21
65
  0
LINE
  8
0
 10
-11
 20
65
 11
-11
 21
60
  0
LINE
  8
0
 10
-11
 20
60
 11
-14
 21
60
  0
LINE
  8
0
 10
-14
 20
60
 11
-14
 21
23.3333
  0
LINE
  8
0
 10
-14
 20
23.3333
 11
-11
 21
23.3333
  0
LINE
  8
0
 10
-11
 20
23.3333
 11
-11
 21
18.3333
  0
LINE
  8
0
 10
-11
 20
18.3333
 11
-14
 21
18.3333
  0
LINE
  8
0
 10
-14
 20
18.3333
 11
-14
 21
-18.3333
  0
LINE
  8
0
 10
-14
 20
-18.3333
 11
-11
 21
-18.3333
  0
LINE
  8
0
 10
-11
 20
-18.3333
 11
-11
 21
-23.3333
  0
LINE
  8
0
 10
-11
 20
-23.3333
 11
-14
 21
-23.3333
  0
LINE
  8
0
 10
-14
 20
-23.3333
 11
-14
 21
-60
  0
LINE
  8
0
 10
-14
 20
-60
 11
-11
 21
-60
  0
LINE
  8
0
 10
-11
 20
-60
 11
-11
 21
-65
  0
LINE
  8
0
 10
-11
 20
-65
 11
-14
 21
-65
  0
LINE
  8
0
 10
-14
 20
-65
 11
-14
 21
-78
  0
LINE
  8
0
 10
-14
 20
-78
 11
-6
 21
-78
  0
LINE
  8
0
 10
-6
 20
-78
 11
-6
 21
-75
  0
LINE
  8
0
 10
-8.25586
 20
-19.2959
 11
-8.25586
 21
-16.9941
  0
LINE
  8
0
 10
-8.25586
 20
-16.9941
 11
8.63768
 21
-16.9941
  0
LINE
  8
0
 10
8.63768
 20
-16.9941
 11
8.63768
 21
-19.2959
  0
LINE
  8
0
 10
8.63768
 20
-19.2959
 11
-8.25586
 21
-19.2959
  0
LINE
  8
0
 10
-8.25586
 20
-32.0264
 11
-8.25586
 21
-29.7236
  0
LINE
  8
0
 10
-8.25586
 20
-29.7236
 11
8.63768
 21
-29.7236
  0
LINE
  8
0
 10
8.63768
 20
-29.7236
 11
8.63768
 21
-32.0264
  0
LINE
  8
0
 10
8.63768
 20
-32.0264
 11
-8.25586
 21
-32.0264
  0
LINE
  8
0
 10
-8.25586
 20
-48.583
 11
-8.25586
 21
-46.2812
  0
LINE
  8
0
 10
-8.25586
 20
-46.2812
 11
8.63768
 21
-46.2812
  0
LINE
  8
0
 10
8.63768
 20
-46.2812
 11
8.63768
 21
-48.583
  0
LINE
  8
0
 10
8.63768
 20
-48.583
 11
-8.25586
 21
-48.583
  0
LINE
  8
0
 10
-6
 20
-236
 11
-1
 21
-236
  0
LINE
  8
0
 10
-1
 20
-236
 11
-1
 21
-239
  0
LINE
  8
0
 10
-1
 20
-239
 11
0.999985
 21
-239
  0
LINE
  8
0
 10
0.999985
 20
-239
 11
0.999985
 21
-236
  0
LINE
  8
0
 10
0.999985
 20
-236
 11
5.99998
 21
-236
  0
LINE
  8
0
 10
5.99998
 20
-236
 11
5.99998
 21
-239
  0
LINE
  8
0
 10
5.99998
 20
-239
 11
14
 21
-239
  0
LINE
  8
0
 10
14
 20
-239
 11
14
 21
-226
  0
LINE
  8
0
 10
14
 20
-226
 11
11
 21
-226
  0
LINE
  8
0
 10
11
 20
-226
 11
11
 21
-221
  0
LINE
  8
0
 10
11
 20
-221
 11
14
 21
-221
  0
LINE
  8
0
 10
14
 20
-221
 11
14
 21
-184.333
  0
LINE
  8
0
 10
14
 20
-184.333
 11
11
 21
-184.333
  0
LINE
  8
0
 10
11
 20
-184.333
 11
11
 21
-179.333
  0
LINE
  8
0
 10
11
 20
-179.333
 11
14
 21
-179.333
  0
LINE
  8
0
 10
14
 20
-179.333
 11
14
 21
-142.667
  0
LINE
  8
0
 10
14
 20
-142.667
 11
11
 21
-142.667
  0
LINE
  8
0
 10
11
 20
-142.667
 11
11
 21
-137.667
  0
LINE
  8
0
 10
11
 20
-137.667
 11
14
 21
-137.667
  0
LINE
  8
0
 10
14
 20
-137.667
 11
14
 21
-101
  0
LINE
  8
0
 10
14
 20
-101
 11
11
 21
-101
  0
LINE
  8
0
 10
11
 20
-101
 11
11
 21
-96
  0
LINE
  8
0
 10
11
 20
-96
 11
14
 21
-96
  0
LINE
  8
0
 10
14
 20
-96
 11
14
 21
-83
  0
LINE
  8
0
 10
14
 20
-83
 11
6
 21
-83
  0
LINE
  8
0
 10
6
 20
-83
 11
6
 21
-86
  0
LINE
  8
0
 10
6
 20
-86
 11
1
 21
-86
  0
LINE
  8
0
 10
1
 20
-86
 11
1
 21
-83
  0
LINE
  8
0
 10
1
 20
-83
 11
-0.999985
 21
-83
  0
LINE
  8
0
 10
-0.999985
 20
-83
 11
-0.999985
 21
-86
  0
LINE
  8
0
 10
-0.999985
 20
-86
 11
-5.99998
 21
-86
  0
LINE
  8
0
 10
-5.99998
 20
-86
 11
-5.99998
 21
-83
  0
LINE
  8
0
 10
-5.99998
 20
-83
 11
-14
 21
-83
  0
LINE
  8
0
 10
-14
 20
-83
 11
-14
 21
-96
  0
LINE
  8
0
 10
-14
 20
-96
 11
-11
 21
-96
  0
LINE
  8
0
 10
-11
 20
-96
 11
-11
 21
-101
  0
LINE
  8
0
 10
-11
 20
-101
 11
-14
 21
-101
  0
LINE
  8
0
 10
-14
 20
-101
 11
-14
 21
-137.667
  0
LINE
  8
0
 10
-14
 20
-137.667
 11
-11
 21
-137.667
  0
LINE
  8
0
 10
-11
 20
-137.667
 11
-11
 21
-142.667
  0
LINE
  8
0
 10
-11
 20
-142.667
 11
-14
 21
-142.667
  0
LINE
  8
0
 10
-14
 20
-142.667
 11
-14
 21
-179.333
  0
LINE
  8
0
 10
-14
 20
-179.333
 11
-11
 21
-179.333
  0
LINE
  8
0
 10
-11
 20
-179.333
 11
-11
 21
-184.333
  0
LINE
  8
0
 10
-11
 20
-184.333
 11
-14
 21
-184.333
  0
LINE
  8
0
 10
-14
 20
-184.333
 11
-14
 21
-221
  0
LINE
  8
0
 10
-14
 20
-221
 11
-11
 21
-221
  0
LINE
  8
0
 10
-11
 20
-221
 11
-11
 21
-226
  0
LINE
  8
0
 10
-11
 20
-226
 11
-14
 21
-226
  0
LINE
  8
0
 10
-14
 20
-226
 11
-14
 21
-239
  0
LINE
  8
0
 10
-14
 20
-239
 11
-6
 21
-239
  0
LINE
  8
0
 10
-6
 20
-239
 11
-6
 21
-236
  0
LINE
  8
0
 10
-8.6377
 20
-180.296
 11
-8.6377
 21
-177.994
  0
LINE
  8
0
 10
-8.6377
 20
-177.994
 11
8.25584
 21
-177.994
  0
LINE
  8
0
 10
8.25584
 20
-177.994
 11
8.25584
 21
-180.296
  0
LINE
  8
0
 10
8.25584
 20
-180.296
 11
-8.6377
 21
-180.296
  0
LINE
  8
0
 10
-8.6377
 20
-193.026
 11
-8.6377
 21
-190.724
  0
LINE
  8
0
 10
-8.6377
 20
-190.724
 11
8.25584
 21
-190.724
  0
LINE
  8
0
 10
8.25584
 20
-190.724
 11
8.25584
 21
-193.026
  0
LINE
  8
0
 10
8.25584
 20
-193.026
 11
-8.6377
 21
-193.026
  0
LINE
  8
0
 10
-8.6377
 20
-209.583
 11
-8.6377
 21
-207.281
  0
LINE
  8
0
 10
-8.6377
 20
-207.281
 11
8.25584
 21
-207.281
  0
LINE
  8
0
 10
8.25584
 20
-207.281
 11
8.25584
 21
-209.583
  0
LINE
  8
0
 10
8.25584
 20
-209.583
 11
-8.6377
 21
-209.583
  0
LINE
  8
0
 10
-1
 20
-445
 11
1
 21
-445
  0
LINE
  8
0
 10
1
 20
-445
 11
1
 21
-448
  0
LINE
  8
0
 10
1
 20
-448
 11
6
 21
-448
  0
LINE
  8
0
 10
6
 20
-448
 11
6
 21
-445
  0
LINE
  8
0
 10
6
 20
-445
 11
14
 21
-445
  0
LINE
  8
0
 10
14
 20
-445
 11
14
 21
-435
  0
LINE
  8
0
 10
14
 20
-435
 11
11
 21
-435
  0
LINE
  8
0
 10
11
 20
-435
 11
11
 21
-430
  0
LINE
  8
0
 10
11
 20
-430
 11
14
 21
-430
  0
LINE
  8
0
 10
14
 20
-430
 11
14
 21
-377.333
  0
LINE
  8
0
 10
14
 20
-377.333
 11
11
 21
-377.333
  0
LINE
  8
0
 10
11
 20
-377.333
 11
11
 21
-372.333
  0
LINE
  8
0
 10
11
 20
-372.333
 11
14
 21
-372.333
  0
LINE
  8
0
 10
14
 20
-372.333
 11
14
 21
-319.667
  0
LINE
  8
0
 10
14
 20
-319.667
 11
11
 21
-319.667
  0
LINE
  8
0
 10
11
 20
-319.667
 11
11
 21
-314.667
  0
LINE
  8
0
 10
11
 20
-314.667
 11
14
 21
-314.667
  0
LINE
  8
0
 10
14
 20
-314.667
 11
14
 21
-262
  0
LINE
  8
0
 10
14
 20
-262
 11
11
 21
-262
  0
LINE
  8
0
 10
11
 20
-262
 11
11
 21
-257
  0
LINE
  8
0
 10
11
 20
-257
 11
14
 21
-257
  0
LINE
  8
0
 10
14
 20
-257
 11
14
 21
-247
  0
LINE
  8
0
 10
14
 20
-247
 11
6
 21
-247
  0
LINE
  8
0
 10
6
 20
-247
 11
6
 21
-244
  0
LINE
  8
0
 10
6
 20
-244
 11
1
 21
-244
  0
LINE
  8
0
 10
1
 20
-244
 11
1
 21
-247
  0
LINE
  8
0
 10
1
 20
-247
 11
-1
 21
-247
  0
LINE
  8
0
 10
-1
 20
-247
 11
-1
 21
-244
  0
LINE
  8
0
 10
-1
 20
-244
 11
-6
 21
-244
  0
LINE
  8
0
 10
-6
 20
-244
 11
-6
 21
-247
  0
LINE
  8
0
 10
-6
 20
-247
 11
-14
 21
-247
  0
LINE
  8
0
 10
-14
 20
-247
 11
-14
 21
-257
  0
LINE
  8
0
 10
-14
 20
-257
 11
-11
 21
-257
  0
LINE
  8
0
 10
-11
 20
-257
 11
-11
 21
-262
  0
LINE
  8
0
 10
-11
 20
-262
 11
-14
 21
-262
  0
LINE
  8
0
 10
-14
 20
-262
 11
-14
 21
-314.667
  0
LINE
  8
0
 10
-14
 20
-314.667
 11
-11
 21
-314.667
  0
LINE
  8
0
 10
-11
 20
-314.667
 11
-11
 21
-319.667
  0
LINE
  8
0
 10
-11
 20
-319.667
 11
-14
 21
-319.667
  0
LINE
  8
0
 10
-14
 20
-319.667
 11
-14
 21
-372.333
  0
LINE
  8
0
 10
-14
 20
-372.333
 11
-11
 21
-372.333
  0
LINE
  8
0
 10
-11
 20
-372.333
 11
-11
 21
-377.333
  0
LINE
  8
0
 10
-11
 20
-377.333
 11
-14
 21
-377.333
  0
LINE
  8
0
 10
-14
 20
-377.333
 11
-14
 21
-430
  0
LINE
  8
0
 10
-14
 20
-430
 11
-11
 21
-430
  0
LINE
  8
0
 10
-11
 20
-430
 11
-11
 21
-435
  0
LINE
  8
0
 10
-11
 20
-435
 11
-14
 21
-435
  0
LINE
  8
0
 10
-14
 20
-435
 11
-14
 21
-445
  0
LINE
  8
0
 10
-14
 20
-445
 11
-6
 21
-445
  0
LINE
  8
0
 10
-6
 20
-445
 11
-6
 21
-448
  0
LINE
  8
0
 10
-6
 20
-448
 11
-1
 21
-448
  0
LINE
  8
0
 10
-1
 20
-448
 11
-1
 21
-445
  0
LINE
  8
0
 10
-1
 20
-654
 11
1
 21
-654
  0
LINE
  8
0
 10
1
 20
-654
 11
1
 21
-657
  0
LINE
  8
0
 10
1
 20
-657
 11
6
 21
-657
  0
LINE
  8
0
 10
6
 20
-657
 11
6
 21
-654
  0
LINE
  8
0
 10
6
 20
-654
 11
14
 21
-654
  0
LINE
  8
0
 10
14
 20
-654
 11
14
 21
-644
  0
LINE
  8
0
 10
14
 20
-644
 11
11
 21
-644
  0
LINE
  8
0
 10
11
 20
-644
 11
11
 21
-639
  0
LINE
  8
0
 10
11
 20
-639
 11
14
 21
-639
  0
LINE
  8
0
 10
14
 20
-639
 11
14
 21
-586.333
  0
LINE
  8
0
 10
14
 20
-586.333
 11
11
 21
-586.333
  0
LINE
  8
0
 10
11
 20
-586.333
 11
11
 21
-581.333
  0
LINE
  8
0
 10
11
 20
-581.333
 11
14
 21
-581.333
  0
LINE
  8
0
 10
14
 20
-581.333
 11
14
 21
-528.667
  0
LINE
  8
0
 10
14
 20
-528.667
 11
11
 21
-528.667
  0
LINE
  8
0
 10
11
 20
-528.667
 11
11
 21
-523.667
  0
LINE
  8
0
 10
11
 20
-523.667
 11
14
 21
-523.667
  0
LINE
  8
0
 10
14
 20
-523.667
 11
14
 21
-471
  0
LINE
  8
0
 10
14
 20
-471
 11
11
 21
-471
  0
LINE
  8
0
 10
11
 20
-471
 11
11
 21
-466
  0
LINE
  8
0
 10
11
 20
-466
 11
14
 21
-466
  0
LINE
  8
0
 10
14
 20
-466
 11
14
 21
-456
  0
LINE
  8
0
 10
14
 20
-456
 11
6
 21
-456
  0
LINE
  8
0
 10
6
 20
-456
 11
6
 21
-453
  0
LINE
  8
0
 10
6
 20
-453
 11
1
 21
-453
  0
LINE
  8
0
 10
1
 20
-453
 11
1
 21
-456
  0
LINE
  8
0
 10
1
 20
-456
 11
-1
 21
-456
  0
LINE
  8
0
 10
-1
 20
-456
 11
-1
 21
-453
  0
LINE
  8
0
 10
-1
 20
-453
 11
-6
 21
-453
  0
LINE
  8
0
 10
-6
 20
-453
 11
-6
 21
-456
  0
LINE
  8
0
 10
-6
 20
-456
 11
-14
 21
-456
  0
LINE
  8
0
 10
-14
 20
-456
 11
-14
 21
-466
  0
LINE
  8
0
 10
-14
 20
-466
 11
-11
 21
-466
  0
LINE
  8
0
 10
-11
 20
-466
 11
-11
 21
-471
  0
LINE
  8
0
 10
-11
 20
-471
 11
-14
 21
-471
  0
LINE
  8
0
 10
-14
 20
-471
 11
-14
 21
-523.667
  0
LINE
  8
0
 10
-14
 20
-523.667
 11
-11
 21
-523.667
  0
LINE
  8
0
 10
-11
 20
-523.667
 11
-11
 21
-528.667
  0
LINE
  8
0
 10
-11
 20
-528.667
 11
-14
 21
-528.667
  0
LINE
  8
0
 10
-14
 20
-528.667
 11
-14
 21
-581.333
  0
LINE
  8
0
 10
-14
 20
-581.333
 11
-11
 21
-581.333
  0
LINE
  8
0
 10
-11
 20
-581.333
 11
-11
 21
-586.333
  0
LINE
  8
0
 10
-11
 20
-586.333
 11
-14
 21
-586.333
  0
LINE
  8
0
 10
-14
 20
-586.333
 11
-14
 21
-639
  0
LINE
  8
0
 10
-14
 20
-639
 11
-11
 21
-639
  0
LINE
  8
0
 10
-11
 20
-639
 11
-11
 21
-644
  0
LINE
  8
0
 10
-11
 20
-644
 11
-14
 21
-644
  0
LINE
  8
0
 10
-14
 20
-644
 11
-14
 21
-654
  0
LINE
  8
0
 10
-14
 20
-654
 11
-6
 21
-654
  0
LINE
  8
0
 10
-6
 20
-654
 11
-6
 21
-657
  0
LINE
  8
0
 10
-6
 20
-657
 11
-1
 21
-657
  0
LINE
  8
0
 10
-1
 20
-657
 11
-1
 21
-654
  0
LINE
  8
0
 10
-0.697266
 20
-480.499
 11
-1.69629
 21
-480.188
  0
LINE
  8
0
 10
-1.69629
 20
-480.188
 11
-2.60059
 21
-479.697
  0
LINE
  8
0
 10
-2.60059
 20
-479.697
 11
-3.38867
 21
-479.048
  0
LINE
  8
0
 10
-3.38867
 20
-479.048
 11
-4.03809
 21
-478.26
  0
LINE
  8
0
 10
-4.03809
 20
-478.26
 11
-4.5293
 21
-477.356
  0
LINE
  8
0
 10
-4.5293
 20
-477.356
 11
-4.83984
 21
-476.356
  0
LINE
  8
0
 10
-4.83984
 20
-476.356
 11
-4.94727
 21
-475.285
  0
LINE
  8
0
 10
-4.94727
 20
-475.285
 11
-4.83984
 21
-474.212
  0
LINE
  8
0
 10
-4.83984
 20
-474.212
 11
-4.5293
 21
-473.213
  0
LINE
  8
0
 10
-4.5293
 20
-473.213
 11
-4.03809
 21
-472.309
  0
LINE
  8
0
 10
-4.03809
 20
-472.309
 11
-3.38867
 21
-471.521
  0
LINE
  8
0
 10
-3.38867
 20
-471.521
 11
-2.60059
 21
-470.871
  0
LINE
  8
0
 10
-2.60059
 20
-470.871
 11
-1.69629
 21
-470.38
  0
LINE
  8
0
 10
-1.69629
 20
-470.38
 11
-0.697266
 21
-470.071
  0
LINE
  8
0
 10
-0.697266
 20
-470.071
 11
0.374023
 21
-469.962
  0
LINE
  8
0
 10
0.374023
 20
-469.962
 11
1.44727
 21
-470.071
  0
LINE
  8
0
 10
1.44727
 20
-470.071
 11
2.44727
 21
-470.38
  0
LINE
  8
0
 10
2.44727
 20
-470.38
 11
3.35059
 21
-470.871
  0
LINE
  8
0
 10
3.35059
 20
-470.871
 11
4.13867
 21
-471.521
  0
LINE
  8
0
 10
4.13867
 20
-471.521
 11
4.78809
 21
-472.309
  0
LINE
  8
0
 10
4.78809
 20
-472.309
 11
5.2793
 21
-473.213
  0
LINE
  8
0
 10
5.2793
 20
-473.213
 11
5.58887
 21
-474.212
  0
LINE
  8
0
 10
5.58887
 20
-474.212
 11
5.69727
 21
-475.285
  0
LINE
  8
0
 10
5.69727
 20
-475.285
 11
5.58887
 21
-476.356
  0
LINE
  8
0
 10
5.58887
 20
-476.356
 11
5.2793
 21
-477.356
  0
LINE
  8
0
 10
5.2793
 20
-477.356
 11
4.78809
 21
-478.26
  0
LINE
  8
0
 10
4.78809
 20
-478.26
 11
4.13867
 21
-479.048
  0
LINE
  8
0
 10
4.13867
 20
-479.048
 11
3.35059
 21
-479.697
  0
LINE
  8
0
 10
3.35059
 20
-479.697
 11
2.44727
 21
-480.188
  0
LINE
  8
0
 10
2.44727
 20
-480.188
 11
1.44727
 21
-480.499
  0
LINE
  8
0
 10
1.44727
 20
-480.499
 11
0.374023
 21
-480.606
  0
LINE
  8
0
 10
0.374023
 20
-480.606
 11
-0.697266
 21
-480.499
  0
LINE
  8
0
 10
-0.737305
 20
-600.081
 11
-1.33301
 21
-599.896
  0
LINE
  8
0
 10
-1.33301
 20
-599.896
 11
-1.87207
 21
-599.604
  0
LINE
  8
0
 10
-1.87207
 20
-599.604
 11
-2.3418
 21
-599.216
  0
LINE
  8
0
 10
-2.3418
 20
-599.216
 11
-2.72852
 21
-598.747
  0
LINE
  8
0
 10
-2.72852
 20
-598.747
 11
-3.02051
 21
-598.208
  0
LINE
  8
0
 10
-3.02051
 20
-598.208
 11
-3.20605
 21
-597.612
  0
LINE
  8
0
 10
-3.20605
 20
-597.612
 11
-3.27051
 21
-596.975
  0
LINE
  8
0
 10
-3.27051
 20
-596.975
 11
-3.20605
 21
-596.335
  0
LINE
  8
0
 10
-3.20605
 20
-596.335
 11
-3.02051
 21
-595.739
  0
LINE
  8
0
 10
-3.02051
 20
-595.739
 11
-2.72852
 21
-595.201
  0
LINE
  8
0
 10
-2.72852
 20
-595.201
 11
-2.3418
 21
-594.731
  0
LINE
  8
0
 10
-2.3418
 20
-594.731
 11
-1.87207
 21
-594.344
  0
LINE
  8
0
 10
-1.87207
 20
-594.344
 11
-1.33301
 21
-594.051
  0
LINE
  8
0
 10
-1.33301
 20
-594.051
 11
-0.737305
 21
-593.867
  0
LINE
  8
0
 10
-0.737305
 20
-593.867
 11
-0.0986328
 21
-593.803
  0
LINE
  8
0
 10
-0.0986328
 20
-593.803
 11
0.540039
 21
-593.867
  0
LINE
  8
0
 10
0.540039
 20
-593.867
 11
1.13574
 21
-594.051
  0
LINE
  8
0
 10
1.13574
 20
-594.051
 11
1.6748
 21
-594.344
  0
LINE
  8
0
 10
1.6748
 20
-594.344
 11
2.14453
 21
-594.731
  0
LINE
  8
0
 10
2.14453
 20
-594.731
 11
2.53125
 21
-595.201
  0
LINE
  8
0
 10
2.53125
 20
-595.201
 11
2.82324
 21
-595.739
  0
LINE
  8
0
 10
2.82324
 20
-595.739
 11
3.00781
 21
-596.335
  0
LINE
  8
0
 10
3.00781
 20
-596.335
 11
3.07324
 21
-596.975
  0
LINE
  8
0
 10
3.07324
 20
-596.975
 11
3.00781
 21
-597.612
  0
LINE
  8
0
 10
3.00781
 20
-597.612
 11
2.82324
 21
-598.208
  0
LINE
  8
0
 10
2.82324
 20
-598.208
 11
2.53125
 21
-598.747
  0
LINE
  8
0
 10
2.53125
 20
-598.747
 11
2.14453
 21
-599.216
  0
LINE
  8
0
 10
2.14453
 20
-599.216
 11
1.6748
 21
-599.604
  0
LINE
  8
0
 10
1.6748
 20
-599.604
 11
1.13574
 21
-599.896
  0
LINE
  8
0
 10
1.13574
 20
-599.896
 11
0.540039
 21
-600.081
  0
LINE
  8
0
 10
0.540039
 20
-600.081
 11
-0.0986328
 21
-600.146
  0
LINE
  8
0
 10
-0.0986328
 20
-600.146
 11
-0.737305
 21
-600.081
  0
LINE
  8
0
 10
-0.737305
 20
-613.609
 11
-1.33301
 21
-613.424
  0
LINE
  8
0
 10
-1.33301
 20
-613.424
 11
-1.87207
 21
-613.132
  0
LINE
  8
0
 10
-1.87207
 20
-613.132
 11
-2.3418
 21
-612.745
  0
LINE
  8
0
 10
-2.3418
 20
-612.745
 11
-2.72852
 21
-612.275
  0
LINE
  8
0
 10
-2.72852
 20
-612.275
 11
-3.02051
 21
-611.737
  0
LINE
  8
0
 10
-3.02051
 20
-611.737
 11
-3.20605
 21
-611.142
  0
LINE
  8
0
 10
-3.20605
 20
-611.142
 11
-3.27051
 21
-610.503
  0
LINE
  8
0
 10
-3.27051
 20
-610.503
 11
-3.20605
 21
-609.863
  0
LINE
  8
0
 10
-3.20605
 20
-609.863
 11
-3.02051
 21
-609.268
  0
LINE
  8
0
 10
-3.02051
 20
-609.268
 11
-2.72852
 21
-608.729
  0
LINE
  8
0
 10
-2.72852
 20
-608.729
 11
-2.3418
 21
-608.26
  0
LINE
  8
0
 10
-2.3418
 20
-608.26
 11
-1.87207
 21
-607.873
  0
LINE
  8
0
 10
-1.87207
 20
-607.873
 11
-1.33301
 21
-607.58
  0
LINE
  8
0
 10
-1.33301
 20
-607.58
 11
-0.737305
 21
-607.396
  0
LINE
  8
0
 10
-0.737305
 20
-607.396
 11
-0.0986328
 21
-607.331
  0
LINE
  8
0
 10
-0.0986328
 20
-607.331
 11
0.540039
 21
-607.396
  0
LINE
  8
0
 10
0.540039
 20
-607.396
 11
1.13574
 21
-607.58
  0
LINE
  8
0
 10
1.13574
 20
-607.58
 11
1.6748
 21
-607.873
  0
LINE
  8
0
 10
1.6748
 20
-607.873
 11
2.14453
 21
-608.26
  0
LINE
  8
0
 10
2.14453
 20
-608.26
 11
2.53125
 21
-608.729
  0
LINE
  8
0
 10
2.53125
 20
-608.729
 11
2.82324
 21
-609.268
  0
LINE
  8
0
 10
2.82324
 20
-609.268
 11
3.00781
 21
-609.863
  0
LINE
  8
0
 10
3.00781
 20
-609.863
 11
3.07324
 21
-610.503
  0
LINE
  8
0
 10
3.07324
 20
-610.503
 11
3.00781
 21
-611.142
  0
LINE
  8
0
 10
3.00781
 20
-611.142
 11
2.82324
 21
-611.737
  0
LINE
  8
0
 10
2.82324
 20
-611.737
 11
2.53125
 21
-612.275
  0
LINE
  8
0
 10
2.53125
 20
-612.275
 11
2.14453
 21
-612.745
  0
LINE
  8
0
 10
2.14453
 20
-612.745
 11
1.6748
 21
-613.132
  0
LINE
  8
0
 10
1.6748
 20
-613.132
 11
1.13574
 21
-613.424
  0
LINE
  8
0
 10
1.13574
 20
-613.424
 11
0.540039
 21
-613.609
  0
LINE
  8
0
 10
0.540039
 20
-613.609
 11
-0.0986328
 21
-613.674
  0
LINE
  8
0
 10
-0.0986328
 20
-613.674
 11
-0.737305
 21
-613.609
  0
LINE
  8
0
 10
-1.72656
 20
-638.967
 11
-2.26367
 21
-638.913
  0
LINE
  8
0
 10
-2.26367
 20
-638.913
 11
-2.76367
 21
-638.759
  0
LINE
  8
0
 10
-2.76367
 20
-638.759
 11
-3.21484
 21
-638.514
  0
LINE
  8
0
 10
-3.21484
 20
-638.514
 11
-3.6084
 21
-638.189
  0
LINE
  8
0
 10
-3.6084
 20
-638.189
 11
-3.93262
 21
-637.797
  0
LINE
  8
0
 10
-3.93262
 20
-637.797
 11
-4.17676
 21
-637.345
  0
LINE
  8
0
 10
-4.17676
 20
-637.345
 11
-4.33105
 21
-636.846
  0
LINE
  8
0
 10
-4.33105
 20
-636.846
 11
-4.38477
 21
-636.309
  0
LINE
  8
0
 10
-4.38477
 20
-636.309
 11
-4.38477
 21
-624.1
  0
LINE
  8
0
 10
-4.38477
 20
-624.1
 11
-4.33105
 21
-623.563
  0
LINE
  8
0
 10
-4.33105
 20
-623.563
 11
-4.17676
 21
-623.063
  0
LINE
  8
0
 10
-4.17676
 20
-623.063
 11
-3.93262
 21
-622.611
  0
LINE
  8
0
 10
-3.93262
 20
-622.611
 11
-3.6084
 21
-622.219
  0
LINE
  8
0
 10
-3.6084
 20
-622.219
 11
-3.21484
 21
-621.895
  0
LINE
  8
0
 10
-3.21484
 20
-621.895
 11
-2.76367
 21
-621.65
  0
LINE
  8
0
 10
-2.76367
 20
-621.65
 11
-2.26367
 21
-621.495
  0
LINE
  8
0
 10
-2.26367
 20
-621.495
 11
-1.72656
 21
-621.441
  0
LINE
  8
0
 10
-1.72656
 20
-621.441
 11
1.50098
 21
-621.441
  0
LINE
  8
0
 10
1.50098
 20
-621.441
 11
2.03809
 21
-621.495
  0
LINE
  8
0
 10
2.03809
 20
-621.495
 11
2.53711
 21
-621.65
  0
LINE
  8
0
 10
2.53711
 20
-621.65
 11
2.98926
 21
-621.895
  0
LINE
  8
0
 10
2.98926
 20
-621.895
 11
3.38184
 21
-622.219
  0
LINE
  8
0
 10
3.38184
 20
-622.219
 11
3.70605
 21
-622.611
  0
LINE
  8
0
 10
3.70605
 20
-622.611
 11
3.95117
 21
-623.063
  0
LINE
  8
0
 10
3.95117
 20
-623.063
 11
4.10547
 21
-623.563
  0
LINE
  8
0
 10
4.10547
 20
-623.563
 11
4.15918
 21
-624.1
  0
LINE
  8
0
 10
4.15918
 20
-624.1
 11
4.15918
 21
-636.309
  0
LINE
  8
0
 10
4.15918
 20
-636.309
 11
4.10547
 21
-636.846
  0
LINE
  8
0
 10
4.10547
 20
-636.846
 11
3.95117
 21
-637.345
  0
LINE
  8
0
 10
3.95117
 20
-637.345
 11
3.70605
 21
-637.797
  0
LINE
  8
0
 10
3.70605
 20
-637.797
 11
3.38184
 21
-638.189
  0
LINE
  8
0
 10
3.38184
 20
-638.189
 11
2.98926
 21
-638.514
  0
LINE
  8
0
 10
2.98926
 20
-638.514
 11
2.53711
 21
-638.759
  0
LINE
  8
0
 10
2.53711
 20
-638.759
 11
2.03809
 21
-638.913
  0
LINE
  8
0
 10
2.03809
 20
-638.913
 11
1.50098
 21
-638.967
  0
LINE
  8
0
 10
1.50098
 20
-638.967
 11
-1.72656
 21
-638.967
  0
LINE
  8
0
 10
-60
 20
-863
 11
-23.3333
 21
-863
  0
LINE
  8
0
 10
-23.3333
 20
-863
 11
-23.3333
 21
-866
  0
LINE
  8
0
 10
-23.3333
 20
-866
 11
-18.3333
 21
-866
  0
LINE
  8
0
 10
-18.3333
 20
-866
 11
-18.3333
 21
-863
  0
LINE
  8
0
 10
-18.3333
 20
-863
 11
18.3333
 21
-863
  0
LINE
  8
0
 10
18.3333
 20
-863
 11
18.3333
 21
-866
  0
LINE
  8
0
 10
18.3333
 20
-866
 11
23.3333
 21
-866
  0
LINE
  8
0
 10
23.3333
 20
-866
 11
23.3333
 21
-863
  0
LINE
  8
0
 10
23.3333
 20
-863
 11
60
 21
-863
  0
LINE
  8
0
 10
60
 20
-863
 11
60
 21
-866
  0
LINE
  8
0
 10
60
 20
-866
 11
65
 21
-866
  0
LINE
  8
0
 10
65
 20
-866
 11
65
 21
-863
  0
LINE
  8
0
 10
65
 20
-863
 11
75
 21
-863
  0
LINE
  8
0
 10
75
 20
-863
 11
75
 21
-853
  0
LINE
  8
0
 10
75
 20
-853
 11
78
 21
-853
  0
LINE
  8
0
 10
78
 20
-853
 11
78
 21
-848
  0
LINE
  8
0
 10
78
 20
-848
 11
75
 21
-848
  0
LINE
  8
0
 10
75
 20
-848
 11
75
 21
-795.333
  0
LINE
  8
0
 10
75
 20
-795.333
 11
78
 21
-795.333
  0
LINE
  8
0
 10
78
 20
-795.333
 11
78
 21
-790.333
  0
LINE
  8
0
 10
78
 20
-790.333
 11
75
 21
-790.333
  0
LINE
  8
0
 10
75
 20
-790.333
 11
75
 21
-737.667
  0
LINE
  8
0
 10
75
 20
-737.667
 11
78
 21
-737.667
  0
LINE
  8
0
 10
78
 20
-737.667
 11
78
 21
-732.667
  0
LINE
  8
0
 10
78
 20
-732.667
 11
75
 21
-732.667
  0
LINE
  8
0
 10
75
 20
-732.667
 11
75
 21
-680
  0
LINE
  8
0
 10
75
 20
-680
 11
78
 21
-680
  0
LINE
  8
0
 10
78
 20
-680
 11
78
 21
-675
  0
LINE
  8
0
 10
78
 20
-675
 11
75
 21
-675
  0
LINE
  8
0
 10
75
 20
-675
 11
75
 21
-665
  0
LINE
  8
0
 10
75
 20
-665
 11
65
 21
-665
  0
LINE
  8
0
 10
65
 20
-665
 11
65
 21
-662
  0
LINE
  8
0
 10
65
 20
-662
 11
60
 21
-662
  0
LINE
  8
0
 10
60
 20
-662
 11
60
 21
-665
  0
LINE
  8
0
 10
60
 20
-665
 11
23.3333
 21
-665
  0
LINE
  8
0
 10
23.3333
 20
-665
 11
23.3333
 21
-662
  0
LINE
  8
0
 10
23.3333
 20
-662
 11
18.3333
 21
-662
  0
LINE
  8
0
 10
18.3333
 20
-662
 11
18.3333
 21
-665
  0
LINE
  8
0
 10
18.3333
 20
-665
 11
-18.3333
 21
-665
  0
LINE
  8
0
 10
-18.3333
 20
-665
 11
-18.3333
 21
-662
  0
LINE
  8
0
 10
-18.3333
 20
-662
 11
-23.3333
 21
-662
  0
LINE
  8
0
 10
-23.3333
 20
-662
 11
-23.3333
 21
-665
  0
LINE
  8
0
 10
-23.3333
 20
-665
 11
-60
 21
-665
  0
LINE
  8
0
 10
-60
 20
-665
 11
-60
 21
-662
  0
LINE
  8
0
 10
-60
 20
-662
 11
-65
 21
-662
  0
LINE
  8
0
 10
-65
 20
-662
 11
-65
 21
-665
  0
LINE
  8
0
 10
-65
 20
-665
 11
-75
 21
-665
  0
LINE
  8
0
 10
-75
 20
-665
 11
-75
 21
-675
  0
LINE
  8
0
 10
-75
 20
-675
 11
-78
 21
-675
  0
LINE
  8
0
 10
-78
 20
-675
 11
-78
 21
-680
  0
LINE
  8
0
 10
-78
 20
-680
 11
-75
 21
-680
  0
LINE
  8
0
 10
-75
 20
-680
 11
-75
 21
-732.667
  0
LINE
  8
0
 10
-75
 20
-732.667
 11
-78
 21
-732.667
  0
LINE
  8
0
 10
-78
 20
-732.667
 11
-78
 21
-737.667
  0
LINE
  8
0
 10
-78
 20
-737.667
 11
-75
 21
-737.667
  0
LINE
  8
0
 10
-75
 20
-737.667
 11
-75
 21
-790.333
  0
LINE
  8
0
 10
-75
 20
-790.333
 11
-78
 21
-790.333
  0
LINE
  8
0
 10
-78
 20
-790.333
 11
-78
 21
-795.333
  0
LINE
  8
0
 10
-78
 20
-795.333
 11
-75
 21
-795.333
  0
LINE
  8
0
 10
-75
 20
-795.333
 11
-75
 21
-848
  0
LINE
  8
0
 10
-75
 20
-848
 11
-78
 21
-848
  0
LINE
  8
0
 10
-78
 20
-848
 11
-78
 21
-853
  0
LINE
  8
0
 10
-78
 20
-853
 11
-75
 21
-853
  0
LINE
  8
0
 10
-75
 20
-853
 11
-75
 21
-863
  0
LINE
  8
0
 10
-75
 20
-863
 11
-65
 21
-863
  0
LINE
  8
0
 10
-65
 20
-863
 11
-65
 21
-866
  0
LINE
  8
0
 10
-65
 20
-866
 11
-60
 21
-866
  0
LINE
  8
0
 10
-60
 20
-866
 11
-60
 21
-863
  0
LINE
  8
0
 10
-60
 20
-1072
 11
-23.3333
 21
-1072
  0
LINE
  8
0
 10
-23.3333
 20
-1072
 11
-23.3333
 21
-1075
  0
LINE
  8
0
 10
-23.3333
 20
-1075
 11
-18.3333
 21
-1075
  0
LINE
  8
0
 10
-18.3333
 20
-1075
 11
-18.3333
 21
-1072
  0
LINE
  8
0
 10
-18.3333
 20
-1072
 11
18.3333
 21
-1072
  0
LINE
  8
0
 10
18.3333
 20
-1072
 11
18.3333
 21
-1075
  0
LINE
  8
0
 10
18.3333
 20
-1075
 11
23.3333
 21
-1075
  0
LINE
  8
0
 10
23.3333
 20
-1075
 11
23.3333
 21
-1072
  0
LINE
  8
0
 10
23.3333
 20
-1072
 11
60
 21
-1072
  0
LINE
  8
0
 10
60
 20
-1072
 11
60
 21
-1075
  0
LINE
  8
0
 10
60
 20
-1075
 11
65
 21
-1075
  0
LINE
  8
0
 10
65
 20
-1075
 11
65
 21
-1072
  0
LINE
  8
0
 10
65
 20
-1072
 11
75
 21
-1072
  0
LINE
  8
0
 10
75
 20
-1072
 11
75
 21
-1062
  0
LINE
  8
0
 10
75
 20
-1062
 11
78
 21
-1062
  0
LINE
  8
0
 10
78
 20
-1062
 11
78
 21
-1057
  0
LINE
  8
0
 10
78
 20
-1057
 11
75
 21
-1057
  0
LINE
  8
0
 10
75
 20
-1057
 11
75
 21
-1004.33
  0
LINE
  8
0
 10
75
 20
-1004.33
 11
78
 21
-1004.33
  0
LINE
  8
0
 10
78
 20
-1004.33
 11
78
 21
-999.333
  0
LINE
  8
0
 10
78
 20
-999.333
 11
75
 21
-999.333
  0
LINE
  8
0
 10
75
 20
-999.333
 11
75
 21
-946.667
  0
LINE
  8
0
 10
75
 20
-946.667
 11
78
 21
-946.667
  0
LINE
  8
0
 10
78
 20
-946.667
 11
78
 21
-941.667
  0
LINE
  8
0
 10
78
 20
-941.667
 11
75
 21
-941.667
  0
LINE
  8
0
 10
75
 20
-941.667
 11
75
 21
-889
  0
LINE
  8
0
 10
75
 20
-889
 11
78
 21
-889
  0
LINE
  8
0
 10
78
 20
-889
 11
78
 21
-884
  0
LINE
  8
0
 10
78
 20
-884
 11
75
 21
-884
  0
LINE
  8
0
 10
75
 20
-884
 11
75
 21
-874
  0
LINE
  8
0
 10
75
 20
-874
 11
65
 21
-874
  0
LINE
  8
0
 10
65
 20
-874
 11
65
 21
-871
  0
LINE
  8
0
 10
65
 20
-871
 11
60
 21
-871
  0
LINE
  8
0
 10
60
 20
-871
 11
60
 21
-874
  0
LINE
  8
0
 10
60
 20
-874
 11
23.3333
 21
-874
  0
LINE
  8
0
 10
23.3333
 20
-874
 11
23.3333
 21
-871
  0
LINE
  8
0
 10
23.3333
 20
-871
 11
18.3333
 21
-871
  0
LINE
  8
0
 10
18.3333
 20
-871
 11
18.3333
 21
-874
  0
LINE
  8
0
 10
18.3333
 20
-874
 11
-18.3333
 21
-874
  0
LINE
  8
0
 10
-18.3333
 20
-874
 11
-18.3333
 21
-871
  0
LINE
  8
0
 10
-18.3333
 20
-871
 11
-23.3333
 21
-871
  0
LINE
  8
0
 10
-23.3333
 20
-871
 11
-23.3333
 21
-874
  0
LINE
  8
0
 10
-23.3333
 20
-874
 11
-60
 21
-874
  0
LINE
  8
0
 10
-60
 20
-874
 11
-60
 21
-871
  0
LINE
  8
0
 10
-60
 20
-871
 11
-65
 21
-871
  0
LINE
  8
0
 10
-65
 20
-871
 11
-65
 21
-874
  0
LINE
  8
0
 10
-65
 20
-874
 11
-75
 21
-874
  0
LINE
  8
0
 10
-75
 20
-874
 11
-75
 21
-884
  0
LINE
  8
0
 10
-75
 20
-884
 11
-78
 21
-884
  0
LINE
  8
0
 10
-78
 20
-884
 11
-78
 21
-889
  0
LINE
  8
0
 10
-78
 20
-889
 11
-75
 21
-889
  0
LINE
  8
0
 10
-75
 20
-889
 11
-75
 21
-941.667
  0
LINE
  8
0
 10
-75
 20
-941.667
 11
-78
 21
-941.667
  0
LINE
  8
0
 10
-78
 20
-941.667
 11
-78
 21
-946.667
  0
LINE
  8
0
 10
-78
 20
-946.667
 11
-75
 21
-946.667
  0
LINE
  8
0
 10
-75
 20
-946.667
 11
-75
 21
-999.333
  0
LINE
  8
0
 10
-75
 20
-999.333
 11
-78
 21
-999.333
  0
LINE
  8
0
 10
-78
 20
-999.333
 11
-78
 21
-1004.33
  0
LINE
  8
0
 10
-78
 20
-1004.33
 11
-75
 21
-1004.33
  0
LINE
  8
0
 10
-75
 20
-1004.33
 11
-75
 21
-1057
  0
LINE
  8
0
 10
-75
 20
-1057
 11
-78
 21
-1057
  0
LINE
  8
0
 10
-78
 20
-1057
 11
-78
 21
-1062
  0
LINE
  8
0
 10
-78
 20
-1062
 11
-75
 21
-1062
  0
LINE
  8
0
 10
-75
 20
-1062
 11
-75
 21
-1072
  0
LINE
  8
0
 10
-75
 20
-1072
 11
-65
 21
-1072
  0
LINE
  8
0
 10
-65
 20
-1072
 11
-65
 21
-1075
  0
LINE
  8
0
 10
-65
 20
-1075
 11
-60
 21
-1075
  0
LINE
  8
0
 10
-60
 20
-1075
 11
-60
 21
-1072
  0
LINE
  8
0
 10
-50.4521
 20
-1063.08
 11
-50.4521
 21
-884.038
  0
LINE
  8
0
 10
-50.4521
 20
-884.038
 11
58.4102
 21
-884.038
  0
LINE
  8
0
 10
58.4102
 20
-884.038
 11
58.4102
 21
-1063.08
  0
LINE
  8
0
 10
58.4102
 20
-1063.08
 11
-50.4521
 21
-1063.08
  0
LINE
  8
0
 10
-58.1445
 20
-888.826
 11
-58.4365
 21
-888.735
  0
LINE
  8
0
 10
-58.4365
 20
-888.735
 11
-58.7002
 21
-888.593
  0
LINE
  8
0
 10
-58.7002
 20
-888.593
 11
-58.9307
 21
-888.402
  0
LINE
  8
0
 10
-58.9307
 20
-888.402
 11
-59.1211
 21
-888.172
  0
LINE
  8
0
 10
-59.1211
 20
-888.172
 11
-59.2646
 21
-887.908
  0
LINE
  8
0
 10
-59.2646
 20
-887.908
 11
-59.3545
 21
-887.616
  0
LINE
  8
0
 10
-59.3545
 20
-887.616
 11
-59.3867
 21
-887.303
  0
LINE
  8
0
 10
-59.3867
 20
-887.303
 11
-59.3545
 21
-886.989
  0
LINE
  8
0
 10
-59.3545
 20
-886.989
 11
-59.2646
 21
-886.696
  0
LINE
  8
0
 10
-59.2646
 20
-886.696
 11
-59.1211
 21
-886.433
  0
LINE
  8
0
 10
-59.1211
 20
-886.433
 11
-58.9307
 21
-886.202
  0
LINE
  8
0
 10
-58.9307
 20
-886.202
 11
-58.7002
 21
-886.013
  0
LINE
  8
0
 10
-58.7002
 20
-886.013
 11
-58.4365
 21
-885.869
  0
LINE
  8
0
 10
-58.4365
 20
-885.869
 11
-58.1445
 21
-885.778
  0
LINE
  8
0
 10
-58.1445
 20
-885.778
 11
-57.8311
 21
-885.747
  0
LINE
  8
0
 10
-57.8311
 20
-885.747
 11
-57.5176
 21
-885.778
  0
LINE
  8
0
 10
-57.5176
 20
-885.778
 11
-57.2256
 21
-885.869
  0
LINE
  8
0
 10
-57.2256
 20
-885.869
 11
-56.9609
 21
-886.013
  0
LINE
  8
0
 10
-56.9609
 20
-886.013
 11
-56.7305
 21
-886.202
  0
LINE
  8
0
 10
-56.7305
 20
-886.202
 11
-56.541
 21
-886.433
  0
LINE
  8
0
 10
-56.541
 20
-886.433
 11
-56.3975
 21
-886.696
  0
LINE
  8
0
 10
-56.3975
 20
-886.696
 11
-56.3066
 21
-886.989
  0
LINE
  8
0
 10
-56.3066
 20
-886.989
 11
-56.2754
 21
-887.303
  0
LINE
  8
0
 10
-56.2754
 20
-887.303
 11
-56.3066
 21
-887.616
  0
LINE
  8
0
 10
-56.3066
 20
-887.616
 11
-56.3975
 21
-887.908
  0
LINE
  8
0
 10
-56.3975
 20
-887.908
 11
-56.541
 21
-888.172
  0
LINE
  8
0
 10
-56.541
 20
-888.172
 11
-56.7305
 21
-888.402
  0
LINE
  8
0
 10
-56.7305
 20
-888.402
 11
-56.9609
 21
-888.593
  0
LINE
  8
0
 10
-56.9609
 20
-888.593
 11
-57.2256
 21
-888.735
  0
LINE
  8
0
 10
-57.2256
 20
-888.735
 11
-57.5176
 21
-888.826
  0
LINE
  8
0
 10
-57.5176
 20
-888.826
 11
-57.8311
 21
-888.858
  0
LINE
  8
0
 10
-57.8311
 20
-888.858
 11
-58.1445
 21
-888.826
  0
LINE
  8
0
 10
64.4297
 20
-888.826
 11
64.1377
 21
-888.735
  0
LINE
  8
0
 10
64.1377
 20
-888.735
 11
63.874
 21
-888.593
  0
LINE
  8
0
 10
63.874
 20
-888.593
 11
63.6436
 21
-888.402
  0
LINE
  8
0
 10
63.6436
 20
-888.402
 11
63.4531
 21
-888.172
  0
LINE
  8
0
 10
63.4531
 20
-888.172
 11
63.3096
 21
-887.908
  0
LINE
  8
0
 10
63.3096
 20
-887.908
 11
63.2197
 21
-887.616
  0
LINE
  8
0
 10
63.2197
 20
-887.616
 11
63.1875
 21
-887.303
  0
LINE
  8
0
 10
63.1875
 20
-887.303
 11
63.2197
 21
-886.989
  0
LINE
  8
0
 10
63.2197
 20
-886.989
 11
63.3096
 21
-886.696
  0
LINE
  8
0
 10
63.3096
 20
-886.696
 11
63.4531
 21
-886.433
  0
LINE
  8
0
 10
63.4531
 20
-886.433
 11
63.6436
 21
-886.202
  0
LINE
  8
0
 10
63.6436
 20
-886.202
 11
63.874
 21
-886.013
  0
LINE
  8
0
 10
63.874
 20
-886.013
 11
64.1377
 21
-885.869
  0
LINE
  8
0
 10
64.1377
 20
-885.869
 11
64.4297
 21
-885.778
  0
LINE
  8
0
 10
64.4297
 20
-885.778
 11
64.7432
 21
-885.747
  0
LINE
  8
0
 10
64.7432
 20
-885.747
 11
65.0566
 21
-885.778
  0
LINE
  8
0
 10
65.0566
 20
-885.778
 11
65.3486
 21
-885.869
  0
LINE
  8
0
 10
65.3486
 20
-885.869
 11
65.6133
 21
-886.013
  0
LINE
  8
0
 10
65.6133
 20
-886.013
 11
65.8428
 21
-886.202
  0
LINE
  8
0
 10
65.8428
 20
-886.202
 11
66.0332
 21
-886.433
  0
LINE
  8
0
 10
66.0332
 20
-886.433
 11
66.1768
 21
-886.696
  0
LINE
  8
0
 10
66.1768
 20
-886.696
 11
66.2676
 21
-886.989
  0
LINE
  8
0
 10
66.2676
 20
-886.989
 11
66.2988
 21
-887.303
  0
LINE
  8
0
 10
66.2988
 20
-887.303
 11
66.2676
 21
-887.616
  0
LINE
  8
0
 10
66.2676
 20
-887.616
 11
66.1768
 21
-887.908
  0
LINE
  8
0
 10
66.1768
 20
-887.908
 11
66.0332
 21
-888.172
  0
LINE
  8
0
 10
66.0332
 20
-888.172
 11
65.8428
 21
-888.402
  0
LINE
  8
0
 10
65.8428
 20
-888.402
 11
65.6133
 21
-888.593
  0
LINE
  8
0
 10
65.6133
 20
-888.593
 11
65.3486
 21
-888.735
  0
LINE
  8
0
 10
65.3486
 20
-888.735
 11
65.0566
 21
-888.826
  0
LINE
  8
0
 10
65.0566
 20
-888.826
 11
64.7432
 21
-888.858
  0
LINE
  8
0
 10
64.7432
 20
-888.858
 11
64.4297
 21
-888.826
  0
LINE
  8
0
 10
-58.1445
 20
-893.906
 11
-58.4365
 21
-893.815
  0
LINE
  8
0
 10
-58.4365
 20
-893.815
 11
-58.7002
 21
-893.672
  0
LINE
  8
0
 10
-58.7002
 20
-893.672
 11
-58.9307
 21
-893.482
  0
LINE
  8
0
 10
-58.9307
 20
-893.482
 11
-59.1211
 21
-893.252
  0
LINE
  8
0
 10
-59.1211
 20
-893.252
 11
-59.2646
 21
-892.988
  0
LINE
  8
0
 10
-59.2646
 20
-892.988
 11
-59.3545
 21
-892.696
  0
LINE
  8
0
 10
-59.3545
 20
-892.696
 11
-59.3867
 21
-892.383
  0
LINE
  8
0
 10
-59.3867
 20
-892.383
 11
-59.3545
 21
-892.068
  0
LINE
  8
0
 10
-59.3545
 20
-892.068
 11
-59.2646
 21
-891.776
  0
LINE
  8
0
 10
-59.2646
 20
-891.776
 11
-59.1211
 21
-891.513
  0
LINE
  8
0
 10
-59.1211
 20
-891.513
 11
-58.9307
 21
-891.282
  0
LINE
  8
0
 10
-58.9307
 20
-891.282
 11
-58.7002
 21
-891.093
  0
LINE
  8
0
 10
-58.7002
 20
-891.093
 11
-58.4365
 21
-890.949
  0
LINE
  8
0
 10
-58.4365
 20
-890.949
 11
-58.1445
 21
-890.858
  0
LINE
  8
0
 10
-58.1445
 20
-890.858
 11
-57.8311
 21
-890.826
  0
LINE
  8
0
 10
-57.8311
 20
-890.826
 11
-57.5176
 21
-890.858
  0
LINE
  8
0
 10
-57.5176
 20
-890.858
 11
-57.2256
 21
-890.949
  0
LINE
  8
0
 10
-57.2256
 20
-890.949
 11
-56.9609
 21
-891.093
  0
LINE
  8
0
 10
-56.9609
 20
-891.093
 11
-56.7305
 21
-891.282
  0
LINE
  8
0
 10
-56.7305
 20
-891.282
 11
-56.541
 21
-891.513
  0
LINE
  8
0
 10
-56.541
 20
-891.513
 11
-56.3975
 21
-891.776
  0
LINE
  8
0
 10
-56.3975
 20
-891.776
 11
-56.3066
 21
-892.068
  0
LINE
  8
0
 10
-56.3066
 20
-892.068
 11
-56.2754
 21
-892.383
  0
LINE
  8
0
 10
-56.2754
 20
-892.383
 11
-56.3066
 21
-892.696
  0
LINE
  8
0
 10
-56.3066
 20
-892.696
 11
-56.3975
 21
-892.988
  0
LINE
  8
0
 10
-56.3975
 20
-892.988
 11
-56.541
 21
-893.252
  0
LINE
  8
0
 10
-56.541
 20
-893.252
 11
-56.7305
 21
-893.482
  0
LINE
  8
0
 10
-56.7305
 20
-893.482
 11
-56.9609
 21
-893.672
  0
LINE
  8
0
 10
-56.9609
 20
-893.672
 11
-57.2256
 21
-893.815
  0
LINE
  8
0
 10
-57.2256
 20
-893.815
 11
-57.5176
 21
-893.906
  0
LINE
  8
0
 10
-57.5176
 20
-893.906
 11
-57.8311
 21
-893.938
  0
LINE
  8
0
 10
-57.8311
 20
-893.938
 11
-58.1445
 21
-893.906
  0
LINE
  8
0
 10
64.4297
 20
-893.906
 11
64.1377
 21
-893.815
  0
LINE
  8
0
 10
64.1377
 20
-893.815
 11
63.874
 21
-893.672
  0
LINE
  8
0
 10
63.874
 20
-893.672
 11
63.6436
 21
-893.482
  0
LINE
  8
0
 10
63.6436
 20
-893.482
 11
63.4531
 21
-893.252
  0
LINE
  8
0
 10
63.4531
 20
-893.252
 11
63.3096
 21
-892.988
  0
LINE
  8
0
 10
63.3096
 20
-892.988
 11
63.2197
 21
-892.696
  0
LINE
  8
0
 10
63.2197
 20
-892.696
 11
63.1875
 21
-892.383
  0
LINE
  8
0
 10
63.1875
 20
-892.383
 11
63.2197
 21
-892.068
  0
LINE
  8
0
 10
63.2197
 20
-892.068
 11
63.3096
 21
-891.776
  0
LINE
  8
0
 10
63.3096
 20
-891.776
 11
63.4531
 21
-891.513
  0
LINE
  8
0
 10
63.4531
 20
-891.513
 11
63.6436
 21
-891.282
  0
LINE
  8
0
 10
63.6436
 20
-891.282
 11
63.874
 21
-891.093
  0
LINE
  8
0
 10
63.874
 20
-891.093
 11
64.1377
 21
-890.949
  0
LINE
  8
0
 10
64.1377
 20
-890.949
 11
64.4297
 21
-890.858
  0
LINE
  8
0
 10
64.4297
 20
-890.858
 11
64.7432
 21
-890.826
  0
LINE
  8
0
 10
64.7432
 20
-890.826
 11
65.0566
 21
-890.858
  0
LINE
  8
0
 10
65.0566
 20
-890.858
 11
65.3486
 21
-890.949
  0
LINE
  8
0
 10
65.3486
 20
-890.949
 11
65.6133
 21
-891.093
  0
LINE
  8
0
 10
65.6133
 20
-891.093
 11
65.8428
 21
-891.282
  0
LINE
  8
0
 10
65.8428
 20
-891.282
 11
66.0332
 21
-891.513
  0
LINE
  8
0
 10
66.0332
 20
-891.513
 11
66.1768
 21
-891.776
  0
LINE
  8
0
 10
66.1768
 20
-891.776
 11
66.2676
 21
-892.068
  0
LINE
  8
0
 10
66.2676
 20
-892.068
 11
66.2988
 21
-892.383
  0
LINE
  8
0
 10
66.2988
 20
-892.383
 11
66.2676
 21
-892.696
  0
LINE
  8
0
 10
66.2676
 20
-892.696
 11
66.1768
 21
-892.988
  0
LINE
  8
0
 10
66.1768
 20
-892.988
 11
66.0332
 21
-893.252
  0
LINE
  8
0
 10
66.0332
 20
-893.252
 11
65.8428
 21
-893.482
  0
LINE
  8
0
 10
65.8428
 20
-893.482
 11
65.6133
 21
-893.672
  0
LINE
  8
0
 10
65.6133
 20
-893.672
 11
65.3486
 21
-893.815
  0
LINE
  8
0
 10
65.3486
 20
-893.815
 11
65.0566
 21
-893.906
  0
LINE
  8
0
 10
65.0566
 20
-893.906
 11
64.7432
 21
-893.938
  0
LINE
  8
0
 10
64.7432
 20
-893.938
 11
64.4297
 21
-893.906
  0
LINE
  8
0
 10
-58.1445
 20
-898.986
 11
-58.4365
 21
-898.896
  0
LINE
  8
0
 10
-58.4365
 20
-898.896
 11
-58.7002
 21
-898.752
  0
LINE
  8
0
 10
-58.7002
 20
-898.752
 11
-58.9307
 21
-898.562
  0
LINE
  8
0
 10
-58.9307
 20
-898.562
 11
-59.1211
 21
-898.332
  0
LINE
  8
0
 10
-59.1211
 20
-898.332
 11
-59.2646
 21
-898.068
  0
LINE
  8
0
 10
-59.2646
 20
-898.068
 11
-59.3545
 21
-897.775
  0
LINE
  8
0
 10
-59.3545
 20
-897.775
 11
-59.3867
 21
-897.463
  0
LINE
  8
0
 10
-59.3867
 20
-897.463
 11
-59.3545
 21
-897.148
  0
LINE
  8
0
 10
-59.3545
 20
-897.148
 11
-59.2646
 21
-896.856
  0
LINE
  8
0
 10
-59.2646
 20
-896.856
 11
-59.1211
 21
-896.593
  0
LINE
  8
0
 10
-59.1211
 20
-896.593
 11
-58.9307
 21
-896.362
  0
LINE
  8
0
 10
-58.9307
 20
-896.362
 11
-58.7002
 21
-896.173
  0
LINE
  8
0
 10
-58.7002
 20
-896.173
 11
-58.4365
 21
-896.029
  0
LINE
  8
0
 10
-58.4365
 20
-896.029
 11
-58.1445
 21
-895.938
  0
LINE
  8
0
 10
-58.1445
 20
-895.938
 11
-57.8311
 21
-895.906
  0
LINE
  8
0
 10
-57.8311
 20
-895.906
 11
-57.5176
 21
-895.938
  0
LINE
  8
0
 10
-57.5176
 20
-895.938
 11
-57.2256
 21
-896.029
  0
LINE
  8
0
 10
-57.2256
 20
-896.029
 11
-56.9609
 21
-896.173
  0
LINE
  8
0
 10
-56.9609
 20
-896.173
 11
-56.7305
 21
-896.362
  0
LINE
  8
0
 10
-56.7305
 20
-896.362
 11
-56.541
 21
-896.593
  0
LINE
  8
0
 10
-56.541
 20
-896.593
 11
-56.3975
 21
-896.856
  0
LINE
  8
0
 10
-56.3975
 20
-896.856
 11
-56.3066
 21
-897.148
  0
LINE
  8
0
 10
-56.3066
 20
-897.148
 11
-56.2754
 21
-897.463
  0
LINE
  8
0
 10
-56.2754
 20
-897.463
 11
-56.3066
 21
-897.775
  0
LINE
  8
0
 10
-56.3066
 20
-897.775
 11
-56.3975
 21
-898.068
  0
LINE
  8
0
 10
-56.3975
 20
-898.068
 11
-56.541
 21
-898.332
  0
LINE
  8
0
 10
-56.541
 20
-898.332
 11
-56.7305
 21
-898.562
  0
LINE
  8
0
 10
-56.7305
 20
-898.562
 11
-56.9609
 21
-898.752
  0
LINE
  8
0
 10
-56.9609
 20
-898.752
 11
-57.2256
 21
-898.896
  0
LINE
  8
0
 10
-57.2256
 20
-898.896
 11
-57.5176
 21
-898.986
  0
LINE
  8
0
 10
-57.5176
 20
-898.986
 11
-57.8311
 21
-899.018
  0
LINE
  8
0
 10
-57.8311
 20
-899.018
 11
-58.1445
 21
-898.986
  0
LINE
  8
0
 10
64.4297
 20
-898.986
 11
64.1377
 21
-898.896
  0
LINE
  8
0
 10
64.1377
 20
-898.896
 11
63.874
 21
-898.752
  0
LINE
  8
0
 10
63.874
 20
-898.752
 11
63.6436
 21
-898.562
  0
LINE
  8
0
 10
63.6436
 20
-898.562
 11
63.4531
 21
-898.332
  0
LINE
  8
0
 10
63.4531
 20
-898.332
 11
63.3096
 21
-898.068
  0
LINE
  8
0
 10
63.3096
 20
-898.068
 11
63.2197
 21
-897.775
  0
LINE
  8
0
 10
63.2197
 20
-897.775
 11
63.1875
 21
-897.463
  0
LINE
  8
0
 10
63.1875
 20
-897.463
 11
63.2197
 21
-897.148
  0
LINE
  8
0
 10
63.2197
 20
-897.148
 11
63.3096
 21
-896.856
  0
LINE
  8
0
 10
63.3096
 20
-896.856
 11
63.4531
 21
-896.593
  0
LINE
  8
0
 10
63.4531
 20
-896.593
 11
63.6436
 21
-896.362
  0
LINE
  8
0
 10
63.6436
 20
-896.362
 11
63.874
 21
-896.173
  0
LINE
  8
0
 10
63.874
 20
-896.173
 11
64.1377
 21
-896.029
  0
LINE
  8
0
 10
64.1377
 20
-896.029
 11
64.4297
 21
-895.938
  0
LINE
  8
0
 10
64.4297
 20
-895.938
 11
64.7432
 21
-895.906
  0
LINE
  8
0
 10
64.7432
 20
-895.906
 11
65.0566
 21
-895.938
  0
LINE
  8
0
 10
65.0566
 20
-895.938
 11
65.3486
 21
-896.029
  0
LINE
  8
0
 10
65.3486
 20
-896.029
 11
65.6133
 21
-896.173
  0
LINE
  8
0
 10
65.6133
 20
-896.173
 11
65.8428
 21
-896.362
  0
LINE
  8
0
 10
65.8428
 20
-896.362
 11
66.0332
 21
-896.593
  0
LINE
  8
0
 10
66.0332
 20
-896.593
 11
66.1768
 21
-896.856
  0
LINE
  8
0
 10
66.1768
 20
-896.856
 11
66.2676
 21
-897.148
  0
LINE
  8
0
 10
66.2676
 20
-897.148
 11
66.2988
 21
-897.463
  0
LINE
  8
0
 10
66.2988
 20
-897.463
 11
66.2676
 21
-897.775
  0
LINE
  8
0
 10
66.2676
 20
-897.775
 11
66.1768
 21
-898.068
  0
LINE
  8
0
 10
66.1768
 20
-898.068
 11
66.0332
 21
-898.332
  0
LINE
  8
0
 10
66.0332
 20
-898.332
 11
65.8428
 21
-898.562
  0
LINE
  8
0
 10
65.8428
 20
-898.562
 11
65.6133
 21
-898.752
  0
LINE
  8
0
 10
65.6133
 20
-898.752
 11
65.3486
 21
-898.896
  0
LINE
  8
0
 10
65.3486
 20
-898.896
 11
65.0566
 21
-898.986
  0
LINE
  8
0
 10
65.0566
 20
-898.986
 11
64.7432
 21
-899.018
  0
LINE
  8
0
 10
64.7432
 20
-899.018
 11
64.4297
 21
-898.986
  0
LINE
  8
0
 10
64.4297
 20
-904.066
 11
64.1377
 21
-903.976
  0
LINE
  8
0
 10
64.1377
 20
-903.976
 11
63.874
 21
-903.832
  0
LINE
  8
0
 10
63.874
 20
-903.832
 11
63.6436
 21
-903.643
  0
LINE
  8
0
 10
63.6436
 20
-903.643
 11
63.4531
 21
-903.412
  0
LINE
  8
0
 10
63.4531
 20
-903.412
 11
63.3096
 21
-903.148
  0
LINE
  8
0
 10
63.3096
 20
-903.148
 11
63.2197
 21
-902.856
  0
LINE
  8
0
 10
63.2197
 20
-902.856
 11
63.1875
 21
-902.543
  0
LINE
  8
0
 10
63.1875
 20
-902.543
 11
63.2197
 21
-902.229
  0
LINE
  8
0
 10
63.2197
 20
-902.229
 11
63.3096
 21
-901.937
  0
LINE
  8
0
 10
63.3096
 20
-901.937
 11
63.4531
 21
-901.673
  0
LINE
  8
0
 10
63.4531
 20
-901.673
 11
63.6436
 21
-901.442
  0
LINE
  8
0
 10
63.6436
 20
-901.442
 11
63.874
 21
-901.253
  0
LINE
  8
0
 10
63.874
 20
-901.253
 11
64.1377
 21
-901.109
  0
LINE
  8
0
 10
64.1377
 20
-901.109
 11
64.4297
 21
-901.019
  0
LINE
  8
0
 10
64.4297
 20
-901.019
 11
64.7432
 21
-900.987
  0
LINE
  8
0
 10
64.7432
 20
-900.987
 11
65.0566
 21
-901.019
  0
LINE
  8
0
 10
65.0566
 20
-901.019
 11
65.3486
 21
-901.109
  0
LINE
  8
0
 10
65.3486
 20
-901.109
 11
65.6133
 21
-901.253
  0
LINE
  8
0
 10
65.6133
 20
-901.253
 11
65.8428
 21
-901.442
  0
LINE
  8
0
 10
65.8428
 20
-901.442
 11
66.0332
 21
-901.673
  0
LINE
  8
0
 10
66.0332
 20
-901.673
 11
66.1768
 21
-901.937
  0
LINE
  8
0
 10
66.1768
 20
-901.937
 11
66.2676
 21
-902.229
  0
LINE
  8
0
 10
66.2676
 20
-902.229
 11
66.2988
 21
-902.543
  0
LINE
  8
0
 10
66.2988
 20
-902.543
 11
66.2676
 21
-902.856
  0
LINE
  8
0
 10
66.2676
 20
-902.856
 11
66.1768
 21
-903.148
  0
LINE
  8
0
 10
66.1768
 20
-903.148
 11
66.0332
 21
-903.412
  0
LINE
  8
0
 10
66.0332
 20
-903.412
 11
65.8428
 21
-903.643
  0
LINE
  8
0
 10
65.8428
 20
-903.643
 11
65.6133
 21
-903.832
  0
LINE
  8
0
 10
65.6133
 20
-903.832
 11
65.3486
 21
-903.976
  0
LINE
  8
0
 10
65.3486
 20
-903.976
 11
65.0566
 21
-904.066
  0
LINE
  8
0
 10
65.0566
 20
-904.066
 11
64.7432
 21
-904.099
  0
LINE
  8
0
 10
64.7432
 20
-904.099
 11
64.4297
 21
-904.066
  0
LINE
  8
0
 10
-58.1445
 20
-904.066
 11
-58.4365
 21
-903.976
  0
LINE
  8
0
 10
-58.4365
 20
-903.976
 11
-58.7002
 21
-903.832
  0
LINE
  8
0
 10
-58.7002
 20
-903.832
 11
-58.9307
 21
-903.643
  0
LINE
  8
0
 10
-58.9307
 20
-903.643
 11
-59.1211
 21
-903.412
  0
LINE
  8
0
 10
-59.1211
 20
-903.412
 11
-59.2646
 21
-903.148
  0
LINE
  8
0
 10
-59.2646
 20
-903.148
 11
-59.3545
 21
-902.856
  0
LINE
  8
0
 10
-59.3545
 20
-902.856
 11
-59.3867
 21
-902.543
  0
LINE
  8
0
 10
-59.3867
 20
-902.543
 11
-59.3545
 21
-902.229
  0
LINE
  8
0
 10
-59.3545
 20
-902.229
 11
-59.2646
 21
-901.937
  0
LINE
  8
0
 10
-59.2646
 20
-901.937
 11
-59.1211
 21
-901.673
  0
LINE
  8
0
 10
-59.1211
 20
-901.673
 11
-58.9307
 21
-901.442
  0
LINE
  8
0
 10
-58.9307
 20
-901.442
 11
-58.7002
 21
-901.253
  0
LINE
  8
0
 10
-58.7002
 20
-901.253
 11
-58.4365
 21
-901.109
  0
LINE
  8
0
 10
-58.4365
 20
-901.109
 11
-58.1445
 21
-901.019
  0
LINE
  8
0
 10
-58.1445
 20
-901.019
 11
-57.8311
 21
-900.987
  0
LINE
  8
0
 10
-57.8311
 20
-900.987
 11
-57.5176
 21
-901.019
  0
LINE
  8
0
 10
-57.5176
 20
-901.019
 11
-57.2256
 21
-901.109
  0
LINE
  8
0
 10
-57.2256
 20
-901.109
 11
-56.9609
 21
-901.253
  0
LINE
  8
0
 10
-56.9609
 20
-901.253
 11
-56.7305
 21
-901.442
  0
LINE
  8
0
 10
-56.7305
 20
-901.442
 11
-56.541
 21
-901.673
  0
LINE
  8
0
 10
-56.541
 20
-901.673
 11
-56.3975
 21
-901.937
  0
LINE
  8
0
 10
-56.3975
 20
-901.937
 11
-56.3066
 21
-902.229
  0
LINE
  8
0
 10
-56.3066
 20
-902.229
 11
-56.2754
 21
-902.543
  0
LINE
  8
0
 10
-56.2754
 20
-902.543
 11
-56.3066
 21
-902.856
  0
LINE
  8
0
 10
-56.3066
 20
-902.856
 11
-56.3975
 21
-903.148
  0
LINE
  8
0
 10
-56.3975
 20
-903.148
 11
-56.541
 21
-903.412
  0
LINE
  8
0
 10
-56.541
 20
-903.412
 11
-56.7305
 21
-903.643
  0
LINE
  8
0
 10
-56.7305
 20
-903.643
 11
-56.9609
 21
-903.832
  0
LINE
  8
0
 10
-56.9609
 20
-903.832
 11
-57.2256
 21
-903.976
  0
LINE
  8
0
 10
-57.2256
 20
-903.976
 11
-57.5176
 21
-904.066
  0
LINE
  8
0
 10
-57.5176
 20
-904.066
 11
-57.8311
 21
-904.099
  0
LINE
  8
0
 10
-57.8311
 20
-904.099
 11
-58.1445
 21
-904.066
  0
LINE
  8
0
 10
64.4297
 20
-909.149
 11
64.1377
 21
-909.059
  0
LINE
  8
0
 10
64.1377
 20
-909.059
 11
63.874
 21
-908.915
  0
LINE
  8
0
 10
63.874
 20
-908.915
 11
63.6436
 21
-908.726
  0
LINE
  8
0
 10
63.6436
 20
-908.726
 11
63.4531
 21
-908.495
  0
LINE
  8
0
 10
63.4531
 20
-908.495
 11
63.3096
 21
-908.23
  0
LINE
  8
0
 10
63.3096
 20
-908.23
 11
63.2197
 21
-907.938
  0
LINE
  8
0
 10
63.2197
 20
-907.938
 11
63.1875
 21
-907.625
  0
LINE
  8
0
 10
63.1875
 20
-907.625
 11
63.2197
 21
-907.312
  0
LINE
  8
0
 10
63.2197
 20
-907.312
 11
63.3096
 21
-907.02
  0
LINE
  8
0
 10
63.3096
 20
-907.02
 11
63.4531
 21
-906.756
  0
LINE
  8
0
 10
63.4531
 20
-906.756
 11
63.6436
 21
-906.525
  0
LINE
  8
0
 10
63.6436
 20
-906.525
 11
63.874
 21
-906.335
  0
LINE
  8
0
 10
63.874
 20
-906.335
 11
64.1377
 21
-906.191
  0
LINE
  8
0
 10
64.1377
 20
-906.191
 11
64.4297
 21
-906.102
  0
LINE
  8
0
 10
64.4297
 20
-906.102
 11
64.7432
 21
-906.069
  0
LINE
  8
0
 10
64.7432
 20
-906.069
 11
65.0566
 21
-906.102
  0
LINE
  8
0
 10
65.0566
 20
-906.102
 11
65.3486
 21
-906.191
  0
LINE
  8
0
 10
65.3486
 20
-906.191
 11
65.6133
 21
-906.335
  0
LINE
  8
0
 10
65.6133
 20
-906.335
 11
65.8428
 21
-906.525
  0
LINE
  8
0
 10
65.8428
 20
-906.525
 11
66.0332
 21
-906.756
  0
LINE
  8
0
 10
66.0332
 20
-906.756
 11
66.1768
 21
-907.02
  0
LINE
  8
0
 10
66.1768
 20
-907.02
 11
66.2676
 21
-907.312
  0
LINE
  8
0
 10
66.2676
 20
-907.312
 11
66.2988
 21
-907.625
  0
LINE
  8
0
 10
66.2988
 20
-907.625
 11
66.2676
 21
-907.938
  0
LINE
  8
0
 10
66.2676
 20
-907.938
 11
66.1768
 21
-908.23
  0
LINE
  8
0
 10
66.1768
 20
-908.23
 11
66.0332
 21
-908.495
  0
LINE
  8
0
 10
66.0332
 20
-908.495
 11
65.8428
 21
-908.726
  0
LINE
  8
0
 10
65.8428
 20
-908.726
 11
65.6133
 21
-908.915
  0
LINE
  8
0
 10
65.6133
 20
-908.915
 11
65.3486
 21
-909.059
  0
LINE
  8
0
 10
65.3486
 20
-909.059
 11
65.0566
 21
-909.149
  0
LINE
  8
0
 10
65.0566
 20
-909.149
 11
64.7432
 21
-909.181
  0
LINE
  8
0
 10
64.7432
 20
-909.181
 11
64.4297
 21
-909.149
  0
LINE
  8
0
 10
-58.1445
 20
-909.149
 11
-58.4365
 21
-909.059
  0
LINE
  8
0
 10
-58.4365
 20
-909.059
 11
-58.7002
 21
-908.915
  0
LINE
  8
0
 10
-58.7002
 20
-908.915
 11
-58.9307
 21
-908.726
  0
LINE
  8
0
 10
-58.9307
 20
-908.726
 11
-59.1211
 21
-908.495
  0
LINE
  8
0
 10
-59.1211
 20
-908.495
 11
-59.2646
 21
-908.23
  0
LINE
  8
0
 10
-59.2646
 20
-908.23
 11
-59.3545
 21
-907.938
  0
LINE
  8
0
 10
-59.3545
 20
-907.938
 11
-59.3867
 21
-907.625
  0
LINE
  8
0
 10
-59.3867
 20
-907.625
 11
-59.3545
 21
-907.312
  0
LINE
  8
0
 10
-59.3545
 20
-907.312
 11
-59.2646
 21
-907.02
  0
LINE
  8
0
 10
-59.2646
 20
-907.02
 11
-59.1211
 21
-906.756
  0
LINE
  8
0
 10
-59.1211
 20
-906.756
 11
-58.9307
 21
-906.525
  0
LINE
  8
0
 10
-58.9307
 20
-906.525
 11
-58.7002
 21
-906.335
  0
LINE
  8
0
 10
-58.7002
 20
-906.335
 11
-58.4365
 21
-906.191
  0
LINE
  8
0
 10
-58.4365
 20
-906.191
 11
-58.1445
 21
-906.102
  0
LINE
  8
0
 10
-58.1445
 20
-906.102
 11
-57.8311
 21
-906.069
  0
LINE
  8
0
 10
-57.8311
 20
-906.069
 11
-57.5176
 21
-906.102
  0
LINE
  8
0
 10
-57.5176
 20
-906.102
 11
-57.2256
 21
-906.191
  0
LINE
  8
0
 10
-57.2256
 20
-906.191
 11
-56.9609
 21
-906.335
  0
LINE
  8
0
 10
-56.9609
 20
-906.335
 11
-56.7305
 21
-906.525
  0
LINE
  8
0
 10
-56.7305
 20
-906.525
 11
-56.541
 21
-906.756
  0
LINE
  8
0
 10
-56.541
 20
-906.756
 11
-56.3975
 21
-907.02
  0
LINE
  8
0
 10
-56.3975
 20
-907.02
 11
-56.3066
 21
-907.312
  0
LINE
  8
0
 10
-56.3066
 20
-907.312
 11
-56.2754
 21
-907.625
  0
LINE
  8
0
 10
-56.2754
 20
-907.625
 11
-56.3066
 21
-907.938
  0
LINE
  8
0
 10
-56.3066
 20
-907.938
 11
-56.3975
 21
-908.23
  0
LINE
  8
0
 10
-56.3975
 20
-908.23
 11
-56.541
 21
-908.495
  0
LINE
  8
0
 10
-56.541
 20
-908.495
 11
-56.7305
 21
-908.726
  0
LINE
  8
0
 10
-56.7305
 20
-908.726
 11
-56.9609
 21
-908.915
  0
LINE
  8
0
 10
-56.9609
 20
-908.915
 11
-57.2256
 21
-909.059
  0
LINE
  8
0
 10
-57.2256
 20
-909.059
 11
-57.5176
 21
-909.149
  0
LINE
  8
0
 10
-57.5176
 20
-909.149
 11
-57.8311
 21
-909.181
  0
LINE
  8
0
 10
-57.8311
 20
-909.181
 11
-58.1445
 21
-909.149
  0
LINE
  8
0
 10
-58.1445
 20
-914.232
 11
-58.4365
 21
-914.142
  0
LINE
  8
0
 10
-58.4365
 20
-914.142
 11
-58.7002
 21
-913.998
  0
LINE
  8
0
 10
-58.7002
 20
-913.998
 11
-58.9307
 21
-913.808
  0
LINE
  8
0
 10
-58.9307
 20
-913.808
 11
-59.1211
 21
-913.577
  0
LINE
  8
0
 10
-59.1211
 20
-913.577
 11
-59.2646
 21
-913.313
  0
LINE
  8
0
 10
-59.2646
 20
-913.313
 11
-59.3545
 21
-913.021
  0
LINE
  8
0
 10
-59.3545
 20
-913.021
 11
-59.3867
 21
-912.708
  0
LINE
  8
0
 10
-59.3867
 20
-912.708
 11
-59.3545
 21
-912.395
  0
LINE
  8
0
 10
-59.3545
 20
-912.395
 11
-59.2646
 21
-912.103
  0
LINE
  8
0
 10
-59.2646
 20
-912.103
 11
-59.1211
 21
-911.838
  0
LINE
  8
0
 10
-59.1211
 20
-911.838
 11
-58.9307
 21
-911.607
  0
LINE
  8
0
 10
-58.9307
 20
-911.607
 11
-58.7002
 21
-911.418
  0
LINE
  8
0
 10
-58.7002
 20
-911.418
 11
-58.4365
 21
-911.274
  0
LINE
  8
0
 10
-58.4365
 20
-911.274
 11
-58.1445
 21
-911.184
  0
LINE
  8
0
 10
-58.1445
 20
-911.184
 11
-57.8311
 21
-911.152
  0
LINE
  8
0
 10
-57.8311
 20
-911.152
 11
-57.5176
 21
-911.184
  0
LINE
  8
0
 10
-57.5176
 20
-911.184
 11
-57.2256
 21
-911.274
  0
LINE
  8
0
 10
-57.2256
 20
-911.274
 11
-56.9609
 21
-911.418
  0
LINE
  8
0
 10
-56.9609
 20
-911.418
 11
-56.7305
 21
-911.607
  0
LINE
  8
0
 10
-56.7305
 20
-911.607
 11
-56.541
 21
-911.838
  0
LINE
  8
0
 10
-56.541
 20
-911.838
 11
-56.3975
 21
-912.103
  0
LINE
  8
0
 10
-56.3975
 20
-912.103
 11
-56.3066
 21
-912.395
  0
LINE
  8
0
 10
-56.3066
 20
-912.395
 11
-56.2754
 21
-912.708
  0
LINE
  8
0
 10
-56.2754
 20
-912.708
 11
-56.3066
 21
-913.021
  0
LINE
  8
0
 10
-56.3066
 20
-913.021
 11
-56.3975
 21
-913.313
  0
LINE
  8
0
 10
-56.3975
 20
-913.313
 11
-56.541
 21
-913.577
  0
LINE
  8
0
 10
-56.541
 20
-913.577
 11
-56.7305
 21
-913.808
  0
LINE
  8
0
 10
-56.7305
 20
-913.808
 11
-56.9609
 21
-913.998
  0
LINE
  8
0
 10
-56.9609
 20
-913.998
 11
-57.2256
 21
-914.142
  0
LINE
  8
0
 10
-57.2256
 20
-914.142
 11
-57.5176
 21
-914.232
  0
LINE
  8
0
 10
-57.5176
 20
-914.232
 11
-57.8311
 21
-914.264
  0
LINE
  8
0
 10
-57.8311
 20
-914.264
 11
-58.1445
 21
-914.232
  0
LINE
  8
0
 10
64.4297
 20
-914.232
 11
64.1377
 21
-914.142
  0
LINE
  8
0
 10
64.1377
 20
-914.142
 11
63.874
 21
-913.998
  0
LINE
  8
0
 10
63.874
 20
-913.998
 11
63.6436
 21
-913.808
  0
LINE
  8
0
 10
63.6436
 20
-913.808
 11
63.4531
 21
-913.577
  0
LINE
  8
0
 10
63.4531
 20
-913.577
 11
63.3096
 21
-913.313
  0
LINE
  8
0
 10
63.3096
 20
-913.313
 11
63.2197
 21
-913.021
  0
LINE
  8
0
 10
63.2197
 20
-913.021
 11
63.1875
 21
-912.708
  0
LINE
  8
0
 10
63.1875
 20
-912.708
 11
63.2197
 21
-912.395
  0
LINE
  8
0
 10
63.2197
 20
-912.395
 11
63.3096
 21
-912.103
  0
LINE
  8
0
 10
63.3096
 20
-912.103
 11
63.4531
 21
-911.838
  0
LINE
  8
0
 10
63.4531
 20
-911.838
 11
63.6436
 21
-911.607
  0
LINE
  8
0
 10
63.6436
 20
-911.607
 11
63.874
 21
-911.418
  0
LINE
  8
0
 10
63.874
 20
-911.418
 11
64.1377
 21
-911.274
  0
LINE
  8
0
 10
64.1377
 20
-911.274
 11
64.4297
 21
-911.184
  0
LINE
  8
0
 10
64.4297
 20
-911.184
 11
64.7432
 21
-911.152
  0
LINE
  8
0
 10
64.7432
 20
-911.152
 11
65.0566
 21
-911.184
  0
LINE
  8
0
 10
65.0566
 20
-911.184
 11
65.3486
 21
-911.274
  0
LINE
  8
0
 10
65.3486
 20
-911.274
 11
65.6133
 21
-911.418
  0
LINE
  8
0
 10
65.6133
 20
-911.418
 11
65.8428
 21
-911.607
  0
LINE
  8
0
 10
65.8428
 20
-911.607
 11
66.0332
 21
-911.838
  0
LINE
  8
0
 10
66.0332
 20
-911.838
 11
66.1768
 21
-912.103
  0
LINE
  8
0
 10
66.1768
 20
-912.103
 11
66.2676
 21
-912.395
  0
LINE
  8
0
 10
66.2676
 20
-912.395
 11
66.2988
 21
-912.708
  0
LINE
  8
0
 10
66.2988
 20
-912.708
 11
66.2676
 21
-913.021
  0
LINE
  8
0
 10
66.2676
 20
-913.021
 11
66.1768
 21
-913.313
  0
LINE
  8
0
 10
66.1768
 20
-913.313
 11
66.0332
 21
-913.577
  0
LINE
  8
0
 10
66.0332
 20
-913.577
 11
65.8428
 21
-913.808
  0
LINE
  8
0
 10
65.8428
 20
-913.808
 11
65.6133
 21
-913.998
  0
LINE
  8
0
 10
65.6133
 20
-913.998
 11
65.3486
 21
-914.142
  0
LINE
  8
0
 10
65.3486
 20
-914.142
 11
65.0566
 21
-914.232
  0
LINE
  8
0
 10
65.0566
 20
-914.232
 11
64.7432
 21
-914.264
  0
LINE
  8
0
 10
64.7432
 20
-914.264
 11
64.4297
 21
-914.232
  0
LINE
  8
0
 10
64.4297
 20
-919.314
 11
64.1377
 21
-919.224
  0
LINE
  8
0
 10
64.1377
 20
-919.224
 11
63.874
 21
-919.08
  0
LINE
  8
0
 10
63.874
 20
-919.08
 11
63.6436
 21
-918.891
  0
LINE
  8
0
 10
63.6436
 20
-918.891
 11
63.4531
 21
-918.66
  0
LINE
  8
0
 10
63.4531
 20
-918.66
 11
63.3096
 21
-918.396
  0
LINE
  8
0
 10
63.3096
 20
-918.396
 11
63.2197
 21
-918.104
  0
LINE
  8
0
 10
63.2197
 20
-918.104
 11
63.1875
 21
-917.791
  0
LINE
  8
0
 10
63.1875
 20
-917.791
 11
63.2197
 21
-917.477
  0
LINE
  8
0
 10
63.2197
 20
-917.477
 11
63.3096
 21
-917.185
  0
LINE
  8
0
 10
63.3096
 20
-917.185
 11
63.4531
 21
-916.921
  0
LINE
  8
0
 10
63.4531
 20
-916.921
 11
63.6436
 21
-916.69
  0
LINE
  8
0
 10
63.6436
 20
-916.69
 11
63.874
 21
-916.501
  0
LINE
  8
0
 10
63.874
 20
-916.501
 11
64.1377
 21
-916.357
  0
LINE
  8
0
 10
64.1377
 20
-916.357
 11
64.4297
 21
-916.267
  0
LINE
  8
0
 10
64.4297
 20
-916.267
 11
64.7432
 21
-916.234
  0
LINE
  8
0
 10
64.7432
 20
-916.234
 11
65.0566
 21
-916.267
  0
LINE
  8
0
 10
65.0566
 20
-916.267
 11
65.3486
 21
-916.357
  0
LINE
  8
0
 10
65.3486
 20
-916.357
 11
65.6133
 21
-916.501
  0
LINE
  8
0
 10
65.6133
 20
-916.501
 11
65.8428
 21
-916.69
  0
LINE
  8
0
 10
65.8428
 20
-916.69
 11
66.0332
 21
-916.921
  0
LINE
  8
0
 10
66.0332
 20
-916.921
 11
66.1768
 21
-917.185
  0
LINE
  8
0
 10
66.1768
 20
-917.185
 11
66.2676
 21
-917.477
  0
LINE
  8
0
 10
66.2676
 20
-917.477
 11
66.2988
 21
-917.791
  0
LINE
  8
0
 10
66.2988
 20
-917.791
 11
66.2676
 21
-918.104
  0
LINE
  8
0
 10
66.2676
 20
-918.104
 11
66.1768
 21
-918.396
  0
LINE
  8
0
 10
66.1768
 20
-918.396
 11
66.0332
 21
-918.66
  0
LINE
  8
0
 10
66.0332
 20
-918.66
 11
65.8428
 21
-918.891
  0
LINE
  8
0
 10
65.8428
 20
-918.891
 11
65.6133
 21
-919.08
  0
LINE
  8
0
 10
65.6133
 20
-919.08
 11
65.3486
 21
-919.224
  0
LINE
  8
0
 10
65.3486
 20
-919.224
 11
65.0566
 21
-919.314
  0
LINE
  8
0
 10
65.0566
 20
-919.314
 11
64.7432
 21
-919.347
  0
LINE
  8
0
 10
64.7432
 20
-919.347
 11
64.4297
 21
-919.314
  0
LINE
  8
0
 10
-58.1445
 20
-919.314
 11
-58.4365
 21
-919.224
  0
LINE
  8
0
 10
-58.4365
 20
-919.224
 11
-58.7002
 21
-919.08
  0
LINE
  8
0
 10
-58.7002
 20
-919.08
 11
-58.9307
 21
-918.891
  0
LINE
  8
0
 10
-58.9307
 20
-918.891
 11
-59.1211
 21
-918.66
  0
LINE
  8
0
 10
-59.1211
 20
-918.66
 11
-59.2646
 21
-918.396
  0
LINE
  8
0
 10
-59.2646
 20
-918.396
 11
-59.3545
 21
-918.104
  0
LINE
  8
0
 10
-59.3545
 20
-918.104
 11
-59.3867
 21
-917.791
  0
LINE
  8
0
 10
-59.3867
 20
-917.791
 11
-59.3545
 21
-917.477
  0
LINE
  8
0
 10
-59.3545
 20
-917.477
 11
-59.2646
 21
-917.185
  0
LINE
  8
0
 10
-59.2646
 20
-917.185
 11
-59.1211
 21
-916.921
  0
LINE
  8
0
 10
-59.1211
 20
-916.921
 11
-58.9307
 21
-916.69
  0
LINE
  8
0
 10
-58.9307
 20
-916.69
 11
-58.7002
 21
-916.501
  0
LINE
  8
0
 10
-58.7002
 20
-916.501
 11
-58.4365
 21
-916.357
  0
LINE
  8
0
 10
-58.4365
 20
-916.357
 11
-58.1445
 21
-916.267
  0
LINE
  8
0
 10
-58.1445
 20
-916.267
 11
-57.8311
 21
-916.234
  0
LINE
  8
0
 10
-57.8311
 20
-916.234
 11
-57.5176
 21
-916.267
  0
LINE
  8
0
 10
-57.5176
 20
-916.267
 11
-57.2256
 21
-916.357
  0
LINE
  8
0
 10
-57.2256
 20
-916.357
 11
-56.9609
 21
-916.501
  0
LINE
  8
0
 10
-56.9609
 20
-916.501
 11
-56.7305
 21
-916.69
  0
LINE
  8
0
 10
-56.7305
 20
-916.69
 11
-56.541
 21
-916.921
  0
LINE
  8
0
 10
-56.541
 20
-916.921
 11
-56.3975
 21
-917.185
  0
LINE
  8
0
 10
-56.3975
 20
-917.185
 11
-56.3066
 21
-917.477
  0
LINE
  8
0
 10
-56.3066
 20
-917.477
 11
-56.2754
 21
-917.791
  0
LINE
  8
0
 10
-56.2754
 20
-917.791
 11
-56.3066
 21
-918.104
  0
LINE
  8
0
 10
-56.3066
 20
-918.104
 11
-56.3975
 21
-918.396
  0
LINE
  8
0
 10
-56.3975
 20
-918.396
 11
-56.541
 21
-918.66
  0
LINE
  8
0
 10
-56.541
 20
-918.66
 11
-56.7305
 21
-918.891
  0
LINE
  8
0
 10
-56.7305
 20
-918.891
 11
-56.9609
 21
-919.08
  0
LINE
  8
0
 10
-56.9609
 20
-919.08
 11
-57.2256
 21
-919.224
  0
LINE
  8
0
 10
-57.2256
 20
-919.224
 11
-57.5176
 21
-919.314
  0
LINE
  8
0
 10
-57.5176
 20
-919.314
 11
-57.8311
 21
-919.347
  0
LINE
  8
0
 10
-57.8311
 20
-919.347
 11
-58.1445
 21
-919.314
  0
LINE
  8
0
 10
64.4297
 20
-924.397
 11
64.1377
 21
-924.307
  0
LINE
  8
0
 10
64.1377
 20
-924.307
 11
63.874
 21
-924.163
  0
LINE
  8
0
 10
63.874
 20
-924.163
 11
63.6436
 21
-923.974
  0
LINE
  8
0
 10
63.6436
 20
-923.974
 11
63.4531
 21
-923.743
  0
LINE
  8
0
 10
63.4531
 20
-923.743
 11
63.3096
 21
-923.479
  0
LINE
  8
0
 10
63.3096
 20
-923.479
 11
63.2197
 21
-923.187
  0
LINE
  8
0
 10
63.2197
 20
-923.187
 11
63.1875
 21
-922.873
  0
LINE
  8
0
 10
63.1875
 20
-922.873
 11
63.2197
 21
-922.56
  0
LINE
  8
0
 10
63.2197
 20
-922.56
 11
63.3096
 21
-922.268
  0
LINE
  8
0
 10
63.3096
 20
-922.268
 11
63.4531
 21
-922.004
  0
LINE
  8
0
 10
63.4531
 20
-922.004
 11
63.6436
 21
-921.773
  0
LINE
  8
0
 10
63.6436
 20
-921.773
 11
63.874
 21
-921.583
  0
LINE
  8
0
 10
63.874
 20
-921.583
 11
64.1377
 21
-921.439
  0
LINE
  8
0
 10
64.1377
 20
-921.439
 11
64.4297
 21
-921.35
  0
LINE
  8
0
 10
64.4297
 20
-921.35
 11
64.7432
 21
-921.317
  0
LINE
  8
0
 10
64.7432
 20
-921.317
 11
65.0566
 21
-921.35
  0
LINE
  8
0
 10
65.0566
 20
-921.35
 11
65.3486
 21
-921.439
  0
LINE
  8
0
 10
65.3486
 20
-921.439
 11
65.6133
 21
-921.583
  0
LINE
  8
0
 10
65.6133
 20
-921.583
 11
65.8428
 21
-921.773
  0
LINE
  8
0
 10
65.8428
 20
-921.773
 11
66.0332
 21
-922.004
  0
LINE
  8
0
 10
66.0332
 20
-922.004
 11
66.1768
 21
-922.268
  0
LINE
  8
0
 10
66.1768
 20
-922.268
 11
66.2676
 21
-922.56
  0
LINE
  8
0
 10
66.2676
 20
-922.56
 11
66.2988
 21
-922.873
  0
LINE
  8
0
 10
66.2988
 20
-922.873
 11
66.2676
 21
-923.187
  0
LINE
  8
0
 10
66.2676
 20
-923.187
 11
66.1768
 21
-923.479
  0
LINE
  8
0
 10
66.1768
 20
-923.479
 11
66.0332
 21
-923.743
  0
LINE
  8
0
 10
66.0332
 20
-923.743
 11
65.8428
 21
-923.974
  0
LINE
  8
0
 10
65.8428
 20
-923.974
 11
65.6133
 21
-924.163
  0
LINE
  8
0
 10
65.6133
 20
-924.163
 11
65.3486
 21
-924.307
  0
LINE
  8
0
 10
65.3486
 20
-924.307
 11
65.0566
 21
-924.397
  0
LINE
  8
0
 10
65.0566
 20
-924.397
 11
64.7432
 21
-924.429
  0
LINE
  8
0
 10
64.7432
 20
-924.429
 11
64.4297
 21
-924.397
  0
LINE
  8
0
 10
-58.1445
 20
-924.397
 11
-58.4365
 21
-924.307
  0
LINE
  8
0
 10
-58.4365
 20
-924.307
 11
-58.7002
 21
-924.163
  0
LINE
  8
0
 10
-58.7002
 20
-924.163
 11
-58.9307
 21
-923.974
  0
LINE
  8
0
 10
-58.9307
 20
-923.974
 11
-59.1211
 21
-923.743
  0
LINE
  8
0
 10
-59.1211
 20
-923.743
 11
-59.2646
 21
-923.479
  0
LINE
  8
0
 10
-59.2646
 20
-923.479
 11
-59.3545
 21
-923.187
  0
LINE
  8
0
 10
-59.3545
 20
-923.187
 11
-59.3867
 21
-922.873
  0
LINE
  8
0
 10
-59.3867
 20
-922.873
 11
-59.3545
 21
-922.56
  0
LINE
  8
0
 10
-59.3545
 20
-922.56
 11
-59.2646
 21
-922.268
  0
LINE
  8
0
 10
-59.2646
 20
-922.268
 11
-59.1211
 21
-922.004
  0
LINE
  8
0
 10
-59.1211
 20
-922.004
 11
-58.9307
 21
-921.773
  0
LINE
  8
0
 10
-58.9307
 20
-921.773
 11
-58.7002
 21
-921.583
  0
LINE
  8
0
 10
-58.7002
 20
-921.583
 11
-58.4365
 21
-921.439
  0
LINE
  8
0
 10
-58.4365
 20
-921.439
 11
-58.1445
 21
-921.35
  0
LINE
  8
0
 10
-58.1445
 20
-921.35
 11
-57.8311
 21
-921.317
  0
LINE
  8
0
 10
-57.8311
 20
-921.317
 11
-57.5176
 21
-921.35
  0
LINE
  8
0
 10
-57.5176
 20
-921.35
 11
-57.2256
 21
-921.439
  0
LINE
  8
0
 10
-57.2256
 20
-921.439
 11
-56.9609
 21
-921.583
  0
LINE
  8
0
 10
-56.9609
 20
-921.583
 11
-56.7305
 21
-921.773
  0
LINE
  8
0
 10
-56.7305
 20
-921.773
 11
-56.541
 21
-922.004
  0
LINE
  8
0
 10
-56.541
 20
-922.004
 11
-56.3975
 21
-922.268
  0
LINE
  8
0
 10
-56.3975
 20
-922.268
 11
-56.3066
 21
-922.56
  0
LINE
  8
0
 10
-56.3066
 20
-922.56
 11
-56.2754
 21
-922.873
  0
LINE
  8
0
 10
-56.2754
 20
-922.873
 11
-56.3066
 21
-923.187
  0
LINE
  8
0
 10
-56.3066
 20
-923.187
 11
-56.3975
 21
-923.479
  0
LINE
  8
0
 10
-56.3975
 20
-923.479
 11
-56.541
 21
-923.743
  0
LINE
  8
0
 10
-56.541
 20
-923.743
 11
-56.7305
 21
-923.974
  0
LINE
  8
0
 10
-56.7305
 20
-923.974
 11
-56.9609
 21
-924.163
  0
LINE
  8
0
 10
-56.9609
 20
-924.163
 11
-57.2256
 21
-924.307
  0
LINE
  8
0
 10
-57.2256
 20
-924.307
 11
-57.5176
 21
-924.397
  0
LINE
  8
0
 10
-57.5176
 20
-924.397
 11
-57.8311
 21
-924.429
  0
LINE
  8
0
 10
-57.8311
 20
-924.429
 11
-58.1445
 21
-924.397
  0
LINE
  8
0
 10
64.4297
 20
-929.48
 11
64.1377
 21
-929.39
  0
LINE
  8
0
 10
64.1377
 20
-929.39
 11
63.874
 21
-929.246
  0
LINE
  8
0
 10
63.874
 20
-929.246
 11
63.6436
 21
-929.056
  0
LINE
  8
0
 10
63.6436
 20
-929.056
 11
63.4531
 21
-928.825
  0
LINE
  8
0
 10
63.4531
 20
-928.825
 11
63.3096
 21
-928.562
  0
LINE
  8
0
 10
63.3096
 20
-928.562
 11
63.2197
 21
-928.27
  0
LINE
  8
0
 10
63.2197
 20
-928.27
 11
63.1875
 21
-927.956
  0
LINE
  8
0
 10
63.1875
 20
-927.956
 11
63.2197
 21
-927.643
  0
LINE
  8
0
 10
63.2197
 20
-927.643
 11
63.3096
 21
-927.351
  0
LINE
  8
0
 10
63.3096
 20
-927.351
 11
63.4531
 21
-927.086
  0
LINE
  8
0
 10
63.4531
 20
-927.086
 11
63.6436
 21
-926.855
  0
LINE
  8
0
 10
63.6436
 20
-926.855
 11
63.874
 21
-926.666
  0
LINE
  8
0
 10
63.874
 20
-926.666
 11
64.1377
 21
-926.522
  0
LINE
  8
0
 10
64.1377
 20
-926.522
 11
64.4297
 21
-926.432
  0
LINE
  8
0
 10
64.4297
 20
-926.432
 11
64.7432
 21
-926.4
  0
LINE
  8
0
 10
64.7432
 20
-926.4
 11
65.0566
 21
-926.432
  0
LINE
  8
0
 10
65.0566
 20
-926.432
 11
65.3486
 21
-926.522
  0
LINE
  8
0
 10
65.3486
 20
-926.522
 11
65.6133
 21
-926.666
  0
LINE
  8
0
 10
65.6133
 20
-926.666
 11
65.8428
 21
-926.855
  0
LINE
  8
0
 10
65.8428
 20
-926.855
 11
66.0332
 21
-927.086
  0
LINE
  8
0
 10
66.0332
 20
-927.086
 11
66.1768
 21
-927.351
  0
LINE
  8
0
 10
66.1768
 20
-927.351
 11
66.2676
 21
-927.643
  0
LINE
  8
0
 10
66.2676
 20
-927.643
 11
66.2988
 21
-927.956
  0
LINE
  8
0
 10
66.2988
 20
-927.956
 11
66.2676
 21
-928.27
  0
LINE
  8
0
 10
66.2676
 20
-928.27
 11
66.1768
 21
-928.562
  0
LINE
  8
0
 10
66.1768
 20
-928.562
 11
66.0332
 21
-928.825
  0
LINE
  8
0
 10
66.0332
 20
-928.825
 11
65.8428
 21
-929.056
  0
LINE
  8
0
 10
65.8428
 20
-929.056
 11
65.6133
 21
-929.246
  0
LINE
  8
0
 10
65.6133
 20
-929.246
 11
65.3486
 21
-929.39
  0
LINE
  8
0
 10
65.3486
 20
-929.39
 11
65.0566
 21
-929.48
  0
LINE
  8
0
 10
65.0566
 20
-929.48
 11
64.7432
 21
-929.512
  0
LINE
  8
0
 10
64.7432
 20
-929.512
 11
64.4297
 21
-929.48
  0
LINE
  8
0
 10
-58.1445
 20
-929.48
 11
-58.4365
 21
-929.39
  0
LINE
  8
0
 10
-58.4365
 20
-929.39
 11
-58.7002
 21
-929.246
  0
LINE
  8
0
 10
-58.7002
 20
-929.246
 11
-58.9307
 21
-929.056
  0
LINE
  8
0
 10
-58.9307
 20
-929.056
 11
-59.1211
 21
-928.825
  0
LINE
  8
0
 10
-59.1211
 20
-928.825
 11
-59.2646
 21
-928.562
  0
LINE
  8
0
 10
-59.2646
 20
-928.562
 11
-59.3545
 21
-928.27
  0
LINE
  8
0
 10
-59.3545
 20
-928.27
 11
-59.3867
 21
-927.956
  0
LINE
  8
0
 10
-59.3867
 20
-927.956
 11
-59.3545
 21
-927.643
  0
LINE
  8
0
 10
-59.3545
 20
-927.643
 11
-59.2646
 21
-927.351
  0
LINE
  8
0
 10
-59.2646
 20
-927.351
 11
-59.1211
 21
-927.086
  0
LINE
  8
0
 10
-59.1211
 20
-927.086
 11
-58.9307
 21
-926.855
  0
LINE
  8
0
 10
-58.9307
 20
-926.855
 11
-58.7002
 21
-926.666
  0
LINE
  8
0
 10
-58.7002
 20
-926.666
 11
-58.4365
 21
-926.522
  0
LINE
  8
0
 10
-58.4365
 20
-926.522
 11
-58.1445
 21
-926.432
  0
LINE
  8
0
 10
-58.1445
 20
-926.432
 11
-57.8311
 21
-926.4
  0
LINE
  8
0
 10
-57.8311
 20
-926.4
 11
-57.5176
 21
-926.432
  0
LINE
  8
0
 10
-57.5176
 20
-926.432
 11
-57.2256
 21
-926.522
  0
LINE
  8
0
 10
-57.2256
 20
-926.522
 11
-56.9609
 21
-926.666
  0
LINE
  8
0
 10
-56.9609
 20
-926.666
 11
-56.7305
 21
-926.855
  0
LINE
  8
0
 10
-56.7305
 20
-926.855
 11
-56.541
 21
-927.086
  0
LINE
  8
0
 10
-56.541
 20
-927.086
 11
-56.3975
 21
-927.351
  0
LINE
  8
0
 10
-56.3975
 20
-927.351
 11
-56.3066
 21
-927.643
  0
LINE
  8
0
 10
-56.3066
 20
-927.643
 11
-56.2754
 21
-927.956
  0
LINE
  8
0
 10
-56.2754
 20
-927.956
 11
-56.3066
 21
-928.27
  0
LINE
  8
0
 10
-56.3066
 20
-928.27
 11
-56.3975
 21
-928.562
  0
LINE
  8
0
 10
-56.3975
 20
-928.562
 11
-56.541
 21
-928.825
  0
LINE
  8
0
 10
-56.541
 20
-928.825
 11
-56.7305
 21
-929.056
  0
LINE
  8
0
 10
-56.7305
 20
-929.056
 11
-56.9609
 21
-929.246
  0
LINE
  8
0
 10
-56.9609
 20
-929.246
 11
-57.2256
 21
-929.39
  0
LINE
  8
0
 10
-57.2256
 20
-929.39
 11
-57.5176
 21
-929.48
  0
LINE
  8
0
 10
-57.5176
 20
-929.48
 11
-57.8311
 21
-929.512
  0
LINE
  8
0
 10
-57.8311
 20
-929.512
 11
-58.1445
 21
-929.48
  0
LINE
  8
0
 10
64.4297
 20
-934.562
 11
64.1377
 21
-934.472
  0
LINE
  8
0
 10
64.1377
 20
-934.472
 11
63.874
 21
-934.328
  0
LINE
  8
0
 10
63.874
 20
-934.328
 11
63.6436
 21
-934.139
  0
LINE
  8
0
 10
63.6436
 20
-934.139
 11
63.4531
 21
-933.908
  0
LINE
  8
0
 10
63.4531
 20
-933.908
 11
63.3096
 21
-933.644
  0
LINE
  8
0
 10
63.3096
 20
-933.644
 11
63.2197
 21
-933.352
  0
LINE
  8
0
 10
63.2197
 20
-933.352
 11
63.1875
 21
-933.039
  0
LINE
  8
0
 10
63.1875
 20
-933.039
 11
63.2197
 21
-932.725
  0
LINE
  8
0
 10
63.2197
 20
-932.725
 11
63.3096
 21
-932.433
  0
LINE
  8
0
 10
63.3096
 20
-932.433
 11
63.4531
 21
-932.169
  0
LINE
  8
0
 10
63.4531
 20
-932.169
 11
63.6436
 21
-931.938
  0
LINE
  8
0
 10
63.6436
 20
-931.938
 11
63.874
 21
-931.748
  0
LINE
  8
0
 10
63.874
 20
-931.748
 11
64.1377
 21
-931.605
  0
LINE
  8
0
 10
64.1377
 20
-931.605
 11
64.4297
 21
-931.515
  0
LINE
  8
0
 10
64.4297
 20
-931.515
 11
64.7432
 21
-931.482
  0
LINE
  8
0
 10
64.7432
 20
-931.482
 11
65.0566
 21
-931.515
  0
LINE
  8
0
 10
65.0566
 20
-931.515
 11
65.3486
 21
-931.605
  0
LINE
  8
0
 10
65.3486
 20
-931.605
 11
65.6133
 21
-931.748
  0
LINE
  8
0
 10
65.6133
 20
-931.748
 11
65.8428
 21
-931.938
  0
LINE
  8
0
 10
65.8428
 20
-931.938
 11
66.0332
 21
-932.169
  0
LINE
  8
0
 10
66.0332
 20
-932.169
 11
66.1768
 21
-932.433
  0
LINE
  8
0
 10
66.1768
 20
-932.433
 11
66.2676
 21
-932.725
  0
LINE
  8
0
 10
66.2676
 20
-932.725
 11
66.2988
 21
-933.039
  0
LINE
  8
0
 10
66.2988
 20
-933.039
 11
66.2676
 21
-933.352
  0
LINE
  8
0
 10
66.2676
 20
-933.352
 11
66.1768
 21
-933.644
  0
LINE
  8
0
 10
66.1768
 20
-933.644
 11
66.0332
 21
-933.908
  0
LINE
  8
0
 10
66.0332
 20
-933.908
 11
65.8428
 21
-934.139
  0
LINE
  8
0
 10
65.8428
 20
-934.139
 11
65.6133
 21
-934.328
  0
LINE
  8
0
 10
65.6133
 20
-934.328
 11
65.3486
 21
-934.472
  0
LINE
  8
0
 10
65.3486
 20
-934.472
 11
65.0566
 21
-934.562
  0
LINE
  8
0
 10
65.0566
 20
-934.562
 11
64.7432
 21
-934.594
  0
LINE
  8
0
 10
64.7432
 20
-934.594
 11
64.4297
 21
-934.562
  0
LINE
  8
0
 10
-58.1445
 20
-934.562
 11
-58.4365
 21
-934.472
  0
LINE
  8
0
 10
-58.4365
 20
-934.472
 11
-58.7002
 21
-934.328
  0
LINE
  8
0
 10
-58.7002
 20
-934.328
 11
-58.9307
 21
-934.139
  0
LINE
  8
0
 10
-58.9307
 20
-934.139
 11
-59.1211
 21
-933.908
  0
LINE
  8
0
 10
-59.1211
 20
-933.908
 11
-59.2646
 21
-933.644
  0
LINE
  8
0
 10
-59.2646
 20
-933.644
 11
-59.3545
 21
-933.352
  0
LINE
  8
0
 10
-59.3545
 20
-933.352
 11
-59.3867
 21
-933.039
  0
LINE
  8
0
 10
-59.3867
 20
-933.039
 11
-59.3545
 21
-932.725
  0
LINE
  8
0
 10
-59.3545
 20
-932.725
 11
-59.2646
 21
-932.433
  0
LINE
  8
0
 10
-59.2646
 20
-932.433
 11
-59.1211
 21
-932.169
  0
LINE
  8
0
 10
-59.1211
 20
-932.169
 11
-58.9307
 21
-931.938
  0
LINE
  8
0
 10
-58.9307
 20
-931.938
 11
-58.7002
 21
-931.748
  0
LINE
  8
0
 10
-58.7002
 20
-931.748
 11
-58.4365
 21
-931.605
  0
LINE
  8
0
 10
-58.4365
 20
-931.605
 11
-58.1445
 21
-931.515
  0
LINE
  8
0
 10
-58.1445
 20
-931.515
 11
-57.8311
 21
-931.482
  0
LINE
  8
0
 10
-57.8311
 20
-931.482
 11
-57.5176
 21
-931.515
  0
LINE
  8
0
 10
-57.5176
 20
-931.515
 11
-57.2256
 21
-931.605
  0
LINE
  8
0
 10
-57.2256
 20
-931.605
 11
-56.9609
 21
-931.748
  0
LINE
  8
0
 10
-56.9609
 20
-931.748
 11
-56.7305
 21
-931.938
  0
LINE
  8
0
 10
-56.7305
 20
-931.938
 11
-56.541
 21
-932.169
  0
LINE
  8
0
 10
-56.541
 20
-932.169
 11
-56.3975
 21
-932.433
  0
LINE
  8
0
 10
-56.3975
 20
-932.433
 11
-56.3066
 21
-932.725
  0
LINE
  8
0
 10
-56.3066
 20
-932.725
 11
-56.2754
 21
-933.039
  0
LINE
  8
0
 10
-56.2754
 20
-933.039
 11
-56.3066
 21
-933.352
  0
LINE
  8
0
 10
-56.3066
 20
-933.352
 11
-56.3975
 21
-933.644
  0
LINE
  8
0
 10
-56.3975
 20
-933.644
 11
-56.541
 21
-933.908
  0
LINE
  8
0
 10
-56.541
 20
-933.908
 11
-56.7305
 21
-934.139
  0
LINE
  8
0
 10
-56.7305
 20
-934.139
 11
-56.9609
 21
-934.328
  0
LINE
  8
0
 10
-56.9609
 20
-934.328
 11
-57.2256
 21
-934.472
  0
LINE
  8
0
 10
-57.2256
 20
-934.472
 11
-57.5176
 21
-934.562
  0
LINE
  8
0
 10
-57.5176
 20
-934.562
 11
-57.8311
 21
-934.594
  0
LINE
  8
0
 10
-57.8311
 20
-934.594
 11
-58.1445
 21
-934.562
  0
LINE
  8
0
 10
64.4297
 20
-939.646
 11
64.1377
 21
-939.555
  0
LINE
  8
0
 10
64.1377
 20
-939.555
 11
63.874
 21
-939.411
  0
LINE
  8
0
 10
63.874
 20
-939.411
 11
63.6436
 21
-939.221
  0
LINE
  8
0
 10
63.6436
 20
-939.221
 11
63.4531
 21
-938.991
  0
LINE
  8
0
 10
63.4531
 20
-938.991
 11
63.3096
 21
-938.727
  0
LINE
  8
0
 10
63.3096
 20
-938.727
 11
63.2197
 21
-938.435
  0
LINE
  8
0
 10
63.2197
 20
-938.435
 11
63.1875
 21
-938.121
  0
LINE
  8
0
 10
63.1875
 20
-938.121
 11
63.2197
 21
-937.808
  0
LINE
  8
0
 10
63.2197
 20
-937.808
 11
63.3096
 21
-937.516
  0
LINE
  8
0
 10
63.3096
 20
-937.516
 11
63.4531
 21
-937.251
  0
LINE
  8
0
 10
63.4531
 20
-937.251
 11
63.6436
 21
-937.021
  0
LINE
  8
0
 10
63.6436
 20
-937.021
 11
63.874
 21
-936.831
  0
LINE
  8
0
 10
63.874
 20
-936.831
 11
64.1377
 21
-936.688
  0
LINE
  8
0
 10
64.1377
 20
-936.688
 11
64.4297
 21
-936.598
  0
LINE
  8
0
 10
64.4297
 20
-936.598
 11
64.7432
 21
-936.565
  0
LINE
  8
0
 10
64.7432
 20
-936.565
 11
65.0566
 21
-936.598
  0
LINE
  8
0
 10
65.0566
 20
-936.598
 11
65.3486
 21
-936.688
  0
LINE
  8
0
 10
65.3486
 20
-936.688
 11
65.6133
 21
-936.831
  0
LINE
  8
0
 10
65.6133
 20
-936.831
 11
65.8428
 21
-937.021
  0
LINE
  8
0
 10
65.8428
 20
-937.021
 11
66.0332
 21
-937.251
  0
LINE
  8
0
 10
66.0332
 20
-937.251
 11
66.1768
 21
-937.516
  0
LINE
  8
0
 10
66.1768
 20
-937.516
 11
66.2676
 21
-937.808
  0
LINE
  8
0
 10
66.2676
 20
-937.808
 11
66.2988
 21
-938.121
  0
LINE
  8
0
 10
66.2988
 20
-938.121
 11
66.2676
 21
-938.435
  0
LINE
  8
0
 10
66.2676
 20
-938.435
 11
66.1768
 21
-938.727
  0
LINE
  8
0
 10
66.1768
 20
-938.727
 11
66.0332
 21
-938.991
  0
LINE
  8
0
 10
66.0332
 20
-938.991
 11
65.8428
 21
-939.221
  0
LINE
  8
0
 10
65.8428
 20
-939.221
 11
65.6133
 21
-939.411
  0
LINE
  8
0
 10
65.6133
 20
-939.411
 11
65.3486
 21
-939.555
  0
LINE
  8
0
 10
65.3486
 20
-939.555
 11
65.0566
 21
-939.646
  0
LINE
  8
0
 10
65.0566
 20
-939.646
 11
64.7432
 21
-939.677
  0
LINE
  8
0
 10
64.7432
 20
-939.677
 11
64.4297
 21
-939.646
  0
LINE
  8
0
 10
-58.1445
 20
-939.646
 11
-58.4365
 21
-939.555
  0
LINE
  8
0
 10
-58.4365
 20
-939.555
 11
-58.7002
 21
-939.411
  0
LINE
  8
0
 10
-58.7002
 20
-939.411
 11
-58.9307
 21
-939.221
  0
LINE
  8
0
 10
-58.9307
 20
-939.221
 11
-59.1211
 21
-938.991
  0
LINE
  8
0
 10
-59.1211
 20
-938.991
 11
-59.2646
 21
-938.727
  0
LINE
  8
0
 10
-59.2646
 20
-938.727
 11
-59.3545
 21
-938.435
  0
LINE
  8
0
 10
-59.3545
 20
-938.435
 11
-59.3867
 21
-938.121
  0
LINE
  8
0
 10
-59.3867
 20
-938.121
 11
-59.3545
 21
-937.808
  0
LINE
  8
0
 10
-59.3545
 20
-937.808
 11
-59.2646
 21
-937.516
  0
LINE
  8
0
 10
-59.2646
 20
-937.516
 11
-59.1211
 21
-937.251
  0
LINE
  8
0
 10
-59.1211
 20
-937.251
 11
-58.9307
 21
-937.021
  0
LINE
  8
0
 10
-58.9307
 20
-937.021
 11
-58.7002
 21
-936.831
  0
LINE
  8
0
 10
-58.7002
 20
-936.831
 11
-58.4365
 21
-936.688
  0
LINE
  8
0
 10
-58.4365
 20
-936.688
 11
-58.1445
 21
-936.598
  0
LINE
  8
0
 10
-58.1445
 20
-936.598
 11
-57.8311
 21
-936.565
  0
LINE
  8
0
 10
-57.8311
 20
-936.565
 11
-57.5176
 21
-936.598
  0
LINE
  8
0
 10
-57.5176
 20
-936.598
 11
-57.2256
 21
-936.688
  0
LINE
  8
0
 10
-57.2256
 20
-936.688
 11
-56.9609
 21
-936.831
  0
LINE
  8
0
 10
-56.9609
 20
-936.831
 11
-56.7305
 21
-937.021
  0
LINE
  8
0
 10
-56.7305
 20
-937.021
 11
-56.541
 21
-937.251
  0
LINE
  8
0
 10
-56.541
 20
-937.251
 11
-56.3975
 21
-937.516
  0
LINE
  8
0
 10
-56.3975
 20
-937.516
 11
-56.3066
 21
-937.808
  0
LINE
  8
0
 10
-56.3066
 20
-937.808
 11
-56.2754
 21
-938.121
  0
LINE
  8
0
 10
-56.2754
 20
-938.121
 11
-56.3066
 21
-938.435
  0
LINE
  8
0
 10
-56.3066
 20
-938.435
 11
-56.3975
 21
-938.727
  0
LINE
  8
0
 10
-56.3975
 20
-938.727
 11
-56.541
 21
-938.991
  0
LINE
  8
0
 10
-56.541
 20
-938.991
 11
-56.7305
 21
-939.221
  0
LINE
  8
0
 10
-56.7305
 20
-939.221
 11
-56.9609
 21
-939.411
  0
LINE
  8
0
 10
-56.9609
 20
-939.411
 11
-57.2256
 21
-939.555
  0
LINE
  8
0
 10
-57.2256
 20
-939.555
 11
-57.5176
 21
-939.646
  0
LINE
  8
0
 10
-57.5176
 20
-939.646
 11
-57.8311
 21
-939.677
  0
LINE
  8
0
 10
-57.8311
 20
-939.677
 11
-58.1445
 21
-939.646
  0
LINE
  8
0
 10
64.4297
 20
-944.728
 11
64.1377
 21
-944.637
  0
LINE
  8
0
 10
64.1377
 20
-944.637
 11
63.874
 21
-944.494
  0
LINE
  8
0
 10
63.874
 20
-944.494
 11
63.6436
 21
-944.304
  0
LINE
  8
0
 10
63.6436
 20
-944.304
 11
63.4531
 21
-944.073
  0
LINE
  8
0
 10
63.4531
 20
-944.073
 11
63.3096
 21
-943.81
  0
LINE
  8
0
 10
63.3096
 20
-943.81
 11
63.2197
 21
-943.518
  0
LINE
  8
0
 10
63.2197
 20
-943.518
 11
63.1875
 21
-943.204
  0
LINE
  8
0
 10
63.1875
 20
-943.204
 11
63.2197
 21
-942.891
  0
LINE
  8
0
 10
63.2197
 20
-942.891
 11
63.3096
 21
-942.598
  0
LINE
  8
0
 10
63.3096
 20
-942.598
 11
63.4531
 21
-942.334
  0
LINE
  8
0
 10
63.4531
 20
-942.334
 11
63.6436
 21
-942.104
  0
LINE
  8
0
 10
63.6436
 20
-942.104
 11
63.874
 21
-941.914
  0
LINE
  8
0
 10
63.874
 20
-941.914
 11
64.1377
 21
-941.771
  0
LINE
  8
0
 10
64.1377
 20
-941.771
 11
64.4297
 21
-941.68
  0
LINE
  8
0
 10
64.4297
 20
-941.68
 11
64.7432
 21
-941.648
  0
LINE
  8
0
 10
64.7432
 20
-941.648
 11
65.0566
 21
-941.68
  0
LINE
  8
0
 10
65.0566
 20
-941.68
 11
65.3486
 21
-941.771
  0
LINE
  8
0
 10
65.3486
 20
-941.771
 11
65.6133
 21
-941.914
  0
LINE
  8
0
 10
65.6133
 20
-941.914
 11
65.8428
 21
-942.104
  0
LINE
  8
0
 10
65.8428
 20
-942.104
 11
66.0332
 21
-942.334
  0
LINE
  8
0
 10
66.0332
 20
-942.334
 11
66.1768
 21
-942.598
  0
LINE
  8
0
 10
66.1768
 20
-942.598
 11
66.2676
 21
-942.891
  0
LINE
  8
0
 10
66.2676
 20
-942.891
 11
66.2988
 21
-943.204
  0
LINE
  8
0
 10
66.2988
 20
-943.204
 11
66.2676
 21
-943.518
  0
LINE
  8
0
 10
66.2676
 20
-943.518
 11
66.1768
 21
-943.81
  0
LINE
  8
0
 10
66.1768
 20
-943.81
 11
66.0332
 21
-944.073
  0
LINE
  8
0
 10
66.0332
 20
-944.073
 11
65.8428
 21
-944.304
  0
LINE
  8
0
 10
65.8428
 20
-944.304
 11
65.6133
 21
-944.494
  0
LINE
  8
0
 10
65.6133
 20
-944.494
 11
65.3486
 21
-944.637
  0
LINE
  8
0
 10
65.3486
 20
-944.637
 11
65.0566
 21
-944.728
  0
LINE
  8
0
 10
65.0566
 20
-944.728
 11
64.7432
 21
-944.76
  0
LINE
  8
0
 10
64.7432
 20
-944.76
 11
64.4297
 21
-944.728
  0
LINE
  8
0
 10
-58.1445
 20
-944.728
 11
-58.4365
 21
-944.637
  0
LINE
  8
0
 10
-58.4365
 20
-944.637
 11
-58.7002
 21
-944.494
  0
LINE
  8
0
 10
-58.7002
 20
-944.494
 11
-58.9307
 21
-944.304
  0
LINE
  8
0
 10
-58.9307
 20
-944.304
 11
-59.1211
 21
-944.073
  0
LINE
  8
0
 10
-59.1211
 20
-944.073
 11
-59.2646
 21
-943.81
  0
LINE
  8
0
 10
-59.2646
 20
-943.81
 11
-59.3545
 21
-943.518
  0
LINE
  8
0
 10
-59.3545
 20
-943.518
 11
-59.3867
 21
-943.204
  0
LINE
  8
0
 10
-59.3867
 20
-943.204
 11
-59.3545
 21
-942.891
  0
LINE
  8
0
 10
-59.3545
 20
-942.891
 11
-59.2646
 21
-942.598
  0
LINE
  8
0
 10
-59.2646
 20
-942.598
 11
-59.1211
 21
-942.334
  0
LINE
  8
0
 10
-59.1211
 20
-942.334
 11
-58.9307
 21
-942.104
  0
LINE
  8
0
 10
-58.9307
 20
-942.104
 11
-58.7002
 21
-941.914
  0
LINE
  8
0
 10
-58.7002
 20
-941.914
 11
-58.4365
 21
-941.771
  0
LINE
  8
0
 10
-58.4365
 20
-941.771
 11
-58.1445
 21
-941.68
  0
LINE
  8
0
 10
-58.1445
 20
-941.68
 11
-57.8311
 21
-941.648
  0
LINE
  8
0
 10
-57.8311
 20
-941.648
 11
-57.5176
 21
-941.68
  0
LINE
  8
0
 10
-57.5176
 20
-941.68
 11
-57.2256
 21
-941.771
  0
LINE
  8
0
 10
-57.2256
 20
-941.771
 11
-56.9609
 21
-941.914
  0
LINE
  8
0
 10
-56.9609
 20
-941.914
 11
-56.7305
 21
-942.104
  0
LINE
  8
0
 10
-56.7305
 20
-942.104
 11
-56.541
 21
-942.334
  0
LINE
  8
0
 10
-56.541
 20
-942.334
 11
-56.3975
 21
-942.598
  0
LINE
  8
0
 10
-56.3975
 20
-942.598
 11
-56.3066
 21
-942.891
  0
LINE
  8
0
 10
-56.3066
 20
-942.891
 11
-56.2754
 21
-943.204
  0
LINE
  8
0
 10
-56.2754
 20
-943.204
 11
-56.3066
 21
-943.518
  0
LINE
  8
0
 10
-56.3066
 20
-943.518
 11
-56.3975
 21
-943.81
  0
LINE
  8
0
 10
-56.3975
 20
-943.81
 11
-56.541
 21
-944.073
  0
LINE
  8
0
 10
-56.541
 20
-944.073
 11
-56.7305
 21
-944.304
  0
LINE
  8
0
 10
-56.7305
 20
-944.304
 11
-56.9609
 21
-944.494
  0
LINE
  8
0
 10
-56.9609
 20
-944.494
 11
-57.2256
 21
-944.637
  0
LINE
  8
0
 10
-57.2256
 20
-944.637
 11
-57.5176
 21
-944.728
  0
LINE
  8
0
 10
-57.5176
 20
-944.728
 11
-57.8311
 21
-944.76
  0
LINE
  8
0
 10
-57.8311
 20
-944.76
 11
-58.1445
 21
-944.728
  0
LINE
  8
0
 10
64.4297
 20
-949.811
 11
64.1377
 21
-949.72
  0
LINE
  8
0
 10
64.1377
 20
-949.72
 11
63.874
 21
-949.576
  0
LINE
  8
0
 10
63.874
 20
-949.576
 11
63.6436
 21
-949.387
  0
LINE
  8
0
 10
63.6436
 20
-949.387
 11
63.4531
 21
-949.156
  0
LINE
  8
0
 10
63.4531
 20
-949.156
 11
63.3096
 21
-948.892
  0
LINE
  8
0
 10
63.3096
 20
-948.892
 11
63.2197
 21
-948.6
  0
LINE
  8
0
 10
63.2197
 20
-948.6
 11
63.1875
 21
-948.286
  0
LINE
  8
0
 10
63.1875
 20
-948.286
 11
63.2197
 21
-947.973
  0
LINE
  8
0
 10
63.2197
 20
-947.973
 11
63.3096
 21
-947.681
  0
LINE
  8
0
 10
63.3096
 20
-947.681
 11
63.4531
 21
-947.417
  0
LINE
  8
0
 10
63.4531
 20
-947.417
 11
63.6436
 21
-947.187
  0
LINE
  8
0
 10
63.6436
 20
-947.187
 11
63.874
 21
-946.996
  0
LINE
  8
0
 10
63.874
 20
-946.996
 11
64.1377
 21
-946.853
  0
LINE
  8
0
 10
64.1377
 20
-946.853
 11
64.4297
 21
-946.763
  0
LINE
  8
0
 10
64.4297
 20
-946.763
 11
64.7432
 21
-946.73
  0
LINE
  8
0
 10
64.7432
 20
-946.73
 11
65.0566
 21
-946.763
  0
LINE
  8
0
 10
65.0566
 20
-946.763
 11
65.3486
 21
-946.853
  0
LINE
  8
0
 10
65.3486
 20
-946.853
 11
65.6133
 21
-946.996
  0
LINE
  8
0
 10
65.6133
 20
-946.996
 11
65.8428
 21
-947.187
  0
LINE
  8
0
 10
65.8428
 20
-947.187
 11
66.0332
 21
-947.417
  0
LINE
  8
0
 10
66.0332
 20
-947.417
 11
66.1768
 21
-947.681
  0
LINE
  8
0
 10
66.1768
 20
-947.681
 11
66.2676
 21
-947.973
  0
LINE
  8
0
 10
66.2676
 20
-947.973
 11
66.2988
 21
-948.286
  0
LINE
  8
0
 10
66.2988
 20
-948.286
 11
66.2676
 21
-948.6
  0
LINE
  8
0
 10
66.2676
 20
-948.6
 11
66.1768
 21
-948.892
  0
LINE
  8
0
 10
66.1768
 20
-948.892
 11
66.0332
 21
-949.156
  0
LINE
  8
0
 10
66.0332
 20
-949.156
 11
65.8428
 21
-949.387
  0
LINE
  8
0
 10
65.8428
 20
-949.387
 11
65.6133
 21
-949.576
  0
LINE
  8
0
 10
65.6133
 20
-949.576
 11
65.3486
 21
-949.72
  0
LINE
  8
0
 10
65.3486
 20
-949.72
 11
65.0566
 21
-949.811
  0
LINE
  8
0
 10
65.0566
 20
-949.811
 11
64.7432
 21
-949.842
  0
LINE
  8
0
 10
64.7432
 20
-949.842
 11
64.4297
 21
-949.811
  0
LINE
  8
0
 10
-58.1445
 20
-949.811
 11
-58.4365
 21
-949.72
  0
LINE
  8
0
 10
-58.4365
 20
-949.72
 11
-58.7002
 21
-949.576
  0
LINE
  8
0
 10
-58.7002
 20
-949.576
 11
-58.9307
 21
-949.387
  0
LINE
  8
0
 10
-58.9307
 20
-949.387
 11
-59.1211
 21
-949.156
  0
LINE
  8
0
 10
-59.1211
 20
-949.156
 11
-59.2646
 21
-948.892
  0
LINE
  8
0
 10
-59.2646
 20
-948.892
 11
-59.3545
 21
-948.6
  0
LINE
  8
0
 10
-59.3545
 20
-948.6
 11
-59.3867
 21
-948.286
  0
LINE
  8
0
 10
-59.3867
 20
-948.286
 11
-59.3545
 21
-947.973
  0
LINE
  8
0
 10
-59.3545
 20
-947.973
 11
-59.2646
 21
-947.681
  0
LINE
  8
0
 10
-59.2646
 20
-947.681
 11
-59.1211
 21
-947.417
  0
LINE
  8
0
 10
-59.1211
 20
-947.417
 11
-58.9307
 21
-947.187
  0
LINE
  8
0
 10
-58.9307
 20
-947.187
 11
-58.7002
 21
-946.996
  0
LINE
  8
0
 10
-58.7002
 20
-946.996
 11
-58.4365
 21
-946.853
  0
LINE
  8
0
 10
-58.4365
 20
-946.853
 11
-58.1445
 21
-946.763
  0
LINE
  8
0
 10
-58.1445
 20
-946.763
 11
-57.8311
 21
-946.73
  0
LINE
  8
0
 10
-57.8311
 20
-946.73
 11
-57.5176
 21
-946.763
  0
LINE
  8
0
 10
-57.5176
 20
-946.763
 11
-57.2256
 21
-946.853
  0
LINE
  8
0
 10
-57.2256
 20
-946.853
 11
-56.9609
 21
-946.996
  0
LINE
  8
0
 10
-56.9609
 20
-946.996
 11
-56.7305
 21
-947.187
  0
LINE
  8
0
 10
-56.7305
 20
-947.187
 11
-56.541
 21
-947.417
  0
LINE
  8
0
 10
-56.541
 20
-947.417
 11
-56.3975
 21
-947.681
  0
LINE
  8
0
 10
-56.3975
 20
-947.681
 11
-56.3066
 21
-947.973
  0
LINE
  8
0
 10
-56.3066
 20
-947.973
 11
-56.2754
 21
-948.286
  0
LINE
  8
0
 10
-56.2754
 20
-948.286
 11
-56.3066
 21
-948.6
  0
LINE
  8
0
 10
-56.3066
 20
-948.6
 11
-56.3975
 21
-948.892
  0
LINE
  8
0
 10
-56.3975
 20
-948.892
 11
-56.541
 21
-949.156
  0
LINE
  8
0
 10
-56.541
 20
-949.156
 11
-56.7305
 21
-949.387
  0
LINE
  8
0
 10
-56.7305
 20
-949.387
 11
-56.9609
 21
-949.576
  0
LINE
  8
0
 10
-56.9609
 20
-949.576
 11
-57.2256
 21
-949.72
  0
LINE
  8
0
 10
-57.2256
 20
-949.72
 11
-57.5176
 21
-949.811
  0
LINE
  8
0
 10
-57.5176
 20
-949.811
 11
-57.8311
 21
-949.842
  0
LINE
  8
0
 10
-57.8311
 20
-949.842
 11
-58.1445
 21
-949.811
  0
LINE
  8
0
 10
64.4297
 20
-954.894
 11
64.1377
 21
-954.803
  0
LINE
  8
0
 10
64.1377
 20
-954.803
 11
63.874
 21
-954.659
  0
LINE
  8
0
 10
63.874
 20
-954.659
 11
63.6436
 21
-954.469
  0
LINE
  8
0
 10
63.6436
 20
-954.469
 11
63.4531
 21
-954.238
  0
LINE
  8
0
 10
63.4531
 20
-954.238
 11
63.3096
 21
-953.975
  0
LINE
  8
0
 10
63.3096
 20
-953.975
 11
63.2197
 21
-953.683
  0
LINE
  8
0
 10
63.2197
 20
-953.683
 11
63.1875
 21
-953.369
  0
LINE
  8
0
 10
63.1875
 20
-953.369
 11
63.2197
 21
-953.056
  0
LINE
  8
0
 10
63.2197
 20
-953.056
 11
63.3096
 21
-952.764
  0
LINE
  8
0
 10
63.3096
 20
-952.764
 11
63.4531
 21
-952.499
  0
LINE
  8
0
 10
63.4531
 20
-952.499
 11
63.6436
 21
-952.269
  0
LINE
  8
0
 10
63.6436
 20
-952.269
 11
63.874
 21
-952.079
  0
LINE
  8
0
 10
63.874
 20
-952.079
 11
64.1377
 21
-951.936
  0
LINE
  8
0
 10
64.1377
 20
-951.936
 11
64.4297
 21
-951.845
  0
LINE
  8
0
 10
64.4297
 20
-951.845
 11
64.7432
 21
-951.813
  0
LINE
  8
0
 10
64.7432
 20
-951.813
 11
65.0566
 21
-951.845
  0
LINE
  8
0
 10
65.0566
 20
-951.845
 11
65.3486
 21
-951.936
  0
LINE
  8
0
 10
65.3486
 20
-951.936
 11
65.6133
 21
-952.079
  0
LINE
  8
0
 10
65.6133
 20
-952.079
 11
65.8428
 21
-952.269
  0
LINE
  8
0
 10
65.8428
 20
-952.269
 11
66.0332
 21
-952.499
  0
LINE
  8
0
 10
66.0332
 20
-952.499
 11
66.1768
 21
-952.764
  0
LINE
  8
0
 10
66.1768
 20
-952.764
 11
66.2676
 21
-953.056
  0
LINE
  8
0
 10
66.2676
 20
-953.056
 11
66.2988
 21
-953.369
  0
LINE
  8
0
 10
66.2988
 20
-953.369
 11
66.2676
 21
-953.683
  0
LINE
  8
0
 10
66.2676
 20
-953.683
 11
66.1768
 21
-953.975
  0
LINE
  8
0
 10
66.1768
 20
-953.975
 11
66.0332
 21
-954.238
  0
LINE
  8
0
 10
66.0332
 20
-954.238
 11
65.8428
 21
-954.469
  0
LINE
  8
0
 10
65.8428
 20
-954.469
 11
65.6133
 21
-954.659
  0
LINE
  8
0
 10
65.6133
 20
-954.659
 11
65.3486
 21
-954.803
  0
LINE
  8
0
 10
65.3486
 20
-954.803
 11
65.0566
 21
-954.894
  0
LINE
  8
0
 10
65.0566
 20
-954.894
 11
64.7432
 21
-954.925
  0
LINE
  8
0
 10
64.7432
 20
-954.925
 11
64.4297
 21
-954.894
  0
LINE
  8
0
 10
-58.1445
 20
-954.894
 11
-58.4365
 21
-954.803
  0
LINE
  8
0
 10
-58.4365
 20
-954.803
 11
-58.7002
 21
-954.659
  0
LINE
  8
0
 10
-58.7002
 20
-954.659
 11
-58.9307
 21
-954.469
  0
LINE
  8
0
 10
-58.9307
 20
-954.469
 11
-59.1211
 21
-954.238
  0
LINE
  8
0
 10
-59.1211
 20
-954.238
 11
-59.2646
 21
-953.975
  0
LINE
  8
0
 10
-59.2646
 20
-953.975
 11
-59.3545
 21
-953.683
  0
LINE
  8
0
 10
-59.3545
 20
-953.683
 11
-59.3867
 21
-953.369
  0
LINE
  8
0
 10
-59.3867
 20
-953.369
 11
-59.3545
 21
-953.056
  0
LINE
  8
0
 10
-59.3545
 20
-953.056
 11
-59.2646
 21
-952.764
  0
LINE
  8
0
 10
-59.2646
 20
-952.764
 11
-59.1211
 21
-952.499
  0
LINE
  8
0
 10
-59.1211
 20
-952.499
 11
-58.9307
 21
-952.269
  0
LINE
  8
0
 10
-58.9307
 20
-952.269
 11
-58.7002
 21
-952.079
  0
LINE
  8
0
 10
-58.7002
 20
-952.079
 11
-58.4365
 21
-951.936
  0
LINE
  8
0
 10
-58.4365
 20
-951.936
 11
-58.1445
 21
-951.845
  0
LINE
  8
0
 10
-58.1445
 20
-951.845
 11
-57.8311
 21
-951.813
  0
LINE
  8
0
 10
-57.8311
 20
-951.813
 11
-57.5176
 21
-951.845
  0
LINE
  8
0
 10
-57.5176
 20
-951.845
 11
-57.2256
 21
-951.936
  0
LINE
  8
0
 10
-57.2256
 20
-951.936
 11
-56.9609
 21
-952.079
  0
LINE
  8
0
 10
-56.9609
 20
-952.079
 11
-56.7305
 21
-952.269
  0
LINE
  8
0
 10
-56.7305
 20
-952.269
 11
-56.541
 21
-952.499
  0
LINE
  8
0
 10
-56.541
 20
-952.499
 11
-56.3975
 21
-952.764
  0
LINE
  8
0
 10
-56.3975
 20
-952.764
 11
-56.3066
 21
-953.056
  0
LINE
  8
0
 10
-56.3066
 20
-953.056
 11
-56.2754
 21
-953.369
  0
LINE
  8
0
 10
-56.2754
 20
-953.369
 11
-56.3066
 21
-953.683
  0
LINE
  8
0
 10
-56.3066
 20
-953.683
 11
-56.3975
 21
-953.975
  0
LINE
  8
0
 10
-56.3975
 20
-953.975
 11
-56.541
 21
-954.238
  0
LINE
  8
0
 10
-56.541
 20
-954.238
 11
-56.7305
 21
-954.469
  0
LINE
  8
0
 10
-56.7305
 20
-954.469
 11
-56.9609
 21
-954.659
  0
LINE
  8
0
 10
-56.9609
 20
-954.659
 11
-57.2256
 21
-954.803
  0
LINE
  8
0
 10
-57.2256
 20
-954.803
 11
-57.5176
 21
-954.894
  0
LINE
  8
0
 10
-57.5176
 20
-954.894
 11
-57.8311
 21
-954.925
  0
LINE
  8
0
 10
-57.8311
 20
-954.925
 11
-58.1445
 21
-954.894
  0
LINE
  8
0
 10
64.4297
 20
-959.976
 11
64.1377
 21
-959.885
  0
LINE
  8
0
 10
64.1377
 20
-959.885
 11
63.874
 21
-959.741
  0
LINE
  8
0
 10
63.874
 20
-959.741
 11
63.6436
 21
-959.552
  0
LINE
  8
0
 10
63.6436
 20
-959.552
 11
63.4531
 21
-959.321
  0
LINE
  8
0
 10
63.4531
 20
-959.321
 11
63.3096
 21
-959.058
  0
LINE
  8
0
 10
63.3096
 20
-959.058
 11
63.2197
 21
-958.765
  0
LINE
  8
0
 10
63.2197
 20
-958.765
 11
63.1875
 21
-958.452
  0
LINE
  8
0
 10
63.1875
 20
-958.452
 11
63.2197
 21
-958.138
  0
LINE
  8
0
 10
63.2197
 20
-958.138
 11
63.3096
 21
-957.846
  0
LINE
  8
0
 10
63.3096
 20
-957.846
 11
63.4531
 21
-957.582
  0
LINE
  8
0
 10
63.4531
 20
-957.582
 11
63.6436
 21
-957.352
  0
LINE
  8
0
 10
63.6436
 20
-957.352
 11
63.874
 21
-957.162
  0
LINE
  8
0
 10
63.874
 20
-957.162
 11
64.1377
 21
-957.019
  0
LINE
  8
0
 10
64.1377
 20
-957.019
 11
64.4297
 21
-956.928
  0
LINE
  8
0
 10
64.4297
 20
-956.928
 11
64.7432
 21
-956.896
  0
LINE
  8
0
 10
64.7432
 20
-956.896
 11
65.0566
 21
-956.928
  0
LINE
  8
0
 10
65.0566
 20
-956.928
 11
65.3486
 21
-957.019
  0
LINE
  8
0
 10
65.3486
 20
-957.019
 11
65.6133
 21
-957.162
  0
LINE
  8
0
 10
65.6133
 20
-957.162
 11
65.8428
 21
-957.352
  0
LINE
  8
0
 10
65.8428
 20
-957.352
 11
66.0332
 21
-957.582
  0
LINE
  8
0
 10
66.0332
 20
-957.582
 11
66.1768
 21
-957.846
  0
LINE
  8
0
 10
66.1768
 20
-957.846
 11
66.2676
 21
-958.138
  0
LINE
  8
0
 10
66.2676
 20
-958.138
 11
66.2988
 21
-958.452
  0
LINE
  8
0
 10
66.2988
 20
-958.452
 11
66.2676
 21
-958.765
  0
LINE
  8
0
 10
66.2676
 20
-958.765
 11
66.1768
 21
-959.058
  0
LINE
  8
0
 10
66.1768
 20
-959.058
 11
66.0332
 21
-959.321
  0
LINE
  8
0
 10
66.0332
 20
-959.321
 11
65.8428
 21
-959.552
  0
LINE
  8
0
 10
65.8428
 20
-959.552
 11
65.6133
 21
-959.741
  0
LINE
  8
0
 10
65.6133
 20
-959.741
 11
65.3486
 21
-959.885
  0
LINE
  8
0
 10
65.3486
 20
-959.885
 11
65.0566
 21
-959.976
  0
LINE
  8
0
 10
65.0566
 20
-959.976
 11
64.7432
 21
-960.007
  0
LINE
  8
0
 10
64.7432
 20
-960.007
 11
64.4297
 21
-959.976
  0
LINE
  8
0
 10
-58.1445
 20
-959.976
 11
-58.4365
 21
-959.885
  0
LINE
  8
0
 10
-58.4365
 20
-959.885
 11
-58.7002
 21
-959.741
  0
LINE
  8
0
 10
-58.7002
 20
-959.741
 11
-58.9307
 21
-959.552
  0
LINE
  8
0
 10
-58.9307
 20
-959.552
 11
-59.1211
 21
-959.321
  0
LINE
  8
0
 10
-59.1211
 20
-959.321
 11
-59.2646
 21
-959.058
  0
LINE
  8
0
 10
-59.2646
 20
-959.058
 11
-59.3545
 21
-958.765
  0
LINE
  8
0
 10
-59.3545
 20
-958.765
 11
-59.3867
 21
-958.452
  0
LINE
  8
0
 10
-59.3867
 20
-958.452
 11
-59.3545
 21
-958.138
  0
LINE
  8
0
 10
-59.3545
 20
-958.138
 11
-59.2646
 21
-957.846
  0
LINE
  8
0
 10
-59.2646
 20
-957.846
 11
-59.1211
 21
-957.582
  0
LINE
  8
0
 10
-59.1211
 20
-957.582
 11
-58.9307
 21
-957.352
  0
LINE
  8
0
 10
-58.9307
 20
-957.352
 11
-58.7002
 21
-957.162
  0
LINE
  8
0
 10
-58.7002
 20
-957.162
 11
-58.4365
 21
-957.019
  0
LINE
  8
0
 10
-58.4365
 20
-957.019
 11
-58.1445
 21
-956.928
  0
LINE
  8
0
 10
-58.1445
 20
-956.928
 11
-57.8311
 21
-956.896
  0
LINE
  8
0
 10
-57.8311
 20
-956.896
 11
-57.5176
 21
-956.928
  0
LINE
  8
0
 10
-57.5176
 20
-956.928
 11
-57.2256
 21
-957.019
  0
LINE
  8
0
 10
-57.2256
 20
-957.019
 11
-56.9609
 21
-957.162
  0
LINE
  8
0
 10
-56.9609
 20
-957.162
 11
-56.7305
 21
-957.352
  0
LINE
  8
0
 10
-56.7305
 20
-957.352
 11
-56.541
 21
-957.582
  0
LINE
  8
0
 10
-56.541
 20
-957.582
 11
-56.3975
 21
-957.846
  0
LINE
  8
0
 10
-56.3975
 20
-957.846
 11
-56.3066
 21
-958.138
  0
LINE
  8
0
 10
-56.3066
 20
-958.138
 11
-56.2754
 21
-958.452
  0
LINE
  8
0
 10
-56.2754
 20
-958.452
 11
-56.3066
 21
-958.765
  0
LINE
  8
0
 10
-56.3066
 20
-958.765
 11
-56.3975
 21
-959.058
  0
LINE
  8
0
 10
-56.3975
 20
-959.058
 11
-56.541
 21
-959.321
  0
LINE
  8
0
 10
-56.541
 20
-959.321
 11
-56.7305
 21
-959.552
  0
LINE
  8
0
 10
-56.7305
 20
-959.552
 11
-56.9609
 21
-959.741
  0
LINE
  8
0
 10
-56.9609
 20
-959.741
 11
-57.2256
 21
-959.885
  0
LINE
  8
0
 10
-57.2256
 20
-959.885
 11
-57.5176
 21
-959.976
  0
LINE
  8
0
 10
-57.5176
 20
-959.976
 11
-57.8311
 21
-960.007
  0
LINE
  8
0
 10
-57.8311
 20
-960.007
 11
-58.1445
 21
-959.976
  0
LINE
  8
0
 10
-58.1445
 20
-965.059
 11
-58.4365
 21
-964.968
  0
LINE
  8
0
 10
-58.4365
 20
-964.968
 11
-58.7002
 21
-964.824
  0
LINE
  8
0
 10
-58.7002
 20
-964.824
 11
-58.9307
 21
-964.635
  0
LINE
  8
0
 10
-58.9307
 20
-964.635
 11
-59.1211
 21
-964.404
  0
LINE
  8
0
 10
-59.1211
 20
-964.404
 11
-59.2646
 21
-964.14
  0
LINE
  8
0
 10
-59.2646
 20
-964.14
 11
-59.3545
 21
-963.848
  0
LINE
  8
0
 10
-59.3545
 20
-963.848
 11
-59.3867
 21
-963.534
  0
LINE
  8
0
 10
-59.3867
 20
-963.534
 11
-59.3545
 21
-963.221
  0
LINE
  8
0
 10
-59.3545
 20
-963.221
 11
-59.2646
 21
-962.929
  0
LINE
  8
0
 10
-59.2646
 20
-962.929
 11
-59.1211
 21
-962.664
  0
LINE
  8
0
 10
-59.1211
 20
-962.664
 11
-58.9307
 21
-962.435
  0
LINE
  8
0
 10
-58.9307
 20
-962.435
 11
-58.7002
 21
-962.244
  0
LINE
  8
0
 10
-58.7002
 20
-962.244
 11
-58.4365
 21
-962.101
  0
LINE
  8
0
 10
-58.4365
 20
-962.101
 11
-58.1445
 21
-962.011
  0
LINE
  8
0
 10
-58.1445
 20
-962.011
 11
-57.8311
 21
-961.979
  0
LINE
  8
0
 10
-57.8311
 20
-961.979
 11
-57.5176
 21
-962.011
  0
LINE
  8
0
 10
-57.5176
 20
-962.011
 11
-57.2256
 21
-962.101
  0
LINE
  8
0
 10
-57.2256
 20
-962.101
 11
-56.9609
 21
-962.244
  0
LINE
  8
0
 10
-56.9609
 20
-962.244
 11
-56.7305
 21
-962.435
  0
LINE
  8
0
 10
-56.7305
 20
-962.435
 11
-56.541
 21
-962.664
  0
LINE
  8
0
 10
-56.541
 20
-962.664
 11
-56.3975
 21
-962.929
  0
LINE
  8
0
 10
-56.3975
 20
-962.929
 11
-56.3066
 21
-963.221
  0
LINE
  8
0
 10
-56.3066
 20
-963.221
 11
-56.2754
 21
-963.534
  0
LINE
  8
0
 10
-56.2754
 20
-963.534
 11
-56.3066
 21
-963.848
  0
LINE
  8
0
 10
-56.3066
 20
-963.848
 11
-56.3975
 21
-964.14
  0
LINE
  8
0
 10
-56.3975
 20
-964.14
 11
-56.541
 21
-964.404
  0
LINE
  8
0
 10
-56.541
 20
-964.404
 11
-56.7305
 21
-964.635
  0
LINE
  8
0
 10
-56.7305
 20
-964.635
 11
-56.9609
 21
-964.824
  0
LINE
  8
0
 10
-56.9609
 20
-964.824
 11
-57.2256
 21
-964.968
  0
LINE
  8
0
 10
-57.2256
 20
-964.968
 11
-57.5176
 21
-965.059
  0
LINE
  8
0
 10
-57.5176
 20
-965.059
 11
-57.8311
 21
-965.09
  0
LINE
  8
0
 10
-57.8311
 20
-965.09
 11
-58.1445
 21
-965.059
  0
LINE
  8
0
 10
64.4297
 20
-965.059
 11
64.1377
 21
-964.968
  0
LINE
  8
0
 10
64.1377
 20
-964.968
 11
63.874
 21
-964.824
  0
LINE
  8
0
 10
63.874
 20
-964.824
 11
63.6436
 21
-964.635
  0
LINE
  8
0
 10
63.6436
 20
-964.635
 11
63.4531
 21
-964.404
  0
LINE
  8
0
 10
63.4531
 20
-964.404
 11
63.3096
 21
-964.14
  0
LINE
  8
0
 10
63.3096
 20
-964.14
 11
63.2197
 21
-963.848
  0
LINE
  8
0
 10
63.2197
 20
-963.848
 11
63.1875
 21
-963.534
  0
LINE
  8
0
 10
63.1875
 20
-963.534
 11
63.2197
 21
-963.221
  0
LINE
  8
0
 10
63.2197
 20
-963.221
 11
63.3096
 21
-962.929
  0
LINE
  8
0
 10
63.3096
 20
-962.929
 11
63.4531
 21
-962.664
  0
LINE
  8
0
 10
63.4531
 20
-962.664
 11
63.6436
 21
-962.435
  0
LINE
  8
0
 10
63.6436
 20
-962.435
 11
63.874
 21
-962.244
  0
LINE
  8
0
 10
63.874
 20
-962.244
 11
64.1377
 21
-962.101
  0
LINE
  8
0
 10
64.1377
 20
-962.101
 11
64.4297
 21
-962.011
  0
LINE
  8
0
 10
64.4297
 20
-962.011
 11
64.7432
 21
-961.979
  0
LINE
  8
0
 10
64.7432
 20
-961.979
 11
65.0566
 21
-962.011
  0
LINE
  8
0
 10
65.0566
 20
-962.011
 11
65.3486
 21
-962.101
  0
LINE
  8
0
 10
65.3486
 20
-962.101
 11
65.6133
 21
-962.244
  0
LINE
  8
0
 10
65.6133
 20
-962.244
 11
65.8428
 21
-962.435
  0
LINE
  8
0
 10
65.8428
 20
-962.435
 11
66.0332
 21
-962.664
  0
LINE
  8
0
 10
66.0332
 20
-962.664
 11
66.1768
 21
-962.929
  0
LINE
  8
0
 10
66.1768
 20
-962.929
 11
66.2676
 21
-963.221
  0
LINE
  8
0
 10
66.2676
 20
-963.221
 11
66.2988
 21
-963.534
  0
LINE
  8
0
 10
66.2988
 20
-963.534
 11
66.2676
 21
-963.848
  0
LINE
  8
0
 10
66.2676
 20
-963.848
 11
66.1768
 21
-964.14
  0
LINE
  8
0
 10
66.1768
 20
-964.14
 11
66.0332
 21
-964.404
  0
LINE
  8
0
 10
66.0332
 20
-964.404
 11
65.8428
 21
-964.635
  0
LINE
  8
0
 10
65.8428
 20
-964.635
 11
65.6133
 21
-964.824
  0
LINE
  8
0
 10
65.6133
 20
-964.824
 11
65.3486
 21
-964.968
  0
LINE
  8
0
 10
65.3486
 20
-964.968
 11
65.0566
 21
-965.059
  0
LINE
  8
0
 10
65.0566
 20
-965.059
 11
64.7432
 21
-965.09
  0
LINE
  8
0
 10
64.7432
 20
-965.09
 11
64.4297
 21
-965.059
  0
LINE
  8
0
 10
-58.1445
 20
-970.142
 11
-58.4365
 21
-970.051
  0
LINE
  8
0
 10
-58.4365
 20
-970.051
 11
-58.7002
 21
-969.907
  0
LINE
  8
0
 10
-58.7002
 20
-969.907
 11
-58.9307
 21
-969.717
  0
LINE
  8
0
 10
-58.9307
 20
-969.717
 11
-59.1211
 21
-969.486
  0
LINE
  8
0
 10
-59.1211
 20
-969.486
 11
-59.2646
 21
-969.223
  0
LINE
  8
0
 10
-59.2646
 20
-969.223
 11
-59.3545
 21
-968.931
  0
LINE
  8
0
 10
-59.3545
 20
-968.931
 11
-59.3867
 21
-968.617
  0
LINE
  8
0
 10
-59.3867
 20
-968.617
 11
-59.3545
 21
-968.304
  0
LINE
  8
0
 10
-59.3545
 20
-968.304
 11
-59.2646
 21
-968.012
  0
LINE
  8
0
 10
-59.2646
 20
-968.012
 11
-59.1211
 21
-967.747
  0
LINE
  8
0
 10
-59.1211
 20
-967.747
 11
-58.9307
 21
-967.517
  0
LINE
  8
0
 10
-58.9307
 20
-967.517
 11
-58.7002
 21
-967.327
  0
LINE
  8
0
 10
-58.7002
 20
-967.327
 11
-58.4365
 21
-967.184
  0
LINE
  8
0
 10
-58.4365
 20
-967.184
 11
-58.1445
 21
-967.093
  0
LINE
  8
0
 10
-58.1445
 20
-967.093
 11
-57.8311
 21
-967.062
  0
LINE
  8
0
 10
-57.8311
 20
-967.062
 11
-57.5176
 21
-967.093
  0
LINE
  8
0
 10
-57.5176
 20
-967.093
 11
-57.2256
 21
-967.184
  0
LINE
  8
0
 10
-57.2256
 20
-967.184
 11
-56.9609
 21
-967.327
  0
LINE
  8
0
 10
-56.9609
 20
-967.327
 11
-56.7305
 21
-967.517
  0
LINE
  8
0
 10
-56.7305
 20
-967.517
 11
-56.541
 21
-967.747
  0
LINE
  8
0
 10
-56.541
 20
-967.747
 11
-56.3975
 21
-968.012
  0
LINE
  8
0
 10
-56.3975
 20
-968.012
 11
-56.3066
 21
-968.304
  0
LINE
  8
0
 10
-56.3066
 20
-968.304
 11
-56.2754
 21
-968.617
  0
LINE
  8
0
 10
-56.2754
 20
-968.617
 11
-56.3066
 21
-968.931
  0
LINE
  8
0
 10
-56.3066
 20
-968.931
 11
-56.3975
 21
-969.223
  0
LINE
  8
0
 10
-56.3975
 20
-969.223
 11
-56.541
 21
-969.486
  0
LINE
  8
0
 10
-56.541
 20
-969.486
 11
-56.7305
 21
-969.717
  0
LINE
  8
0
 10
-56.7305
 20
-969.717
 11
-56.9609
 21
-969.907
  0
LINE
  8
0
 10
-56.9609
 20
-969.907
 11
-57.2256
 21
-970.051
  0
LINE
  8
0
 10
-57.2256
 20
-970.051
 11
-57.5176
 21
-970.142
  0
LINE
  8
0
 10
-57.5176
 20
-970.142
 11
-57.8311
 21
-970.173
  0
LINE
  8
0
 10
-57.8311
 20
-970.173
 11
-58.1445
 21
-970.142
  0
LINE
  8
0
 10
64.4297
 20
-970.142
 11
64.1377
 21
-970.051
  0
LINE
  8
0
 10
64.1377
 20
-970.051
 11
63.874
 21
-969.907
  0
LINE
  8
0
 10
63.874
 20
-969.907
 11
63.6436
 21
-969.717
  0
LINE
  8
0
 10
63.6436
 20
-969.717
 11
63.4531
 21
-969.486
  0
LINE
  8
0
 10
63.4531
 20
-969.486
 11
63.3096
 21
-969.223
  0
LINE
  8
0
 10
63.3096
 20
-969.223
 11
63.2197
 21
-968.931
  0
LINE
  8
0
 10
63.2197
 20
-968.931
 11
63.1875
 21
-968.617
  0
LINE
  8
0
 10
63.1875
 20
-968.617
 11
63.2197
 21
-968.304
  0
LINE
  8
0
 10
63.2197
 20
-968.304
 11
63.3096
 21
-968.012
  0
LINE
  8
0
 10
63.3096
 20
-968.012
 11
63.4531
 21
-967.747
  0
LINE
  8
0
 10
63.4531
 20
-967.747
 11
63.6436
 21
-967.517
  0
LINE
  8
0
 10
63.6436
 20
-967.517
 11
63.874
 21
-967.327
  0
LINE
  8
0
 10
63.874
 20
-967.327
 11
64.1377
 21
-967.184
  0
LINE
  8
0
 10
64.1377
 20
-967.184
 11
64.4297
 21
-967.093
  0
LINE
  8
0
 10
64.4297
 20
-967.093
 11
64.7432
 21
-967.062
  0
LINE
  8
0
 10
64.7432
 20
-967.062
 11
65.0566
 21
-967.093
  0
LINE
  8
0
 10
65.0566
 20
-967.093
 11
65.3486
 21
-967.184
  0
LINE
  8
0
 10
65.3486
 20
-967.184
 11
65.6133
 21
-967.327
  0
LINE
  8
0
 10
65.6133
 20
-967.327
 11
65.8428
 21
-967.517
  0
LINE
  8
0
 10
65.8428
 20
-967.517
 11
66.0332
 21
-967.747
  0
LINE
  8
0
 10
66.0332
 20
-967.747
 11
66.1768
 21
-968.012
  0
LINE
  8
0
 10
66.1768
 20
-968.012
 11
66.2676
 21
-968.304
  0
LINE
  8
0
 10
66.2676
 20
-968.304
 11
66.2988
 21
-968.617
  0
LINE
  8
0
 10
66.2988
 20
-968.617
 11
66.2676
 21
-968.931
  0
LINE
  8
0
 10
66.2676
 20
-968.931
 11
66.1768
 21
-969.223
  0
LINE
  8
0
 10
66.1768
 20
-969.223
 11
66.0332
 21
-969.486
  0
LINE
  8
0
 10
66.0332
 20
-969.486
 11
65.8428
 21
-969.717
  0
LINE
  8
0
 10
65.8428
 20
-969.717
 11
65.6133
 21
-969.907
  0
LINE
  8
0
 10
65.6133
 20
-969.907
 11
65.3486
 21
-970.051
  0
LINE
  8
0
 10
65.3486
 20
-970.051
 11
65.0566
 21
-970.142
  0
LINE
  8
0
 10
65.0566
 20
-970.142
 11
64.7432
 21
-970.173
  0
LINE
  8
0
 10
64.7432
 20
-970.173
 11
64.4297
 21
-970.142
  0
LINE
  8
0
 10
-58.1445
 20
-975.224
 11
-58.4365
 21
-975.133
  0
LINE
  8
0
 10
-58.4365
 20
-975.133
 11
-58.7002
 21
-974.989
  0
LINE
  8
0
 10
-58.7002
 20
-974.989
 11
-58.9307
 21
-974.8
  0
LINE
  8
0
 10
-58.9307
 20
-974.8
 11
-59.1211
 21
-974.569
  0
LINE
  8
0
 10
-59.1211
 20
-974.569
 11
-59.2646
 21
-974.305
  0
LINE
  8
0
 10
-59.2646
 20
-974.305
 11
-59.3545
 21
-974.013
  0
LINE
  8
0
 10
-59.3545
 20
-974.013
 11
-59.3867
 21
-973.7
  0
LINE
  8
0
 10
-59.3867
 20
-973.7
 11
-59.3545
 21
-973.386
  0
LINE
  8
0
 10
-59.3545
 20
-973.386
 11
-59.2646
 21
-973.094
  0
LINE
  8
0
 10
-59.2646
 20
-973.094
 11
-59.1211
 21
-972.83
  0
LINE
  8
0
 10
-59.1211
 20
-972.83
 11
-58.9307
 21
-972.6
  0
LINE
  8
0
 10
-58.9307
 20
-972.6
 11
-58.7002
 21
-972.409
  0
LINE
  8
0
 10
-58.7002
 20
-972.409
 11
-58.4365
 21
-972.266
  0
LINE
  8
0
 10
-58.4365
 20
-972.266
 11
-58.1445
 21
-972.176
  0
LINE
  8
0
 10
-58.1445
 20
-972.176
 11
-57.8311
 21
-972.144
  0
LINE
  8
0
 10
-57.8311
 20
-972.144
 11
-57.5176
 21
-972.176
  0
LINE
  8
0
 10
-57.5176
 20
-972.176
 11
-57.2256
 21
-972.266
  0
LINE
  8
0
 10
-57.2256
 20
-972.266
 11
-56.9609
 21
-972.409
  0
LINE
  8
0
 10
-56.9609
 20
-972.409
 11
-56.7305
 21
-972.6
  0
LINE
  8
0
 10
-56.7305
 20
-972.6
 11
-56.541
 21
-972.83
  0
LINE
  8
0
 10
-56.541
 20
-972.83
 11
-56.3975
 21
-973.094
  0
LINE
  8
0
 10
-56.3975
 20
-973.094
 11
-56.3066
 21
-973.386
  0
LINE
  8
0
 10
-56.3066
 20
-973.386
 11
-56.2754
 21
-973.7
  0
LINE
  8
0
 10
-56.2754
 20
-973.7
 11
-56.3066
 21
-974.013
  0
LINE
  8
0
 10
-56.3066
 20
-974.013
 11
-56.3975
 21
-974.305
  0
LINE
  8
0
 10
-56.3975
 20
-974.305
 11
-56.541
 21
-974.569
  0
LINE
  8
0
 10
-56.541
 20
-974.569
 11
-56.7305
 21
-974.8
  0
LINE
  8
0
 10
-56.7305
 20
-974.8
 11
-56.9609
 21
-974.989
  0
LINE
  8
0
 10
-56.9609
 20
-974.989
 11
-57.2256
 21
-975.133
  0
LINE
  8
0
 10
-57.2256
 20
-975.133
 11
-57.5176
 21
-975.224
  0
LINE
  8
0
 10
-57.5176
 20
-975.224
 11
-57.8311
 21
-975.255
  0
LINE
  8
0
 10
-57.8311
 20
-975.255
 11
-58.1445
 21
-975.224
  0
LINE
  8
0
 10
64.4297
 20
-975.224
 11
64.1377
 21
-975.133
  0
LINE
  8
0
 10
64.1377
 20
-975.133
 11
63.874
 21
-974.989
  0
LINE
  8
0
 10
63.874
 20
-974.989
 11
63.6436
 21
-974.8
  0
LINE
  8
0
 10
63.6436
 20
-974.8
 11
63.4531
 21
-974.569
  0
LINE
  8
0
 10
63.4531
 20
-974.569
 11
63.3096
 21
-974.305
  0
LINE
  8
0
 10
63.3096
 20
-974.305
 11
63.2197
 21
-974.013
  0
LINE
  8
0
 10
63.2197
 20
-974.013
 11
63.1875
 21
-973.7
  0
LINE
  8
0
 10
63.1875
 20
-973.7
 11
63.2197
 21
-973.386
  0
LINE
  8
0
 10
63.2197
 20
-973.386
 11
63.3096
 21
-973.094
  0
LINE
  8
0
 10
63.3096
 20
-973.094
 11
63.4531
 21
-972.83
  0
LINE
  8
0
 10
63.4531
 20
-972.83
 11
63.6436
 21
-972.6
  0
LINE
  8
0
 10
63.6436
 20
-972.6
 11
63.874
 21
-972.409
  0
LINE
  8
0
 10
63.874
 20
-972.409
 11
64.1377
 21
-972.266
  0
LINE
  8
0
 10
64.1377
 20
-972.266
 11
64.4297
 21
-972.176
  0
LINE
  8
0
 10
64.4297
 20
-972.176
 11
64.7432
 21
-972.144
  0
LINE
  8
0
 10
64.7432
 20
-972.144
 11
65.0566
 21
-972.176
  0
LINE
  8
0
 10
65.0566
 20
-972.176
 11
65.3486
 21
-972.266
  0
LINE
  8
0
 10
65.3486
 20
-972.266
 11
65.6133
 21
-972.409
  0
LINE
  8
0
 10
65.6133
 20
-972.409
 11
65.8428
 21
-972.6
  0
LINE
  8
0
 10
65.8428
 20
-972.6
 11
66.0332
 21
-972.83
  0
LINE
  8
0
 10
66.0332
 20
-972.83
 11
66.1768
 21
-973.094
  0
LINE
  8
0
 10
66.1768
 20
-973.094
 11
66.2676
 21
-973.386
  0
LINE
  8
0
 10
66.2676
 20
-973.386
 11
66.2988
 21
-973.7
  0
LINE
  8
0
 10
66.2988
 20
-973.7
 11
66.2676
 21
-974.013
  0
LINE
  8
0
 10
66.2676
 20
-974.013
 11
66.1768
 21
-974.305
  0
LINE
  8
0
 10
66.1768
 20
-974.305
 11
66.0332
 21
-974.569
  0
LINE
  8
0
 10
66.0332
 20
-974.569
 11
65.8428
 21
-974.8
  0
LINE
  8
0
 10
65.8428
 20
-974.8
 11
65.6133
 21
-974.989
  0
LINE
  8
0
 10
65.6133
 20
-974.989
 11
65.3486
 21
-975.133
  0
LINE
  8
0
 10
65.3486
 20
-975.133
 11
65.0566
 21
-975.224
  0
LINE
  8
0
 10
65.0566
 20
-975.224
 11
64.7432
 21
-975.255
  0
LINE
  8
0
 10
64.7432
 20
-975.255
 11
64.4297
 21
-975.224
  0
LINE
  8
0
 10
-58.1445
 20
-980.307
 11
-58.4365
 21
-980.216
  0
LINE
  8
0
 10
-58.4365
 20
-980.216
 11
-58.7002
 21
-980.072
  0
LINE
  8
0
 10
-58.7002
 20
-980.072
 11
-58.9307
 21
-979.882
  0
LINE
  8
0
 10
-58.9307
 20
-979.882
 11
-59.1211
 21
-979.652
  0
LINE
  8
0
 10
-59.1211
 20
-979.652
 11
-59.2646
 21
-979.388
  0
LINE
  8
0
 10
-59.2646
 20
-979.388
 11
-59.3545
 21
-979.096
  0
LINE
  8
0
 10
-59.3545
 20
-979.096
 11
-59.3867
 21
-978.782
  0
LINE
  8
0
 10
-59.3867
 20
-978.782
 11
-59.3545
 21
-978.469
  0
LINE
  8
0
 10
-59.3545
 20
-978.469
 11
-59.2646
 21
-978.177
  0
LINE
  8
0
 10
-59.2646
 20
-978.177
 11
-59.1211
 21
-977.912
  0
LINE
  8
0
 10
-59.1211
 20
-977.912
 11
-58.9307
 21
-977.682
  0
LINE
  8
0
 10
-58.9307
 20
-977.682
 11
-58.7002
 21
-977.492
  0
LINE
  8
0
 10
-58.7002
 20
-977.492
 11
-58.4365
 21
-977.349
  0
LINE
  8
0
 10
-58.4365
 20
-977.349
 11
-58.1445
 21
-977.259
  0
LINE
  8
0
 10
-58.1445
 20
-977.259
 11
-57.8311
 21
-977.227
  0
LINE
  8
0
 10
-57.8311
 20
-977.227
 11
-57.5176
 21
-977.259
  0
LINE
  8
0
 10
-57.5176
 20
-977.259
 11
-57.2256
 21
-977.349
  0
LINE
  8
0
 10
-57.2256
 20
-977.349
 11
-56.9609
 21
-977.492
  0
LINE
  8
0
 10
-56.9609
 20
-977.492
 11
-56.7305
 21
-977.682
  0
LINE
  8
0
 10
-56.7305
 20
-977.682
 11
-56.541
 21
-977.912
  0
LINE
  8
0
 10
-56.541
 20
-977.912
 11
-56.3975
 21
-978.177
  0
LINE
  8
0
 10
-56.3975
 20
-978.177
 11
-56.3066
 21
-978.469
  0
LINE
  8
0
 10
-56.3066
 20
-978.469
 11
-56.2754
 21
-978.782
  0
LINE
  8
0
 10
-56.2754
 20
-978.782
 11
-56.3066
 21
-979.096
  0
LINE
  8
0
 10
-56.3066
 20
-979.096
 11
-56.3975
 21
-979.388
  0
LINE
  8
0
 10
-56.3975
 20
-979.388
 11
-56.541
 21
-979.652
  0
LINE
  8
0
 10
-56.541
 20
-979.652
 11
-56.7305
 21
-979.882
  0
LINE
  8
0
 10
-56.7305
 20
-979.882
 11
-56.9609
 21
-980.072
  0
LINE
  8
0
 10
-56.9609
 20
-980.072
 11
-57.2256
 21
-980.216
  0
LINE
  8
0
 10
-57.2256
 20
-980.216
 11
-57.5176
 21
-980.307
  0
LINE
  8
0
 10
-57.5176
 20
-980.307
 11
-57.8311
 21
-980.338
  0
LINE
  8
0
 10
-57.8311
 20
-980.338
 11
-58.1445
 21
-980.307
  0
LINE
  8
0
 10
64.4297
 20
-980.307
 11
64.1377
 21
-980.216
  0
LINE
  8
0
 10
64.1377
 20
-980.216
 11
63.874
 21
-980.072
  0
LINE
  8
0
 10
63.874
 20
-980.072
 11
63.6436
 21
-979.882
  0
LINE
  8
0
 10
63.6436
 20
-979.882
 11
63.4531
 21
-979.652
  0
LINE
  8
0
 10
63.4531
 20
-979.652
 11
63.3096
 21
-979.388
  0
LINE
  8
0
 10
63.3096
 20
-979.388
 11
63.2197
 21
-979.096
  0
LINE
  8
0
 10
63.2197
 20
-979.096
 11
63.1875
 21
-978.782
  0
LINE
  8
0
 10
63.1875
 20
-978.782
 11
63.2197
 21
-978.469
  0
LINE
  8
0
 10
63.2197
 20
-978.469
 11
63.3096
 21
-978.177
  0
LINE
  8
0
 10
63.3096
 20
-978.177
 11
63.4531
 21
-977.912
  0
LINE
  8
0
 10
63.4531
 20
-977.912
 11
63.6436
 21
-977.682
  0
LINE
  8
0
 10
63.6436
 20
-977.682
 11
63.874
 21
-977.492
  0
LINE
  8
0
 10
63.874
 20
-977.492
 11
64.1377
 21
-977.349
  0
LINE
  8
0
 10
64.1377
 20
-977.349
 11
64.4297
 21
-977.259
  0
LINE
  8
0
 10
64.4297
 20
-977.259
 11
64.7432
 21
-977.227
  0
LINE
  8
0
 10
64.7432
 20
-977.227
 11
65.0566
 21
-977.259
  0
LINE
  8
0
 10
65.0566
 20
-977.259
 11
65.3486
 21
-977.349
  0
LINE
  8
0
 10
65.3486
 20
-977.349
 11
65.6133
 21
-977.492
  0
LINE
  8
0
 10
65.6133
 20
-977.492
 11
65.8428
 21
-977.682
  0
LINE
  8
0
 10
65.8428
 20
-977.682
 11
66.0332
 21
-977.912
  0
LINE
  8
0
 10
66.0332
 20
-977.912
 11
66.1768
 21
-978.177
  0
LINE
  8
0
 10
66.1768
 20
-978.177
 11
66.2676
 21
-978.469
  0
LINE
  8
0
 10
66.2676
 20
-978.469
 11
66.2988
 21
-978.782
  0
LINE
  8
0
 10
66.2988
 20
-978.782
 11
66.2676
 21
-979.096
  0
LINE
  8
0
 10
66.2676
 20
-979.096
 11
66.1768
 21
-979.388
  0
LINE
  8
0
 10
66.1768
 20
-979.388
 11
66.0332
 21
-979.652
  0
LINE
  8
0
 10
66.0332
 20
-979.652
 11
65.8428
 21
-979.882
  0
LINE
  8
0
 10
65.8428
 20
-979.882
 11
65.6133
 21
-980.072
  0
LINE
  8
0
 10
65.6133
 20
-980.072
 11
65.3486
 21
-980.216
  0
LINE
  8
0
 10
65.3486
 20
-980.216
 11
65.0566
 21
-980.307
  0
LINE
  8
0
 10
65.0566
 20
-980.307
 11
64.7432
 21
-980.338
  0
LINE
  8
0
 10
64.7432
 20
-980.338
 11
64.4297
 21
-980.307
  0
LINE
  8
0
 10
64.4297
 20
-985.389
 11
64.1377
 21
-985.298
  0
LINE
  8
0
 10
64.1377
 20
-985.298
 11
63.874
 21
-985.154
  0
LINE
  8
0
 10
63.874
 20
-985.154
 11
63.6436
 21
-984.965
  0
LINE
  8
0
 10
63.6436
 20
-984.965
 11
63.4531
 21
-984.734
  0
LINE
  8
0
 10
63.4531
 20
-984.734
 11
63.3096
 21
-984.471
  0
LINE
  8
0
 10
63.3096
 20
-984.471
 11
63.2197
 21
-984.179
  0
LINE
  8
0
 10
63.2197
 20
-984.179
 11
63.1875
 21
-983.865
  0
LINE
  8
0
 10
63.1875
 20
-983.865
 11
63.2197
 21
-983.552
  0
LINE
  8
0
 10
63.2197
 20
-983.552
 11
63.3096
 21
-983.259
  0
LINE
  8
0
 10
63.3096
 20
-983.259
 11
63.4531
 21
-982.995
  0
LINE
  8
0
 10
63.4531
 20
-982.995
 11
63.6436
 21
-982.765
  0
LINE
  8
0
 10
63.6436
 20
-982.765
 11
63.874
 21
-982.575
  0
LINE
  8
0
 10
63.874
 20
-982.575
 11
64.1377
 21
-982.432
  0
LINE
  8
0
 10
64.1377
 20
-982.432
 11
64.4297
 21
-982.341
  0
LINE
  8
0
 10
64.4297
 20
-982.341
 11
64.7432
 21
-982.31
  0
LINE
  8
0
 10
64.7432
 20
-982.31
 11
65.0566
 21
-982.341
  0
LINE
  8
0
 10
65.0566
 20
-982.341
 11
65.3486
 21
-982.432
  0
LINE
  8
0
 10
65.3486
 20
-982.432
 11
65.6133
 21
-982.575
  0
LINE
  8
0
 10
65.6133
 20
-982.575
 11
65.8428
 21
-982.765
  0
LINE
  8
0
 10
65.8428
 20
-982.765
 11
66.0332
 21
-982.995
  0
LINE
  8
0
 10
66.0332
 20
-982.995
 11
66.1768
 21
-983.259
  0
LINE
  8
0
 10
66.1768
 20
-983.259
 11
66.2676
 21
-983.552
  0
LINE
  8
0
 10
66.2676
 20
-983.552
 11
66.2988
 21
-983.865
  0
LINE
  8
0
 10
66.2988
 20
-983.865
 11
66.2676
 21
-984.179
  0
LINE
  8
0
 10
66.2676
 20
-984.179
 11
66.1768
 21
-984.471
  0
LINE
  8
0
 10
66.1768
 20
-984.471
 11
66.0332
 21
-984.734
  0
LINE
  8
0
 10
66.0332
 20
-984.734
 11
65.8428
 21
-984.965
  0
LINE
  8
0
 10
65.8428
 20
-984.965
 11
65.6133
 21
-985.154
  0
LINE
  8
0
 10
65.6133
 20
-985.154
 11
65.3486
 21
-985.298
  0
LINE
  8
0
 10
65.3486
 20
-985.298
 11
65.0566
 21
-985.389
  0
LINE
  8
0
 10
65.0566
 20
-985.389
 11
64.7432
 21
-985.421
  0
LINE
  8
0
 10
64.7432
 20
-985.421
 11
64.4297
 21
-985.389
  0
LINE
  8
0
 10
-58.1445
 20
-985.389
 11
-58.4365
 21
-985.298
  0
LINE
  8
0
 10
-58.4365
 20
-985.298
 11
-58.7002
 21
-985.154
  0
LINE
  8
0
 10
-58.7002
 20
-985.154
 11
-58.9307
 21
-984.965
  0
LINE
  8
0
 10
-58.9307
 20
-984.965
 11
-59.1211
 21
-984.734
  0
LINE
  8
0
 10
-59.1211
 20
-984.734
 11
-59.2646
 21
-984.471
  0
LINE
  8
0
 10
-59.2646
 20
-984.471
 11
-59.3545
 21
-984.179
  0
LINE
  8
0
 10
-59.3545
 20
-984.179
 11
-59.3867
 21
-983.865
  0
LINE
  8
0
 10
-59.3867
 20
-983.865
 11
-59.3545
 21
-983.552
  0
LINE
  8
0
 10
-59.3545
 20
-983.552
 11
-59.2646
 21
-983.259
  0
LINE
  8
0
 10
-59.2646
 20
-983.259
 11
-59.1211
 21
-982.995
  0
LINE
  8
0
 10
-59.1211
 20
-982.995
 11
-58.9307
 21
-982.765
  0
LINE
  8
0
 10
-58.9307
 20
-982.765
 11
-58.7002
 21
-982.575
  0
LINE
  8
0
 10
-58.7002
 20
-982.575
 11
-58.4365
 21
-982.432
  0
LINE
  8
0
 10
-58.4365
 20
-982.432
 11
-58.1445
 21
-982.341
  0
LINE
  8
0
 10
-58.1445
 20
-982.341
 11
-57.8311
 21
-982.31
  0
LINE
  8
0
 10
-57.8311
 20
-982.31
 11
-57.5176
 21
-982.341
  0
LINE
  8
0
 10
-57.5176
 20
-982.341
 11
-57.2256
 21
-982.432
  0
LINE
  8
0
 10
-57.2256
 20
-982.432
 11
-56.9609
 21
-982.575
  0
LINE
  8
0
 10
-56.9609
 20
-982.575
 11
-56.7305
 21
-982.765
  0
LINE
  8
0
 10
-56.7305
 20
-982.765
 11
-56.541
 21
-982.995
  0
LINE
  8
0
 10
-56.541
 20
-982.995
 11
-56.3975
 21
-983.259
  0
LINE
  8
0
 10
-56.3975
 20
-983.259
 11
-56.3066
 21
-983.552
  0
LINE
  8
0
 10
-56.3066
 20
-983.552
 11
-56.2754
 21
-983.865
  0
LINE
  8
0
 10
-56.2754
 20
-983.865
 11
-56.3066
 21
-984.179
  0
LINE
  8
0
 10
-56.3066
 20
-984.179
 11
-56.3975
 21
-984.471
  0
LINE
  8
0
 10
-56.3975
 20
-984.471
 11
-56.541
 21
-984.734
  0
LINE
  8
0
 10
-56.541
 20
-984.734
 11
-56.7305
 21
-984.965
  0
LINE
  8
0
 10
-56.7305
 20
-984.965
 11
-56.9609
 21
-985.154
  0
LINE
  8
0
 10
-56.9609
 20
-985.154
 11
-57.2256
 21
-985.298
  0
LINE
  8
0
 10
-57.2256
 20
-985.298
 11
-57.5176
 21
-985.389
  0
LINE
  8
0
 10
-57.5176
 20
-985.389
 11
-57.8311
 21
-985.421
  0
LINE
  8
0
 10
-57.8311
 20
-985.421
 11
-58.1445
 21
-985.389
  0
LINE
  8
0
 10
-58.1445
 20
-990.472
 11
-58.4365
 21
-990.381
  0
LINE
  8
0
 10
-58.4365
 20
-990.381
 11
-58.7002
 21
-990.237
  0
LINE
  8
0
 10
-58.7002
 20
-990.237
 11
-58.9307
 21
-990.048
  0
LINE
  8
0
 10
-58.9307
 20
-990.048
 11
-59.1211
 21
-989.817
  0
LINE
  8
0
 10
-59.1211
 20
-989.817
 11
-59.2646
 21
-989.553
  0
LINE
  8
0
 10
-59.2646
 20
-989.553
 11
-59.3545
 21
-989.261
  0
LINE
  8
0
 10
-59.3545
 20
-989.261
 11
-59.3867
 21
-988.947
  0
LINE
  8
0
 10
-59.3867
 20
-988.947
 11
-59.3545
 21
-988.634
  0
LINE
  8
0
 10
-59.3545
 20
-988.634
 11
-59.2646
 21
-988.342
  0
LINE
  8
0
 10
-59.2646
 20
-988.342
 11
-59.1211
 21
-988.078
  0
LINE
  8
0
 10
-59.1211
 20
-988.078
 11
-58.9307
 21
-987.848
  0
LINE
  8
0
 10
-58.9307
 20
-987.848
 11
-58.7002
 21
-987.657
  0
LINE
  8
0
 10
-58.7002
 20
-987.657
 11
-58.4365
 21
-987.514
  0
LINE
  8
0
 10
-58.4365
 20
-987.514
 11
-58.1445
 21
-987.424
  0
LINE
  8
0
 10
-58.1445
 20
-987.424
 11
-57.8311
 21
-987.392
  0
LINE
  8
0
 10
-57.8311
 20
-987.392
 11
-57.5176
 21
-987.424
  0
LINE
  8
0
 10
-57.5176
 20
-987.424
 11
-57.2256
 21
-987.514
  0
LINE
  8
0
 10
-57.2256
 20
-987.514
 11
-56.9609
 21
-987.657
  0
LINE
  8
0
 10
-56.9609
 20
-987.657
 11
-56.7305
 21
-987.848
  0
LINE
  8
0
 10
-56.7305
 20
-987.848
 11
-56.541
 21
-988.078
  0
LINE
  8
0
 10
-56.541
 20
-988.078
 11
-56.3975
 21
-988.342
  0
LINE
  8
0
 10
-56.3975
 20
-988.342
 11
-56.3066
 21
-988.634
  0
LINE
  8
0
 10
-56.3066
 20
-988.634
 11
-56.2754
 21
-988.947
  0
LINE
  8
0
 10
-56.2754
 20
-988.947
 11
-56.3066
 21
-989.261
  0
LINE
  8
0
 10
-56.3066
 20
-989.261
 11
-56.3975
 21
-989.553
  0
LINE
  8
0
 10
-56.3975
 20
-989.553
 11
-56.541
 21
-989.817
  0
LINE
  8
0
 10
-56.541
 20
-989.817
 11
-56.7305
 21
-990.048
  0
LINE
  8
0
 10
-56.7305
 20
-990.048
 11
-56.9609
 21
-990.237
  0
LINE
  8
0
 10
-56.9609
 20
-990.237
 11
-57.2256
 21
-990.381
  0
LINE
  8
0
 10
-57.2256
 20
-990.381
 11
-57.5176
 21
-990.472
  0
LINE
  8
0
 10
-57.5176
 20
-990.472
 11
-57.8311
 21
-990.503
  0
LINE
  8
0
 10
-57.8311
 20
-990.503
 11
-58.1445
 21
-990.472
  0
LINE
  8
0
 10
64.4297
 20
-990.472
 11
64.1377
 21
-990.381
  0
LINE
  8
0
 10
64.1377
 20
-990.381
 11
63.874
 21
-990.237
  0
LINE
  8
0
 10
63.874
 20
-990.237
 11
63.6436
 21
-990.048
  0
LINE
  8
0
 10
63.6436
 20
-990.048
 11
63.4531
 21
-989.817
  0
LINE
  8
0
 10
63.4531
 20
-989.817
 11
63.3096
 21
-989.553
  0
LINE
  8
0
 10
63.3096
 20
-989.553
 11
63.2197
 21
-989.261
  0
LINE
  8
0
 10
63.2197
 20
-989.261
 11
63.1875
 21
-988.947
  0
LINE
  8
0
 10
63.1875
 20
-988.947
 11
63.2197
 21
-988.634
  0
LINE
  8
0
 10
63.2197
 20
-988.634
 11
63.3096
 21
-988.342
  0
LINE
  8
0
 10
63.3096
 20
-988.342
 11
63.4531
 21
-988.078
  0
LINE
  8
0
 10
63.4531
 20
-988.078
 11
63.6436
 21
-987.848
  0
LINE
  8
0
 10
63.6436
 20
-987.848
 11
63.874
 21
-987.657
  0
LINE
  8
0
 10
63.874
 20
-987.657
 11
64.1377
 21
-987.514
  0
LINE
  8
0
 10
64.1377
 20
-987.514
 11
64.4297
 21
-987.424
  0
LINE
  8
0
 10
64.4297
 20
-987.424
 11
64.7432
 21
-987.392
  0
LINE
  8
0
 10
64.7432
 20
-987.392
 11
65.0566
 21
-987.424
  0
LINE
  8
0
 10
65.0566
 20
-987.424
 11
65.3486
 21
-987.514
  0
LINE
  8
0
 10
65.3486
 20
-987.514
 11
65.6133
 21
-987.657
  0
LINE
  8
0
 10
65.6133
 20
-987.657
 11
65.8428
 21
-987.848
  0
LINE
  8
0
 10
65.8428
 20
-987.848
 11
66.0332
 21
-988.078
  0
LINE
  8
0
 10
66.0332
 20
-988.078
 11
66.1768
 21
-988.342
  0
LINE
  8
0
 10
66.1768
 20
-988.342
 11
66.2676
 21
-988.634
  0
LINE
  8
0
 10
66.2676
 20
-988.634
 11
66.2988
 21
-988.947
  0
LINE
  8
0
 10
66.2988
 20
-988.947
 11
66.2676
 21
-989.261
  0
LINE
  8
0
 10
66.2676
 20
-989.261
 11
66.1768
 21
-989.553
  0
LINE
  8
0
 10
66.1768
 20
-989.553
 11
66.0332
 21
-989.817
  0
LINE
  8
0
 10
66.0332
 20
-989.817
 11
65.8428
 21
-990.048
  0
LINE
  8
0
 10
65.8428
 20
-990.048
 11
65.6133
 21
-990.237
  0
LINE
  8
0
 10
65.6133
 20
-990.237
 11
65.3486
 21
-990.381
  0
LINE
  8
0
 10
65.3486
 20
-990.381
 11
65.0566
 21
-990.472
  0
LINE
  8
0
 10
65.0566
 20
-990.472
 11
64.7432
 21
-990.503
  0
LINE
  8
0
 10
64.7432
 20
-990.503
 11
64.4297
 21
-990.472
  0
LINE
  8
0
 10
-58.1445
 20
-995.555
 11
-58.4365
 21
-995.464
  0
LINE
  8
0
 10
-58.4365
 20
-995.464
 11
-58.7002
 21
-995.32
  0
LINE
  8
0
 10
-58.7002
 20
-995.32
 11
-58.9307
 21
-995.13
  0
LINE
  8
0
 10
-58.9307
 20
-995.13
 11
-59.1211
 21
-994.899
  0
LINE
  8
0
 10
-59.1211
 20
-994.899
 11
-59.2646
 21
-994.636
  0
LINE
  8
0
 10
-59.2646
 20
-994.636
 11
-59.3545
 21
-994.344
  0
LINE
  8
0
 10
-59.3545
 20
-994.344
 11
-59.3867
 21
-994.03
  0
LINE
  8
0
 10
-59.3867
 20
-994.03
 11
-59.3545
 21
-993.717
  0
LINE
  8
0
 10
-59.3545
 20
-993.717
 11
-59.2646
 21
-993.425
  0
LINE
  8
0
 10
-59.2646
 20
-993.425
 11
-59.1211
 21
-993.16
  0
LINE
  8
0
 10
-59.1211
 20
-993.16
 11
-58.9307
 21
-992.93
  0
LINE
  8
0
 10
-58.9307
 20
-992.93
 11
-58.7002
 21
-992.74
  0
LINE
  8
0
 10
-58.7002
 20
-992.74
 11
-58.4365
 21
-992.597
  0
LINE
  8
0
 10
-58.4365
 20
-992.597
 11
-58.1445
 21
-992.506
  0
LINE
  8
0
 10
-58.1445
 20
-992.506
 11
-57.8311
 21
-992.475
  0
LINE
  8
0
 10
-57.8311
 20
-992.475
 11
-57.5176
 21
-992.506
  0
LINE
  8
0
 10
-57.5176
 20
-992.506
 11
-57.2256
 21
-992.597
  0
LINE
  8
0
 10
-57.2256
 20
-992.597
 11
-56.9609
 21
-992.74
  0
LINE
  8
0
 10
-56.9609
 20
-992.74
 11
-56.7305
 21
-992.93
  0
LINE
  8
0
 10
-56.7305
 20
-992.93
 11
-56.541
 21
-993.16
  0
LINE
  8
0
 10
-56.541
 20
-993.16
 11
-56.3975
 21
-993.425
  0
LINE
  8
0
 10
-56.3975
 20
-993.425
 11
-56.3066
 21
-993.717
  0
LINE
  8
0
 10
-56.3066
 20
-993.717
 11
-56.2754
 21
-994.03
  0
LINE
  8
0
 10
-56.2754
 20
-994.03
 11
-56.3066
 21
-994.344
  0
LINE
  8
0
 10
-56.3066
 20
-994.344
 11
-56.3975
 21
-994.636
  0
LINE
  8
0
 10
-56.3975
 20
-994.636
 11
-56.541
 21
-994.899
  0
LINE
  8
0
 10
-56.541
 20
-994.899
 11
-56.7305
 21
-995.13
  0
LINE
  8
0
 10
-56.7305
 20
-995.13
 11
-56.9609
 21
-995.32
  0
LINE
  8
0
 10
-56.9609
 20
-995.32
 11
-57.2256
 21
-995.464
  0
LINE
  8
0
 10
-57.2256
 20
-995.464
 11
-57.5176
 21
-995.555
  0
LINE
  8
0
 10
-57.5176
 20
-995.555
 11
-57.8311
 21
-995.586
  0
LINE
  8
0
 10
-57.8311
 20
-995.586
 11
-58.1445
 21
-995.555
  0
LINE
  8
0
 10
64.4297
 20
-995.555
 11
64.1377
 21
-995.464
  0
LINE
  8
0
 10
64.1377
 20
-995.464
 11
63.874
 21
-995.32
  0
LINE
  8
0
 10
63.874
 20
-995.32
 11
63.6436
 21
-995.13
  0
LINE
  8
0
 10
63.6436
 20
-995.13
 11
63.4531
 21
-994.899
  0
LINE
  8
0
 10
63.4531
 20
-994.899
 11
63.3096
 21
-994.636
  0
LINE
  8
0
 10
63.3096
 20
-994.636
 11
63.2197
 21
-994.344
  0
LINE
  8
0
 10
63.2197
 20
-994.344
 11
63.1875
 21
-994.03
  0
LINE
  8
0
 10
63.1875
 20
-994.03
 11
63.2197
 21
-993.717
  0
LINE
  8
0
 10
63.2197
 20
-993.717
 11
63.3096
 21
-993.425
  0
LINE
  8
0
 10
63.3096
 20
-993.425
 11
63.4531
 21
-993.16
  0
LINE
  8
0
 10
63.4531
 20
-993.16
 11
63.6436
 21
-992.93
  0
LINE
  8
0
 10
63.6436
 20
-992.93
 11
63.874
 21
-992.74
  0
LINE
  8
0
 10
63.874
 20
-992.74
 11
64.1377
 21
-992.597
  0
LINE
  8
0
 10
64.1377
 20
-992.597
 11
64.4297
 21
-992.506
  0
LINE
  8
0
 10
64.4297
 20
-992.506
 11
64.7432
 21
-992.475
  0
LINE
  8
0
 10
64.7432
 20
-992.475
 11
65.0566
 21
-992.506
  0
LINE
  8
0
 10
65.0566
 20
-992.506
 11
65.3486
 21
-992.597
  0
LINE
  8
0
 10
65.3486
 20
-992.597
 11
65.6133
 21
-992.74
  0
LINE
  8
0
 10
65.6133
 20
-992.74
 11
65.8428
 21
-992.93
  0
LINE
  8
0
 10
65.8428
 20
-992.93
 11
66.0332
 21
-993.16
  0
LINE
  8
0
 10
66.0332
 20
-993.16
 11
66.1768
 21
-993.425
  0
LINE
  8
0
 10
66.1768
 20
-993.425
 11
66.2676
 21
-993.717
  0
LINE
  8
0
 10
66.2676
 20
-993.717
 11
66.2988
 21
-994.03
  0
LINE
  8
0
 10
66.2988
 20
-994.03
 11
66.2676
 21
-994.344
  0
LINE
  8
0
 10
66.2676
 20
-994.344
 11
66.1768
 21
-994.636
  0
LINE
  8
0
 10
66.1768
 20
-994.636
 11
66.0332
 21
-994.899
  0
LINE
  8
0
 10
66.0332
 20
-994.899
 11
65.8428
 21
-995.13
  0
LINE
  8
0
 10
65.8428
 20
-995.13
 11
65.6133
 21
-995.32
  0
LINE
  8
0
 10
65.6133
 20
-995.32
 11
65.3486
 21
-995.464
  0
LINE
  8
0
 10
65.3486
 20
-995.464
 11
65.0566
 21
-995.555
  0
LINE
  8
0
 10
65.0566
 20
-995.555
 11
64.7432
 21
-995.586
  0
LINE
  8
0
 10
64.7432
 20
-995.586
 11
64.4297
 21
-995.555
  0
LINE
  8
0
 10
64.4297
 20
-1000.64
 11
64.1377
 21
-1000.55
  0
LINE
  8
0
 10
64.1377
 20
-1000.55
 11
63.874
 21
-1000.4
  0
LINE
  8
0
 10
63.874
 20
-1000.4
 11
63.6436
 21
-1000.21
  0
LINE
  8
0
 10
63.6436
 20
-1000.21
 11
63.4531
 21
-999.982
  0
LINE
  8
0
 10
63.4531
 20
-999.982
 11
63.3096
 21
-999.719
  0
LINE
  8
0
 10
63.3096
 20
-999.719
 11
63.2197
 21
-999.426
  0
LINE
  8
0
 10
63.2197
 20
-999.426
 11
63.1875
 21
-999.113
  0
LINE
  8
0
 10
63.1875
 20
-999.113
 11
63.2197
 21
-998.799
  0
LINE
  8
0
 10
63.2197
 20
-998.799
 11
63.3096
 21
-998.507
  0
LINE
  8
0
 10
63.3096
 20
-998.507
 11
63.4531
 21
-998.243
  0
LINE
  8
0
 10
63.4531
 20
-998.243
 11
63.6436
 21
-998.013
  0
LINE
  8
0
 10
63.6436
 20
-998.013
 11
63.874
 21
-997.822
  0
LINE
  8
0
 10
63.874
 20
-997.822
 11
64.1377
 21
-997.68
  0
LINE
  8
0
 10
64.1377
 20
-997.68
 11
64.4297
 21
-997.589
  0
LINE
  8
0
 10
64.4297
 20
-997.589
 11
64.7432
 21
-997.557
  0
LINE
  8
0
 10
64.7432
 20
-997.557
 11
65.0566
 21
-997.589
  0
LINE
  8
0
 10
65.0566
 20
-997.589
 11
65.3486
 21
-997.68
  0
LINE
  8
0
 10
65.3486
 20
-997.68
 11
65.6133
 21
-997.822
  0
LINE
  8
0
 10
65.6133
 20
-997.822
 11
65.8428
 21
-998.013
  0
LINE
  8
0
 10
65.8428
 20
-998.013
 11
66.0332
 21
-998.243
  0
LINE
  8
0
 10
66.0332
 20
-998.243
 11
66.1768
 21
-998.507
  0
LINE
  8
0
 10
66.1768
 20
-998.507
 11
66.2676
 21
-998.799
  0
LINE
  8
0
 10
66.2676
 20
-998.799
 11
66.2988
 21
-999.113
  0
LINE
  8
0
 10
66.2988
 20
-999.113
 11
66.2676
 21
-999.426
  0
LINE
  8
0
 10
66.2676
 20
-999.426
 11
66.1768
 21
-999.719
  0
LINE
  8
0
 10
66.1768
 20
-999.719
 11
66.0332
 21
-999.982
  0
LINE
  8
0
 10
66.0332
 20
-999.982
 11
65.8428
 21
-1000.21
  0
LINE
  8
0
 10
65.8428
 20
-1000.21
 11
65.6133
 21
-1000.4
  0
LINE
  8
0
 10
65.6133
 20
-1000.4
 11
65.3486
 21
-1000.55
  0
LINE
  8
0
 10
65.3486
 20
-1000.55
 11
65.0566
 21
-1000.64
  0
LINE
  8
0
 10
65.0566
 20
-1000.64
 11
64.7432
 21
-1000.67
  0
LINE
  8
0
 10
64.7432
 20
-1000.67
 11
64.4297
 21
-1000.64
  0
LINE
  8
0
 10
-58.1445
 20
-1000.64
 11
-58.4365
 21
-1000.55
  0
LINE
  8
0
 10
-58.4365
 20
-1000.55
 11
-58.7002
 21
-1000.4
  0
LINE
  8
0
 10
-58.7002
 20
-1000.4
 11
-58.9307
 21
-1000.21
  0
LINE
  8
0
 10
-58.9307
 20
-1000.21
 11
-59.1211
 21
-999.982
  0
LINE
  8
0
 10
-59.1211
 20
-999.982
 11
-59.2646
 21
-999.719
  0
LINE
  8
0
 10
-59.2646
 20
-999.719
 11
-59.3545
 21
-999.426
  0
LINE
  8
0
 10
-59.3545
 20
-999.426
 11
-59.3867
 21
-999.113
  0
LINE
  8
0
 10
-59.3867
 20
-999.113
 11
-59.3545
 21
-998.799
  0
LINE
  8
0
 10
-59.3545
 20
-998.799
 11
-59.2646
 21
-998.507
  0
LINE
  8
0
 10
-59.2646
 20
-998.507
 11
-59.1211
 21
-998.243
  0
LINE
  8
0
 10
-59.1211
 20
-998.243
 11
-58.9307
 21
-998.013
  0
LINE
  8
0
 10
-58.9307
 20
-998.013
 11
-58.7002
 21
-997.822
  0
LINE
  8
0
 10
-58.7002
 20
-997.822
 11
-58.4365
 21
-997.68
  0
LINE
  8
0
 10
-58.4365
 20
-997.68
 11
-58.1445
 21
-997.589
  0
LINE
  8
0
 10
-58.1445
 20
-997.589
 11
-57.8311
 21
-997.557
  0
LINE
  8
0
 10
-57.8311
 20
-997.557
 11
-57.5176
 21
-997.589
  0
LINE
  8
0
 10
-57.5176
 20
-997.589
 11
-57.2256
 21
-997.68
  0
LINE
  8
0
 10
-57.2256
 20
-997.68
 11
-56.9609
 21
-997.822
  0
LINE
  8
0
 10
-56.9609
 20
-997.822
 11
-56.7305
 21
-998.013
  0
LINE
  8
0
 10
-56.7305
 20
-998.013
 11
-56.541
 21
-998.243
  0
LINE
  8
0
 10
-56.541
 20
-998.243
 11
-56.3975
 21
-998.507
  0
LINE
  8
0
 10
-56.3975
 20
-998.507
 11
-56.3066
 21
-998.799
  0
LINE
  8
0
 10
-56.3066
 20
-998.799
 11
-56.2754
 21
-999.113
  0
LINE
  8
0
 10
-56.2754
 20
-999.113
 11
-56.3066
 21
-999.426
  0
LINE
  8
0
 10
-56.3066
 20
-999.426
 11
-56.3975
 21
-999.719
  0
LINE
  8
0
 10
-56.3975
 20
-999.719
 11
-56.541
 21
-999.982
  0
LINE
  8
0
 10
-56.541
 20
-999.982
 11
-56.7305
 21
-1000.21
  0
LINE
  8
0
 10
-56.7305
 20
-1000.21
 11
-56.9609
 21
-1000.4
  0
LINE
  8
0
 10
-56.9609
 20
-1000.4
 11
-57.2256
 21
-1000.55
  0
LINE
  8
0
 10
-57.2256
 20
-1000.55
 11
-57.5176
 21
-1000.64
  0
LINE
  8
0
 10
-57.5176
 20
-1000.64
 11
-57.8311
 21
-1000.67
  0
LINE
  8
0
 10
-57.8311
 20
-1000.67
 11
-58.1445
 21
-1000.64
  0
LINE
  8
0
 10
64.4297
 20
-1005.72
 11
64.1377
 21
-1005.63
  0
LINE
  8
0
 10
64.1377
 20
-1005.63
 11
63.874
 21
-1005.49
  0
LINE
  8
0
 10
63.874
 20
-1005.49
 11
63.6436
 21
-1005.3
  0
LINE
  8
0
 10
63.6436
 20
-1005.3
 11
63.4531
 21
-1005.07
  0
LINE
  8
0
 10
63.4531
 20
-1005.07
 11
63.3096
 21
-1004.8
  0
LINE
  8
0
 10
63.3096
 20
-1004.8
 11
63.2197
 21
-1004.51
  0
LINE
  8
0
 10
63.2197
 20
-1004.51
 11
63.1875
 21
-1004.2
  0
LINE
  8
0
 10
63.1875
 20
-1004.2
 11
63.2197
 21
-1003.88
  0
LINE
  8
0
 10
63.2197
 20
-1003.88
 11
63.3096
 21
-1003.59
  0
LINE
  8
0
 10
63.3096
 20
-1003.59
 11
63.4531
 21
-1003.33
  0
LINE
  8
0
 10
63.4531
 20
-1003.33
 11
63.6436
 21
-1003.1
  0
LINE
  8
0
 10
63.6436
 20
-1003.1
 11
63.874
 21
-1002.91
  0
LINE
  8
0
 10
63.874
 20
-1002.91
 11
64.1377
 21
-1002.76
  0
LINE
  8
0
 10
64.1377
 20
-1002.76
 11
64.4297
 21
-1002.67
  0
LINE
  8
0
 10
64.4297
 20
-1002.67
 11
64.7432
 21
-1002.64
  0
LINE
  8
0
 10
64.7432
 20
-1002.64
 11
65.0566
 21
-1002.67
  0
LINE
  8
0
 10
65.0566
 20
-1002.67
 11
65.3486
 21
-1002.76
  0
LINE
  8
0
 10
65.3486
 20
-1002.76
 11
65.6133
 21
-1002.91
  0
LINE
  8
0
 10
65.6133
 20
-1002.91
 11
65.8428
 21
-1003.1
  0
LINE
  8
0
 10
65.8428
 20
-1003.1
 11
66.0332
 21
-1003.33
  0
LINE
  8
0
 10
66.0332
 20
-1003.33
 11
66.1768
 21
-1003.59
  0
LINE
  8
0
 10
66.1768
 20
-1003.59
 11
66.2676
 21
-1003.88
  0
LINE
  8
0
 10
66.2676
 20
-1003.88
 11
66.2988
 21
-1004.2
  0
LINE
  8
0
 10
66.2988
 20
-1004.2
 11
66.2676
 21
-1004.51
  0
LINE
  8
0
 10
66.2676
 20
-1004.51
 11
66.1768
 21
-1004.8
  0
LINE
  8
0
 10
66.1768
 20
-1004.8
 11
66.0332
 21
-1005.07
  0
LINE
  8
0
 10
66.0332
 20
-1005.07
 11
65.8428
 21
-1005.3
  0
LINE
  8
0
 10
65.8428
 20
-1005.3
 11
65.6133
 21
-1005.49
  0
LINE
  8
0
 10
65.6133
 20
-1005.49
 11
65.3486
 21
-1005.63
  0
LINE
  8
0
 10
65.3486
 20
-1005.63
 11
65.0566
 21
-1005.72
  0
LINE
  8
0
 10
65.0566
 20
-1005.72
 11
64.7432
 21
-1005.75
  0
LINE
  8
0
 10
64.7432
 20
-1005.75
 11
64.4297
 21
-1005.72
  0
LINE
  8
0
 10
-58.1445
 20
-1005.72
 11
-58.4365
 21
-1005.63
  0
LINE
  8
0
 10
-58.4365
 20
-1005.63
 11
-58.7002
 21
-1005.49
  0
LINE
  8
0
 10
-58.7002
 20
-1005.49
 11
-58.9307
 21
-1005.3
  0
LINE
  8
0
 10
-58.9307
 20
-1005.3
 11
-59.1211
 21
-1005.07
  0
LINE
  8
0
 10
-59.1211
 20
-1005.07
 11
-59.2646
 21
-1004.8
  0
LINE
  8
0
 10
-59.2646
 20
-1004.8
 11
-59.3545
 21
-1004.51
  0
LINE
  8
0
 10
-59.3545
 20
-1004.51
 11
-59.3867
 21
-1004.2
  0
LINE
  8
0
 10
-59.3867
 20
-1004.2
 11
-59.3545
 21
-1003.88
  0
LINE
  8
0
 10
-59.3545
 20
-1003.88
 11
-59.2646
 21
-1003.59
  0
LINE
  8
0
 10
-59.2646
 20
-1003.59
 11
-59.1211
 21
-1003.33
  0
LINE
  8
0
 10
-59.1211
 20
-1003.33
 11
-58.9307
 21
-1003.1
  0
LINE
  8
0
 10
-58.9307
 20
-1003.1
 11
-58.7002
 21
-1002.91
  0
LINE
  8
0
 10
-58.7002
 20
-1002.91
 11
-58.4365
 21
-1002.76
  0
LINE
  8
0
 10
-58.4365
 20
-1002.76
 11
-58.1445
 21
-1002.67
  0
LINE
  8
0
 10
-58.1445
 20
-1002.67
 11
-57.8311
 21
-1002.64
  0
LINE
  8
0
 10
-57.8311
 20
-1002.64
 11
-57.5176
 21
-1002.67
  0
LINE
  8
0
 10
-57.5176
 20
-1002.67
 11
-57.2256
 21
-1002.76
  0
LINE
  8
0
 10
-57.2256
 20
-1002.76
 11
-56.9609
 21
-1002.91
  0
LINE
  8
0
 10
-56.9609
 20
-1002.91
 11
-56.7305
 21
-1003.1
  0
LINE
  8
0
 10
-56.7305
 20
-1003.1
 11
-56.541
 21
-1003.33
  0
LINE
  8
0
 10
-56.541
 20
-1003.33
 11
-56.3975
 21
-1003.59
  0
LINE
  8
0
 10
-56.3975
 20
-1003.59
 11
-56.3066
 21
-1003.88
  0
LINE
  8
0
 10
-56.3066
 20
-1003.88
 11
-56.2754
 21
-1004.2
  0
LINE
  8
0
 10
-56.2754
 20
-1004.2
 11
-56.3066
 21
-1004.51
  0
LINE
  8
0
 10
-56.3066
 20
-1004.51
 11
-56.3975
 21
-1004.8
  0
LINE
  8
0
 10
-56.3975
 20
-1004.8
 11
-56.541
 21
-1005.07
  0
LINE
  8
0
 10
-56.541
 20
-1005.07
 11
-56.7305
 21
-1005.3
  0
LINE
  8
0
 10
-56.7305
 20
-1005.3
 11
-56.9609
 21
-1005.49
  0
LINE
  8
0
 10
-56.9609
 20
-1005.49
 11
-57.2256
 21
-1005.63
  0
LINE
  8
0
 10
-57.2256
 20
-1005.63
 11
-57.5176
 21
-1005.72
  0
LINE
  8
0
 10
-57.5176
 20
-1005.72
 11
-57.8311
 21
-1005.75
  0
LINE
  8
0
 10
-57.8311
 20
-1005.75
 11
-58.1445
 21
-1005.72
  0
LINE
  8
0
 10
-58.1445
 20
-1010.8
 11
-58.4365
 21
-1010.71
  0
LINE
  8
0
 10
-58.4365
 20
-1010.71
 11
-58.7002
 21
-1010.57
  0
LINE
  8
0
 10
-58.7002
 20
-1010.57
 11
-58.9307
 21
-1010.38
  0
LINE
  8
0
 10
-58.9307
 20
-1010.38
 11
-59.1211
 21
-1010.15
  0
LINE
  8
0
 10
-59.1211
 20
-1010.15
 11
-59.2646
 21
-1009.88
  0
LINE
  8
0
 10
-59.2646
 20
-1009.88
 11
-59.3545
 21
-1009.59
  0
LINE
  8
0
 10
-59.3545
 20
-1009.59
 11
-59.3867
 21
-1009.28
  0
LINE
  8
0
 10
-59.3867
 20
-1009.28
 11
-59.3545
 21
-1008.96
  0
LINE
  8
0
 10
-59.3545
 20
-1008.96
 11
-59.2646
 21
-1008.67
  0
LINE
  8
0
 10
-59.2646
 20
-1008.67
 11
-59.1211
 21
-1008.41
  0
LINE
  8
0
 10
-59.1211
 20
-1008.41
 11
-58.9307
 21
-1008.18
  0
LINE
  8
0
 10
-58.9307
 20
-1008.18
 11
-58.7002
 21
-1007.99
  0
LINE
  8
0
 10
-58.7002
 20
-1007.99
 11
-58.4365
 21
-1007.84
  0
LINE
  8
0
 10
-58.4365
 20
-1007.84
 11
-58.1445
 21
-1007.75
  0
LINE
  8
0
 10
-58.1445
 20
-1007.75
 11
-57.8311
 21
-1007.72
  0
LINE
  8
0
 10
-57.8311
 20
-1007.72
 11
-57.5176
 21
-1007.75
  0
LINE
  8
0
 10
-57.5176
 20
-1007.75
 11
-57.2256
 21
-1007.84
  0
LINE
  8
0
 10
-57.2256
 20
-1007.84
 11
-56.9609
 21
-1007.99
  0
LINE
  8
0
 10
-56.9609
 20
-1007.99
 11
-56.7305
 21
-1008.18
  0
LINE
  8
0
 10
-56.7305
 20
-1008.18
 11
-56.541
 21
-1008.41
  0
LINE
  8
0
 10
-56.541
 20
-1008.41
 11
-56.3975
 21
-1008.67
  0
LINE
  8
0
 10
-56.3975
 20
-1008.67
 11
-56.3066
 21
-1008.96
  0
LINE
  8
0
 10
-56.3066
 20
-1008.96
 11
-56.2754
 21
-1009.28
  0
LINE
  8
0
 10
-56.2754
 20
-1009.28
 11
-56.3066
 21
-1009.59
  0
LINE
  8
0
 10
-56.3066
 20
-1009.59
 11
-56.3975
 21
-1009.88
  0
LINE
  8
0
 10
-56.3975
 20
-1009.88
 11
-56.541
 21
-1010.15
  0
LINE
  8
0
 10
-56.541
 20
-1010.15
 11
-56.7305
 21
-1010.38
  0
LINE
  8
0
 10
-56.7305
 20
-1010.38
 11
-56.9609
 21
-1010.57
  0
LINE
  8
0
 10
-56.9609
 20
-1010.57
 11
-57.2256
 21
-1010.71
  0
LINE
  8
0
 10
-57.2256
 20
-1010.71
 11
-57.5176
 21
-1010.8
  0
LINE
  8
0
 10
-57.5176
 20
-1010.8
 11
-57.8311
 21
-1010.83
  0
LINE
  8
0
 10
-57.8311
 20
-1010.83
 11
-58.1445
 21
-1010.8
  0
LINE
  8
0
 10
64.4297
 20
-1010.8
 11
64.1377
 21
-1010.71
  0
LINE
  8
0
 10
64.1377
 20
-1010.71
 11
63.874
 21
-1010.57
  0
LINE
  8
0
 10
63.874
 20
-1010.57
 11
63.6436
 21
-1010.38
  0
LINE
  8
0
 10
63.6436
 20
-1010.38
 11
63.4531
 21
-1010.15
  0
LINE
  8
0
 10
63.4531
 20
-1010.15
 11
63.3096
 21
-1009.88
  0
LINE
  8
0
 10
63.3096
 20
-1009.88
 11
63.2197
 21
-1009.59
  0
LINE
  8
0
 10
63.2197
 20
-1009.59
 11
63.1875
 21
-1009.28
  0
LINE
  8
0
 10
63.1875
 20
-1009.28
 11
63.2197
 21
-1008.96
  0
LINE
  8
0
 10
63.2197
 20
-1008.96
 11
63.3096
 21
-1008.67
  0
LINE
  8
0
 10
63.3096
 20
-1008.67
 11
63.4531
 21
-1008.41
  0
LINE
  8
0
 10
63.4531
 20
-1008.41
 11
63.6436
 21
-1008.18
  0
LINE
  8
0
 10
63.6436
 20
-1008.18
 11
63.874
 21
-1007.99
  0
LINE
  8
0
 10
63.874
 20
-1007.99
 11
64.1377
 21
-1007.84
  0
LINE
  8
0
 10
64.1377
 20
-1007.84
 11
64.4297
 21
-1007.75
  0
LINE
  8
0
 10
64.4297
 20
-1007.75
 11
64.7432
 21
-1007.72
  0
LINE
  8
0
 10
64.7432
 20
-1007.72
 11
65.0566
 21
-1007.75
  0
LINE
  8
0
 10
65.0566
 20
-1007.75
 11
65.3486
 21
-1007.84
  0
LINE
  8
0
 10
65.3486
 20
-1007.84
 11
65.6133
 21
-1007.99
  0
LINE
  8
0
 10
65.6133
 20
-1007.99
 11
65.8428
 21
-1008.18
  0
LINE
  8
0
 10
65.8428
 20
-1008.18
 11
66.0332
 21
-1008.41
  0
LINE
  8
0
 10
66.0332
 20
-1008.41
 11
66.1768
 21
-1008.67
  0
LINE
  8
0
 10
66.1768
 20
-1008.67
 11
66.2676
 21
-1008.96
  0
LINE
  8
0
 10
66.2676
 20
-1008.96
 11
66.2988
 21
-1009.28
  0
LINE
  8
0
 10
66.2988
 20
-1009.28
 11
66.2676
 21
-1009.59
  0
LINE
  8
0
 10
66.2676
 20
-1009.59
 11
66.1768
 21
-1009.88
  0
LINE
  8
0
 10
66.1768
 20
-1009.88
 11
66.0332
 21
-1010.15
  0
LINE
  8
0
 10
66.0332
 20
-1010.15
 11
65.8428
 21
-1010.38
  0
LINE
  8
0
 10
65.8428
 20
-1010.38
 11
65.6133
 21
-1010.57
  0
LINE
  8
0
 10
65.6133
 20
-1010.57
 11
65.3486
 21
-1010.71
  0
LINE
  8
0
 10
65.3486
 20
-1010.71
 11
65.0566
 21
-1010.8
  0
LINE
  8
0
 10
65.0566
 20
-1010.8
 11
64.7432
 21
-1010.83
  0
LINE
  8
0
 10
64.7432
 20
-1010.83
 11
64.4297
 21
-1010.8
  0
LINE
  8
0
 10
-58.1445
 20
-1015.88
 11
-58.4365
 21
-1015.79
  0
LINE
  8
0
 10
-58.4365
 20
-1015.79
 11
-58.7002
 21
-1015.65
  0
LINE
  8
0
 10
-58.7002
 20
-1015.65
 11
-58.9307
 21
-1015.46
  0
LINE
  8
0
 10
-58.9307
 20
-1015.46
 11
-59.1211
 21
-1015.23
  0
LINE
  8
0
 10
-59.1211
 20
-1015.23
 11
-59.2646
 21
-1014.97
  0
LINE
  8
0
 10
-59.2646
 20
-1014.97
 11
-59.3545
 21
-1014.67
  0
LINE
  8
0
 10
-59.3545
 20
-1014.67
 11
-59.3867
 21
-1014.36
  0
LINE
  8
0
 10
-59.3867
 20
-1014.36
 11
-59.3545
 21
-1014.05
  0
LINE
  8
0
 10
-59.3545
 20
-1014.05
 11
-59.2646
 21
-1013.75
  0
LINE
  8
0
 10
-59.2646
 20
-1013.75
 11
-59.1211
 21
-1013.49
  0
LINE
  8
0
 10
-59.1211
 20
-1013.49
 11
-58.9307
 21
-1013.26
  0
LINE
  8
0
 10
-58.9307
 20
-1013.26
 11
-58.7002
 21
-1013.07
  0
LINE
  8
0
 10
-58.7002
 20
-1013.07
 11
-58.4365
 21
-1012.93
  0
LINE
  8
0
 10
-58.4365
 20
-1012.93
 11
-58.1445
 21
-1012.84
  0
LINE
  8
0
 10
-58.1445
 20
-1012.84
 11
-57.8311
 21
-1012.8
  0
LINE
  8
0
 10
-57.8311
 20
-1012.8
 11
-57.5176
 21
-1012.84
  0
LINE
  8
0
 10
-57.5176
 20
-1012.84
 11
-57.2256
 21
-1012.93
  0
LINE
  8
0
 10
-57.2256
 20
-1012.93
 11
-56.9609
 21
-1013.07
  0
LINE
  8
0
 10
-56.9609
 20
-1013.07
 11
-56.7305
 21
-1013.26
  0
LINE
  8
0
 10
-56.7305
 20
-1013.26
 11
-56.541
 21
-1013.49
  0
LINE
  8
0
 10
-56.541
 20
-1013.49
 11
-56.3975
 21
-1013.75
  0
LINE
  8
0
 10
-56.3975
 20
-1013.75
 11
-56.3066
 21
-1014.05
  0
LINE
  8
0
 10
-56.3066
 20
-1014.05
 11
-56.2754
 21
-1014.36
  0
LINE
  8
0
 10
-56.2754
 20
-1014.36
 11
-56.3066
 21
-1014.67
  0
LINE
  8
0
 10
-56.3066
 20
-1014.67
 11
-56.3975
 21
-1014.97
  0
LINE
  8
0
 10
-56.3975
 20
-1014.97
 11
-56.541
 21
-1015.23
  0
LINE
  8
0
 10
-56.541
 20
-1015.23
 11
-56.7305
 21
-1015.46
  0
LINE
  8
0
 10
-56.7305
 20
-1015.46
 11
-56.9609
 21
-1015.65
  0
LINE
  8
0
 10
-56.9609
 20
-1015.65
 11
-57.2256
 21
-1015.79
  0
LINE
  8
0
 10
-57.2256
 20
-1015.79
 11
-57.5176
 21
-1015.88
  0
LINE
  8
0
 10
-57.5176
 20
-1015.88
 11
-57.8311
 21
-1015.92
  0
LINE
  8
0
 10
-57.8311
 20
-1015.92
 11
-58.1445
 21
-1015.88
  0
LINE
  8
0
 10
64.4297
 20
-1015.88
 11
64.1377
 21
-1015.79
  0
LINE
  8
0
 10
64.1377
 20
-1015.79
 11
63.874
 21
-1015.65
  0
LINE
  8
0
 10
63.874
 20
-1015.65
 11
63.6436
 21
-1015.46
  0
LINE
  8
0
 10
63.6436
 20
-1015.46
 11
63.4531
 21
-1015.23
  0
LINE
  8
0
 10
63.4531
 20
-1015.23
 11
63.3096
 21
-1014.97
  0
LINE
  8
0
 10
63.3096
 20
-1014.97
 11
63.2197
 21
-1014.67
  0
LINE
  8
0
 10
63.2197
 20
-1014.67
 11
63.1875
 21
-1014.36
  0
LINE
  8
0
 10
63.1875
 20
-1014.36
 11
63.2197
 21
-1014.05
  0
LINE
  8
0
 10
63.2197
 20
-1014.05
 11
63.3096
 21
-1013.75
  0
LINE
  8
0
 10
63.3096
 20
-1013.75
 11
63.4531
 21
-1013.49
  0
LINE
  8
0
 10
63.4531
 20
-1013.49
 11
63.6436
 21
-1013.26
  0
LINE
  8
0
 10
63.6436
 20
-1013.26
 11
63.874
 21
-1013.07
  0
LINE
  8
0
 10
63.874
 20
-1013.07
 11
64.1377
 21
-1012.93
  0
LINE
  8
0
 10
64.1377
 20
-1012.93
 11
64.4297
 21
-1012.84
  0
LINE
  8
0
 10
64.4297
 20
-1012.84
 11
64.7432
 21
-1012.8
  0
LINE
  8
0
 10
64.7432
 20
-1012.8
 11
65.0566
 21
-1012.84
  0
LINE
  8
0
 10
65.0566
 20
-1012.84
 11
65.3486
 21
-1012.93
  0
LINE
  8
0
 10
65.3486
 20
-1012.93
 11
65.6133
 21
-1013.07
  0
LINE
  8
0
 10
65.6133
 20
-1013.07
 11
65.8428
 21
-1013.26
  0
LINE
  8
0
 10
65.8428
 20
-1013.26
 11
66.0332
 21
-1013.49
  0
LINE
  8
0
 10
66.0332
 20
-1013.49
 11
66.1768
 21
-1013.75
  0
LINE
  8
0
 10
66.1768
 20
-1013.75
 11
66.2676
 21
-1014.05
  0
LINE
  8
0
 10
66.2676
 20
-1014.05
 11
66.2988
 21
-1014.36
  0
LINE
  8
0
 10
66.2988
 20
-1014.36
 11
66.2676
 21
-1014.67
  0
LINE
  8
0
 10
66.2676
 20
-1014.67
 11
66.1768
 21
-1014.97
  0
LINE
  8
0
 10
66.1768
 20
-1014.97
 11
66.0332
 21
-1015.23
  0
LINE
  8
0
 10
66.0332
 20
-1015.23
 11
65.8428
 21
-1015.46
  0
LINE
  8
0
 10
65.8428
 20
-1015.46
 11
65.6133
 21
-1015.65
  0
LINE
  8
0
 10
65.6133
 20
-1015.65
 11
65.3486
 21
-1015.79
  0
LINE
  8
0
 10
65.3486
 20
-1015.79
 11
65.0566
 21
-1015.88
  0
LINE
  8
0
 10
65.0566
 20
-1015.88
 11
64.7432
 21
-1015.92
  0
LINE
  8
0
 10
64.7432
 20
-1015.92
 11
64.4297
 21
-1015.88
  0
LINE
  8
0
 10
-58.1445
 20
-1020.97
 11
-58.4365
 21
-1020.88
  0
LINE
  8
0
 10
-58.4365
 20
-1020.88
 11
-58.7002
 21
-1020.73
  0
LINE
  8
0
 10
-58.7002
 20
-1020.73
 11
-58.9307
 21
-1020.54
  0
LINE
  8
0
 10
-58.9307
 20
-1020.54
 11
-59.1211
 21
-1020.31
  0
LINE
  8
0
 10
-59.1211
 20
-1020.31
 11
-59.2646
 21
-1020.05
  0
LINE
  8
0
 10
-59.2646
 20
-1020.05
 11
-59.3545
 21
-1019.76
  0
LINE
  8
0
 10
-59.3545
 20
-1019.76
 11
-59.3867
 21
-1019.44
  0
LINE
  8
0
 10
-59.3867
 20
-1019.44
 11
-59.3545
 21
-1019.13
  0
LINE
  8
0
 10
-59.3545
 20
-1019.13
 11
-59.2646
 21
-1018.84
  0
LINE
  8
0
 10
-59.2646
 20
-1018.84
 11
-59.1211
 21
-1018.57
  0
LINE
  8
0
 10
-59.1211
 20
-1018.57
 11
-58.9307
 21
-1018.34
  0
LINE
  8
0
 10
-58.9307
 20
-1018.34
 11
-58.7002
 21
-1018.15
  0
LINE
  8
0
 10
-58.7002
 20
-1018.15
 11
-58.4365
 21
-1018.01
  0
LINE
  8
0
 10
-58.4365
 20
-1018.01
 11
-58.1445
 21
-1017.92
  0
LINE
  8
0
 10
-58.1445
 20
-1017.92
 11
-57.8311
 21
-1017.89
  0
LINE
  8
0
 10
-57.8311
 20
-1017.89
 11
-57.5176
 21
-1017.92
  0
LINE
  8
0
 10
-57.5176
 20
-1017.92
 11
-57.2256
 21
-1018.01
  0
LINE
  8
0
 10
-57.2256
 20
-1018.01
 11
-56.9609
 21
-1018.15
  0
LINE
  8
0
 10
-56.9609
 20
-1018.15
 11
-56.7305
 21
-1018.34
  0
LINE
  8
0
 10
-56.7305
 20
-1018.34
 11
-56.541
 21
-1018.57
  0
LINE
  8
0
 10
-56.541
 20
-1018.57
 11
-56.3975
 21
-1018.84
  0
LINE
  8
0
 10
-56.3975
 20
-1018.84
 11
-56.3066
 21
-1019.13
  0
LINE
  8
0
 10
-56.3066
 20
-1019.13
 11
-56.2754
 21
-1019.44
  0
LINE
  8
0
 10
-56.2754
 20
-1019.44
 11
-56.3066
 21
-1019.76
  0
LINE
  8
0
 10
-56.3066
 20
-1019.76
 11
-56.3975
 21
-1020.05
  0
LINE
  8
0
 10
-56.3975
 20
-1020.05
 11
-56.541
 21
-1020.31
  0
LINE
  8
0
 10
-56.541
 20
-1020.31
 11
-56.7305
 21
-1020.54
  0
LINE
  8
0
 10
-56.7305
 20
-1020.54
 11
-56.9609
 21
-1020.73
  0
LINE
  8
0
 10
-56.9609
 20
-1020.73
 11
-57.2256
 21
-1020.88
  0
LINE
  8
0
 10
-57.2256
 20
-1020.88
 11
-57.5176
 21
-1020.97
  0
LINE
  8
0
 10
-57.5176
 20
-1020.97
 11
-57.8311
 21
-1021
  0
LINE
  8
0
 10
-57.8311
 20
-1021
 11
-58.1445
 21
-1020.97
  0
LINE
  8
0
 10
64.4297
 20
-1020.97
 11
64.1377
 21
-1020.88
  0
LINE
  8
0
 10
64.1377
 20
-1020.88
 11
63.874
 21
-1020.73
  0
LINE
  8
0
 10
63.874
 20
-1020.73
 11
63.6436
 21
-1020.54
  0
LINE
  8
0
 10
63.6436
 20
-1020.54
 11
63.4531
 21
-1020.31
  0
LINE
  8
0
 10
63.4531
 20
-1020.31
 11
63.3096
 21
-1020.05
  0
LINE
  8
0
 10
63.3096
 20
-1020.05
 11
63.2197
 21
-1019.76
  0
LINE
  8
0
 10
63.2197
 20
-1019.76
 11
63.1875
 21
-1019.44
  0
LINE
  8
0
 10
63.1875
 20
-1019.44
 11
63.2197
 21
-1019.13
  0
LINE
  8
0
 10
63.2197
 20
-1019.13
 11
63.3096
 21
-1018.84
  0
LINE
  8
0
 10
63.3096
 20
-1018.84
 11
63.4531
 21
-1018.57
  0
LINE
  8
0
 10
63.4531
 20
-1018.57
 11
63.6436
 21
-1018.34
  0
LINE
  8
0
 10
63.6436
 20
-1018.34
 11
63.874
 21
-1018.15
  0
LINE
  8
0
 10
63.874
 20
-1018.15
 11
64.1377
 21
-1018.01
  0
LINE
  8
0
 10
64.1377
 20
-1018.01
 11
64.4297
 21
-1017.92
  0
LINE
  8
0
 10
64.4297
 20
-1017.92
 11
64.7432
 21
-1017.89
  0
LINE
  8
0
 10
64.7432
 20
-1017.89
 11
65.0566
 21
-1017.92
  0
LINE
  8
0
 10
65.0566
 20
-1017.92
 11
65.3486
 21
-1018.01
  0
LINE
  8
0
 10
65.3486
 20
-1018.01
 11
65.6133
 21
-1018.15
  0
LINE
  8
0
 10
65.6133
 20
-1018.15
 11
65.8428
 21
-1018.34
  0
LINE
  8
0
 10
65.8428
 20
-1018.34
 11
66.0332
 21
-1018.57
  0
LINE
  8
0
 10
66.0332
 20
-1018.57
 11
66.1768
 21
-1018.84
  0
LINE
  8
0
 10
66.1768
 20
-1018.84
 11
66.2676
 21
-1019.13
  0
LINE
  8
0
 10
66.2676
 20
-1019.13
 11
66.2988
 21
-1019.44
  0
LINE
  8
0
 10
66.2988
 20
-1019.44
 11
66.2676
 21
-1019.76
  0
LINE
  8
0
 10
66.2676
 20
-1019.76
 11
66.1768
 21
-1020.05
  0
LINE
  8
0
 10
66.1768
 20
-1020.05
 11
66.0332
 21
-1020.31
  0
LINE
  8
0
 10
66.0332
 20
-1020.31
 11
65.8428
 21
-1020.54
  0
LINE
  8
0
 10
65.8428
 20
-1020.54
 11
65.6133
 21
-1020.73
  0
LINE
  8
0
 10
65.6133
 20
-1020.73
 11
65.3486
 21
-1020.88
  0
LINE
  8
0
 10
65.3486
 20
-1020.88
 11
65.0566
 21
-1020.97
  0
LINE
  8
0
 10
65.0566
 20
-1020.97
 11
64.7432
 21
-1021
  0
LINE
  8
0
 10
64.7432
 20
-1021
 11
64.4297
 21
-1020.97
  0
LINE
  8
0
 10
64.4297
 20
-1026.05
 11
64.1377
 21
-1025.96
  0
LINE
  8
0
 10
64.1377
 20
-1025.96
 11
63.874
 21
-1025.82
  0
LINE
  8
0
 10
63.874
 20
-1025.82
 11
63.6436
 21
-1025.63
  0
LINE
  8
0
 10
63.6436
 20
-1025.63
 11
63.4531
 21
-1025.4
  0
LINE
  8
0
 10
63.4531
 20
-1025.4
 11
63.3096
 21
-1025.13
  0
LINE
  8
0
 10
63.3096
 20
-1025.13
 11
63.2197
 21
-1024.84
  0
LINE
  8
0
 10
63.2197
 20
-1024.84
 11
63.1875
 21
-1024.53
  0
LINE
  8
0
 10
63.1875
 20
-1024.53
 11
63.2197
 21
-1024.21
  0
LINE
  8
0
 10
63.2197
 20
-1024.21
 11
63.3096
 21
-1023.92
  0
LINE
  8
0
 10
63.3096
 20
-1023.92
 11
63.4531
 21
-1023.66
  0
LINE
  8
0
 10
63.4531
 20
-1023.66
 11
63.6436
 21
-1023.43
  0
LINE
  8
0
 10
63.6436
 20
-1023.43
 11
63.874
 21
-1023.24
  0
LINE
  8
0
 10
63.874
 20
-1023.24
 11
64.1377
 21
-1023.09
  0
LINE
  8
0
 10
64.1377
 20
-1023.09
 11
64.4297
 21
-1023
  0
LINE
  8
0
 10
64.4297
 20
-1023
 11
64.7432
 21
-1022.97
  0
LINE
  8
0
 10
64.7432
 20
-1022.97
 11
65.0566
 21
-1023
  0
LINE
  8
0
 10
65.0566
 20
-1023
 11
65.3486
 21
-1023.09
  0
LINE
  8
0
 10
65.3486
 20
-1023.09
 11
65.6133
 21
-1023.24
  0
LINE
  8
0
 10
65.6133
 20
-1023.24
 11
65.8428
 21
-1023.43
  0
LINE
  8
0
 10
65.8428
 20
-1023.43
 11
66.0332
 21
-1023.66
  0
LINE
  8
0
 10
66.0332
 20
-1023.66
 11
66.1768
 21
-1023.92
  0
LINE
  8
0
 10
66.1768
 20
-1023.92
 11
66.2676
 21
-1024.21
  0
LINE
  8
0
 10
66.2676
 20
-1024.21
 11
66.2988
 21
-1024.53
  0
LINE
  8
0
 10
66.2988
 20
-1024.53
 11
66.2676
 21
-1024.84
  0
LINE
  8
0
 10
66.2676
 20
-1024.84
 11
66.1768
 21
-1025.13
  0
LINE
  8
0
 10
66.1768
 20
-1025.13
 11
66.0332
 21
-1025.4
  0
LINE
  8
0
 10
66.0332
 20
-1025.4
 11
65.8428
 21
-1025.63
  0
LINE
  8
0
 10
65.8428
 20
-1025.63
 11
65.6133
 21
-1025.82
  0
LINE
  8
0
 10
65.6133
 20
-1025.82
 11
65.3486
 21
-1025.96
  0
LINE
  8
0
 10
65.3486
 20
-1025.96
 11
65.0566
 21
-1026.05
  0
LINE
  8
0
 10
65.0566
 20
-1026.05
 11
64.7432
 21
-1026.08
  0
LINE
  8
0
 10
64.7432
 20
-1026.08
 11
64.4297
 21
-1026.05
  0
LINE
  8
0
 10
-58.1445
 20
-1026.05
 11
-58.4365
 21
-1025.96
  0
LINE
  8
0
 10
-58.4365
 20
-1025.96
 11
-58.7002
 21
-1025.82
  0
LINE
  8
0
 10
-58.7002
 20
-1025.82
 11
-58.9307
 21
-1025.63
  0
LINE
  8
0
 10
-58.9307
 20
-1025.63
 11
-59.1211
 21
-1025.4
  0
LINE
  8
0
 10
-59.1211
 20
-1025.4
 11
-59.2646
 21
-1025.13
  0
LINE
  8
0
 10
-59.2646
 20
-1025.13
 11
-59.3545
 21
-1024.84
  0
LINE
  8
0
 10
-59.3545
 20
-1024.84
 11
-59.3867
 21
-1024.53
  0
LINE
  8
0
 10
-59.3867
 20
-1024.53
 11
-59.3545
 21
-1024.21
  0
LINE
  8
0
 10
-59.3545
 20
-1024.21
 11
-59.2646
 21
-1023.92
  0
LINE
  8
0
 10
-59.2646
 20
-1023.92
 11
-59.1211
 21
-1023.66
  0
LINE
  8
0
 10
-59.1211
 20
-1023.66
 11
-58.9307
 21
-1023.43
  0
LINE
  8
0
 10
-58.9307
 20
-1023.43
 11
-58.7002
 21
-1023.24
  0
LINE
  8
0
 10
-58.7002
 20
-1023.24
 11
-58.4365
 21
-1023.09
  0
LINE
  8
0
 10
-58.4365
 20
-1023.09
 11
-58.1445
 21
-1023
  0
LINE
  8
0
 10
-58.1445
 20
-1023
 11
-57.8311
 21
-1022.97
  0
LINE
  8
0
 10
-57.8311
 20
-1022.97
 11
-57.5176
 21
-1023
  0
LINE
  8
0
 10
-57.5176
 20
-1023
 11
-57.2256
 21
-1023.09
  0
LINE
  8
0
 10
-57.2256
 20
-1023.09
 11
-56.9609
 21
-1023.24
  0
LINE
  8
0
 10
-56.9609
 20
-1023.24
 11
-56.7305
 21
-1023.43
  0
LINE
  8
0
 10
-56.7305
 20
-1023.43
 11
-56.541
 21
-1023.66
  0
LINE
  8
0
 10
-56.541
 20
-1023.66
 11
-56.3975
 21
-1023.92
  0
LINE
  8
0
 10
-56.3975
 20
-1023.92
 11
-56.3066
 21
-1024.21
  0
LINE
  8
0
 10
-56.3066
 20
-1024.21
 11
-56.2754
 21
-1024.53
  0
LINE
  8
0
 10
-56.2754
 20
-1024.53
 11
-56.3066
 21
-1024.84
  0
LINE
  8
0
 10
-56.3066
 20
-1024.84
 11
-56.3975
 21
-1025.13
  0
LINE
  8
0
 10
-56.3975
 20
-1025.13
 11
-56.541
 21
-1025.4
  0
LINE
  8
0
 10
-56.541
 20
-1025.4
 11
-56.7305
 21
-1025.63
  0
LINE
  8
0
 10
-56.7305
 20
-1025.63
 11
-56.9609
 21
-1025.82
  0
LINE
  8
0
 10
-56.9609
 20
-1025.82
 11
-57.2256
 21
-1025.96
  0
LINE
  8
0
 10
-57.2256
 20
-1025.96
 11
-57.5176
 21
-1026.05
  0
LINE
  8
0
 10
-57.5176
 20
-1026.05
 11
-57.8311
 21
-1026.08
  0
LINE
  8
0
 10
-57.8311
 20
-1026.08
 11
-58.1445
 21
-1026.05
  0
LINE
  8
0
 10
64.4297
 20
-1031.13
 11
64.1377
 21
-1031.04
  0
LINE
  8
0
 10
64.1377
 20
-1031.04
 11
63.874
 21
-1030.9
  0
LINE
  8
0
 10
63.874
 20
-1030.9
 11
63.6436
 21
-1030.71
  0
LINE
  8
0
 10
63.6436
 20
-1030.71
 11
63.4531
 21
-1030.48
  0
LINE
  8
0
 10
63.4531
 20
-1030.48
 11
63.3096
 21
-1030.21
  0
LINE
  8
0
 10
63.3096
 20
-1030.21
 11
63.2197
 21
-1029.92
  0
LINE
  8
0
 10
63.2197
 20
-1029.92
 11
63.1875
 21
-1029.61
  0
LINE
  8
0
 10
63.1875
 20
-1029.61
 11
63.2197
 21
-1029.29
  0
LINE
  8
0
 10
63.2197
 20
-1029.29
 11
63.3096
 21
-1029
  0
LINE
  8
0
 10
63.3096
 20
-1029
 11
63.4531
 21
-1028.74
  0
LINE
  8
0
 10
63.4531
 20
-1028.74
 11
63.6436
 21
-1028.51
  0
LINE
  8
0
 10
63.6436
 20
-1028.51
 11
63.874
 21
-1028.32
  0
LINE
  8
0
 10
63.874
 20
-1028.32
 11
64.1377
 21
-1028.17
  0
LINE
  8
0
 10
64.1377
 20
-1028.17
 11
64.4297
 21
-1028.08
  0
LINE
  8
0
 10
64.4297
 20
-1028.08
 11
64.7432
 21
-1028.05
  0
LINE
  8
0
 10
64.7432
 20
-1028.05
 11
65.0566
 21
-1028.08
  0
LINE
  8
0
 10
65.0566
 20
-1028.08
 11
65.3486
 21
-1028.17
  0
LINE
  8
0
 10
65.3486
 20
-1028.17
 11
65.6133
 21
-1028.32
  0
LINE
  8
0
 10
65.6133
 20
-1028.32
 11
65.8428
 21
-1028.51
  0
LINE
  8
0
 10
65.8428
 20
-1028.51
 11
66.0332
 21
-1028.74
  0
LINE
  8
0
 10
66.0332
 20
-1028.74
 11
66.1768
 21
-1029
  0
LINE
  8
0
 10
66.1768
 20
-1029
 11
66.2676
 21
-1029.29
  0
LINE
  8
0
 10
66.2676
 20
-1029.29
 11
66.2988
 21
-1029.61
  0
LINE
  8
0
 10
66.2988
 20
-1029.61
 11
66.2676
 21
-1029.92
  0
LINE
  8
0
 10
66.2676
 20
-1029.92
 11
66.1768
 21
-1030.21
  0
LINE
  8
0
 10
66.1768
 20
-1030.21
 11
66.0332
 21
-1030.48
  0
LINE
  8
0
 10
66.0332
 20
-1030.48
 11
65.8428
 21
-1030.71
  0
LINE
  8
0
 10
65.8428
 20
-1030.71
 11
65.6133
 21
-1030.9
  0
LINE
  8
0
 10
65.6133
 20
-1030.9
 11
65.3486
 21
-1031.04
  0
LINE
  8
0
 10
65.3486
 20
-1031.04
 11
65.0566
 21
-1031.13
  0
LINE
  8
0
 10
65.0566
 20
-1031.13
 11
64.7432
 21
-1031.16
  0
LINE
  8
0
 10
64.7432
 20
-1031.16
 11
64.4297
 21
-1031.13
  0
LINE
  8
0
 10
-58.1445
 20
-1031.13
 11
-58.4365
 21
-1031.04
  0
LINE
  8
0
 10
-58.4365
 20
-1031.04
 11
-58.7002
 21
-1030.9
  0
LINE
  8
0
 10
-58.7002
 20
-1030.9
 11
-58.9307
 21
-1030.71
  0
LINE
  8
0
 10
-58.9307
 20
-1030.71
 11
-59.1211
 21
-1030.48
  0
LINE
  8
0
 10
-59.1211
 20
-1030.48
 11
-59.2646
 21
-1030.21
  0
LINE
  8
0
 10
-59.2646
 20
-1030.21
 11
-59.3545
 21
-1029.92
  0
LINE
  8
0
 10
-59.3545
 20
-1029.92
 11
-59.3867
 21
-1029.61
  0
LINE
  8
0
 10
-59.3867
 20
-1029.61
 11
-59.3545
 21
-1029.29
  0
LINE
  8
0
 10
-59.3545
 20
-1029.29
 11
-59.2646
 21
-1029
  0
LINE
  8
0
 10
-59.2646
 20
-1029
 11
-59.1211
 21
-1028.74
  0
LINE
  8
0
 10
-59.1211
 20
-1028.74
 11
-58.9307
 21
-1028.51
  0
LINE
  8
0
 10
-58.9307
 20
-1028.51
 11
-58.7002
 21
-1028.32
  0
LINE
  8
0
 10
-58.7002
 20
-1028.32
 11
-58.4365
 21
-1028.17
  0
LINE
  8
0
 10
-58.4365
 20
-1028.17
 11
-58.1445
 21
-1028.08
  0
LINE
  8
0
 10
-58.1445
 20
-1028.08
 11
-57.8311
 21
-1028.05
  0
LINE
  8
0
 10
-57.8311
 20
-1028.05
 11
-57.5176
 21
-1028.08
  0
LINE
  8
0
 10
-57.5176
 20
-1028.08
 11
-57.2256
 21
-1028.17
  0
LINE
  8
0
 10
-57.2256
 20
-1028.17
 11
-56.9609
 21
-1028.32
  0
LINE
  8
0
 10
-56.9609
 20
-1028.32
 11
-56.7305
 21
-1028.51
  0
LINE
  8
0
 10
-56.7305
 20
-1028.51
 11
-56.541
 21
-1028.74
  0
LINE
  8
0
 10
-56.541
 20
-1028.74
 11
-56.3975
 21
-1029
  0
LINE
  8
0
 10
-56.3975
 20
-1029
 11
-56.3066
 21
-1029.29
  0
LINE
  8
0
 10
-56.3066
 20
-1029.29
 11
-56.2754
 21
-1029.61
  0
LINE
  8
0
 10
-56.2754
 20
-1029.61
 11
-56.3066
 21
-1029.92
  0
LINE
  8
0
 10
-56.3066
 20
-1029.92
 11
-56.3975
 21
-1030.21
  0
LINE
  8
0
 10
-56.3975
 20
-1030.21
 11
-56.541
 21
-1030.48
  0
LINE
  8
0
 10
-56.541
 20
-1030.48
 11
-56.7305
 21
-1030.71
  0
LINE
  8
0
 10
-56.7305
 20
-1030.71
 11
-56.9609
 21
-1030.9
  0
LINE
  8
0
 10
-56.9609
 20
-1030.9
 11
-57.2256
 21
-1031.04
  0
LINE
  8
0
 10
-57.2256
 20
-1031.04
 11
-57.5176
 21
-1031.13
  0
LINE
  8
0
 10
-57.5176
 20
-1031.13
 11
-57.8311
 21
-1031.16
  0
LINE
  8
0
 10
-57.8311
 20
-1031.16
 11
-58.1445
 21
-1031.13
  0
LINE
  8
0
 10
64.4297
 20
-1036.22
 11
64.1377
 21
-1036.12
  0
LINE
  8
0
 10
64.1377
 20
-1036.12
 11
63.874
 21
-1035.98
  0
LINE
  8
0
 10
63.874
 20
-1035.98
 11
63.6436
 21
-1035.79
  0
LINE
  8
0
 10
63.6436
 20
-1035.79
 11
63.4531
 21
-1035.56
  0
LINE
  8
0
 10
63.4531
 20
-1035.56
 11
63.3096
 21
-1035.3
  0
LINE
  8
0
 10
63.3096
 20
-1035.3
 11
63.2197
 21
-1035
  0
LINE
  8
0
 10
63.2197
 20
-1035
 11
63.1875
 21
-1034.69
  0
LINE
  8
0
 10
63.1875
 20
-1034.69
 11
63.2197
 21
-1034.38
  0
LINE
  8
0
 10
63.2197
 20
-1034.38
 11
63.3096
 21
-1034.09
  0
LINE
  8
0
 10
63.3096
 20
-1034.09
 11
63.4531
 21
-1033.82
  0
LINE
  8
0
 10
63.4531
 20
-1033.82
 11
63.6436
 21
-1033.59
  0
LINE
  8
0
 10
63.6436
 20
-1033.59
 11
63.874
 21
-1033.4
  0
LINE
  8
0
 10
63.874
 20
-1033.4
 11
64.1377
 21
-1033.26
  0
LINE
  8
0
 10
64.1377
 20
-1033.26
 11
64.4297
 21
-1033.17
  0
LINE
  8
0
 10
64.4297
 20
-1033.17
 11
64.7432
 21
-1033.14
  0
LINE
  8
0
 10
64.7432
 20
-1033.14
 11
65.0566
 21
-1033.17
  0
LINE
  8
0
 10
65.0566
 20
-1033.17
 11
65.3486
 21
-1033.26
  0
LINE
  8
0
 10
65.3486
 20
-1033.26
 11
65.6133
 21
-1033.4
  0
LINE
  8
0
 10
65.6133
 20
-1033.4
 11
65.8428
 21
-1033.59
  0
LINE
  8
0
 10
65.8428
 20
-1033.59
 11
66.0332
 21
-1033.82
  0
LINE
  8
0
 10
66.0332
 20
-1033.82
 11
66.1768
 21
-1034.09
  0
LINE
  8
0
 10
66.1768
 20
-1034.09
 11
66.2676
 21
-1034.38
  0
LINE
  8
0
 10
66.2676
 20
-1034.38
 11
66.2988
 21
-1034.69
  0
LINE
  8
0
 10
66.2988
 20
-1034.69
 11
66.2676
 21
-1035
  0
LINE
  8
0
 10
66.2676
 20
-1035
 11
66.1768
 21
-1035.3
  0
LINE
  8
0
 10
66.1768
 20
-1035.3
 11
66.0332
 21
-1035.56
  0
LINE
  8
0
 10
66.0332
 20
-1035.56
 11
65.8428
 21
-1035.79
  0
LINE
  8
0
 10
65.8428
 20
-1035.79
 11
65.6133
 21
-1035.98
  0
LINE
  8
0
 10
65.6133
 20
-1035.98
 11
65.3486
 21
-1036.12
  0
LINE
  8
0
 10
65.3486
 20
-1036.12
 11
65.0566
 21
-1036.22
  0
LINE
  8
0
 10
65.0566
 20
-1036.22
 11
64.7432
 21
-1036.25
  0
LINE
  8
0
 10
64.7432
 20
-1036.25
 11
64.4297
 21
-1036.22
  0
LINE
  8
0
 10
-58.1445
 20
-1036.22
 11
-58.4365
 21
-1036.12
  0
LINE
  8
0
 10
-58.4365
 20
-1036.12
 11
-58.7002
 21
-1035.98
  0
LINE
  8
0
 10
-58.7002
 20
-1035.98
 11
-58.9307
 21
-1035.79
  0
LINE
  8
0
 10
-58.9307
 20
-1035.79
 11
-59.1211
 21
-1035.56
  0
LINE
  8
0
 10
-59.1211
 20
-1035.56
 11
-59.2646
 21
-1035.3
  0
LINE
  8
0
 10
-59.2646
 20
-1035.3
 11
-59.3545
 21
-1035
  0
LINE
  8
0
 10
-59.3545
 20
-1035
 11
-59.3867
 21
-1034.69
  0
LINE
  8
0
 10
-59.3867
 20
-1034.69
 11
-59.3545
 21
-1034.38
  0
LINE
  8
0
 10
-59.3545
 20
-1034.38
 11
-59.2646
 21
-1034.09
  0
LINE
  8
0
 10
-59.2646
 20
-1034.09
 11
-59.1211
 21
-1033.82
  0
LINE
  8
0
 10
-59.1211
 20
-1033.82
 11
-58.9307
 21
-1033.59
  0
LINE
  8
0
 10
-58.9307
 20
-1033.59
 11
-58.7002
 21
-1033.4
  0
LINE
  8
0
 10
-58.7002
 20
-1033.4
 11
-58.4365
 21
-1033.26
  0
LINE
  8
0
 10
-58.4365
 20
-1033.26
 11
-58.1445
 21
-1033.17
  0
LINE
  8
0
 10
-58.1445
 20
-1033.17
 11
-57.8311
 21
-1033.14
  0
LINE
  8
0
 10
-57.8311
 20
-1033.14
 11
-57.5176
 21
-1033.17
  0
LINE
  8
0
 10
-57.5176
 20
-1033.17
 11
-57.2256
 21
-1033.26
  0
LINE
  8
0
 10
-57.2256
 20
-1033.26
 11
-56.9609
 21
-1033.4
  0
LINE
  8
0
 10
-56.9609
 20
-1033.4
 11
-56.7305
 21
-1033.59
  0
LINE
  8
0
 10
-56.7305
 20
-1033.59
 11
-56.541
 21
-1033.82
  0
LINE
  8
0
 10
-56.541
 20
-1033.82
 11
-56.3975
 21
-1034.09
  0
LINE
  8
0
 10
-56.3975
 20
-1034.09
 11
-56.3066
 21
-1034.38
  0
LINE
  8
0
 10
-56.3066
 20
-1034.38
 11
-56.2754
 21
-1034.69
  0
LINE
  8
0
 10
-56.2754
 20
-1034.69
 11
-56.3066
 21
-1035
  0
LINE
  8
0
 10
-56.3066
 20
-1035
 11
-56.3975
 21
-1035.3
  0
LINE
  8
0
 10
-56.3975
 20
-1035.3
 11
-56.541
 21
-1035.56
  0
LINE
  8
0
 10
-56.541
 20
-1035.56
 11
-56.7305
 21
-1035.79
  0
LINE
  8
0
 10
-56.7305
 20
-1035.79
 11
-56.9609
 21
-1035.98
  0
LINE
  8
0
 10
-56.9609
 20
-1035.98
 11
-57.2256
 21
-1036.12
  0
LINE
  8
0
 10
-57.2256
 20
-1036.12
 11
-57.5176
 21
-1036.22
  0
LINE
  8
0
 10
-57.5176
 20
-1036.22
 11
-57.8311
 21
-1036.25
  0
LINE
  8
0
 10
-57.8311
 20
-1036.25
 11
-58.1445
 21
-1036.22
  0
LINE
  8
0
 10
64.4297
 20
-1041.3
 11
64.1377
 21
-1041.21
  0
LINE
  8
0
 10
64.1377
 20
-1041.21
 11
63.874
 21
-1041.06
  0
LINE
  8
0
 10
63.874
 20
-1041.06
 11
63.6436
 21
-1040.87
  0
LINE
  8
0
 10
63.6436
 20
-1040.87
 11
63.4531
 21
-1040.64
  0
LINE
  8
0
 10
63.4531
 20
-1040.64
 11
63.3096
 21
-1040.38
  0
LINE
  8
0
 10
63.3096
 20
-1040.38
 11
63.2197
 21
-1040.09
  0
LINE
  8
0
 10
63.2197
 20
-1040.09
 11
63.1875
 21
-1039.77
  0
LINE
  8
0
 10
63.1875
 20
-1039.77
 11
63.2197
 21
-1039.46
  0
LINE
  8
0
 10
63.2197
 20
-1039.46
 11
63.3096
 21
-1039.17
  0
LINE
  8
0
 10
63.3096
 20
-1039.17
 11
63.4531
 21
-1038.9
  0
LINE
  8
0
 10
63.4531
 20
-1038.9
 11
63.6436
 21
-1038.67
  0
LINE
  8
0
 10
63.6436
 20
-1038.67
 11
63.874
 21
-1038.48
  0
LINE
  8
0
 10
63.874
 20
-1038.48
 11
64.1377
 21
-1038.34
  0
LINE
  8
0
 10
64.1377
 20
-1038.34
 11
64.4297
 21
-1038.25
  0
LINE
  8
0
 10
64.4297
 20
-1038.25
 11
64.7432
 21
-1038.22
  0
LINE
  8
0
 10
64.7432
 20
-1038.22
 11
65.0566
 21
-1038.25
  0
LINE
  8
0
 10
65.0566
 20
-1038.25
 11
65.3486
 21
-1038.34
  0
LINE
  8
0
 10
65.3486
 20
-1038.34
 11
65.6133
 21
-1038.48
  0
LINE
  8
0
 10
65.6133
 20
-1038.48
 11
65.8428
 21
-1038.67
  0
LINE
  8
0
 10
65.8428
 20
-1038.67
 11
66.0332
 21
-1038.9
  0
LINE
  8
0
 10
66.0332
 20
-1038.9
 11
66.1768
 21
-1039.17
  0
LINE
  8
0
 10
66.1768
 20
-1039.17
 11
66.2676
 21
-1039.46
  0
LINE
  8
0
 10
66.2676
 20
-1039.46
 11
66.2988
 21
-1039.77
  0
LINE
  8
0
 10
66.2988
 20
-1039.77
 11
66.2676
 21
-1040.09
  0
LINE
  8
0
 10
66.2676
 20
-1040.09
 11
66.1768
 21
-1040.38
  0
LINE
  8
0
 10
66.1768
 20
-1040.38
 11
66.0332
 21
-1040.64
  0
LINE
  8
0
 10
66.0332
 20
-1040.64
 11
65.8428
 21
-1040.87
  0
LINE
  8
0
 10
65.8428
 20
-1040.87
 11
65.6133
 21
-1041.06
  0
LINE
  8
0
 10
65.6133
 20
-1041.06
 11
65.3486
 21
-1041.21
  0
LINE
  8
0
 10
65.3486
 20
-1041.21
 11
65.0566
 21
-1041.3
  0
LINE
  8
0
 10
65.0566
 20
-1041.3
 11
64.7432
 21
-1041.33
  0
LINE
  8
0
 10
64.7432
 20
-1041.33
 11
64.4297
 21
-1041.3
  0
LINE
  8
0
 10
-58.1445
 20
-1041.3
 11
-58.4365
 21
-1041.21
  0
LINE
  8
0
 10
-58.4365
 20
-1041.21
 11
-58.7002
 21
-1041.06
  0
LINE
  8
0
 10
-58.7002
 20
-1041.06
 11
-58.9307
 21
-1040.87
  0
LINE
  8
0
 10
-58.9307
 20
-1040.87
 11
-59.1211
 21
-1040.64
  0
LINE
  8
0
 10
-59.1211
 20
-1040.64
 11
-59.2646
 21
-1040.38
  0
LINE
  8
0
 10
-59.2646
 20
-1040.38
 11
-59.3545
 21
-1040.09
  0
LINE
  8
0
 10
-59.3545
 20
-1040.09
 11
-59.3867
 21
-1039.77
  0
LINE
  8
0
 10
-59.3867
 20
-1039.77
 11
-59.3545
 21
-1039.46
  0
LINE
  8
0
 10
-59.3545
 20
-1039.46
 11
-59.2646
 21
-1039.17
  0
LINE
  8
0
 10
-59.2646
 20
-1039.17
 11
-59.1211
 21
-1038.9
  0
LINE
  8
0
 10
-59.1211
 20
-1038.9
 11
-58.9307
 21
-1038.67
  0
LINE
  8
0
 10
-58.9307
 20
-1038.67
 11
-58.7002
 21
-1038.48
  0
LINE
  8
0
 10
-58.7002
 20
-1038.48
 11
-58.4365
 21
-1038.34
  0
LINE
  8
0
 10
-58.4365
 20
-1038.34
 11
-58.1445
 21
-1038.25
  0
LINE
  8
0
 10
-58.1445
 20
-1038.25
 11
-57.8311
 21
-1038.22
  0
LINE
  8
0
 10
-57.8311
 20
-1038.22
 11
-57.5176
 21
-1038.25
  0
LINE
  8
0
 10
-57.5176
 20
-1038.25
 11
-57.2256
 21
-1038.34
  0
LINE
  8
0
 10
-57.2256
 20
-1038.34
 11
-56.9609
 21
-1038.48
  0
LINE
  8
0
 10
-56.9609
 20
-1038.48
 11
-56.7305
 21
-1038.67
  0
LINE
  8
0
 10
-56.7305
 20
-1038.67
 11
-56.541
 21
-1038.9
  0
LINE
  8
0
 10
-56.541
 20
-1038.9
 11
-56.3975
 21
-1039.17
  0
LINE
  8
0
 10
-56.3975
 20
-1039.17
 11
-56.3066
 21
-1039.46
  0
LINE
  8
0
 10
-56.3066
 20
-1039.46
 11
-56.2754
 21
-1039.77
  0
LINE
  8
0
 10
-56.2754
 20
-1039.77
 11
-56.3066
 21
-1040.09
  0
LINE
  8
0
 10
-56.3066
 20
-1040.09
 11
-56.3975
 21
-1040.38
  0
LINE
  8
0
 10
-56.3975
 20
-1040.38
 11
-56.541
 21
-1040.64
  0
LINE
  8
0
 10
-56.541
 20
-1040.64
 11
-56.7305
 21
-1040.87
  0
LINE
  8
0
 10
-56.7305
 20
-1040.87
 11
-56.9609
 21
-1041.06
  0
LINE
  8
0
 10
-56.9609
 20
-1041.06
 11
-57.2256
 21
-1041.21
  0
LINE
  8
0
 10
-57.2256
 20
-1041.21
 11
-57.5176
 21
-1041.3
  0
LINE
  8
0
 10
-57.5176
 20
-1041.3
 11
-57.8311
 21
-1041.33
  0
LINE
  8
0
 10
-57.8311
 20
-1041.33
 11
-58.1445
 21
-1041.3
  0
LINE
  8
0
 10
-58.1445
 20
-1046.38
 11
-58.4365
 21
-1046.29
  0
LINE
  8
0
 10
-58.4365
 20
-1046.29
 11
-58.7002
 21
-1046.15
  0
LINE
  8
0
 10
-58.7002
 20
-1046.15
 11
-58.9307
 21
-1045.96
  0
LINE
  8
0
 10
-58.9307
 20
-1045.96
 11
-59.1211
 21
-1045.73
  0
LINE
  8
0
 10
-59.1211
 20
-1045.73
 11
-59.2646
 21
-1045.46
  0
LINE
  8
0
 10
-59.2646
 20
-1045.46
 11
-59.3545
 21
-1045.17
  0
LINE
  8
0
 10
-59.3545
 20
-1045.17
 11
-59.3867
 21
-1044.86
  0
LINE
  8
0
 10
-59.3867
 20
-1044.86
 11
-59.3545
 21
-1044.54
  0
LINE
  8
0
 10
-59.3545
 20
-1044.54
 11
-59.2646
 21
-1044.25
  0
LINE
  8
0
 10
-59.2646
 20
-1044.25
 11
-59.1211
 21
-1043.99
  0
LINE
  8
0
 10
-59.1211
 20
-1043.99
 11
-58.9307
 21
-1043.76
  0
LINE
  8
0
 10
-58.9307
 20
-1043.76
 11
-58.7002
 21
-1043.57
  0
LINE
  8
0
 10
-58.7002
 20
-1043.57
 11
-58.4365
 21
-1043.42
  0
LINE
  8
0
 10
-58.4365
 20
-1043.42
 11
-58.1445
 21
-1043.33
  0
LINE
  8
0
 10
-58.1445
 20
-1043.33
 11
-57.8311
 21
-1043.3
  0
LINE
  8
0
 10
-57.8311
 20
-1043.3
 11
-57.5176
 21
-1043.33
  0
LINE
  8
0
 10
-57.5176
 20
-1043.33
 11
-57.2256
 21
-1043.42
  0
LINE
  8
0
 10
-57.2256
 20
-1043.42
 11
-56.9609
 21
-1043.57
  0
LINE
  8
0
 10
-56.9609
 20
-1043.57
 11
-56.7305
 21
-1043.76
  0
LINE
  8
0
 10
-56.7305
 20
-1043.76
 11
-56.541
 21
-1043.99
  0
LINE
  8
0
 10
-56.541
 20
-1043.99
 11
-56.3975
 21
-1044.25
  0
LINE
  8
0
 10
-56.3975
 20
-1044.25
 11
-56.3066
 21
-1044.54
  0
LINE
  8
0
 10
-56.3066
 20
-1044.54
 11
-56.2754
 21
-1044.86
  0
LINE
  8
0
 10
-56.2754
 20
-1044.86
 11
-56.3066
 21
-1045.17
  0
LINE
  8
0
 10
-56.3066
 20
-1045.17
 11
-56.3975
 21
-1045.46
  0
LINE
  8
0
 10
-56.3975
 20
-1045.46
 11
-56.541
 21
-1045.73
  0
LINE
  8
0
 10
-56.541
 20
-1045.73
 11
-56.7305
 21
-1045.96
  0
LINE
  8
0
 10
-56.7305
 20
-1045.96
 11
-56.9609
 21
-1046.15
  0
LINE
  8
0
 10
-56.9609
 20
-1046.15
 11
-57.2256
 21
-1046.29
  0
LINE
  8
0
 10
-57.2256
 20
-1046.29
 11
-57.5176
 21
-1046.38
  0
LINE
  8
0
 10
-57.5176
 20
-1046.38
 11
-57.8311
 21
-1046.41
  0
LINE
  8
0
 10
-57.8311
 20
-1046.41
 11
-58.1445
 21
-1046.38
  0
LINE
  8
0
 10
64.4297
 20
-1046.38
 11
64.1377
 21
-1046.29
  0
LINE
  8
0
 10
64.1377
 20
-1046.29
 11
63.874
 21
-1046.15
  0
LINE
  8
0
 10
63.874
 20
-1046.15
 11
63.6436
 21
-1045.96
  0
LINE
  8
0
 10
63.6436
 20
-1045.96
 11
63.4531
 21
-1045.73
  0
LINE
  8
0
 10
63.4531
 20
-1045.73
 11
63.3096
 21
-1045.46
  0
LINE
  8
0
 10
63.3096
 20
-1045.46
 11
63.2197
 21
-1045.17
  0
LINE
  8
0
 10
63.2197
 20
-1045.17
 11
63.1875
 21
-1044.86
  0
LINE
  8
0
 10
63.1875
 20
-1044.86
 11
63.2197
 21
-1044.54
  0
LINE
  8
0
 10
63.2197
 20
-1044.54
 11
63.3096
 21
-1044.25
  0
LINE
  8
0
 10
63.3096
 20
-1044.25
 11
63.4531
 21
-1043.99
  0
LINE
  8
0
 10
63.4531
 20
-1043.99
 11
63.6436
 21
-1043.76
  0
LINE
  8
0
 10
63.6436
 20
-1043.76
 11
63.874
 21
-1043.57
  0
LINE
  8
0
 10
63.874
 20
-1043.57
 11
64.1377
 21
-1043.42
  0
LINE
  8
0
 10
64.1377
 20
-1043.42
 11
64.4297
 21
-1043.33
  0
LINE
  8
0
 10
64.4297
 20
-1043.33
 11
64.7432
 21
-1043.3
  0
LINE
  8
0
 10
64.7432
 20
-1043.3
 11
65.0566
 21
-1043.33
  0
LINE
  8
0
 10
65.0566
 20
-1043.33
 11
65.3486
 21
-1043.42
  0
LINE
  8
0
 10
65.3486
 20
-1043.42
 11
65.6133
 21
-1043.57
  0
LINE
  8
0
 10
65.6133
 20
-1043.57
 11
65.8428
 21
-1043.76
  0
LINE
  8
0
 10
65.8428
 20
-1043.76
 11
66.0332
 21
-1043.99
  0
LINE
  8
0
 10
66.0332
 20
-1043.99
 11
66.1768
 21
-1044.25
  0
LINE
  8
0
 10
66.1768
 20
-1044.25
 11
66.2676
 21
-1044.54
  0
LINE
  8
0
 10
66.2676
 20
-1044.54
 11
66.2988
 21
-1044.86
  0
LINE
  8
0
 10
66.2988
 20
-1044.86
 11
66.2676
 21
-1045.17
  0
LINE
  8
0
 10
66.2676
 20
-1045.17
 11
66.1768
 21
-1045.46
  0
LINE
  8
0
 10
66.1768
 20
-1045.46
 11
66.0332
 21
-1045.73
  0
LINE
  8
0
 10
66.0332
 20
-1045.73
 11
65.8428
 21
-1045.96
  0
LINE
  8
0
 10
65.8428
 20
-1045.96
 11
65.6133
 21
-1046.15
  0
LINE
  8
0
 10
65.6133
 20
-1046.15
 11
65.3486
 21
-1046.29
  0
LINE
  8
0
 10
65.3486
 20
-1046.29
 11
65.0566
 21
-1046.38
  0
LINE
  8
0
 10
65.0566
 20
-1046.38
 11
64.7432
 21
-1046.41
  0
LINE
  8
0
 10
64.7432
 20
-1046.41
 11
64.4297
 21
-1046.38
  0
LINE
  8
0
 10
-58.1445
 20
-1051.46
 11
-58.4365
 21
-1051.37
  0
LINE
  8
0
 10
-58.4365
 20
-1051.37
 11
-58.7002
 21
-1051.23
  0
LINE
  8
0
 10
-58.7002
 20
-1051.23
 11
-58.9307
 21
-1051.04
  0
LINE
  8
0
 10
-58.9307
 20
-1051.04
 11
-59.1211
 21
-1050.81
  0
LINE
  8
0
 10
-59.1211
 20
-1050.81
 11
-59.2646
 21
-1050.54
  0
LINE
  8
0
 10
-59.2646
 20
-1050.54
 11
-59.3545
 21
-1050.25
  0
LINE
  8
0
 10
-59.3545
 20
-1050.25
 11
-59.3867
 21
-1049.94
  0
LINE
  8
0
 10
-59.3867
 20
-1049.94
 11
-59.3545
 21
-1049.63
  0
LINE
  8
0
 10
-59.3545
 20
-1049.63
 11
-59.2646
 21
-1049.33
  0
LINE
  8
0
 10
-59.2646
 20
-1049.33
 11
-59.1211
 21
-1049.07
  0
LINE
  8
0
 10
-59.1211
 20
-1049.07
 11
-58.9307
 21
-1048.84
  0
LINE
  8
0
 10
-58.9307
 20
-1048.84
 11
-58.7002
 21
-1048.65
  0
LINE
  8
0
 10
-58.7002
 20
-1048.65
 11
-58.4365
 21
-1048.51
  0
LINE
  8
0
 10
-58.4365
 20
-1048.51
 11
-58.1445
 21
-1048.42
  0
LINE
  8
0
 10
-58.1445
 20
-1048.42
 11
-57.8311
 21
-1048.38
  0
LINE
  8
0
 10
-57.8311
 20
-1048.38
 11
-57.5176
 21
-1048.42
  0
LINE
  8
0
 10
-57.5176
 20
-1048.42
 11
-57.2256
 21
-1048.51
  0
LINE
  8
0
 10
-57.2256
 20
-1048.51
 11
-56.9609
 21
-1048.65
  0
LINE
  8
0
 10
-56.9609
 20
-1048.65
 11
-56.7305
 21
-1048.84
  0
LINE
  8
0
 10
-56.7305
 20
-1048.84
 11
-56.541
 21
-1049.07
  0
LINE
  8
0
 10
-56.541
 20
-1049.07
 11
-56.3975
 21
-1049.33
  0
LINE
  8
0
 10
-56.3975
 20
-1049.33
 11
-56.3066
 21
-1049.63
  0
LINE
  8
0
 10
-56.3066
 20
-1049.63
 11
-56.2754
 21
-1049.94
  0
LINE
  8
0
 10
-56.2754
 20
-1049.94
 11
-56.3066
 21
-1050.25
  0
LINE
  8
0
 10
-56.3066
 20
-1050.25
 11
-56.3975
 21
-1050.54
  0
LINE
  8
0
 10
-56.3975
 20
-1050.54
 11
-56.541
 21
-1050.81
  0
LINE
  8
0
 10
-56.541
 20
-1050.81
 11
-56.7305
 21
-1051.04
  0
LINE
  8
0
 10
-56.7305
 20
-1051.04
 11
-56.9609
 21
-1051.23
  0
LINE
  8
0
 10
-56.9609
 20
-1051.23
 11
-57.2256
 21
-1051.37
  0
LINE
  8
0
 10
-57.2256
 20
-1051.37
 11
-57.5176
 21
-1051.46
  0
LINE
  8
0
 10
-57.5176
 20
-1051.46
 11
-57.8311
 21
-1051.5
  0
LINE
  8
0
 10
-57.8311
 20
-1051.5
 11
-58.1445
 21
-1051.46
  0
LINE
  8
0
 10
64.4297
 20
-1051.46
 11
64.1377
 21
-1051.37
  0
LINE
  8
0
 10
64.1377
 20
-1051.37
 11
63.874
 21
-1051.23
  0
LINE
  8
0
 10
63.874
 20
-1051.23
 11
63.6436
 21
-1051.04
  0
LINE
  8
0
 10
63.6436
 20
-1051.04
 11
63.4531
 21
-1050.81
  0
LINE
  8
0
 10
63.4531
 20
-1050.81
 11
63.3096
 21
-1050.54
  0
LINE
  8
0
 10
63.3096
 20
-1050.54
 11
63.2197
 21
-1050.25
  0
LINE
  8
0
 10
63.2197
 20
-1050.25
 11
63.1875
 21
-1049.94
  0
LINE
  8
0
 10
63.1875
 20
-1049.94
 11
63.2197
 21
-1049.63
  0
LINE
  8
0
 10
63.2197
 20
-1049.63
 11
63.3096
 21
-1049.33
  0
LINE
  8
0
 10
63.3096
 20
-1049.33
 11
63.4531
 21
-1049.07
  0
LINE
  8
0
 10
63.4531
 20
-1049.07
 11
63.6436
 21
-1048.84
  0
LINE
  8
0
 10
63.6436
 20
-1048.84
 11
63.874
 21
-1048.65
  0
LINE
  8
0
 10
63.874
 20
-1048.65
 11
64.1377
 21
-1048.51
  0
LINE
  8
0
 10
64.1377
 20
-1048.51
 11
64.4297
 21
-1048.42
  0
LINE
  8
0
 10
64.4297
 20
-1048.42
 11
64.7432
 21
-1048.38
  0
LINE
  8
0
 10
64.7432
 20
-1048.38
 11
65.0566
 21
-1048.42
  0
LINE
  8
0
 10
65.0566
 20
-1048.42
 11
65.3486
 21
-1048.51
  0
LINE
  8
0
 10
65.3486
 20
-1048.51
 11
65.6133
 21
-1048.65
  0
LINE
  8
0
 10
65.6133
 20
-1048.65
 11
65.8428
 21
-1048.84
  0
LINE
  8
0
 10
65.8428
 20
-1048.84
 11
66.0332
 21
-1049.07
  0
LINE
  8
0
 10
66.0332
 20
-1049.07
 11
66.1768
 21
-1049.33
  0
LINE
  8
0
 10
66.1768
 20
-1049.33
 11
66.2676
 21
-1049.63
  0
LINE
  8
0
 10
66.2676
 20
-1049.63
 11
66.2988
 21
-1049.94
  0
LINE
  8
0
 10
66.2988
 20
-1049.94
 11
66.2676
 21
-1050.25
  0
LINE
  8
0
 10
66.2676
 20
-1050.25
 11
66.1768
 21
-1050.54
  0
LINE
  8
0
 10
66.1768
 20
-1050.54
 11
66.0332
 21
-1050.81
  0
LINE
  8
0
 10
66.0332
 20
-1050.81
 11
65.8428
 21
-1051.04
  0
LINE
  8
0
 10
65.8428
 20
-1051.04
 11
65.6133
 21
-1051.23
  0
LINE
  8
0
 10
65.6133
 20
-1051.23
 11
65.3486
 21
-1051.37
  0
LINE
  8
0
 10
65.3486
 20
-1051.37
 11
65.0566
 21
-1051.46
  0
LINE
  8
0
 10
65.0566
 20
-1051.46
 11
64.7432
 21
-1051.5
  0
LINE
  8
0
 10
64.7432
 20
-1051.5
 11
64.4297
 21
-1051.46
  0
LINE
  8
0
 10
-58.1445
 20
-1056.55
 11
-58.4365
 21
-1056.46
  0
LINE
  8
0
 10
-58.4365
 20
-1056.46
 11
-58.7002
 21
-1056.31
  0
LINE
  8
0
 10
-58.7002
 20
-1056.31
 11
-58.9307
 21
-1056.12
  0
LINE
  8
0
 10
-58.9307
 20
-1056.12
 11
-59.1211
 21
-1055.89
  0
LINE
  8
0
 10
-59.1211
 20
-1055.89
 11
-59.2646
 21
-1055.63
  0
LINE
  8
0
 10
-59.2646
 20
-1055.63
 11
-59.3545
 21
-1055.33
  0
LINE
  8
0
 10
-59.3545
 20
-1055.33
 11
-59.3867
 21
-1055.02
  0
LINE
  8
0
 10
-59.3867
 20
-1055.02
 11
-59.3545
 21
-1054.71
  0
LINE
  8
0
 10
-59.3545
 20
-1054.71
 11
-59.2646
 21
-1054.42
  0
LINE
  8
0
 10
-59.2646
 20
-1054.42
 11
-59.1211
 21
-1054.15
  0
LINE
  8
0
 10
-59.1211
 20
-1054.15
 11
-58.9307
 21
-1053.92
  0
LINE
  8
0
 10
-58.9307
 20
-1053.92
 11
-58.7002
 21
-1053.73
  0
LINE
  8
0
 10
-58.7002
 20
-1053.73
 11
-58.4365
 21
-1053.59
  0
LINE
  8
0
 10
-58.4365
 20
-1053.59
 11
-58.1445
 21
-1053.5
  0
LINE
  8
0
 10
-58.1445
 20
-1053.5
 11
-57.8311
 21
-1053.47
  0
LINE
  8
0
 10
-57.8311
 20
-1053.47
 11
-57.5176
 21
-1053.5
  0
LINE
  8
0
 10
-57.5176
 20
-1053.5
 11
-57.2256
 21
-1053.59
  0
LINE
  8
0
 10
-57.2256
 20
-1053.59
 11
-56.9609
 21
-1053.73
  0
LINE
  8
0
 10
-56.9609
 20
-1053.73
 11
-56.7305
 21
-1053.92
  0
LINE
  8
0
 10
-56.7305
 20
-1053.92
 11
-56.541
 21
-1054.15
  0
LINE
  8
0
 10
-56.541
 20
-1054.15
 11
-56.3975
 21
-1054.42
  0
LINE
  8
0
 10
-56.3975
 20
-1054.42
 11
-56.3066
 21
-1054.71
  0
LINE
  8
0
 10
-56.3066
 20
-1054.71
 11
-56.2754
 21
-1055.02
  0
LINE
  8
0
 10
-56.2754
 20
-1055.02
 11
-56.3066
 21
-1055.33
  0
LINE
  8
0
 10
-56.3066
 20
-1055.33
 11
-56.3975
 21
-1055.63
  0
LINE
  8
0
 10
-56.3975
 20
-1055.63
 11
-56.541
 21
-1055.89
  0
LINE
  8
0
 10
-56.541
 20
-1055.89
 11
-56.7305
 21
-1056.12
  0
LINE
  8
0
 10
-56.7305
 20
-1056.12
 11
-56.9609
 21
-1056.31
  0
LINE
  8
0
 10
-56.9609
 20
-1056.31
 11
-57.2256
 21
-1056.46
  0
LINE
  8
0
 10
-57.2256
 20
-1056.46
 11
-57.5176
 21
-1056.55
  0
LINE
  8
0
 10
-57.5176
 20
-1056.55
 11
-57.8311
 21
-1056.58
  0
LINE
  8
0
 10
-57.8311
 20
-1056.58
 11
-58.1445
 21
-1056.55
  0
LINE
  8
0
 10
64.4297
 20
-1056.55
 11
64.1377
 21
-1056.46
  0
LINE
  8
0
 10
64.1377
 20
-1056.46
 11
63.874
 21
-1056.31
  0
LINE
  8
0
 10
63.874
 20
-1056.31
 11
63.6436
 21
-1056.12
  0
LINE
  8
0
 10
63.6436
 20
-1056.12
 11
63.4531
 21
-1055.89
  0
LINE
  8
0
 10
63.4531
 20
-1055.89
 11
63.3096
 21
-1055.63
  0
LINE
  8
0
 10
63.3096
 20
-1055.63
 11
63.2197
 21
-1055.33
  0
LINE
  8
0
 10
63.2197
 20
-1055.33
 11
63.1875
 21
-1055.02
  0
LINE
  8
0
 10
63.1875
 20
-1055.02
 11
63.2197
 21
-1054.71
  0
LINE
  8
0
 10
63.2197
 20
-1054.71
 11
63.3096
 21
-1054.42
  0
LINE
  8
0
 10
63.3096
 20
-1054.42
 11
63.4531
 21
-1054.15
  0
LINE
  8
0
 10
63.4531
 20
-1054.15
 11
63.6436
 21
-1053.92
  0
LINE
  8
0
 10
63.6436
 20
-1053.92
 11
63.874
 21
-1053.73
  0
LINE
  8
0
 10
63.874
 20
-1053.73
 11
64.1377
 21
-1053.59
  0
LINE
  8
0
 10
64.1377
 20
-1053.59
 11
64.4297
 21
-1053.5
  0
LINE
  8
0
 10
64.4297
 20
-1053.5
 11
64.7432
 21
-1053.47
  0
LINE
  8
0
 10
64.7432
 20
-1053.47
 11
65.0566
 21
-1053.5
  0
LINE
  8
0
 10
65.0566
 20
-1053.5
 11
65.3486
 21
-1053.59
  0
LINE
  8
0
 10
65.3486
 20
-1053.59
 11
65.6133
 21
-1053.73
  0
LINE
  8
0
 10
65.6133
 20
-1053.73
 11
65.8428
 21
-1053.92
  0
LINE
  8
0
 10
65.8428
 20
-1053.92
 11
66.0332
 21
-1054.15
  0
LINE
  8
0
 10
66.0332
 20
-1054.15
 11
66.1768
 21
-1054.42
  0
LINE
  8
0
 10
66.1768
 20
-1054.42
 11
66.2676
 21
-1054.71
  0
LINE
  8
0
 10
66.2676
 20
-1054.71
 11
66.2988
 21
-1055.02
  0
LINE
  8
0
 10
66.2988
 20
-1055.02
 11
66.2676
 21
-1055.33
  0
LINE
  8
0
 10
66.2676
 20
-1055.33
 11
66.1768
 21
-1055.63
  0
LINE
  8
0
 10
66.1768
 20
-1055.63
 11
66.0332
 21
-1055.89
  0
LINE
  8
0
 10
66.0332
 20
-1055.89
 11
65.8428
 21
-1056.12
  0
LINE
  8
0
 10
65.8428
 20
-1056.12
 11
65.6133
 21
-1056.31
  0
LINE
  8
0
 10
65.6133
 20
-1056.31
 11
65.3486
 21
-1056.46
  0
LINE
  8
0
 10
65.3486
 20
-1056.46
 11
65.0566
 21
-1056.55
  0
LINE
  8
0
 10
65.0566
 20
-1056.55
 11
64.7432
 21
-1056.58
  0
LINE
  8
0
 10
64.7432
 20
-1056.58
 11
64.4297
 21
-1056.55
  0
LINE
  8
0
 10
-58.1445
 20
-1061.63
 11
-58.4365
 21
-1061.54
  0
LINE
  8
0
 10
-58.4365
 20
-1061.54
 11
-58.7002
 21
-1061.39
  0
LINE
  8
0
 10
-58.7002
 20
-1061.39
 11
-58.9307
 21
-1061.2
  0
LINE
  8
0
 10
-58.9307
 20
-1061.2
 11
-59.1211
 21
-1060.97
  0
LINE
  8
0
 10
-59.1211
 20
-1060.97
 11
-59.2646
 21
-1060.71
  0
LINE
  8
0
 10
-59.2646
 20
-1060.71
 11
-59.3545
 21
-1060.42
  0
LINE
  8
0
 10
-59.3545
 20
-1060.42
 11
-59.3867
 21
-1060.1
  0
LINE
  8
0
 10
-59.3867
 20
-1060.1
 11
-59.3545
 21
-1059.79
  0
LINE
  8
0
 10
-59.3545
 20
-1059.79
 11
-59.2646
 21
-1059.5
  0
LINE
  8
0
 10
-59.2646
 20
-1059.5
 11
-59.1211
 21
-1059.23
  0
LINE
  8
0
 10
-59.1211
 20
-1059.23
 11
-58.9307
 21
-1059
  0
LINE
  8
0
 10
-58.9307
 20
-1059
 11
-58.7002
 21
-1058.81
  0
LINE
  8
0
 10
-58.7002
 20
-1058.81
 11
-58.4365
 21
-1058.67
  0
LINE
  8
0
 10
-58.4365
 20
-1058.67
 11
-58.1445
 21
-1058.58
  0
LINE
  8
0
 10
-58.1445
 20
-1058.58
 11
-57.8311
 21
-1058.55
  0
LINE
  8
0
 10
-57.8311
 20
-1058.55
 11
-57.5176
 21
-1058.58
  0
LINE
  8
0
 10
-57.5176
 20
-1058.58
 11
-57.2256
 21
-1058.67
  0
LINE
  8
0
 10
-57.2256
 20
-1058.67
 11
-56.9609
 21
-1058.81
  0
LINE
  8
0
 10
-56.9609
 20
-1058.81
 11
-56.7305
 21
-1059
  0
LINE
  8
0
 10
-56.7305
 20
-1059
 11
-56.541
 21
-1059.23
  0
LINE
  8
0
 10
-56.541
 20
-1059.23
 11
-56.3975
 21
-1059.5
  0
LINE
  8
0
 10
-56.3975
 20
-1059.5
 11
-56.3066
 21
-1059.79
  0
LINE
  8
0
 10
-56.3066
 20
-1059.79
 11
-56.2754
 21
-1060.1
  0
LINE
  8
0
 10
-56.2754
 20
-1060.1
 11
-56.3066
 21
-1060.42
  0
LINE
  8
0
 10
-56.3066
 20
-1060.42
 11
-56.3975
 21
-1060.71
  0
LINE
  8
0
 10
-56.3975
 20
-1060.71
 11
-56.541
 21
-1060.97
  0
LINE
  8
0
 10
-56.541
 20
-1060.97
 11
-56.7305
 21
-1061.2
  0
LINE
  8
0
 10
-56.7305
 20
-1061.2
 11
-56.9609
 21
-1061.39
  0
LINE
  8
0
 10
-56.9609
 20
-1061.39
 11
-57.2256
 21
-1061.54
  0
LINE
  8
0
 10
-57.2256
 20
-1061.54
 11
-57.5176
 21
-1061.63
  0
LINE
  8
0
 10
-57.5176
 20
-1061.63
 11
-57.8311
 21
-1061.66
  0
LINE
  8
0
 10
-57.8311
 20
-1061.66
 11
-58.1445
 21
-1061.63
  0
LINE
  8
0
 10
64.4297
 20
-1061.63
 11
64.1377
 21
-1061.54
  0
LINE
  8
0
 10
64.1377
 20
-1061.54
 11
63.874
 21
-1061.39
  0
LINE
  8
0
 10
63.874
 20
-1061.39
 11
63.6436
 21
-1061.2
  0
LINE
  8
0
 10
63.6436
 20
-1061.2
 11
63.4531
 21
-1060.97
  0
LINE
  8
0
 10
63.4531
 20
-1060.97
 11
63.3096
 21
-1060.71
  0
LINE
  8
0
 10
63.3096
 20
-1060.71
 11
63.2197
 21
-1060.42
  0
LINE
  8
0
 10
63.2197
 20
-1060.42
 11
63.1875
 21
-1060.1
  0
LINE
  8
0
 10
63.1875
 20
-1060.1
 11
63.2197
 21
-1059.79
  0
LINE
  8
0
 10
63.2197
 20
-1059.79
 11
63.3096
 21
-1059.5
  0
LINE
  8
0
 10
63.3096
 20
-1059.5
 11
63.4531
 21
-1059.23
  0
LINE
  8
0
 10
63.4531
 20
-1059.23
 11
63.6436
 21
-1059
  0
LINE
  8
0
 10
63.6436
 20
-1059
 11
63.874
 21
-1058.81
  0
LINE
  8
0
 10
63.874
 20
-1058.81
 11
64.1377
 21
-1058.67
  0
LINE
  8
0
 10
64.1377
 20
-1058.67
 11
64.4297
 21
-1058.58
  0
LINE
  8
0
 10
64.4297
 20
-1058.58
 11
64.7432
 21
-1058.55
  0
LINE
  8
0
 10
64.7432
 20
-1058.55
 11
65.0566
 21
-1058.58
  0
LINE
  8
0
 10
65.0566
 20
-1058.58
 11
65.3486
 21
-1058.67
  0
LINE
  8
0
 10
65.3486
 20
-1058.67
 11
65.6133
 21
-1058.81
  0
LINE
  8
0
 10
65.6133
 20
-1058.81
 11
65.8428
 21
-1059
  0
LINE
  8
0
 10
65.8428
 20
-1059
 11
66.0332
 21
-1059.23
  0
LINE
  8
0
 10
66.0332
 20
-1059.23
 11
66.1768
 21
-1059.5
  0
LINE
  8
0
 10
66.1768
 20
-1059.5
 11
66.2676
 21
-1059.79
  0
LINE
  8
0
 10
66.2676
 20
-1059.79
 11
66.2988
 21
-1060.1
  0
LINE
  8
0
 10
66.2988
 20
-1060.1
 11
66.2676
 21
-1060.42
  0
LINE
  8
0
 10
66.2676
 20
-1060.42
 11
66.1768
 21
-1060.71
  0
LINE
  8
0
 10
66.1768
 20
-1060.71
 11
66.0332
 21
-1060.97
  0
LINE
  8
0
 10
66.0332
 20
-1060.97
 11
65.8428
 21
-1061.2
  0
LINE
  8
0
 10
65.8428
 20
-1061.2
 11
65.6133
 21
-1061.39
  0
LINE
  8
0
 10
65.6133
 20
-1061.39
 11
65.3486
 21
-1061.54
  0
LINE
  8
0
 10
65.3486
 20
-1061.54
 11
65.0566
 21
-1061.63
  0
LINE
  8
0
 10
65.0566
 20
-1061.63
 11
64.7432
 21
-1061.66
  0
LINE
  8
0
 10
64.7432
 20
-1061.66
 11
64.4297
 21
-1061.63
  0
ENDSEC
  0
SECTION
  2
OBJECTS
  0
DICTIONARY
  0
ENDSEC
  0
EOF
