  0
SECTION
  2
BLOCKS
  0
ENDSEC
  0
SECTION
  2
ENTITIES
  0
LINE
  8
0
 10
-8
 20
-77.5
 11
-3
 21
-77.5
  0
LINE
  8
0
 10
-3
 20
-77.5
 11
-3
 21
-80.5
  0
LINE
  8
0
 10
-3
 20
-80.5
 11
2.99998
 21
-80.5
  0
LINE
  8
0
 10
2.99998
 20
-80.5
 11
2.99998
 21
-77.5
  0
LINE
  8
0
 10
2.99998
 20
-77.5
 11
7.99998
 21
-77.5
  0
LINE
  8
0
 10
7.99998
 20
-77.5
 11
7.99998
 21
-80.5
  0
LINE
  8
0
 10
7.99998
 20
-80.5
 11
14
 21
-80.5
  0
LINE
  8
0
 10
14
 20
-80.5
 11
14
 21
-67.5
  0
LINE
  8
0
 10
14
 20
-67.5
 11
11
 21
-67.5
  0
LINE
  8
0
 10
11
 20
-67.5
 11
11
 21
-62.5
  0
LINE
  8
0
 10
11
 20
-62.5
 11
14
 21
-62.5
  0
LINE
  8
0
 10
14
 20
-62.5
 11
14
 21
-24.1667
  0
LINE
  8
0
 10
14
 20
-24.1667
 11
11
 21
-24.1667
  0
LINE
  8
0
 10
11
 20
-24.1667
 11
11
 21
-19.1667
  0
LINE
  8
0
 10
11
 20
-19.1667
 11
14
 21
-19.1667
  0
LINE
  8
0
 10
14
 20
-19.1667
 11
14
 21
19.1667
  0
LINE
  8
0
 10
14
 20
19.1667
 11
11
 21
19.1667
  0
LINE
  8
0
 10
11
 20
19.1667
 11
11
 21
24.1667
  0
LINE
  8
0
 10
11
 20
24.1667
 11
14
 21
24.1667
  0
LINE
  8
0
 10
14
 20
24.1667
 11
14
 21
62.5
  0
LINE
  8
0
 10
14
 20
62.5
 11
11
 21
62.5
  0
LINE
  8
0
 10
11
 20
62.5
 11
11
 21
67.5
  0
LINE
  8
0
 10
11
 20
67.5
 11
14
 21
67.5
  0
LINE
  8
0
 10
14
 20
67.5
 11
14
 21
80.5
  0
LINE
  8
0
 10
14
 20
80.5
 11
8
 21
80.5
  0
LINE
  8
0
 10
8
 20
80.5
 11
8
 21
77.5
  0
LINE
  8
0
 10
8
 20
77.5
 11
3
 21
77.5
  0
LINE
  8
0
 10
3
 20
77.5
 11
3
 21
80.5
  0
LINE
  8
0
 10
3
 20
80.5
 11
-2.99998
 21
80.5
  0
LINE
  8
0
 10
-2.99998
 20
80.5
 11
-2.99998
 21
77.5
  0
LINE
  8
0
 10
-2.99998
 20
77.5
 11
-7.99998
 21
77.5
  0
LINE
  8
0
 10
-7.99998
 20
77.5
 11
-7.99998
 21
80.5
  0
LINE
  8
0
 10
-7.99998
 20
80.5
 11
-14
 21
80.5
  0
LINE
  8
0
 10
-14
 20
80.5
 11
-14
 21
67.5
  0
LINE
  8
0
 10
-14
 20
67.5
 11
-11
 21
67.5
  0
LINE
  8
0
 10
-11
 20
67.5
 11
-11
 21
62.5
  0
LINE
  8
0
 10
-11
 20
62.5
 11
-14
 21
62.5
  0
LINE
  8
0
 10
-14
 20
62.5
 11
-14
 21
24.1667
  0
LINE
  8
0
 10
-14
 20
24.1667
 11
-11
 21
24.1667
  0
LINE
  8
0
 10
-11
 20
24.1667
 11
-11
 21
19.1667
  0
LINE
  8
0
 10
-11
 20
19.1667
 11
-14
 21
19.1667
  0
LINE
  8
0
 10
-14
 20
19.1667
 11
-14
 21
-19.1667
  0
LINE
  8
0
 10
-14
 20
-19.1667
 11
-11
 21
-19.1667
  0
LINE
  8
0
 10
-11
 20
-19.1667
 11
-11
 21
-24.1667
  0
LINE
  8
0
 10
-11
 20
-24.1667
 11
-14
 21
-24.1667
  0
LINE
  8
0
 10
-14
 20
-24.1667
 11
-14
 21
-62.5
  0
LINE
  8
0
 10
-14
 20
-62.5
 11
-11
 21
-62.5
  0
LINE
  8
0
 10
-11
 20
-62.5
 11
-11
 21
-67.5
  0
LINE
  8
0
 10
-11
 20
-67.5
 11
-14
 21
-67.5
  0
LINE
  8
0
 10
-14
 20
-67.5
 11
-14
 21
-80.5
  0
LINE
  8
0
 10
-14
 20
-80.5
 11
-8
 21
-80.5
  0
LINE
  8
0
 10
-8
 20
-80.5
 11
-8
 21
-77.5
  0
LINE
  8
0
 10
-8.25586
 20
-16.7959
 11
-8.25586
 21
-14.4941
  0
LINE
  8
0
 10
-8.25586
 20
-14.4941
 11
8.63768
 21
-14.4941
  0
LINE
  8
0
 10
8.63768
 20
-14.4941
 11
8.63768
 21
-16.7959
  0
LINE
  8
0
 10
8.63768
 20
-16.7959
 11
-8.25586
 21
-16.7959
  0
LINE
  8
0
 10
-8.25586
 20
-29.5264
 11
-8.25586
 21
-27.2236
  0
LINE
  8
0
 10
-8.25586
 20
-27.2236
 11
8.63768
 21
-27.2236
  0
LINE
  8
0
 10
8.63768
 20
-27.2236
 11
8.63768
 21
-29.5264
  0
LINE
  8
0
 10
8.63768
 20
-29.5264
 11
-8.25586
 21
-29.5264
  0
LINE
  8
0
 10
-8.25586
 20
-46.083
 11
-8.25586
 21
-43.7812
  0
LINE
  8
0
 10
-8.25586
 20
-43.7812
 11
8.63768
 21
-43.7812
  0
LINE
  8
0
 10
8.63768
 20
-43.7812
 11
8.63768
 21
-46.083
  0
LINE
  8
0
 10
8.63768
 20
-46.083
 11
-8.25586
 21
-46.083
  0
LINE
  8
0
 10
-8
 20
-243.5
 11
-3
 21
-243.5
  0
LINE
  8
0
 10
-3
 20
-243.5
 11
-3
 21
-246.5
  0
LINE
  8
0
 10
-3
 20
-246.5
 11
2.99998
 21
-246.5
  0
LINE
  8
0
 10
2.99998
 20
-246.5
 11
2.99998
 21
-243.5
  0
LINE
  8
0
 10
2.99998
 20
-243.5
 11
7.99998
 21
-243.5
  0
LINE
  8
0
 10
7.99998
 20
-243.5
 11
7.99998
 21
-246.5
  0
LINE
  8
0
 10
7.99998
 20
-246.5
 11
14
 21
-246.5
  0
LINE
  8
0
 10
14
 20
-246.5
 11
14
 21
-233.5
  0
LINE
  8
0
 10
14
 20
-233.5
 11
11
 21
-233.5
  0
LINE
  8
0
 10
11
 20
-233.5
 11
11
 21
-228.5
  0
LINE
  8
0
 10
11
 20
-228.5
 11
14
 21
-228.5
  0
LINE
  8
0
 10
14
 20
-228.5
 11
14
 21
-190.167
  0
LINE
  8
0
 10
14
 20
-190.167
 11
11
 21
-190.167
  0
LINE
  8
0
 10
11
 20
-190.167
 11
11
 21
-185.167
  0
LINE
  8
0
 10
11
 20
-185.167
 11
14
 21
-185.167
  0
LINE
  8
0
 10
14
 20
-185.167
 11
14
 21
-146.833
  0
LINE
  8
0
 10
14
 20
-146.833
 11
11
 21
-146.833
  0
LINE
  8
0
 10
11
 20
-146.833
 11
11
 21
-141.833
  0
LINE
  8
0
 10
11
 20
-141.833
 11
14
 21
-141.833
  0
LINE
  8
0
 10
14
 20
-141.833
 11
14
 21
-103.5
  0
LINE
  8
0
 10
14
 20
-103.5
 11
11
 21
-103.5
  0
LINE
  8
0
 10
11
 20
-103.5
 11
11
 21
-98.5
  0
LINE
  8
0
 10
11
 20
-98.5
 11
14
 21
-98.5
  0
LINE
  8
0
 10
14
 20
-98.5
 11
14
 21
-85.5
  0
LINE
  8
0
 10
14
 20
-85.5
 11
8
 21
-85.5
  0
LINE
  8
0
 10
8
 20
-85.5
 11
8
 21
-88.5
  0
LINE
  8
0
 10
8
 20
-88.5
 11
3
 21
-88.5
  0
LINE
  8
0
 10
3
 20
-88.5
 11
3
 21
-85.5
  0
LINE
  8
0
 10
3
 20
-85.5
 11
-2.99998
 21
-85.5
  0
LINE
  8
0
 10
-2.99998
 20
-85.5
 11
-2.99998
 21
-88.5
  0
LINE
  8
0
 10
-2.99998
 20
-88.5
 11
-7.99998
 21
-88.5
  0
LINE
  8
0
 10
-7.99998
 20
-88.5
 11
-7.99998
 21
-85.5
  0
LINE
  8
0
 10
-7.99998
 20
-85.5
 11
-14
 21
-85.5
  0
LINE
  8
0
 10
-14
 20
-85.5
 11
-14
 21
-98.5
  0
LINE
  8
0
 10
-14
 20
-98.5
 11
-11
 21
-98.5
  0
LINE
  8
0
 10
-11
 20
-98.5
 11
-11
 21
-103.5
  0
LINE
  8
0
 10
-11
 20
-103.5
 11
-14
 21
-103.5
  0
LINE
  8
0
 10
-14
 20
-103.5
 11
-14
 21
-141.833
  0
LINE
  8
0
 10
-14
 20
-141.833
 11
-11
 21
-141.833
  0
LINE
  8
0
 10
-11
 20
-141.833
 11
-11
 21
-146.833
  0
LINE
  8
0
 10
-11
 20
-146.833
 11
-14
 21
-146.833
  0
LINE
  8
0
 10
-14
 20
-146.833
 11
-14
 21
-185.167
  0
LINE
  8
0
 10
-14
 20
-185.167
 11
-11
 21
-185.167
  0
LINE
  8
0
 10
-11
 20
-185.167
 11
-11
 21
-190.167
  0
LINE
  8
0
 10
-11
 20
-190.167
 11
-14
 21
-190.167
  0
LINE
  8
0
 10
-14
 20
-190.167
 11
-14
 21
-228.5
  0
LINE
  8
0
 10
-14
 20
-228.5
 11
-11
 21
-228.5
  0
LINE
  8
0
 10
-11
 20
-228.5
 11
-11
 21
-233.5
  0
LINE
  8
0
 10
-11
 20
-233.5
 11
-14
 21
-233.5
  0
LINE
  8
0
 10
-14
 20
-233.5
 11
-14
 21
-246.5
  0
LINE
  8
0
 10
-14
 20
-246.5
 11
-8
 21
-246.5
  0
LINE
  8
0
 10
-8
 20
-246.5
 11
-8
 21
-243.5
  0
LINE
  8
0
 10
-8.6377
 20
-182.796
 11
-8.6377
 21
-180.494
  0
LINE
  8
0
 10
-8.6377
 20
-180.494
 11
8.25584
 21
-180.494
  0
LINE
  8
0
 10
8.25584
 20
-180.494
 11
8.25584
 21
-182.796
  0
LINE
  8
0
 10
8.25584
 20
-182.796
 11
-8.6377
 21
-182.796
  0
LINE
  8
0
 10
-8.6377
 20
-195.526
 11
-8.6377
 21
-193.224
  0
LINE
  8
0
 10
-8.6377
 20
-193.224
 11
8.25584
 21
-193.224
  0
LINE
  8
0
 10
8.25584
 20
-193.224
 11
8.25584
 21
-195.526
  0
LINE
  8
0
 10
8.25584
 20
-195.526
 11
-8.6377
 21
-195.526
  0
LINE
  8
0
 10
-8.6377
 20
-212.083
 11
-8.6377
 21
-209.781
  0
LINE
  8
0
 10
-8.6377
 20
-209.781
 11
8.25584
 21
-209.781
  0
LINE
  8
0
 10
8.25584
 20
-209.781
 11
8.25584
 21
-212.083
  0
LINE
  8
0
 10
8.25584
 20
-212.083
 11
-8.6377
 21
-212.083
  0
LINE
  8
0
 10
-3
 20
-489.5
 11
3
 21
-489.5
  0
LINE
  8
0
 10
3
 20
-489.5
 11
3
 21
-492.5
  0
LINE
  8
0
 10
3
 20
-492.5
 11
8
 21
-492.5
  0
LINE
  8
0
 10
8
 20
-492.5
 11
8
 21
-489.5
  0
LINE
  8
0
 10
8
 20
-489.5
 11
14
 21
-489.5
  0
LINE
  8
0
 10
14
 20
-489.5
 11
14
 21
-479.5
  0
LINE
  8
0
 10
14
 20
-479.5
 11
11
 21
-479.5
  0
LINE
  8
0
 10
11
 20
-479.5
 11
11
 21
-474.5
  0
LINE
  8
0
 10
11
 20
-474.5
 11
14
 21
-474.5
  0
LINE
  8
0
 10
14
 20
-474.5
 11
14
 21
-409.5
  0
LINE
  8
0
 10
14
 20
-409.5
 11
11
 21
-409.5
  0
LINE
  8
0
 10
11
 20
-409.5
 11
11
 21
-404.5
  0
LINE
  8
0
 10
11
 20
-404.5
 11
14
 21
-404.5
  0
LINE
  8
0
 10
14
 20
-404.5
 11
14
 21
-339.5
  0
LINE
  8
0
 10
14
 20
-339.5
 11
11
 21
-339.5
  0
LINE
  8
0
 10
11
 20
-339.5
 11
11
 21
-334.5
  0
LINE
  8
0
 10
11
 20
-334.5
 11
14
 21
-334.5
  0
LINE
  8
0
 10
14
 20
-334.5
 11
14
 21
-269.5
  0
LINE
  8
0
 10
14
 20
-269.5
 11
11
 21
-269.5
  0
LINE
  8
0
 10
11
 20
-269.5
 11
11
 21
-264.5
  0
LINE
  8
0
 10
11
 20
-264.5
 11
14
 21
-264.5
  0
LINE
  8
0
 10
14
 20
-264.5
 11
14
 21
-254.5
  0
LINE
  8
0
 10
14
 20
-254.5
 11
8
 21
-254.5
  0
LINE
  8
0
 10
8
 20
-254.5
 11
8
 21
-251.5
  0
LINE
  8
0
 10
8
 20
-251.5
 11
3
 21
-251.5
  0
LINE
  8
0
 10
3
 20
-251.5
 11
3
 21
-254.5
  0
LINE
  8
0
 10
3
 20
-254.5
 11
-3
 21
-254.5
  0
LINE
  8
0
 10
-3
 20
-254.5
 11
-3
 21
-251.5
  0
LINE
  8
0
 10
-3
 20
-251.5
 11
-8
 21
-251.5
  0
LINE
  8
0
 10
-8
 20
-251.5
 11
-8
 21
-254.5
  0
LINE
  8
0
 10
-8
 20
-254.5
 11
-14
 21
-254.5
  0
LINE
  8
0
 10
-14
 20
-254.5
 11
-14
 21
-264.5
  0
LINE
  8
0
 10
-14
 20
-264.5
 11
-11
 21
-264.5
  0
LINE
  8
0
 10
-11
 20
-264.5
 11
-11
 21
-269.5
  0
LINE
  8
0
 10
-11
 20
-269.5
 11
-14
 21
-269.5
  0
LINE
  8
0
 10
-14
 20
-269.5
 11
-14
 21
-334.5
  0
LINE
  8
0
 10
-14
 20
-334.5
 11
-11
 21
-334.5
  0
LINE
  8
0
 10
-11
 20
-334.5
 11
-11
 21
-339.5
  0
LINE
  8
0
 10
-11
 20
-339.5
 11
-14
 21
-339.5
  0
LINE
  8
0
 10
-14
 20
-339.5
 11
-14
 21
-404.5
  0
LINE
  8
0
 10
-14
 20
-404.5
 11
-11
 21
-404.5
  0
LINE
  8
0
 10
-11
 20
-404.5
 11
-11
 21
-409.5
  0
LINE
  8
0
 10
-11
 20
-409.5
 11
-14
 21
-409.5
  0
LINE
  8
0
 10
-14
 20
-409.5
 11
-14
 21
-474.5
  0
LINE
  8
0
 10
-14
 20
-474.5
 11
-11
 21
-474.5
  0
LINE
  8
0
 10
-11
 20
-474.5
 11
-11
 21
-479.5
  0
LINE
  8
0
 10
-11
 20
-479.5
 11
-14
 21
-479.5
  0
LINE
  8
0
 10
-14
 20
-479.5
 11
-14
 21
-489.5
  0
LINE
  8
0
 10
-14
 20
-489.5
 11
-8
 21
-489.5
  0
LINE
  8
0
 10
-8
 20
-489.5
 11
-8
 21
-492.5
  0
LINE
  8
0
 10
-8
 20
-492.5
 11
-3
 21
-492.5
  0
LINE
  8
0
 10
-3
 20
-492.5
 11
-3
 21
-489.5
  0
LINE
  8
0
 10
-3
 20
-735.5
 11
3
 21
-735.5
  0
LINE
  8
0
 10
3
 20
-735.5
 11
3
 21
-738.5
  0
LINE
  8
0
 10
3
 20
-738.5
 11
8
 21
-738.5
  0
LINE
  8
0
 10
8
 20
-738.5
 11
8
 21
-735.5
  0
LINE
  8
0
 10
8
 20
-735.5
 11
14
 21
-735.5
  0
LINE
  8
0
 10
14
 20
-735.5
 11
14
 21
-725.5
  0
LINE
  8
0
 10
14
 20
-725.5
 11
11
 21
-725.5
  0
LINE
  8
0
 10
11
 20
-725.5
 11
11
 21
-720.5
  0
LINE
  8
0
 10
11
 20
-720.5
 11
14
 21
-720.5
  0
LINE
  8
0
 10
14
 20
-720.5
 11
14
 21
-655.5
  0
LINE
  8
0
 10
14
 20
-655.5
 11
11
 21
-655.5
  0
LINE
  8
0
 10
11
 20
-655.5
 11
11
 21
-650.5
  0
LINE
  8
0
 10
11
 20
-650.5
 11
14
 21
-650.5
  0
LINE
  8
0
 10
14
 20
-650.5
 11
14
 21
-585.5
  0
LINE
  8
0
 10
14
 20
-585.5
 11
11
 21
-585.5
  0
LINE
  8
0
 10
11
 20
-585.5
 11
11
 21
-580.5
  0
LINE
  8
0
 10
11
 20
-580.5
 11
14
 21
-580.5
  0
LINE
  8
0
 10
14
 20
-580.5
 11
14
 21
-515.5
  0
LINE
  8
0
 10
14
 20
-515.5
 11
11
 21
-515.5
  0
LINE
  8
0
 10
11
 20
-515.5
 11
11
 21
-510.5
  0
LINE
  8
0
 10
11
 20
-510.5
 11
14
 21
-510.5
  0
LINE
  8
0
 10
14
 20
-510.5
 11
14
 21
-500.5
  0
LINE
  8
0
 10
14
 20
-500.5
 11
8
 21
-500.5
  0
LINE
  8
0
 10
8
 20
-500.5
 11
8
 21
-497.5
  0
LINE
  8
0
 10
8
 20
-497.5
 11
3
 21
-497.5
  0
LINE
  8
0
 10
3
 20
-497.5
 11
3
 21
-500.5
  0
LINE
  8
0
 10
3
 20
-500.5
 11
-3
 21
-500.5
  0
LINE
  8
0
 10
-3
 20
-500.5
 11
-3
 21
-497.5
  0
LINE
  8
0
 10
-3
 20
-497.5
 11
-8
 21
-497.5
  0
LINE
  8
0
 10
-8
 20
-497.5
 11
-8
 21
-500.5
  0
LINE
  8
0
 10
-8
 20
-500.5
 11
-14
 21
-500.5
  0
LINE
  8
0
 10
-14
 20
-500.5
 11
-14
 21
-510.5
  0
LINE
  8
0
 10
-14
 20
-510.5
 11
-11
 21
-510.5
  0
LINE
  8
0
 10
-11
 20
-510.5
 11
-11
 21
-515.5
  0
LINE
  8
0
 10
-11
 20
-515.5
 11
-14
 21
-515.5
  0
LINE
  8
0
 10
-14
 20
-515.5
 11
-14
 21
-580.5
  0
LINE
  8
0
 10
-14
 20
-580.5
 11
-11
 21
-580.5
  0
LINE
  8
0
 10
-11
 20
-580.5
 11
-11
 21
-585.5
  0
LINE
  8
0
 10
-11
 20
-585.5
 11
-14
 21
-585.5
  0
LINE
  8
0
 10
-14
 20
-585.5
 11
-14
 21
-650.5
  0
LINE
  8
0
 10
-14
 20
-650.5
 11
-11
 21
-650.5
  0
LINE
  8
0
 10
-11
 20
-650.5
 11
-11
 21
-655.5
  0
LINE
  8
0
 10
-11
 20
-655.5
 11
-14
 21
-655.5
  0
LINE
  8
0
 10
-14
 20
-655.5
 11
-14
 21
-720.5
  0
LINE
  8
0
 10
-14
 20
-720.5
 11
-11
 21
-720.5
  0
LINE
  8
0
 10
-11
 20
-720.5
 11
-11
 21
-725.5
  0
LINE
  8
0
 10
-11
 20
-725.5
 11
-14
 21
-725.5
  0
LINE
  8
0
 10
-14
 20
-725.5
 11
-14
 21
-735.5
  0
LINE
  8
0
 10
-14
 20
-735.5
 11
-8
 21
-735.5
  0
LINE
  8
0
 10
-8
 20
-735.5
 11
-8
 21
-738.5
  0
LINE
  8
0
 10
-8
 20
-738.5
 11
-3
 21
-738.5
  0
LINE
  8
0
 10
-3
 20
-738.5
 11
-3
 21
-735.5
  0
LINE
  8
0
 10
-0.697266
 20
-528.852
 11
-1.69629
 21
-528.54
  0
LINE
  8
0
 10
-1.69629
 20
-528.54
 11
-2.60059
 21
-528.05
  0
LINE
  8
0
 10
-2.60059
 20
-528.05
 11
-3.38867
 21
-527.399
  0
LINE
  8
0
 10
-3.38867
 20
-527.399
 11
-4.03809
 21
-526.612
  0
LINE
  8
0
 10
-4.03809
 20
-526.612
 11
-4.5293
 21
-525.708
  0
LINE
  8
0
 10
-4.5293
 20
-525.708
 11
-4.83984
 21
-524.709
  0
LINE
  8
0
 10
-4.83984
 20
-524.709
 11
-4.94727
 21
-523.638
  0
LINE
  8
0
 10
-4.94727
 20
-523.638
 11
-4.83984
 21
-522.564
  0
LINE
  8
0
 10
-4.83984
 20
-522.564
 11
-4.5293
 21
-521.564
  0
LINE
  8
0
 10
-4.5293
 20
-521.564
 11
-4.03809
 21
-520.661
  0
LINE
  8
0
 10
-4.03809
 20
-520.661
 11
-3.38867
 21
-519.873
  0
LINE
  8
0
 10
-3.38867
 20
-519.873
 11
-2.60059
 21
-519.224
  0
LINE
  8
0
 10
-2.60059
 20
-519.224
 11
-1.69629
 21
-518.731
  0
LINE
  8
0
 10
-1.69629
 20
-518.731
 11
-0.697266
 21
-518.423
  0
LINE
  8
0
 10
-0.697266
 20
-518.423
 11
0.374023
 21
-518.314
  0
LINE
  8
0
 10
0.374023
 20
-518.314
 11
1.44727
 21
-518.423
  0
LINE
  8
0
 10
1.44727
 20
-518.423
 11
2.44727
 21
-518.731
  0
LINE
  8
0
 10
2.44727
 20
-518.731
 11
3.35059
 21
-519.224
  0
LINE
  8
0
 10
3.35059
 20
-519.224
 11
4.13867
 21
-519.873
  0
LINE
  8
0
 10
4.13867
 20
-519.873
 11
4.78809
 21
-520.661
  0
LINE
  8
0
 10
4.78809
 20
-520.661
 11
5.2793
 21
-521.564
  0
LINE
  8
0
 10
5.2793
 20
-521.564
 11
5.58887
 21
-522.564
  0
LINE
  8
0
 10
5.58887
 20
-522.564
 11
5.69727
 21
-523.638
  0
LINE
  8
0
 10
5.69727
 20
-523.638
 11
5.58887
 21
-524.709
  0
LINE
  8
0
 10
5.58887
 20
-524.709
 11
5.2793
 21
-525.708
  0
LINE
  8
0
 10
5.2793
 20
-525.708
 11
4.78809
 21
-526.612
  0
LINE
  8
0
 10
4.78809
 20
-526.612
 11
4.13867
 21
-527.399
  0
LINE
  8
0
 10
4.13867
 20
-527.399
 11
3.35059
 21
-528.05
  0
LINE
  8
0
 10
3.35059
 20
-528.05
 11
2.44727
 21
-528.54
  0
LINE
  8
0
 10
2.44727
 20
-528.54
 11
1.44727
 21
-528.852
  0
LINE
  8
0
 10
1.44727
 20
-528.852
 11
0.374023
 21
-528.959
  0
LINE
  8
0
 10
0.374023
 20
-528.959
 11
-0.697266
 21
-528.852
  0
LINE
  8
0
 10
-0.737305
 20
-681.581
 11
-1.33301
 21
-681.396
  0
LINE
  8
0
 10
-1.33301
 20
-681.396
 11
-1.87207
 21
-681.104
  0
LINE
  8
0
 10
-1.87207
 20
-681.104
 11
-2.3418
 21
-680.716
  0
LINE
  8
0
 10
-2.3418
 20
-680.716
 11
-2.72852
 21
-680.247
  0
LINE
  8
0
 10
-2.72852
 20
-680.247
 11
-3.02051
 21
-679.708
  0
LINE
  8
0
 10
-3.02051
 20
-679.708
 11
-3.20605
 21
-679.112
  0
LINE
  8
0
 10
-3.20605
 20
-679.112
 11
-3.27051
 21
-678.475
  0
LINE
  8
0
 10
-3.27051
 20
-678.475
 11
-3.20605
 21
-677.835
  0
LINE
  8
0
 10
-3.20605
 20
-677.835
 11
-3.02051
 21
-677.239
  0
LINE
  8
0
 10
-3.02051
 20
-677.239
 11
-2.72852
 21
-676.701
  0
LINE
  8
0
 10
-2.72852
 20
-676.701
 11
-2.3418
 21
-676.231
  0
LINE
  8
0
 10
-2.3418
 20
-676.231
 11
-1.87207
 21
-675.844
  0
LINE
  8
0
 10
-1.87207
 20
-675.844
 11
-1.33301
 21
-675.551
  0
LINE
  8
0
 10
-1.33301
 20
-675.551
 11
-0.737305
 21
-675.367
  0
LINE
  8
0
 10
-0.737305
 20
-675.367
 11
-0.0986328
 21
-675.303
  0
LINE
  8
0
 10
-0.0986328
 20
-675.303
 11
0.540039
 21
-675.367
  0
LINE
  8
0
 10
0.540039
 20
-675.367
 11
1.13574
 21
-675.551
  0
LINE
  8
0
 10
1.13574
 20
-675.551
 11
1.6748
 21
-675.844
  0
LINE
  8
0
 10
1.6748
 20
-675.844
 11
2.14453
 21
-676.231
  0
LINE
  8
0
 10
2.14453
 20
-676.231
 11
2.53125
 21
-676.701
  0
LINE
  8
0
 10
2.53125
 20
-676.701
 11
2.82324
 21
-677.239
  0
LINE
  8
0
 10
2.82324
 20
-677.239
 11
3.00781
 21
-677.835
  0
LINE
  8
0
 10
3.00781
 20
-677.835
 11
3.07324
 21
-678.475
  0
LINE
  8
0
 10
3.07324
 20
-678.475
 11
3.00781
 21
-679.112
  0
LINE
  8
0
 10
3.00781
 20
-679.112
 11
2.82324
 21
-679.708
  0
LINE
  8
0
 10
2.82324
 20
-679.708
 11
2.53125
 21
-680.247
  0
LINE
  8
0
 10
2.53125
 20
-680.247
 11
2.14453
 21
-680.716
  0
LINE
  8
0
 10
2.14453
 20
-680.716
 11
1.6748
 21
-681.104
  0
LINE
  8
0
 10
1.6748
 20
-681.104
 11
1.13574
 21
-681.396
  0
LINE
  8
0
 10
1.13574
 20
-681.396
 11
0.540039
 21
-681.581
  0
LINE
  8
0
 10
0.540039
 20
-681.581
 11
-0.0986328
 21
-681.646
  0
LINE
  8
0
 10
-0.0986328
 20
-681.646
 11
-0.737305
 21
-681.581
  0
LINE
  8
0
 10
-0.737305
 20
-695.109
 11
-1.33301
 21
-694.924
  0
LINE
  8
0
 10
-1.33301
 20
-694.924
 11
-1.87207
 21
-694.632
  0
LINE
  8
0
 10
-1.87207
 20
-694.632
 11
-2.3418
 21
-694.245
  0
LINE
  8
0
 10
-2.3418
 20
-694.245
 11
-2.72852
 21
-693.775
  0
LINE
  8
0
 10
-2.72852
 20
-693.775
 11
-3.02051
 21
-693.237
  0
LINE
  8
0
 10
-3.02051
 20
-693.237
 11
-3.20605
 21
-692.642
  0
LINE
  8
0
 10
-3.20605
 20
-692.642
 11
-3.27051
 21
-692.003
  0
LINE
  8
0
 10
-3.27051
 20
-692.003
 11
-3.20605
 21
-691.363
  0
LINE
  8
0
 10
-3.20605
 20
-691.363
 11
-3.02051
 21
-690.768
  0
LINE
  8
0
 10
-3.02051
 20
-690.768
 11
-2.72852
 21
-690.229
  0
LINE
  8
0
 10
-2.72852
 20
-690.229
 11
-2.3418
 21
-689.76
  0
LINE
  8
0
 10
-2.3418
 20
-689.76
 11
-1.87207
 21
-689.373
  0
LINE
  8
0
 10
-1.87207
 20
-689.373
 11
-1.33301
 21
-689.08
  0
LINE
  8
0
 10
-1.33301
 20
-689.08
 11
-0.737305
 21
-688.896
  0
LINE
  8
0
 10
-0.737305
 20
-688.896
 11
-0.0986328
 21
-688.831
  0
LINE
  8
0
 10
-0.0986328
 20
-688.831
 11
0.540039
 21
-688.896
  0
LINE
  8
0
 10
0.540039
 20
-688.896
 11
1.13574
 21
-689.08
  0
LINE
  8
0
 10
1.13574
 20
-689.08
 11
1.6748
 21
-689.373
  0
LINE
  8
0
 10
1.6748
 20
-689.373
 11
2.14453
 21
-689.76
  0
LINE
  8
0
 10
2.14453
 20
-689.76
 11
2.53125
 21
-690.229
  0
LINE
  8
0
 10
2.53125
 20
-690.229
 11
2.82324
 21
-690.768
  0
LINE
  8
0
 10
2.82324
 20
-690.768
 11
3.00781
 21
-691.363
  0
LINE
  8
0
 10
3.00781
 20
-691.363
 11
3.07324
 21
-692.003
  0
LINE
  8
0
 10
3.07324
 20
-692.003
 11
3.00781
 21
-692.642
  0
LINE
  8
0
 10
3.00781
 20
-692.642
 11
2.82324
 21
-693.237
  0
LINE
  8
0
 10
2.82324
 20
-693.237
 11
2.53125
 21
-693.775
  0
LINE
  8
0
 10
2.53125
 20
-693.775
 11
2.14453
 21
-694.245
  0
LINE
  8
0
 10
2.14453
 20
-694.245
 11
1.6748
 21
-694.632
  0
LINE
  8
0
 10
1.6748
 20
-694.632
 11
1.13574
 21
-694.924
  0
LINE
  8
0
 10
1.13574
 20
-694.924
 11
0.540039
 21
-695.109
  0
LINE
  8
0
 10
0.540039
 20
-695.109
 11
-0.0986328
 21
-695.174
  0
LINE
  8
0
 10
-0.0986328
 20
-695.174
 11
-0.737305
 21
-695.109
  0
LINE
  8
0
 10
-1.04297
 20
-718.367
 11
-1.40918
 21
-718.33
  0
LINE
  8
0
 10
-1.40918
 20
-718.33
 11
-1.75
 21
-718.225
  0
LINE
  8
0
 10
-1.75
 20
-718.225
 11
-2.05762
 21
-718.059
  0
LINE
  8
0
 10
-2.05762
 20
-718.059
 11
-2.3252
 21
-717.838
  0
LINE
  8
0
 10
-2.3252
 20
-717.838
 11
-2.5459
 21
-717.57
  0
LINE
  8
0
 10
-2.5459
 20
-717.57
 11
-2.71191
 21
-717.263
  0
LINE
  8
0
 10
-2.71191
 20
-717.263
 11
-2.81738
 21
-716.922
  0
LINE
  8
0
 10
-2.81738
 20
-716.922
 11
-2.85449
 21
-716.556
  0
LINE
  8
0
 10
-2.85449
 20
-716.556
 11
-2.85449
 21
-708.24
  0
LINE
  8
0
 10
-2.85449
 20
-708.24
 11
-2.81738
 21
-707.875
  0
LINE
  8
0
 10
-2.81738
 20
-707.875
 11
-2.71191
 21
-707.534
  0
LINE
  8
0
 10
-2.71191
 20
-707.534
 11
-2.5459
 21
-707.227
  0
LINE
  8
0
 10
-2.5459
 20
-707.227
 11
-2.3252
 21
-706.959
  0
LINE
  8
0
 10
-2.3252
 20
-706.959
 11
-2.05762
 21
-706.738
  0
LINE
  8
0
 10
-2.05762
 20
-706.738
 11
-1.75
 21
-706.571
  0
LINE
  8
0
 10
-1.75
 20
-706.571
 11
-1.40918
 21
-706.467
  0
LINE
  8
0
 10
-1.40918
 20
-706.467
 11
-1.04297
 21
-706.43
  0
LINE
  8
0
 10
-1.04297
 20
-706.43
 11
1.15527
 21
-706.43
  0
LINE
  8
0
 10
1.15527
 20
-706.43
 11
1.52051
 21
-706.467
  0
LINE
  8
0
 10
1.52051
 20
-706.467
 11
1.86133
 21
-706.571
  0
LINE
  8
0
 10
1.86133
 20
-706.571
 11
2.16895
 21
-706.738
  0
LINE
  8
0
 10
2.16895
 20
-706.738
 11
2.43652
 21
-706.959
  0
LINE
  8
0
 10
2.43652
 20
-706.959
 11
2.65723
 21
-707.227
  0
LINE
  8
0
 10
2.65723
 20
-707.227
 11
2.82422
 21
-707.534
  0
LINE
  8
0
 10
2.82422
 20
-707.534
 11
2.92871
 21
-707.875
  0
LINE
  8
0
 10
2.92871
 20
-707.875
 11
2.96582
 21
-708.24
  0
LINE
  8
0
 10
2.96582
 20
-708.24
 11
2.96582
 21
-716.556
  0
LINE
  8
0
 10
2.96582
 20
-716.556
 11
2.92871
 21
-716.922
  0
LINE
  8
0
 10
2.92871
 20
-716.922
 11
2.82422
 21
-717.263
  0
LINE
  8
0
 10
2.82422
 20
-717.263
 11
2.65723
 21
-717.57
  0
LINE
  8
0
 10
2.65723
 20
-717.57
 11
2.43652
 21
-717.838
  0
LINE
  8
0
 10
2.43652
 20
-717.838
 11
2.16895
 21
-718.059
  0
LINE
  8
0
 10
2.16895
 20
-718.059
 11
1.86133
 21
-718.225
  0
LINE
  8
0
 10
1.86133
 20
-718.225
 11
1.52051
 21
-718.33
  0
LINE
  8
0
 10
1.52051
 20
-718.33
 11
1.15527
 21
-718.367
  0
LINE
  8
0
 10
1.15527
 20
-718.367
 11
-1.04297
 21
-718.367
  0
LINE
  8
0
 10
-62.5
 20
-981.5
 11
-24.1667
 21
-981.5
  0
LINE
  8
0
 10
-24.1667
 20
-981.5
 11
-24.1667
 21
-984.5
  0
LINE
  8
0
 10
-24.1667
 20
-984.5
 11
-19.1667
 21
-984.5
  0
LINE
  8
0
 10
-19.1667
 20
-984.5
 11
-19.1667
 21
-981.5
  0
LINE
  8
0
 10
-19.1667
 20
-981.5
 11
19.1667
 21
-981.5
  0
LINE
  8
0
 10
19.1667
 20
-981.5
 11
19.1667
 21
-984.5
  0
LINE
  8
0
 10
19.1667
 20
-984.5
 11
24.1667
 21
-984.5
  0
LINE
  8
0
 10
24.1667
 20
-984.5
 11
24.1667
 21
-981.5
  0
LINE
  8
0
 10
24.1667
 20
-981.5
 11
62.5
 21
-981.5
  0
LINE
  8
0
 10
62.5
 20
-981.5
 11
62.5
 21
-984.5
  0
LINE
  8
0
 10
62.5
 20
-984.5
 11
67.5
 21
-984.5
  0
LINE
  8
0
 10
67.5
 20
-984.5
 11
67.5
 21
-981.5
  0
LINE
  8
0
 10
67.5
 20
-981.5
 11
77.5
 21
-981.5
  0
LINE
  8
0
 10
77.5
 20
-981.5
 11
77.5
 21
-971.5
  0
LINE
  8
0
 10
77.5
 20
-971.5
 11
80.5
 21
-971.5
  0
LINE
  8
0
 10
80.5
 20
-971.5
 11
80.5
 21
-966.5
  0
LINE
  8
0
 10
80.5
 20
-966.5
 11
77.5
 21
-966.5
  0
LINE
  8
0
 10
77.5
 20
-966.5
 11
77.5
 21
-901.5
  0
LINE
  8
0
 10
77.5
 20
-901.5
 11
80.5
 21
-901.5
  0
LINE
  8
0
 10
80.5
 20
-901.5
 11
80.5
 21
-896.5
  0
LINE
  8
0
 10
80.5
 20
-896.5
 11
77.5
 21
-896.5
  0
LINE
  8
0
 10
77.5
 20
-896.5
 11
77.5
 21
-831.5
  0
LINE
  8
0
 10
77.5
 20
-831.5
 11
80.5
 21
-831.5
  0
LINE
  8
0
 10
80.5
 20
-831.5
 11
80.5
 21
-826.5
  0
LINE
  8
0
 10
80.5
 20
-826.5
 11
77.5
 21
-826.5
  0
LINE
  8
0
 10
77.5
 20
-826.5
 11
77.5
 21
-761.5
  0
LINE
  8
0
 10
77.5
 20
-761.5
 11
80.5
 21
-761.5
  0
LINE
  8
0
 10
80.5
 20
-761.5
 11
80.5
 21
-756.5
  0
LINE
  8
0
 10
80.5
 20
-756.5
 11
77.5
 21
-756.5
  0
LINE
  8
0
 10
77.5
 20
-756.5
 11
77.5
 21
-746.5
  0
LINE
  8
0
 10
77.5
 20
-746.5
 11
67.5
 21
-746.5
  0
LINE
  8
0
 10
67.5
 20
-746.5
 11
67.5
 21
-743.5
  0
LINE
  8
0
 10
67.5
 20
-743.5
 11
62.5
 21
-743.5
  0
LINE
  8
0
 10
62.5
 20
-743.5
 11
62.5
 21
-746.5
  0
LINE
  8
0
 10
62.5
 20
-746.5
 11
24.1667
 21
-746.5
  0
LINE
  8
0
 10
24.1667
 20
-746.5
 11
24.1667
 21
-743.5
  0
LINE
  8
0
 10
24.1667
 20
-743.5
 11
19.1667
 21
-743.5
  0
LINE
  8
0
 10
19.1667
 20
-743.5
 11
19.1667
 21
-746.5
  0
LINE
  8
0
 10
19.1667
 20
-746.5
 11
-19.1667
 21
-746.5
  0
LINE
  8
0
 10
-19.1667
 20
-746.5
 11
-19.1667
 21
-743.5
  0
LINE
  8
0
 10
-19.1667
 20
-743.5
 11
-24.1667
 21
-743.5
  0
LINE
  8
0
 10
-24.1667
 20
-743.5
 11
-24.1667
 21
-746.5
  0
LINE
  8
0
 10
-24.1667
 20
-746.5
 11
-62.5
 21
-746.5
  0
LINE
  8
0
 10
-62.5
 20
-746.5
 11
-62.5
 21
-743.5
  0
LINE
  8
0
 10
-62.5
 20
-743.5
 11
-67.5
 21
-743.5
  0
LINE
  8
0
 10
-67.5
 20
-743.5
 11
-67.5
 21
-746.5
  0
LINE
  8
0
 10
-67.5
 20
-746.5
 11
-77.5
 21
-746.5
  0
LINE
  8
0
 10
-77.5
 20
-746.5
 11
-77.5
 21
-756.5
  0
LINE
  8
0
 10
-77.5
 20
-756.5
 11
-80.5
 21
-756.5
  0
LINE
  8
0
 10
-80.5
 20
-756.5
 11
-80.5
 21
-761.5
  0
LINE
  8
0
 10
-80.5
 20
-761.5
 11
-77.5
 21
-761.5
  0
LINE
  8
0
 10
-77.5
 20
-761.5
 11
-77.5
 21
-826.5
  0
LINE
  8
0
 10
-77.5
 20
-826.5
 11
-80.5
 21
-826.5
  0
LINE
  8
0
 10
-80.5
 20
-826.5
 11
-80.5
 21
-831.5
  0
LINE
  8
0
 10
-80.5
 20
-831.5
 11
-77.5
 21
-831.5
  0
LINE
  8
0
 10
-77.5
 20
-831.5
 11
-77.5
 21
-896.5
  0
LINE
  8
0
 10
-77.5
 20
-896.5
 11
-80.5
 21
-896.5
  0
LINE
  8
0
 10
-80.5
 20
-896.5
 11
-80.5
 21
-901.5
  0
LINE
  8
0
 10
-80.5
 20
-901.5
 11
-77.5
 21
-901.5
  0
LINE
  8
0
 10
-77.5
 20
-901.5
 11
-77.5
 21
-966.5
  0
LINE
  8
0
 10
-77.5
 20
-966.5
 11
-80.5
 21
-966.5
  0
LINE
  8
0
 10
-80.5
 20
-966.5
 11
-80.5
 21
-971.5
  0
LINE
  8
0
 10
-80.5
 20
-971.5
 11
-77.5
 21
-971.5
  0
LINE
  8
0
 10
-77.5
 20
-971.5
 11
-77.5
 21
-981.5
  0
LINE
  8
0
 10
-77.5
 20
-981.5
 11
-67.5
 21
-981.5
  0
LINE
  8
0
 10
-67.5
 20
-981.5
 11
-67.5
 21
-984.5
  0
LINE
  8
0
 10
-67.5
 20
-984.5
 11
-62.5
 21
-984.5
  0
LINE
  8
0
 10
-62.5
 20
-984.5
 11
-62.5
 21
-981.5
  0
LINE
  8
0
 10
-62.5
 20
-1227.5
 11
-24.1667
 21
-1227.5
  0
LINE
  8
0
 10
-24.1667
 20
-1227.5
 11
-24.1667
 21
-1230.5
  0
LINE
  8
0
 10
-24.1667
 20
-1230.5
 11
-19.1667
 21
-1230.5
  0
LINE
  8
0
 10
-19.1667
 20
-1230.5
 11
-19.1667
 21
-1227.5
  0
LINE
  8
0
 10
-19.1667
 20
-1227.5
 11
19.1667
 21
-1227.5
  0
LINE
  8
0
 10
19.1667
 20
-1227.5
 11
19.1667
 21
-1230.5
  0
LINE
  8
0
 10
19.1667
 20
-1230.5
 11
24.1667
 21
-1230.5
  0
LINE
  8
0
 10
24.1667
 20
-1230.5
 11
24.1667
 21
-1227.5
  0
LINE
  8
0
 10
24.1667
 20
-1227.5
 11
62.5
 21
-1227.5
  0
LINE
  8
0
 10
62.5
 20
-1227.5
 11
62.5
 21
-1230.5
  0
LINE
  8
0
 10
62.5
 20
-1230.5
 11
67.5
 21
-1230.5
  0
LINE
  8
0
 10
67.5
 20
-1230.5
 11
67.5
 21
-1227.5
  0
LINE
  8
0
 10
67.5
 20
-1227.5
 11
77.5
 21
-1227.5
  0
LINE
  8
0
 10
77.5
 20
-1227.5
 11
77.5
 21
-1217.5
  0
LINE
  8
0
 10
77.5
 20
-1217.5
 11
80.5
 21
-1217.5
  0
LINE
  8
0
 10
80.5
 20
-1217.5
 11
80.5
 21
-1212.5
  0
LINE
  8
0
 10
80.5
 20
-1212.5
 11
77.5
 21
-1212.5
  0
LINE
  8
0
 10
77.5
 20
-1212.5
 11
77.5
 21
-1147.5
  0
LINE
  8
0
 10
77.5
 20
-1147.5
 11
80.5
 21
-1147.5
  0
LINE
  8
0
 10
80.5
 20
-1147.5
 11
80.5
 21
-1142.5
  0
LINE
  8
0
 10
80.5
 20
-1142.5
 11
77.5
 21
-1142.5
  0
LINE
  8
0
 10
77.5
 20
-1142.5
 11
77.5
 21
-1077.5
  0
LINE
  8
0
 10
77.5
 20
-1077.5
 11
80.5
 21
-1077.5
  0
LINE
  8
0
 10
80.5
 20
-1077.5
 11
80.5
 21
-1072.5
  0
LINE
  8
0
 10
80.5
 20
-1072.5
 11
77.5
 21
-1072.5
  0
LINE
  8
0
 10
77.5
 20
-1072.5
 11
77.5
 21
-1007.5
  0
LINE
  8
0
 10
77.5
 20
-1007.5
 11
80.5
 21
-1007.5
  0
LINE
  8
0
 10
80.5
 20
-1007.5
 11
80.5
 21
-1002.5
  0
LINE
  8
0
 10
80.5
 20
-1002.5
 11
77.5
 21
-1002.5
  0
LINE
  8
0
 10
77.5
 20
-1002.5
 11
77.5
 21
-992.5
  0
LINE
  8
0
 10
77.5
 20
-992.5
 11
67.5
 21
-992.5
  0
LINE
  8
0
 10
67.5
 20
-992.5
 11
67.5
 21
-989.5
  0
LINE
  8
0
 10
67.5
 20
-989.5
 11
62.5
 21
-989.5
  0
LINE
  8
0
 10
62.5
 20
-989.5
 11
62.5
 21
-992.5
  0
LINE
  8
0
 10
62.5
 20
-992.5
 11
24.1667
 21
-992.5
  0
LINE
  8
0
 10
24.1667
 20
-992.5
 11
24.1667
 21
-989.5
  0
LINE
  8
0
 10
24.1667
 20
-989.5
 11
19.1667
 21
-989.5
  0
LINE
  8
0
 10
19.1667
 20
-989.5
 11
19.1667
 21
-992.5
  0
LINE
  8
0
 10
19.1667
 20
-992.5
 11
-19.1667
 21
-992.5
  0
LINE
  8
0
 10
-19.1667
 20
-992.5
 11
-19.1667
 21
-989.5
  0
LINE
  8
0
 10
-19.1667
 20
-989.5
 11
-24.1667
 21
-989.5
  0
LINE
  8
0
 10
-24.1667
 20
-989.5
 11
-24.1667
 21
-992.5
  0
LINE
  8
0
 10
-24.1667
 20
-992.5
 11
-62.5
 21
-992.5
  0
LINE
  8
0
 10
-62.5
 20
-992.5
 11
-62.5
 21
-989.5
  0
LINE
  8
0
 10
-62.5
 20
-989.5
 11
-67.5
 21
-989.5
  0
LINE
  8
0
 10
-67.5
 20
-989.5
 11
-67.5
 21
-992.5
  0
LINE
  8
0
 10
-67.5
 20
-992.5
 11
-77.5
 21
-992.5
  0
LINE
  8
0
 10
-77.5
 20
-992.5
 11
-77.5
 21
-1002.5
  0
LINE
  8
0
 10
-77.5
 20
-1002.5
 11
-80.5
 21
-1002.5
  0
LINE
  8
0
 10
-80.5
 20
-1002.5
 11
-80.5
 21
-1007.5
  0
LINE
  8
0
 10
-80.5
 20
-1007.5
 11
-77.5
 21
-1007.5
  0
LINE
  8
0
 10
-77.5
 20
-1007.5
 11
-77.5
 21
-1072.5
  0
LINE
  8
0
 10
-77.5
 20
-1072.5
 11
-80.5
 21
-1072.5
  0
LINE
  8
0
 10
-80.5
 20
-1072.5
 11
-80.5
 21
-1077.5
  0
LINE
  8
0
 10
-80.5
 20
-1077.5
 11
-77.5
 21
-1077.5
  0
LINE
  8
0
 10
-77.5
 20
-1077.5
 11
-77.5
 21
-1142.5
  0
LINE
  8
0
 10
-77.5
 20
-1142.5
 11
-80.5
 21
-1142.5
  0
LINE
  8
0
 10
-80.5
 20
-1142.5
 11
-80.5
 21
-1147.5
  0
LINE
  8
0
 10
-80.5
 20
-1147.5
 11
-77.5
 21
-1147.5
  0
LINE
  8
0
 10
-77.5
 20
-1147.5
 11
-77.5
 21
-1212.5
  0
LINE
  8
0
 10
-77.5
 20
-1212.5
 11
-80.5
 21
-1212.5
  0
LINE
  8
0
 10
-80.5
 20
-1212.5
 11
-80.5
 21
-1217.5
  0
LINE
  8
0
 10
-80.5
 20
-1217.5
 11
-77.5
 21
-1217.5
  0
LINE
  8
0
 10
-77.5
 20
-1217.5
 11
-77.5
 21
-1227.5
  0
LINE
  8
0
 10
-77.5
 20
-1227.5
 11
-67.5
 21
-1227.5
  0
LINE
  8
0
 10
-67.5
 20
-1227.5
 11
-67.5
 21
-1230.5
  0
LINE
  8
0
 10
-67.5
 20
-1230.5
 11
-62.5
 21
-1230.5
  0
LINE
  8
0
 10
-62.5
 20
-1230.5
 11
-62.5
 21
-1227.5
  0
LINE
  8
0
 10
-50.5
 20
-1217.18
 11
-50.5
 21
-1002.82
  0
LINE
  8
0
 10
-50.5
 20
-1002.82
 11
58.5
 21
-1002.82
  0
LINE
  8
0
 10
58.5
 20
-1002.82
 11
58.5
 21
-1217.18
  0
LINE
  8
0
 10
58.5
 20
-1217.18
 11
-50.5
 21
-1217.18
  0
LINE
  8
0
 10
65.0213
 20
-1006.98
 11
64.8026
 21
-1006.9
  0
LINE
  8
0
 10
64.8026
 20
-1006.9
 11
64.6034
 21
-1006.79
  0
LINE
  8
0
 10
64.6034
 20
-1006.79
 11
64.4325
 21
-1006.64
  0
LINE
  8
0
 10
64.4325
 20
-1006.64
 11
64.2974
 21
-1006.45
  0
LINE
  8
0
 10
64.2974
 20
-1006.45
 11
64.2038
 21
-1006.24
  0
LINE
  8
0
 10
64.2038
 20
-1006.24
 11
64.156
 21
-1006.01
  0
LINE
  8
0
 10
64.156
 20
-1006.01
 11
64.156
 21
-1005.79
  0
LINE
  8
0
 10
64.156
 20
-1005.79
 11
64.2038
 21
-1005.56
  0
LINE
  8
0
 10
64.2038
 20
-1005.56
 11
64.2974
 21
-1005.35
  0
LINE
  8
0
 10
64.2974
 20
-1005.35
 11
64.4325
 21
-1005.16
  0
LINE
  8
0
 10
64.4325
 20
-1005.16
 11
64.6034
 21
-1005.01
  0
LINE
  8
0
 10
64.6034
 20
-1005.01
 11
64.8026
 21
-1004.9
  0
LINE
  8
0
 10
64.8026
 20
-1004.9
 11
65.0213
 21
-1004.82
  0
LINE
  8
0
 10
65.0213
 20
-1004.82
 11
65.25
 21
-1004.8
  0
LINE
  8
0
 10
65.25
 20
-1004.8
 11
65.4787
 21
-1004.82
  0
LINE
  8
0
 10
65.4787
 20
-1004.82
 11
65.6974
 21
-1004.9
  0
LINE
  8
0
 10
65.6974
 20
-1004.9
 11
65.8966
 21
-1005.01
  0
LINE
  8
0
 10
65.8966
 20
-1005.01
 11
66.0675
 21
-1005.16
  0
LINE
  8
0
 10
66.0675
 20
-1005.16
 11
66.2026
 21
-1005.35
  0
LINE
  8
0
 10
66.2026
 20
-1005.35
 11
66.2962
 21
-1005.56
  0
LINE
  8
0
 10
66.2962
 20
-1005.56
 11
66.344
 21
-1005.79
  0
LINE
  8
0
 10
66.344
 20
-1005.79
 11
66.344
 21
-1006.01
  0
LINE
  8
0
 10
66.344
 20
-1006.01
 11
66.2962
 21
-1006.24
  0
LINE
  8
0
 10
66.2962
 20
-1006.24
 11
66.2026
 21
-1006.45
  0
LINE
  8
0
 10
66.2026
 20
-1006.45
 11
66.0675
 21
-1006.64
  0
LINE
  8
0
 10
66.0675
 20
-1006.64
 11
65.8966
 21
-1006.79
  0
LINE
  8
0
 10
65.8966
 20
-1006.79
 11
65.6974
 21
-1006.9
  0
LINE
  8
0
 10
65.6974
 20
-1006.9
 11
65.4787
 21
-1006.98
  0
LINE
  8
0
 10
65.4787
 20
-1006.98
 11
65.25
 21
-1007
  0
LINE
  8
0
 10
65.25
 20
-1007
 11
65.0213
 21
-1006.98
  0
LINE
  8
0
 10
-57.4787
 20
-1006.98
 11
-57.6974
 21
-1006.9
  0
LINE
  8
0
 10
-57.6974
 20
-1006.9
 11
-57.8966
 21
-1006.79
  0
LINE
  8
0
 10
-57.8966
 20
-1006.79
 11
-58.0675
 21
-1006.64
  0
LINE
  8
0
 10
-58.0675
 20
-1006.64
 11
-58.2026
 21
-1006.45
  0
LINE
  8
0
 10
-58.2026
 20
-1006.45
 11
-58.2962
 21
-1006.24
  0
LINE
  8
0
 10
-58.2962
 20
-1006.24
 11
-58.344
 21
-1006.01
  0
LINE
  8
0
 10
-58.344
 20
-1006.01
 11
-58.344
 21
-1005.79
  0
LINE
  8
0
 10
-58.344
 20
-1005.79
 11
-58.2962
 21
-1005.56
  0
LINE
  8
0
 10
-58.2962
 20
-1005.56
 11
-58.2026
 21
-1005.35
  0
LINE
  8
0
 10
-58.2026
 20
-1005.35
 11
-58.0675
 21
-1005.16
  0
LINE
  8
0
 10
-58.0675
 20
-1005.16
 11
-57.8966
 21
-1005.01
  0
LINE
  8
0
 10
-57.8966
 20
-1005.01
 11
-57.6974
 21
-1004.9
  0
LINE
  8
0
 10
-57.6974
 20
-1004.9
 11
-57.4787
 21
-1004.82
  0
LINE
  8
0
 10
-57.4787
 20
-1004.82
 11
-57.25
 21
-1004.8
  0
LINE
  8
0
 10
-57.25
 20
-1004.8
 11
-57.0213
 21
-1004.82
  0
LINE
  8
0
 10
-57.0213
 20
-1004.82
 11
-56.8026
 21
-1004.9
  0
LINE
  8
0
 10
-56.8026
 20
-1004.9
 11
-56.6034
 21
-1005.01
  0
LINE
  8
0
 10
-56.6034
 20
-1005.01
 11
-56.4325
 21
-1005.16
  0
LINE
  8
0
 10
-56.4325
 20
-1005.16
 11
-56.2974
 21
-1005.35
  0
LINE
  8
0
 10
-56.2974
 20
-1005.35
 11
-56.2038
 21
-1005.56
  0
LINE
  8
0
 10
-56.2038
 20
-1005.56
 11
-56.156
 21
-1005.79
  0
LINE
  8
0
 10
-56.156
 20
-1005.79
 11
-56.156
 21
-1006.01
  0
LINE
  8
0
 10
-56.156
 20
-1006.01
 11
-56.2038
 21
-1006.24
  0
LINE
  8
0
 10
-56.2038
 20
-1006.24
 11
-56.2974
 21
-1006.45
  0
LINE
  8
0
 10
-56.2974
 20
-1006.45
 11
-56.4325
 21
-1006.64
  0
LINE
  8
0
 10
-56.4325
 20
-1006.64
 11
-56.6034
 21
-1006.79
  0
LINE
  8
0
 10
-56.6034
 20
-1006.79
 11
-56.8026
 21
-1006.9
  0
LINE
  8
0
 10
-56.8026
 20
-1006.9
 11
-57.0213
 21
-1006.98
  0
LINE
  8
0
 10
-57.0213
 20
-1006.98
 11
-57.25
 21
-1007
  0
LINE
  8
0
 10
-57.25
 20
-1007
 11
-57.4787
 21
-1006.98
  0
LINE
  8
0
 10
-57.4787
 20
-1012.06
 11
-57.6974
 21
-1011.98
  0
LINE
  8
0
 10
-57.6974
 20
-1011.98
 11
-57.8966
 21
-1011.87
  0
LINE
  8
0
 10
-57.8966
 20
-1011.87
 11
-58.0675
 21
-1011.72
  0
LINE
  8
0
 10
-58.0675
 20
-1011.72
 11
-58.2026
 21
-1011.53
  0
LINE
  8
0
 10
-58.2026
 20
-1011.53
 11
-58.2962
 21
-1011.32
  0
LINE
  8
0
 10
-58.2962
 20
-1011.32
 11
-58.344
 21
-1011.09
  0
LINE
  8
0
 10
-58.344
 20
-1011.09
 11
-58.344
 21
-1010.86
  0
LINE
  8
0
 10
-58.344
 20
-1010.86
 11
-58.2962
 21
-1010.64
  0
LINE
  8
0
 10
-58.2962
 20
-1010.64
 11
-58.2026
 21
-1010.43
  0
LINE
  8
0
 10
-58.2026
 20
-1010.43
 11
-58.0675
 21
-1010.24
  0
LINE
  8
0
 10
-58.0675
 20
-1010.24
 11
-57.8966
 21
-1010.09
  0
LINE
  8
0
 10
-57.8966
 20
-1010.09
 11
-57.6974
 21
-1009.98
  0
LINE
  8
0
 10
-57.6974
 20
-1009.98
 11
-57.4787
 21
-1009.9
  0
LINE
  8
0
 10
-57.4787
 20
-1009.9
 11
-57.25
 21
-1009.88
  0
LINE
  8
0
 10
-57.25
 20
-1009.88
 11
-57.0213
 21
-1009.9
  0
LINE
  8
0
 10
-57.0213
 20
-1009.9
 11
-56.8026
 21
-1009.98
  0
LINE
  8
0
 10
-56.8026
 20
-1009.98
 11
-56.6034
 21
-1010.09
  0
LINE
  8
0
 10
-56.6034
 20
-1010.09
 11
-56.4325
 21
-1010.24
  0
LINE
  8
0
 10
-56.4325
 20
-1010.24
 11
-56.2974
 21
-1010.43
  0
LINE
  8
0
 10
-56.2974
 20
-1010.43
 11
-56.2038
 21
-1010.64
  0
LINE
  8
0
 10
-56.2038
 20
-1010.64
 11
-56.156
 21
-1010.86
  0
LINE
  8
0
 10
-56.156
 20
-1010.86
 11
-56.156
 21
-1011.09
  0
LINE
  8
0
 10
-56.156
 20
-1011.09
 11
-56.2038
 21
-1011.32
  0
LINE
  8
0
 10
-56.2038
 20
-1011.32
 11
-56.2974
 21
-1011.53
  0
LINE
  8
0
 10
-56.2974
 20
-1011.53
 11
-56.4325
 21
-1011.72
  0
LINE
  8
0
 10
-56.4325
 20
-1011.72
 11
-56.6034
 21
-1011.87
  0
LINE
  8
0
 10
-56.6034
 20
-1011.87
 11
-56.8026
 21
-1011.98
  0
LINE
  8
0
 10
-56.8026
 20
-1011.98
 11
-57.0213
 21
-1012.06
  0
LINE
  8
0
 10
-57.0213
 20
-1012.06
 11
-57.25
 21
-1012.08
  0
LINE
  8
0
 10
-57.25
 20
-1012.08
 11
-57.4787
 21
-1012.06
  0
LINE
  8
0
 10
65.0213
 20
-1012.06
 11
64.8026
 21
-1011.98
  0
LINE
  8
0
 10
64.8026
 20
-1011.98
 11
64.6034
 21
-1011.87
  0
LINE
  8
0
 10
64.6034
 20
-1011.87
 11
64.4325
 21
-1011.72
  0
LINE
  8
0
 10
64.4325
 20
-1011.72
 11
64.2974
 21
-1011.53
  0
LINE
  8
0
 10
64.2974
 20
-1011.53
 11
64.2038
 21
-1011.32
  0
LINE
  8
0
 10
64.2038
 20
-1011.32
 11
64.156
 21
-1011.09
  0
LINE
  8
0
 10
64.156
 20
-1011.09
 11
64.156
 21
-1010.86
  0
LINE
  8
0
 10
64.156
 20
-1010.86
 11
64.2038
 21
-1010.64
  0
LINE
  8
0
 10
64.2038
 20
-1010.64
 11
64.2974
 21
-1010.43
  0
LINE
  8
0
 10
64.2974
 20
-1010.43
 11
64.4325
 21
-1010.24
  0
LINE
  8
0
 10
64.4325
 20
-1010.24
 11
64.6034
 21
-1010.09
  0
LINE
  8
0
 10
64.6034
 20
-1010.09
 11
64.8026
 21
-1009.98
  0
LINE
  8
0
 10
64.8026
 20
-1009.98
 11
65.0213
 21
-1009.9
  0
LINE
  8
0
 10
65.0213
 20
-1009.9
 11
65.25
 21
-1009.88
  0
LINE
  8
0
 10
65.25
 20
-1009.88
 11
65.4787
 21
-1009.9
  0
LINE
  8
0
 10
65.4787
 20
-1009.9
 11
65.6974
 21
-1009.98
  0
LINE
  8
0
 10
65.6974
 20
-1009.98
 11
65.8966
 21
-1010.09
  0
LINE
  8
0
 10
65.8966
 20
-1010.09
 11
66.0675
 21
-1010.24
  0
LINE
  8
0
 10
66.0675
 20
-1010.24
 11
66.2026
 21
-1010.43
  0
LINE
  8
0
 10
66.2026
 20
-1010.43
 11
66.2962
 21
-1010.64
  0
LINE
  8
0
 10
66.2962
 20
-1010.64
 11
66.344
 21
-1010.86
  0
LINE
  8
0
 10
66.344
 20
-1010.86
 11
66.344
 21
-1011.09
  0
LINE
  8
0
 10
66.344
 20
-1011.09
 11
66.2962
 21
-1011.32
  0
LINE
  8
0
 10
66.2962
 20
-1011.32
 11
66.2026
 21
-1011.53
  0
LINE
  8
0
 10
66.2026
 20
-1011.53
 11
66.0675
 21
-1011.72
  0
LINE
  8
0
 10
66.0675
 20
-1011.72
 11
65.8966
 21
-1011.87
  0
LINE
  8
0
 10
65.8966
 20
-1011.87
 11
65.6974
 21
-1011.98
  0
LINE
  8
0
 10
65.6974
 20
-1011.98
 11
65.4787
 21
-1012.06
  0
LINE
  8
0
 10
65.4787
 20
-1012.06
 11
65.25
 21
-1012.08
  0
LINE
  8
0
 10
65.25
 20
-1012.08
 11
65.0213
 21
-1012.06
  0
LINE
  8
0
 10
-57.4787
 20
-1017.14
 11
-57.6974
 21
-1017.06
  0
LINE
  8
0
 10
-57.6974
 20
-1017.06
 11
-57.8966
 21
-1016.95
  0
LINE
  8
0
 10
-57.8966
 20
-1016.95
 11
-58.0675
 21
-1016.8
  0
LINE
  8
0
 10
-58.0675
 20
-1016.8
 11
-58.2026
 21
-1016.61
  0
LINE
  8
0
 10
-58.2026
 20
-1016.61
 11
-58.2962
 21
-1016.4
  0
LINE
  8
0
 10
-58.2962
 20
-1016.4
 11
-58.344
 21
-1016.17
  0
LINE
  8
0
 10
-58.344
 20
-1016.17
 11
-58.344
 21
-1015.95
  0
LINE
  8
0
 10
-58.344
 20
-1015.95
 11
-58.2962
 21
-1015.72
  0
LINE
  8
0
 10
-58.2962
 20
-1015.72
 11
-58.2026
 21
-1015.51
  0
LINE
  8
0
 10
-58.2026
 20
-1015.51
 11
-58.0675
 21
-1015.32
  0
LINE
  8
0
 10
-58.0675
 20
-1015.32
 11
-57.8966
 21
-1015.17
  0
LINE
  8
0
 10
-57.8966
 20
-1015.17
 11
-57.6974
 21
-1015.06
  0
LINE
  8
0
 10
-57.6974
 20
-1015.06
 11
-57.4787
 21
-1014.98
  0
LINE
  8
0
 10
-57.4787
 20
-1014.98
 11
-57.25
 21
-1014.96
  0
LINE
  8
0
 10
-57.25
 20
-1014.96
 11
-57.0213
 21
-1014.98
  0
LINE
  8
0
 10
-57.0213
 20
-1014.98
 11
-56.8026
 21
-1015.06
  0
LINE
  8
0
 10
-56.8026
 20
-1015.06
 11
-56.6034
 21
-1015.17
  0
LINE
  8
0
 10
-56.6034
 20
-1015.17
 11
-56.4325
 21
-1015.32
  0
LINE
  8
0
 10
-56.4325
 20
-1015.32
 11
-56.2974
 21
-1015.51
  0
LINE
  8
0
 10
-56.2974
 20
-1015.51
 11
-56.2038
 21
-1015.72
  0
LINE
  8
0
 10
-56.2038
 20
-1015.72
 11
-56.156
 21
-1015.95
  0
LINE
  8
0
 10
-56.156
 20
-1015.95
 11
-56.156
 21
-1016.17
  0
LINE
  8
0
 10
-56.156
 20
-1016.17
 11
-56.2038
 21
-1016.4
  0
LINE
  8
0
 10
-56.2038
 20
-1016.4
 11
-56.2974
 21
-1016.61
  0
LINE
  8
0
 10
-56.2974
 20
-1016.61
 11
-56.4325
 21
-1016.8
  0
LINE
  8
0
 10
-56.4325
 20
-1016.8
 11
-56.6034
 21
-1016.95
  0
LINE
  8
0
 10
-56.6034
 20
-1016.95
 11
-56.8026
 21
-1017.06
  0
LINE
  8
0
 10
-56.8026
 20
-1017.06
 11
-57.0213
 21
-1017.14
  0
LINE
  8
0
 10
-57.0213
 20
-1017.14
 11
-57.25
 21
-1017.16
  0
LINE
  8
0
 10
-57.25
 20
-1017.16
 11
-57.4787
 21
-1017.14
  0
LINE
  8
0
 10
65.0213
 20
-1017.14
 11
64.8026
 21
-1017.06
  0
LINE
  8
0
 10
64.8026
 20
-1017.06
 11
64.6034
 21
-1016.95
  0
LINE
  8
0
 10
64.6034
 20
-1016.95
 11
64.4325
 21
-1016.8
  0
LINE
  8
0
 10
64.4325
 20
-1016.8
 11
64.2974
 21
-1016.61
  0
LINE
  8
0
 10
64.2974
 20
-1016.61
 11
64.2038
 21
-1016.4
  0
LINE
  8
0
 10
64.2038
 20
-1016.4
 11
64.156
 21
-1016.17
  0
LINE
  8
0
 10
64.156
 20
-1016.17
 11
64.156
 21
-1015.95
  0
LINE
  8
0
 10
64.156
 20
-1015.95
 11
64.2038
 21
-1015.72
  0
LINE
  8
0
 10
64.2038
 20
-1015.72
 11
64.2974
 21
-1015.51
  0
LINE
  8
0
 10
64.2974
 20
-1015.51
 11
64.4325
 21
-1015.32
  0
LINE
  8
0
 10
64.4325
 20
-1015.32
 11
64.6034
 21
-1015.17
  0
LINE
  8
0
 10
64.6034
 20
-1015.17
 11
64.8026
 21
-1015.06
  0
LINE
  8
0
 10
64.8026
 20
-1015.06
 11
65.0213
 21
-1014.98
  0
LINE
  8
0
 10
65.0213
 20
-1014.98
 11
65.25
 21
-1014.96
  0
LINE
  8
0
 10
65.25
 20
-1014.96
 11
65.4787
 21
-1014.98
  0
LINE
  8
0
 10
65.4787
 20
-1014.98
 11
65.6974
 21
-1015.06
  0
LINE
  8
0
 10
65.6974
 20
-1015.06
 11
65.8966
 21
-1015.17
  0
LINE
  8
0
 10
65.8966
 20
-1015.17
 11
66.0675
 21
-1015.32
  0
LINE
  8
0
 10
66.0675
 20
-1015.32
 11
66.2026
 21
-1015.51
  0
LINE
  8
0
 10
66.2026
 20
-1015.51
 11
66.2962
 21
-1015.72
  0
LINE
  8
0
 10
66.2962
 20
-1015.72
 11
66.344
 21
-1015.95
  0
LINE
  8
0
 10
66.344
 20
-1015.95
 11
66.344
 21
-1016.17
  0
LINE
  8
0
 10
66.344
 20
-1016.17
 11
66.2962
 21
-1016.4
  0
LINE
  8
0
 10
66.2962
 20
-1016.4
 11
66.2026
 21
-1016.61
  0
LINE
  8
0
 10
66.2026
 20
-1016.61
 11
66.0675
 21
-1016.8
  0
LINE
  8
0
 10
66.0675
 20
-1016.8
 11
65.8966
 21
-1016.95
  0
LINE
  8
0
 10
65.8966
 20
-1016.95
 11
65.6974
 21
-1017.06
  0
LINE
  8
0
 10
65.6974
 20
-1017.06
 11
65.4787
 21
-1017.14
  0
LINE
  8
0
 10
65.4787
 20
-1017.14
 11
65.25
 21
-1017.16
  0
LINE
  8
0
 10
65.25
 20
-1017.16
 11
65.0213
 21
-1017.14
  0
LINE
  8
0
 10
65.0213
 20
-1022.22
 11
64.8026
 21
-1022.14
  0
LINE
  8
0
 10
64.8026
 20
-1022.14
 11
64.6034
 21
-1022.03
  0
LINE
  8
0
 10
64.6034
 20
-1022.03
 11
64.4325
 21
-1021.88
  0
LINE
  8
0
 10
64.4325
 20
-1021.88
 11
64.2974
 21
-1021.69
  0
LINE
  8
0
 10
64.2974
 20
-1021.69
 11
64.2038
 21
-1021.48
  0
LINE
  8
0
 10
64.2038
 20
-1021.48
 11
64.156
 21
-1021.26
  0
LINE
  8
0
 10
64.156
 20
-1021.26
 11
64.156
 21
-1021.03
  0
LINE
  8
0
 10
64.156
 20
-1021.03
 11
64.2038
 21
-1020.8
  0
LINE
  8
0
 10
64.2038
 20
-1020.8
 11
64.2974
 21
-1020.59
  0
LINE
  8
0
 10
64.2974
 20
-1020.59
 11
64.4325
 21
-1020.4
  0
LINE
  8
0
 10
64.4325
 20
-1020.4
 11
64.6034
 21
-1020.25
  0
LINE
  8
0
 10
64.6034
 20
-1020.25
 11
64.8026
 21
-1020.14
  0
LINE
  8
0
 10
64.8026
 20
-1020.14
 11
65.0213
 21
-1020.06
  0
LINE
  8
0
 10
65.0213
 20
-1020.06
 11
65.25
 21
-1020.04
  0
LINE
  8
0
 10
65.25
 20
-1020.04
 11
65.4787
 21
-1020.06
  0
LINE
  8
0
 10
65.4787
 20
-1020.06
 11
65.6974
 21
-1020.14
  0
LINE
  8
0
 10
65.6974
 20
-1020.14
 11
65.8966
 21
-1020.25
  0
LINE
  8
0
 10
65.8966
 20
-1020.25
 11
66.0675
 21
-1020.4
  0
LINE
  8
0
 10
66.0675
 20
-1020.4
 11
66.2026
 21
-1020.59
  0
LINE
  8
0
 10
66.2026
 20
-1020.59
 11
66.2962
 21
-1020.8
  0
LINE
  8
0
 10
66.2962
 20
-1020.8
 11
66.344
 21
-1021.03
  0
LINE
  8
0
 10
66.344
 20
-1021.03
 11
66.344
 21
-1021.26
  0
LINE
  8
0
 10
66.344
 20
-1021.26
 11
66.2962
 21
-1021.48
  0
LINE
  8
0
 10
66.2962
 20
-1021.48
 11
66.2026
 21
-1021.69
  0
LINE
  8
0
 10
66.2026
 20
-1021.69
 11
66.0675
 21
-1021.88
  0
LINE
  8
0
 10
66.0675
 20
-1021.88
 11
65.8966
 21
-1022.03
  0
LINE
  8
0
 10
65.8966
 20
-1022.03
 11
65.6974
 21
-1022.14
  0
LINE
  8
0
 10
65.6974
 20
-1022.14
 11
65.4787
 21
-1022.22
  0
LINE
  8
0
 10
65.4787
 20
-1022.22
 11
65.25
 21
-1022.24
  0
LINE
  8
0
 10
65.25
 20
-1022.24
 11
65.0213
 21
-1022.22
  0
LINE
  8
0
 10
-57.4787
 20
-1022.22
 11
-57.6974
 21
-1022.14
  0
LINE
  8
0
 10
-57.6974
 20
-1022.14
 11
-57.8966
 21
-1022.03
  0
LINE
  8
0
 10
-57.8966
 20
-1022.03
 11
-58.0675
 21
-1021.88
  0
LINE
  8
0
 10
-58.0675
 20
-1021.88
 11
-58.2026
 21
-1021.69
  0
LINE
  8
0
 10
-58.2026
 20
-1021.69
 11
-58.2962
 21
-1021.48
  0
LINE
  8
0
 10
-58.2962
 20
-1021.48
 11
-58.344
 21
-1021.26
  0
LINE
  8
0
 10
-58.344
 20
-1021.26
 11
-58.344
 21
-1021.03
  0
LINE
  8
0
 10
-58.344
 20
-1021.03
 11
-58.2962
 21
-1020.8
  0
LINE
  8
0
 10
-58.2962
 20
-1020.8
 11
-58.2026
 21
-1020.59
  0
LINE
  8
0
 10
-58.2026
 20
-1020.59
 11
-58.0675
 21
-1020.4
  0
LINE
  8
0
 10
-58.0675
 20
-1020.4
 11
-57.8966
 21
-1020.25
  0
LINE
  8
0
 10
-57.8966
 20
-1020.25
 11
-57.6974
 21
-1020.14
  0
LINE
  8
0
 10
-57.6974
 20
-1020.14
 11
-57.4787
 21
-1020.06
  0
LINE
  8
0
 10
-57.4787
 20
-1020.06
 11
-57.25
 21
-1020.04
  0
LINE
  8
0
 10
-57.25
 20
-1020.04
 11
-57.0213
 21
-1020.06
  0
LINE
  8
0
 10
-57.0213
 20
-1020.06
 11
-56.8026
 21
-1020.14
  0
LINE
  8
0
 10
-56.8026
 20
-1020.14
 11
-56.6034
 21
-1020.25
  0
LINE
  8
0
 10
-56.6034
 20
-1020.25
 11
-56.4325
 21
-1020.4
  0
LINE
  8
0
 10
-56.4325
 20
-1020.4
 11
-56.2974
 21
-1020.59
  0
LINE
  8
0
 10
-56.2974
 20
-1020.59
 11
-56.2038
 21
-1020.8
  0
LINE
  8
0
 10
-56.2038
 20
-1020.8
 11
-56.156
 21
-1021.03
  0
LINE
  8
0
 10
-56.156
 20
-1021.03
 11
-56.156
 21
-1021.26
  0
LINE
  8
0
 10
-56.156
 20
-1021.26
 11
-56.2038
 21
-1021.48
  0
LINE
  8
0
 10
-56.2038
 20
-1021.48
 11
-56.2974
 21
-1021.69
  0
LINE
  8
0
 10
-56.2974
 20
-1021.69
 11
-56.4325
 21
-1021.88
  0
LINE
  8
0
 10
-56.4325
 20
-1021.88
 11
-56.6034
 21
-1022.03
  0
LINE
  8
0
 10
-56.6034
 20
-1022.03
 11
-56.8026
 21
-1022.14
  0
LINE
  8
0
 10
-56.8026
 20
-1022.14
 11
-57.0213
 21
-1022.22
  0
LINE
  8
0
 10
-57.0213
 20
-1022.22
 11
-57.25
 21
-1022.24
  0
LINE
  8
0
 10
-57.25
 20
-1022.24
 11
-57.4787
 21
-1022.22
  0
LINE
  8
0
 10
65.0213
 20
-1027.3
 11
64.8026
 21
-1027.22
  0
LINE
  8
0
 10
64.8026
 20
-1027.22
 11
64.6034
 21
-1027.11
  0
LINE
  8
0
 10
64.6034
 20
-1027.11
 11
64.4325
 21
-1026.96
  0
LINE
  8
0
 10
64.4325
 20
-1026.96
 11
64.2974
 21
-1026.77
  0
LINE
  8
0
 10
64.2974
 20
-1026.77
 11
64.2038
 21
-1026.56
  0
LINE
  8
0
 10
64.2038
 20
-1026.56
 11
64.156
 21
-1026.33
  0
LINE
  8
0
 10
64.156
 20
-1026.33
 11
64.156
 21
-1026.1
  0
LINE
  8
0
 10
64.156
 20
-1026.1
 11
64.2038
 21
-1025.88
  0
LINE
  8
0
 10
64.2038
 20
-1025.88
 11
64.2974
 21
-1025.67
  0
LINE
  8
0
 10
64.2974
 20
-1025.67
 11
64.4325
 21
-1025.48
  0
LINE
  8
0
 10
64.4325
 20
-1025.48
 11
64.6034
 21
-1025.33
  0
LINE
  8
0
 10
64.6034
 20
-1025.33
 11
64.8026
 21
-1025.22
  0
LINE
  8
0
 10
64.8026
 20
-1025.22
 11
65.0213
 21
-1025.14
  0
LINE
  8
0
 10
65.0213
 20
-1025.14
 11
65.25
 21
-1025.12
  0
LINE
  8
0
 10
65.25
 20
-1025.12
 11
65.4787
 21
-1025.14
  0
LINE
  8
0
 10
65.4787
 20
-1025.14
 11
65.6974
 21
-1025.22
  0
LINE
  8
0
 10
65.6974
 20
-1025.22
 11
65.8966
 21
-1025.33
  0
LINE
  8
0
 10
65.8966
 20
-1025.33
 11
66.0675
 21
-1025.48
  0
LINE
  8
0
 10
66.0675
 20
-1025.48
 11
66.2026
 21
-1025.67
  0
LINE
  8
0
 10
66.2026
 20
-1025.67
 11
66.2962
 21
-1025.88
  0
LINE
  8
0
 10
66.2962
 20
-1025.88
 11
66.344
 21
-1026.1
  0
LINE
  8
0
 10
66.344
 20
-1026.1
 11
66.344
 21
-1026.33
  0
LINE
  8
0
 10
66.344
 20
-1026.33
 11
66.2962
 21
-1026.56
  0
LINE
  8
0
 10
66.2962
 20
-1026.56
 11
66.2026
 21
-1026.77
  0
LINE
  8
0
 10
66.2026
 20
-1026.77
 11
66.0675
 21
-1026.96
  0
LINE
  8
0
 10
66.0675
 20
-1026.96
 11
65.8966
 21
-1027.11
  0
LINE
  8
0
 10
65.8966
 20
-1027.11
 11
65.6974
 21
-1027.22
  0
LINE
  8
0
 10
65.6974
 20
-1027.22
 11
65.4787
 21
-1027.3
  0
LINE
  8
0
 10
65.4787
 20
-1027.3
 11
65.25
 21
-1027.32
  0
LINE
  8
0
 10
65.25
 20
-1027.32
 11
65.0213
 21
-1027.3
  0
LINE
  8
0
 10
-57.4787
 20
-1027.3
 11
-57.6974
 21
-1027.22
  0
LINE
  8
0
 10
-57.6974
 20
-1027.22
 11
-57.8966
 21
-1027.11
  0
LINE
  8
0
 10
-57.8966
 20
-1027.11
 11
-58.0675
 21
-1026.96
  0
LINE
  8
0
 10
-58.0675
 20
-1026.96
 11
-58.2026
 21
-1026.77
  0
LINE
  8
0
 10
-58.2026
 20
-1026.77
 11
-58.2962
 21
-1026.56
  0
LINE
  8
0
 10
-58.2962
 20
-1026.56
 11
-58.344
 21
-1026.33
  0
LINE
  8
0
 10
-58.344
 20
-1026.33
 11
-58.344
 21
-1026.1
  0
LINE
  8
0
 10
-58.344
 20
-1026.1
 11
-58.2962
 21
-1025.88
  0
LINE
  8
0
 10
-58.2962
 20
-1025.88
 11
-58.2026
 21
-1025.67
  0
LINE
  8
0
 10
-58.2026
 20
-1025.67
 11
-58.0675
 21
-1025.48
  0
LINE
  8
0
 10
-58.0675
 20
-1025.48
 11
-57.8966
 21
-1025.33
  0
LINE
  8
0
 10
-57.8966
 20
-1025.33
 11
-57.6974
 21
-1025.22
  0
LINE
  8
0
 10
-57.6974
 20
-1025.22
 11
-57.4787
 21
-1025.14
  0
LINE
  8
0
 10
-57.4787
 20
-1025.14
 11
-57.25
 21
-1025.12
  0
LINE
  8
0
 10
-57.25
 20
-1025.12
 11
-57.0213
 21
-1025.14
  0
LINE
  8
0
 10
-57.0213
 20
-1025.14
 11
-56.8026
 21
-1025.22
  0
LINE
  8
0
 10
-56.8026
 20
-1025.22
 11
-56.6034
 21
-1025.33
  0
LINE
  8
0
 10
-56.6034
 20
-1025.33
 11
-56.4325
 21
-1025.48
  0
LINE
  8
0
 10
-56.4325
 20
-1025.48
 11
-56.2974
 21
-1025.67
  0
LINE
  8
0
 10
-56.2974
 20
-1025.67
 11
-56.2038
 21
-1025.88
  0
LINE
  8
0
 10
-56.2038
 20
-1025.88
 11
-56.156
 21
-1026.1
  0
LINE
  8
0
 10
-56.156
 20
-1026.1
 11
-56.156
 21
-1026.33
  0
LINE
  8
0
 10
-56.156
 20
-1026.33
 11
-56.2038
 21
-1026.56
  0
LINE
  8
0
 10
-56.2038
 20
-1026.56
 11
-56.2974
 21
-1026.77
  0
LINE
  8
0
 10
-56.2974
 20
-1026.77
 11
-56.4325
 21
-1026.96
  0
LINE
  8
0
 10
-56.4325
 20
-1026.96
 11
-56.6034
 21
-1027.11
  0
LINE
  8
0
 10
-56.6034
 20
-1027.11
 11
-56.8026
 21
-1027.22
  0
LINE
  8
0
 10
-56.8026
 20
-1027.22
 11
-57.0213
 21
-1027.3
  0
LINE
  8
0
 10
-57.0213
 20
-1027.3
 11
-57.25
 21
-1027.32
  0
LINE
  8
0
 10
-57.25
 20
-1027.32
 11
-57.4787
 21
-1027.3
  0
LINE
  8
0
 10
-57.4787
 20
-1032.38
 11
-57.6974
 21
-1032.3
  0
LINE
  8
0
 10
-57.6974
 20
-1032.3
 11
-57.8966
 21
-1032.19
  0
LINE
  8
0
 10
-57.8966
 20
-1032.19
 11
-58.0675
 21
-1032.04
  0
LINE
  8
0
 10
-58.0675
 20
-1032.04
 11
-58.2026
 21
-1031.85
  0
LINE
  8
0
 10
-58.2026
 20
-1031.85
 11
-58.2962
 21
-1031.64
  0
LINE
  8
0
 10
-58.2962
 20
-1031.64
 11
-58.344
 21
-1031.42
  0
LINE
  8
0
 10
-58.344
 20
-1031.42
 11
-58.344
 21
-1031.19
  0
LINE
  8
0
 10
-58.344
 20
-1031.19
 11
-58.2962
 21
-1030.96
  0
LINE
  8
0
 10
-58.2962
 20
-1030.96
 11
-58.2026
 21
-1030.75
  0
LINE
  8
0
 10
-58.2026
 20
-1030.75
 11
-58.0675
 21
-1030.56
  0
LINE
  8
0
 10
-58.0675
 20
-1030.56
 11
-57.8966
 21
-1030.41
  0
LINE
  8
0
 10
-57.8966
 20
-1030.41
 11
-57.6974
 21
-1030.3
  0
LINE
  8
0
 10
-57.6974
 20
-1030.3
 11
-57.4787
 21
-1030.22
  0
LINE
  8
0
 10
-57.4787
 20
-1030.22
 11
-57.25
 21
-1030.2
  0
LINE
  8
0
 10
-57.25
 20
-1030.2
 11
-57.0213
 21
-1030.22
  0
LINE
  8
0
 10
-57.0213
 20
-1030.22
 11
-56.8026
 21
-1030.3
  0
LINE
  8
0
 10
-56.8026
 20
-1030.3
 11
-56.6034
 21
-1030.41
  0
LINE
  8
0
 10
-56.6034
 20
-1030.41
 11
-56.4325
 21
-1030.56
  0
LINE
  8
0
 10
-56.4325
 20
-1030.56
 11
-56.2974
 21
-1030.75
  0
LINE
  8
0
 10
-56.2974
 20
-1030.75
 11
-56.2038
 21
-1030.96
  0
LINE
  8
0
 10
-56.2038
 20
-1030.96
 11
-56.156
 21
-1031.19
  0
LINE
  8
0
 10
-56.156
 20
-1031.19
 11
-56.156
 21
-1031.42
  0
LINE
  8
0
 10
-56.156
 20
-1031.42
 11
-56.2038
 21
-1031.64
  0
LINE
  8
0
 10
-56.2038
 20
-1031.64
 11
-56.2974
 21
-1031.85
  0
LINE
  8
0
 10
-56.2974
 20
-1031.85
 11
-56.4325
 21
-1032.04
  0
LINE
  8
0
 10
-56.4325
 20
-1032.04
 11
-56.6034
 21
-1032.19
  0
LINE
  8
0
 10
-56.6034
 20
-1032.19
 11
-56.8026
 21
-1032.3
  0
LINE
  8
0
 10
-56.8026
 20
-1032.3
 11
-57.0213
 21
-1032.38
  0
LINE
  8
0
 10
-57.0213
 20
-1032.38
 11
-57.25
 21
-1032.4
  0
LINE
  8
0
 10
-57.25
 20
-1032.4
 11
-57.4787
 21
-1032.38
  0
LINE
  8
0
 10
65.0213
 20
-1032.38
 11
64.8026
 21
-1032.3
  0
LINE
  8
0
 10
64.8026
 20
-1032.3
 11
64.6034
 21
-1032.19
  0
LINE
  8
0
 10
64.6034
 20
-1032.19
 11
64.4325
 21
-1032.04
  0
LINE
  8
0
 10
64.4325
 20
-1032.04
 11
64.2974
 21
-1031.85
  0
LINE
  8
0
 10
64.2974
 20
-1031.85
 11
64.2038
 21
-1031.64
  0
LINE
  8
0
 10
64.2038
 20
-1031.64
 11
64.156
 21
-1031.42
  0
LINE
  8
0
 10
64.156
 20
-1031.42
 11
64.156
 21
-1031.19
  0
LINE
  8
0
 10
64.156
 20
-1031.19
 11
64.2038
 21
-1030.96
  0
LINE
  8
0
 10
64.2038
 20
-1030.96
 11
64.2974
 21
-1030.75
  0
LINE
  8
0
 10
64.2974
 20
-1030.75
 11
64.4325
 21
-1030.56
  0
LINE
  8
0
 10
64.4325
 20
-1030.56
 11
64.6034
 21
-1030.41
  0
LINE
  8
0
 10
64.6034
 20
-1030.41
 11
64.8026
 21
-1030.3
  0
LINE
  8
0
 10
64.8026
 20
-1030.3
 11
65.0213
 21
-1030.22
  0
LINE
  8
0
 10
65.0213
 20
-1030.22
 11
65.25
 21
-1030.2
  0
LINE
  8
0
 10
65.25
 20
-1030.2
 11
65.4787
 21
-1030.22
  0
LINE
  8
0
 10
65.4787
 20
-1030.22
 11
65.6974
 21
-1030.3
  0
LINE
  8
0
 10
65.6974
 20
-1030.3
 11
65.8966
 21
-1030.41
  0
LINE
  8
0
 10
65.8966
 20
-1030.41
 11
66.0675
 21
-1030.56
  0
LINE
  8
0
 10
66.0675
 20
-1030.56
 11
66.2026
 21
-1030.75
  0
LINE
  8
0
 10
66.2026
 20
-1030.75
 11
66.2962
 21
-1030.96
  0
LINE
  8
0
 10
66.2962
 20
-1030.96
 11
66.344
 21
-1031.19
  0
LINE
  8
0
 10
66.344
 20
-1031.19
 11
66.344
 21
-1031.42
  0
LINE
  8
0
 10
66.344
 20
-1031.42
 11
66.2962
 21
-1031.64
  0
LINE
  8
0
 10
66.2962
 20
-1031.64
 11
66.2026
 21
-1031.85
  0
LINE
  8
0
 10
66.2026
 20
-1031.85
 11
66.0675
 21
-1032.04
  0
LINE
  8
0
 10
66.0675
 20
-1032.04
 11
65.8966
 21
-1032.19
  0
LINE
  8
0
 10
65.8966
 20
-1032.19
 11
65.6974
 21
-1032.3
  0
LINE
  8
0
 10
65.6974
 20
-1032.3
 11
65.4787
 21
-1032.38
  0
LINE
  8
0
 10
65.4787
 20
-1032.38
 11
65.25
 21
-1032.4
  0
LINE
  8
0
 10
65.25
 20
-1032.4
 11
65.0213
 21
-1032.38
  0
LINE
  8
0
 10
-57.4787
 20
-1037.46
 11
-57.6974
 21
-1037.38
  0
LINE
  8
0
 10
-57.6974
 20
-1037.38
 11
-57.8966
 21
-1037.27
  0
LINE
  8
0
 10
-57.8966
 20
-1037.27
 11
-58.0675
 21
-1037.12
  0
LINE
  8
0
 10
-58.0675
 20
-1037.12
 11
-58.2026
 21
-1036.93
  0
LINE
  8
0
 10
-58.2026
 20
-1036.93
 11
-58.2962
 21
-1036.72
  0
LINE
  8
0
 10
-58.2962
 20
-1036.72
 11
-58.344
 21
-1036.49
  0
LINE
  8
0
 10
-58.344
 20
-1036.49
 11
-58.344
 21
-1036.27
  0
LINE
  8
0
 10
-58.344
 20
-1036.27
 11
-58.2962
 21
-1036.04
  0
LINE
  8
0
 10
-58.2962
 20
-1036.04
 11
-58.2026
 21
-1035.83
  0
LINE
  8
0
 10
-58.2026
 20
-1035.83
 11
-58.0675
 21
-1035.64
  0
LINE
  8
0
 10
-58.0675
 20
-1035.64
 11
-57.8966
 21
-1035.49
  0
LINE
  8
0
 10
-57.8966
 20
-1035.49
 11
-57.6974
 21
-1035.38
  0
LINE
  8
0
 10
-57.6974
 20
-1035.38
 11
-57.4787
 21
-1035.3
  0
LINE
  8
0
 10
-57.4787
 20
-1035.3
 11
-57.25
 21
-1035.28
  0
LINE
  8
0
 10
-57.25
 20
-1035.28
 11
-57.0213
 21
-1035.3
  0
LINE
  8
0
 10
-57.0213
 20
-1035.3
 11
-56.8026
 21
-1035.38
  0
LINE
  8
0
 10
-56.8026
 20
-1035.38
 11
-56.6034
 21
-1035.49
  0
LINE
  8
0
 10
-56.6034
 20
-1035.49
 11
-56.4325
 21
-1035.64
  0
LINE
  8
0
 10
-56.4325
 20
-1035.64
 11
-56.2974
 21
-1035.83
  0
LINE
  8
0
 10
-56.2974
 20
-1035.83
 11
-56.2038
 21
-1036.04
  0
LINE
  8
0
 10
-56.2038
 20
-1036.04
 11
-56.156
 21
-1036.27
  0
LINE
  8
0
 10
-56.156
 20
-1036.27
 11
-56.156
 21
-1036.49
  0
LINE
  8
0
 10
-56.156
 20
-1036.49
 11
-56.2038
 21
-1036.72
  0
LINE
  8
0
 10
-56.2038
 20
-1036.72
 11
-56.2974
 21
-1036.93
  0
LINE
  8
0
 10
-56.2974
 20
-1036.93
 11
-56.4325
 21
-1037.12
  0
LINE
  8
0
 10
-56.4325
 20
-1037.12
 11
-56.6034
 21
-1037.27
  0
LINE
  8
0
 10
-56.6034
 20
-1037.27
 11
-56.8026
 21
-1037.38
  0
LINE
  8
0
 10
-56.8026
 20
-1037.38
 11
-57.0213
 21
-1037.46
  0
LINE
  8
0
 10
-57.0213
 20
-1037.46
 11
-57.25
 21
-1037.48
  0
LINE
  8
0
 10
-57.25
 20
-1037.48
 11
-57.4787
 21
-1037.46
  0
LINE
  8
0
 10
65.0213
 20
-1037.46
 11
64.8026
 21
-1037.38
  0
LINE
  8
0
 10
64.8026
 20
-1037.38
 11
64.6034
 21
-1037.27
  0
LINE
  8
0
 10
64.6034
 20
-1037.27
 11
64.4325
 21
-1037.12
  0
LINE
  8
0
 10
64.4325
 20
-1037.12
 11
64.2974
 21
-1036.93
  0
LINE
  8
0
 10
64.2974
 20
-1036.93
 11
64.2038
 21
-1036.72
  0
LINE
  8
0
 10
64.2038
 20
-1036.72
 11
64.156
 21
-1036.49
  0
LINE
  8
0
 10
64.156
 20
-1036.49
 11
64.156
 21
-1036.27
  0
LINE
  8
0
 10
64.156
 20
-1036.27
 11
64.2038
 21
-1036.04
  0
LINE
  8
0
 10
64.2038
 20
-1036.04
 11
64.2974
 21
-1035.83
  0
LINE
  8
0
 10
64.2974
 20
-1035.83
 11
64.4325
 21
-1035.64
  0
LINE
  8
0
 10
64.4325
 20
-1035.64
 11
64.6034
 21
-1035.49
  0
LINE
  8
0
 10
64.6034
 20
-1035.49
 11
64.8026
 21
-1035.38
  0
LINE
  8
0
 10
64.8026
 20
-1035.38
 11
65.0213
 21
-1035.3
  0
LINE
  8
0
 10
65.0213
 20
-1035.3
 11
65.25
 21
-1035.28
  0
LINE
  8
0
 10
65.25
 20
-1035.28
 11
65.4787
 21
-1035.3
  0
LINE
  8
0
 10
65.4787
 20
-1035.3
 11
65.6974
 21
-1035.38
  0
LINE
  8
0
 10
65.6974
 20
-1035.38
 11
65.8966
 21
-1035.49
  0
LINE
  8
0
 10
65.8966
 20
-1035.49
 11
66.0675
 21
-1035.64
  0
LINE
  8
0
 10
66.0675
 20
-1035.64
 11
66.2026
 21
-1035.83
  0
LINE
  8
0
 10
66.2026
 20
-1035.83
 11
66.2962
 21
-1036.04
  0
LINE
  8
0
 10
66.2962
 20
-1036.04
 11
66.344
 21
-1036.27
  0
LINE
  8
0
 10
66.344
 20
-1036.27
 11
66.344
 21
-1036.49
  0
LINE
  8
0
 10
66.344
 20
-1036.49
 11
66.2962
 21
-1036.72
  0
LINE
  8
0
 10
66.2962
 20
-1036.72
 11
66.2026
 21
-1036.93
  0
LINE
  8
0
 10
66.2026
 20
-1036.93
 11
66.0675
 21
-1037.12
  0
LINE
  8
0
 10
66.0675
 20
-1037.12
 11
65.8966
 21
-1037.27
  0
LINE
  8
0
 10
65.8966
 20
-1037.27
 11
65.6974
 21
-1037.38
  0
LINE
  8
0
 10
65.6974
 20
-1037.38
 11
65.4787
 21
-1037.46
  0
LINE
  8
0
 10
65.4787
 20
-1037.46
 11
65.25
 21
-1037.48
  0
LINE
  8
0
 10
65.25
 20
-1037.48
 11
65.0213
 21
-1037.46
  0
LINE
  8
0
 10
-57.4787
 20
-1042.54
 11
-57.6974
 21
-1042.46
  0
LINE
  8
0
 10
-57.6974
 20
-1042.46
 11
-57.8966
 21
-1042.35
  0
LINE
  8
0
 10
-57.8966
 20
-1042.35
 11
-58.0675
 21
-1042.2
  0
LINE
  8
0
 10
-58.0675
 20
-1042.2
 11
-58.2026
 21
-1042.01
  0
LINE
  8
0
 10
-58.2026
 20
-1042.01
 11
-58.2962
 21
-1041.8
  0
LINE
  8
0
 10
-58.2962
 20
-1041.8
 11
-58.344
 21
-1041.57
  0
LINE
  8
0
 10
-58.344
 20
-1041.57
 11
-58.344
 21
-1041.34
  0
LINE
  8
0
 10
-58.344
 20
-1041.34
 11
-58.2962
 21
-1041.12
  0
LINE
  8
0
 10
-58.2962
 20
-1041.12
 11
-58.2026
 21
-1040.91
  0
LINE
  8
0
 10
-58.2026
 20
-1040.91
 11
-58.0675
 21
-1040.72
  0
LINE
  8
0
 10
-58.0675
 20
-1040.72
 11
-57.8966
 21
-1040.57
  0
LINE
  8
0
 10
-57.8966
 20
-1040.57
 11
-57.6974
 21
-1040.46
  0
LINE
  8
0
 10
-57.6974
 20
-1040.46
 11
-57.4787
 21
-1040.38
  0
LINE
  8
0
 10
-57.4787
 20
-1040.38
 11
-57.25
 21
-1040.36
  0
LINE
  8
0
 10
-57.25
 20
-1040.36
 11
-57.0213
 21
-1040.38
  0
LINE
  8
0
 10
-57.0213
 20
-1040.38
 11
-56.8026
 21
-1040.46
  0
LINE
  8
0
 10
-56.8026
 20
-1040.46
 11
-56.6034
 21
-1040.57
  0
LINE
  8
0
 10
-56.6034
 20
-1040.57
 11
-56.4325
 21
-1040.72
  0
LINE
  8
0
 10
-56.4325
 20
-1040.72
 11
-56.2974
 21
-1040.91
  0
LINE
  8
0
 10
-56.2974
 20
-1040.91
 11
-56.2038
 21
-1041.12
  0
LINE
  8
0
 10
-56.2038
 20
-1041.12
 11
-56.156
 21
-1041.34
  0
LINE
  8
0
 10
-56.156
 20
-1041.34
 11
-56.156
 21
-1041.57
  0
LINE
  8
0
 10
-56.156
 20
-1041.57
 11
-56.2038
 21
-1041.8
  0
LINE
  8
0
 10
-56.2038
 20
-1041.8
 11
-56.2974
 21
-1042.01
  0
LINE
  8
0
 10
-56.2974
 20
-1042.01
 11
-56.4325
 21
-1042.2
  0
LINE
  8
0
 10
-56.4325
 20
-1042.2
 11
-56.6034
 21
-1042.35
  0
LINE
  8
0
 10
-56.6034
 20
-1042.35
 11
-56.8026
 21
-1042.46
  0
LINE
  8
0
 10
-56.8026
 20
-1042.46
 11
-57.0213
 21
-1042.54
  0
LINE
  8
0
 10
-57.0213
 20
-1042.54
 11
-57.25
 21
-1042.56
  0
LINE
  8
0
 10
-57.25
 20
-1042.56
 11
-57.4787
 21
-1042.54
  0
LINE
  8
0
 10
65.0213
 20
-1042.54
 11
64.8026
 21
-1042.46
  0
LINE
  8
0
 10
64.8026
 20
-1042.46
 11
64.6034
 21
-1042.35
  0
LINE
  8
0
 10
64.6034
 20
-1042.35
 11
64.4325
 21
-1042.2
  0
LINE
  8
0
 10
64.4325
 20
-1042.2
 11
64.2974
 21
-1042.01
  0
LINE
  8
0
 10
64.2974
 20
-1042.01
 11
64.2038
 21
-1041.8
  0
LINE
  8
0
 10
64.2038
 20
-1041.8
 11
64.156
 21
-1041.57
  0
LINE
  8
0
 10
64.156
 20
-1041.57
 11
64.156
 21
-1041.34
  0
LINE
  8
0
 10
64.156
 20
-1041.34
 11
64.2038
 21
-1041.12
  0
LINE
  8
0
 10
64.2038
 20
-1041.12
 11
64.2974
 21
-1040.91
  0
LINE
  8
0
 10
64.2974
 20
-1040.91
 11
64.4325
 21
-1040.72
  0
LINE
  8
0
 10
64.4325
 20
-1040.72
 11
64.6034
 21
-1040.57
  0
LINE
  8
0
 10
64.6034
 20
-1040.57
 11
64.8026
 21
-1040.46
  0
LINE
  8
0
 10
64.8026
 20
-1040.46
 11
65.0213
 21
-1040.38
  0
LINE
  8
0
 10
65.0213
 20
-1040.38
 11
65.25
 21
-1040.36
  0
LINE
  8
0
 10
65.25
 20
-1040.36
 11
65.4787
 21
-1040.38
  0
LINE
  8
0
 10
65.4787
 20
-1040.38
 11
65.6974
 21
-1040.46
  0
LINE
  8
0
 10
65.6974
 20
-1040.46
 11
65.8966
 21
-1040.57
  0
LINE
  8
0
 10
65.8966
 20
-1040.57
 11
66.0675
 21
-1040.72
  0
LINE
  8
0
 10
66.0675
 20
-1040.72
 11
66.2026
 21
-1040.91
  0
LINE
  8
0
 10
66.2026
 20
-1040.91
 11
66.2962
 21
-1041.12
  0
LINE
  8
0
 10
66.2962
 20
-1041.12
 11
66.344
 21
-1041.34
  0
LINE
  8
0
 10
66.344
 20
-1041.34
 11
66.344
 21
-1041.57
  0
LINE
  8
0
 10
66.344
 20
-1041.57
 11
66.2962
 21
-1041.8
  0
LINE
  8
0
 10
66.2962
 20
-1041.8
 11
66.2026
 21
-1042.01
  0
LINE
  8
0
 10
66.2026
 20
-1042.01
 11
66.0675
 21
-1042.2
  0
LINE
  8
0
 10
66.0675
 20
-1042.2
 11
65.8966
 21
-1042.35
  0
LINE
  8
0
 10
65.8966
 20
-1042.35
 11
65.6974
 21
-1042.46
  0
LINE
  8
0
 10
65.6974
 20
-1042.46
 11
65.4787
 21
-1042.54
  0
LINE
  8
0
 10
65.4787
 20
-1042.54
 11
65.25
 21
-1042.56
  0
LINE
  8
0
 10
65.25
 20
-1042.56
 11
65.0213
 21
-1042.54
  0
LINE
  8
0
 10
-57.4787
 20
-1047.62
 11
-57.6974
 21
-1047.54
  0
LINE
  8
0
 10
-57.6974
 20
-1047.54
 11
-57.8966
 21
-1047.43
  0
LINE
  8
0
 10
-57.8966
 20
-1047.43
 11
-58.0675
 21
-1047.28
  0
LINE
  8
0
 10
-58.0675
 20
-1047.28
 11
-58.2026
 21
-1047.09
  0
LINE
  8
0
 10
-58.2026
 20
-1047.09
 11
-58.2962
 21
-1046.88
  0
LINE
  8
0
 10
-58.2962
 20
-1046.88
 11
-58.344
 21
-1046.66
  0
LINE
  8
0
 10
-58.344
 20
-1046.66
 11
-58.344
 21
-1046.43
  0
LINE
  8
0
 10
-58.344
 20
-1046.43
 11
-58.2962
 21
-1046.2
  0
LINE
  8
0
 10
-58.2962
 20
-1046.2
 11
-58.2026
 21
-1045.99
  0
LINE
  8
0
 10
-58.2026
 20
-1045.99
 11
-58.0675
 21
-1045.8
  0
LINE
  8
0
 10
-58.0675
 20
-1045.8
 11
-57.8966
 21
-1045.65
  0
LINE
  8
0
 10
-57.8966
 20
-1045.65
 11
-57.6974
 21
-1045.54
  0
LINE
  8
0
 10
-57.6974
 20
-1045.54
 11
-57.4787
 21
-1045.46
  0
LINE
  8
0
 10
-57.4787
 20
-1045.46
 11
-57.25
 21
-1045.44
  0
LINE
  8
0
 10
-57.25
 20
-1045.44
 11
-57.0213
 21
-1045.46
  0
LINE
  8
0
 10
-57.0213
 20
-1045.46
 11
-56.8026
 21
-1045.54
  0
LINE
  8
0
 10
-56.8026
 20
-1045.54
 11
-56.6034
 21
-1045.65
  0
LINE
  8
0
 10
-56.6034
 20
-1045.65
 11
-56.4325
 21
-1045.8
  0
LINE
  8
0
 10
-56.4325
 20
-1045.8
 11
-56.2974
 21
-1045.99
  0
LINE
  8
0
 10
-56.2974
 20
-1045.99
 11
-56.2038
 21
-1046.2
  0
LINE
  8
0
 10
-56.2038
 20
-1046.2
 11
-56.156
 21
-1046.43
  0
LINE
  8
0
 10
-56.156
 20
-1046.43
 11
-56.156
 21
-1046.66
  0
LINE
  8
0
 10
-56.156
 20
-1046.66
 11
-56.2038
 21
-1046.88
  0
LINE
  8
0
 10
-56.2038
 20
-1046.88
 11
-56.2974
 21
-1047.09
  0
LINE
  8
0
 10
-56.2974
 20
-1047.09
 11
-56.4325
 21
-1047.28
  0
LINE
  8
0
 10
-56.4325
 20
-1047.28
 11
-56.6034
 21
-1047.43
  0
LINE
  8
0
 10
-56.6034
 20
-1047.43
 11
-56.8026
 21
-1047.54
  0
LINE
  8
0
 10
-56.8026
 20
-1047.54
 11
-57.0213
 21
-1047.62
  0
LINE
  8
0
 10
-57.0213
 20
-1047.62
 11
-57.25
 21
-1047.64
  0
LINE
  8
0
 10
-57.25
 20
-1047.64
 11
-57.4787
 21
-1047.62
  0
LINE
  8
0
 10
65.0213
 20
-1047.62
 11
64.8026
 21
-1047.54
  0
LINE
  8
0
 10
64.8026
 20
-1047.54
 11
64.6034
 21
-1047.43
  0
LINE
  8
0
 10
64.6034
 20
-1047.43
 11
64.4325
 21
-1047.28
  0
LINE
  8
0
 10
64.4325
 20
-1047.28
 11
64.2974
 21
-1047.09
  0
LINE
  8
0
 10
64.2974
 20
-1047.09
 11
64.2038
 21
-1046.88
  0
LINE
  8
0
 10
64.2038
 20
-1046.88
 11
64.156
 21
-1046.66
  0
LINE
  8
0
 10
64.156
 20
-1046.66
 11
64.156
 21
-1046.43
  0
LINE
  8
0
 10
64.156
 20
-1046.43
 11
64.2038
 21
-1046.2
  0
LINE
  8
0
 10
64.2038
 20
-1046.2
 11
64.2974
 21
-1045.99
  0
LINE
  8
0
 10
64.2974
 20
-1045.99
 11
64.4325
 21
-1045.8
  0
LINE
  8
0
 10
64.4325
 20
-1045.8
 11
64.6034
 21
-1045.65
  0
LINE
  8
0
 10
64.6034
 20
-1045.65
 11
64.8026
 21
-1045.54
  0
LINE
  8
0
 10
64.8026
 20
-1045.54
 11
65.0213
 21
-1045.46
  0
LINE
  8
0
 10
65.0213
 20
-1045.46
 11
65.25
 21
-1045.44
  0
LINE
  8
0
 10
65.25
 20
-1045.44
 11
65.4787
 21
-1045.46
  0
LINE
  8
0
 10
65.4787
 20
-1045.46
 11
65.6974
 21
-1045.54
  0
LINE
  8
0
 10
65.6974
 20
-1045.54
 11
65.8966
 21
-1045.65
  0
LINE
  8
0
 10
65.8966
 20
-1045.65
 11
66.0675
 21
-1045.8
  0
LINE
  8
0
 10
66.0675
 20
-1045.8
 11
66.2026
 21
-1045.99
  0
LINE
  8
0
 10
66.2026
 20
-1045.99
 11
66.2962
 21
-1046.2
  0
LINE
  8
0
 10
66.2962
 20
-1046.2
 11
66.344
 21
-1046.43
  0
LINE
  8
0
 10
66.344
 20
-1046.43
 11
66.344
 21
-1046.66
  0
LINE
  8
0
 10
66.344
 20
-1046.66
 11
66.2962
 21
-1046.88
  0
LINE
  8
0
 10
66.2962
 20
-1046.88
 11
66.2026
 21
-1047.09
  0
LINE
  8
0
 10
66.2026
 20
-1047.09
 11
66.0675
 21
-1047.28
  0
LINE
  8
0
 10
66.0675
 20
-1047.28
 11
65.8966
 21
-1047.43
  0
LINE
  8
0
 10
65.8966
 20
-1047.43
 11
65.6974
 21
-1047.54
  0
LINE
  8
0
 10
65.6974
 20
-1047.54
 11
65.4787
 21
-1047.62
  0
LINE
  8
0
 10
65.4787
 20
-1047.62
 11
65.25
 21
-1047.64
  0
LINE
  8
0
 10
65.25
 20
-1047.64
 11
65.0213
 21
-1047.62
  0
LINE
  8
0
 10
-57.4787
 20
-1052.7
 11
-57.6974
 21
-1052.62
  0
LINE
  8
0
 10
-57.6974
 20
-1052.62
 11
-57.8966
 21
-1052.51
  0
LINE
  8
0
 10
-57.8966
 20
-1052.51
 11
-58.0675
 21
-1052.36
  0
LINE
  8
0
 10
-58.0675
 20
-1052.36
 11
-58.2026
 21
-1052.17
  0
LINE
  8
0
 10
-58.2026
 20
-1052.17
 11
-58.2962
 21
-1051.96
  0
LINE
  8
0
 10
-58.2962
 20
-1051.96
 11
-58.344
 21
-1051.73
  0
LINE
  8
0
 10
-58.344
 20
-1051.73
 11
-58.344
 21
-1051.51
  0
LINE
  8
0
 10
-58.344
 20
-1051.51
 11
-58.2962
 21
-1051.28
  0
LINE
  8
0
 10
-58.2962
 20
-1051.28
 11
-58.2026
 21
-1051.07
  0
LINE
  8
0
 10
-58.2026
 20
-1051.07
 11
-58.0675
 21
-1050.88
  0
LINE
  8
0
 10
-58.0675
 20
-1050.88
 11
-57.8966
 21
-1050.73
  0
LINE
  8
0
 10
-57.8966
 20
-1050.73
 11
-57.6974
 21
-1050.62
  0
LINE
  8
0
 10
-57.6974
 20
-1050.62
 11
-57.4787
 21
-1050.54
  0
LINE
  8
0
 10
-57.4787
 20
-1050.54
 11
-57.25
 21
-1050.52
  0
LINE
  8
0
 10
-57.25
 20
-1050.52
 11
-57.0213
 21
-1050.54
  0
LINE
  8
0
 10
-57.0213
 20
-1050.54
 11
-56.8026
 21
-1050.62
  0
LINE
  8
0
 10
-56.8026
 20
-1050.62
 11
-56.6034
 21
-1050.73
  0
LINE
  8
0
 10
-56.6034
 20
-1050.73
 11
-56.4325
 21
-1050.88
  0
LINE
  8
0
 10
-56.4325
 20
-1050.88
 11
-56.2974
 21
-1051.07
  0
LINE
  8
0
 10
-56.2974
 20
-1051.07
 11
-56.2038
 21
-1051.28
  0
LINE
  8
0
 10
-56.2038
 20
-1051.28
 11
-56.156
 21
-1051.51
  0
LINE
  8
0
 10
-56.156
 20
-1051.51
 11
-56.156
 21
-1051.73
  0
LINE
  8
0
 10
-56.156
 20
-1051.73
 11
-56.2038
 21
-1051.96
  0
LINE
  8
0
 10
-56.2038
 20
-1051.96
 11
-56.2974
 21
-1052.17
  0
LINE
  8
0
 10
-56.2974
 20
-1052.17
 11
-56.4325
 21
-1052.36
  0
LINE
  8
0
 10
-56.4325
 20
-1052.36
 11
-56.6034
 21
-1052.51
  0
LINE
  8
0
 10
-56.6034
 20
-1052.51
 11
-56.8026
 21
-1052.62
  0
LINE
  8
0
 10
-56.8026
 20
-1052.62
 11
-57.0213
 21
-1052.7
  0
LINE
  8
0
 10
-57.0213
 20
-1052.7
 11
-57.25
 21
-1052.72
  0
LINE
  8
0
 10
-57.25
 20
-1052.72
 11
-57.4787
 21
-1052.7
  0
LINE
  8
0
 10
65.0213
 20
-1052.7
 11
64.8026
 21
-1052.62
  0
LINE
  8
0
 10
64.8026
 20
-1052.62
 11
64.6034
 21
-1052.51
  0
LINE
  8
0
 10
64.6034
 20
-1052.51
 11
64.4325
 21
-1052.36
  0
LINE
  8
0
 10
64.4325
 20
-1052.36
 11
64.2974
 21
-1052.17
  0
LINE
  8
0
 10
64.2974
 20
-1052.17
 11
64.2038
 21
-1051.96
  0
LINE
  8
0
 10
64.2038
 20
-1051.96
 11
64.156
 21
-1051.73
  0
LINE
  8
0
 10
64.156
 20
-1051.73
 11
64.156
 21
-1051.51
  0
LINE
  8
0
 10
64.156
 20
-1051.51
 11
64.2038
 21
-1051.28
  0
LINE
  8
0
 10
64.2038
 20
-1051.28
 11
64.2974
 21
-1051.07
  0
LINE
  8
0
 10
64.2974
 20
-1051.07
 11
64.4325
 21
-1050.88
  0
LINE
  8
0
 10
64.4325
 20
-1050.88
 11
64.6034
 21
-1050.73
  0
LINE
  8
0
 10
64.6034
 20
-1050.73
 11
64.8026
 21
-1050.62
  0
LINE
  8
0
 10
64.8026
 20
-1050.62
 11
65.0213
 21
-1050.54
  0
LINE
  8
0
 10
65.0213
 20
-1050.54
 11
65.25
 21
-1050.52
  0
LINE
  8
0
 10
65.25
 20
-1050.52
 11
65.4787
 21
-1050.54
  0
LINE
  8
0
 10
65.4787
 20
-1050.54
 11
65.6974
 21
-1050.62
  0
LINE
  8
0
 10
65.6974
 20
-1050.62
 11
65.8966
 21
-1050.73
  0
LINE
  8
0
 10
65.8966
 20
-1050.73
 11
66.0675
 21
-1050.88
  0
LINE
  8
0
 10
66.0675
 20
-1050.88
 11
66.2026
 21
-1051.07
  0
LINE
  8
0
 10
66.2026
 20
-1051.07
 11
66.2962
 21
-1051.28
  0
LINE
  8
0
 10
66.2962
 20
-1051.28
 11
66.344
 21
-1051.51
  0
LINE
  8
0
 10
66.344
 20
-1051.51
 11
66.344
 21
-1051.73
  0
LINE
  8
0
 10
66.344
 20
-1051.73
 11
66.2962
 21
-1051.96
  0
LINE
  8
0
 10
66.2962
 20
-1051.96
 11
66.2026
 21
-1052.17
  0
LINE
  8
0
 10
66.2026
 20
-1052.17
 11
66.0675
 21
-1052.36
  0
LINE
  8
0
 10
66.0675
 20
-1052.36
 11
65.8966
 21
-1052.51
  0
LINE
  8
0
 10
65.8966
 20
-1052.51
 11
65.6974
 21
-1052.62
  0
LINE
  8
0
 10
65.6974
 20
-1052.62
 11
65.4787
 21
-1052.7
  0
LINE
  8
0
 10
65.4787
 20
-1052.7
 11
65.25
 21
-1052.72
  0
LINE
  8
0
 10
65.25
 20
-1052.72
 11
65.0213
 21
-1052.7
  0
LINE
  8
0
 10
-57.4787
 20
-1057.78
 11
-57.6974
 21
-1057.7
  0
LINE
  8
0
 10
-57.6974
 20
-1057.7
 11
-57.8966
 21
-1057.59
  0
LINE
  8
0
 10
-57.8966
 20
-1057.59
 11
-58.0675
 21
-1057.44
  0
LINE
  8
0
 10
-58.0675
 20
-1057.44
 11
-58.2026
 21
-1057.25
  0
LINE
  8
0
 10
-58.2026
 20
-1057.25
 11
-58.2962
 21
-1057.04
  0
LINE
  8
0
 10
-58.2962
 20
-1057.04
 11
-58.344
 21
-1056.81
  0
LINE
  8
0
 10
-58.344
 20
-1056.81
 11
-58.344
 21
-1056.58
  0
LINE
  8
0
 10
-58.344
 20
-1056.58
 11
-58.2962
 21
-1056.36
  0
LINE
  8
0
 10
-58.2962
 20
-1056.36
 11
-58.2026
 21
-1056.15
  0
LINE
  8
0
 10
-58.2026
 20
-1056.15
 11
-58.0675
 21
-1055.96
  0
LINE
  8
0
 10
-58.0675
 20
-1055.96
 11
-57.8966
 21
-1055.81
  0
LINE
  8
0
 10
-57.8966
 20
-1055.81
 11
-57.6974
 21
-1055.7
  0
LINE
  8
0
 10
-57.6974
 20
-1055.7
 11
-57.4787
 21
-1055.62
  0
LINE
  8
0
 10
-57.4787
 20
-1055.62
 11
-57.25
 21
-1055.6
  0
LINE
  8
0
 10
-57.25
 20
-1055.6
 11
-57.0213
 21
-1055.62
  0
LINE
  8
0
 10
-57.0213
 20
-1055.62
 11
-56.8026
 21
-1055.7
  0
LINE
  8
0
 10
-56.8026
 20
-1055.7
 11
-56.6034
 21
-1055.81
  0
LINE
  8
0
 10
-56.6034
 20
-1055.81
 11
-56.4325
 21
-1055.96
  0
LINE
  8
0
 10
-56.4325
 20
-1055.96
 11
-56.2974
 21
-1056.15
  0
LINE
  8
0
 10
-56.2974
 20
-1056.15
 11
-56.2038
 21
-1056.36
  0
LINE
  8
0
 10
-56.2038
 20
-1056.36
 11
-56.156
 21
-1056.58
  0
LINE
  8
0
 10
-56.156
 20
-1056.58
 11
-56.156
 21
-1056.81
  0
LINE
  8
0
 10
-56.156
 20
-1056.81
 11
-56.2038
 21
-1057.04
  0
LINE
  8
0
 10
-56.2038
 20
-1057.04
 11
-56.2974
 21
-1057.25
  0
LINE
  8
0
 10
-56.2974
 20
-1057.25
 11
-56.4325
 21
-1057.44
  0
LINE
  8
0
 10
-56.4325
 20
-1057.44
 11
-56.6034
 21
-1057.59
  0
LINE
  8
0
 10
-56.6034
 20
-1057.59
 11
-56.8026
 21
-1057.7
  0
LINE
  8
0
 10
-56.8026
 20
-1057.7
 11
-57.0213
 21
-1057.78
  0
LINE
  8
0
 10
-57.0213
 20
-1057.78
 11
-57.25
 21
-1057.8
  0
LINE
  8
0
 10
-57.25
 20
-1057.8
 11
-57.4787
 21
-1057.78
  0
LINE
  8
0
 10
65.0213
 20
-1057.78
 11
64.8026
 21
-1057.7
  0
LINE
  8
0
 10
64.8026
 20
-1057.7
 11
64.6034
 21
-1057.59
  0
LINE
  8
0
 10
64.6034
 20
-1057.59
 11
64.4325
 21
-1057.44
  0
LINE
  8
0
 10
64.4325
 20
-1057.44
 11
64.2974
 21
-1057.25
  0
LINE
  8
0
 10
64.2974
 20
-1057.25
 11
64.2038
 21
-1057.04
  0
LINE
  8
0
 10
64.2038
 20
-1057.04
 11
64.156
 21
-1056.81
  0
LINE
  8
0
 10
64.156
 20
-1056.81
 11
64.156
 21
-1056.58
  0
LINE
  8
0
 10
64.156
 20
-1056.58
 11
64.2038
 21
-1056.36
  0
LINE
  8
0
 10
64.2038
 20
-1056.36
 11
64.2974
 21
-1056.15
  0
LINE
  8
0
 10
64.2974
 20
-1056.15
 11
64.4325
 21
-1055.96
  0
LINE
  8
0
 10
64.4325
 20
-1055.96
 11
64.6034
 21
-1055.81
  0
LINE
  8
0
 10
64.6034
 20
-1055.81
 11
64.8026
 21
-1055.7
  0
LINE
  8
0
 10
64.8026
 20
-1055.7
 11
65.0213
 21
-1055.62
  0
LINE
  8
0
 10
65.0213
 20
-1055.62
 11
65.25
 21
-1055.6
  0
LINE
  8
0
 10
65.25
 20
-1055.6
 11
65.4787
 21
-1055.62
  0
LINE
  8
0
 10
65.4787
 20
-1055.62
 11
65.6974
 21
-1055.7
  0
LINE
  8
0
 10
65.6974
 20
-1055.7
 11
65.8966
 21
-1055.81
  0
LINE
  8
0
 10
65.8966
 20
-1055.81
 11
66.0675
 21
-1055.96
  0
LINE
  8
0
 10
66.0675
 20
-1055.96
 11
66.2026
 21
-1056.15
  0
LINE
  8
0
 10
66.2026
 20
-1056.15
 11
66.2962
 21
-1056.36
  0
LINE
  8
0
 10
66.2962
 20
-1056.36
 11
66.344
 21
-1056.58
  0
LINE
  8
0
 10
66.344
 20
-1056.58
 11
66.344
 21
-1056.81
  0
LINE
  8
0
 10
66.344
 20
-1056.81
 11
66.2962
 21
-1057.04
  0
LINE
  8
0
 10
66.2962
 20
-1057.04
 11
66.2026
 21
-1057.25
  0
LINE
  8
0
 10
66.2026
 20
-1057.25
 11
66.0675
 21
-1057.44
  0
LINE
  8
0
 10
66.0675
 20
-1057.44
 11
65.8966
 21
-1057.59
  0
LINE
  8
0
 10
65.8966
 20
-1057.59
 11
65.6974
 21
-1057.7
  0
LINE
  8
0
 10
65.6974
 20
-1057.7
 11
65.4787
 21
-1057.78
  0
LINE
  8
0
 10
65.4787
 20
-1057.78
 11
65.25
 21
-1057.8
  0
LINE
  8
0
 10
65.25
 20
-1057.8
 11
65.0213
 21
-1057.78
  0
LINE
  8
0
 10
-57.4787
 20
-1062.86
 11
-57.6974
 21
-1062.78
  0
LINE
  8
0
 10
-57.6974
 20
-1062.78
 11
-57.8966
 21
-1062.67
  0
LINE
  8
0
 10
-57.8966
 20
-1062.67
 11
-58.0675
 21
-1062.52
  0
LINE
  8
0
 10
-58.0675
 20
-1062.52
 11
-58.2026
 21
-1062.33
  0
LINE
  8
0
 10
-58.2026
 20
-1062.33
 11
-58.2962
 21
-1062.12
  0
LINE
  8
0
 10
-58.2962
 20
-1062.12
 11
-58.344
 21
-1061.9
  0
LINE
  8
0
 10
-58.344
 20
-1061.9
 11
-58.344
 21
-1061.67
  0
LINE
  8
0
 10
-58.344
 20
-1061.67
 11
-58.2962
 21
-1061.44
  0
LINE
  8
0
 10
-58.2962
 20
-1061.44
 11
-58.2026
 21
-1061.23
  0
LINE
  8
0
 10
-58.2026
 20
-1061.23
 11
-58.0675
 21
-1061.04
  0
LINE
  8
0
 10
-58.0675
 20
-1061.04
 11
-57.8966
 21
-1060.89
  0
LINE
  8
0
 10
-57.8966
 20
-1060.89
 11
-57.6974
 21
-1060.78
  0
LINE
  8
0
 10
-57.6974
 20
-1060.78
 11
-57.4787
 21
-1060.7
  0
LINE
  8
0
 10
-57.4787
 20
-1060.7
 11
-57.25
 21
-1060.68
  0
LINE
  8
0
 10
-57.25
 20
-1060.68
 11
-57.0213
 21
-1060.7
  0
LINE
  8
0
 10
-57.0213
 20
-1060.7
 11
-56.8026
 21
-1060.78
  0
LINE
  8
0
 10
-56.8026
 20
-1060.78
 11
-56.6034
 21
-1060.89
  0
LINE
  8
0
 10
-56.6034
 20
-1060.89
 11
-56.4325
 21
-1061.04
  0
LINE
  8
0
 10
-56.4325
 20
-1061.04
 11
-56.2974
 21
-1061.23
  0
LINE
  8
0
 10
-56.2974
 20
-1061.23
 11
-56.2038
 21
-1061.44
  0
LINE
  8
0
 10
-56.2038
 20
-1061.44
 11
-56.156
 21
-1061.67
  0
LINE
  8
0
 10
-56.156
 20
-1061.67
 11
-56.156
 21
-1061.9
  0
LINE
  8
0
 10
-56.156
 20
-1061.9
 11
-56.2038
 21
-1062.12
  0
LINE
  8
0
 10
-56.2038
 20
-1062.12
 11
-56.2974
 21
-1062.33
  0
LINE
  8
0
 10
-56.2974
 20
-1062.33
 11
-56.4325
 21
-1062.52
  0
LINE
  8
0
 10
-56.4325
 20
-1062.52
 11
-56.6034
 21
-1062.67
  0
LINE
  8
0
 10
-56.6034
 20
-1062.67
 11
-56.8026
 21
-1062.78
  0
LINE
  8
0
 10
-56.8026
 20
-1062.78
 11
-57.0213
 21
-1062.86
  0
LINE
  8
0
 10
-57.0213
 20
-1062.86
 11
-57.25
 21
-1062.88
  0
LINE
  8
0
 10
-57.25
 20
-1062.88
 11
-57.4787
 21
-1062.86
  0
LINE
  8
0
 10
65.0213
 20
-1062.86
 11
64.8026
 21
-1062.78
  0
LINE
  8
0
 10
64.8026
 20
-1062.78
 11
64.6034
 21
-1062.67
  0
LINE
  8
0
 10
64.6034
 20
-1062.67
 11
64.4325
 21
-1062.52
  0
LINE
  8
0
 10
64.4325
 20
-1062.52
 11
64.2974
 21
-1062.33
  0
LINE
  8
0
 10
64.2974
 20
-1062.33
 11
64.2038
 21
-1062.12
  0
LINE
  8
0
 10
64.2038
 20
-1062.12
 11
64.156
 21
-1061.9
  0
LINE
  8
0
 10
64.156
 20
-1061.9
 11
64.156
 21
-1061.67
  0
LINE
  8
0
 10
64.156
 20
-1061.67
 11
64.2038
 21
-1061.44
  0
LINE
  8
0
 10
64.2038
 20
-1061.44
 11
64.2974
 21
-1061.23
  0
LINE
  8
0
 10
64.2974
 20
-1061.23
 11
64.4325
 21
-1061.04
  0
LINE
  8
0
 10
64.4325
 20
-1061.04
 11
64.6034
 21
-1060.89
  0
LINE
  8
0
 10
64.6034
 20
-1060.89
 11
64.8026
 21
-1060.78
  0
LINE
  8
0
 10
64.8026
 20
-1060.78
 11
65.0213
 21
-1060.7
  0
LINE
  8
0
 10
65.0213
 20
-1060.7
 11
65.25
 21
-1060.68
  0
LINE
  8
0
 10
65.25
 20
-1060.68
 11
65.4787
 21
-1060.7
  0
LINE
  8
0
 10
65.4787
 20
-1060.7
 11
65.6974
 21
-1060.78
  0
LINE
  8
0
 10
65.6974
 20
-1060.78
 11
65.8966
 21
-1060.89
  0
LINE
  8
0
 10
65.8966
 20
-1060.89
 11
66.0675
 21
-1061.04
  0
LINE
  8
0
 10
66.0675
 20
-1061.04
 11
66.2026
 21
-1061.23
  0
LINE
  8
0
 10
66.2026
 20
-1061.23
 11
66.2962
 21
-1061.44
  0
LINE
  8
0
 10
66.2962
 20
-1061.44
 11
66.344
 21
-1061.67
  0
LINE
  8
0
 10
66.344
 20
-1061.67
 11
66.344
 21
-1061.9
  0
LINE
  8
0
 10
66.344
 20
-1061.9
 11
66.2962
 21
-1062.12
  0
LINE
  8
0
 10
66.2962
 20
-1062.12
 11
66.2026
 21
-1062.33
  0
LINE
  8
0
 10
66.2026
 20
-1062.33
 11
66.0675
 21
-1062.52
  0
LINE
  8
0
 10
66.0675
 20
-1062.52
 11
65.8966
 21
-1062.67
  0
LINE
  8
0
 10
65.8966
 20
-1062.67
 11
65.6974
 21
-1062.78
  0
LINE
  8
0
 10
65.6974
 20
-1062.78
 11
65.4787
 21
-1062.86
  0
LINE
  8
0
 10
65.4787
 20
-1062.86
 11
65.25
 21
-1062.88
  0
LINE
  8
0
 10
65.25
 20
-1062.88
 11
65.0213
 21
-1062.86
  0
LINE
  8
0
 10
-57.4787
 20
-1067.94
 11
-57.6974
 21
-1067.86
  0
LINE
  8
0
 10
-57.6974
 20
-1067.86
 11
-57.8966
 21
-1067.75
  0
LINE
  8
0
 10
-57.8966
 20
-1067.75
 11
-58.0675
 21
-1067.6
  0
LINE
  8
0
 10
-58.0675
 20
-1067.6
 11
-58.2026
 21
-1067.41
  0
LINE
  8
0
 10
-58.2026
 20
-1067.41
 11
-58.2962
 21
-1067.2
  0
LINE
  8
0
 10
-58.2962
 20
-1067.2
 11
-58.344
 21
-1066.97
  0
LINE
  8
0
 10
-58.344
 20
-1066.97
 11
-58.344
 21
-1066.74
  0
LINE
  8
0
 10
-58.344
 20
-1066.74
 11
-58.2962
 21
-1066.52
  0
LINE
  8
0
 10
-58.2962
 20
-1066.52
 11
-58.2026
 21
-1066.31
  0
LINE
  8
0
 10
-58.2026
 20
-1066.31
 11
-58.0675
 21
-1066.12
  0
LINE
  8
0
 10
-58.0675
 20
-1066.12
 11
-57.8966
 21
-1065.97
  0
LINE
  8
0
 10
-57.8966
 20
-1065.97
 11
-57.6974
 21
-1065.86
  0
LINE
  8
0
 10
-57.6974
 20
-1065.86
 11
-57.4787
 21
-1065.78
  0
LINE
  8
0
 10
-57.4787
 20
-1065.78
 11
-57.25
 21
-1065.76
  0
LINE
  8
0
 10
-57.25
 20
-1065.76
 11
-57.0213
 21
-1065.78
  0
LINE
  8
0
 10
-57.0213
 20
-1065.78
 11
-56.8026
 21
-1065.86
  0
LINE
  8
0
 10
-56.8026
 20
-1065.86
 11
-56.6034
 21
-1065.97
  0
LINE
  8
0
 10
-56.6034
 20
-1065.97
 11
-56.4325
 21
-1066.12
  0
LINE
  8
0
 10
-56.4325
 20
-1066.12
 11
-56.2974
 21
-1066.31
  0
LINE
  8
0
 10
-56.2974
 20
-1066.31
 11
-56.2038
 21
-1066.52
  0
LINE
  8
0
 10
-56.2038
 20
-1066.52
 11
-56.156
 21
-1066.74
  0
LINE
  8
0
 10
-56.156
 20
-1066.74
 11
-56.156
 21
-1066.97
  0
LINE
  8
0
 10
-56.156
 20
-1066.97
 11
-56.2038
 21
-1067.2
  0
LINE
  8
0
 10
-56.2038
 20
-1067.2
 11
-56.2974
 21
-1067.41
  0
LINE
  8
0
 10
-56.2974
 20
-1067.41
 11
-56.4325
 21
-1067.6
  0
LINE
  8
0
 10
-56.4325
 20
-1067.6
 11
-56.6034
 21
-1067.75
  0
LINE
  8
0
 10
-56.6034
 20
-1067.75
 11
-56.8026
 21
-1067.86
  0
LINE
  8
0
 10
-56.8026
 20
-1067.86
 11
-57.0213
 21
-1067.94
  0
LINE
  8
0
 10
-57.0213
 20
-1067.94
 11
-57.25
 21
-1067.96
  0
LINE
  8
0
 10
-57.25
 20
-1067.96
 11
-57.4787
 21
-1067.94
  0
LINE
  8
0
 10
65.0213
 20
-1067.94
 11
64.8026
 21
-1067.86
  0
LINE
  8
0
 10
64.8026
 20
-1067.86
 11
64.6034
 21
-1067.75
  0
LINE
  8
0
 10
64.6034
 20
-1067.75
 11
64.4325
 21
-1067.6
  0
LINE
  8
0
 10
64.4325
 20
-1067.6
 11
64.2974
 21
-1067.41
  0
LINE
  8
0
 10
64.2974
 20
-1067.41
 11
64.2038
 21
-1067.2
  0
LINE
  8
0
 10
64.2038
 20
-1067.2
 11
64.156
 21
-1066.97
  0
LINE
  8
0
 10
64.156
 20
-1066.97
 11
64.156
 21
-1066.74
  0
LINE
  8
0
 10
64.156
 20
-1066.74
 11
64.2038
 21
-1066.52
  0
LINE
  8
0
 10
64.2038
 20
-1066.52
 11
64.2974
 21
-1066.31
  0
LINE
  8
0
 10
64.2974
 20
-1066.31
 11
64.4325
 21
-1066.12
  0
LINE
  8
0
 10
64.4325
 20
-1066.12
 11
64.6034
 21
-1065.97
  0
LINE
  8
0
 10
64.6034
 20
-1065.97
 11
64.8026
 21
-1065.86
  0
LINE
  8
0
 10
64.8026
 20
-1065.86
 11
65.0213
 21
-1065.78
  0
LINE
  8
0
 10
65.0213
 20
-1065.78
 11
65.25
 21
-1065.76
  0
LINE
  8
0
 10
65.25
 20
-1065.76
 11
65.4787
 21
-1065.78
  0
LINE
  8
0
 10
65.4787
 20
-1065.78
 11
65.6974
 21
-1065.86
  0
LINE
  8
0
 10
65.6974
 20
-1065.86
 11
65.8966
 21
-1065.97
  0
LINE
  8
0
 10
65.8966
 20
-1065.97
 11
66.0675
 21
-1066.12
  0
LINE
  8
0
 10
66.0675
 20
-1066.12
 11
66.2026
 21
-1066.31
  0
LINE
  8
0
 10
66.2026
 20
-1066.31
 11
66.2962
 21
-1066.52
  0
LINE
  8
0
 10
66.2962
 20
-1066.52
 11
66.344
 21
-1066.74
  0
LINE
  8
0
 10
66.344
 20
-1066.74
 11
66.344
 21
-1066.97
  0
LINE
  8
0
 10
66.344
 20
-1066.97
 11
66.2962
 21
-1067.2
  0
LINE
  8
0
 10
66.2962
 20
-1067.2
 11
66.2026
 21
-1067.41
  0
LINE
  8
0
 10
66.2026
 20
-1067.41
 11
66.0675
 21
-1067.6
  0
LINE
  8
0
 10
66.0675
 20
-1067.6
 11
65.8966
 21
-1067.75
  0
LINE
  8
0
 10
65.8966
 20
-1067.75
 11
65.6974
 21
-1067.86
  0
LINE
  8
0
 10
65.6974
 20
-1067.86
 11
65.4787
 21
-1067.94
  0
LINE
  8
0
 10
65.4787
 20
-1067.94
 11
65.25
 21
-1067.96
  0
LINE
  8
0
 10
65.25
 20
-1067.96
 11
65.0213
 21
-1067.94
  0
LINE
  8
0
 10
-57.4787
 20
-1073.02
 11
-57.6974
 21
-1072.94
  0
LINE
  8
0
 10
-57.6974
 20
-1072.94
 11
-57.8966
 21
-1072.83
  0
LINE
  8
0
 10
-57.8966
 20
-1072.83
 11
-58.0675
 21
-1072.68
  0
LINE
  8
0
 10
-58.0675
 20
-1072.68
 11
-58.2026
 21
-1072.49
  0
LINE
  8
0
 10
-58.2026
 20
-1072.49
 11
-58.2962
 21
-1072.28
  0
LINE
  8
0
 10
-58.2962
 20
-1072.28
 11
-58.344
 21
-1072.05
  0
LINE
  8
0
 10
-58.344
 20
-1072.05
 11
-58.344
 21
-1071.83
  0
LINE
  8
0
 10
-58.344
 20
-1071.83
 11
-58.2962
 21
-1071.6
  0
LINE
  8
0
 10
-58.2962
 20
-1071.6
 11
-58.2026
 21
-1071.39
  0
LINE
  8
0
 10
-58.2026
 20
-1071.39
 11
-58.0675
 21
-1071.2
  0
LINE
  8
0
 10
-58.0675
 20
-1071.2
 11
-57.8966
 21
-1071.05
  0
LINE
  8
0
 10
-57.8966
 20
-1071.05
 11
-57.6974
 21
-1070.94
  0
LINE
  8
0
 10
-57.6974
 20
-1070.94
 11
-57.4787
 21
-1070.86
  0
LINE
  8
0
 10
-57.4787
 20
-1070.86
 11
-57.25
 21
-1070.84
  0
LINE
  8
0
 10
-57.25
 20
-1070.84
 11
-57.0213
 21
-1070.86
  0
LINE
  8
0
 10
-57.0213
 20
-1070.86
 11
-56.8026
 21
-1070.94
  0
LINE
  8
0
 10
-56.8026
 20
-1070.94
 11
-56.6034
 21
-1071.05
  0
LINE
  8
0
 10
-56.6034
 20
-1071.05
 11
-56.4325
 21
-1071.2
  0
LINE
  8
0
 10
-56.4325
 20
-1071.2
 11
-56.2974
 21
-1071.39
  0
LINE
  8
0
 10
-56.2974
 20
-1071.39
 11
-56.2038
 21
-1071.6
  0
LINE
  8
0
 10
-56.2038
 20
-1071.6
 11
-56.156
 21
-1071.83
  0
LINE
  8
0
 10
-56.156
 20
-1071.83
 11
-56.156
 21
-1072.05
  0
LINE
  8
0
 10
-56.156
 20
-1072.05
 11
-56.2038
 21
-1072.28
  0
LINE
  8
0
 10
-56.2038
 20
-1072.28
 11
-56.2974
 21
-1072.49
  0
LINE
  8
0
 10
-56.2974
 20
-1072.49
 11
-56.4325
 21
-1072.68
  0
LINE
  8
0
 10
-56.4325
 20
-1072.68
 11
-56.6034
 21
-1072.83
  0
LINE
  8
0
 10
-56.6034
 20
-1072.83
 11
-56.8026
 21
-1072.94
  0
LINE
  8
0
 10
-56.8026
 20
-1072.94
 11
-57.0213
 21
-1073.02
  0
LINE
  8
0
 10
-57.0213
 20
-1073.02
 11
-57.25
 21
-1073.04
  0
LINE
  8
0
 10
-57.25
 20
-1073.04
 11
-57.4787
 21
-1073.02
  0
LINE
  8
0
 10
65.0213
 20
-1073.02
 11
64.8026
 21
-1072.94
  0
LINE
  8
0
 10
64.8026
 20
-1072.94
 11
64.6034
 21
-1072.83
  0
LINE
  8
0
 10
64.6034
 20
-1072.83
 11
64.4325
 21
-1072.68
  0
LINE
  8
0
 10
64.4325
 20
-1072.68
 11
64.2974
 21
-1072.49
  0
LINE
  8
0
 10
64.2974
 20
-1072.49
 11
64.2038
 21
-1072.28
  0
LINE
  8
0
 10
64.2038
 20
-1072.28
 11
64.156
 21
-1072.05
  0
LINE
  8
0
 10
64.156
 20
-1072.05
 11
64.156
 21
-1071.83
  0
LINE
  8
0
 10
64.156
 20
-1071.83
 11
64.2038
 21
-1071.6
  0
LINE
  8
0
 10
64.2038
 20
-1071.6
 11
64.2974
 21
-1071.39
  0
LINE
  8
0
 10
64.2974
 20
-1071.39
 11
64.4325
 21
-1071.2
  0
LINE
  8
0
 10
64.4325
 20
-1071.2
 11
64.6034
 21
-1071.05
  0
LINE
  8
0
 10
64.6034
 20
-1071.05
 11
64.8026
 21
-1070.94
  0
LINE
  8
0
 10
64.8026
 20
-1070.94
 11
65.0213
 21
-1070.86
  0
LINE
  8
0
 10
65.0213
 20
-1070.86
 11
65.25
 21
-1070.84
  0
LINE
  8
0
 10
65.25
 20
-1070.84
 11
65.4787
 21
-1070.86
  0
LINE
  8
0
 10
65.4787
 20
-1070.86
 11
65.6974
 21
-1070.94
  0
LINE
  8
0
 10
65.6974
 20
-1070.94
 11
65.8966
 21
-1071.05
  0
LINE
  8
0
 10
65.8966
 20
-1071.05
 11
66.0675
 21
-1071.2
  0
LINE
  8
0
 10
66.0675
 20
-1071.2
 11
66.2026
 21
-1071.39
  0
LINE
  8
0
 10
66.2026
 20
-1071.39
 11
66.2962
 21
-1071.6
  0
LINE
  8
0
 10
66.2962
 20
-1071.6
 11
66.344
 21
-1071.83
  0
LINE
  8
0
 10
66.344
 20
-1071.83
 11
66.344
 21
-1072.05
  0
LINE
  8
0
 10
66.344
 20
-1072.05
 11
66.2962
 21
-1072.28
  0
LINE
  8
0
 10
66.2962
 20
-1072.28
 11
66.2026
 21
-1072.49
  0
LINE
  8
0
 10
66.2026
 20
-1072.49
 11
66.0675
 21
-1072.68
  0
LINE
  8
0
 10
66.0675
 20
-1072.68
 11
65.8966
 21
-1072.83
  0
LINE
  8
0
 10
65.8966
 20
-1072.83
 11
65.6974
 21
-1072.94
  0
LINE
  8
0
 10
65.6974
 20
-1072.94
 11
65.4787
 21
-1073.02
  0
LINE
  8
0
 10
65.4787
 20
-1073.02
 11
65.25
 21
-1073.04
  0
LINE
  8
0
 10
65.25
 20
-1073.04
 11
65.0213
 21
-1073.02
  0
LINE
  8
0
 10
65.0213
 20
-1078.1
 11
64.8026
 21
-1078.02
  0
LINE
  8
0
 10
64.8026
 20
-1078.02
 11
64.6034
 21
-1077.91
  0
LINE
  8
0
 10
64.6034
 20
-1077.91
 11
64.4325
 21
-1077.76
  0
LINE
  8
0
 10
64.4325
 20
-1077.76
 11
64.2974
 21
-1077.57
  0
LINE
  8
0
 10
64.2974
 20
-1077.57
 11
64.2038
 21
-1077.36
  0
LINE
  8
0
 10
64.2038
 20
-1077.36
 11
64.156
 21
-1077.14
  0
LINE
  8
0
 10
64.156
 20
-1077.14
 11
64.156
 21
-1076.91
  0
LINE
  8
0
 10
64.156
 20
-1076.91
 11
64.2038
 21
-1076.68
  0
LINE
  8
0
 10
64.2038
 20
-1076.68
 11
64.2974
 21
-1076.47
  0
LINE
  8
0
 10
64.2974
 20
-1076.47
 11
64.4325
 21
-1076.28
  0
LINE
  8
0
 10
64.4325
 20
-1076.28
 11
64.6034
 21
-1076.13
  0
LINE
  8
0
 10
64.6034
 20
-1076.13
 11
64.8026
 21
-1076.02
  0
LINE
  8
0
 10
64.8026
 20
-1076.02
 11
65.0213
 21
-1075.94
  0
LINE
  8
0
 10
65.0213
 20
-1075.94
 11
65.25
 21
-1075.92
  0
LINE
  8
0
 10
65.25
 20
-1075.92
 11
65.4787
 21
-1075.94
  0
LINE
  8
0
 10
65.4787
 20
-1075.94
 11
65.6974
 21
-1076.02
  0
LINE
  8
0
 10
65.6974
 20
-1076.02
 11
65.8966
 21
-1076.13
  0
LINE
  8
0
 10
65.8966
 20
-1076.13
 11
66.0675
 21
-1076.28
  0
LINE
  8
0
 10
66.0675
 20
-1076.28
 11
66.2026
 21
-1076.47
  0
LINE
  8
0
 10
66.2026
 20
-1076.47
 11
66.2962
 21
-1076.68
  0
LINE
  8
0
 10
66.2962
 20
-1076.68
 11
66.344
 21
-1076.91
  0
LINE
  8
0
 10
66.344
 20
-1076.91
 11
66.344
 21
-1077.14
  0
LINE
  8
0
 10
66.344
 20
-1077.14
 11
66.2962
 21
-1077.36
  0
LINE
  8
0
 10
66.2962
 20
-1077.36
 11
66.2026
 21
-1077.57
  0
LINE
  8
0
 10
66.2026
 20
-1077.57
 11
66.0675
 21
-1077.76
  0
LINE
  8
0
 10
66.0675
 20
-1077.76
 11
65.8966
 21
-1077.91
  0
LINE
  8
0
 10
65.8966
 20
-1077.91
 11
65.6974
 21
-1078.02
  0
LINE
  8
0
 10
65.6974
 20
-1078.02
 11
65.4787
 21
-1078.1
  0
LINE
  8
0
 10
65.4787
 20
-1078.1
 11
65.25
 21
-1078.12
  0
LINE
  8
0
 10
65.25
 20
-1078.12
 11
65.0213
 21
-1078.1
  0
LINE
  8
0
 10
-57.4787
 20
-1078.1
 11
-57.6974
 21
-1078.02
  0
LINE
  8
0
 10
-57.6974
 20
-1078.02
 11
-57.8966
 21
-1077.91
  0
LINE
  8
0
 10
-57.8966
 20
-1077.91
 11
-58.0675
 21
-1077.76
  0
LINE
  8
0
 10
-58.0675
 20
-1077.76
 11
-58.2026
 21
-1077.57
  0
LINE
  8
0
 10
-58.2026
 20
-1077.57
 11
-58.2962
 21
-1077.36
  0
LINE
  8
0
 10
-58.2962
 20
-1077.36
 11
-58.344
 21
-1077.14
  0
LINE
  8
0
 10
-58.344
 20
-1077.14
 11
-58.344
 21
-1076.91
  0
LINE
  8
0
 10
-58.344
 20
-1076.91
 11
-58.2962
 21
-1076.68
  0
LINE
  8
0
 10
-58.2962
 20
-1076.68
 11
-58.2026
 21
-1076.47
  0
LINE
  8
0
 10
-58.2026
 20
-1076.47
 11
-58.0675
 21
-1076.28
  0
LINE
  8
0
 10
-58.0675
 20
-1076.28
 11
-57.8966
 21
-1076.13
  0
LINE
  8
0
 10
-57.8966
 20
-1076.13
 11
-57.6974
 21
-1076.02
  0
LINE
  8
0
 10
-57.6974
 20
-1076.02
 11
-57.4787
 21
-1075.94
  0
LINE
  8
0
 10
-57.4787
 20
-1075.94
 11
-57.25
 21
-1075.92
  0
LINE
  8
0
 10
-57.25
 20
-1075.92
 11
-57.0213
 21
-1075.94
  0
LINE
  8
0
 10
-57.0213
 20
-1075.94
 11
-56.8026
 21
-1076.02
  0
LINE
  8
0
 10
-56.8026
 20
-1076.02
 11
-56.6034
 21
-1076.13
  0
LINE
  8
0
 10
-56.6034
 20
-1076.13
 11
-56.4325
 21
-1076.28
  0
LINE
  8
0
 10
-56.4325
 20
-1076.28
 11
-56.2974
 21
-1076.47
  0
LINE
  8
0
 10
-56.2974
 20
-1076.47
 11
-56.2038
 21
-1076.68
  0
LINE
  8
0
 10
-56.2038
 20
-1076.68
 11
-56.156
 21
-1076.91
  0
LINE
  8
0
 10
-56.156
 20
-1076.91
 11
-56.156
 21
-1077.14
  0
LINE
  8
0
 10
-56.156
 20
-1077.14
 11
-56.2038
 21
-1077.36
  0
LINE
  8
0
 10
-56.2038
 20
-1077.36
 11
-56.2974
 21
-1077.57
  0
LINE
  8
0
 10
-56.2974
 20
-1077.57
 11
-56.4325
 21
-1077.76
  0
LINE
  8
0
 10
-56.4325
 20
-1077.76
 11
-56.6034
 21
-1077.91
  0
LINE
  8
0
 10
-56.6034
 20
-1077.91
 11
-56.8026
 21
-1078.02
  0
LINE
  8
0
 10
-56.8026
 20
-1078.02
 11
-57.0213
 21
-1078.1
  0
LINE
  8
0
 10
-57.0213
 20
-1078.1
 11
-57.25
 21
-1078.12
  0
LINE
  8
0
 10
-57.25
 20
-1078.12
 11
-57.4787
 21
-1078.1
  0
LINE
  8
0
 10
65.0213
 20
-1083.18
 11
64.8026
 21
-1083.1
  0
LINE
  8
0
 10
64.8026
 20
-1083.1
 11
64.6034
 21
-1082.99
  0
LINE
  8
0
 10
64.6034
 20
-1082.99
 11
64.4325
 21
-1082.84
  0
LINE
  8
0
 10
64.4325
 20
-1082.84
 11
64.2974
 21
-1082.65
  0
LINE
  8
0
 10
64.2974
 20
-1082.65
 11
64.2038
 21
-1082.44
  0
LINE
  8
0
 10
64.2038
 20
-1082.44
 11
64.156
 21
-1082.21
  0
LINE
  8
0
 10
64.156
 20
-1082.21
 11
64.156
 21
-1081.98
  0
LINE
  8
0
 10
64.156
 20
-1081.98
 11
64.2038
 21
-1081.76
  0
LINE
  8
0
 10
64.2038
 20
-1081.76
 11
64.2974
 21
-1081.55
  0
LINE
  8
0
 10
64.2974
 20
-1081.55
 11
64.4325
 21
-1081.36
  0
LINE
  8
0
 10
64.4325
 20
-1081.36
 11
64.6034
 21
-1081.21
  0
LINE
  8
0
 10
64.6034
 20
-1081.21
 11
64.8026
 21
-1081.1
  0
LINE
  8
0
 10
64.8026
 20
-1081.1
 11
65.0213
 21
-1081.02
  0
LINE
  8
0
 10
65.0213
 20
-1081.02
 11
65.25
 21
-1081
  0
LINE
  8
0
 10
65.25
 20
-1081
 11
65.4787
 21
-1081.02
  0
LINE
  8
0
 10
65.4787
 20
-1081.02
 11
65.6974
 21
-1081.1
  0
LINE
  8
0
 10
65.6974
 20
-1081.1
 11
65.8966
 21
-1081.21
  0
LINE
  8
0
 10
65.8966
 20
-1081.21
 11
66.0675
 21
-1081.36
  0
LINE
  8
0
 10
66.0675
 20
-1081.36
 11
66.2026
 21
-1081.55
  0
LINE
  8
0
 10
66.2026
 20
-1081.55
 11
66.2962
 21
-1081.76
  0
LINE
  8
0
 10
66.2962
 20
-1081.76
 11
66.344
 21
-1081.98
  0
LINE
  8
0
 10
66.344
 20
-1081.98
 11
66.344
 21
-1082.21
  0
LINE
  8
0
 10
66.344
 20
-1082.21
 11
66.2962
 21
-1082.44
  0
LINE
  8
0
 10
66.2962
 20
-1082.44
 11
66.2026
 21
-1082.65
  0
LINE
  8
0
 10
66.2026
 20
-1082.65
 11
66.0675
 21
-1082.84
  0
LINE
  8
0
 10
66.0675
 20
-1082.84
 11
65.8966
 21
-1082.99
  0
LINE
  8
0
 10
65.8966
 20
-1082.99
 11
65.6974
 21
-1083.1
  0
LINE
  8
0
 10
65.6974
 20
-1083.1
 11
65.4787
 21
-1083.18
  0
LINE
  8
0
 10
65.4787
 20
-1083.18
 11
65.25
 21
-1083.2
  0
LINE
  8
0
 10
65.25
 20
-1083.2
 11
65.0213
 21
-1083.18
  0
LINE
  8
0
 10
-57.4787
 20
-1083.18
 11
-57.6974
 21
-1083.1
  0
LINE
  8
0
 10
-57.6974
 20
-1083.1
 11
-57.8966
 21
-1082.99
  0
LINE
  8
0
 10
-57.8966
 20
-1082.99
 11
-58.0675
 21
-1082.84
  0
LINE
  8
0
 10
-58.0675
 20
-1082.84
 11
-58.2026
 21
-1082.65
  0
LINE
  8
0
 10
-58.2026
 20
-1082.65
 11
-58.2962
 21
-1082.44
  0
LINE
  8
0
 10
-58.2962
 20
-1082.44
 11
-58.344
 21
-1082.21
  0
LINE
  8
0
 10
-58.344
 20
-1082.21
 11
-58.344
 21
-1081.98
  0
LINE
  8
0
 10
-58.344
 20
-1081.98
 11
-58.2962
 21
-1081.76
  0
LINE
  8
0
 10
-58.2962
 20
-1081.76
 11
-58.2026
 21
-1081.55
  0
LINE
  8
0
 10
-58.2026
 20
-1081.55
 11
-58.0675
 21
-1081.36
  0
LINE
  8
0
 10
-58.0675
 20
-1081.36
 11
-57.8966
 21
-1081.21
  0
LINE
  8
0
 10
-57.8966
 20
-1081.21
 11
-57.6974
 21
-1081.1
  0
LINE
  8
0
 10
-57.6974
 20
-1081.1
 11
-57.4787
 21
-1081.02
  0
LINE
  8
0
 10
-57.4787
 20
-1081.02
 11
-57.25
 21
-1081
  0
LINE
  8
0
 10
-57.25
 20
-1081
 11
-57.0213
 21
-1081.02
  0
LINE
  8
0
 10
-57.0213
 20
-1081.02
 11
-56.8026
 21
-1081.1
  0
LINE
  8
0
 10
-56.8026
 20
-1081.1
 11
-56.6034
 21
-1081.21
  0
LINE
  8
0
 10
-56.6034
 20
-1081.21
 11
-56.4325
 21
-1081.36
  0
LINE
  8
0
 10
-56.4325
 20
-1081.36
 11
-56.2974
 21
-1081.55
  0
LINE
  8
0
 10
-56.2974
 20
-1081.55
 11
-56.2038
 21
-1081.76
  0
LINE
  8
0
 10
-56.2038
 20
-1081.76
 11
-56.156
 21
-1081.98
  0
LINE
  8
0
 10
-56.156
 20
-1081.98
 11
-56.156
 21
-1082.21
  0
LINE
  8
0
 10
-56.156
 20
-1082.21
 11
-56.2038
 21
-1082.44
  0
LINE
  8
0
 10
-56.2038
 20
-1082.44
 11
-56.2974
 21
-1082.65
  0
LINE
  8
0
 10
-56.2974
 20
-1082.65
 11
-56.4325
 21
-1082.84
  0
LINE
  8
0
 10
-56.4325
 20
-1082.84
 11
-56.6034
 21
-1082.99
  0
LINE
  8
0
 10
-56.6034
 20
-1082.99
 11
-56.8026
 21
-1083.1
  0
LINE
  8
0
 10
-56.8026
 20
-1083.1
 11
-57.0213
 21
-1083.18
  0
LINE
  8
0
 10
-57.0213
 20
-1083.18
 11
-57.25
 21
-1083.2
  0
LINE
  8
0
 10
-57.25
 20
-1083.2
 11
-57.4787
 21
-1083.18
  0
LINE
  8
0
 10
65.0213
 20
-1088.26
 11
64.8026
 21
-1088.18
  0
LINE
  8
0
 10
64.8026
 20
-1088.18
 11
64.6034
 21
-1088.07
  0
LINE
  8
0
 10
64.6034
 20
-1088.07
 11
64.4325
 21
-1087.92
  0
LINE
  8
0
 10
64.4325
 20
-1087.92
 11
64.2974
 21
-1087.73
  0
LINE
  8
0
 10
64.2974
 20
-1087.73
 11
64.2038
 21
-1087.52
  0
LINE
  8
0
 10
64.2038
 20
-1087.52
 11
64.156
 21
-1087.29
  0
LINE
  8
0
 10
64.156
 20
-1087.29
 11
64.156
 21
-1087.07
  0
LINE
  8
0
 10
64.156
 20
-1087.07
 11
64.2038
 21
-1086.84
  0
LINE
  8
0
 10
64.2038
 20
-1086.84
 11
64.2974
 21
-1086.63
  0
LINE
  8
0
 10
64.2974
 20
-1086.63
 11
64.4325
 21
-1086.44
  0
LINE
  8
0
 10
64.4325
 20
-1086.44
 11
64.6034
 21
-1086.29
  0
LINE
  8
0
 10
64.6034
 20
-1086.29
 11
64.8026
 21
-1086.18
  0
LINE
  8
0
 10
64.8026
 20
-1086.18
 11
65.0213
 21
-1086.1
  0
LINE
  8
0
 10
65.0213
 20
-1086.1
 11
65.25
 21
-1086.08
  0
LINE
  8
0
 10
65.25
 20
-1086.08
 11
65.4787
 21
-1086.1
  0
LINE
  8
0
 10
65.4787
 20
-1086.1
 11
65.6974
 21
-1086.18
  0
LINE
  8
0
 10
65.6974
 20
-1086.18
 11
65.8966
 21
-1086.29
  0
LINE
  8
0
 10
65.8966
 20
-1086.29
 11
66.0675
 21
-1086.44
  0
LINE
  8
0
 10
66.0675
 20
-1086.44
 11
66.2026
 21
-1086.63
  0
LINE
  8
0
 10
66.2026
 20
-1086.63
 11
66.2962
 21
-1086.84
  0
LINE
  8
0
 10
66.2962
 20
-1086.84
 11
66.344
 21
-1087.07
  0
LINE
  8
0
 10
66.344
 20
-1087.07
 11
66.344
 21
-1087.29
  0
LINE
  8
0
 10
66.344
 20
-1087.29
 11
66.2962
 21
-1087.52
  0
LINE
  8
0
 10
66.2962
 20
-1087.52
 11
66.2026
 21
-1087.73
  0
LINE
  8
0
 10
66.2026
 20
-1087.73
 11
66.0675
 21
-1087.92
  0
LINE
  8
0
 10
66.0675
 20
-1087.92
 11
65.8966
 21
-1088.07
  0
LINE
  8
0
 10
65.8966
 20
-1088.07
 11
65.6974
 21
-1088.18
  0
LINE
  8
0
 10
65.6974
 20
-1088.18
 11
65.4787
 21
-1088.26
  0
LINE
  8
0
 10
65.4787
 20
-1088.26
 11
65.25
 21
-1088.28
  0
LINE
  8
0
 10
65.25
 20
-1088.28
 11
65.0213
 21
-1088.26
  0
LINE
  8
0
 10
-57.4787
 20
-1088.26
 11
-57.6974
 21
-1088.18
  0
LINE
  8
0
 10
-57.6974
 20
-1088.18
 11
-57.8966
 21
-1088.07
  0
LINE
  8
0
 10
-57.8966
 20
-1088.07
 11
-58.0675
 21
-1087.92
  0
LINE
  8
0
 10
-58.0675
 20
-1087.92
 11
-58.2026
 21
-1087.73
  0
LINE
  8
0
 10
-58.2026
 20
-1087.73
 11
-58.2962
 21
-1087.52
  0
LINE
  8
0
 10
-58.2962
 20
-1087.52
 11
-58.344
 21
-1087.29
  0
LINE
  8
0
 10
-58.344
 20
-1087.29
 11
-58.344
 21
-1087.07
  0
LINE
  8
0
 10
-58.344
 20
-1087.07
 11
-58.2962
 21
-1086.84
  0
LINE
  8
0
 10
-58.2962
 20
-1086.84
 11
-58.2026
 21
-1086.63
  0
LINE
  8
0
 10
-58.2026
 20
-1086.63
 11
-58.0675
 21
-1086.44
  0
LINE
  8
0
 10
-58.0675
 20
-1086.44
 11
-57.8966
 21
-1086.29
  0
LINE
  8
0
 10
-57.8966
 20
-1086.29
 11
-57.6974
 21
-1086.18
  0
LINE
  8
0
 10
-57.6974
 20
-1086.18
 11
-57.4787
 21
-1086.1
  0
LINE
  8
0
 10
-57.4787
 20
-1086.1
 11
-57.25
 21
-1086.08
  0
LINE
  8
0
 10
-57.25
 20
-1086.08
 11
-57.0213
 21
-1086.1
  0
LINE
  8
0
 10
-57.0213
 20
-1086.1
 11
-56.8026
 21
-1086.18
  0
LINE
  8
0
 10
-56.8026
 20
-1086.18
 11
-56.6034
 21
-1086.29
  0
LINE
  8
0
 10
-56.6034
 20
-1086.29
 11
-56.4325
 21
-1086.44
  0
LINE
  8
0
 10
-56.4325
 20
-1086.44
 11
-56.2974
 21
-1086.63
  0
LINE
  8
0
 10
-56.2974
 20
-1086.63
 11
-56.2038
 21
-1086.84
  0
LINE
  8
0
 10
-56.2038
 20
-1086.84
 11
-56.156
 21
-1087.07
  0
LINE
  8
0
 10
-56.156
 20
-1087.07
 11
-56.156
 21
-1087.29
  0
LINE
  8
0
 10
-56.156
 20
-1087.29
 11
-56.2038
 21
-1087.52
  0
LINE
  8
0
 10
-56.2038
 20
-1087.52
 11
-56.2974
 21
-1087.73
  0
LINE
  8
0
 10
-56.2974
 20
-1087.73
 11
-56.4325
 21
-1087.92
  0
LINE
  8
0
 10
-56.4325
 20
-1087.92
 11
-56.6034
 21
-1088.07
  0
LINE
  8
0
 10
-56.6034
 20
-1088.07
 11
-56.8026
 21
-1088.18
  0
LINE
  8
0
 10
-56.8026
 20
-1088.18
 11
-57.0213
 21
-1088.26
  0
LINE
  8
0
 10
-57.0213
 20
-1088.26
 11
-57.25
 21
-1088.28
  0
LINE
  8
0
 10
-57.25
 20
-1088.28
 11
-57.4787
 21
-1088.26
  0
LINE
  8
0
 10
65.0213
 20
-1093.34
 11
64.8026
 21
-1093.26
  0
LINE
  8
0
 10
64.8026
 20
-1093.26
 11
64.6034
 21
-1093.15
  0
LINE
  8
0
 10
64.6034
 20
-1093.15
 11
64.4325
 21
-1093
  0
LINE
  8
0
 10
64.4325
 20
-1093
 11
64.2974
 21
-1092.81
  0
LINE
  8
0
 10
64.2974
 20
-1092.81
 11
64.2038
 21
-1092.6
  0
LINE
  8
0
 10
64.2038
 20
-1092.6
 11
64.156
 21
-1092.38
  0
LINE
  8
0
 10
64.156
 20
-1092.38
 11
64.156
 21
-1092.15
  0
LINE
  8
0
 10
64.156
 20
-1092.15
 11
64.2038
 21
-1091.92
  0
LINE
  8
0
 10
64.2038
 20
-1091.92
 11
64.2974
 21
-1091.71
  0
LINE
  8
0
 10
64.2974
 20
-1091.71
 11
64.4325
 21
-1091.52
  0
LINE
  8
0
 10
64.4325
 20
-1091.52
 11
64.6034
 21
-1091.37
  0
LINE
  8
0
 10
64.6034
 20
-1091.37
 11
64.8026
 21
-1091.26
  0
LINE
  8
0
 10
64.8026
 20
-1091.26
 11
65.0213
 21
-1091.18
  0
LINE
  8
0
 10
65.0213
 20
-1091.18
 11
65.25
 21
-1091.16
  0
LINE
  8
0
 10
65.25
 20
-1091.16
 11
65.4787
 21
-1091.18
  0
LINE
  8
0
 10
65.4787
 20
-1091.18
 11
65.6974
 21
-1091.26
  0
LINE
  8
0
 10
65.6974
 20
-1091.26
 11
65.8966
 21
-1091.37
  0
LINE
  8
0
 10
65.8966
 20
-1091.37
 11
66.0675
 21
-1091.52
  0
LINE
  8
0
 10
66.0675
 20
-1091.52
 11
66.2026
 21
-1091.71
  0
LINE
  8
0
 10
66.2026
 20
-1091.71
 11
66.2962
 21
-1091.92
  0
LINE
  8
0
 10
66.2962
 20
-1091.92
 11
66.344
 21
-1092.15
  0
LINE
  8
0
 10
66.344
 20
-1092.15
 11
66.344
 21
-1092.38
  0
LINE
  8
0
 10
66.344
 20
-1092.38
 11
66.2962
 21
-1092.6
  0
LINE
  8
0
 10
66.2962
 20
-1092.6
 11
66.2026
 21
-1092.81
  0
LINE
  8
0
 10
66.2026
 20
-1092.81
 11
66.0675
 21
-1093
  0
LINE
  8
0
 10
66.0675
 20
-1093
 11
65.8966
 21
-1093.15
  0
LINE
  8
0
 10
65.8966
 20
-1093.15
 11
65.6974
 21
-1093.26
  0
LINE
  8
0
 10
65.6974
 20
-1093.26
 11
65.4787
 21
-1093.34
  0
LINE
  8
0
 10
65.4787
 20
-1093.34
 11
65.25
 21
-1093.36
  0
LINE
  8
0
 10
65.25
 20
-1093.36
 11
65.0213
 21
-1093.34
  0
LINE
  8
0
 10
-57.4787
 20
-1093.34
 11
-57.6974
 21
-1093.26
  0
LINE
  8
0
 10
-57.6974
 20
-1093.26
 11
-57.8966
 21
-1093.15
  0
LINE
  8
0
 10
-57.8966
 20
-1093.15
 11
-58.0675
 21
-1093
  0
LINE
  8
0
 10
-58.0675
 20
-1093
 11
-58.2026
 21
-1092.81
  0
LINE
  8
0
 10
-58.2026
 20
-1092.81
 11
-58.2962
 21
-1092.6
  0
LINE
  8
0
 10
-58.2962
 20
-1092.6
 11
-58.344
 21
-1092.38
  0
LINE
  8
0
 10
-58.344
 20
-1092.38
 11
-58.344
 21
-1092.15
  0
LINE
  8
0
 10
-58.344
 20
-1092.15
 11
-58.2962
 21
-1091.92
  0
LINE
  8
0
 10
-58.2962
 20
-1091.92
 11
-58.2026
 21
-1091.71
  0
LINE
  8
0
 10
-58.2026
 20
-1091.71
 11
-58.0675
 21
-1091.52
  0
LINE
  8
0
 10
-58.0675
 20
-1091.52
 11
-57.8966
 21
-1091.37
  0
LINE
  8
0
 10
-57.8966
 20
-1091.37
 11
-57.6974
 21
-1091.26
  0
LINE
  8
0
 10
-57.6974
 20
-1091.26
 11
-57.4787
 21
-1091.18
  0
LINE
  8
0
 10
-57.4787
 20
-1091.18
 11
-57.25
 21
-1091.16
  0
LINE
  8
0
 10
-57.25
 20
-1091.16
 11
-57.0213
 21
-1091.18
  0
LINE
  8
0
 10
-57.0213
 20
-1091.18
 11
-56.8026
 21
-1091.26
  0
LINE
  8
0
 10
-56.8026
 20
-1091.26
 11
-56.6034
 21
-1091.37
  0
LINE
  8
0
 10
-56.6034
 20
-1091.37
 11
-56.4325
 21
-1091.52
  0
LINE
  8
0
 10
-56.4325
 20
-1091.52
 11
-56.2974
 21
-1091.71
  0
LINE
  8
0
 10
-56.2974
 20
-1091.71
 11
-56.2038
 21
-1091.92
  0
LINE
  8
0
 10
-56.2038
 20
-1091.92
 11
-56.156
 21
-1092.15
  0
LINE
  8
0
 10
-56.156
 20
-1092.15
 11
-56.156
 21
-1092.38
  0
LINE
  8
0
 10
-56.156
 20
-1092.38
 11
-56.2038
 21
-1092.6
  0
LINE
  8
0
 10
-56.2038
 20
-1092.6
 11
-56.2974
 21
-1092.81
  0
LINE
  8
0
 10
-56.2974
 20
-1092.81
 11
-56.4325
 21
-1093
  0
LINE
  8
0
 10
-56.4325
 20
-1093
 11
-56.6034
 21
-1093.15
  0
LINE
  8
0
 10
-56.6034
 20
-1093.15
 11
-56.8026
 21
-1093.26
  0
LINE
  8
0
 10
-56.8026
 20
-1093.26
 11
-57.0213
 21
-1093.34
  0
LINE
  8
0
 10
-57.0213
 20
-1093.34
 11
-57.25
 21
-1093.36
  0
LINE
  8
0
 10
-57.25
 20
-1093.36
 11
-57.4787
 21
-1093.34
  0
LINE
  8
0
 10
-57.4787
 20
-1098.42
 11
-57.6974
 21
-1098.34
  0
LINE
  8
0
 10
-57.6974
 20
-1098.34
 11
-57.8966
 21
-1098.23
  0
LINE
  8
0
 10
-57.8966
 20
-1098.23
 11
-58.0675
 21
-1098.08
  0
LINE
  8
0
 10
-58.0675
 20
-1098.08
 11
-58.2026
 21
-1097.89
  0
LINE
  8
0
 10
-58.2026
 20
-1097.89
 11
-58.2962
 21
-1097.68
  0
LINE
  8
0
 10
-58.2962
 20
-1097.68
 11
-58.344
 21
-1097.45
  0
LINE
  8
0
 10
-58.344
 20
-1097.45
 11
-58.344
 21
-1097.22
  0
LINE
  8
0
 10
-58.344
 20
-1097.22
 11
-58.2962
 21
-1097
  0
LINE
  8
0
 10
-58.2962
 20
-1097
 11
-58.2026
 21
-1096.79
  0
LINE
  8
0
 10
-58.2026
 20
-1096.79
 11
-58.0675
 21
-1096.6
  0
LINE
  8
0
 10
-58.0675
 20
-1096.6
 11
-57.8966
 21
-1096.45
  0
LINE
  8
0
 10
-57.8966
 20
-1096.45
 11
-57.6974
 21
-1096.34
  0
LINE
  8
0
 10
-57.6974
 20
-1096.34
 11
-57.4787
 21
-1096.26
  0
LINE
  8
0
 10
-57.4787
 20
-1096.26
 11
-57.25
 21
-1096.24
  0
LINE
  8
0
 10
-57.25
 20
-1096.24
 11
-57.0213
 21
-1096.26
  0
LINE
  8
0
 10
-57.0213
 20
-1096.26
 11
-56.8026
 21
-1096.34
  0
LINE
  8
0
 10
-56.8026
 20
-1096.34
 11
-56.6034
 21
-1096.45
  0
LINE
  8
0
 10
-56.6034
 20
-1096.45
 11
-56.4325
 21
-1096.6
  0
LINE
  8
0
 10
-56.4325
 20
-1096.6
 11
-56.2974
 21
-1096.79
  0
LINE
  8
0
 10
-56.2974
 20
-1096.79
 11
-56.2038
 21
-1097
  0
LINE
  8
0
 10
-56.2038
 20
-1097
 11
-56.156
 21
-1097.22
  0
LINE
  8
0
 10
-56.156
 20
-1097.22
 11
-56.156
 21
-1097.45
  0
LINE
  8
0
 10
-56.156
 20
-1097.45
 11
-56.2038
 21
-1097.68
  0
LINE
  8
0
 10
-56.2038
 20
-1097.68
 11
-56.2974
 21
-1097.89
  0
LINE
  8
0
 10
-56.2974
 20
-1097.89
 11
-56.4325
 21
-1098.08
  0
LINE
  8
0
 10
-56.4325
 20
-1098.08
 11
-56.6034
 21
-1098.23
  0
LINE
  8
0
 10
-56.6034
 20
-1098.23
 11
-56.8026
 21
-1098.34
  0
LINE
  8
0
 10
-56.8026
 20
-1098.34
 11
-57.0213
 21
-1098.42
  0
LINE
  8
0
 10
-57.0213
 20
-1098.42
 11
-57.25
 21
-1098.44
  0
LINE
  8
0
 10
-57.25
 20
-1098.44
 11
-57.4787
 21
-1098.42
  0
LINE
  8
0
 10
65.0213
 20
-1098.42
 11
64.8026
 21
-1098.34
  0
LINE
  8
0
 10
64.8026
 20
-1098.34
 11
64.6034
 21
-1098.23
  0
LINE
  8
0
 10
64.6034
 20
-1098.23
 11
64.4325
 21
-1098.08
  0
LINE
  8
0
 10
64.4325
 20
-1098.08
 11
64.2974
 21
-1097.89
  0
LINE
  8
0
 10
64.2974
 20
-1097.89
 11
64.2038
 21
-1097.68
  0
LINE
  8
0
 10
64.2038
 20
-1097.68
 11
64.156
 21
-1097.45
  0
LINE
  8
0
 10
64.156
 20
-1097.45
 11
64.156
 21
-1097.22
  0
LINE
  8
0
 10
64.156
 20
-1097.22
 11
64.2038
 21
-1097
  0
LINE
  8
0
 10
64.2038
 20
-1097
 11
64.2974
 21
-1096.79
  0
LINE
  8
0
 10
64.2974
 20
-1096.79
 11
64.4325
 21
-1096.6
  0
LINE
  8
0
 10
64.4325
 20
-1096.6
 11
64.6034
 21
-1096.45
  0
LINE
  8
0
 10
64.6034
 20
-1096.45
 11
64.8026
 21
-1096.34
  0
LINE
  8
0
 10
64.8026
 20
-1096.34
 11
65.0213
 21
-1096.26
  0
LINE
  8
0
 10
65.0213
 20
-1096.26
 11
65.25
 21
-1096.24
  0
LINE
  8
0
 10
65.25
 20
-1096.24
 11
65.4787
 21
-1096.26
  0
LINE
  8
0
 10
65.4787
 20
-1096.26
 11
65.6974
 21
-1096.34
  0
LINE
  8
0
 10
65.6974
 20
-1096.34
 11
65.8966
 21
-1096.45
  0
LINE
  8
0
 10
65.8966
 20
-1096.45
 11
66.0675
 21
-1096.6
  0
LINE
  8
0
 10
66.0675
 20
-1096.6
 11
66.2026
 21
-1096.79
  0
LINE
  8
0
 10
66.2026
 20
-1096.79
 11
66.2962
 21
-1097
  0
LINE
  8
0
 10
66.2962
 20
-1097
 11
66.344
 21
-1097.22
  0
LINE
  8
0
 10
66.344
 20
-1097.22
 11
66.344
 21
-1097.45
  0
LINE
  8
0
 10
66.344
 20
-1097.45
 11
66.2962
 21
-1097.68
  0
LINE
  8
0
 10
66.2962
 20
-1097.68
 11
66.2026
 21
-1097.89
  0
LINE
  8
0
 10
66.2026
 20
-1097.89
 11
66.0675
 21
-1098.08
  0
LINE
  8
0
 10
66.0675
 20
-1098.08
 11
65.8966
 21
-1098.23
  0
LINE
  8
0
 10
65.8966
 20
-1098.23
 11
65.6974
 21
-1098.34
  0
LINE
  8
0
 10
65.6974
 20
-1098.34
 11
65.4787
 21
-1098.42
  0
LINE
  8
0
 10
65.4787
 20
-1098.42
 11
65.25
 21
-1098.44
  0
LINE
  8
0
 10
65.25
 20
-1098.44
 11
65.0213
 21
-1098.42
  0
LINE
  8
0
 10
-57.4787
 20
-1103.5
 11
-57.6974
 21
-1103.42
  0
LINE
  8
0
 10
-57.6974
 20
-1103.42
 11
-57.8966
 21
-1103.31
  0
LINE
  8
0
 10
-57.8966
 20
-1103.31
 11
-58.0675
 21
-1103.16
  0
LINE
  8
0
 10
-58.0675
 20
-1103.16
 11
-58.2026
 21
-1102.97
  0
LINE
  8
0
 10
-58.2026
 20
-1102.97
 11
-58.2962
 21
-1102.76
  0
LINE
  8
0
 10
-58.2962
 20
-1102.76
 11
-58.344
 21
-1102.54
  0
LINE
  8
0
 10
-58.344
 20
-1102.54
 11
-58.344
 21
-1102.31
  0
LINE
  8
0
 10
-58.344
 20
-1102.31
 11
-58.2962
 21
-1102.08
  0
LINE
  8
0
 10
-58.2962
 20
-1102.08
 11
-58.2026
 21
-1101.87
  0
LINE
  8
0
 10
-58.2026
 20
-1101.87
 11
-58.0675
 21
-1101.68
  0
LINE
  8
0
 10
-58.0675
 20
-1101.68
 11
-57.8966
 21
-1101.53
  0
LINE
  8
0
 10
-57.8966
 20
-1101.53
 11
-57.6974
 21
-1101.42
  0
LINE
  8
0
 10
-57.6974
 20
-1101.42
 11
-57.4787
 21
-1101.34
  0
LINE
  8
0
 10
-57.4787
 20
-1101.34
 11
-57.25
 21
-1101.32
  0
LINE
  8
0
 10
-57.25
 20
-1101.32
 11
-57.0213
 21
-1101.34
  0
LINE
  8
0
 10
-57.0213
 20
-1101.34
 11
-56.8026
 21
-1101.42
  0
LINE
  8
0
 10
-56.8026
 20
-1101.42
 11
-56.6034
 21
-1101.53
  0
LINE
  8
0
 10
-56.6034
 20
-1101.53
 11
-56.4325
 21
-1101.68
  0
LINE
  8
0
 10
-56.4325
 20
-1101.68
 11
-56.2974
 21
-1101.87
  0
LINE
  8
0
 10
-56.2974
 20
-1101.87
 11
-56.2038
 21
-1102.08
  0
LINE
  8
0
 10
-56.2038
 20
-1102.08
 11
-56.156
 21
-1102.31
  0
LINE
  8
0
 10
-56.156
 20
-1102.31
 11
-56.156
 21
-1102.54
  0
LINE
  8
0
 10
-56.156
 20
-1102.54
 11
-56.2038
 21
-1102.76
  0
LINE
  8
0
 10
-56.2038
 20
-1102.76
 11
-56.2974
 21
-1102.97
  0
LINE
  8
0
 10
-56.2974
 20
-1102.97
 11
-56.4325
 21
-1103.16
  0
LINE
  8
0
 10
-56.4325
 20
-1103.16
 11
-56.6034
 21
-1103.31
  0
LINE
  8
0
 10
-56.6034
 20
-1103.31
 11
-56.8026
 21
-1103.42
  0
LINE
  8
0
 10
-56.8026
 20
-1103.42
 11
-57.0213
 21
-1103.5
  0
LINE
  8
0
 10
-57.0213
 20
-1103.5
 11
-57.25
 21
-1103.52
  0
LINE
  8
0
 10
-57.25
 20
-1103.52
 11
-57.4787
 21
-1103.5
  0
LINE
  8
0
 10
65.0213
 20
-1103.5
 11
64.8026
 21
-1103.42
  0
LINE
  8
0
 10
64.8026
 20
-1103.42
 11
64.6034
 21
-1103.31
  0
LINE
  8
0
 10
64.6034
 20
-1103.31
 11
64.4325
 21
-1103.16
  0
LINE
  8
0
 10
64.4325
 20
-1103.16
 11
64.2974
 21
-1102.97
  0
LINE
  8
0
 10
64.2974
 20
-1102.97
 11
64.2038
 21
-1102.76
  0
LINE
  8
0
 10
64.2038
 20
-1102.76
 11
64.156
 21
-1102.54
  0
LINE
  8
0
 10
64.156
 20
-1102.54
 11
64.156
 21
-1102.31
  0
LINE
  8
0
 10
64.156
 20
-1102.31
 11
64.2038
 21
-1102.08
  0
LINE
  8
0
 10
64.2038
 20
-1102.08
 11
64.2974
 21
-1101.87
  0
LINE
  8
0
 10
64.2974
 20
-1101.87
 11
64.4325
 21
-1101.68
  0
LINE
  8
0
 10
64.4325
 20
-1101.68
 11
64.6034
 21
-1101.53
  0
LINE
  8
0
 10
64.6034
 20
-1101.53
 11
64.8026
 21
-1101.42
  0
LINE
  8
0
 10
64.8026
 20
-1101.42
 11
65.0213
 21
-1101.34
  0
LINE
  8
0
 10
65.0213
 20
-1101.34
 11
65.25
 21
-1101.32
  0
LINE
  8
0
 10
65.25
 20
-1101.32
 11
65.4787
 21
-1101.34
  0
LINE
  8
0
 10
65.4787
 20
-1101.34
 11
65.6974
 21
-1101.42
  0
LINE
  8
0
 10
65.6974
 20
-1101.42
 11
65.8966
 21
-1101.53
  0
LINE
  8
0
 10
65.8966
 20
-1101.53
 11
66.0675
 21
-1101.68
  0
LINE
  8
0
 10
66.0675
 20
-1101.68
 11
66.2026
 21
-1101.87
  0
LINE
  8
0
 10
66.2026
 20
-1101.87
 11
66.2962
 21
-1102.08
  0
LINE
  8
0
 10
66.2962
 20
-1102.08
 11
66.344
 21
-1102.31
  0
LINE
  8
0
 10
66.344
 20
-1102.31
 11
66.344
 21
-1102.54
  0
LINE
  8
0
 10
66.344
 20
-1102.54
 11
66.2962
 21
-1102.76
  0
LINE
  8
0
 10
66.2962
 20
-1102.76
 11
66.2026
 21
-1102.97
  0
LINE
  8
0
 10
66.2026
 20
-1102.97
 11
66.0675
 21
-1103.16
  0
LINE
  8
0
 10
66.0675
 20
-1103.16
 11
65.8966
 21
-1103.31
  0
LINE
  8
0
 10
65.8966
 20
-1103.31
 11
65.6974
 21
-1103.42
  0
LINE
  8
0
 10
65.6974
 20
-1103.42
 11
65.4787
 21
-1103.5
  0
LINE
  8
0
 10
65.4787
 20
-1103.5
 11
65.25
 21
-1103.52
  0
LINE
  8
0
 10
65.25
 20
-1103.52
 11
65.0213
 21
-1103.5
  0
LINE
  8
0
 10
65.0213
 20
-1108.58
 11
64.8026
 21
-1108.5
  0
LINE
  8
0
 10
64.8026
 20
-1108.5
 11
64.6034
 21
-1108.39
  0
LINE
  8
0
 10
64.6034
 20
-1108.39
 11
64.4325
 21
-1108.24
  0
LINE
  8
0
 10
64.4325
 20
-1108.24
 11
64.2974
 21
-1108.05
  0
LINE
  8
0
 10
64.2974
 20
-1108.05
 11
64.2038
 21
-1107.84
  0
LINE
  8
0
 10
64.2038
 20
-1107.84
 11
64.156
 21
-1107.61
  0
LINE
  8
0
 10
64.156
 20
-1107.61
 11
64.156
 21
-1107.39
  0
LINE
  8
0
 10
64.156
 20
-1107.39
 11
64.2038
 21
-1107.16
  0
LINE
  8
0
 10
64.2038
 20
-1107.16
 11
64.2974
 21
-1106.95
  0
LINE
  8
0
 10
64.2974
 20
-1106.95
 11
64.4325
 21
-1106.76
  0
LINE
  8
0
 10
64.4325
 20
-1106.76
 11
64.6034
 21
-1106.61
  0
LINE
  8
0
 10
64.6034
 20
-1106.61
 11
64.8026
 21
-1106.5
  0
LINE
  8
0
 10
64.8026
 20
-1106.5
 11
65.0213
 21
-1106.42
  0
LINE
  8
0
 10
65.0213
 20
-1106.42
 11
65.25
 21
-1106.4
  0
LINE
  8
0
 10
65.25
 20
-1106.4
 11
65.4787
 21
-1106.42
  0
LINE
  8
0
 10
65.4787
 20
-1106.42
 11
65.6974
 21
-1106.5
  0
LINE
  8
0
 10
65.6974
 20
-1106.5
 11
65.8966
 21
-1106.61
  0
LINE
  8
0
 10
65.8966
 20
-1106.61
 11
66.0675
 21
-1106.76
  0
LINE
  8
0
 10
66.0675
 20
-1106.76
 11
66.2026
 21
-1106.95
  0
LINE
  8
0
 10
66.2026
 20
-1106.95
 11
66.2962
 21
-1107.16
  0
LINE
  8
0
 10
66.2962
 20
-1107.16
 11
66.344
 21
-1107.39
  0
LINE
  8
0
 10
66.344
 20
-1107.39
 11
66.344
 21
-1107.61
  0
LINE
  8
0
 10
66.344
 20
-1107.61
 11
66.2962
 21
-1107.84
  0
LINE
  8
0
 10
66.2962
 20
-1107.84
 11
66.2026
 21
-1108.05
  0
LINE
  8
0
 10
66.2026
 20
-1108.05
 11
66.0675
 21
-1108.24
  0
LINE
  8
0
 10
66.0675
 20
-1108.24
 11
65.8966
 21
-1108.39
  0
LINE
  8
0
 10
65.8966
 20
-1108.39
 11
65.6974
 21
-1108.5
  0
LINE
  8
0
 10
65.6974
 20
-1108.5
 11
65.4787
 21
-1108.58
  0
LINE
  8
0
 10
65.4787
 20
-1108.58
 11
65.25
 21
-1108.6
  0
LINE
  8
0
 10
65.25
 20
-1108.6
 11
65.0213
 21
-1108.58
  0
LINE
  8
0
 10
-57.4787
 20
-1108.58
 11
-57.6974
 21
-1108.5
  0
LINE
  8
0
 10
-57.6974
 20
-1108.5
 11
-57.8966
 21
-1108.39
  0
LINE
  8
0
 10
-57.8966
 20
-1108.39
 11
-58.0675
 21
-1108.24
  0
LINE
  8
0
 10
-58.0675
 20
-1108.24
 11
-58.2026
 21
-1108.05
  0
LINE
  8
0
 10
-58.2026
 20
-1108.05
 11
-58.2962
 21
-1107.84
  0
LINE
  8
0
 10
-58.2962
 20
-1107.84
 11
-58.344
 21
-1107.61
  0
LINE
  8
0
 10
-58.344
 20
-1107.61
 11
-58.344
 21
-1107.39
  0
LINE
  8
0
 10
-58.344
 20
-1107.39
 11
-58.2962
 21
-1107.16
  0
LINE
  8
0
 10
-58.2962
 20
-1107.16
 11
-58.2026
 21
-1106.95
  0
LINE
  8
0
 10
-58.2026
 20
-1106.95
 11
-58.0675
 21
-1106.76
  0
LINE
  8
0
 10
-58.0675
 20
-1106.76
 11
-57.8966
 21
-1106.61
  0
LINE
  8
0
 10
-57.8966
 20
-1106.61
 11
-57.6974
 21
-1106.5
  0
LINE
  8
0
 10
-57.6974
 20
-1106.5
 11
-57.4787
 21
-1106.42
  0
LINE
  8
0
 10
-57.4787
 20
-1106.42
 11
-57.25
 21
-1106.4
  0
LINE
  8
0
 10
-57.25
 20
-1106.4
 11
-57.0213
 21
-1106.42
  0
LINE
  8
0
 10
-57.0213
 20
-1106.42
 11
-56.8026
 21
-1106.5
  0
LINE
  8
0
 10
-56.8026
 20
-1106.5
 11
-56.6034
 21
-1106.61
  0
LINE
  8
0
 10
-56.6034
 20
-1106.61
 11
-56.4325
 21
-1106.76
  0
LINE
  8
0
 10
-56.4325
 20
-1106.76
 11
-56.2974
 21
-1106.95
  0
LINE
  8
0
 10
-56.2974
 20
-1106.95
 11
-56.2038
 21
-1107.16
  0
LINE
  8
0
 10
-56.2038
 20
-1107.16
 11
-56.156
 21
-1107.39
  0
LINE
  8
0
 10
-56.156
 20
-1107.39
 11
-56.156
 21
-1107.61
  0
LINE
  8
0
 10
-56.156
 20
-1107.61
 11
-56.2038
 21
-1107.84
  0
LINE
  8
0
 10
-56.2038
 20
-1107.84
 11
-56.2974
 21
-1108.05
  0
LINE
  8
0
 10
-56.2974
 20
-1108.05
 11
-56.4325
 21
-1108.24
  0
LINE
  8
0
 10
-56.4325
 20
-1108.24
 11
-56.6034
 21
-1108.39
  0
LINE
  8
0
 10
-56.6034
 20
-1108.39
 11
-56.8026
 21
-1108.5
  0
LINE
  8
0
 10
-56.8026
 20
-1108.5
 11
-57.0213
 21
-1108.58
  0
LINE
  8
0
 10
-57.0213
 20
-1108.58
 11
-57.25
 21
-1108.6
  0
LINE
  8
0
 10
-57.25
 20
-1108.6
 11
-57.4787
 21
-1108.58
  0
LINE
  8
0
 10
-57.4787
 20
-1113.66
 11
-57.6974
 21
-1113.58
  0
LINE
  8
0
 10
-57.6974
 20
-1113.58
 11
-57.8966
 21
-1113.47
  0
LINE
  8
0
 10
-57.8966
 20
-1113.47
 11
-58.0675
 21
-1113.32
  0
LINE
  8
0
 10
-58.0675
 20
-1113.32
 11
-58.2026
 21
-1113.13
  0
LINE
  8
0
 10
-58.2026
 20
-1113.13
 11
-58.2962
 21
-1112.92
  0
LINE
  8
0
 10
-58.2962
 20
-1112.92
 11
-58.344
 21
-1112.69
  0
LINE
  8
0
 10
-58.344
 20
-1112.69
 11
-58.344
 21
-1112.46
  0
LINE
  8
0
 10
-58.344
 20
-1112.46
 11
-58.2962
 21
-1112.24
  0
LINE
  8
0
 10
-58.2962
 20
-1112.24
 11
-58.2026
 21
-1112.03
  0
LINE
  8
0
 10
-58.2026
 20
-1112.03
 11
-58.0675
 21
-1111.84
  0
LINE
  8
0
 10
-58.0675
 20
-1111.84
 11
-57.8966
 21
-1111.69
  0
LINE
  8
0
 10
-57.8966
 20
-1111.69
 11
-57.6974
 21
-1111.58
  0
LINE
  8
0
 10
-57.6974
 20
-1111.58
 11
-57.4787
 21
-1111.5
  0
LINE
  8
0
 10
-57.4787
 20
-1111.5
 11
-57.25
 21
-1111.48
  0
LINE
  8
0
 10
-57.25
 20
-1111.48
 11
-57.0213
 21
-1111.5
  0
LINE
  8
0
 10
-57.0213
 20
-1111.5
 11
-56.8026
 21
-1111.58
  0
LINE
  8
0
 10
-56.8026
 20
-1111.58
 11
-56.6034
 21
-1111.69
  0
LINE
  8
0
 10
-56.6034
 20
-1111.69
 11
-56.4325
 21
-1111.84
  0
LINE
  8
0
 10
-56.4325
 20
-1111.84
 11
-56.2974
 21
-1112.03
  0
LINE
  8
0
 10
-56.2974
 20
-1112.03
 11
-56.2038
 21
-1112.24
  0
LINE
  8
0
 10
-56.2038
 20
-1112.24
 11
-56.156
 21
-1112.46
  0
LINE
  8
0
 10
-56.156
 20
-1112.46
 11
-56.156
 21
-1112.69
  0
LINE
  8
0
 10
-56.156
 20
-1112.69
 11
-56.2038
 21
-1112.92
  0
LINE
  8
0
 10
-56.2038
 20
-1112.92
 11
-56.2974
 21
-1113.13
  0
LINE
  8
0
 10
-56.2974
 20
-1113.13
 11
-56.4325
 21
-1113.32
  0
LINE
  8
0
 10
-56.4325
 20
-1113.32
 11
-56.6034
 21
-1113.47
  0
LINE
  8
0
 10
-56.6034
 20
-1113.47
 11
-56.8026
 21
-1113.58
  0
LINE
  8
0
 10
-56.8026
 20
-1113.58
 11
-57.0213
 21
-1113.66
  0
LINE
  8
0
 10
-57.0213
 20
-1113.66
 11
-57.25
 21
-1113.68
  0
LINE
  8
0
 10
-57.25
 20
-1113.68
 11
-57.4787
 21
-1113.66
  0
LINE
  8
0
 10
65.0213
 20
-1113.66
 11
64.8026
 21
-1113.58
  0
LINE
  8
0
 10
64.8026
 20
-1113.58
 11
64.6034
 21
-1113.47
  0
LINE
  8
0
 10
64.6034
 20
-1113.47
 11
64.4325
 21
-1113.32
  0
LINE
  8
0
 10
64.4325
 20
-1113.32
 11
64.2974
 21
-1113.13
  0
LINE
  8
0
 10
64.2974
 20
-1113.13
 11
64.2038
 21
-1112.92
  0
LINE
  8
0
 10
64.2038
 20
-1112.92
 11
64.156
 21
-1112.69
  0
LINE
  8
0
 10
64.156
 20
-1112.69
 11
64.156
 21
-1112.46
  0
LINE
  8
0
 10
64.156
 20
-1112.46
 11
64.2038
 21
-1112.24
  0
LINE
  8
0
 10
64.2038
 20
-1112.24
 11
64.2974
 21
-1112.03
  0
LINE
  8
0
 10
64.2974
 20
-1112.03
 11
64.4325
 21
-1111.84
  0
LINE
  8
0
 10
64.4325
 20
-1111.84
 11
64.6034
 21
-1111.69
  0
LINE
  8
0
 10
64.6034
 20
-1111.69
 11
64.8026
 21
-1111.58
  0
LINE
  8
0
 10
64.8026
 20
-1111.58
 11
65.0213
 21
-1111.5
  0
LINE
  8
0
 10
65.0213
 20
-1111.5
 11
65.25
 21
-1111.48
  0
LINE
  8
0
 10
65.25
 20
-1111.48
 11
65.4787
 21
-1111.5
  0
LINE
  8
0
 10
65.4787
 20
-1111.5
 11
65.6974
 21
-1111.58
  0
LINE
  8
0
 10
65.6974
 20
-1111.58
 11
65.8966
 21
-1111.69
  0
LINE
  8
0
 10
65.8966
 20
-1111.69
 11
66.0675
 21
-1111.84
  0
LINE
  8
0
 10
66.0675
 20
-1111.84
 11
66.2026
 21
-1112.03
  0
LINE
  8
0
 10
66.2026
 20
-1112.03
 11
66.2962
 21
-1112.24
  0
LINE
  8
0
 10
66.2962
 20
-1112.24
 11
66.344
 21
-1112.46
  0
LINE
  8
0
 10
66.344
 20
-1112.46
 11
66.344
 21
-1112.69
  0
LINE
  8
0
 10
66.344
 20
-1112.69
 11
66.2962
 21
-1112.92
  0
LINE
  8
0
 10
66.2962
 20
-1112.92
 11
66.2026
 21
-1113.13
  0
LINE
  8
0
 10
66.2026
 20
-1113.13
 11
66.0675
 21
-1113.32
  0
LINE
  8
0
 10
66.0675
 20
-1113.32
 11
65.8966
 21
-1113.47
  0
LINE
  8
0
 10
65.8966
 20
-1113.47
 11
65.6974
 21
-1113.58
  0
LINE
  8
0
 10
65.6974
 20
-1113.58
 11
65.4787
 21
-1113.66
  0
LINE
  8
0
 10
65.4787
 20
-1113.66
 11
65.25
 21
-1113.68
  0
LINE
  8
0
 10
65.25
 20
-1113.68
 11
65.0213
 21
-1113.66
  0
LINE
  8
0
 10
65.0213
 20
-1118.74
 11
64.8026
 21
-1118.66
  0
LINE
  8
0
 10
64.8026
 20
-1118.66
 11
64.6034
 21
-1118.55
  0
LINE
  8
0
 10
64.6034
 20
-1118.55
 11
64.4325
 21
-1118.4
  0
LINE
  8
0
 10
64.4325
 20
-1118.4
 11
64.2974
 21
-1118.21
  0
LINE
  8
0
 10
64.2974
 20
-1118.21
 11
64.2038
 21
-1118
  0
LINE
  8
0
 10
64.2038
 20
-1118
 11
64.156
 21
-1117.78
  0
LINE
  8
0
 10
64.156
 20
-1117.78
 11
64.156
 21
-1117.55
  0
LINE
  8
0
 10
64.156
 20
-1117.55
 11
64.2038
 21
-1117.32
  0
LINE
  8
0
 10
64.2038
 20
-1117.32
 11
64.2974
 21
-1117.11
  0
LINE
  8
0
 10
64.2974
 20
-1117.11
 11
64.4325
 21
-1116.92
  0
LINE
  8
0
 10
64.4325
 20
-1116.92
 11
64.6034
 21
-1116.77
  0
LINE
  8
0
 10
64.6034
 20
-1116.77
 11
64.8026
 21
-1116.66
  0
LINE
  8
0
 10
64.8026
 20
-1116.66
 11
65.0213
 21
-1116.58
  0
LINE
  8
0
 10
65.0213
 20
-1116.58
 11
65.25
 21
-1116.56
  0
LINE
  8
0
 10
65.25
 20
-1116.56
 11
65.4787
 21
-1116.58
  0
LINE
  8
0
 10
65.4787
 20
-1116.58
 11
65.6974
 21
-1116.66
  0
LINE
  8
0
 10
65.6974
 20
-1116.66
 11
65.8966
 21
-1116.77
  0
LINE
  8
0
 10
65.8966
 20
-1116.77
 11
66.0675
 21
-1116.92
  0
LINE
  8
0
 10
66.0675
 20
-1116.92
 11
66.2026
 21
-1117.11
  0
LINE
  8
0
 10
66.2026
 20
-1117.11
 11
66.2962
 21
-1117.32
  0
LINE
  8
0
 10
66.2962
 20
-1117.32
 11
66.344
 21
-1117.55
  0
LINE
  8
0
 10
66.344
 20
-1117.55
 11
66.344
 21
-1117.78
  0
LINE
  8
0
 10
66.344
 20
-1117.78
 11
66.2962
 21
-1118
  0
LINE
  8
0
 10
66.2962
 20
-1118
 11
66.2026
 21
-1118.21
  0
LINE
  8
0
 10
66.2026
 20
-1118.21
 11
66.0675
 21
-1118.4
  0
LINE
  8
0
 10
66.0675
 20
-1118.4
 11
65.8966
 21
-1118.55
  0
LINE
  8
0
 10
65.8966
 20
-1118.55
 11
65.6974
 21
-1118.66
  0
LINE
  8
0
 10
65.6974
 20
-1118.66
 11
65.4787
 21
-1118.74
  0
LINE
  8
0
 10
65.4787
 20
-1118.74
 11
65.25
 21
-1118.76
  0
LINE
  8
0
 10
65.25
 20
-1118.76
 11
65.0213
 21
-1118.74
  0
LINE
  8
0
 10
-57.4787
 20
-1118.74
 11
-57.6974
 21
-1118.66
  0
LINE
  8
0
 10
-57.6974
 20
-1118.66
 11
-57.8966
 21
-1118.55
  0
LINE
  8
0
 10
-57.8966
 20
-1118.55
 11
-58.0675
 21
-1118.4
  0
LINE
  8
0
 10
-58.0675
 20
-1118.4
 11
-58.2026
 21
-1118.21
  0
LINE
  8
0
 10
-58.2026
 20
-1118.21
 11
-58.2962
 21
-1118
  0
LINE
  8
0
 10
-58.2962
 20
-1118
 11
-58.344
 21
-1117.78
  0
LINE
  8
0
 10
-58.344
 20
-1117.78
 11
-58.344
 21
-1117.55
  0
LINE
  8
0
 10
-58.344
 20
-1117.55
 11
-58.2962
 21
-1117.32
  0
LINE
  8
0
 10
-58.2962
 20
-1117.32
 11
-58.2026
 21
-1117.11
  0
LINE
  8
0
 10
-58.2026
 20
-1117.11
 11
-58.0675
 21
-1116.92
  0
LINE
  8
0
 10
-58.0675
 20
-1116.92
 11
-57.8966
 21
-1116.77
  0
LINE
  8
0
 10
-57.8966
 20
-1116.77
 11
-57.6974
 21
-1116.66
  0
LINE
  8
0
 10
-57.6974
 20
-1116.66
 11
-57.4787
 21
-1116.58
  0
LINE
  8
0
 10
-57.4787
 20
-1116.58
 11
-57.25
 21
-1116.56
  0
LINE
  8
0
 10
-57.25
 20
-1116.56
 11
-57.0213
 21
-1116.58
  0
LINE
  8
0
 10
-57.0213
 20
-1116.58
 11
-56.8026
 21
-1116.66
  0
LINE
  8
0
 10
-56.8026
 20
-1116.66
 11
-56.6034
 21
-1116.77
  0
LINE
  8
0
 10
-56.6034
 20
-1116.77
 11
-56.4325
 21
-1116.92
  0
LINE
  8
0
 10
-56.4325
 20
-1116.92
 11
-56.2974
 21
-1117.11
  0
LINE
  8
0
 10
-56.2974
 20
-1117.11
 11
-56.2038
 21
-1117.32
  0
LINE
  8
0
 10
-56.2038
 20
-1117.32
 11
-56.156
 21
-1117.55
  0
LINE
  8
0
 10
-56.156
 20
-1117.55
 11
-56.156
 21
-1117.78
  0
LINE
  8
0
 10
-56.156
 20
-1117.78
 11
-56.2038
 21
-1118
  0
LINE
  8
0
 10
-56.2038
 20
-1118
 11
-56.2974
 21
-1118.21
  0
LINE
  8
0
 10
-56.2974
 20
-1118.21
 11
-56.4325
 21
-1118.4
  0
LINE
  8
0
 10
-56.4325
 20
-1118.4
 11
-56.6034
 21
-1118.55
  0
LINE
  8
0
 10
-56.6034
 20
-1118.55
 11
-56.8026
 21
-1118.66
  0
LINE
  8
0
 10
-56.8026
 20
-1118.66
 11
-57.0213
 21
-1118.74
  0
LINE
  8
0
 10
-57.0213
 20
-1118.74
 11
-57.25
 21
-1118.76
  0
LINE
  8
0
 10
-57.25
 20
-1118.76
 11
-57.4787
 21
-1118.74
  0
LINE
  8
0
 10
65.0213
 20
-1123.82
 11
64.8026
 21
-1123.74
  0
LINE
  8
0
 10
64.8026
 20
-1123.74
 11
64.6034
 21
-1123.63
  0
LINE
  8
0
 10
64.6034
 20
-1123.63
 11
64.4325
 21
-1123.48
  0
LINE
  8
0
 10
64.4325
 20
-1123.48
 11
64.2974
 21
-1123.29
  0
LINE
  8
0
 10
64.2974
 20
-1123.29
 11
64.2038
 21
-1123.08
  0
LINE
  8
0
 10
64.2038
 20
-1123.08
 11
64.156
 21
-1122.85
  0
LINE
  8
0
 10
64.156
 20
-1122.85
 11
64.156
 21
-1122.62
  0
LINE
  8
0
 10
64.156
 20
-1122.62
 11
64.2038
 21
-1122.4
  0
LINE
  8
0
 10
64.2038
 20
-1122.4
 11
64.2974
 21
-1122.19
  0
LINE
  8
0
 10
64.2974
 20
-1122.19
 11
64.4325
 21
-1122
  0
LINE
  8
0
 10
64.4325
 20
-1122
 11
64.6034
 21
-1121.85
  0
LINE
  8
0
 10
64.6034
 20
-1121.85
 11
64.8026
 21
-1121.74
  0
LINE
  8
0
 10
64.8026
 20
-1121.74
 11
65.0213
 21
-1121.66
  0
LINE
  8
0
 10
65.0213
 20
-1121.66
 11
65.25
 21
-1121.64
  0
LINE
  8
0
 10
65.25
 20
-1121.64
 11
65.4787
 21
-1121.66
  0
LINE
  8
0
 10
65.4787
 20
-1121.66
 11
65.6974
 21
-1121.74
  0
LINE
  8
0
 10
65.6974
 20
-1121.74
 11
65.8966
 21
-1121.85
  0
LINE
  8
0
 10
65.8966
 20
-1121.85
 11
66.0675
 21
-1122
  0
LINE
  8
0
 10
66.0675
 20
-1122
 11
66.2026
 21
-1122.19
  0
LINE
  8
0
 10
66.2026
 20
-1122.19
 11
66.2962
 21
-1122.4
  0
LINE
  8
0
 10
66.2962
 20
-1122.4
 11
66.344
 21
-1122.62
  0
LINE
  8
0
 10
66.344
 20
-1122.62
 11
66.344
 21
-1122.85
  0
LINE
  8
0
 10
66.344
 20
-1122.85
 11
66.2962
 21
-1123.08
  0
LINE
  8
0
 10
66.2962
 20
-1123.08
 11
66.2026
 21
-1123.29
  0
LINE
  8
0
 10
66.2026
 20
-1123.29
 11
66.0675
 21
-1123.48
  0
LINE
  8
0
 10
66.0675
 20
-1123.48
 11
65.8966
 21
-1123.63
  0
LINE
  8
0
 10
65.8966
 20
-1123.63
 11
65.6974
 21
-1123.74
  0
LINE
  8
0
 10
65.6974
 20
-1123.74
 11
65.4787
 21
-1123.82
  0
LINE
  8
0
 10
65.4787
 20
-1123.82
 11
65.25
 21
-1123.84
  0
LINE
  8
0
 10
65.25
 20
-1123.84
 11
65.0213
 21
-1123.82
  0
LINE
  8
0
 10
-57.4787
 20
-1123.82
 11
-57.6974
 21
-1123.74
  0
LINE
  8
0
 10
-57.6974
 20
-1123.74
 11
-57.8966
 21
-1123.63
  0
LINE
  8
0
 10
-57.8966
 20
-1123.63
 11
-58.0675
 21
-1123.48
  0
LINE
  8
0
 10
-58.0675
 20
-1123.48
 11
-58.2026
 21
-1123.29
  0
LINE
  8
0
 10
-58.2026
 20
-1123.29
 11
-58.2962
 21
-1123.08
  0
LINE
  8
0
 10
-58.2962
 20
-1123.08
 11
-58.344
 21
-1122.85
  0
LINE
  8
0
 10
-58.344
 20
-1122.85
 11
-58.344
 21
-1122.62
  0
LINE
  8
0
 10
-58.344
 20
-1122.62
 11
-58.2962
 21
-1122.4
  0
LINE
  8
0
 10
-58.2962
 20
-1122.4
 11
-58.2026
 21
-1122.19
  0
LINE
  8
0
 10
-58.2026
 20
-1122.19
 11
-58.0675
 21
-1122
  0
LINE
  8
0
 10
-58.0675
 20
-1122
 11
-57.8966
 21
-1121.85
  0
LINE
  8
0
 10
-57.8966
 20
-1121.85
 11
-57.6974
 21
-1121.74
  0
LINE
  8
0
 10
-57.6974
 20
-1121.74
 11
-57.4787
 21
-1121.66
  0
LINE
  8
0
 10
-57.4787
 20
-1121.66
 11
-57.25
 21
-1121.64
  0
LINE
  8
0
 10
-57.25
 20
-1121.64
 11
-57.0213
 21
-1121.66
  0
LINE
  8
0
 10
-57.0213
 20
-1121.66
 11
-56.8026
 21
-1121.74
  0
LINE
  8
0
 10
-56.8026
 20
-1121.74
 11
-56.6034
 21
-1121.85
  0
LINE
  8
0
 10
-56.6034
 20
-1121.85
 11
-56.4325
 21
-1122
  0
LINE
  8
0
 10
-56.4325
 20
-1122
 11
-56.2974
 21
-1122.19
  0
LINE
  8
0
 10
-56.2974
 20
-1122.19
 11
-56.2038
 21
-1122.4
  0
LINE
  8
0
 10
-56.2038
 20
-1122.4
 11
-56.156
 21
-1122.62
  0
LINE
  8
0
 10
-56.156
 20
-1122.62
 11
-56.156
 21
-1122.85
  0
LINE
  8
0
 10
-56.156
 20
-1122.85
 11
-56.2038
 21
-1123.08
  0
LINE
  8
0
 10
-56.2038
 20
-1123.08
 11
-56.2974
 21
-1123.29
  0
LINE
  8
0
 10
-56.2974
 20
-1123.29
 11
-56.4325
 21
-1123.48
  0
LINE
  8
0
 10
-56.4325
 20
-1123.48
 11
-56.6034
 21
-1123.63
  0
LINE
  8
0
 10
-56.6034
 20
-1123.63
 11
-56.8026
 21
-1123.74
  0
LINE
  8
0
 10
-56.8026
 20
-1123.74
 11
-57.0213
 21
-1123.82
  0
LINE
  8
0
 10
-57.0213
 20
-1123.82
 11
-57.25
 21
-1123.84
  0
LINE
  8
0
 10
-57.25
 20
-1123.84
 11
-57.4787
 21
-1123.82
  0
LINE
  8
0
 10
-57.4787
 20
-1128.9
 11
-57.6974
 21
-1128.82
  0
LINE
  8
0
 10
-57.6974
 20
-1128.82
 11
-57.8966
 21
-1128.71
  0
LINE
  8
0
 10
-57.8966
 20
-1128.71
 11
-58.0675
 21
-1128.56
  0
LINE
  8
0
 10
-58.0675
 20
-1128.56
 11
-58.2026
 21
-1128.37
  0
LINE
  8
0
 10
-58.2026
 20
-1128.37
 11
-58.2962
 21
-1128.16
  0
LINE
  8
0
 10
-58.2962
 20
-1128.16
 11
-58.344
 21
-1127.93
  0
LINE
  8
0
 10
-58.344
 20
-1127.93
 11
-58.344
 21
-1127.71
  0
LINE
  8
0
 10
-58.344
 20
-1127.71
 11
-58.2962
 21
-1127.48
  0
LINE
  8
0
 10
-58.2962
 20
-1127.48
 11
-58.2026
 21
-1127.27
  0
LINE
  8
0
 10
-58.2026
 20
-1127.27
 11
-58.0675
 21
-1127.08
  0
LINE
  8
0
 10
-58.0675
 20
-1127.08
 11
-57.8966
 21
-1126.93
  0
LINE
  8
0
 10
-57.8966
 20
-1126.93
 11
-57.6974
 21
-1126.82
  0
LINE
  8
0
 10
-57.6974
 20
-1126.82
 11
-57.4787
 21
-1126.74
  0
LINE
  8
0
 10
-57.4787
 20
-1126.74
 11
-57.25
 21
-1126.72
  0
LINE
  8
0
 10
-57.25
 20
-1126.72
 11
-57.0213
 21
-1126.74
  0
LINE
  8
0
 10
-57.0213
 20
-1126.74
 11
-56.8026
 21
-1126.82
  0
LINE
  8
0
 10
-56.8026
 20
-1126.82
 11
-56.6034
 21
-1126.93
  0
LINE
  8
0
 10
-56.6034
 20
-1126.93
 11
-56.4325
 21
-1127.08
  0
LINE
  8
0
 10
-56.4325
 20
-1127.08
 11
-56.2974
 21
-1127.27
  0
LINE
  8
0
 10
-56.2974
 20
-1127.27
 11
-56.2038
 21
-1127.48
  0
LINE
  8
0
 10
-56.2038
 20
-1127.48
 11
-56.156
 21
-1127.71
  0
LINE
  8
0
 10
-56.156
 20
-1127.71
 11
-56.156
 21
-1127.93
  0
LINE
  8
0
 10
-56.156
 20
-1127.93
 11
-56.2038
 21
-1128.16
  0
LINE
  8
0
 10
-56.2038
 20
-1128.16
 11
-56.2974
 21
-1128.37
  0
LINE
  8
0
 10
-56.2974
 20
-1128.37
 11
-56.4325
 21
-1128.56
  0
LINE
  8
0
 10
-56.4325
 20
-1128.56
 11
-56.6034
 21
-1128.71
  0
LINE
  8
0
 10
-56.6034
 20
-1128.71
 11
-56.8026
 21
-1128.82
  0
LINE
  8
0
 10
-56.8026
 20
-1128.82
 11
-57.0213
 21
-1128.9
  0
LINE
  8
0
 10
-57.0213
 20
-1128.9
 11
-57.25
 21
-1128.92
  0
LINE
  8
0
 10
-57.25
 20
-1128.92
 11
-57.4787
 21
-1128.9
  0
LINE
  8
0
 10
65.0213
 20
-1128.9
 11
64.8026
 21
-1128.82
  0
LINE
  8
0
 10
64.8026
 20
-1128.82
 11
64.6034
 21
-1128.71
  0
LINE
  8
0
 10
64.6034
 20
-1128.71
 11
64.4325
 21
-1128.56
  0
LINE
  8
0
 10
64.4325
 20
-1128.56
 11
64.2974
 21
-1128.37
  0
LINE
  8
0
 10
64.2974
 20
-1128.37
 11
64.2038
 21
-1128.16
  0
LINE
  8
0
 10
64.2038
 20
-1128.16
 11
64.156
 21
-1127.93
  0
LINE
  8
0
 10
64.156
 20
-1127.93
 11
64.156
 21
-1127.71
  0
LINE
  8
0
 10
64.156
 20
-1127.71
 11
64.2038
 21
-1127.48
  0
LINE
  8
0
 10
64.2038
 20
-1127.48
 11
64.2974
 21
-1127.27
  0
LINE
  8
0
 10
64.2974
 20
-1127.27
 11
64.4325
 21
-1127.08
  0
LINE
  8
0
 10
64.4325
 20
-1127.08
 11
64.6034
 21
-1126.93
  0
LINE
  8
0
 10
64.6034
 20
-1126.93
 11
64.8026
 21
-1126.82
  0
LINE
  8
0
 10
64.8026
 20
-1126.82
 11
65.0213
 21
-1126.74
  0
LINE
  8
0
 10
65.0213
 20
-1126.74
 11
65.25
 21
-1126.72
  0
LINE
  8
0
 10
65.25
 20
-1126.72
 11
65.4787
 21
-1126.74
  0
LINE
  8
0
 10
65.4787
 20
-1126.74
 11
65.6974
 21
-1126.82
  0
LINE
  8
0
 10
65.6974
 20
-1126.82
 11
65.8966
 21
-1126.93
  0
LINE
  8
0
 10
65.8966
 20
-1126.93
 11
66.0675
 21
-1127.08
  0
LINE
  8
0
 10
66.0675
 20
-1127.08
 11
66.2026
 21
-1127.27
  0
LINE
  8
0
 10
66.2026
 20
-1127.27
 11
66.2962
 21
-1127.48
  0
LINE
  8
0
 10
66.2962
 20
-1127.48
 11
66.344
 21
-1127.71
  0
LINE
  8
0
 10
66.344
 20
-1127.71
 11
66.344
 21
-1127.93
  0
LINE
  8
0
 10
66.344
 20
-1127.93
 11
66.2962
 21
-1128.16
  0
LINE
  8
0
 10
66.2962
 20
-1128.16
 11
66.2026
 21
-1128.37
  0
LINE
  8
0
 10
66.2026
 20
-1128.37
 11
66.0675
 21
-1128.56
  0
LINE
  8
0
 10
66.0675
 20
-1128.56
 11
65.8966
 21
-1128.71
  0
LINE
  8
0
 10
65.8966
 20
-1128.71
 11
65.6974
 21
-1128.82
  0
LINE
  8
0
 10
65.6974
 20
-1128.82
 11
65.4787
 21
-1128.9
  0
LINE
  8
0
 10
65.4787
 20
-1128.9
 11
65.25
 21
-1128.92
  0
LINE
  8
0
 10
65.25
 20
-1128.92
 11
65.0213
 21
-1128.9
  0
LINE
  8
0
 10
-57.4787
 20
-1133.98
 11
-57.6974
 21
-1133.9
  0
LINE
  8
0
 10
-57.6974
 20
-1133.9
 11
-57.8966
 21
-1133.79
  0
LINE
  8
0
 10
-57.8966
 20
-1133.79
 11
-58.0675
 21
-1133.64
  0
LINE
  8
0
 10
-58.0675
 20
-1133.64
 11
-58.2026
 21
-1133.45
  0
LINE
  8
0
 10
-58.2026
 20
-1133.45
 11
-58.2962
 21
-1133.24
  0
LINE
  8
0
 10
-58.2962
 20
-1133.24
 11
-58.344
 21
-1133.02
  0
LINE
  8
0
 10
-58.344
 20
-1133.02
 11
-58.344
 21
-1132.79
  0
LINE
  8
0
 10
-58.344
 20
-1132.79
 11
-58.2962
 21
-1132.56
  0
LINE
  8
0
 10
-58.2962
 20
-1132.56
 11
-58.2026
 21
-1132.35
  0
LINE
  8
0
 10
-58.2026
 20
-1132.35
 11
-58.0675
 21
-1132.16
  0
LINE
  8
0
 10
-58.0675
 20
-1132.16
 11
-57.8966
 21
-1132.01
  0
LINE
  8
0
 10
-57.8966
 20
-1132.01
 11
-57.6974
 21
-1131.9
  0
LINE
  8
0
 10
-57.6974
 20
-1131.9
 11
-57.4787
 21
-1131.82
  0
LINE
  8
0
 10
-57.4787
 20
-1131.82
 11
-57.25
 21
-1131.8
  0
LINE
  8
0
 10
-57.25
 20
-1131.8
 11
-57.0213
 21
-1131.82
  0
LINE
  8
0
 10
-57.0213
 20
-1131.82
 11
-56.8026
 21
-1131.9
  0
LINE
  8
0
 10
-56.8026
 20
-1131.9
 11
-56.6034
 21
-1132.01
  0
LINE
  8
0
 10
-56.6034
 20
-1132.01
 11
-56.4325
 21
-1132.16
  0
LINE
  8
0
 10
-56.4325
 20
-1132.16
 11
-56.2974
 21
-1132.35
  0
LINE
  8
0
 10
-56.2974
 20
-1132.35
 11
-56.2038
 21
-1132.56
  0
LINE
  8
0
 10
-56.2038
 20
-1132.56
 11
-56.156
 21
-1132.79
  0
LINE
  8
0
 10
-56.156
 20
-1132.79
 11
-56.156
 21
-1133.02
  0
LINE
  8
0
 10
-56.156
 20
-1133.02
 11
-56.2038
 21
-1133.24
  0
LINE
  8
0
 10
-56.2038
 20
-1133.24
 11
-56.2974
 21
-1133.45
  0
LINE
  8
0
 10
-56.2974
 20
-1133.45
 11
-56.4325
 21
-1133.64
  0
LINE
  8
0
 10
-56.4325
 20
-1133.64
 11
-56.6034
 21
-1133.79
  0
LINE
  8
0
 10
-56.6034
 20
-1133.79
 11
-56.8026
 21
-1133.9
  0
LINE
  8
0
 10
-56.8026
 20
-1133.9
 11
-57.0213
 21
-1133.98
  0
LINE
  8
0
 10
-57.0213
 20
-1133.98
 11
-57.25
 21
-1134
  0
LINE
  8
0
 10
-57.25
 20
-1134
 11
-57.4787
 21
-1133.98
  0
LINE
  8
0
 10
65.0213
 20
-1133.98
 11
64.8026
 21
-1133.9
  0
LINE
  8
0
 10
64.8026
 20
-1133.9
 11
64.6034
 21
-1133.79
  0
LINE
  8
0
 10
64.6034
 20
-1133.79
 11
64.4325
 21
-1133.64
  0
LINE
  8
0
 10
64.4325
 20
-1133.64
 11
64.2974
 21
-1133.45
  0
LINE
  8
0
 10
64.2974
 20
-1133.45
 11
64.2038
 21
-1133.24
  0
LINE
  8
0
 10
64.2038
 20
-1133.24
 11
64.156
 21
-1133.02
  0
LINE
  8
0
 10
64.156
 20
-1133.02
 11
64.156
 21
-1132.79
  0
LINE
  8
0
 10
64.156
 20
-1132.79
 11
64.2038
 21
-1132.56
  0
LINE
  8
0
 10
64.2038
 20
-1132.56
 11
64.2974
 21
-1132.35
  0
LINE
  8
0
 10
64.2974
 20
-1132.35
 11
64.4325
 21
-1132.16
  0
LINE
  8
0
 10
64.4325
 20
-1132.16
 11
64.6034
 21
-1132.01
  0
LINE
  8
0
 10
64.6034
 20
-1132.01
 11
64.8026
 21
-1131.9
  0
LINE
  8
0
 10
64.8026
 20
-1131.9
 11
65.0213
 21
-1131.82
  0
LINE
  8
0
 10
65.0213
 20
-1131.82
 11
65.25
 21
-1131.8
  0
LINE
  8
0
 10
65.25
 20
-1131.8
 11
65.4787
 21
-1131.82
  0
LINE
  8
0
 10
65.4787
 20
-1131.82
 11
65.6974
 21
-1131.9
  0
LINE
  8
0
 10
65.6974
 20
-1131.9
 11
65.8966
 21
-1132.01
  0
LINE
  8
0
 10
65.8966
 20
-1132.01
 11
66.0675
 21
-1132.16
  0
LINE
  8
0
 10
66.0675
 20
-1132.16
 11
66.2026
 21
-1132.35
  0
LINE
  8
0
 10
66.2026
 20
-1132.35
 11
66.2962
 21
-1132.56
  0
LINE
  8
0
 10
66.2962
 20
-1132.56
 11
66.344
 21
-1132.79
  0
LINE
  8
0
 10
66.344
 20
-1132.79
 11
66.344
 21
-1133.02
  0
LINE
  8
0
 10
66.344
 20
-1133.02
 11
66.2962
 21
-1133.24
  0
LINE
  8
0
 10
66.2962
 20
-1133.24
 11
66.2026
 21
-1133.45
  0
LINE
  8
0
 10
66.2026
 20
-1133.45
 11
66.0675
 21
-1133.64
  0
LINE
  8
0
 10
66.0675
 20
-1133.64
 11
65.8966
 21
-1133.79
  0
LINE
  8
0
 10
65.8966
 20
-1133.79
 11
65.6974
 21
-1133.9
  0
LINE
  8
0
 10
65.6974
 20
-1133.9
 11
65.4787
 21
-1133.98
  0
LINE
  8
0
 10
65.4787
 20
-1133.98
 11
65.25
 21
-1134
  0
LINE
  8
0
 10
65.25
 20
-1134
 11
65.0213
 21
-1133.98
  0
LINE
  8
0
 10
-57.4787
 20
-1139.06
 11
-57.6974
 21
-1138.98
  0
LINE
  8
0
 10
-57.6974
 20
-1138.98
 11
-57.8966
 21
-1138.87
  0
LINE
  8
0
 10
-57.8966
 20
-1138.87
 11
-58.0675
 21
-1138.72
  0
LINE
  8
0
 10
-58.0675
 20
-1138.72
 11
-58.2026
 21
-1138.53
  0
LINE
  8
0
 10
-58.2026
 20
-1138.53
 11
-58.2962
 21
-1138.32
  0
LINE
  8
0
 10
-58.2962
 20
-1138.32
 11
-58.344
 21
-1138.09
  0
LINE
  8
0
 10
-58.344
 20
-1138.09
 11
-58.344
 21
-1137.86
  0
LINE
  8
0
 10
-58.344
 20
-1137.86
 11
-58.2962
 21
-1137.64
  0
LINE
  8
0
 10
-58.2962
 20
-1137.64
 11
-58.2026
 21
-1137.43
  0
LINE
  8
0
 10
-58.2026
 20
-1137.43
 11
-58.0675
 21
-1137.24
  0
LINE
  8
0
 10
-58.0675
 20
-1137.24
 11
-57.8966
 21
-1137.09
  0
LINE
  8
0
 10
-57.8966
 20
-1137.09
 11
-57.6974
 21
-1136.98
  0
LINE
  8
0
 10
-57.6974
 20
-1136.98
 11
-57.4787
 21
-1136.9
  0
LINE
  8
0
 10
-57.4787
 20
-1136.9
 11
-57.25
 21
-1136.88
  0
LINE
  8
0
 10
-57.25
 20
-1136.88
 11
-57.0213
 21
-1136.9
  0
LINE
  8
0
 10
-57.0213
 20
-1136.9
 11
-56.8026
 21
-1136.98
  0
LINE
  8
0
 10
-56.8026
 20
-1136.98
 11
-56.6034
 21
-1137.09
  0
LINE
  8
0
 10
-56.6034
 20
-1137.09
 11
-56.4325
 21
-1137.24
  0
LINE
  8
0
 10
-56.4325
 20
-1137.24
 11
-56.2974
 21
-1137.43
  0
LINE
  8
0
 10
-56.2974
 20
-1137.43
 11
-56.2038
 21
-1137.64
  0
LINE
  8
0
 10
-56.2038
 20
-1137.64
 11
-56.156
 21
-1137.86
  0
LINE
  8
0
 10
-56.156
 20
-1137.86
 11
-56.156
 21
-1138.09
  0
LINE
  8
0
 10
-56.156
 20
-1138.09
 11
-56.2038
 21
-1138.32
  0
LINE
  8
0
 10
-56.2038
 20
-1138.32
 11
-56.2974
 21
-1138.53
  0
LINE
  8
0
 10
-56.2974
 20
-1138.53
 11
-56.4325
 21
-1138.72
  0
LINE
  8
0
 10
-56.4325
 20
-1138.72
 11
-56.6034
 21
-1138.87
  0
LINE
  8
0
 10
-56.6034
 20
-1138.87
 11
-56.8026
 21
-1138.98
  0
LINE
  8
0
 10
-56.8026
 20
-1138.98
 11
-57.0213
 21
-1139.06
  0
LINE
  8
0
 10
-57.0213
 20
-1139.06
 11
-57.25
 21
-1139.08
  0
LINE
  8
0
 10
-57.25
 20
-1139.08
 11
-57.4787
 21
-1139.06
  0
LINE
  8
0
 10
65.0213
 20
-1139.06
 11
64.8026
 21
-1138.98
  0
LINE
  8
0
 10
64.8026
 20
-1138.98
 11
64.6034
 21
-1138.87
  0
LINE
  8
0
 10
64.6034
 20
-1138.87
 11
64.4325
 21
-1138.72
  0
LINE
  8
0
 10
64.4325
 20
-1138.72
 11
64.2974
 21
-1138.53
  0
LINE
  8
0
 10
64.2974
 20
-1138.53
 11
64.2038
 21
-1138.32
  0
LINE
  8
0
 10
64.2038
 20
-1138.32
 11
64.156
 21
-1138.09
  0
LINE
  8
0
 10
64.156
 20
-1138.09
 11
64.156
 21
-1137.86
  0
LINE
  8
0
 10
64.156
 20
-1137.86
 11
64.2038
 21
-1137.64
  0
LINE
  8
0
 10
64.2038
 20
-1137.64
 11
64.2974
 21
-1137.43
  0
LINE
  8
0
 10
64.2974
 20
-1137.43
 11
64.4325
 21
-1137.24
  0
LINE
  8
0
 10
64.4325
 20
-1137.24
 11
64.6034
 21
-1137.09
  0
LINE
  8
0
 10
64.6034
 20
-1137.09
 11
64.8026
 21
-1136.98
  0
LINE
  8
0
 10
64.8026
 20
-1136.98
 11
65.0213
 21
-1136.9
  0
LINE
  8
0
 10
65.0213
 20
-1136.9
 11
65.25
 21
-1136.88
  0
LINE
  8
0
 10
65.25
 20
-1136.88
 11
65.4787
 21
-1136.9
  0
LINE
  8
0
 10
65.4787
 20
-1136.9
 11
65.6974
 21
-1136.98
  0
LINE
  8
0
 10
65.6974
 20
-1136.98
 11
65.8966
 21
-1137.09
  0
LINE
  8
0
 10
65.8966
 20
-1137.09
 11
66.0675
 21
-1137.24
  0
LINE
  8
0
 10
66.0675
 20
-1137.24
 11
66.2026
 21
-1137.43
  0
LINE
  8
0
 10
66.2026
 20
-1137.43
 11
66.2962
 21
-1137.64
  0
LINE
  8
0
 10
66.2962
 20
-1137.64
 11
66.344
 21
-1137.86
  0
LINE
  8
0
 10
66.344
 20
-1137.86
 11
66.344
 21
-1138.09
  0
LINE
  8
0
 10
66.344
 20
-1138.09
 11
66.2962
 21
-1138.32
  0
LINE
  8
0
 10
66.2962
 20
-1138.32
 11
66.2026
 21
-1138.53
  0
LINE
  8
0
 10
66.2026
 20
-1138.53
 11
66.0675
 21
-1138.72
  0
LINE
  8
0
 10
66.0675
 20
-1138.72
 11
65.8966
 21
-1138.87
  0
LINE
  8
0
 10
65.8966
 20
-1138.87
 11
65.6974
 21
-1138.98
  0
LINE
  8
0
 10
65.6974
 20
-1138.98
 11
65.4787
 21
-1139.06
  0
LINE
  8
0
 10
65.4787
 20
-1139.06
 11
65.25
 21
-1139.08
  0
LINE
  8
0
 10
65.25
 20
-1139.08
 11
65.0213
 21
-1139.06
  0
LINE
  8
0
 10
65.0213
 20
-1144.14
 11
64.8026
 21
-1144.06
  0
LINE
  8
0
 10
64.8026
 20
-1144.06
 11
64.6034
 21
-1143.95
  0
LINE
  8
0
 10
64.6034
 20
-1143.95
 11
64.4325
 21
-1143.8
  0
LINE
  8
0
 10
64.4325
 20
-1143.8
 11
64.2974
 21
-1143.61
  0
LINE
  8
0
 10
64.2974
 20
-1143.61
 11
64.2038
 21
-1143.4
  0
LINE
  8
0
 10
64.2038
 20
-1143.4
 11
64.156
 21
-1143.17
  0
LINE
  8
0
 10
64.156
 20
-1143.17
 11
64.156
 21
-1142.95
  0
LINE
  8
0
 10
64.156
 20
-1142.95
 11
64.2038
 21
-1142.72
  0
LINE
  8
0
 10
64.2038
 20
-1142.72
 11
64.2974
 21
-1142.51
  0
LINE
  8
0
 10
64.2974
 20
-1142.51
 11
64.4325
 21
-1142.32
  0
LINE
  8
0
 10
64.4325
 20
-1142.32
 11
64.6034
 21
-1142.17
  0
LINE
  8
0
 10
64.6034
 20
-1142.17
 11
64.8026
 21
-1142.06
  0
LINE
  8
0
 10
64.8026
 20
-1142.06
 11
65.0213
 21
-1141.98
  0
LINE
  8
0
 10
65.0213
 20
-1141.98
 11
65.25
 21
-1141.96
  0
LINE
  8
0
 10
65.25
 20
-1141.96
 11
65.4787
 21
-1141.98
  0
LINE
  8
0
 10
65.4787
 20
-1141.98
 11
65.6974
 21
-1142.06
  0
LINE
  8
0
 10
65.6974
 20
-1142.06
 11
65.8966
 21
-1142.17
  0
LINE
  8
0
 10
65.8966
 20
-1142.17
 11
66.0675
 21
-1142.32
  0
LINE
  8
0
 10
66.0675
 20
-1142.32
 11
66.2026
 21
-1142.51
  0
LINE
  8
0
 10
66.2026
 20
-1142.51
 11
66.2962
 21
-1142.72
  0
LINE
  8
0
 10
66.2962
 20
-1142.72
 11
66.344
 21
-1142.95
  0
LINE
  8
0
 10
66.344
 20
-1142.95
 11
66.344
 21
-1143.17
  0
LINE
  8
0
 10
66.344
 20
-1143.17
 11
66.2962
 21
-1143.4
  0
LINE
  8
0
 10
66.2962
 20
-1143.4
 11
66.2026
 21
-1143.61
  0
LINE
  8
0
 10
66.2026
 20
-1143.61
 11
66.0675
 21
-1143.8
  0
LINE
  8
0
 10
66.0675
 20
-1143.8
 11
65.8966
 21
-1143.95
  0
LINE
  8
0
 10
65.8966
 20
-1143.95
 11
65.6974
 21
-1144.06
  0
LINE
  8
0
 10
65.6974
 20
-1144.06
 11
65.4787
 21
-1144.14
  0
LINE
  8
0
 10
65.4787
 20
-1144.14
 11
65.25
 21
-1144.16
  0
LINE
  8
0
 10
65.25
 20
-1144.16
 11
65.0213
 21
-1144.14
  0
LINE
  8
0
 10
-57.4787
 20
-1144.14
 11
-57.6974
 21
-1144.06
  0
LINE
  8
0
 10
-57.6974
 20
-1144.06
 11
-57.8966
 21
-1143.95
  0
LINE
  8
0
 10
-57.8966
 20
-1143.95
 11
-58.0675
 21
-1143.8
  0
LINE
  8
0
 10
-58.0675
 20
-1143.8
 11
-58.2026
 21
-1143.61
  0
LINE
  8
0
 10
-58.2026
 20
-1143.61
 11
-58.2962
 21
-1143.4
  0
LINE
  8
0
 10
-58.2962
 20
-1143.4
 11
-58.344
 21
-1143.17
  0
LINE
  8
0
 10
-58.344
 20
-1143.17
 11
-58.344
 21
-1142.95
  0
LINE
  8
0
 10
-58.344
 20
-1142.95
 11
-58.2962
 21
-1142.72
  0
LINE
  8
0
 10
-58.2962
 20
-1142.72
 11
-58.2026
 21
-1142.51
  0
LINE
  8
0
 10
-58.2026
 20
-1142.51
 11
-58.0675
 21
-1142.32
  0
LINE
  8
0
 10
-58.0675
 20
-1142.32
 11
-57.8966
 21
-1142.17
  0
LINE
  8
0
 10
-57.8966
 20
-1142.17
 11
-57.6974
 21
-1142.06
  0
LINE
  8
0
 10
-57.6974
 20
-1142.06
 11
-57.4787
 21
-1141.98
  0
LINE
  8
0
 10
-57.4787
 20
-1141.98
 11
-57.25
 21
-1141.96
  0
LINE
  8
0
 10
-57.25
 20
-1141.96
 11
-57.0213
 21
-1141.98
  0
LINE
  8
0
 10
-57.0213
 20
-1141.98
 11
-56.8026
 21
-1142.06
  0
LINE
  8
0
 10
-56.8026
 20
-1142.06
 11
-56.6034
 21
-1142.17
  0
LINE
  8
0
 10
-56.6034
 20
-1142.17
 11
-56.4325
 21
-1142.32
  0
LINE
  8
0
 10
-56.4325
 20
-1142.32
 11
-56.2974
 21
-1142.51
  0
LINE
  8
0
 10
-56.2974
 20
-1142.51
 11
-56.2038
 21
-1142.72
  0
LINE
  8
0
 10
-56.2038
 20
-1142.72
 11
-56.156
 21
-1142.95
  0
LINE
  8
0
 10
-56.156
 20
-1142.95
 11
-56.156
 21
-1143.17
  0
LINE
  8
0
 10
-56.156
 20
-1143.17
 11
-56.2038
 21
-1143.4
  0
LINE
  8
0
 10
-56.2038
 20
-1143.4
 11
-56.2974
 21
-1143.61
  0
LINE
  8
0
 10
-56.2974
 20
-1143.61
 11
-56.4325
 21
-1143.8
  0
LINE
  8
0
 10
-56.4325
 20
-1143.8
 11
-56.6034
 21
-1143.95
  0
LINE
  8
0
 10
-56.6034
 20
-1143.95
 11
-56.8026
 21
-1144.06
  0
LINE
  8
0
 10
-56.8026
 20
-1144.06
 11
-57.0213
 21
-1144.14
  0
LINE
  8
0
 10
-57.0213
 20
-1144.14
 11
-57.25
 21
-1144.16
  0
LINE
  8
0
 10
-57.25
 20
-1144.16
 11
-57.4787
 21
-1144.14
  0
LINE
  8
0
 10
65.0213
 20
-1149.22
 11
64.8026
 21
-1149.14
  0
LINE
  8
0
 10
64.8026
 20
-1149.14
 11
64.6034
 21
-1149.03
  0
LINE
  8
0
 10
64.6034
 20
-1149.03
 11
64.4325
 21
-1148.88
  0
LINE
  8
0
 10
64.4325
 20
-1148.88
 11
64.2974
 21
-1148.69
  0
LINE
  8
0
 10
64.2974
 20
-1148.69
 11
64.2038
 21
-1148.48
  0
LINE
  8
0
 10
64.2038
 20
-1148.48
 11
64.156
 21
-1148.26
  0
LINE
  8
0
 10
64.156
 20
-1148.26
 11
64.156
 21
-1148.03
  0
LINE
  8
0
 10
64.156
 20
-1148.03
 11
64.2038
 21
-1147.8
  0
LINE
  8
0
 10
64.2038
 20
-1147.8
 11
64.2974
 21
-1147.59
  0
LINE
  8
0
 10
64.2974
 20
-1147.59
 11
64.4325
 21
-1147.4
  0
LINE
  8
0
 10
64.4325
 20
-1147.4
 11
64.6034
 21
-1147.25
  0
LINE
  8
0
 10
64.6034
 20
-1147.25
 11
64.8026
 21
-1147.14
  0
LINE
  8
0
 10
64.8026
 20
-1147.14
 11
65.0213
 21
-1147.06
  0
LINE
  8
0
 10
65.0213
 20
-1147.06
 11
65.25
 21
-1147.04
  0
LINE
  8
0
 10
65.25
 20
-1147.04
 11
65.4787
 21
-1147.06
  0
LINE
  8
0
 10
65.4787
 20
-1147.06
 11
65.6974
 21
-1147.14
  0
LINE
  8
0
 10
65.6974
 20
-1147.14
 11
65.8966
 21
-1147.25
  0
LINE
  8
0
 10
65.8966
 20
-1147.25
 11
66.0675
 21
-1147.4
  0
LINE
  8
0
 10
66.0675
 20
-1147.4
 11
66.2026
 21
-1147.59
  0
LINE
  8
0
 10
66.2026
 20
-1147.59
 11
66.2962
 21
-1147.8
  0
LINE
  8
0
 10
66.2962
 20
-1147.8
 11
66.344
 21
-1148.03
  0
LINE
  8
0
 10
66.344
 20
-1148.03
 11
66.344
 21
-1148.26
  0
LINE
  8
0
 10
66.344
 20
-1148.26
 11
66.2962
 21
-1148.48
  0
LINE
  8
0
 10
66.2962
 20
-1148.48
 11
66.2026
 21
-1148.69
  0
LINE
  8
0
 10
66.2026
 20
-1148.69
 11
66.0675
 21
-1148.88
  0
LINE
  8
0
 10
66.0675
 20
-1148.88
 11
65.8966
 21
-1149.03
  0
LINE
  8
0
 10
65.8966
 20
-1149.03
 11
65.6974
 21
-1149.14
  0
LINE
  8
0
 10
65.6974
 20
-1149.14
 11
65.4787
 21
-1149.22
  0
LINE
  8
0
 10
65.4787
 20
-1149.22
 11
65.25
 21
-1149.24
  0
LINE
  8
0
 10
65.25
 20
-1149.24
 11
65.0213
 21
-1149.22
  0
LINE
  8
0
 10
-57.4787
 20
-1149.22
 11
-57.6974
 21
-1149.14
  0
LINE
  8
0
 10
-57.6974
 20
-1149.14
 11
-57.8966
 21
-1149.03
  0
LINE
  8
0
 10
-57.8966
 20
-1149.03
 11
-58.0675
 21
-1148.88
  0
LINE
  8
0
 10
-58.0675
 20
-1148.88
 11
-58.2026
 21
-1148.69
  0
LINE
  8
0
 10
-58.2026
 20
-1148.69
 11
-58.2962
 21
-1148.48
  0
LINE
  8
0
 10
-58.2962
 20
-1148.48
 11
-58.344
 21
-1148.26
  0
LINE
  8
0
 10
-58.344
 20
-1148.26
 11
-58.344
 21
-1148.03
  0
LINE
  8
0
 10
-58.344
 20
-1148.03
 11
-58.2962
 21
-1147.8
  0
LINE
  8
0
 10
-58.2962
 20
-1147.8
 11
-58.2026
 21
-1147.59
  0
LINE
  8
0
 10
-58.2026
 20
-1147.59
 11
-58.0675
 21
-1147.4
  0
LINE
  8
0
 10
-58.0675
 20
-1147.4
 11
-57.8966
 21
-1147.25
  0
LINE
  8
0
 10
-57.8966
 20
-1147.25
 11
-57.6974
 21
-1147.14
  0
LINE
  8
0
 10
-57.6974
 20
-1147.14
 11
-57.4787
 21
-1147.06
  0
LINE
  8
0
 10
-57.4787
 20
-1147.06
 11
-57.25
 21
-1147.04
  0
LINE
  8
0
 10
-57.25
 20
-1147.04
 11
-57.0213
 21
-1147.06
  0
LINE
  8
0
 10
-57.0213
 20
-1147.06
 11
-56.8026
 21
-1147.14
  0
LINE
  8
0
 10
-56.8026
 20
-1147.14
 11
-56.6034
 21
-1147.25
  0
LINE
  8
0
 10
-56.6034
 20
-1147.25
 11
-56.4325
 21
-1147.4
  0
LINE
  8
0
 10
-56.4325
 20
-1147.4
 11
-56.2974
 21
-1147.59
  0
LINE
  8
0
 10
-56.2974
 20
-1147.59
 11
-56.2038
 21
-1147.8
  0
LINE
  8
0
 10
-56.2038
 20
-1147.8
 11
-56.156
 21
-1148.03
  0
LINE
  8
0
 10
-56.156
 20
-1148.03
 11
-56.156
 21
-1148.26
  0
LINE
  8
0
 10
-56.156
 20
-1148.26
 11
-56.2038
 21
-1148.48
  0
LINE
  8
0
 10
-56.2038
 20
-1148.48
 11
-56.2974
 21
-1148.69
  0
LINE
  8
0
 10
-56.2974
 20
-1148.69
 11
-56.4325
 21
-1148.88
  0
LINE
  8
0
 10
-56.4325
 20
-1148.88
 11
-56.6034
 21
-1149.03
  0
LINE
  8
0
 10
-56.6034
 20
-1149.03
 11
-56.8026
 21
-1149.14
  0
LINE
  8
0
 10
-56.8026
 20
-1149.14
 11
-57.0213
 21
-1149.22
  0
LINE
  8
0
 10
-57.0213
 20
-1149.22
 11
-57.25
 21
-1149.24
  0
LINE
  8
0
 10
-57.25
 20
-1149.24
 11
-57.4787
 21
-1149.22
  0
LINE
  8
0
 10
65.0213
 20
-1154.3
 11
64.8026
 21
-1154.22
  0
LINE
  8
0
 10
64.8026
 20
-1154.22
 11
64.6034
 21
-1154.11
  0
LINE
  8
0
 10
64.6034
 20
-1154.11
 11
64.4325
 21
-1153.96
  0
LINE
  8
0
 10
64.4325
 20
-1153.96
 11
64.2974
 21
-1153.77
  0
LINE
  8
0
 10
64.2974
 20
-1153.77
 11
64.2038
 21
-1153.56
  0
LINE
  8
0
 10
64.2038
 20
-1153.56
 11
64.156
 21
-1153.33
  0
LINE
  8
0
 10
64.156
 20
-1153.33
 11
64.156
 21
-1153.1
  0
LINE
  8
0
 10
64.156
 20
-1153.1
 11
64.2038
 21
-1152.88
  0
LINE
  8
0
 10
64.2038
 20
-1152.88
 11
64.2974
 21
-1152.67
  0
LINE
  8
0
 10
64.2974
 20
-1152.67
 11
64.4325
 21
-1152.48
  0
LINE
  8
0
 10
64.4325
 20
-1152.48
 11
64.6034
 21
-1152.33
  0
LINE
  8
0
 10
64.6034
 20
-1152.33
 11
64.8026
 21
-1152.22
  0
LINE
  8
0
 10
64.8026
 20
-1152.22
 11
65.0213
 21
-1152.14
  0
LINE
  8
0
 10
65.0213
 20
-1152.14
 11
65.25
 21
-1152.12
  0
LINE
  8
0
 10
65.25
 20
-1152.12
 11
65.4787
 21
-1152.14
  0
LINE
  8
0
 10
65.4787
 20
-1152.14
 11
65.6974
 21
-1152.22
  0
LINE
  8
0
 10
65.6974
 20
-1152.22
 11
65.8966
 21
-1152.33
  0
LINE
  8
0
 10
65.8966
 20
-1152.33
 11
66.0675
 21
-1152.48
  0
LINE
  8
0
 10
66.0675
 20
-1152.48
 11
66.2026
 21
-1152.67
  0
LINE
  8
0
 10
66.2026
 20
-1152.67
 11
66.2962
 21
-1152.88
  0
LINE
  8
0
 10
66.2962
 20
-1152.88
 11
66.344
 21
-1153.1
  0
LINE
  8
0
 10
66.344
 20
-1153.1
 11
66.344
 21
-1153.33
  0
LINE
  8
0
 10
66.344
 20
-1153.33
 11
66.2962
 21
-1153.56
  0
LINE
  8
0
 10
66.2962
 20
-1153.56
 11
66.2026
 21
-1153.77
  0
LINE
  8
0
 10
66.2026
 20
-1153.77
 11
66.0675
 21
-1153.96
  0
LINE
  8
0
 10
66.0675
 20
-1153.96
 11
65.8966
 21
-1154.11
  0
LINE
  8
0
 10
65.8966
 20
-1154.11
 11
65.6974
 21
-1154.22
  0
LINE
  8
0
 10
65.6974
 20
-1154.22
 11
65.4787
 21
-1154.3
  0
LINE
  8
0
 10
65.4787
 20
-1154.3
 11
65.25
 21
-1154.32
  0
LINE
  8
0
 10
65.25
 20
-1154.32
 11
65.0213
 21
-1154.3
  0
LINE
  8
0
 10
-57.4787
 20
-1154.3
 11
-57.6974
 21
-1154.22
  0
LINE
  8
0
 10
-57.6974
 20
-1154.22
 11
-57.8966
 21
-1154.11
  0
LINE
  8
0
 10
-57.8966
 20
-1154.11
 11
-58.0675
 21
-1153.96
  0
LINE
  8
0
 10
-58.0675
 20
-1153.96
 11
-58.2026
 21
-1153.77
  0
LINE
  8
0
 10
-58.2026
 20
-1153.77
 11
-58.2962
 21
-1153.56
  0
LINE
  8
0
 10
-58.2962
 20
-1153.56
 11
-58.344
 21
-1153.33
  0
LINE
  8
0
 10
-58.344
 20
-1153.33
 11
-58.344
 21
-1153.1
  0
LINE
  8
0
 10
-58.344
 20
-1153.1
 11
-58.2962
 21
-1152.88
  0
LINE
  8
0
 10
-58.2962
 20
-1152.88
 11
-58.2026
 21
-1152.67
  0
LINE
  8
0
 10
-58.2026
 20
-1152.67
 11
-58.0675
 21
-1152.48
  0
LINE
  8
0
 10
-58.0675
 20
-1152.48
 11
-57.8966
 21
-1152.33
  0
LINE
  8
0
 10
-57.8966
 20
-1152.33
 11
-57.6974
 21
-1152.22
  0
LINE
  8
0
 10
-57.6974
 20
-1152.22
 11
-57.4787
 21
-1152.14
  0
LINE
  8
0
 10
-57.4787
 20
-1152.14
 11
-57.25
 21
-1152.12
  0
LINE
  8
0
 10
-57.25
 20
-1152.12
 11
-57.0213
 21
-1152.14
  0
LINE
  8
0
 10
-57.0213
 20
-1152.14
 11
-56.8026
 21
-1152.22
  0
LINE
  8
0
 10
-56.8026
 20
-1152.22
 11
-56.6034
 21
-1152.33
  0
LINE
  8
0
 10
-56.6034
 20
-1152.33
 11
-56.4325
 21
-1152.48
  0
LINE
  8
0
 10
-56.4325
 20
-1152.48
 11
-56.2974
 21
-1152.67
  0
LINE
  8
0
 10
-56.2974
 20
-1152.67
 11
-56.2038
 21
-1152.88
  0
LINE
  8
0
 10
-56.2038
 20
-1152.88
 11
-56.156
 21
-1153.1
  0
LINE
  8
0
 10
-56.156
 20
-1153.1
 11
-56.156
 21
-1153.33
  0
LINE
  8
0
 10
-56.156
 20
-1153.33
 11
-56.2038
 21
-1153.56
  0
LINE
  8
0
 10
-56.2038
 20
-1153.56
 11
-56.2974
 21
-1153.77
  0
LINE
  8
0
 10
-56.2974
 20
-1153.77
 11
-56.4325
 21
-1153.96
  0
LINE
  8
0
 10
-56.4325
 20
-1153.96
 11
-56.6034
 21
-1154.11
  0
LINE
  8
0
 10
-56.6034
 20
-1154.11
 11
-56.8026
 21
-1154.22
  0
LINE
  8
0
 10
-56.8026
 20
-1154.22
 11
-57.0213
 21
-1154.3
  0
LINE
  8
0
 10
-57.0213
 20
-1154.3
 11
-57.25
 21
-1154.32
  0
LINE
  8
0
 10
-57.25
 20
-1154.32
 11
-57.4787
 21
-1154.3
  0
LINE
  8
0
 10
65.0213
 20
-1159.38
 11
64.8026
 21
-1159.3
  0
LINE
  8
0
 10
64.8026
 20
-1159.3
 11
64.6034
 21
-1159.19
  0
LINE
  8
0
 10
64.6034
 20
-1159.19
 11
64.4325
 21
-1159.04
  0
LINE
  8
0
 10
64.4325
 20
-1159.04
 11
64.2974
 21
-1158.85
  0
LINE
  8
0
 10
64.2974
 20
-1158.85
 11
64.2038
 21
-1158.64
  0
LINE
  8
0
 10
64.2038
 20
-1158.64
 11
64.156
 21
-1158.42
  0
LINE
  8
0
 10
64.156
 20
-1158.42
 11
64.156
 21
-1158.19
  0
LINE
  8
0
 10
64.156
 20
-1158.19
 11
64.2038
 21
-1157.96
  0
LINE
  8
0
 10
64.2038
 20
-1157.96
 11
64.2974
 21
-1157.75
  0
LINE
  8
0
 10
64.2974
 20
-1157.75
 11
64.4325
 21
-1157.56
  0
LINE
  8
0
 10
64.4325
 20
-1157.56
 11
64.6034
 21
-1157.41
  0
LINE
  8
0
 10
64.6034
 20
-1157.41
 11
64.8026
 21
-1157.3
  0
LINE
  8
0
 10
64.8026
 20
-1157.3
 11
65.0213
 21
-1157.22
  0
LINE
  8
0
 10
65.0213
 20
-1157.22
 11
65.25
 21
-1157.2
  0
LINE
  8
0
 10
65.25
 20
-1157.2
 11
65.4787
 21
-1157.22
  0
LINE
  8
0
 10
65.4787
 20
-1157.22
 11
65.6974
 21
-1157.3
  0
LINE
  8
0
 10
65.6974
 20
-1157.3
 11
65.8966
 21
-1157.41
  0
LINE
  8
0
 10
65.8966
 20
-1157.41
 11
66.0675
 21
-1157.56
  0
LINE
  8
0
 10
66.0675
 20
-1157.56
 11
66.2026
 21
-1157.75
  0
LINE
  8
0
 10
66.2026
 20
-1157.75
 11
66.2962
 21
-1157.96
  0
LINE
  8
0
 10
66.2962
 20
-1157.96
 11
66.344
 21
-1158.19
  0
LINE
  8
0
 10
66.344
 20
-1158.19
 11
66.344
 21
-1158.42
  0
LINE
  8
0
 10
66.344
 20
-1158.42
 11
66.2962
 21
-1158.64
  0
LINE
  8
0
 10
66.2962
 20
-1158.64
 11
66.2026
 21
-1158.85
  0
LINE
  8
0
 10
66.2026
 20
-1158.85
 11
66.0675
 21
-1159.04
  0
LINE
  8
0
 10
66.0675
 20
-1159.04
 11
65.8966
 21
-1159.19
  0
LINE
  8
0
 10
65.8966
 20
-1159.19
 11
65.6974
 21
-1159.3
  0
LINE
  8
0
 10
65.6974
 20
-1159.3
 11
65.4787
 21
-1159.38
  0
LINE
  8
0
 10
65.4787
 20
-1159.38
 11
65.25
 21
-1159.4
  0
LINE
  8
0
 10
65.25
 20
-1159.4
 11
65.0213
 21
-1159.38
  0
LINE
  8
0
 10
-57.4787
 20
-1159.38
 11
-57.6974
 21
-1159.3
  0
LINE
  8
0
 10
-57.6974
 20
-1159.3
 11
-57.8966
 21
-1159.19
  0
LINE
  8
0
 10
-57.8966
 20
-1159.19
 11
-58.0675
 21
-1159.04
  0
LINE
  8
0
 10
-58.0675
 20
-1159.04
 11
-58.2026
 21
-1158.85
  0
LINE
  8
0
 10
-58.2026
 20
-1158.85
 11
-58.2962
 21
-1158.64
  0
LINE
  8
0
 10
-58.2962
 20
-1158.64
 11
-58.344
 21
-1158.42
  0
LINE
  8
0
 10
-58.344
 20
-1158.42
 11
-58.344
 21
-1158.19
  0
LINE
  8
0
 10
-58.344
 20
-1158.19
 11
-58.2962
 21
-1157.96
  0
LINE
  8
0
 10
-58.2962
 20
-1157.96
 11
-58.2026
 21
-1157.75
  0
LINE
  8
0
 10
-58.2026
 20
-1157.75
 11
-58.0675
 21
-1157.56
  0
LINE
  8
0
 10
-58.0675
 20
-1157.56
 11
-57.8966
 21
-1157.41
  0
LINE
  8
0
 10
-57.8966
 20
-1157.41
 11
-57.6974
 21
-1157.3
  0
LINE
  8
0
 10
-57.6974
 20
-1157.3
 11
-57.4787
 21
-1157.22
  0
LINE
  8
0
 10
-57.4787
 20
-1157.22
 11
-57.25
 21
-1157.2
  0
LINE
  8
0
 10
-57.25
 20
-1157.2
 11
-57.0213
 21
-1157.22
  0
LINE
  8
0
 10
-57.0213
 20
-1157.22
 11
-56.8026
 21
-1157.3
  0
LINE
  8
0
 10
-56.8026
 20
-1157.3
 11
-56.6034
 21
-1157.41
  0
LINE
  8
0
 10
-56.6034
 20
-1157.41
 11
-56.4325
 21
-1157.56
  0
LINE
  8
0
 10
-56.4325
 20
-1157.56
 11
-56.2974
 21
-1157.75
  0
LINE
  8
0
 10
-56.2974
 20
-1157.75
 11
-56.2038
 21
-1157.96
  0
LINE
  8
0
 10
-56.2038
 20
-1157.96
 11
-56.156
 21
-1158.19
  0
LINE
  8
0
 10
-56.156
 20
-1158.19
 11
-56.156
 21
-1158.42
  0
LINE
  8
0
 10
-56.156
 20
-1158.42
 11
-56.2038
 21
-1158.64
  0
LINE
  8
0
 10
-56.2038
 20
-1158.64
 11
-56.2974
 21
-1158.85
  0
LINE
  8
0
 10
-56.2974
 20
-1158.85
 11
-56.4325
 21
-1159.04
  0
LINE
  8
0
 10
-56.4325
 20
-1159.04
 11
-56.6034
 21
-1159.19
  0
LINE
  8
0
 10
-56.6034
 20
-1159.19
 11
-56.8026
 21
-1159.3
  0
LINE
  8
0
 10
-56.8026
 20
-1159.3
 11
-57.0213
 21
-1159.38
  0
LINE
  8
0
 10
-57.0213
 20
-1159.38
 11
-57.25
 21
-1159.4
  0
LINE
  8
0
 10
-57.25
 20
-1159.4
 11
-57.4787
 21
-1159.38
  0
LINE
  8
0
 10
-57.4787
 20
-1164.46
 11
-57.6974
 21
-1164.38
  0
LINE
  8
0
 10
-57.6974
 20
-1164.38
 11
-57.8966
 21
-1164.27
  0
LINE
  8
0
 10
-57.8966
 20
-1164.27
 11
-58.0675
 21
-1164.12
  0
LINE
  8
0
 10
-58.0675
 20
-1164.12
 11
-58.2026
 21
-1163.93
  0
LINE
  8
0
 10
-58.2026
 20
-1163.93
 11
-58.2962
 21
-1163.72
  0
LINE
  8
0
 10
-58.2962
 20
-1163.72
 11
-58.344
 21
-1163.49
  0
LINE
  8
0
 10
-58.344
 20
-1163.49
 11
-58.344
 21
-1163.27
  0
LINE
  8
0
 10
-58.344
 20
-1163.27
 11
-58.2962
 21
-1163.04
  0
LINE
  8
0
 10
-58.2962
 20
-1163.04
 11
-58.2026
 21
-1162.83
  0
LINE
  8
0
 10
-58.2026
 20
-1162.83
 11
-58.0675
 21
-1162.64
  0
LINE
  8
0
 10
-58.0675
 20
-1162.64
 11
-57.8966
 21
-1162.49
  0
LINE
  8
0
 10
-57.8966
 20
-1162.49
 11
-57.6974
 21
-1162.38
  0
LINE
  8
0
 10
-57.6974
 20
-1162.38
 11
-57.4787
 21
-1162.3
  0
LINE
  8
0
 10
-57.4787
 20
-1162.3
 11
-57.25
 21
-1162.28
  0
LINE
  8
0
 10
-57.25
 20
-1162.28
 11
-57.0213
 21
-1162.3
  0
LINE
  8
0
 10
-57.0213
 20
-1162.3
 11
-56.8026
 21
-1162.38
  0
LINE
  8
0
 10
-56.8026
 20
-1162.38
 11
-56.6034
 21
-1162.49
  0
LINE
  8
0
 10
-56.6034
 20
-1162.49
 11
-56.4325
 21
-1162.64
  0
LINE
  8
0
 10
-56.4325
 20
-1162.64
 11
-56.2974
 21
-1162.83
  0
LINE
  8
0
 10
-56.2974
 20
-1162.83
 11
-56.2038
 21
-1163.04
  0
LINE
  8
0
 10
-56.2038
 20
-1163.04
 11
-56.156
 21
-1163.27
  0
LINE
  8
0
 10
-56.156
 20
-1163.27
 11
-56.156
 21
-1163.49
  0
LINE
  8
0
 10
-56.156
 20
-1163.49
 11
-56.2038
 21
-1163.72
  0
LINE
  8
0
 10
-56.2038
 20
-1163.72
 11
-56.2974
 21
-1163.93
  0
LINE
  8
0
 10
-56.2974
 20
-1163.93
 11
-56.4325
 21
-1164.12
  0
LINE
  8
0
 10
-56.4325
 20
-1164.12
 11
-56.6034
 21
-1164.27
  0
LINE
  8
0
 10
-56.6034
 20
-1164.27
 11
-56.8026
 21
-1164.38
  0
LINE
  8
0
 10
-56.8026
 20
-1164.38
 11
-57.0213
 21
-1164.46
  0
LINE
  8
0
 10
-57.0213
 20
-1164.46
 11
-57.25
 21
-1164.48
  0
LINE
  8
0
 10
-57.25
 20
-1164.48
 11
-57.4787
 21
-1164.46
  0
LINE
  8
0
 10
65.0213
 20
-1164.46
 11
64.8026
 21
-1164.38
  0
LINE
  8
0
 10
64.8026
 20
-1164.38
 11
64.6034
 21
-1164.27
  0
LINE
  8
0
 10
64.6034
 20
-1164.27
 11
64.4325
 21
-1164.12
  0
LINE
  8
0
 10
64.4325
 20
-1164.12
 11
64.2974
 21
-1163.93
  0
LINE
  8
0
 10
64.2974
 20
-1163.93
 11
64.2038
 21
-1163.72
  0
LINE
  8
0
 10
64.2038
 20
-1163.72
 11
64.156
 21
-1163.49
  0
LINE
  8
0
 10
64.156
 20
-1163.49
 11
64.156
 21
-1163.27
  0
LINE
  8
0
 10
64.156
 20
-1163.27
 11
64.2038
 21
-1163.04
  0
LINE
  8
0
 10
64.2038
 20
-1163.04
 11
64.2974
 21
-1162.83
  0
LINE
  8
0
 10
64.2974
 20
-1162.83
 11
64.4325
 21
-1162.64
  0
LINE
  8
0
 10
64.4325
 20
-1162.64
 11
64.6034
 21
-1162.49
  0
LINE
  8
0
 10
64.6034
 20
-1162.49
 11
64.8026
 21
-1162.38
  0
LINE
  8
0
 10
64.8026
 20
-1162.38
 11
65.0213
 21
-1162.3
  0
LINE
  8
0
 10
65.0213
 20
-1162.3
 11
65.25
 21
-1162.28
  0
LINE
  8
0
 10
65.25
 20
-1162.28
 11
65.4787
 21
-1162.3
  0
LINE
  8
0
 10
65.4787
 20
-1162.3
 11
65.6974
 21
-1162.38
  0
LINE
  8
0
 10
65.6974
 20
-1162.38
 11
65.8966
 21
-1162.49
  0
LINE
  8
0
 10
65.8966
 20
-1162.49
 11
66.0675
 21
-1162.64
  0
LINE
  8
0
 10
66.0675
 20
-1162.64
 11
66.2026
 21
-1162.83
  0
LINE
  8
0
 10
66.2026
 20
-1162.83
 11
66.2962
 21
-1163.04
  0
LINE
  8
0
 10
66.2962
 20
-1163.04
 11
66.344
 21
-1163.27
  0
LINE
  8
0
 10
66.344
 20
-1163.27
 11
66.344
 21
-1163.49
  0
LINE
  8
0
 10
66.344
 20
-1163.49
 11
66.2962
 21
-1163.72
  0
LINE
  8
0
 10
66.2962
 20
-1163.72
 11
66.2026
 21
-1163.93
  0
LINE
  8
0
 10
66.2026
 20
-1163.93
 11
66.0675
 21
-1164.12
  0
LINE
  8
0
 10
66.0675
 20
-1164.12
 11
65.8966
 21
-1164.27
  0
LINE
  8
0
 10
65.8966
 20
-1164.27
 11
65.6974
 21
-1164.38
  0
LINE
  8
0
 10
65.6974
 20
-1164.38
 11
65.4787
 21
-1164.46
  0
LINE
  8
0
 10
65.4787
 20
-1164.46
 11
65.25
 21
-1164.48
  0
LINE
  8
0
 10
65.25
 20
-1164.48
 11
65.0213
 21
-1164.46
  0
LINE
  8
0
 10
-57.4787
 20
-1169.54
 11
-57.6974
 21
-1169.46
  0
LINE
  8
0
 10
-57.6974
 20
-1169.46
 11
-57.8966
 21
-1169.35
  0
LINE
  8
0
 10
-57.8966
 20
-1169.35
 11
-58.0675
 21
-1169.2
  0
LINE
  8
0
 10
-58.0675
 20
-1169.2
 11
-58.2026
 21
-1169.01
  0
LINE
  8
0
 10
-58.2026
 20
-1169.01
 11
-58.2962
 21
-1168.8
  0
LINE
  8
0
 10
-58.2962
 20
-1168.8
 11
-58.344
 21
-1168.57
  0
LINE
  8
0
 10
-58.344
 20
-1168.57
 11
-58.344
 21
-1168.34
  0
LINE
  8
0
 10
-58.344
 20
-1168.34
 11
-58.2962
 21
-1168.12
  0
LINE
  8
0
 10
-58.2962
 20
-1168.12
 11
-58.2026
 21
-1167.91
  0
LINE
  8
0
 10
-58.2026
 20
-1167.91
 11
-58.0675
 21
-1167.72
  0
LINE
  8
0
 10
-58.0675
 20
-1167.72
 11
-57.8966
 21
-1167.57
  0
LINE
  8
0
 10
-57.8966
 20
-1167.57
 11
-57.6974
 21
-1167.46
  0
LINE
  8
0
 10
-57.6974
 20
-1167.46
 11
-57.4787
 21
-1167.38
  0
LINE
  8
0
 10
-57.4787
 20
-1167.38
 11
-57.25
 21
-1167.36
  0
LINE
  8
0
 10
-57.25
 20
-1167.36
 11
-57.0213
 21
-1167.38
  0
LINE
  8
0
 10
-57.0213
 20
-1167.38
 11
-56.8026
 21
-1167.46
  0
LINE
  8
0
 10
-56.8026
 20
-1167.46
 11
-56.6034
 21
-1167.57
  0
LINE
  8
0
 10
-56.6034
 20
-1167.57
 11
-56.4325
 21
-1167.72
  0
LINE
  8
0
 10
-56.4325
 20
-1167.72
 11
-56.2974
 21
-1167.91
  0
LINE
  8
0
 10
-56.2974
 20
-1167.91
 11
-56.2038
 21
-1168.12
  0
LINE
  8
0
 10
-56.2038
 20
-1168.12
 11
-56.156
 21
-1168.34
  0
LINE
  8
0
 10
-56.156
 20
-1168.34
 11
-56.156
 21
-1168.57
  0
LINE
  8
0
 10
-56.156
 20
-1168.57
 11
-56.2038
 21
-1168.8
  0
LINE
  8
0
 10
-56.2038
 20
-1168.8
 11
-56.2974
 21
-1169.01
  0
LINE
  8
0
 10
-56.2974
 20
-1169.01
 11
-56.4325
 21
-1169.2
  0
LINE
  8
0
 10
-56.4325
 20
-1169.2
 11
-56.6034
 21
-1169.35
  0
LINE
  8
0
 10
-56.6034
 20
-1169.35
 11
-56.8026
 21
-1169.46
  0
LINE
  8
0
 10
-56.8026
 20
-1169.46
 11
-57.0213
 21
-1169.54
  0
LINE
  8
0
 10
-57.0213
 20
-1169.54
 11
-57.25
 21
-1169.56
  0
LINE
  8
0
 10
-57.25
 20
-1169.56
 11
-57.4787
 21
-1169.54
  0
LINE
  8
0
 10
65.0213
 20
-1169.54
 11
64.8026
 21
-1169.46
  0
LINE
  8
0
 10
64.8026
 20
-1169.46
 11
64.6034
 21
-1169.35
  0
LINE
  8
0
 10
64.6034
 20
-1169.35
 11
64.4325
 21
-1169.2
  0
LINE
  8
0
 10
64.4325
 20
-1169.2
 11
64.2974
 21
-1169.01
  0
LINE
  8
0
 10
64.2974
 20
-1169.01
 11
64.2038
 21
-1168.8
  0
LINE
  8
0
 10
64.2038
 20
-1168.8
 11
64.156
 21
-1168.57
  0
LINE
  8
0
 10
64.156
 20
-1168.57
 11
64.156
 21
-1168.34
  0
LINE
  8
0
 10
64.156
 20
-1168.34
 11
64.2038
 21
-1168.12
  0
LINE
  8
0
 10
64.2038
 20
-1168.12
 11
64.2974
 21
-1167.91
  0
LINE
  8
0
 10
64.2974
 20
-1167.91
 11
64.4325
 21
-1167.72
  0
LINE
  8
0
 10
64.4325
 20
-1167.72
 11
64.6034
 21
-1167.57
  0
LINE
  8
0
 10
64.6034
 20
-1167.57
 11
64.8026
 21
-1167.46
  0
LINE
  8
0
 10
64.8026
 20
-1167.46
 11
65.0213
 21
-1167.38
  0
LINE
  8
0
 10
65.0213
 20
-1167.38
 11
65.25
 21
-1167.36
  0
LINE
  8
0
 10
65.25
 20
-1167.36
 11
65.4787
 21
-1167.38
  0
LINE
  8
0
 10
65.4787
 20
-1167.38
 11
65.6974
 21
-1167.46
  0
LINE
  8
0
 10
65.6974
 20
-1167.46
 11
65.8966
 21
-1167.57
  0
LINE
  8
0
 10
65.8966
 20
-1167.57
 11
66.0675
 21
-1167.72
  0
LINE
  8
0
 10
66.0675
 20
-1167.72
 11
66.2026
 21
-1167.91
  0
LINE
  8
0
 10
66.2026
 20
-1167.91
 11
66.2962
 21
-1168.12
  0
LINE
  8
0
 10
66.2962
 20
-1168.12
 11
66.344
 21
-1168.34
  0
LINE
  8
0
 10
66.344
 20
-1168.34
 11
66.344
 21
-1168.57
  0
LINE
  8
0
 10
66.344
 20
-1168.57
 11
66.2962
 21
-1168.8
  0
LINE
  8
0
 10
66.2962
 20
-1168.8
 11
66.2026
 21
-1169.01
  0
LINE
  8
0
 10
66.2026
 20
-1169.01
 11
66.0675
 21
-1169.2
  0
LINE
  8
0
 10
66.0675
 20
-1169.2
 11
65.8966
 21
-1169.35
  0
LINE
  8
0
 10
65.8966
 20
-1169.35
 11
65.6974
 21
-1169.46
  0
LINE
  8
0
 10
65.6974
 20
-1169.46
 11
65.4787
 21
-1169.54
  0
LINE
  8
0
 10
65.4787
 20
-1169.54
 11
65.25
 21
-1169.56
  0
LINE
  8
0
 10
65.25
 20
-1169.56
 11
65.0213
 21
-1169.54
  0
LINE
  8
0
 10
-57.4787
 20
-1174.62
 11
-57.6974
 21
-1174.54
  0
LINE
  8
0
 10
-57.6974
 20
-1174.54
 11
-57.8966
 21
-1174.43
  0
LINE
  8
0
 10
-57.8966
 20
-1174.43
 11
-58.0675
 21
-1174.28
  0
LINE
  8
0
 10
-58.0675
 20
-1174.28
 11
-58.2026
 21
-1174.09
  0
LINE
  8
0
 10
-58.2026
 20
-1174.09
 11
-58.2962
 21
-1173.88
  0
LINE
  8
0
 10
-58.2962
 20
-1173.88
 11
-58.344
 21
-1173.66
  0
LINE
  8
0
 10
-58.344
 20
-1173.66
 11
-58.344
 21
-1173.43
  0
LINE
  8
0
 10
-58.344
 20
-1173.43
 11
-58.2962
 21
-1173.2
  0
LINE
  8
0
 10
-58.2962
 20
-1173.2
 11
-58.2026
 21
-1172.99
  0
LINE
  8
0
 10
-58.2026
 20
-1172.99
 11
-58.0675
 21
-1172.8
  0
LINE
  8
0
 10
-58.0675
 20
-1172.8
 11
-57.8966
 21
-1172.65
  0
LINE
  8
0
 10
-57.8966
 20
-1172.65
 11
-57.6974
 21
-1172.54
  0
LINE
  8
0
 10
-57.6974
 20
-1172.54
 11
-57.4787
 21
-1172.46
  0
LINE
  8
0
 10
-57.4787
 20
-1172.46
 11
-57.25
 21
-1172.44
  0
LINE
  8
0
 10
-57.25
 20
-1172.44
 11
-57.0213
 21
-1172.46
  0
LINE
  8
0
 10
-57.0213
 20
-1172.46
 11
-56.8026
 21
-1172.54
  0
LINE
  8
0
 10
-56.8026
 20
-1172.54
 11
-56.6034
 21
-1172.65
  0
LINE
  8
0
 10
-56.6034
 20
-1172.65
 11
-56.4325
 21
-1172.8
  0
LINE
  8
0
 10
-56.4325
 20
-1172.8
 11
-56.2974
 21
-1172.99
  0
LINE
  8
0
 10
-56.2974
 20
-1172.99
 11
-56.2038
 21
-1173.2
  0
LINE
  8
0
 10
-56.2038
 20
-1173.2
 11
-56.156
 21
-1173.43
  0
LINE
  8
0
 10
-56.156
 20
-1173.43
 11
-56.156
 21
-1173.66
  0
LINE
  8
0
 10
-56.156
 20
-1173.66
 11
-56.2038
 21
-1173.88
  0
LINE
  8
0
 10
-56.2038
 20
-1173.88
 11
-56.2974
 21
-1174.09
  0
LINE
  8
0
 10
-56.2974
 20
-1174.09
 11
-56.4325
 21
-1174.28
  0
LINE
  8
0
 10
-56.4325
 20
-1174.28
 11
-56.6034
 21
-1174.43
  0
LINE
  8
0
 10
-56.6034
 20
-1174.43
 11
-56.8026
 21
-1174.54
  0
LINE
  8
0
 10
-56.8026
 20
-1174.54
 11
-57.0213
 21
-1174.62
  0
LINE
  8
0
 10
-57.0213
 20
-1174.62
 11
-57.25
 21
-1174.64
  0
LINE
  8
0
 10
-57.25
 20
-1174.64
 11
-57.4787
 21
-1174.62
  0
LINE
  8
0
 10
65.0213
 20
-1174.62
 11
64.8026
 21
-1174.54
  0
LINE
  8
0
 10
64.8026
 20
-1174.54
 11
64.6034
 21
-1174.43
  0
LINE
  8
0
 10
64.6034
 20
-1174.43
 11
64.4325
 21
-1174.28
  0
LINE
  8
0
 10
64.4325
 20
-1174.28
 11
64.2974
 21
-1174.09
  0
LINE
  8
0
 10
64.2974
 20
-1174.09
 11
64.2038
 21
-1173.88
  0
LINE
  8
0
 10
64.2038
 20
-1173.88
 11
64.156
 21
-1173.66
  0
LINE
  8
0
 10
64.156
 20
-1173.66
 11
64.156
 21
-1173.43
  0
LINE
  8
0
 10
64.156
 20
-1173.43
 11
64.2038
 21
-1173.2
  0
LINE
  8
0
 10
64.2038
 20
-1173.2
 11
64.2974
 21
-1172.99
  0
LINE
  8
0
 10
64.2974
 20
-1172.99
 11
64.4325
 21
-1172.8
  0
LINE
  8
0
 10
64.4325
 20
-1172.8
 11
64.6034
 21
-1172.65
  0
LINE
  8
0
 10
64.6034
 20
-1172.65
 11
64.8026
 21
-1172.54
  0
LINE
  8
0
 10
64.8026
 20
-1172.54
 11
65.0213
 21
-1172.46
  0
LINE
  8
0
 10
65.0213
 20
-1172.46
 11
65.25
 21
-1172.44
  0
LINE
  8
0
 10
65.25
 20
-1172.44
 11
65.4787
 21
-1172.46
  0
LINE
  8
0
 10
65.4787
 20
-1172.46
 11
65.6974
 21
-1172.54
  0
LINE
  8
0
 10
65.6974
 20
-1172.54
 11
65.8966
 21
-1172.65
  0
LINE
  8
0
 10
65.8966
 20
-1172.65
 11
66.0675
 21
-1172.8
  0
LINE
  8
0
 10
66.0675
 20
-1172.8
 11
66.2026
 21
-1172.99
  0
LINE
  8
0
 10
66.2026
 20
-1172.99
 11
66.2962
 21
-1173.2
  0
LINE
  8
0
 10
66.2962
 20
-1173.2
 11
66.344
 21
-1173.43
  0
LINE
  8
0
 10
66.344
 20
-1173.43
 11
66.344
 21
-1173.66
  0
LINE
  8
0
 10
66.344
 20
-1173.66
 11
66.2962
 21
-1173.88
  0
LINE
  8
0
 10
66.2962
 20
-1173.88
 11
66.2026
 21
-1174.09
  0
LINE
  8
0
 10
66.2026
 20
-1174.09
 11
66.0675
 21
-1174.28
  0
LINE
  8
0
 10
66.0675
 20
-1174.28
 11
65.8966
 21
-1174.43
  0
LINE
  8
0
 10
65.8966
 20
-1174.43
 11
65.6974
 21
-1174.54
  0
LINE
  8
0
 10
65.6974
 20
-1174.54
 11
65.4787
 21
-1174.62
  0
LINE
  8
0
 10
65.4787
 20
-1174.62
 11
65.25
 21
-1174.64
  0
LINE
  8
0
 10
65.25
 20
-1174.64
 11
65.0213
 21
-1174.62
  0
LINE
  8
0
 10
-57.4787
 20
-1179.7
 11
-57.6974
 21
-1179.62
  0
LINE
  8
0
 10
-57.6974
 20
-1179.62
 11
-57.8966
 21
-1179.51
  0
LINE
  8
0
 10
-57.8966
 20
-1179.51
 11
-58.0675
 21
-1179.36
  0
LINE
  8
0
 10
-58.0675
 20
-1179.36
 11
-58.2026
 21
-1179.17
  0
LINE
  8
0
 10
-58.2026
 20
-1179.17
 11
-58.2962
 21
-1178.96
  0
LINE
  8
0
 10
-58.2962
 20
-1178.96
 11
-58.344
 21
-1178.73
  0
LINE
  8
0
 10
-58.344
 20
-1178.73
 11
-58.344
 21
-1178.51
  0
LINE
  8
0
 10
-58.344
 20
-1178.51
 11
-58.2962
 21
-1178.28
  0
LINE
  8
0
 10
-58.2962
 20
-1178.28
 11
-58.2026
 21
-1178.07
  0
LINE
  8
0
 10
-58.2026
 20
-1178.07
 11
-58.0675
 21
-1177.88
  0
LINE
  8
0
 10
-58.0675
 20
-1177.88
 11
-57.8966
 21
-1177.73
  0
LINE
  8
0
 10
-57.8966
 20
-1177.73
 11
-57.6974
 21
-1177.62
  0
LINE
  8
0
 10
-57.6974
 20
-1177.62
 11
-57.4787
 21
-1177.54
  0
LINE
  8
0
 10
-57.4787
 20
-1177.54
 11
-57.25
 21
-1177.52
  0
LINE
  8
0
 10
-57.25
 20
-1177.52
 11
-57.0213
 21
-1177.54
  0
LINE
  8
0
 10
-57.0213
 20
-1177.54
 11
-56.8026
 21
-1177.62
  0
LINE
  8
0
 10
-56.8026
 20
-1177.62
 11
-56.6034
 21
-1177.73
  0
LINE
  8
0
 10
-56.6034
 20
-1177.73
 11
-56.4325
 21
-1177.88
  0
LINE
  8
0
 10
-56.4325
 20
-1177.88
 11
-56.2974
 21
-1178.07
  0
LINE
  8
0
 10
-56.2974
 20
-1178.07
 11
-56.2038
 21
-1178.28
  0
LINE
  8
0
 10
-56.2038
 20
-1178.28
 11
-56.156
 21
-1178.51
  0
LINE
  8
0
 10
-56.156
 20
-1178.51
 11
-56.156
 21
-1178.73
  0
LINE
  8
0
 10
-56.156
 20
-1178.73
 11
-56.2038
 21
-1178.96
  0
LINE
  8
0
 10
-56.2038
 20
-1178.96
 11
-56.2974
 21
-1179.17
  0
LINE
  8
0
 10
-56.2974
 20
-1179.17
 11
-56.4325
 21
-1179.36
  0
LINE
  8
0
 10
-56.4325
 20
-1179.36
 11
-56.6034
 21
-1179.51
  0
LINE
  8
0
 10
-56.6034
 20
-1179.51
 11
-56.8026
 21
-1179.62
  0
LINE
  8
0
 10
-56.8026
 20
-1179.62
 11
-57.0213
 21
-1179.7
  0
LINE
  8
0
 10
-57.0213
 20
-1179.7
 11
-57.25
 21
-1179.72
  0
LINE
  8
0
 10
-57.25
 20
-1179.72
 11
-57.4787
 21
-1179.7
  0
LINE
  8
0
 10
65.0213
 20
-1179.7
 11
64.8026
 21
-1179.62
  0
LINE
  8
0
 10
64.8026
 20
-1179.62
 11
64.6034
 21
-1179.51
  0
LINE
  8
0
 10
64.6034
 20
-1179.51
 11
64.4325
 21
-1179.36
  0
LINE
  8
0
 10
64.4325
 20
-1179.36
 11
64.2974
 21
-1179.17
  0
LINE
  8
0
 10
64.2974
 20
-1179.17
 11
64.2038
 21
-1178.96
  0
LINE
  8
0
 10
64.2038
 20
-1178.96
 11
64.156
 21
-1178.73
  0
LINE
  8
0
 10
64.156
 20
-1178.73
 11
64.156
 21
-1178.51
  0
LINE
  8
0
 10
64.156
 20
-1178.51
 11
64.2038
 21
-1178.28
  0
LINE
  8
0
 10
64.2038
 20
-1178.28
 11
64.2974
 21
-1178.07
  0
LINE
  8
0
 10
64.2974
 20
-1178.07
 11
64.4325
 21
-1177.88
  0
LINE
  8
0
 10
64.4325
 20
-1177.88
 11
64.6034
 21
-1177.73
  0
LINE
  8
0
 10
64.6034
 20
-1177.73
 11
64.8026
 21
-1177.62
  0
LINE
  8
0
 10
64.8026
 20
-1177.62
 11
65.0213
 21
-1177.54
  0
LINE
  8
0
 10
65.0213
 20
-1177.54
 11
65.25
 21
-1177.52
  0
LINE
  8
0
 10
65.25
 20
-1177.52
 11
65.4787
 21
-1177.54
  0
LINE
  8
0
 10
65.4787
 20
-1177.54
 11
65.6974
 21
-1177.62
  0
LINE
  8
0
 10
65.6974
 20
-1177.62
 11
65.8966
 21
-1177.73
  0
LINE
  8
0
 10
65.8966
 20
-1177.73
 11
66.0675
 21
-1177.88
  0
LINE
  8
0
 10
66.0675
 20
-1177.88
 11
66.2026
 21
-1178.07
  0
LINE
  8
0
 10
66.2026
 20
-1178.07
 11
66.2962
 21
-1178.28
  0
LINE
  8
0
 10
66.2962
 20
-1178.28
 11
66.344
 21
-1178.51
  0
LINE
  8
0
 10
66.344
 20
-1178.51
 11
66.344
 21
-1178.73
  0
LINE
  8
0
 10
66.344
 20
-1178.73
 11
66.2962
 21
-1178.96
  0
LINE
  8
0
 10
66.2962
 20
-1178.96
 11
66.2026
 21
-1179.17
  0
LINE
  8
0
 10
66.2026
 20
-1179.17
 11
66.0675
 21
-1179.36
  0
LINE
  8
0
 10
66.0675
 20
-1179.36
 11
65.8966
 21
-1179.51
  0
LINE
  8
0
 10
65.8966
 20
-1179.51
 11
65.6974
 21
-1179.62
  0
LINE
  8
0
 10
65.6974
 20
-1179.62
 11
65.4787
 21
-1179.7
  0
LINE
  8
0
 10
65.4787
 20
-1179.7
 11
65.25
 21
-1179.72
  0
LINE
  8
0
 10
65.25
 20
-1179.72
 11
65.0213
 21
-1179.7
  0
LINE
  8
0
 10
-57.4787
 20
-1184.78
 11
-57.6974
 21
-1184.7
  0
LINE
  8
0
 10
-57.6974
 20
-1184.7
 11
-57.8966
 21
-1184.59
  0
LINE
  8
0
 10
-57.8966
 20
-1184.59
 11
-58.0675
 21
-1184.44
  0
LINE
  8
0
 10
-58.0675
 20
-1184.44
 11
-58.2026
 21
-1184.25
  0
LINE
  8
0
 10
-58.2026
 20
-1184.25
 11
-58.2962
 21
-1184.04
  0
LINE
  8
0
 10
-58.2962
 20
-1184.04
 11
-58.344
 21
-1183.81
  0
LINE
  8
0
 10
-58.344
 20
-1183.81
 11
-58.344
 21
-1183.58
  0
LINE
  8
0
 10
-58.344
 20
-1183.58
 11
-58.2962
 21
-1183.36
  0
LINE
  8
0
 10
-58.2962
 20
-1183.36
 11
-58.2026
 21
-1183.15
  0
LINE
  8
0
 10
-58.2026
 20
-1183.15
 11
-58.0675
 21
-1182.96
  0
LINE
  8
0
 10
-58.0675
 20
-1182.96
 11
-57.8966
 21
-1182.81
  0
LINE
  8
0
 10
-57.8966
 20
-1182.81
 11
-57.6974
 21
-1182.7
  0
LINE
  8
0
 10
-57.6974
 20
-1182.7
 11
-57.4787
 21
-1182.62
  0
LINE
  8
0
 10
-57.4787
 20
-1182.62
 11
-57.25
 21
-1182.6
  0
LINE
  8
0
 10
-57.25
 20
-1182.6
 11
-57.0213
 21
-1182.62
  0
LINE
  8
0
 10
-57.0213
 20
-1182.62
 11
-56.8026
 21
-1182.7
  0
LINE
  8
0
 10
-56.8026
 20
-1182.7
 11
-56.6034
 21
-1182.81
  0
LINE
  8
0
 10
-56.6034
 20
-1182.81
 11
-56.4325
 21
-1182.96
  0
LINE
  8
0
 10
-56.4325
 20
-1182.96
 11
-56.2974
 21
-1183.15
  0
LINE
  8
0
 10
-56.2974
 20
-1183.15
 11
-56.2038
 21
-1183.36
  0
LINE
  8
0
 10
-56.2038
 20
-1183.36
 11
-56.156
 21
-1183.58
  0
LINE
  8
0
 10
-56.156
 20
-1183.58
 11
-56.156
 21
-1183.81
  0
LINE
  8
0
 10
-56.156
 20
-1183.81
 11
-56.2038
 21
-1184.04
  0
LINE
  8
0
 10
-56.2038
 20
-1184.04
 11
-56.2974
 21
-1184.25
  0
LINE
  8
0
 10
-56.2974
 20
-1184.25
 11
-56.4325
 21
-1184.44
  0
LINE
  8
0
 10
-56.4325
 20
-1184.44
 11
-56.6034
 21
-1184.59
  0
LINE
  8
0
 10
-56.6034
 20
-1184.59
 11
-56.8026
 21
-1184.7
  0
LINE
  8
0
 10
-56.8026
 20
-1184.7
 11
-57.0213
 21
-1184.78
  0
LINE
  8
0
 10
-57.0213
 20
-1184.78
 11
-57.25
 21
-1184.8
  0
LINE
  8
0
 10
-57.25
 20
-1184.8
 11
-57.4787
 21
-1184.78
  0
LINE
  8
0
 10
65.0213
 20
-1184.78
 11
64.8026
 21
-1184.7
  0
LINE
  8
0
 10
64.8026
 20
-1184.7
 11
64.6034
 21
-1184.59
  0
LINE
  8
0
 10
64.6034
 20
-1184.59
 11
64.4325
 21
-1184.44
  0
LINE
  8
0
 10
64.4325
 20
-1184.44
 11
64.2974
 21
-1184.25
  0
LINE
  8
0
 10
64.2974
 20
-1184.25
 11
64.2038
 21
-1184.04
  0
LINE
  8
0
 10
64.2038
 20
-1184.04
 11
64.156
 21
-1183.81
  0
LINE
  8
0
 10
64.156
 20
-1183.81
 11
64.156
 21
-1183.58
  0
LINE
  8
0
 10
64.156
 20
-1183.58
 11
64.2038
 21
-1183.36
  0
LINE
  8
0
 10
64.2038
 20
-1183.36
 11
64.2974
 21
-1183.15
  0
LINE
  8
0
 10
64.2974
 20
-1183.15
 11
64.4325
 21
-1182.96
  0
LINE
  8
0
 10
64.4325
 20
-1182.96
 11
64.6034
 21
-1182.81
  0
LINE
  8
0
 10
64.6034
 20
-1182.81
 11
64.8026
 21
-1182.7
  0
LINE
  8
0
 10
64.8026
 20
-1182.7
 11
65.0213
 21
-1182.62
  0
LINE
  8
0
 10
65.0213
 20
-1182.62
 11
65.25
 21
-1182.6
  0
LINE
  8
0
 10
65.25
 20
-1182.6
 11
65.4787
 21
-1182.62
  0
LINE
  8
0
 10
65.4787
 20
-1182.62
 11
65.6974
 21
-1182.7
  0
LINE
  8
0
 10
65.6974
 20
-1182.7
 11
65.8966
 21
-1182.81
  0
LINE
  8
0
 10
65.8966
 20
-1182.81
 11
66.0675
 21
-1182.96
  0
LINE
  8
0
 10
66.0675
 20
-1182.96
 11
66.2026
 21
-1183.15
  0
LINE
  8
0
 10
66.2026
 20
-1183.15
 11
66.2962
 21
-1183.36
  0
LINE
  8
0
 10
66.2962
 20
-1183.36
 11
66.344
 21
-1183.58
  0
LINE
  8
0
 10
66.344
 20
-1183.58
 11
66.344
 21
-1183.81
  0
LINE
  8
0
 10
66.344
 20
-1183.81
 11
66.2962
 21
-1184.04
  0
LINE
  8
0
 10
66.2962
 20
-1184.04
 11
66.2026
 21
-1184.25
  0
LINE
  8
0
 10
66.2026
 20
-1184.25
 11
66.0675
 21
-1184.44
  0
LINE
  8
0
 10
66.0675
 20
-1184.44
 11
65.8966
 21
-1184.59
  0
LINE
  8
0
 10
65.8966
 20
-1184.59
 11
65.6974
 21
-1184.7
  0
LINE
  8
0
 10
65.6974
 20
-1184.7
 11
65.4787
 21
-1184.78
  0
LINE
  8
0
 10
65.4787
 20
-1184.78
 11
65.25
 21
-1184.8
  0
LINE
  8
0
 10
65.25
 20
-1184.8
 11
65.0213
 21
-1184.78
  0
LINE
  8
0
 10
-57.4787
 20
-1189.86
 11
-57.6974
 21
-1189.78
  0
LINE
  8
0
 10
-57.6974
 20
-1189.78
 11
-57.8966
 21
-1189.67
  0
LINE
  8
0
 10
-57.8966
 20
-1189.67
 11
-58.0675
 21
-1189.52
  0
LINE
  8
0
 10
-58.0675
 20
-1189.52
 11
-58.2026
 21
-1189.33
  0
LINE
  8
0
 10
-58.2026
 20
-1189.33
 11
-58.2962
 21
-1189.12
  0
LINE
  8
0
 10
-58.2962
 20
-1189.12
 11
-58.344
 21
-1188.9
  0
LINE
  8
0
 10
-58.344
 20
-1188.9
 11
-58.344
 21
-1188.67
  0
LINE
  8
0
 10
-58.344
 20
-1188.67
 11
-58.2962
 21
-1188.44
  0
LINE
  8
0
 10
-58.2962
 20
-1188.44
 11
-58.2026
 21
-1188.23
  0
LINE
  8
0
 10
-58.2026
 20
-1188.23
 11
-58.0675
 21
-1188.04
  0
LINE
  8
0
 10
-58.0675
 20
-1188.04
 11
-57.8966
 21
-1187.89
  0
LINE
  8
0
 10
-57.8966
 20
-1187.89
 11
-57.6974
 21
-1187.78
  0
LINE
  8
0
 10
-57.6974
 20
-1187.78
 11
-57.4787
 21
-1187.7
  0
LINE
  8
0
 10
-57.4787
 20
-1187.7
 11
-57.25
 21
-1187.68
  0
LINE
  8
0
 10
-57.25
 20
-1187.68
 11
-57.0213
 21
-1187.7
  0
LINE
  8
0
 10
-57.0213
 20
-1187.7
 11
-56.8026
 21
-1187.78
  0
LINE
  8
0
 10
-56.8026
 20
-1187.78
 11
-56.6034
 21
-1187.89
  0
LINE
  8
0
 10
-56.6034
 20
-1187.89
 11
-56.4325
 21
-1188.04
  0
LINE
  8
0
 10
-56.4325
 20
-1188.04
 11
-56.2974
 21
-1188.23
  0
LINE
  8
0
 10
-56.2974
 20
-1188.23
 11
-56.2038
 21
-1188.44
  0
LINE
  8
0
 10
-56.2038
 20
-1188.44
 11
-56.156
 21
-1188.67
  0
LINE
  8
0
 10
-56.156
 20
-1188.67
 11
-56.156
 21
-1188.9
  0
LINE
  8
0
 10
-56.156
 20
-1188.9
 11
-56.2038
 21
-1189.12
  0
LINE
  8
0
 10
-56.2038
 20
-1189.12
 11
-56.2974
 21
-1189.33
  0
LINE
  8
0
 10
-56.2974
 20
-1189.33
 11
-56.4325
 21
-1189.52
  0
LINE
  8
0
 10
-56.4325
 20
-1189.52
 11
-56.6034
 21
-1189.67
  0
LINE
  8
0
 10
-56.6034
 20
-1189.67
 11
-56.8026
 21
-1189.78
  0
LINE
  8
0
 10
-56.8026
 20
-1189.78
 11
-57.0213
 21
-1189.86
  0
LINE
  8
0
 10
-57.0213
 20
-1189.86
 11
-57.25
 21
-1189.88
  0
LINE
  8
0
 10
-57.25
 20
-1189.88
 11
-57.4787
 21
-1189.86
  0
LINE
  8
0
 10
65.0213
 20
-1189.86
 11
64.8026
 21
-1189.78
  0
LINE
  8
0
 10
64.8026
 20
-1189.78
 11
64.6034
 21
-1189.67
  0
LINE
  8
0
 10
64.6034
 20
-1189.67
 11
64.4325
 21
-1189.52
  0
LINE
  8
0
 10
64.4325
 20
-1189.52
 11
64.2974
 21
-1189.33
  0
LINE
  8
0
 10
64.2974
 20
-1189.33
 11
64.2038
 21
-1189.12
  0
LINE
  8
0
 10
64.2038
 20
-1189.12
 11
64.156
 21
-1188.9
  0
LINE
  8
0
 10
64.156
 20
-1188.9
 11
64.156
 21
-1188.67
  0
LINE
  8
0
 10
64.156
 20
-1188.67
 11
64.2038
 21
-1188.44
  0
LINE
  8
0
 10
64.2038
 20
-1188.44
 11
64.2974
 21
-1188.23
  0
LINE
  8
0
 10
64.2974
 20
-1188.23
 11
64.4325
 21
-1188.04
  0
LINE
  8
0
 10
64.4325
 20
-1188.04
 11
64.6034
 21
-1187.89
  0
LINE
  8
0
 10
64.6034
 20
-1187.89
 11
64.8026
 21
-1187.78
  0
LINE
  8
0
 10
64.8026
 20
-1187.78
 11
65.0213
 21
-1187.7
  0
LINE
  8
0
 10
65.0213
 20
-1187.7
 11
65.25
 21
-1187.68
  0
LINE
  8
0
 10
65.25
 20
-1187.68
 11
65.4787
 21
-1187.7
  0
LINE
  8
0
 10
65.4787
 20
-1187.7
 11
65.6974
 21
-1187.78
  0
LINE
  8
0
 10
65.6974
 20
-1187.78
 11
65.8966
 21
-1187.89
  0
LINE
  8
0
 10
65.8966
 20
-1187.89
 11
66.0675
 21
-1188.04
  0
LINE
  8
0
 10
66.0675
 20
-1188.04
 11
66.2026
 21
-1188.23
  0
LINE
  8
0
 10
66.2026
 20
-1188.23
 11
66.2962
 21
-1188.44
  0
LINE
  8
0
 10
66.2962
 20
-1188.44
 11
66.344
 21
-1188.67
  0
LINE
  8
0
 10
66.344
 20
-1188.67
 11
66.344
 21
-1188.9
  0
LINE
  8
0
 10
66.344
 20
-1188.9
 11
66.2962
 21
-1189.12
  0
LINE
  8
0
 10
66.2962
 20
-1189.12
 11
66.2026
 21
-1189.33
  0
LINE
  8
0
 10
66.2026
 20
-1189.33
 11
66.0675
 21
-1189.52
  0
LINE
  8
0
 10
66.0675
 20
-1189.52
 11
65.8966
 21
-1189.67
  0
LINE
  8
0
 10
65.8966
 20
-1189.67
 11
65.6974
 21
-1189.78
  0
LINE
  8
0
 10
65.6974
 20
-1189.78
 11
65.4787
 21
-1189.86
  0
LINE
  8
0
 10
65.4787
 20
-1189.86
 11
65.25
 21
-1189.88
  0
LINE
  8
0
 10
65.25
 20
-1189.88
 11
65.0213
 21
-1189.86
  0
LINE
  8
0
 10
65.0213
 20
-1194.94
 11
64.8026
 21
-1194.86
  0
LINE
  8
0
 10
64.8026
 20
-1194.86
 11
64.6034
 21
-1194.75
  0
LINE
  8
0
 10
64.6034
 20
-1194.75
 11
64.4325
 21
-1194.6
  0
LINE
  8
0
 10
64.4325
 20
-1194.6
 11
64.2974
 21
-1194.41
  0
LINE
  8
0
 10
64.2974
 20
-1194.41
 11
64.2038
 21
-1194.2
  0
LINE
  8
0
 10
64.2038
 20
-1194.2
 11
64.156
 21
-1193.97
  0
LINE
  8
0
 10
64.156
 20
-1193.97
 11
64.156
 21
-1193.74
  0
LINE
  8
0
 10
64.156
 20
-1193.74
 11
64.2038
 21
-1193.52
  0
LINE
  8
0
 10
64.2038
 20
-1193.52
 11
64.2974
 21
-1193.31
  0
LINE
  8
0
 10
64.2974
 20
-1193.31
 11
64.4325
 21
-1193.12
  0
LINE
  8
0
 10
64.4325
 20
-1193.12
 11
64.6034
 21
-1192.97
  0
LINE
  8
0
 10
64.6034
 20
-1192.97
 11
64.8026
 21
-1192.86
  0
LINE
  8
0
 10
64.8026
 20
-1192.86
 11
65.0213
 21
-1192.78
  0
LINE
  8
0
 10
65.0213
 20
-1192.78
 11
65.25
 21
-1192.76
  0
LINE
  8
0
 10
65.25
 20
-1192.76
 11
65.4787
 21
-1192.78
  0
LINE
  8
0
 10
65.4787
 20
-1192.78
 11
65.6974
 21
-1192.86
  0
LINE
  8
0
 10
65.6974
 20
-1192.86
 11
65.8966
 21
-1192.97
  0
LINE
  8
0
 10
65.8966
 20
-1192.97
 11
66.0675
 21
-1193.12
  0
LINE
  8
0
 10
66.0675
 20
-1193.12
 11
66.2026
 21
-1193.31
  0
LINE
  8
0
 10
66.2026
 20
-1193.31
 11
66.2962
 21
-1193.52
  0
LINE
  8
0
 10
66.2962
 20
-1193.52
 11
66.344
 21
-1193.74
  0
LINE
  8
0
 10
66.344
 20
-1193.74
 11
66.344
 21
-1193.97
  0
LINE
  8
0
 10
66.344
 20
-1193.97
 11
66.2962
 21
-1194.2
  0
LINE
  8
0
 10
66.2962
 20
-1194.2
 11
66.2026
 21
-1194.41
  0
LINE
  8
0
 10
66.2026
 20
-1194.41
 11
66.0675
 21
-1194.6
  0
LINE
  8
0
 10
66.0675
 20
-1194.6
 11
65.8966
 21
-1194.75
  0
LINE
  8
0
 10
65.8966
 20
-1194.75
 11
65.6974
 21
-1194.86
  0
LINE
  8
0
 10
65.6974
 20
-1194.86
 11
65.4787
 21
-1194.94
  0
LINE
  8
0
 10
65.4787
 20
-1194.94
 11
65.25
 21
-1194.96
  0
LINE
  8
0
 10
65.25
 20
-1194.96
 11
65.0213
 21
-1194.94
  0
LINE
  8
0
 10
-57.4787
 20
-1194.94
 11
-57.6974
 21
-1194.86
  0
LINE
  8
0
 10
-57.6974
 20
-1194.86
 11
-57.8966
 21
-1194.75
  0
LINE
  8
0
 10
-57.8966
 20
-1194.75
 11
-58.0675
 21
-1194.6
  0
LINE
  8
0
 10
-58.0675
 20
-1194.6
 11
-58.2026
 21
-1194.41
  0
LINE
  8
0
 10
-58.2026
 20
-1194.41
 11
-58.2962
 21
-1194.2
  0
LINE
  8
0
 10
-58.2962
 20
-1194.2
 11
-58.344
 21
-1193.97
  0
LINE
  8
0
 10
-58.344
 20
-1193.97
 11
-58.344
 21
-1193.74
  0
LINE
  8
0
 10
-58.344
 20
-1193.74
 11
-58.2962
 21
-1193.52
  0
LINE
  8
0
 10
-58.2962
 20
-1193.52
 11
-58.2026
 21
-1193.31
  0
LINE
  8
0
 10
-58.2026
 20
-1193.31
 11
-58.0675
 21
-1193.12
  0
LINE
  8
0
 10
-58.0675
 20
-1193.12
 11
-57.8966
 21
-1192.97
  0
LINE
  8
0
 10
-57.8966
 20
-1192.97
 11
-57.6974
 21
-1192.86
  0
LINE
  8
0
 10
-57.6974
 20
-1192.86
 11
-57.4787
 21
-1192.78
  0
LINE
  8
0
 10
-57.4787
 20
-1192.78
 11
-57.25
 21
-1192.76
  0
LINE
  8
0
 10
-57.25
 20
-1192.76
 11
-57.0213
 21
-1192.78
  0
LINE
  8
0
 10
-57.0213
 20
-1192.78
 11
-56.8026
 21
-1192.86
  0
LINE
  8
0
 10
-56.8026
 20
-1192.86
 11
-56.6034
 21
-1192.97
  0
LINE
  8
0
 10
-56.6034
 20
-1192.97
 11
-56.4325
 21
-1193.12
  0
LINE
  8
0
 10
-56.4325
 20
-1193.12
 11
-56.2974
 21
-1193.31
  0
LINE
  8
0
 10
-56.2974
 20
-1193.31
 11
-56.2038
 21
-1193.52
  0
LINE
  8
0
 10
-56.2038
 20
-1193.52
 11
-56.156
 21
-1193.74
  0
LINE
  8
0
 10
-56.156
 20
-1193.74
 11
-56.156
 21
-1193.97
  0
LINE
  8
0
 10
-56.156
 20
-1193.97
 11
-56.2038
 21
-1194.2
  0
LINE
  8
0
 10
-56.2038
 20
-1194.2
 11
-56.2974
 21
-1194.41
  0
LINE
  8
0
 10
-56.2974
 20
-1194.41
 11
-56.4325
 21
-1194.6
  0
LINE
  8
0
 10
-56.4325
 20
-1194.6
 11
-56.6034
 21
-1194.75
  0
LINE
  8
0
 10
-56.6034
 20
-1194.75
 11
-56.8026
 21
-1194.86
  0
LINE
  8
0
 10
-56.8026
 20
-1194.86
 11
-57.0213
 21
-1194.94
  0
LINE
  8
0
 10
-57.0213
 20
-1194.94
 11
-57.25
 21
-1194.96
  0
LINE
  8
0
 10
-57.25
 20
-1194.96
 11
-57.4787
 21
-1194.94
  0
LINE
  8
0
 10
-57.4787
 20
-1200.02
 11
-57.6974
 21
-1199.94
  0
LINE
  8
0
 10
-57.6974
 20
-1199.94
 11
-57.8966
 21
-1199.83
  0
LINE
  8
0
 10
-57.8966
 20
-1199.83
 11
-58.0675
 21
-1199.68
  0
LINE
  8
0
 10
-58.0675
 20
-1199.68
 11
-58.2026
 21
-1199.49
  0
LINE
  8
0
 10
-58.2026
 20
-1199.49
 11
-58.2962
 21
-1199.28
  0
LINE
  8
0
 10
-58.2962
 20
-1199.28
 11
-58.344
 21
-1199.05
  0
LINE
  8
0
 10
-58.344
 20
-1199.05
 11
-58.344
 21
-1198.83
  0
LINE
  8
0
 10
-58.344
 20
-1198.83
 11
-58.2962
 21
-1198.6
  0
LINE
  8
0
 10
-58.2962
 20
-1198.6
 11
-58.2026
 21
-1198.39
  0
LINE
  8
0
 10
-58.2026
 20
-1198.39
 11
-58.0675
 21
-1198.2
  0
LINE
  8
0
 10
-58.0675
 20
-1198.2
 11
-57.8966
 21
-1198.05
  0
LINE
  8
0
 10
-57.8966
 20
-1198.05
 11
-57.6974
 21
-1197.94
  0
LINE
  8
0
 10
-57.6974
 20
-1197.94
 11
-57.4787
 21
-1197.86
  0
LINE
  8
0
 10
-57.4787
 20
-1197.86
 11
-57.25
 21
-1197.84
  0
LINE
  8
0
 10
-57.25
 20
-1197.84
 11
-57.0213
 21
-1197.86
  0
LINE
  8
0
 10
-57.0213
 20
-1197.86
 11
-56.8026
 21
-1197.94
  0
LINE
  8
0
 10
-56.8026
 20
-1197.94
 11
-56.6034
 21
-1198.05
  0
LINE
  8
0
 10
-56.6034
 20
-1198.05
 11
-56.4325
 21
-1198.2
  0
LINE
  8
0
 10
-56.4325
 20
-1198.2
 11
-56.2974
 21
-1198.39
  0
LINE
  8
0
 10
-56.2974
 20
-1198.39
 11
-56.2038
 21
-1198.6
  0
LINE
  8
0
 10
-56.2038
 20
-1198.6
 11
-56.156
 21
-1198.83
  0
LINE
  8
0
 10
-56.156
 20
-1198.83
 11
-56.156
 21
-1199.05
  0
LINE
  8
0
 10
-56.156
 20
-1199.05
 11
-56.2038
 21
-1199.28
  0
LINE
  8
0
 10
-56.2038
 20
-1199.28
 11
-56.2974
 21
-1199.49
  0
LINE
  8
0
 10
-56.2974
 20
-1199.49
 11
-56.4325
 21
-1199.68
  0
LINE
  8
0
 10
-56.4325
 20
-1199.68
 11
-56.6034
 21
-1199.83
  0
LINE
  8
0
 10
-56.6034
 20
-1199.83
 11
-56.8026
 21
-1199.94
  0
LINE
  8
0
 10
-56.8026
 20
-1199.94
 11
-57.0213
 21
-1200.02
  0
LINE
  8
0
 10
-57.0213
 20
-1200.02
 11
-57.25
 21
-1200.04
  0
LINE
  8
0
 10
-57.25
 20
-1200.04
 11
-57.4787
 21
-1200.02
  0
LINE
  8
0
 10
65.0213
 20
-1200.02
 11
64.8026
 21
-1199.94
  0
LINE
  8
0
 10
64.8026
 20
-1199.94
 11
64.6034
 21
-1199.83
  0
LINE
  8
0
 10
64.6034
 20
-1199.83
 11
64.4325
 21
-1199.68
  0
LINE
  8
0
 10
64.4325
 20
-1199.68
 11
64.2974
 21
-1199.49
  0
LINE
  8
0
 10
64.2974
 20
-1199.49
 11
64.2038
 21
-1199.28
  0
LINE
  8
0
 10
64.2038
 20
-1199.28
 11
64.156
 21
-1199.05
  0
LINE
  8
0
 10
64.156
 20
-1199.05
 11
64.156
 21
-1198.83
  0
LINE
  8
0
 10
64.156
 20
-1198.83
 11
64.2038
 21
-1198.6
  0
LINE
  8
0
 10
64.2038
 20
-1198.6
 11
64.2974
 21
-1198.39
  0
LINE
  8
0
 10
64.2974
 20
-1198.39
 11
64.4325
 21
-1198.2
  0
LINE
  8
0
 10
64.4325
 20
-1198.2
 11
64.6034
 21
-1198.05
  0
LINE
  8
0
 10
64.6034
 20
-1198.05
 11
64.8026
 21
-1197.94
  0
LINE
  8
0
 10
64.8026
 20
-1197.94
 11
65.0213
 21
-1197.86
  0
LINE
  8
0
 10
65.0213
 20
-1197.86
 11
65.25
 21
-1197.84
  0
LINE
  8
0
 10
65.25
 20
-1197.84
 11
65.4787
 21
-1197.86
  0
LINE
  8
0
 10
65.4787
 20
-1197.86
 11
65.6974
 21
-1197.94
  0
LINE
  8
0
 10
65.6974
 20
-1197.94
 11
65.8966
 21
-1198.05
  0
LINE
  8
0
 10
65.8966
 20
-1198.05
 11
66.0675
 21
-1198.2
  0
LINE
  8
0
 10
66.0675
 20
-1198.2
 11
66.2026
 21
-1198.39
  0
LINE
  8
0
 10
66.2026
 20
-1198.39
 11
66.2962
 21
-1198.6
  0
LINE
  8
0
 10
66.2962
 20
-1198.6
 11
66.344
 21
-1198.83
  0
LINE
  8
0
 10
66.344
 20
-1198.83
 11
66.344
 21
-1199.05
  0
LINE
  8
0
 10
66.344
 20
-1199.05
 11
66.2962
 21
-1199.28
  0
LINE
  8
0
 10
66.2962
 20
-1199.28
 11
66.2026
 21
-1199.49
  0
LINE
  8
0
 10
66.2026
 20
-1199.49
 11
66.0675
 21
-1199.68
  0
LINE
  8
0
 10
66.0675
 20
-1199.68
 11
65.8966
 21
-1199.83
  0
LINE
  8
0
 10
65.8966
 20
-1199.83
 11
65.6974
 21
-1199.94
  0
LINE
  8
0
 10
65.6974
 20
-1199.94
 11
65.4787
 21
-1200.02
  0
LINE
  8
0
 10
65.4787
 20
-1200.02
 11
65.25
 21
-1200.04
  0
LINE
  8
0
 10
65.25
 20
-1200.04
 11
65.0213
 21
-1200.02
  0
LINE
  8
0
 10
65.0213
 20
-1205.1
 11
64.8026
 21
-1205.02
  0
LINE
  8
0
 10
64.8026
 20
-1205.02
 11
64.6034
 21
-1204.91
  0
LINE
  8
0
 10
64.6034
 20
-1204.91
 11
64.4325
 21
-1204.76
  0
LINE
  8
0
 10
64.4325
 20
-1204.76
 11
64.2974
 21
-1204.57
  0
LINE
  8
0
 10
64.2974
 20
-1204.57
 11
64.2038
 21
-1204.36
  0
LINE
  8
0
 10
64.2038
 20
-1204.36
 11
64.156
 21
-1204.14
  0
LINE
  8
0
 10
64.156
 20
-1204.14
 11
64.156
 21
-1203.91
  0
LINE
  8
0
 10
64.156
 20
-1203.91
 11
64.2038
 21
-1203.68
  0
LINE
  8
0
 10
64.2038
 20
-1203.68
 11
64.2974
 21
-1203.47
  0
LINE
  8
0
 10
64.2974
 20
-1203.47
 11
64.4325
 21
-1203.28
  0
LINE
  8
0
 10
64.4325
 20
-1203.28
 11
64.6034
 21
-1203.13
  0
LINE
  8
0
 10
64.6034
 20
-1203.13
 11
64.8026
 21
-1203.02
  0
LINE
  8
0
 10
64.8026
 20
-1203.02
 11
65.0213
 21
-1202.94
  0
LINE
  8
0
 10
65.0213
 20
-1202.94
 11
65.25
 21
-1202.92
  0
LINE
  8
0
 10
65.25
 20
-1202.92
 11
65.4787
 21
-1202.94
  0
LINE
  8
0
 10
65.4787
 20
-1202.94
 11
65.6974
 21
-1203.02
  0
LINE
  8
0
 10
65.6974
 20
-1203.02
 11
65.8966
 21
-1203.13
  0
LINE
  8
0
 10
65.8966
 20
-1203.13
 11
66.0675
 21
-1203.28
  0
LINE
  8
0
 10
66.0675
 20
-1203.28
 11
66.2026
 21
-1203.47
  0
LINE
  8
0
 10
66.2026
 20
-1203.47
 11
66.2962
 21
-1203.68
  0
LINE
  8
0
 10
66.2962
 20
-1203.68
 11
66.344
 21
-1203.91
  0
LINE
  8
0
 10
66.344
 20
-1203.91
 11
66.344
 21
-1204.14
  0
LINE
  8
0
 10
66.344
 20
-1204.14
 11
66.2962
 21
-1204.36
  0
LINE
  8
0
 10
66.2962
 20
-1204.36
 11
66.2026
 21
-1204.57
  0
LINE
  8
0
 10
66.2026
 20
-1204.57
 11
66.0675
 21
-1204.76
  0
LINE
  8
0
 10
66.0675
 20
-1204.76
 11
65.8966
 21
-1204.91
  0
LINE
  8
0
 10
65.8966
 20
-1204.91
 11
65.6974
 21
-1205.02
  0
LINE
  8
0
 10
65.6974
 20
-1205.02
 11
65.4787
 21
-1205.1
  0
LINE
  8
0
 10
65.4787
 20
-1205.1
 11
65.25
 21
-1205.12
  0
LINE
  8
0
 10
65.25
 20
-1205.12
 11
65.0213
 21
-1205.1
  0
LINE
  8
0
 10
-57.4787
 20
-1205.1
 11
-57.6974
 21
-1205.02
  0
LINE
  8
0
 10
-57.6974
 20
-1205.02
 11
-57.8966
 21
-1204.91
  0
LINE
  8
0
 10
-57.8966
 20
-1204.91
 11
-58.0675
 21
-1204.76
  0
LINE
  8
0
 10
-58.0675
 20
-1204.76
 11
-58.2026
 21
-1204.57
  0
LINE
  8
0
 10
-58.2026
 20
-1204.57
 11
-58.2962
 21
-1204.36
  0
LINE
  8
0
 10
-58.2962
 20
-1204.36
 11
-58.344
 21
-1204.14
  0
LINE
  8
0
 10
-58.344
 20
-1204.14
 11
-58.344
 21
-1203.91
  0
LINE
  8
0
 10
-58.344
 20
-1203.91
 11
-58.2962
 21
-1203.68
  0
LINE
  8
0
 10
-58.2962
 20
-1203.68
 11
-58.2026
 21
-1203.47
  0
LINE
  8
0
 10
-58.2026
 20
-1203.47
 11
-58.0675
 21
-1203.28
  0
LINE
  8
0
 10
-58.0675
 20
-1203.28
 11
-57.8966
 21
-1203.13
  0
LINE
  8
0
 10
-57.8966
 20
-1203.13
 11
-57.6974
 21
-1203.02
  0
LINE
  8
0
 10
-57.6974
 20
-1203.02
 11
-57.4787
 21
-1202.94
  0
LINE
  8
0
 10
-57.4787
 20
-1202.94
 11
-57.25
 21
-1202.92
  0
LINE
  8
0
 10
-57.25
 20
-1202.92
 11
-57.0213
 21
-1202.94
  0
LINE
  8
0
 10
-57.0213
 20
-1202.94
 11
-56.8026
 21
-1203.02
  0
LINE
  8
0
 10
-56.8026
 20
-1203.02
 11
-56.6034
 21
-1203.13
  0
LINE
  8
0
 10
-56.6034
 20
-1203.13
 11
-56.4325
 21
-1203.28
  0
LINE
  8
0
 10
-56.4325
 20
-1203.28
 11
-56.2974
 21
-1203.47
  0
LINE
  8
0
 10
-56.2974
 20
-1203.47
 11
-56.2038
 21
-1203.68
  0
LINE
  8
0
 10
-56.2038
 20
-1203.68
 11
-56.156
 21
-1203.91
  0
LINE
  8
0
 10
-56.156
 20
-1203.91
 11
-56.156
 21
-1204.14
  0
LINE
  8
0
 10
-56.156
 20
-1204.14
 11
-56.2038
 21
-1204.36
  0
LINE
  8
0
 10
-56.2038
 20
-1204.36
 11
-56.2974
 21
-1204.57
  0
LINE
  8
0
 10
-56.2974
 20
-1204.57
 11
-56.4325
 21
-1204.76
  0
LINE
  8
0
 10
-56.4325
 20
-1204.76
 11
-56.6034
 21
-1204.91
  0
LINE
  8
0
 10
-56.6034
 20
-1204.91
 11
-56.8026
 21
-1205.02
  0
LINE
  8
0
 10
-56.8026
 20
-1205.02
 11
-57.0213
 21
-1205.1
  0
LINE
  8
0
 10
-57.0213
 20
-1205.1
 11
-57.25
 21
-1205.12
  0
LINE
  8
0
 10
-57.25
 20
-1205.12
 11
-57.4787
 21
-1205.1
  0
LINE
  8
0
 10
-57.4787
 20
-1210.18
 11
-57.6974
 21
-1210.1
  0
LINE
  8
0
 10
-57.6974
 20
-1210.1
 11
-57.8966
 21
-1209.99
  0
LINE
  8
0
 10
-57.8966
 20
-1209.99
 11
-58.0675
 21
-1209.84
  0
LINE
  8
0
 10
-58.0675
 20
-1209.84
 11
-58.2026
 21
-1209.65
  0
LINE
  8
0
 10
-58.2026
 20
-1209.65
 11
-58.2962
 21
-1209.44
  0
LINE
  8
0
 10
-58.2962
 20
-1209.44
 11
-58.344
 21
-1209.21
  0
LINE
  8
0
 10
-58.344
 20
-1209.21
 11
-58.344
 21
-1208.98
  0
LINE
  8
0
 10
-58.344
 20
-1208.98
 11
-58.2962
 21
-1208.76
  0
LINE
  8
0
 10
-58.2962
 20
-1208.76
 11
-58.2026
 21
-1208.55
  0
LINE
  8
0
 10
-58.2026
 20
-1208.55
 11
-58.0675
 21
-1208.36
  0
LINE
  8
0
 10
-58.0675
 20
-1208.36
 11
-57.8966
 21
-1208.21
  0
LINE
  8
0
 10
-57.8966
 20
-1208.21
 11
-57.6974
 21
-1208.1
  0
LINE
  8
0
 10
-57.6974
 20
-1208.1
 11
-57.4787
 21
-1208.02
  0
LINE
  8
0
 10
-57.4787
 20
-1208.02
 11
-57.25
 21
-1208
  0
LINE
  8
0
 10
-57.25
 20
-1208
 11
-57.0213
 21
-1208.02
  0
LINE
  8
0
 10
-57.0213
 20
-1208.02
 11
-56.8026
 21
-1208.1
  0
LINE
  8
0
 10
-56.8026
 20
-1208.1
 11
-56.6034
 21
-1208.21
  0
LINE
  8
0
 10
-56.6034
 20
-1208.21
 11
-56.4325
 21
-1208.36
  0
LINE
  8
0
 10
-56.4325
 20
-1208.36
 11
-56.2974
 21
-1208.55
  0
LINE
  8
0
 10
-56.2974
 20
-1208.55
 11
-56.2038
 21
-1208.76
  0
LINE
  8
0
 10
-56.2038
 20
-1208.76
 11
-56.156
 21
-1208.98
  0
LINE
  8
0
 10
-56.156
 20
-1208.98
 11
-56.156
 21
-1209.21
  0
LINE
  8
0
 10
-56.156
 20
-1209.21
 11
-56.2038
 21
-1209.44
  0
LINE
  8
0
 10
-56.2038
 20
-1209.44
 11
-56.2974
 21
-1209.65
  0
LINE
  8
0
 10
-56.2974
 20
-1209.65
 11
-56.4325
 21
-1209.84
  0
LINE
  8
0
 10
-56.4325
 20
-1209.84
 11
-56.6034
 21
-1209.99
  0
LINE
  8
0
 10
-56.6034
 20
-1209.99
 11
-56.8026
 21
-1210.1
  0
LINE
  8
0
 10
-56.8026
 20
-1210.1
 11
-57.0213
 21
-1210.18
  0
LINE
  8
0
 10
-57.0213
 20
-1210.18
 11
-57.25
 21
-1210.2
  0
LINE
  8
0
 10
-57.25
 20
-1210.2
 11
-57.4787
 21
-1210.18
  0
LINE
  8
0
 10
65.0213
 20
-1210.18
 11
64.8026
 21
-1210.1
  0
LINE
  8
0
 10
64.8026
 20
-1210.1
 11
64.6034
 21
-1209.99
  0
LINE
  8
0
 10
64.6034
 20
-1209.99
 11
64.4325
 21
-1209.84
  0
LINE
  8
0
 10
64.4325
 20
-1209.84
 11
64.2974
 21
-1209.65
  0
LINE
  8
0
 10
64.2974
 20
-1209.65
 11
64.2038
 21
-1209.44
  0
LINE
  8
0
 10
64.2038
 20
-1209.44
 11
64.156
 21
-1209.21
  0
LINE
  8
0
 10
64.156
 20
-1209.21
 11
64.156
 21
-1208.98
  0
LINE
  8
0
 10
64.156
 20
-1208.98
 11
64.2038
 21
-1208.76
  0
LINE
  8
0
 10
64.2038
 20
-1208.76
 11
64.2974
 21
-1208.55
  0
LINE
  8
0
 10
64.2974
 20
-1208.55
 11
64.4325
 21
-1208.36
  0
LINE
  8
0
 10
64.4325
 20
-1208.36
 11
64.6034
 21
-1208.21
  0
LINE
  8
0
 10
64.6034
 20
-1208.21
 11
64.8026
 21
-1208.1
  0
LINE
  8
0
 10
64.8026
 20
-1208.1
 11
65.0213
 21
-1208.02
  0
LINE
  8
0
 10
65.0213
 20
-1208.02
 11
65.25
 21
-1208
  0
LINE
  8
0
 10
65.25
 20
-1208
 11
65.4787
 21
-1208.02
  0
LINE
  8
0
 10
65.4787
 20
-1208.02
 11
65.6974
 21
-1208.1
  0
LINE
  8
0
 10
65.6974
 20
-1208.1
 11
65.8966
 21
-1208.21
  0
LINE
  8
0
 10
65.8966
 20
-1208.21
 11
66.0675
 21
-1208.36
  0
LINE
  8
0
 10
66.0675
 20
-1208.36
 11
66.2026
 21
-1208.55
  0
LINE
  8
0
 10
66.2026
 20
-1208.55
 11
66.2962
 21
-1208.76
  0
LINE
  8
0
 10
66.2962
 20
-1208.76
 11
66.344
 21
-1208.98
  0
LINE
  8
0
 10
66.344
 20
-1208.98
 11
66.344
 21
-1209.21
  0
LINE
  8
0
 10
66.344
 20
-1209.21
 11
66.2962
 21
-1209.44
  0
LINE
  8
0
 10
66.2962
 20
-1209.44
 11
66.2026
 21
-1209.65
  0
LINE
  8
0
 10
66.2026
 20
-1209.65
 11
66.0675
 21
-1209.84
  0
LINE
  8
0
 10
66.0675
 20
-1209.84
 11
65.8966
 21
-1209.99
  0
LINE
  8
0
 10
65.8966
 20
-1209.99
 11
65.6974
 21
-1210.1
  0
LINE
  8
0
 10
65.6974
 20
-1210.1
 11
65.4787
 21
-1210.18
  0
LINE
  8
0
 10
65.4787
 20
-1210.18
 11
65.25
 21
-1210.2
  0
LINE
  8
0
 10
65.25
 20
-1210.2
 11
65.0213
 21
-1210.18
  0
LINE
  8
0
 10
-57.4787
 20
-1215.26
 11
-57.6974
 21
-1215.18
  0
LINE
  8
0
 10
-57.6974
 20
-1215.18
 11
-57.8966
 21
-1215.07
  0
LINE
  8
0
 10
-57.8966
 20
-1215.07
 11
-58.0675
 21
-1214.92
  0
LINE
  8
0
 10
-58.0675
 20
-1214.92
 11
-58.2026
 21
-1214.73
  0
LINE
  8
0
 10
-58.2026
 20
-1214.73
 11
-58.2962
 21
-1214.52
  0
LINE
  8
0
 10
-58.2962
 20
-1214.52
 11
-58.344
 21
-1214.29
  0
LINE
  8
0
 10
-58.344
 20
-1214.29
 11
-58.344
 21
-1214.07
  0
LINE
  8
0
 10
-58.344
 20
-1214.07
 11
-58.2962
 21
-1213.84
  0
LINE
  8
0
 10
-58.2962
 20
-1213.84
 11
-58.2026
 21
-1213.63
  0
LINE
  8
0
 10
-58.2026
 20
-1213.63
 11
-58.0675
 21
-1213.44
  0
LINE
  8
0
 10
-58.0675
 20
-1213.44
 11
-57.8966
 21
-1213.29
  0
LINE
  8
0
 10
-57.8966
 20
-1213.29
 11
-57.6974
 21
-1213.18
  0
LINE
  8
0
 10
-57.6974
 20
-1213.18
 11
-57.4787
 21
-1213.1
  0
LINE
  8
0
 10
-57.4787
 20
-1213.1
 11
-57.25
 21
-1213.08
  0
LINE
  8
0
 10
-57.25
 20
-1213.08
 11
-57.0213
 21
-1213.1
  0
LINE
  8
0
 10
-57.0213
 20
-1213.1
 11
-56.8026
 21
-1213.18
  0
LINE
  8
0
 10
-56.8026
 20
-1213.18
 11
-56.6034
 21
-1213.29
  0
LINE
  8
0
 10
-56.6034
 20
-1213.29
 11
-56.4325
 21
-1213.44
  0
LINE
  8
0
 10
-56.4325
 20
-1213.44
 11
-56.2974
 21
-1213.63
  0
LINE
  8
0
 10
-56.2974
 20
-1213.63
 11
-56.2038
 21
-1213.84
  0
LINE
  8
0
 10
-56.2038
 20
-1213.84
 11
-56.156
 21
-1214.07
  0
LINE
  8
0
 10
-56.156
 20
-1214.07
 11
-56.156
 21
-1214.29
  0
LINE
  8
0
 10
-56.156
 20
-1214.29
 11
-56.2038
 21
-1214.52
  0
LINE
  8
0
 10
-56.2038
 20
-1214.52
 11
-56.2974
 21
-1214.73
  0
LINE
  8
0
 10
-56.2974
 20
-1214.73
 11
-56.4325
 21
-1214.92
  0
LINE
  8
0
 10
-56.4325
 20
-1214.92
 11
-56.6034
 21
-1215.07
  0
LINE
  8
0
 10
-56.6034
 20
-1215.07
 11
-56.8026
 21
-1215.18
  0
LINE
  8
0
 10
-56.8026
 20
-1215.18
 11
-57.0213
 21
-1215.26
  0
LINE
  8
0
 10
-57.0213
 20
-1215.26
 11
-57.25
 21
-1215.28
  0
LINE
  8
0
 10
-57.25
 20
-1215.28
 11
-57.4787
 21
-1215.26
  0
LINE
  8
0
 10
65.0213
 20
-1215.26
 11
64.8026
 21
-1215.18
  0
LINE
  8
0
 10
64.8026
 20
-1215.18
 11
64.6034
 21
-1215.07
  0
LINE
  8
0
 10
64.6034
 20
-1215.07
 11
64.4325
 21
-1214.92
  0
LINE
  8
0
 10
64.4325
 20
-1214.92
 11
64.2974
 21
-1214.73
  0
LINE
  8
0
 10
64.2974
 20
-1214.73
 11
64.2038
 21
-1214.52
  0
LINE
  8
0
 10
64.2038
 20
-1214.52
 11
64.156
 21
-1214.29
  0
LINE
  8
0
 10
64.156
 20
-1214.29
 11
64.156
 21
-1214.07
  0
LINE
  8
0
 10
64.156
 20
-1214.07
 11
64.2038
 21
-1213.84
  0
LINE
  8
0
 10
64.2038
 20
-1213.84
 11
64.2974
 21
-1213.63
  0
LINE
  8
0
 10
64.2974
 20
-1213.63
 11
64.4325
 21
-1213.44
  0
LINE
  8
0
 10
64.4325
 20
-1213.44
 11
64.6034
 21
-1213.29
  0
LINE
  8
0
 10
64.6034
 20
-1213.29
 11
64.8026
 21
-1213.18
  0
LINE
  8
0
 10
64.8026
 20
-1213.18
 11
65.0213
 21
-1213.1
  0
LINE
  8
0
 10
65.0213
 20
-1213.1
 11
65.25
 21
-1213.08
  0
LINE
  8
0
 10
65.25
 20
-1213.08
 11
65.4787
 21
-1213.1
  0
LINE
  8
0
 10
65.4787
 20
-1213.1
 11
65.6974
 21
-1213.18
  0
LINE
  8
0
 10
65.6974
 20
-1213.18
 11
65.8966
 21
-1213.29
  0
LINE
  8
0
 10
65.8966
 20
-1213.29
 11
66.0675
 21
-1213.44
  0
LINE
  8
0
 10
66.0675
 20
-1213.44
 11
66.2026
 21
-1213.63
  0
LINE
  8
0
 10
66.2026
 20
-1213.63
 11
66.2962
 21
-1213.84
  0
LINE
  8
0
 10
66.2962
 20
-1213.84
 11
66.344
 21
-1214.07
  0
LINE
  8
0
 10
66.344
 20
-1214.07
 11
66.344
 21
-1214.29
  0
LINE
  8
0
 10
66.344
 20
-1214.29
 11
66.2962
 21
-1214.52
  0
LINE
  8
0
 10
66.2962
 20
-1214.52
 11
66.2026
 21
-1214.73
  0
LINE
  8
0
 10
66.2026
 20
-1214.73
 11
66.0675
 21
-1214.92
  0
LINE
  8
0
 10
66.0675
 20
-1214.92
 11
65.8966
 21
-1215.07
  0
LINE
  8
0
 10
65.8966
 20
-1215.07
 11
65.6974
 21
-1215.18
  0
LINE
  8
0
 10
65.6974
 20
-1215.18
 11
65.4787
 21
-1215.26
  0
LINE
  8
0
 10
65.4787
 20
-1215.26
 11
65.25
 21
-1215.28
  0
LINE
  8
0
 10
65.25
 20
-1215.28
 11
65.0213
 21
-1215.26
  0
ENDSEC
  0
SECTION
  2
OBJECTS
  0
DICTIONARY
  0
ENDSEC
  0
EOF
